<svg xmlns="http://www.w3.org/2000/svg" version="1.1" xmlns:xlink="http://www.w3.org/1999/xlink" xmlns:svgjs="http://svgjs.com/svgjs" width="894.5px" height="894.5px"><svg version="1.1" id="SvgjsSvg1000" xmlns="http://www.w3.org/2000/svg" xmlns:xlink="http://www.w3.org/1999/xlink" x="0px" y="0px" width="894.5px" height="894.5px" viewBox="0 0 894.5 894.5" enable-background="new 0 0 894.5 894.5" xml:space="preserve">
<rect x="-13.984" y="-10.25" fill="#9ACD32" width="920" height="922"></rect>
<g>
	<path fill="#FFFFFF" d="M757.913,180.939c-97.049,42.058-182.956,106.169-252.135,186.102h53.504
		c62.008-64.361,136.391-115.87,218.597-151.494C801.273,205.411,781.097,170.896,757.913,180.939z"></path>
	<path fill="#FFFFFF" d="M489.046,387.081H84.216c0,195.889,156.759,354.689,350.13,354.689s350.131-158.802,350.131-354.689
		H540.779H489.046L489.046,387.081z"></path>
	<path fill="#FFFFFF" d="M323.038,289.004c0.369-0.873,0.588-1.694,0.87-2.508c0.303-0.809,0.849-1.564,1.237-2.301
		c0.506-0.726,0.613-1.45,1.228-2.095c0.553-0.651,0.999-1.274,1.438-1.871c0.36-0.601,0.91-1.179,1.523-1.72
		c0.578-0.54,1.064-1.077,1.504-1.61c1.17-1.058,2.531-2.084,3.47-3.173c1.567-1.071,2.9-2.213,4.137-3.374
		c1.456-0.79,2.703-1.648,3.783-2.669c0.11-0.16,0.902-0.71,1.55-1.178l1.974-1.423c1.332-0.938,2.623-1.928,3.917-2.917
		l2.901-2.188l5.055-3.955c6.603-5.68,12.763-12.582,17.666-20.576c4.92-7.964,8.408-17.066,9.937-26.093
		c1.575-9.029,1.222-17.842-0.387-25.504c-1.574-7.699-4.471-14.255-7.605-19.69c-6.432-10.873-14.21-17.306-20.048-21.045
		c-2.882-1.904-5.529-3.006-7.186-3.79c-1.725-0.75-2.741-1.008-2.741-1.008s-0.032,1.008-0.087,2.897
		c0.02,1.797-0.246,4.541-0.373,7.691c-0.368,6.348-1.044,14.957-2.849,23.346c-0.847,4.18-2.144,8.296-3.659,11.942
		c-1.535,3.672-3.358,6.854-5.36,9.654c-2.015,2.81-4.192,5.302-6.688,7.927c-2.502,2.61-5.405,5.315-8.736,8.168l-2.631,2.144
		l-0.653,0.546l-0.162,0.136l-1.484,1.175l-0.114,0.104l-0.455,0.414l-1.819,1.641c-1.215,1.089-2.425,2.178-3.593,3.314
		l-1.764,1.678c-0.594,0.57-1.095,0.999-2.026,2.084c-3.324,3.691-6.449,7.515-9.313,11.35c-2.426,4.004-4.621,8.036-6.58,12.019
		c-0.871,2.211-1.626,4.465-2.334,6.667c-0.682,2.245-1.468,4.297-1.833,6.629c-0.378,2.326-0.704,4.618-0.925,6.871
		c-0.107,1.114-0.212,2.225-0.319,3.327c-0.06,1.106,0.055,2.251,0.096,3.354c0.201,4.437,0.573,8.622,1.807,12.478
		c0.571,1.918,1.029,3.812,1.729,5.539c0.755,1.712,1.443,3.374,2.276,4.931c1.489,3.187,3.5,5.743,5.26,8.18
		c1.906,2.344,3.867,4.306,5.726,6.072c2.03,1.626,3.802,3.126,5.642,4.297c1.883,1.129,3.509,2.155,5.14,2.901
		c3.161,1.571,5.946,2.297,7.708,2.822c1.836,0.473,2.876,0.552,2.876,0.552s-0.122-1.001-0.352-2.877
		c-0.274-1.776-0.368-4.524-0.59-7.602c-0.04-1.514-0.083-3.198-0.133-5.027c0.058-1.704,0.121-3.547,0.189-5.515
		C321.273,296.347,321.768,292.481,323.038,289.004z"></path>
	<path fill="#FFFFFF" d="M436.445,289.004c0.372-0.873,0.587-1.694,0.868-2.508c0.311-0.809,0.85-1.564,1.24-2.301
		c0.505-0.726,0.611-1.45,1.226-2.095c0.555-0.651,0.998-1.274,1.438-1.871c0.362-0.601,0.913-1.179,1.523-1.72
		c0.577-0.54,1.064-1.077,1.506-1.61c1.171-1.058,2.532-2.084,3.47-3.173c1.566-1.071,2.896-2.213,4.137-3.374
		c1.457-0.79,2.702-1.648,3.783-2.669c0.11-0.16,0.902-0.71,1.551-1.178l1.974-1.423c1.329-0.938,2.624-1.928,3.914-2.917
		l2.901-2.188l5.057-3.955c6.605-5.68,12.765-12.582,17.665-20.576c4.922-7.964,8.407-17.066,9.94-26.093
		c1.574-9.029,1.22-17.842-0.389-25.504c-1.575-7.699-4.47-14.255-7.604-19.69c-6.434-10.873-14.211-17.306-20.047-21.045
		c-2.879-1.904-5.525-3.006-7.184-3.79c-1.725-0.75-2.742-1.008-2.742-1.008s-0.029,1.008-0.088,2.897
		c0.02,1.797-0.245,4.541-0.371,7.691c-0.367,6.348-1.043,14.957-2.85,23.346c-0.846,4.18-2.145,8.296-3.658,11.942
		c-1.534,3.672-3.358,6.854-5.361,9.654c-2.014,2.81-4.189,5.302-6.686,7.927c-2.506,2.61-5.406,5.315-8.738,8.168l-2.629,2.144
		l-0.652,0.546l-0.163,0.136l-1.483,1.175l-0.114,0.104l-0.454,0.414l-1.821,1.641c-1.216,1.089-2.426,2.178-3.593,3.314
		l-1.764,1.678c-0.594,0.57-1.096,0.999-2.026,2.084c-3.322,3.691-6.448,7.515-9.313,11.35c-2.424,4.004-4.62,8.036-6.579,12.019
		c-0.871,2.211-1.626,4.465-2.334,6.667c-0.68,2.245-1.467,4.297-1.832,6.629c-0.378,2.326-0.705,4.618-0.925,6.871
		c-0.106,1.114-0.213,2.225-0.322,3.327c-0.06,1.106,0.055,2.251,0.095,3.354c0.203,4.437,0.574,8.622,1.809,12.478
		c0.569,1.918,1.028,3.812,1.729,5.539c0.756,1.712,1.442,3.374,2.274,4.931c1.495,3.187,3.502,5.743,5.262,8.18
		c1.906,2.344,3.865,4.306,5.724,6.072c2.029,1.626,3.802,3.126,5.643,4.297c1.883,1.129,3.509,2.155,5.14,2.901
		c3.161,1.571,5.946,2.297,7.71,2.822c1.836,0.473,2.877,0.552,2.877,0.552s-0.122-1.001-0.354-2.877
		c-0.271-1.776-0.368-4.524-0.589-7.602c-0.039-1.514-0.084-3.198-0.135-5.027c0.06-1.704,0.123-3.547,0.189-5.515
		C434.68,296.347,435.171,292.481,436.445,289.004z"></path>
	<path fill="#FFFFFF" d="M206.776,288.228c0.374-0.874,0.588-1.696,0.869-2.509c0.31-0.81,0.85-1.564,1.24-2.3
		c0.504-0.726,0.611-1.451,1.226-2.096c0.554-0.65,0.999-1.274,1.438-1.871c0.363-0.601,0.913-1.178,1.522-1.72
		c0.578-0.54,1.066-1.078,1.506-1.612c1.17-1.057,2.531-2.083,3.468-3.172c1.567-1.071,2.898-2.213,4.137-3.374
		c1.458-0.789,2.703-1.647,3.784-2.669c0.11-0.16,0.902-0.709,1.55-1.177l1.974-1.425c1.329-0.938,2.624-1.928,3.915-2.917
		l2.902-2.188l5.056-3.955c6.605-5.68,12.765-12.582,17.664-20.576c4.923-7.963,8.409-17.066,9.941-26.092
		c1.574-9.029,1.22-17.842-0.389-25.504c-1.575-7.699-4.47-14.255-7.604-19.69c-6.433-10.874-14.21-17.306-20.046-21.045
		c-2.879-1.903-5.526-3.006-7.185-3.79c-1.725-0.75-2.742-1.008-2.742-1.008s-0.029,1.008-0.087,2.897
		c0.02,1.797-0.246,4.541-0.372,7.691c-0.367,6.348-1.043,14.956-2.849,23.346c-0.848,4.18-2.145,8.295-3.658,11.942
		c-1.533,3.672-3.36,6.853-5.36,9.654c-2.015,2.81-4.191,5.301-6.687,7.929c-2.506,2.608-5.405,5.314-8.736,8.167l-2.63,2.143
		l-0.653,0.546l-0.163,0.136l-1.483,1.175l-0.115,0.104l-0.454,0.414l-1.821,1.641c-1.216,1.089-2.426,2.179-3.593,3.313
		l-1.764,1.679c-0.593,0.57-1.094,0.999-2.025,2.083c-3.322,3.691-6.448,7.515-9.313,11.351c-2.426,4.004-4.621,8.035-6.58,12.018
		c-0.869,2.212-1.625,4.465-2.333,6.669c-0.681,2.244-1.467,4.296-1.833,6.628c-0.378,2.326-0.705,4.618-0.924,6.871
		c-0.107,1.114-0.213,2.225-0.322,3.326c-0.06,1.106,0.056,2.252,0.095,3.354c0.202,4.437,0.573,8.622,1.809,12.477
		c0.569,1.918,1.028,3.812,1.728,5.541c0.756,1.711,1.443,3.373,2.276,4.932c1.495,3.186,3.501,5.742,5.26,8.179
		c1.907,2.345,3.866,4.306,5.726,6.073c2.028,1.625,3.8,3.126,5.642,4.297c1.883,1.129,3.508,2.154,5.139,2.901
		c3.161,1.57,5.946,2.296,7.711,2.822c1.836,0.471,2.876,0.551,2.876,0.551s-0.123-1.001-0.354-2.876
		c-0.271-1.775-0.367-4.523-0.589-7.603c-0.039-1.512-0.084-3.198-0.135-5.025c0.06-1.704,0.123-3.547,0.19-5.514
		C205.01,295.57,205.501,291.703,206.776,288.228z"></path>
</g>
</svg><style>@media (prefers-color-scheme: light) { :root { filter: none; } }
</style></svg>