<svg xmlns="http://www.w3.org/2000/svg" xmlns:xlink="http://www.w3.org/1999/xlink" xmlns:svgjs="http://svgjs.com/svgjs" width="894.5" height="894.5"><svg id="SvgjsSvg1000" xmlns="http://www.w3.org/2000/svg" xmlns:xlink="http://www.w3.org/1999/xlink" width="894.5" height="894.5" viewBox="0 0 894.5 894.5" enable-background="new 0 0 894.5 894.5"><rect x="-13.984" y="-10.25" fill="#9acd32" width="920" height="922"/><g><path fill="#fff" d="M757.913 180.939c-97.049 42.058-182.956 106.169-252.135 186.102h53.504c62.008-64.361 136.391-115.87 218.597-151.494C801.273 205.411 781.097 170.896 757.913 180.939z"/><path fill="#fff" d="M489.046 387.081H84.216c0 195.889 156.759 354.689 350.13 354.689s350.131-158.802 350.131-354.689H540.779 489.046V387.081z"/><path fill="#fff" d="M323.038 289.004c.369-.873.588-1.694.87-2.508.303-.809.849-1.564 1.237-2.301.506-.726.613-1.45 1.228-2.095.553-.651.999-1.274 1.438-1.871.36-.601.91-1.179 1.523-1.72.578-.54 1.064-1.077 1.504-1.61 1.17-1.058 2.531-2.084 3.47-3.173 1.567-1.071 2.9-2.213 4.137-3.374 1.456-.79 2.703-1.648 3.783-2.669.11-.16.902-.71 1.55-1.178l1.974-1.423c1.332-.938 2.623-1.928 3.917-2.917l2.901-2.188 5.055-3.955c6.603-5.68 12.763-12.582 17.666-20.576 4.92-7.964 8.408-17.066 9.937-26.093 1.575-9.029 1.222-17.842-.387-25.504-1.574-7.699-4.471-14.255-7.605-19.69-6.432-10.873-14.21-17.306-20.048-21.045-2.882-1.904-5.529-3.006-7.186-3.79-1.725-.75-2.741-1.008-2.741-1.008s-.032 1.008-.087 2.897c.02 1.797-.246 4.541-.373 7.691-.368 6.348-1.044 14.957-2.849 23.346-.847 4.18-2.144 8.296-3.659 11.942-1.535 3.672-3.358 6.854-5.36 9.654-2.015 2.81-4.192 5.302-6.688 7.927-2.502 2.61-5.405 5.315-8.736 8.168l-2.631 2.144-.653.546-.162.136-1.484 1.175-.114.104-.455.414-1.819 1.641c-1.215 1.089-2.425 2.178-3.593 3.314l-1.764 1.678c-.594.57-1.095.999-2.026 2.084-3.324 3.691-6.449 7.515-9.313 11.35-2.426 4.004-4.621 8.036-6.58 12.019-.871 2.211-1.626 4.465-2.334 6.667-.682 2.245-1.468 4.297-1.833 6.629-.378 2.326-.704 4.618-.925 6.871-.107 1.114-.212 2.225-.319 3.327-.06 1.106.055 2.251.096 3.354.201 4.437.573 8.622 1.807 12.478.571 1.918 1.029 3.812 1.729 5.539.755 1.712 1.443 3.374 2.276 4.931 1.489 3.187 3.5 5.743 5.26 8.18 1.906 2.344 3.867 4.306 5.726 6.072 2.03 1.626 3.802 3.126 5.642 4.297 1.883 1.129 3.509 2.155 5.14 2.901 3.161 1.571 5.946 2.297 7.708 2.822 1.836.473 2.876.552 2.876.552s-.122-1.001-.352-2.877c-.274-1.776-.368-4.524-.59-7.602-.04-1.514-.083-3.198-.133-5.027.058-1.704.121-3.547.189-5.515C321.273 296.347 321.768 292.481 323.038 289.004z"/><path fill="#fff" d="M436.445 289.004c.372-.873.587-1.694.868-2.508.311-.809.85-1.564 1.24-2.301.505-.726.611-1.45 1.226-2.095.555-.651.998-1.274 1.438-1.871.362-.601.913-1.179 1.523-1.72.577-.54 1.064-1.077 1.506-1.61 1.171-1.058 2.532-2.084 3.47-3.173 1.566-1.071 2.896-2.213 4.137-3.374 1.457-.79 2.702-1.648 3.783-2.669.11-.16.902-.71 1.551-1.178l1.974-1.423c1.329-.938 2.624-1.928 3.914-2.917l2.901-2.188 5.057-3.955c6.605-5.68 12.765-12.582 17.665-20.576 4.922-7.964 8.407-17.066 9.94-26.093 1.574-9.029 1.22-17.842-.389-25.504-1.575-7.699-4.47-14.255-7.604-19.69-6.434-10.873-14.211-17.306-20.047-21.045-2.879-1.904-5.525-3.006-7.184-3.79-1.725-.75-2.742-1.008-2.742-1.008s-.029 1.008-.088 2.897c.02 1.797-.245 4.541-.371 7.691-.367 6.348-1.043 14.957-2.85 23.346-.846 4.18-2.145 8.296-3.658 11.942-1.534 3.672-3.358 6.854-5.361 9.654-2.014 2.81-4.189 5.302-6.686 7.927-2.506 2.61-5.406 5.315-8.738 8.168l-2.629 2.144-.652.546-.163.136-1.483 1.175-.114.104-.454.414-1.821 1.641c-1.216 1.089-2.426 2.178-3.593 3.314l-1.764 1.678c-.594.57-1.096.999-2.026 2.084-3.322 3.691-6.448 7.515-9.313 11.35-2.424 4.004-4.62 8.036-6.579 12.019-.871 2.211-1.626 4.465-2.334 6.667-.68 2.245-1.467 4.297-1.832 6.629-.378 2.326-.705 4.618-.925 6.871-.106 1.114-.213 2.225-.322 3.327-.06 1.106.055 2.251.095 3.354.203 4.437.574 8.622 1.809 12.478.569 1.918 1.028 3.812 1.729 5.539.756 1.712 1.442 3.374 2.274 4.931 1.495 3.187 3.502 5.743 5.262 8.18 1.906 2.344 3.865 4.306 5.724 6.072 2.029 1.626 3.802 3.126 5.643 4.297 1.883 1.129 3.509 2.155 5.14 2.901 3.161 1.571 5.946 2.297 7.71 2.822 1.836.473 2.877.552 2.877.552s-.122-1.001-.354-2.877c-.271-1.776-.368-4.524-.589-7.602-.039-1.514-.084-3.198-.135-5.027.06-1.704.123-3.547.189-5.515C434.68 296.347 435.171 292.481 436.445 289.004z"/><path fill="#fff" d="M206.776 288.228c.374-.874.588-1.696.869-2.509.31-.81.85-1.564 1.24-2.3.504-.726.611-1.451 1.226-2.096.554-.65.999-1.274 1.438-1.871.363-.601.913-1.178 1.522-1.72.578-.54 1.066-1.078 1.506-1.612 1.17-1.057 2.531-2.083 3.468-3.172 1.567-1.071 2.898-2.213 4.137-3.374 1.458-.789 2.703-1.647 3.784-2.669.11-.16.902-.709 1.55-1.177l1.974-1.425c1.329-.938 2.624-1.928 3.915-2.917l2.902-2.188 5.056-3.955c6.605-5.68 12.765-12.582 17.664-20.576 4.923-7.963 8.409-17.066 9.941-26.092 1.574-9.029 1.22-17.842-.389-25.504-1.575-7.699-4.47-14.255-7.604-19.69-6.433-10.874-14.21-17.306-20.046-21.045-2.879-1.903-5.526-3.006-7.185-3.79-1.725-.75-2.742-1.008-2.742-1.008s-.029 1.008-.087 2.897c.02 1.797-.246 4.541-.372 7.691-.367 6.348-1.043 14.956-2.849 23.346-.848 4.18-2.145 8.295-3.658 11.942-1.533 3.672-3.36 6.853-5.36 9.654-2.015 2.81-4.191 5.301-6.687 7.929-2.506 2.608-5.405 5.314-8.736 8.167l-2.63 2.143-.653.546-.163.136-1.483 1.175-.115.104-.454.414-1.821 1.641c-1.216 1.089-2.426 2.179-3.593 3.313l-1.764 1.679c-.593.57-1.094.999-2.025 2.083-3.322 3.691-6.448 7.515-9.313 11.351-2.426 4.004-4.621 8.035-6.58 12.018-.869 2.212-1.625 4.465-2.333 6.669-.681 2.244-1.467 4.296-1.833 6.628-.378 2.326-.705 4.618-.924 6.871-.107 1.114-.213 2.225-.322 3.326-.06 1.106.056 2.252.095 3.354.202 4.437.573 8.622 1.809 12.477.569 1.918 1.028 3.812 1.728 5.541.756 1.711 1.443 3.373 2.276 4.932 1.495 3.186 3.501 5.742 5.26 8.179 1.907 2.345 3.866 4.306 5.726 6.073 2.028 1.625 3.8 3.126 5.642 4.297 1.883 1.129 3.508 2.154 5.139 2.901 3.161 1.57 5.946 2.296 7.711 2.822 1.836.471 2.876.551 2.876.551s-.123-1.001-.354-2.876c-.271-1.775-.367-4.523-.589-7.603-.039-1.512-.084-3.198-.135-5.025.06-1.704.123-3.547.19-5.514C205.01 295.57 205.501 291.703 206.776 288.228z"/></g></svg><style>@media(prefers-color-scheme:light){:root{filter:none}}</style></svg>