<svg xmlns="http://www.w3.org/2000/svg"><style>.icon { display: none; fill: #aaaaaa }.icon:target { display: inline; }</style>
  <svg viewBox="0 0 12 16" >
    <g id="author" class="icon">
        <path d="M6 1c2.2 0 3.5 2 3.5 4.5C9.5 7 8.9 8.2 8 9c2.9.8 4 2.5 4 5v1H0v-1c0-2.5 1.1-4.2 4-5-.9-.8-1.5-2-1.5-3.5C2.5 3 3.8 1 6 1z"></path>
    </g>
  </svg>
  <svg viewBox="0 0 16 16">
    <g id="category" class="icon">
        <path d="m7 2l1 2h8v11h-16v-13z"></path>
    </g>
  </svg>
  <svg viewBox="0 0 30 28">
    <g id="date" class="icon">
        <path d="M15 0C7 0 1 6 1 14s6 14 14 14 14-6 14-14S23 0 15 0zm0 25C9 25 4 20 4 14S9 3 15 3s11 5 11 11-5 11-11 11zm1-18h-2v8.4l6.8 4.4L22 18l-6-3.8V7z"></path>
     </g>
  </svg>
</svg>