<svg xmlns="http://www.w3.org/2000/svg" width="48" height="48" viewBox="0 0 48 48"><style>.icon { display: none; }.icon:target { display: inline; }</style>
    <g id="arrow-left-light" class="icon" style="fill: #ffffff;" >
        <path d="M1.5 24l22.5 22.5v-13.5h24v-18h-24v-13.5z"/>
    </g>
     <g id="arrow-left-darkest" class="icon" style="fill: #1a1a1a;" >
        <path d="M1.5 24l22.5 22.5v-13.5h24v-18h-24v-13.5z"/>
    </g>
    <g id="arrow-up-light" class="icon" style="fill: #ffffff;" >
        <path d="M24 1.5l-22.5 22.5h13.5v24h18v-24h13.5z"/>
    </g>
    <g id="cart-dark" class="icon" transform="matrix(2,0,0,2,0,0)" style="fill: #8c8c8c;" >
        <path d="M0.5,3H4c0.232,0,0.434,0.16,0.487,0.386L5.809,9H23.5c0.161,0,0.313,0.077,0.406,0.208s0.119,0.299,0.068,0.451l-3,9  C20.906,18.862,20.716,19,20.5,19H8.161l0.235,1H19c1.104,0,2,0.898,2,2c0,1.104-0.896,2-2,2c-1.103,0-2-0.896-2-2  c0-0.365,0.106-0.704,0.278-1H9.723C9.895,21.296,10,21.635,10,22c0,1.104-0.896,2-2,2c-1.103,0-2-0.896-2-2  c0-0.89,0.588-1.637,1.394-1.896L3.604,4H0.5C0.225,4,0,3.776,0,3.5S0.225,3,0.5,3z" />
    </g>
    <g id="cart-light" class="icon" transform="matrix(2,0,0,2,0,0)" style="fill: #ffffff;" >
        <path d="M0.5,3H4c0.232,0,0.434,0.16,0.487,0.386L5.809,9H23.5c0.161,0,0.313,0.077,0.406,0.208s0.119,0.299,0.068,0.451l-3,9  C20.906,18.862,20.716,19,20.5,19H8.161l0.235,1H19c1.104,0,2,0.898,2,2c0,1.104-0.896,2-2,2c-1.103,0-2-0.896-2-2  c0-0.365,0.106-0.704,0.278-1H9.723C9.895,21.296,10,21.635,10,22c0,1.104-0.896,2-2,2c-1.103,0-2-0.896-2-2  c0-0.89,0.588-1.637,1.394-1.896L3.604,4H0.5C0.225,4,0,3.776,0,3.5S0.225,3,0.5,3z" />
    </g>
    <g id="info-light" class="icon" style="fill: #ffffff;" >
        <path d="M21 14.25c0-1.237 1.013-2.25 2.25-2.25h1.5c1.237 0 2.25 1.013 2.25 2.25v1.5c0 1.237-1.013 2.25-2.25 2.25h-1.5c-1.237 0-2.25-1.013-2.25-2.25v-1.5z"/>
        <path d="M30 36h-12v-3h3v-9h-3v-3h9v12h3z"/>
        <path d="M24 0c-13.255 0-24 10.745-24 24s10.745 24 24 24 24-10.745 24-24-10.745-24-24-24zM24 43.5c-10.77 0-19.5-8.73-19.5-19.5s8.73-19.5 19.5-19.5 19.5 8.73 19.5 19.5-8.73 19.5-19.5 19.5z"/>
    </g>
    <g id="info-dark" class="icon" style="fill: #00000;" >
        <path d="M21 14.25c0-1.237 1.013-2.25 2.25-2.25h1.5c1.237 0 2.25 1.013 2.25 2.25v1.5c0 1.237-1.013 2.25-2.25 2.25h-1.5c-1.237 0-2.25-1.013-2.25-2.25v-1.5z"/>
        <path d="M30 36h-12v-3h3v-9h-3v-3h9v12h3z"/>
        <path d="M24 0c-13.255 0-24 10.745-24 24s10.745 24 24 24 24-10.745 24-24-10.745-24-24-24zM24 43.5c-10.77 0-19.5-8.73-19.5-19.5s8.73-19.5 19.5-19.5 19.5 8.73 19.5 19.5-8.73 19.5-19.5 19.5z"/>
    </g>
    <g id="location-light" class="icon" transform="matrix(1.6,0,0,1.6,0,0)" style="fill: #ffffff;" >
        <path d="M16 0c-5.523 0-10 4.477-10 10 0 10 10 22 10 22s10-12 10-22c0-5.523-4.477-10-10-10zM16 16c-3.314 0-6-2.686-6-6s2.686-6 6-6 6 2.686 6 6-2.686 6-6 6z"/>
    </g>
    <g id="notification-light" class="icon" style="fill: #ffffff;" >
       <path d="M24 4.5c-5.209 0-10.105 2.028-13.789 5.711s-5.711 8.58-5.711 13.789c0 5.209 2.028 10.106 5.711 13.789s8.58 5.711 13.789 5.711c5.209 0 10.106-2.028 13.789-5.711s5.711-8.58 5.711-13.789c0-5.209-2.028-10.105-5.711-13.789s-8.58-5.711-13.789-5.711zM24 0v0c13.255 0 24 10.745 24 24s-10.745 24-24 24c-13.255 0-24-10.745-24-24s10.745-24 24-24zM21 33h6v6h-6zM21 9h6v18h-6z"/>
    </g>
    <g id="notification-dark" class="icon" style="fill: #00000;" >
       <path d="M24 4.5c-5.209 0-10.105 2.028-13.789 5.711s-5.711 8.58-5.711 13.789c0 5.209 2.028 10.106 5.711 13.789s8.58 5.711 13.789 5.711c5.209 0 10.106-2.028 13.789-5.711s5.711-8.58 5.711-13.789c0-5.209-2.028-10.105-5.711-13.789s-8.58-5.711-13.789-5.711zM24 0v0c13.255 0 24 10.745 24 24s-10.745 24-24 24c-13.255 0-24-10.745-24-24s10.745-24 24-24zM21 33h6v6h-6zM21 9h6v18h-6z"/>
    </g>
    <g id="search-darkest" class="icon" style="fill: #1a1a1a; stroke: #1a1a1a;">
        <path d="M46.512 40.847l-11.37-9.67c-1.175-1.058-2.432-1.543-3.448-1.497 2.684-3.144 4.305-7.222 4.305-11.68 0-9.941-8.059-18-18-18s-18 8.059-18 18 8.059 18 18 18c4.458 0 8.536-1.621 11.68-4.305-0.047 1.015 0.439 2.272 1.497 3.448l9.67 11.37c1.656 1.84 4.36 1.995 6.010 0.345s1.495-4.355-0.345-6.010zM18 30c-6.627 0-12-5.373-12-12s5.373-12 12-12 12 5.373 12 12-5.373 12-12 12z"/>
    </g>
    <g id="search-dark" class="icon" style="fill: #8c8c8c; stroke: #8c8c8c;">
        <path d="M46.512 40.847l-11.37-9.67c-1.175-1.058-2.432-1.543-3.448-1.497 2.684-3.144 4.305-7.222 4.305-11.68 0-9.941-8.059-18-18-18s-18 8.059-18 18 8.059 18 18 18c4.458 0 8.536-1.621 11.68-4.305-0.047 1.015 0.439 2.272 1.497 3.448l9.67 11.37c1.656 1.84 4.36 1.995 6.010 0.345s1.495-4.355-0.345-6.010zM18 30c-6.627 0-12-5.373-12-12s5.373-12 12-12 12 5.373 12 12-5.373 12-12 12z"/>
    </g>
    <g id="search-light" class="icon" style="fill: #ffffff; stroke: #ffffff;">
        <path d="M46.512 40.847l-11.37-9.67c-1.175-1.058-2.432-1.543-3.448-1.497 2.684-3.144 4.305-7.222 4.305-11.68 0-9.941-8.059-18-18-18s-18 8.059-18 18 8.059 18 18 18c4.458 0 8.536-1.621 11.68-4.305-0.047 1.015 0.439 2.272 1.497 3.448l9.67 11.37c1.656 1.84 4.36 1.995 6.010 0.345s1.495-4.355-0.345-6.010zM18 30c-6.627 0-12-5.373-12-12s5.373-12 12-12 12 5.373 12 12-5.373 12-12 12z"/>
    </g>
    <g id="upload-light" class="icon" style="fill: #ffffff; stroke: #ffffff;">
       <path d="M21 27h6v-12h9l-12-12-12 12h9zM30 20.25v4.627l13.737 5.123-19.737 7.36-19.737-7.36 13.737-5.123v-4.627l-18 6.75v12l24 9 24-9v-12z" />
    </g>
    <g id="steady-light" class="icon" style="fill: #ffffff; stroke: #ffffff;">
        <path style="stroke:#fff;stroke-width:0;stroke-dasharray:none;stroke-linecap:butt;stroke-dashoffset:0;stroke-linejoin:miter;stroke-miterlimit:4;fill:#fff;fill-rule:nonzero;opacity:1" vector-effect="non-scaling-stroke" transform="matrix(.78 0 0 .78 .92 .92)" d="M32 2C15.432 2 2 15.431 2 32c0 16.569 13.432 30 30 30 16.568 0 30-13.432 30-30C62 15.431 48.568 2 32 2m8.953 42.678c-2.049 1.752-4.943 2.627-8.684 2.627-3.82 0-6.826-.863-9.014-2.588-2.189-1.727-3.283-4.098-3.283-7.117h5.787c.188 1.326.557 2.316 1.105 2.973 1.006 1.195 2.727 1.791 5.166 1.791 1.461 0 2.646-.156 3.557-.473 1.73-.604 2.594-1.725 2.594-3.365 0-.957-.424-1.699-1.27-2.225-.848-.512-2.191-.965-4.029-1.357l-3.141-.689c-3.088-.684-5.209-1.424-6.363-2.224-1.957-1.339-2.934-3.432-2.934-6.28 0-2.599.957-4.757 2.869-6.476 1.912-1.72 4.723-2.579 8.43-2.579 3.096 0 5.734.81 7.922 2.431 2.184 1.621 3.33 3.974 3.438 7.058h-5.828c-.107-1.745-.887-2.985-2.34-3.721-.969-.485-2.174-.729-3.613-.729-1.602 0-2.879.315-3.834.945-.955.63-1.434 1.509-1.434 2.638 0 1.037.471 1.811 1.414 2.322.604.342 1.889.742 3.855 1.201l5.092 1.201c2.23.524 3.904 1.227 5.018 2.105 1.729 1.365 2.594 3.341 2.594 5.925 0 2.651-1.023 4.854-3.074 6.606"/>
    </g>
    <g id="paypal-light" class="icon" style="fill: #ffffff; stroke: #ffffff;">
        <path d="M43.594 14.466c-2.241 9.947-9.159 15.197-20.063 15.197h-3.628l-2.522 16.012h-3.038l-0.159 1.031c-0.103 0.684 0.422 1.294 1.106 1.294h7.762c0.919 0 1.697-0.666 1.847-1.575l0.075-0.394 1.463-9.272 0.094-0.506c0.141-0.909 0.928-1.575 1.847-1.575h1.153c7.519 0 13.406-3.056 15.131-11.887 0.647-3.356 0.403-6.206-1.069-8.325z"/>
        <path d="M38.953 3.619c-2.222-2.531-6.244-3.619-11.381-3.619h-14.916c-1.050 0-1.95 0.759-2.109 1.8l-6.216 39.394c-0.122 0.778 0.478 1.481 1.266 1.481h9.216l2.316-14.672-0.075 0.459c0.159-1.041 1.050-1.8 2.1-1.8h4.378c8.597 0 15.328-3.488 17.297-13.594 0.056-0.3 0.112-0.591 0.15-0.872 0.581-3.731 0-6.281-2.025-8.578z"/>
    </g>
    <g id="volume-high-dark" class="icon" style="fill: #8c8c8c; stroke: #8c8c8c;" >
      <path d="M27.814 28.814c-0.384 0-0.768-0.146-1.061-0.439-0.586-0.586-0.586-1.535 0-2.121 2.739-2.739 4.247-6.38 4.247-10.253s-1.508-7.514-4.247-10.253c-0.586-0.586-0.586-1.536 0-2.121s1.536-0.586 2.121 0c3.305 3.305 5.126 7.7 5.126 12.374s-1.82 9.069-5.126 12.374c-0.293 0.293-0.677 0.439-1.061 0.439zM22.485 25.985c-0.384 0-0.768-0.146-1.061-0.439-0.586-0.586-0.586-1.535 0-2.121 4.094-4.094 4.094-10.755 0-14.849-0.586-0.586-0.586-1.536 0-2.121s1.536-0.586 2.121 0c2.55 2.55 3.954 5.94 3.954 9.546s-1.404 6.996-3.954 9.546c-0.293 0.293-0.677 0.439-1.061 0.439v0zM17.157 23.157c-0.384 0-0.768-0.146-1.061-0.439-0.586-0.586-0.586-1.535 0-2.121 2.534-2.534 2.534-6.658 0-9.192-0.586-0.586-0.586-1.536 0-2.121s1.535-0.586 2.121 0c3.704 3.704 3.704 9.731 0 13.435-0.293 0.293-0.677 0.439-1.061 0.439z"/>
      <path d="M13 30c-0.26 0-0.516-0.102-0.707-0.293l-7.707-7.707h-3.586c-0.552 0-1-0.448-1-1v-10c0-0.552 0.448-1 1-1h3.586l7.707-7.707c0.286-0.286 0.716-0.372 1.090-0.217s0.617 0.519 0.617 0.924v26c0 0.404-0.244 0.769-0.617 0.924-0.124 0.051-0.254 0.076-0.383 0.076z"/>
    </g>
</svg>