<svg xmlns="http://www.w3.org/2000/svg" width="48" height="48" viewBox="0 0 48 48"><style>.icon { display: none; }.icon:target { display: inline; }</style>
    <g id="arrow-left-light" class="icon" style="fill: #ffffff;" >
        <path d="M1.5 24l22.5 22.5v-13.5h24v-18h-24v-13.5z"/>
    </g>
     <g id="arrow-left-darkest" class="icon" style="fill: #1a1a1a;" >
        <path d="M1.5 24l22.5 22.5v-13.5h24v-18h-24v-13.5z"/>
    </g>
    <g id="arrow-up-light" class="icon" style="fill: #ffffff;" >
        <path d="M24 1.5l-22.5 22.5h13.5v24h18v-24h13.5z"/>
    </g>
    <g id="cart-dark" class="icon" transform="matrix(2,0,0,2,0,0)" style="fill: #8c8c8c;" >
        <path d="M0.5,3H4c0.232,0,0.434,0.16,0.487,0.386L5.809,9H23.5c0.161,0,0.313,0.077,0.406,0.208s0.119,0.299,0.068,0.451l-3,9  C20.906,18.862,20.716,19,20.5,19H8.161l0.235,1H19c1.104,0,2,0.898,2,2c0,1.104-0.896,2-2,2c-1.103,0-2-0.896-2-2  c0-0.365,0.106-0.704,0.278-1H9.723C9.895,21.296,10,21.635,10,22c0,1.104-0.896,2-2,2c-1.103,0-2-0.896-2-2  c0-0.89,0.588-1.637,1.394-1.896L3.604,4H0.5C0.225,4,0,3.776,0,3.5S0.225,3,0.5,3z" />
    </g>
    <g id="cart-light" class="icon" transform="matrix(2,0,0,2,0,0)" style="fill: #ffffff;" >
        <path d="M0.5,3H4c0.232,0,0.434,0.16,0.487,0.386L5.809,9H23.5c0.161,0,0.313,0.077,0.406,0.208s0.119,0.299,0.068,0.451l-3,9  C20.906,18.862,20.716,19,20.5,19H8.161l0.235,1H19c1.104,0,2,0.898,2,2c0,1.104-0.896,2-2,2c-1.103,0-2-0.896-2-2  c0-0.365,0.106-0.704,0.278-1H9.723C9.895,21.296,10,21.635,10,22c0,1.104-0.896,2-2,2c-1.103,0-2-0.896-2-2  c0-0.89,0.588-1.637,1.394-1.896L3.604,4H0.5C0.225,4,0,3.776,0,3.5S0.225,3,0.5,3z" />
    </g>
    <g id="info-light" class="icon" style="fill: #ffffff;" >
        <path d="M21 14.25c0-1.237 1.013-2.25 2.25-2.25h1.5c1.237 0 2.25 1.013 2.25 2.25v1.5c0 1.237-1.013 2.25-2.25 2.25h-1.5c-1.237 0-2.25-1.013-2.25-2.25v-1.5z"/>
        <path d="M30 36h-12v-3h3v-9h-3v-3h9v12h3z"/>
        <path d="M24 0c-13.255 0-24 10.745-24 24s10.745 24 24 24 24-10.745 24-24-10.745-24-24-24zM24 43.5c-10.77 0-19.5-8.73-19.5-19.5s8.73-19.5 19.5-19.5 19.5 8.73 19.5 19.5-8.73 19.5-19.5 19.5z"/>
    </g>
    <g id="info-dark" class="icon" style="fill: #00000;" >
        <path d="M21 14.25c0-1.237 1.013-2.25 2.25-2.25h1.5c1.237 0 2.25 1.013 2.25 2.25v1.5c0 1.237-1.013 2.25-2.25 2.25h-1.5c-1.237 0-2.25-1.013-2.25-2.25v-1.5z"/>
        <path d="M30 36h-12v-3h3v-9h-3v-3h9v12h3z"/>
        <path d="M24 0c-13.255 0-24 10.745-24 24s10.745 24 24 24 24-10.745 24-24-10.745-24-24-24zM24 43.5c-10.77 0-19.5-8.73-19.5-19.5s8.73-19.5 19.5-19.5 19.5 8.73 19.5 19.5-8.73 19.5-19.5 19.5z"/>
    </g>
    <g id="location-light" class="icon" transform="matrix(1.6,0,0,1.6,0,0)" style="fill: #ffffff;" >
        <path d="M16 0c-5.523 0-10 4.477-10 10 0 10 10 22 10 22s10-12 10-22c0-5.523-4.477-10-10-10zM16 16c-3.314 0-6-2.686-6-6s2.686-6 6-6 6 2.686 6 6-2.686 6-6 6z"/>
    </g>
    <g id="notification-light" class="icon" style="fill: #ffffff;" >
       <path d="M24 4.5c-5.209 0-10.105 2.028-13.789 5.711s-5.711 8.58-5.711 13.789c0 5.209 2.028 10.106 5.711 13.789s8.58 5.711 13.789 5.711c5.209 0 10.106-2.028 13.789-5.711s5.711-8.58 5.711-13.789c0-5.209-2.028-10.105-5.711-13.789s-8.58-5.711-13.789-5.711zM24 0v0c13.255 0 24 10.745 24 24s-10.745 24-24 24c-13.255 0-24-10.745-24-24s10.745-24 24-24zM21 33h6v6h-6zM21 9h6v18h-6z"/>
    </g>
    <g id="notification-dark" class="icon" style="fill: #00000;" >
       <path d="M24 4.5c-5.209 0-10.105 2.028-13.789 5.711s-5.711 8.58-5.711 13.789c0 5.209 2.028 10.106 5.711 13.789s8.58 5.711 13.789 5.711c5.209 0 10.106-2.028 13.789-5.711s5.711-8.58 5.711-13.789c0-5.209-2.028-10.105-5.711-13.789s-8.58-5.711-13.789-5.711zM24 0v0c13.255 0 24 10.745 24 24s-10.745 24-24 24c-13.255 0-24-10.745-24-24s10.745-24 24-24zM21 33h6v6h-6zM21 9h6v18h-6z"/>
    </g>
    <g id="search-darkest" class="icon" style="fill: #1a1a1a; stroke: #1a1a1a;">
        <path d="M46.512 40.847l-11.37-9.67c-1.175-1.058-2.432-1.543-3.448-1.497 2.684-3.144 4.305-7.222 4.305-11.68 0-9.941-8.059-18-18-18s-18 8.059-18 18 8.059 18 18 18c4.458 0 8.536-1.621 11.68-4.305-0.047 1.015 0.439 2.272 1.497 3.448l9.67 11.37c1.656 1.84 4.36 1.995 6.010 0.345s1.495-4.355-0.345-6.010zM18 30c-6.627 0-12-5.373-12-12s5.373-12 12-12 12 5.373 12 12-5.373 12-12 12z"/>
    </g>
    <g id="search-dark" class="icon" style="fill: #8c8c8c; stroke: #8c8c8c;">
        <path d="M46.512 40.847l-11.37-9.67c-1.175-1.058-2.432-1.543-3.448-1.497 2.684-3.144 4.305-7.222 4.305-11.68 0-9.941-8.059-18-18-18s-18 8.059-18 18 8.059 18 18 18c4.458 0 8.536-1.621 11.68-4.305-0.047 1.015 0.439 2.272 1.497 3.448l9.67 11.37c1.656 1.84 4.36 1.995 6.010 0.345s1.495-4.355-0.345-6.010zM18 30c-6.627 0-12-5.373-12-12s5.373-12 12-12 12 5.373 12 12-5.373 12-12 12z"/>
    </g>
    <g id="search-light" class="icon" style="fill: #ffffff; stroke: #ffffff;">
        <path d="M46.512 40.847l-11.37-9.67c-1.175-1.058-2.432-1.543-3.448-1.497 2.684-3.144 4.305-7.222 4.305-11.68 0-9.941-8.059-18-18-18s-18 8.059-18 18 8.059 18 18 18c4.458 0 8.536-1.621 11.68-4.305-0.047 1.015 0.439 2.272 1.497 3.448l9.67 11.37c1.656 1.84 4.36 1.995 6.010 0.345s1.495-4.355-0.345-6.010zM18 30c-6.627 0-12-5.373-12-12s5.373-12 12-12 12 5.373 12 12-5.373 12-12 12z"/>
    </g>
    <g id="upload-light" class="icon" style="fill: #ffffff; stroke: #ffffff;">
       <path d="M21 27h6v-12h9l-12-12-12 12h9zM30 20.25v4.627l13.737 5.123-19.737 7.36-19.737-7.36 13.737-5.123v-4.627l-18 6.75v12l24 9 24-9v-12z" />
    </g>
    <g id="volume-high-dark" class="icon" style="fill: #8c8c8c; stroke: #8c8c8c;" >
      <path d="M27.814 28.814c-0.384 0-0.768-0.146-1.061-0.439-0.586-0.586-0.586-1.535 0-2.121 2.739-2.739 4.247-6.38 4.247-10.253s-1.508-7.514-4.247-10.253c-0.586-0.586-0.586-1.536 0-2.121s1.536-0.586 2.121 0c3.305 3.305 5.126 7.7 5.126 12.374s-1.82 9.069-5.126 12.374c-0.293 0.293-0.677 0.439-1.061 0.439zM22.485 25.985c-0.384 0-0.768-0.146-1.061-0.439-0.586-0.586-0.586-1.535 0-2.121 4.094-4.094 4.094-10.755 0-14.849-0.586-0.586-0.586-1.536 0-2.121s1.536-0.586 2.121 0c2.55 2.55 3.954 5.94 3.954 9.546s-1.404 6.996-3.954 9.546c-0.293 0.293-0.677 0.439-1.061 0.439v0zM17.157 23.157c-0.384 0-0.768-0.146-1.061-0.439-0.586-0.586-0.586-1.535 0-2.121 2.534-2.534 2.534-6.658 0-9.192-0.586-0.586-0.586-1.536 0-2.121s1.535-0.586 2.121 0c3.704 3.704 3.704 9.731 0 13.435-0.293 0.293-0.677 0.439-1.061 0.439z"/>
      <path d="M13 30c-0.26 0-0.516-0.102-0.707-0.293l-7.707-7.707h-3.586c-0.552 0-1-0.448-1-1v-10c0-0.552 0.448-1 1-1h3.586l7.707-7.707c0.286-0.286 0.716-0.372 1.090-0.217s0.617 0.519 0.617 0.924v26c0 0.404-0.244 0.769-0.617 0.924-0.124 0.051-0.254 0.076-0.383 0.076z"/>
    </g>
</svg>