<svg xmlns="http://www.w3.org/2000/svg"><style>.icon { display: none; fill: #c4c4c4 }.icon:target { display: inline; }</style>
  <svg viewBox="0 0 24 24">
    <g id="facebook" class="icon">
        <path d="M24 12.073c0-6.627-5.373-12-12-12s-12 5.373-12 12c0 5.99 4.388 10.954 10.125 11.854v-8.385H7.078v-3.47h3.047V9.43c0-3.007 1.792-4.669 4.533-4.669 1.312 0 2.686.235 2.686.235v2.953H15.83c-1.491 0-1.956.925-1.956 1.874v2.25h3.328l-.532 3.47h-2.796v8.385C19.612 23.027 24 18.062 24 12.073z"></path>
    </g>
  </svg>
  <svg viewBox="0 0 24 24">
    <g id="instagram" class="icon">
        <path d="M12 0C8.74 0 8.333.015 7.053.072 5.775.132 4.905.333 4.14.63c-.789.306-1.459.717-2.126 1.384S.935 3.35.63 4.14C.333 4.905.131 5.775.072 7.053.012 8.333 0 8.74 0 12s.015 3.667.072 4.947c.06 1.277.261 2.148.558 2.913.306.788.717 1.459 1.384 2.126.667.666 1.336 1.079 2.126 1.384.766.296 1.636.499 2.913.558C8.333 23.988 8.74 24 12 24s3.667-.015 4.947-.072c1.277-.06 2.148-.262 2.913-.558.788-.306 1.459-.718 2.126-1.384.666-.667 1.079-1.335 1.384-2.126.296-.765.499-1.636.558-2.913.06-1.28.072-1.687.072-4.947s-.015-3.667-.072-4.947c-.06-1.277-.262-2.149-.558-2.913-.306-.789-.718-1.459-1.384-2.126C21.319 1.347 20.651.935 19.86.63c-.765-.297-1.636-.499-2.913-.558C15.667.012 15.26 0 12 0zm0 2.16c3.203 0 3.585.016 4.85.071 1.17.055 1.805.249 2.227.415.562.217.96.477 1.382.896.419.42.679.819.896 1.381.164.422.36 1.057.413 2.227.057 1.266.07 1.646.07 4.85s-.015 3.585-.074 4.85c-.061 1.17-.256 1.805-.421 2.227-.224.562-.479.96-.899 1.382-.419.419-.824.679-1.38.896-.42.164-1.065.36-2.235.413-1.274.057-1.649.07-4.859.07-3.211 0-3.586-.015-4.859-.074-1.171-.061-1.816-.256-2.236-.421-.569-.224-.96-.479-1.379-.899-.421-.419-.69-.824-.9-1.38-.165-.42-.359-1.065-.42-2.235-.045-1.26-.061-1.649-.061-4.844 0-3.196.016-3.586.061-4.861.061-1.17.255-1.814.42-2.234.21-.57.479-.96.9-1.381.419-.419.81-.689 1.379-.898.42-.166 1.051-.361 2.221-.421 1.275-.045 1.65-.06 4.859-.06l.045.03zm0 3.678c-3.405 0-6.162 2.76-6.162 6.162 0 3.405 2.76 6.162 6.162 6.162 3.405 0 6.162-2.76 6.162-6.162 0-3.405-2.76-6.162-6.162-6.162zM12 16c-2.21 0-4-1.79-4-4s1.79-4 4-4 4 1.79 4 4-1.79 4-4 4zm7.846-10.405c0 .795-.646 1.44-1.44 1.44-.795 0-1.44-.646-1.44-1.44 0-.794.646-1.439 1.44-1.439.793-.001 1.44.645 1.44 1.439z"></path>
    </g>
  </svg>
  <svg viewBox="0 0 24 24">
    <g id="pinterest" class="icon">
        <path d="M12.017 0C5.396 0 .029 5.367.029 11.987c0 5.079 3.158 9.417 7.618 11.162-.105-.949-.199-2.403.041-3.439.219-.937 1.406-5.957 1.406-5.957s-.359-.72-.359-1.781c0-1.663.967-2.911 2.168-2.911 1.024 0 1.518.769 1.518 1.688 0 1.029-.653 2.567-.992 3.992-.285 1.193.6 2.165 1.775 2.165 2.128 0 3.768-2.245 3.768-5.487 0-2.861-2.063-4.869-5.008-4.869-3.41 0-5.409 2.562-5.409 5.199 0 1.033.394 2.143.889 2.741.099.12.112.225.085.345-.09.375-.293 1.199-.334 1.363-.053.225-.172.271-.401.165-1.495-.69-2.433-2.878-2.433-4.646 0-3.776 2.748-7.252 7.92-7.252 4.158 0 7.392 2.967 7.392 6.923 0 4.135-2.607 7.462-6.233 7.462-1.214 0-2.354-.629-2.758-1.379l-.749 2.848c-.269 1.045-1.004 2.352-1.498 3.146 1.123.345 2.306.535 3.55.535 6.607 0 11.985-5.365 11.985-11.987C23.97 5.39 18.592.026 11.985.026L12.017 0z"></path>
    </g>
  </svg>
   <svg viewBox="0 0 24 24">
    <g id="twitter" class="icon">
        <path d="M23.953 4.57a10 10 0 01-2.825.775 4.958 4.958 0 002.163-2.723c-.951.555-2.005.959-3.127 1.184a4.92 4.92 0 00-8.384 4.482C7.69 8.095 4.067 6.13 1.64 3.162a4.822 4.822 0 00-.666 2.475c0 1.71.87 3.213 2.188 4.096a4.904 4.904 0 01-2.228-.616v.06a4.923 4.923 0 003.946 4.827 4.996 4.996 0 01-2.212.085 4.936 4.936 0 004.604 3.417 9.867 9.867 0 01-6.102 2.105c-.39 0-.779-.023-1.17-.067a13.995 13.995 0 007.557 2.209c9.053 0 13.998-7.496 13.998-13.985 0-.21 0-.42-.015-.63A9.935 9.935 0 0024 4.59z"></path>
    </g>
  </svg>
  <svg viewBox="0 0 24 24">
    <g id="rss" class="icon">
        <path d="M19.199 24C19.199 13.467 10.533 4.8 0 4.8V0c13.165 0 24 10.835 24 24h-4.801zM3.291 17.415c1.814 0 3.293 1.479 3.293 3.295 0 1.813-1.485 3.29-3.301 3.29C1.47 24 0 22.526 0 20.71s1.475-3.294 3.291-3.295zM15.909 24h-4.665c0-6.169-5.075-11.245-11.244-11.245V8.09c8.727 0 15.909 7.184 15.909 15.91z"/>
    </g>
  </svg>
  <svg viewBox="0 0 24 24">
    <g id="amazon" class="icon">
        <path d="M.045 18.02c.072-.116.187-.124.348-.022 3.636 2.11 7.594 3.166 11.87 3.166 2.852 0 5.668-.533 8.447-1.595l.315-.14c.138-.06.234-.1.293-.13.226-.088.39-.046.525.13.12.174.09.336-.12.48-.256.19-.6.41-1.006.654-1.244.743-2.64 1.316-4.185 1.726a17.617 17.617 0 01-10.951-.577 17.88 17.88 0 01-5.43-3.35c-.1-.074-.151-.15-.151-.22 0-.047.021-.09.051-.13zm6.565-6.218c0-1.005.247-1.863.743-2.577.495-.71 1.17-1.25 2.04-1.615.796-.335 1.756-.575 2.912-.72.39-.046 1.033-.103 1.92-.174v-.37c0-.93-.105-1.558-.3-1.875-.302-.43-.78-.65-1.44-.65h-.182c-.48.046-.896.196-1.246.46-.35.27-.575.63-.675 1.096-.06.3-.206.465-.435.51l-2.52-.315c-.248-.06-.372-.18-.372-.39 0-.046.007-.09.022-.15.247-1.29.855-2.25 1.82-2.88.976-.616 2.1-.975 3.39-1.05h.54c1.65 0 2.957.434 3.888 1.29.135.15.27.3.405.48.12.165.224.314.283.45.075.134.15.33.195.57.06.254.105.42.135.51.03.104.062.3.076.615.01.313.02.493.02.553v5.28c0 .376.06.72.165 1.036.105.313.21.54.315.674l.51.674c.09.136.136.256.136.36 0 .12-.06.226-.18.314-1.2 1.05-1.86 1.62-1.963 1.71-.165.135-.375.15-.63.045a6.062 6.062 0 01-.526-.496l-.31-.347a9.391 9.391 0 01-.317-.42l-.3-.435c-.81.886-1.603 1.44-2.4 1.665-.494.15-1.093.227-1.83.227-1.11 0-2.04-.343-2.76-1.034-.72-.69-1.08-1.665-1.08-2.94l-.05-.076zm3.753-.438c0 .566.14 1.02.425 1.364.285.34.675.512 1.155.512.045 0 .106-.007.195-.02.09-.016.134-.023.166-.023.614-.16 1.08-.553 1.424-1.178.165-.28.285-.58.36-.91.09-.32.12-.59.135-.8.015-.195.015-.54.015-1.005v-.54c-.84 0-1.484.06-1.92.18-1.275.36-1.92 1.17-1.92 2.43l-.035-.02zm9.162 7.027c.03-.06.075-.11.132-.17.362-.243.714-.41 1.05-.5a8.094 8.094 0 011.612-.24c.14-.012.28 0 .41.03.65.06 1.05.168 1.172.33.063.09.099.228.099.39v.15c0 .51-.149 1.11-.424 1.8-.278.69-.664 1.248-1.156 1.68-.073.06-.14.09-.197.09-.03 0-.06 0-.09-.012-.09-.044-.107-.12-.064-.24.54-1.26.806-2.143.806-2.64 0-.15-.03-.27-.087-.344-.145-.166-.55-.257-1.224-.257-.243 0-.533.016-.87.046-.363.045-.7.09-1 .135-.09 0-.148-.014-.18-.044-.03-.03-.036-.047-.02-.077 0-.017.006-.03.02-.063v-.06z"/>
    </g>
  </svg>
</svg>