<svg xmlns="http://www.w3.org/2000/svg" width="48" height="48" viewBox="0 0 48 48"><style>.icon { display: none; fill: #ffffff; stroke: #fffffff }.icon:target { display: inline; }</style>
    <g id="amazon" class="icon" >
      <path d="M43.388 41.494c-5.259 3.881-12.872 5.944-19.434 5.944-9.197 0-17.475-3.394-23.737-9.056-0.488-0.441-0.056-1.050 0.534-0.703 6.759 3.938 15.122 6.3 23.756 6.3 5.822 0 12.225-1.209 18.122-3.713 0.881-0.375 1.631 0.591 0.759 1.228z"/>
      <path d="M45.572 39c-0.675-0.862-4.444-0.412-6.141-0.206-0.516 0.056-0.591-0.384-0.131-0.713 3.009-2.109 7.941-1.5 8.513-0.797 0.581 0.713-0.15 5.653-2.972 8.016-0.431 0.366-0.844 0.169-0.656-0.309 0.647-1.584 2.063-5.128 1.388-5.991z"/>
      <path d="M33.159 35.513l0.009 0.009c1.162-1.022 3.253-2.85 4.434-3.834 0.469-0.375 0.384-1.003 0.019-1.528-1.059-1.463-2.184-2.653-2.184-5.353v-9c0-3.816 0.263-7.313-2.541-9.938-2.212-2.119-5.887-2.869-8.7-2.869-5.494 0-11.625 2.053-12.909 8.841-0.141 0.722 0.394 1.106 0.862 1.209l5.597 0.609c0.525-0.028 0.9-0.544 1.003-1.069 0.478-2.334 2.438-3.469 4.641-3.469 1.191 0 2.541 0.431 3.244 1.5 0.806 1.191 0.703 2.813 0.703 4.191v0.75c-3.347 0.375-7.725 0.619-10.856 1.997-3.619 1.566-6.159 4.753-6.159 9.441 0 6 3.778 9 8.644 9 4.106 0 6.347-0.966 9.516-4.209 1.050 1.519 1.388 2.259 3.309 3.853 0.441 0.234 0.984 0.216 1.369-0.131zM27.338 21.431c0 2.25 0.056 4.125-1.078 6.122-0.919 1.631-2.372 2.625-3.994 2.625-2.213 0-3.506-1.688-3.506-4.181 0-4.922 4.416-5.813 8.588-5.813v1.247z"/>
    </g>
    <g id="facebook" class="icon">
      <path d="M28.5 9h7.5v-9h-7.5c-5.79 0-10.5 4.71-10.5 10.5v4.5h-6v9h6v24h9v-24h7.5l1.5-9h-9v-4.5c0-0.813 0.687-1.5 1.5-1.5z"/>
    </g>
    <g id="instagram" class="icon">
      <path d="M24 4.322c6.412 0 7.172 0.028 9.694 0.141 2.344 0.103 3.609 0.497 4.453 0.825 1.116 0.431 1.922 0.956 2.756 1.791 0.844 0.844 1.359 1.641 1.8 2.756 0.328 0.844 0.722 2.119 0.825 4.453 0.112 2.531 0.141 3.291 0.141 9.694s-0.028 7.172-0.141 9.694c-0.103 2.344-0.497 3.609-0.825 4.453-0.431 1.116-0.956 1.922-1.791 2.756-0.844 0.844-1.641 1.359-2.756 1.8-0.844 0.328-2.119 0.722-4.453 0.825-2.531 0.112-3.291 0.141-9.694 0.141s-7.172-0.028-9.694-0.141c-2.344-0.103-3.609-0.497-4.453-0.825-1.116-0.431-1.922-0.956-2.756-1.791-0.844-0.844-1.359-1.641-1.8-2.756-0.328-0.844-0.722-2.119-0.825-4.453-0.113-2.531-0.141-3.291-0.141-9.694s0.028-7.172 0.141-9.694c0.103-2.344 0.497-3.609 0.825-4.453 0.431-1.116 0.956-1.922 1.791-2.756 0.844-0.844 1.641-1.359 2.756-1.8 0.844-0.328 2.119-0.722 4.453-0.825 2.522-0.112 3.281-0.141 9.694-0.141zM24 0c-6.516 0-7.331 0.028-9.891 0.141-2.55 0.113-4.303 0.525-5.822 1.116-1.584 0.619-2.925 1.434-4.256 2.775-1.341 1.331-2.156 2.672-2.775 4.247-0.591 1.528-1.003 3.272-1.116 5.822-0.112 2.569-0.141 3.384-0.141 9.9s0.028 7.331 0.141 9.891c0.112 2.55 0.525 4.303 1.116 5.822 0.619 1.584 1.434 2.925 2.775 4.256 1.331 1.331 2.672 2.156 4.247 2.766 1.528 0.591 3.272 1.003 5.822 1.116 2.559 0.113 3.375 0.141 9.891 0.141s7.331-0.028 9.891-0.141c2.55-0.112 4.303-0.525 5.822-1.116 1.575-0.609 2.916-1.434 4.247-2.766s2.156-2.672 2.766-4.247c0.591-1.528 1.003-3.272 1.116-5.822 0.112-2.559 0.141-3.375 0.141-9.891s-0.028-7.331-0.141-9.891c-0.112-2.55-0.525-4.303-1.116-5.822-0.591-1.594-1.406-2.934-2.747-4.266-1.331-1.331-2.672-2.156-4.247-2.766-1.528-0.591-3.272-1.003-5.822-1.116-2.569-0.122-3.384-0.15-9.9-0.15v0z"/>
      <path d="M24 11.672c-6.806 0-12.328 5.522-12.328 12.328s5.522 12.328 12.328 12.328 12.328-5.522 12.328-12.328c0-6.806-5.522-12.328-12.328-12.328zM24 31.997c-4.416 0-7.997-3.581-7.997-7.997s3.581-7.997 7.997-7.997c4.416 0 7.997 3.581 7.997 7.997s-3.581 7.997-7.997 7.997z"/>
      <path d="M39.694 11.184c0 1.59-1.289 2.878-2.878 2.878s-2.878-1.289-2.878-2.878c0-1.59 1.289-2.878 2.878-2.878s2.878 1.289 2.878 2.878z"/>
    </g>
     <g id="instagram" class="icon">
      <path d="M24 4.322c6.412 0 7.172 0.028 9.694 0.141 2.344 0.103 3.609 0.497 4.453 0.825 1.116 0.431 1.922 0.956 2.756 1.791 0.844 0.844 1.359 1.641 1.8 2.756 0.328 0.844 0.722 2.119 0.825 4.453 0.112 2.531 0.141 3.291 0.141 9.694s-0.028 7.172-0.141 9.694c-0.103 2.344-0.497 3.609-0.825 4.453-0.431 1.116-0.956 1.922-1.791 2.756-0.844 0.844-1.641 1.359-2.756 1.8-0.844 0.328-2.119 0.722-4.453 0.825-2.531 0.112-3.291 0.141-9.694 0.141s-7.172-0.028-9.694-0.141c-2.344-0.103-3.609-0.497-4.453-0.825-1.116-0.431-1.922-0.956-2.756-1.791-0.844-0.844-1.359-1.641-1.8-2.756-0.328-0.844-0.722-2.119-0.825-4.453-0.113-2.531-0.141-3.291-0.141-9.694s0.028-7.172 0.141-9.694c0.103-2.344 0.497-3.609 0.825-4.453 0.431-1.116 0.956-1.922 1.791-2.756 0.844-0.844 1.641-1.359 2.756-1.8 0.844-0.328 2.119-0.722 4.453-0.825 2.522-0.112 3.281-0.141 9.694-0.141zM24 0c-6.516 0-7.331 0.028-9.891 0.141-2.55 0.113-4.303 0.525-5.822 1.116-1.584 0.619-2.925 1.434-4.256 2.775-1.341 1.331-2.156 2.672-2.775 4.247-0.591 1.528-1.003 3.272-1.116 5.822-0.112 2.569-0.141 3.384-0.141 9.9s0.028 7.331 0.141 9.891c0.112 2.55 0.525 4.303 1.116 5.822 0.619 1.584 1.434 2.925 2.775 4.256 1.331 1.331 2.672 2.156 4.247 2.766 1.528 0.591 3.272 1.003 5.822 1.116 2.559 0.113 3.375 0.141 9.891 0.141s7.331-0.028 9.891-0.141c2.55-0.112 4.303-0.525 5.822-1.116 1.575-0.609 2.916-1.434 4.247-2.766s2.156-2.672 2.766-4.247c0.591-1.528 1.003-3.272 1.116-5.822 0.112-2.559 0.141-3.375 0.141-9.891s-0.028-7.331-0.141-9.891c-0.112-2.55-0.525-4.303-1.116-5.822-0.591-1.594-1.406-2.934-2.747-4.266-1.331-1.331-2.672-2.156-4.247-2.766-1.528-0.591-3.272-1.003-5.822-1.116-2.569-0.122-3.384-0.15-9.9-0.15v0z"/>
      <path d="M24 11.672c-6.806 0-12.328 5.522-12.328 12.328s5.522 12.328 12.328 12.328 12.328-5.522 12.328-12.328c0-6.806-5.522-12.328-12.328-12.328zM24 31.997c-4.416 0-7.997-3.581-7.997-7.997s3.581-7.997 7.997-7.997c4.416 0 7.997 3.581 7.997 7.997s-3.581 7.997-7.997 7.997z"/>
      <path d="M39.694 11.184c0 1.59-1.289 2.878-2.878 2.878s-2.878-1.289-2.878-2.878c0-1.59 1.289-2.878 2.878-2.878s2.878 1.289 2.878 2.878z"/>
    </g>
    <g id="pinterest" class="icon">
      <path d="M24 3.206c-11.484 0-20.794 9.309-20.794 20.794 0 8.813 5.484 16.331 13.219 19.359-0.178-1.641-0.347-4.172 0.075-5.963 0.375-1.622 2.438-10.331 2.438-10.331s-0.619-1.247-0.619-3.084c0-2.888 1.678-5.053 3.759-5.053 1.772 0 2.634 1.331 2.634 2.925 0 1.781-1.134 4.453-1.725 6.919-0.497 2.072 1.031 3.759 3.075 3.759 3.694 0 6.534-3.9 6.534-9.525 0-4.978-3.581-8.456-8.681-8.456-5.916 0-9.384 4.434-9.384 9.028 0 1.791 0.684 3.703 1.547 4.744 0.169 0.206 0.197 0.384 0.141 0.6-0.159 0.656-0.506 2.072-0.581 2.362-0.094 0.384-0.3 0.459-0.694 0.281-2.597-1.209-4.219-5.006-4.219-8.053 0-6.563 4.762-12.581 13.734-12.581 7.209 0 12.816 5.137 12.816 12.009 0 7.163-4.519 12.938-10.791 12.938-2.109 0-4.087-1.097-4.763-2.391 0 0-1.041 3.966-1.294 4.941-0.469 1.809-1.734 4.069-2.587 5.447 1.95 0.6 4.012 0.928 6.159 0.928 11.484 0 20.794-9.309 20.794-20.794 0-11.494-9.309-20.803-20.794-20.803z"/>
    </g>
    <g id="rss2" class="icon">
      <path d="M43.5 0h-39c-2.475 0-4.5 2.025-4.5 4.5v39c0 2.475 2.025 4.5 4.5 4.5h39c2.475 0 4.5-2.025 4.5-4.5v-39c0-2.475-2.025-4.5-4.5-4.5zM13.078 38.963c-2.25 0-4.078-1.809-4.078-4.059 0-2.231 1.828-4.069 4.078-4.069 2.259 0 4.078 1.838 4.078 4.069 0 2.25-1.828 4.059-4.078 4.059zM23.316 39c0-3.834-1.491-7.444-4.191-10.144-2.709-2.709-6.3-4.2-10.125-4.2v-5.869c11.138 0 20.213 9.066 20.213 20.212h-5.897zM33.731 39c0-13.641-11.091-24.75-24.722-24.75v-5.869c16.875 0 30.609 13.744 30.609 30.619h-5.888z"/>
    </g>
    <g id="share" class="icon">
      <path d="M12 30c0 0 2.757-9 18-9v9l18-12-18-12v9c-12 0-18 7.485-18 15zM33 36h-27v-18h5.9c0.473-0.559 0.98-1.094 1.523-1.602 2.061-1.931 4.526-3.406 7.318-4.398h-20.741v30h39v-12.592l-6 4v2.592z"/>
    </g>
    <g id="twitter" class="icon">
      <path d="M48 10.613c-1.763 0.787-3.666 1.313-5.653 1.547 2.034-1.219 3.591-3.15 4.331-5.447-1.903 1.125-4.012 1.95-6.253 2.391-1.8-1.912-4.359-3.103-7.191-3.103-5.438 0-9.844 4.406-9.844 9.844 0 0.769 0.084 1.519 0.253 2.241-8.184-0.413-15.441-4.331-20.297-10.294-0.844 1.453-1.331 3.15-1.331 4.95 0 3.413 1.734 6.431 4.378 8.194-1.613-0.047-3.131-0.497-4.463-1.228 0 0.038 0 0.084 0 0.122 0 4.772 3.394 8.756 7.903 9.656-0.825 0.225-1.697 0.347-2.597 0.347-0.637 0-1.247-0.066-1.856-0.178 1.256 3.909 4.894 6.759 9.197 6.844-3.375 2.644-7.612 4.219-12.234 4.219-0.797 0-1.575-0.047-2.353-0.141 4.369 2.803 9.544 4.425 15.103 4.425 18.113 0 28.022-15.009 28.022-28.022 0-0.431-0.009-0.853-0.028-1.275 1.922-1.378 3.591-3.113 4.912-5.091z"/>
    </g>
    <g id="maildotru" class="icon" transform="matrix(2,0,0,2,0,0)">
        <path d="M15.61,12C15.61,13.99 13.99,15.61 12,15.61C10.01,15.61 8.39,13.99 8.39,12C8.39,10.01 10.01,8.39 12,8.39C13.99,8.39 15.61,10.01 15.61,12M12,0C5.383,0 0,5.383 0,12C0,18.617 5.383,24 12,24C14.424,24 16.761,23.278 18.76,21.913L18.794,21.889L17.177,20.01L17.15,20.027C15.615,21.016 13.826,21.542 12,21.54C6.74,21.54 2.46,17.26 2.46,12C2.46,6.74 6.74,2.46 12,2.46C17.26,2.46 21.54,6.74 21.54,12C21.539,12.689 21.463,13.377 21.315,14.05C21.014,15.289 20.146,15.668 19.495,15.618C18.841,15.565 18.075,15.098 18.069,13.957L18.069,12C18.066,8.672 15.328,5.934 12,5.93C8.671,5.933 5.933,8.671 5.93,12C5.933,15.329 8.671,18.067 12,18.07C13.615,18.074 15.166,17.428 16.3,16.278C17.021,17.41 18.278,18.093 19.62,18.083C20.494,18.083 21.36,17.791 22.057,17.262C22.776,16.715 23.313,15.926 23.61,14.977C23.657,14.823 23.745,14.473 23.745,14.47L23.747,14.457C23.922,13.697 24,12.937 24,12C24,5.383 18.617,-0 12,-0" style="fill-rule:nonzero;"/>
    </g>
</svg>