<?xml version="1.0" standalone="no"?>
<!DOCTYPE svg PUBLIC "-//W3C//DTD SVG 20010904//EN"
 "http://www.w3.org/TR/2001/REC-SVG-20010904/DTD/svg10.dtd">
<svg version="1.0" xmlns="http://www.w3.org/2000/svg"
 width="1200.000000pt" height="1200.000000pt" viewBox="0 0 1200.000000 1200.000000"
 preserveAspectRatio="xMidYMid meet">
<metadata>
Created by potrace 1.14, written by Peter Selinger 2001-2017
</metadata>
<g transform="translate(0.000000,1200.000000) scale(0.100000,-0.100000)"
fill="#000000" stroke="none">
<path d="M0 6000 l0 -6000 6000 0 6000 0 0 6000 0 6000 -6000 0 -6000 0 0
-6000z m4261 4880 c483 -162 853 -580 972 -1099 19 -83 22 -126 22 -311 0
-185 -3 -229 -23 -316 -32 -148 -76 -272 -147 -419 -87 -179 -143 -263 -361
-535 -136 -171 -239 -352 -289 -510 -77 -244 -17 -546 178 -899 26 -46 47 -86
47 -89 0 -11 -130 9 -215 33 -109 31 -268 108 -350 170 -290 217 -452 528
-471 904 -18 340 107 711 358 1063 151 213 219 319 274 428 194 384 192 757
-9 1345 -31 88 -64 184 -76 213 -12 31 -16 52 -10 52 6 0 51 -13 100 -30z
m1648 -1 c408 -127 785 -512 925 -944 52 -160 71 -284 70 -470 -2 -274 -51
-480 -179 -740 -71 -144 -146 -257 -288 -437 -215 -271 -319 -449 -368 -628
-61 -225 -8 -491 162 -818 38 -73 69 -135 69 -137 0 -12 -87 -3 -171 19 -209
54 -359 139 -514 291 -235 231 -349 511 -346 851 1 153 11 232 46 369 62 237
166 442 357 705 166 228 270 419 318 578 73 248 69 523 -14 850 -25 95 -113
364 -155 470 -33 83 -39 80 88 41z m1682 -14 c203 -78 351 -176 519 -344 174
-175 266 -314 345 -526 58 -156 85 -288 92 -455 17 -439 -123 -822 -453 -1235
-219 -273 -340 -481 -383 -654 -56 -225 -6 -476 159 -798 l77 -153 -34 0 c-51
0 -174 28 -250 56 -340 127 -592 392 -698 734 -43 138 -50 188 -49 380 0 153
4 202 22 283 60 270 171 503 369 775 218 299 325 519 364 752 18 105 15 344
-5 465 -31 184 -118 483 -205 703 -12 29 -21 55 -21 57 0 9 69 -9 151 -40z
m2475 -4658 c77 -36 154 -113 191 -192 26 -55 28 -71 31 -200 10 -412 -92
-970 -260 -1420 -309 -831 -899 -1571 -1636 -2050 -50 -33 -92 -64 -92 -68 0
-5 9 -21 19 -36 30 -42 61 -145 61 -204 0 -156 -98 -298 -248 -359 l-57 -23
-1945 -3 c-1241 -2 -1968 1 -2009 7 -267 41 -412 339 -276 566 l34 56 -102 66
c-573 374 -1085 937 -1410 1553 -300 568 -455 1154 -483 1820 -5 137 -4 176
10 229 34 134 121 228 251 272 47 17 280 18 3955 16 l3905 -2 61 -28z"/>
</g>
</svg>
