<svg version="1.0" xmlns="http://www.w3.org/2000/svg" width="895pt" height="895pt" viewBox="0 0 895 895"><g transform="translate(0.000000,895.000000) scale(0.100000,-0.100000)" fill="#000" stroke="none"><path d="M0 4475V0h4475 4475v4475 4475H4475 0V4475zm2535 3040c79-50 169-154 214-248 110-228 87-488-62-707-55-80-139-160-278-266-218-164-242-206-241-421 1-156 4-153-105-98-81 41-177 134-216 211-83 165-74 368 25 557 44 83 108 153 335 368 76 72 97 99 132 170 49 99 69 189 77 349 3 63 7 121 9 127 5 16 37 3 110-42zm1129 13c73-39 178-142 224-220 18-31 45-89 60-130 23-64 26-89 26-208 1-116-2-145-22-204-67-2e2-157-312-398-493-203-153-219-182-219-396v-147l-30 6c-145 31-288 180-336 349-23 82-17 235 14 328 51 156 98 216 388 492 145 138 187 240 209 509 5 71 10 133 10 137 0 14 8 11 74-23zm1143-4c64-37 156-127 203-198 165-255 133-587-81-844-40-47-107-107-194-172-155-117-207-165-234-218-30-59-45-163-38-270l7-94-28 6c-61 15-156 70-206 121-95 97-148 228-148 369-1 210 104 404 316 586 237 202 294 317 312 631 8 135 5 132 91 83zm3095-411c62-44 101-122 96-189-5-63-34-106-91-132-23-11-110-52-194-91-403-187-839-450-1202-724-239-180-448-360-686-591l-120-116h-262c-145 0-263 3-263 6 0 11 143 167 3e2 328 587 602 1309 1114 2063 1462 178 83 184 84 249 81 56-2 74-8 110-34zm55-2215c-27-741-3e2-1466-779-2066-124-155-384-417-533-536-340-272-723-478-1122-606-515-164-1030-207-1568-129-563 81-1108 308-1567 651-743 557-1230 1360-1382 2278-30 184-46 349-46 483v97h3502 3501l-6-172z"/></g></svg>