<?xml version="1.0" standalone="no"?>
<!DOCTYPE svg PUBLIC "-//W3C//DTD SVG 20010904//EN"
 "http://www.w3.org/TR/2001/REC-SVG-20010904/DTD/svg10.dtd">
<svg version="1.0" xmlns="http://www.w3.org/2000/svg"
 width="895.000000pt" height="895.000000pt" viewBox="0 0 895.000000 895.000000"
 preserveAspectRatio="xMidYMid meet">
<metadata>
Created by potrace 1.14, written by Peter Selinger 2001-2017
</metadata>
<g transform="translate(0.000000,895.000000) scale(0.100000,-0.100000)"
fill="#000000" stroke="none">
<path d="M0 4475 l0 -4475 4475 0 4475 0 0 4475 0 4475 -4475 0 -4475 0 0
-4475z m2535 3040 c79 -50 169 -154 214 -248 110 -228 87 -488 -62 -707 -55
-80 -139 -160 -278 -266 -218 -164 -242 -206 -241 -421 1 -156 4 -153 -105
-98 -81 41 -177 134 -216 211 -83 165 -74 368 25 557 44 83 108 153 335 368
76 72 97 99 132 170 49 99 69 189 77 349 3 63 7 121 9 127 5 16 37 3 110 -42z
m1129 13 c73 -39 178 -142 224 -220 18 -31 45 -89 60 -130 23 -64 26 -89 26
-208 1 -116 -2 -145 -22 -204 -67 -200 -157 -312 -398 -493 -203 -153 -219
-182 -219 -396 l0 -147 -30 6 c-145 31 -288 180 -336 349 -23 82 -17 235 14
328 51 156 98 216 388 492 145 138 187 240 209 509 5 71 10 133 10 137 0 14 8
11 74 -23z m1143 -4 c64 -37 156 -127 203 -198 165 -255 133 -587 -81 -844
-40 -47 -107 -107 -194 -172 -155 -117 -207 -165 -234 -218 -30 -59 -45 -163
-38 -270 l7 -94 -28 6 c-61 15 -156 70 -206 121 -95 97 -148 228 -148 369 -1
210 104 404 316 586 237 202 294 317 312 631 8 135 5 132 91 83z m3095 -411
c62 -44 101 -122 96 -189 -5 -63 -34 -106 -91 -132 -23 -11 -110 -52 -194 -91
-403 -187 -839 -450 -1202 -724 -239 -180 -448 -360 -686 -591 l-120 -116
-262 0 c-145 0 -263 3 -263 6 0 11 143 167 300 328 587 602 1309 1114 2063
1462 178 83 184 84 249 81 56 -2 74 -8 110 -34z m55 -2215 c-27 -741 -300
-1466 -779 -2066 -124 -155 -384 -417 -533 -536 -340 -272 -723 -478 -1122
-606 -515 -164 -1030 -207 -1568 -129 -563 81 -1108 308 -1567 651 -743 557
-1230 1360 -1382 2278 -30 184 -46 349 -46 483 l0 97 3502 0 3501 0 -6 -172z"/>
</g>
</svg>
