<svg xmlns="http://www.w3.org/2000/svg" xmlns:xlink="http://www.w3.org/1999/xlink" preserveAspectRatio="xMidYMid" width="217" height="202" viewBox="0 0 217 202"><defs><style>.cls-3{fill:#142a3b}.cls-5{fill:#ff3a2f}.cls-6{fill:#060606;opacity:.35}.cls-9{fill:#0cb04a}.cls-12{fill:#ededed}.cls-13{fill:#060606;opacity:.25}</style></defs><g id="group-41svg"><path d="M175.543 194.025S168.837 200.73 168.837 200.73C168.339 201.228 167.523 201.228 167.025 200.73l-22.91-22.908C143.617 177.323 143.617 176.508 144.115 176.01L150.821 169.304C151.319 168.806 152.135 168.806 152.633 169.304l22.91 22.91C176.041 192.711 176.041 193.527 175.543 194.025z" id="path-1" class="cls-3" fill-rule="evenodd"/><path d="M40.699 194.025S47.404 200.73 47.404 200.73C47.903 201.228 48.718 201.228 49.217 200.73l22.909-22.908C72.625 177.323 72.625 176.508 72.126 176.01L65.421 169.304C64.922 168.806 64.107 168.806 63.609 169.304l-22.91 22.91C40.201 192.711 40.201 193.527 40.699 194.025z" id="path-2" class="cls-3" fill-rule="evenodd"/><path d="M204.909 10.934C191.901-2.073 170.318-3.44 155.405 6.698L155.311 6.668C154.225 7.536 152.878 8.584 151.376 9.94 150.993 10.302 150.527 10.561 150.144 10.934 149.968 11.111 149.896 11.347 149.75 11.535 148.362 12.932 146.893 14.765 145.401 16.827c23.374 12.136 41.571 32.797 50.559 57.837 5.137-4.173 9.881-8.77 12.231-12.738C208.306 61.74 208.358 61.543 208.45 61.347 213.432 54.708 216.238 46.745 216.238 38.294 216.238 27.959 212.219 18.245 204.909 10.934z" id="path-3" class="cls-5" fill-rule="evenodd"/><path d="M156.522 6.011C156.151 6.244 155.768 6.452 155.405 6.698L155.312 6.667C154.225 7.535 152.878 8.583 151.376 9.939 150.994 10.302 150.527 10.561 150.144 10.934 149.968 11.11 149.896 11.348 149.751 11.535 148.362 12.932 146.892 14.766 145.401 16.826c23.374 12.137 41.571 32.797 50.559 57.838C200.691 70.822 204.999 66.64 207.501 62.9 198.11 38.242 179.797 17.967 156.522 6.011z" id="path-4" class="cls-6" fill-rule="evenodd"/><path d="M70.085 15.728C68.863 14.123 67.642 12.694 66.502 11.535 66.357 11.347 66.275 11.111 66.099 10.934 65.715 10.561 65.26 10.302 64.865 9.94 63.374 8.584 62.029 7.536 60.931 6.668L60.847 6.698C45.924-3.44 24.351-2.073 11.344 10.934 4.033 18.245.004 27.959.004 38.294c0 8.451 2.807 16.414 7.788 23.053C7.886 61.543 7.948 61.74 8.05 61.926c1.989 3.357 5.718 7.167 9.923 10.781C27.5 47.749 46.265 27.379 70.085 15.728z" id="path-5" class="cls-5" fill-rule="evenodd"/><path d="M8.736 62.915c2.089 3.109 5.432 6.523 9.237 9.791C27.5 47.748 46.265 27.378 70.085 15.729 68.863 14.123 67.642 12.694 66.501 11.535 66.358 11.348 66.275 11.11 66.099 10.934 65.715 10.561 65.26 10.302 64.865 9.939 63.374 8.583 62.029 7.535 60.931 6.667L60.847 6.698C60.483 6.451 60.098 6.243 59.727 6.01 36.446 17.967 18.128 38.249 8.736 62.915z" id="path-6" class="cls-6" fill-rule="evenodd"/><path d="M108.12 6.214c-52.051.0-94.408 42.356-94.408 94.404.0 32.498 16.508 61.205 41.571 78.189C55.283 178.807 62.86 183.419 64.438 184.222 77.507 191.089 92.358 195.023 108.12 195.023c15.773.0 30.614-3.934 43.704-10.801C151.824 184.222 159.117 180.098 160.969 178.807c25.062-16.984 41.56-45.691 41.56-78.189.0-52.048-42.347-94.404-94.409-94.404zM148.392 160.2C146.981 161.184 141.424 164.327 141.424 164.327 131.449 169.56 120.14 172.558 108.12 172.558 96.109 172.558 84.792 169.56 74.833 164.327 73.631 163.714 67.856 160.2 67.856 160.2c-19.098-12.943-31.677-34.817-31.677-59.582.0-39.663 32.277-71.938 71.941-71.938 39.673.0 71.943 32.275 71.943 71.938.0 24.765-12.572 46.639-31.671 59.582z" id="path-7" class="cls-9" fill-rule="evenodd"/><path d="M103.42 28.919C101.859 28.816 100.306 28.68 98.719 28.68c-39.664.0-71.942 32.275-71.942 71.938.0 24.765 12.579 46.639 31.678 59.582C58.455 160.2 64.228 163.714 65.431 164.327 75.391 169.56 86.707 172.557 98.719 172.557 100.3 172.557 101.866 172.499 103.42 172.396 93.158 171.724 83.482 168.871 74.832 164.327 73.63 163.714 67.856 160.2 67.856 160.2c-19.098-12.943-31.677-34.817-31.677-59.582.0-38.076 29.769-69.26 67.241-71.699z" id="path-8" class="cls-6" fill-rule="evenodd"/><path d="M108.12 6.214C106.533 6.214 104.988 6.374 103.42 6.453c49.871 2.474 89.707 43.703 89.707 94.165.0 32.498-16.497 61.204-41.56 78.189C149.716 180.097 142.423 184.222 142.423 184.222 130.643 190.401 117.439 194.177 103.42 194.877 104.98 194.956 106.542 195.022 108.12 195.022c15.773.0 30.614-3.93299999999999 43.704-10.8C151.824 184.222 159.117 180.097 160.969 178.807c25.062-16.985 41.56-45.691 41.56-78.189.0-52.049-42.347-94.404-94.409-94.404z" id="path-9" class="cls-6" fill-rule="evenodd"/><path d="M74.833 164.327c9.959 5.233 21.277 8.231 33.287 8.231 12.02.0 23.329-2.99799999999999 33.304-8.231C141.424 164.327 146.982 161.184 148.392 160.2c19.099-12.942 31.671-34.817 31.671-59.582.0-39.663-32.27-71.938-71.943-71.938-39.664.0-71.941 32.275-71.941 71.938.0 24.765 12.58 46.64 31.677 59.582C67.856 160.2 73.631 163.714 74.833 164.327z" id="path-10" class="cls-12" fill-rule="evenodd"/><path d="M40.879 110.02c0-39.663 32.277-71.939 71.942-71.939 26.365.0 49.395 14.296 61.923 35.502-10.713-26.298-36.518-44.903-66.623-44.903-39.665.0-71.942 32.275-71.942 71.938.0 13.372 3.693 25.886 10.075 36.623C42.803 128.838 40.879 119.652 40.879 110.02z" id="path-11" class="cls-13" fill-rule="evenodd"/><path d="M149.645 70.704C147.574 68.632 144.219 68.632 142.147 70.704l-1.143 1.143C142.172 73.874 141.977 76.468 140.244 78.201l-26.056 26.067C115.202 106.411 115.824 108.772 115.824 111.299 115.824 118.726 110.85 124.94 104.081 126.978 105.58 127.429 107.135 127.744 108.779 127.744 117.852 127.744 125.225 120.371 125.225 111.299 125.225 108.772 124.604 106.411 123.589 104.268l26.056-26.067c2.071-2.06999999999999 2.071-5.425.0-7.497z" id="path-12" class="cls-13" fill-rule="evenodd"/><path d="M104.68 42.639s0 53.023.0 53.023S104.66 95.755 104.66 95.807C105.384 96.055 106.088 103.529 106.773 103.871l7.309-7.312s0-53.92.0-53.92c0-2.931-2.36099999999999-5.302-5.303-5.302-2.071.0-3.827 1.223-4.69799999999999 2.962C104.436 41.012 104.68 41.786 104.68 42.639z" id="path-13" class="cls-13" fill-rule="evenodd"/><path d="M144.944 78.202s-26.056 26.065-26.056 26.065C119.903 106.411 120.524 108.772 120.524 111.299 120.524 120.372 113.151 127.744 104.078 127.744 95.017 127.744 87.643 120.372 87.643 111.299 87.643 104.091 92.335 98.013 98.817 95.807L98.776 95.714s0-53.075.0-53.075c0-2.931 2.381-5.302 5.30200000000001-5.302 2.94199999999999.0 5.303 2.371 5.303 5.302V95.662S109.361 95.755 109.361 95.807C110.085 96.054 110.789 96.344 111.473 96.687l25.974-25.983C139.518 68.633 142.873 68.633 144.944 70.704 147.015 72.775 147.015 76.13 144.944 78.202z" id="path-14" class="cls-3" fill-rule="evenodd"/></g></svg>