<svg xmlns="http://www.w3.org/2000/svg" xmlns:xlink="http://www.w3.org/1999/xlink" preserveAspectRatio="xMidYMid" width="219" height="217" viewBox="0 0 219 217"><defs><style>.cls-3{fill:#142a3b}</style></defs><g id="group-16svg"><path d="M213.063 108.455s-36.077 27.663-36.077 27.663S192.726 141.823 192.726 141.823c-14.842 25.742-41.584 43.755-72.713 46.528V93.933s21.463.0 21.463.0.0-16.265.0-16.265-21.463.0-21.463.0.0-20.043.0-20.043c12.15-3.619 21.017-14.862 21.017-28.187.0-16.25-13.173-29.423-29.422-29.423-16.249.0-29.421 13.173-29.421 29.423C82.187 42.763 91.052 54.006 103.203 57.625V77.668s-21.462.0-21.462.0.0 16.265.0 16.265 21.462.0 21.462.0.0 94.418.0 94.418C69.756 185.372 42.154 162.372 28.157 133.52l16.454-6.09S11.446 97.947 11.446 97.947.005 143.137.005 143.137 18.865 137.02 18.865 137.02c6.113 45.765 45.306 79.874 92.743 79.874 43.949.0 80.822-30.3 90.868-71.15l16.505 7.786S213.063 108.455 213.063 108.455zM111.608 40.576C105.457 40.576 100.47 35.588 100.47 29.438c0-6.152 4.987-11.139 11.138-11.139 6.151.0 11.138 4.987 11.138 11.139.0 6.15-4.987 11.138-11.138 11.138z" id="path-1" class="cls-3" fill-rule="evenodd"/></g></svg>