<svg xmlns="http://www.w3.org/2000/svg" xmlns:xlink="http://www.w3.org/1999/xlink" preserveAspectRatio="xMidYMid" width="216" height="189" viewBox="0 0 216 189"><defs><style>.cls-3{fill:#142a3b}.cls-4{fill:#000;opacity:.35}.cls-5{fill:#ff3a2f}.cls-6{fill:#2476ff}</style></defs><g id="group-122svg"><path d="M17.949 53.878s-8.98.0-8.98.0.0 134.707.0 134.707 197.578.0 197.578.0.0-134.707.0-134.707-8.981.0-8.981.0-179.617.0-179.617.0z" id="path-1" class="cls-3" fill-rule="evenodd"/><path d="M17.949 57.246s-8.98.0-8.98.0.0 13.702.0 13.702S206.547 81.051 206.547 81.051s0-23.805.0-23.805-8.981.0-8.981.0-179.617.0-179.617.0z" id="path-2" class="cls-4" fill-rule="evenodd"/><path d="M-.012-.005s0 62.863.0 62.863 8.981.0 8.981.0 8.98.0 8.98.0 179.617.0 179.617.0 8.981.0 8.981.0 8.981.0 8.981.0.0-62.863.0-62.863-215.54.0-215.54.0z" id="path-3" class="cls-5" fill-rule="evenodd"/><path d="M80.815 80.811s53.885.0 53.885.0C139.655 80.811 143.681 84.836 143.681 89.791 143.681 94.745 139.655 98.772 134.7 98.772H80.815C75.86 98.772 71.834 94.745 71.834 89.791 71.834 84.836 75.86 80.811 80.815 80.811z" id="path-4" class="cls-6" fill-rule="evenodd"/><path d="M134.7 80.811s-53.885.0-53.885.0C76.639 80.811 73.156 83.681 72.153 87.546h52.444C129.552 87.546 133.578 91.571 133.578 96.525 133.578 97.305 133.447 98.049 133.259 98.77H134.7C139.655 98.77 143.681 94.745 143.681 89.791 143.681 84.836 139.655 80.811 134.7 80.811z" id="path-5" class="cls-4" fill-rule="evenodd"/></g></svg>