<svg xmlns="http://www.w3.org/2000/svg" xmlns:xlink="http://www.w3.org/1999/xlink" preserveAspectRatio="xMidYMid" width="206" height="217" viewBox="0 0 206 217"><defs><style>.cls-3{fill:#142a3b}.cls-7{fill:#0cb04a}.cls-8{fill:#020403;opacity:.35}.cls-11{fill:#fbb713}.cls-14{fill:#ff3a2f}</style></defs><g id="group-129svg"><path d="M106.618 60.547C104.623 60.547 103.004 58.929 103.004 56.932V3.616C103.004 1.62 104.623.001 106.618.001 108.614.001 110.233 1.62 110.233 3.616V56.932c0 1.997-1.619 3.615-3.61500000000001 3.615z" id="path-1" class="cls-3" fill-rule="evenodd"/><path d="M106.618 119.194C104.623 119.194 103.004 117.576 103.004 115.579v-6.881c0-1.996 1.619-3.615 3.61399999999999-3.615C108.614 105.083 110.233 106.702 110.233 108.698v6.881C110.233 117.576 108.614 119.194 106.618 119.194zm0-17.724C104.623 101.47 103.004 99.85 103.004 97.854V79.782C103.004 77.786 104.623 76.165 106.618 76.165 108.614 76.165 110.233 77.786 110.233 79.782V97.854c0 1.996-1.619 3.616-3.61500000000001 3.616z" id="path-2" class="cls-3" fill-rule="evenodd"/><path d="M182.782 159.303C180.786 159.303 179.167 157.686 179.167 155.689V137.615C179.167 135.619 180.786 134.001 182.782 134.001 184.778 134.001 186.397 135.619 186.397 137.615v18.074C186.397 157.686 184.778 159.303 182.782 159.303zm0-28.916C180.786 130.387 179.167 128.768 179.167 126.773V108.698c0-1.996 1.619-3.615 3.61500000000001-3.615C184.778 105.083 186.397 106.702 186.397 108.698v18.075c0 1.995-1.619 3.614-3.61499999999998 3.614zm0-28.917C180.786 101.47 179.167 99.85 179.167 97.854V79.782C179.167 77.786 180.786 76.165 182.782 76.165 184.778 76.165 186.397 77.786 186.397 79.782V97.854c0 1.996-1.619 3.616-3.61499999999998 3.616z" id="path-3" class="cls-3" fill-rule="evenodd"/><path d="M30.455 170.161C28.459 170.161 26.84 168.543 26.84 166.546 26.84 164.55 28.459 162.924 30.455 162.924c1.996.0 3.614 1.61199999999999 3.614 3.608V166.546C34.069 168.543 32.451 170.161 30.455 170.161zm0-10.858C28.459 159.303 26.84 157.686 26.84 155.689V137.615c0-1.99600000000001 1.619-3.614 3.615-3.614 1.996.0 3.614 1.618 3.614 3.614v18.074c0 1.99700000000001-1.618 3.614-3.614 3.614zm0-28.916c-1.996.0-3.615-1.619-3.615-3.614V108.698c0-1.996 1.619-3.615 3.615-3.615 1.996.0 3.614 1.619 3.614 3.615v18.075c0 1.995-1.618 3.614-3.614 3.614zm0-28.917c-1.996.0-3.615-1.62-3.615-3.616V79.782C26.84 77.786 28.459 76.165 30.455 76.165 32.451 76.165 34.069 77.786 34.069 79.782V97.854c0 1.996-1.618 3.616-3.614 3.616z" id="path-4" class="cls-3" fill-rule="evenodd"/><path d="M189.842 172.491s-7.06-14.306-7.06-14.306S175.721 172.491 175.721 172.491 159.933 174.786 159.933 174.786s11.424 11.135 11.424 11.135-2.696 15.726-2.696 15.726S182.782 194.222 182.782 194.222 196.903 201.647 196.903 201.647s-2.697-15.726-2.697-15.726 11.425-11.135 11.425-11.135S189.842 172.491 189.842 172.491z" id="path-5" class="cls-7" fill-rule="evenodd"/><path d="M186.034 176.3S201.736 178.583 201.736 178.583 205.631 174.786 205.631 174.786 189.842 172.491 189.842 172.491s-7.06-14.305-7.06-14.305S179.937 163.945 179.937 163.945 186.034 176.3 186.034 176.3z" id="path-6" class="cls-8" fill-rule="evenodd"/><path d="M190.398 189.731S192 199.069 192 199.069 196.903 201.647 196.903 201.647 194.22 186.005 194.22 186.005s-3.822 3.726-3.822 3.726z" id="path-7" class="cls-8" fill-rule="evenodd"/><path d="M171.913 176.3S173.643 172.794 173.643 172.794 159.933 174.786 159.933 174.786 162.839 177.618 162.839 177.618 171.913 176.3 171.913 176.3z" id="path-8" class="cls-8" fill-rule="evenodd"/><path d="M39.87 178.005s-9.415-19.075-9.415-19.075-9.415 19.075-9.415 19.075-21.051 3.06-21.051 3.06 15.232 14.848 15.232 14.848-3.596 20.967-3.596 20.967S30.455 206.98 30.455 206.98 49.283 216.88 49.283 216.88s-3.596-20.967-3.596-20.967S60.92 181.065 60.92 181.065s-21.05-3.06-21.05-3.06z" id="path-9" class="cls-11" fill-rule="evenodd"/><path d="M60.92 181.065s-21.05-3.06-21.05-3.06-9.415-19.075-9.415-19.075-3.809 7.714-3.809 7.714 5.606 11.361 5.606 11.361 21.052 3.06 21.052 3.06-15.233 14.848-15.233 14.848 2.841 16.566 2.841 16.566S49.283 216.881 49.283 216.881s-3.596-20.968-3.596-20.968S60.92 181.065 60.92 181.065z" id="path-10" class="cls-8" fill-rule="evenodd"/><path d="M173.001 66.042C172.42 66.042 171.83 65.901 171.284 65.606l-64.666-35.03S42.287 65.422 42.287 65.422C40.528 66.374 38.339 65.72 37.387 63.967 36.436 62.211 37.089 60.017 38.845 59.066l67.773-36.711s68.107 36.892 68.107 36.892C176.481 60.199 177.134 62.394 176.183 64.149 175.528 65.357 174.286 66.042 173.001 66.042z" id="path-11" class="cls-3" fill-rule="evenodd"/><path d="M41.879 68.358C41.879 74.666 36.764 79.782 30.454 79.782S19.029 74.666 19.029 68.358C19.029 62.047 24.144 56.932 30.454 56.932s11.425 5.115 11.425 11.426z" id="path-12" class="cls-14" fill-rule="evenodd"/><path d="M118.043 68.358C118.043 74.666 112.928 79.782 106.618 79.782 100.308 79.782 95.193 74.666 95.193 68.358 95.193 62.047 100.308 56.932 106.618 56.932c6.31.0 11.425 5.115 11.425 11.426z" id="path-13" class="cls-14" fill-rule="evenodd"/><path d="M112.538 58.628C113.593 60.36 114.235 62.372 114.235 64.549 114.235 70.859 109.12 75.973 102.81 75.973 100.634 75.973 98.621 75.331 96.891 74.276 98.896 77.566 102.484 79.782 106.618 79.782c6.31.0 11.425-5.116 11.425-11.424C118.043 64.223 115.826 60.635 112.538 58.628z" id="path-14" class="cls-8" fill-rule="evenodd"/><path d="M36.374 58.628C37.43 60.36 38.071 62.372 38.071 64.549 38.071 70.859 32.956 75.973 26.646 75.973 24.47 75.973 22.457 75.331 20.727 74.276 22.732 77.566 26.32 79.782 30.454 79.782c6.31.0 11.425-5.116 11.425-11.424C41.879 64.223 39.662 60.635 36.374 58.628z" id="path-15" class="cls-8" fill-rule="evenodd"/><path d="M194.206 68.358C194.206 74.666 189.092 79.782 182.782 79.782s-11.425-5.116-11.425-11.424C171.357 62.047 176.472 56.932 182.782 56.932s11.424 5.115 11.424 11.426z" id="path-16" class="cls-14" fill-rule="evenodd"/><path d="M188.701 58.628C189.757 60.36 190.398 62.372 190.398 64.549 190.398 70.859 185.283 75.973 178.974 75.973 176.798 75.973 174.785 75.331 173.054 74.276 175.06 77.566 178.648 79.782 182.782 79.782c6.31.0 11.424-5.116 11.424-11.424C194.206 64.223 191.99 60.635 188.701 58.628z" id="path-17" class="cls-8" fill-rule="evenodd"/><path d="M132.479 124.637C132.479 116.811 126.136 110.468 118.311 110.468 113.554 110.468 109.355 112.823 106.785 116.419 104.216 112.823 100.017 110.468 95.26 110.468c-7.825.0-14.167 6.343-14.167 14.169.0 3.224 13.419 21.452 25.41 32.185 10.792-12.596 25.976-28.113 25.976-32.185z" id="path-18" class="cls-14" fill-rule="evenodd"/><path d="M103.175 119.88C104.185 118.465 105.455 117.255 106.905 116.292 103.779 113.327 100.811 110.47 95.26 110.47 93.676 110.47 92.18 110.788 90.758 111.268 94.634 111.85 100.994 116.825 103.175 119.88z" id="path-19" class="cls-8" fill-rule="evenodd"/><path d="M118.311 110.47C116.663 110.47 115.088 110.768 113.617 111.287 120.527 112.231 125.871 118.094 125.871 125.261c0 3.67600000000002-12.353 16.66-22.696 28.417C104.289 154.773 105.402 155.836 106.503 156.822c10.792-12.596 25.976-28.113 25.976-32.184C132.479 116.813 126.136 110.47 118.311 110.47z" id="path-20" class="cls-8" fill-rule="evenodd"/><path d="M22.838 206.98S12.38 212.479 12.38 212.479 11.625 216.881 11.625 216.881 26.646 208.984 26.646 208.984 22.838 206.98 22.838 206.98z" id="path-21" class="cls-8" fill-rule="evenodd"/></g></svg>