<svg xmlns="http://www.w3.org/2000/svg" xmlns:xlink="http://www.w3.org/1999/xlink" preserveAspectRatio="xMidYMid" width="217" height="207" viewBox="0 0 217 207"><defs><style>.cls-3{fill:#fbb713}.cls-5{fill:#020403;opacity:.35}.cls-7{fill:#b17d0a}.cls-10{fill:#2476ff}</style></defs><g id="group-112svg"><path d="M160.997 99.928s55.892 4.968 55.892 4.968.0-64.65.0-64.65c0-16.009-12.977-28.987-28.986-28.987H155.607S160.997 99.928 160.997 99.928z" id="path-1" class="cls-3" fill-rule="evenodd"/><path d="M58.007 99.928S.015 104.896.015 104.896s0-64.65.0-64.65c0-16.009 12.978-28.987 28.987-28.987H60.7S58.007 99.928 58.007 99.928z" id="path-2" class="cls-3" fill-rule="evenodd"/><path d="M180.775 11.259s-25.168.0-25.168.0S160.997 99.928 160.997 99.928 170.837 101.685 170.837 101.685 180.775 11.259 180.775 11.259z" id="path-3" class="cls-5" fill-rule="evenodd"/><path d="M51.265 101.356s6.743-1.428 6.743-1.428S60.7 11.259 60.7 11.259s-24.34.0-24.34.0 14.905 90.097 14.905 90.097z" id="path-4" class="cls-5" fill-rule="evenodd"/><path d="M160.568 191.611s56.321-86.715 56.321-86.715S154.597 89.44 154.597 89.44s5.971 102.171 5.971 102.171z" id="path-5" class="cls-7" fill-rule="evenodd"/><path d="M57.881 194.565S.015 104.896.015 104.896 69.916 89.44 69.916 89.44 57.881 194.565 57.881 194.565z" id="path-6" class="cls-7" fill-rule="evenodd"/><path d="M157.61 206.695s-98.315.0-98.315.0C56.5 206.695 54.234 204.429 54.234 201.633V5.061C54.234 2.265 56.5.0 59.295.0H157.61C160.405.0 162.671 2.265 162.671 5.061V201.633C162.671 204.429 160.405 206.695 157.61 206.695z" id="path-7" class="cls-3" fill-rule="evenodd"/><path d="M134.674 63.892c0 14.11-11.438 25.548-25.547 25.548-14.109.0-25.547-11.438-25.547-25.548.0-14.111 11.438-25.548 25.547-25.548 14.109.0 25.547 11.437 25.547 25.548z" id="path-8" class="cls-10" fill-rule="evenodd"/></g></svg>