<svg xmlns="http://www.w3.org/2000/svg" xmlns:xlink="http://www.w3.org/1999/xlink" preserveAspectRatio="xMidYMid" width="217" height="200" viewBox="0 0 217 200"><defs><style>.cls-3{fill:#142a3b}.cls-5{fill:#0cb04a}.cls-6{fill:#fbb713}.cls-7{fill:#020403;opacity:.35}.cls-8{fill:#020403;opacity:.25}.cls-9{fill:#ff3a2f}.cls-10{fill:#fff}</style></defs><g id="group-105svg"><path d="M178.33 156.542C176.334 156.542 174.715 154.923 174.715 152.927 174.715 150.931 176.334 149.312 178.33 149.312c17.261.0 31.303-14.043 31.303-31.304.0-17.26-14.042-31.302-31.303-31.302C176.334 86.706 174.715 85.087 174.715 83.091 174.715 81.096 176.334 79.477 178.33 79.477c21.247.0 38.532 17.284 38.532 38.531s-17.285 38.534-38.532 38.534z" id="path-1" class="cls-3" fill-rule="evenodd"/><path d="M38.52 156.542c-21.246.0-38.531-17.287-38.531-38.534S17.274 79.477 38.52 79.477C40.516 79.477 42.135 81.096 42.135 83.091 42.135 85.087 40.516 86.706 38.52 86.706c-17.26.0-31.303 14.042-31.303 31.302.0 17.261 14.043 31.304 31.303 31.304 1.996.0 3.615 1.619 3.615 3.61499999999998C42.135 154.923 40.516 156.542 38.52 156.542z" id="path-2" class="cls-3" fill-rule="evenodd"/><path d="M174.403 199.484s-133.175.0-133.175.0C39.221 199.484 37.594 197.857 37.594 195.849V78.436s140.443.0 140.443.0.0 117.413.0 117.413C178.037 197.857 176.41 199.484 174.403 199.484z" id="path-3" class="cls-5" fill-rule="evenodd"/><path d="M140.403 28.94s0-10.974.0-10.974C140.403 8.052 132.365.013 122.45.013H95.683C85.767.013 77.73 8.052 77.73 17.966V28.94S37.594 43.404 37.594 43.404s0 38.57.0 38.57 141.378.0 141.378.0.0-38.57.0-38.57S140.403 28.94 140.403 28.94z" id="path-4" class="cls-6" fill-rule="evenodd"/><path d="M158.753 82.453s0 86.106.0 86.106c0 9.357-7.845 16.942-17.523 16.942H37.902C39.354 193.44 46.487 199.485 55.117 199.485H160.514c9.678.0 17.524-7.58600000000001 17.524-16.944V82.453s-19.285.0-19.285.0z" id="path-5" class="cls-7" fill-rule="evenodd"/><path d="M140.403 28.94s0-10.974.0-10.974C140.403 8.052 132.365.013 122.451.013H103.166C113.081.013 121.119 8.052 121.119 17.966v5.967c0 3.017 1.857 5.722 4.672 6.807L150.382 40.209C155.384 42.134 158.683 46.939 158.683 52.298V81.974s20.289.0 20.289.0.0-38.57.0-38.57S140.403 28.94 140.403 28.94z" id="path-6" class="cls-8" fill-rule="evenodd"/><path d="M136.473 122.791C136.473 115.727 130.747 110 123.683 110s-12.79 5.727-12.79 12.791C110.893 126.159 107.241 126.159 107.241 122.791 107.241 115.727 101.515 110 94.45 110s-12.79 5.727-12.79 12.791c0 5.453 27.407 45.128 27.407 45.128s27.406-39.675 27.406-45.128z" id="path-7" class="cls-9" fill-rule="evenodd"/><path d="M99.425 15.983c0 3.828-3.104 6.931-6.931 6.931S85.564 19.811 85.564 15.983C85.564 12.156 88.667 9.052 92.494 9.052s6.931 3.104 6.931 6.931z" id="path-8" class="cls-10" fill-rule="evenodd"/><path d="M51.214 166.343C49.218 166.343 47.599 164.723 47.599 162.727V99.45C47.599 97.454 49.218 95.835 51.214 95.835 53.21 95.835 54.829 97.454 54.829 99.45v63.277C54.829 164.723 53.21 166.343 51.214 166.343z" id="path-9" class="cls-10" fill-rule="evenodd"/></g></svg>