<svg xmlns="http://www.w3.org/2000/svg" xmlns:xlink="http://www.w3.org/1999/xlink" preserveAspectRatio="xMidYMid" width="216" height="177" viewBox="0 0 216 177"><defs><style>.cls-3{fill:#142a3b}.cls-5{fill:#010101;opacity:.35}.cls-8{fill:#fbb713}.cls-9{fill:#2476ff}.cls-11{fill:#010101;opacity:.25}</style></defs><g id="group-169svg"><path d="M112.657 155.085C112.657 143.748 103.465 134.557 92.13 134.557c-11.339.0-20.53 9.191-20.53 20.528.0 11.338 9.191 20.53 20.53 20.53 11.335.0 20.527-9.19200000000001 20.527-20.53z" id="path-1" class="cls-3" fill-rule="evenodd"/><path d="M191.948 155.085c0-12.096-9.80700000000002-21.903-21.904-21.903-12.097.0-21.903 9.80700000000002-21.903 21.903C148.141 167.183 157.947 176.99 170.044 176.99 182.141 176.99 191.948 167.183 191.948 155.085z" id="path-2" class="cls-3" fill-rule="evenodd"/><path d="M103.041 137.661C105.034 140.824 106.205 144.558 106.205 148.574c0 11.337-9.191 20.529-20.529 20.529C81.66 169.103 77.927 167.932 74.763 165.94 78.397 171.709 84.806 175.555 92.13 175.555c11.335.0 20.527-9.19 20.527-20.529.0-7.322-3.84599999999999-13.732-9.616-17.365z" id="path-3" class="cls-5" fill-rule="evenodd"/><path d="M176.202 134.015C181.569 138.007 185.064 144.38 185.064 151.584c0 12.097-9.80799999999999 21.905-21.905 21.905C161.019 173.489 158.957 173.167 157.001 172.595 160.647 175.307 165.152 176.931 170.044 176.931c12.097.0 21.904-9.80700000000002 21.904-21.905.0-9.95700000000002-6.649-18.348-15.746-21.011z" id="path-4" class="cls-5" fill-rule="evenodd"/><path d="M53.574 77.813C52.656 77.813 51.736 77.257 51.033 76.559L25.11 50.72s-21.49.0-21.49.0c-1.996.0-3.615-1.504-3.615-3.5s1.619-3.5 3.615-3.5H28.083S56.115 71.534 56.115 71.534C57.535 72.937 57.548 75.274 56.144 76.692 55.437 77.407 54.507 77.813 53.574 77.813z" id="path-5" class="cls-3" fill-rule="evenodd"/><path d="M202.169-.007s-71.185.0-71.185.0.0 70.369.0 70.369 84.577.0 84.577.0.0-56.977.0-56.977C215.561 5.99 209.565-.007 202.169-.007z" id="path-6" class="cls-8" fill-rule="evenodd"/><path d="M46.406 68.706s0 26.468.0 26.468c0 21.631 17.534 39.166 39.165 39.166h90.825c21.63.0 39.165-17.535 39.165-39.166V68.706s-169.155.0-169.155.0z" id="path-7" class="cls-9" fill-rule="evenodd"/><path d="M192.166 70.362s0 6.096.0 6.096c0 21.63-17.535 39.166-39.164 39.166H62.176C58.384 115.624 54.728 115.056 51.259 114.05c6.667 12.091 19.529 20.29 34.312 20.29h90.825c21.63.0 39.165-17.535 39.165-39.166V70.362s-23.395.0-23.395.0z" id="path-8" class="cls-5" fill-rule="evenodd"/><path d="M168.304-.007s-31.227.0-31.227.0c30.424.0 55.089 24.665 55.089 55.09V70.362s23.395.0 23.395.0.0-15.279.0-15.279C218.813 27.09 198.728-.007 168.304-.007z" id="path-9" class="cls-11" fill-rule="evenodd"/></g></svg>