<svg xmlns="http://www.w3.org/2000/svg" xmlns:xlink="http://www.w3.org/1999/xlink" preserveAspectRatio="xMidYMid" width="208" height="216" viewBox="0 0 208 216"><defs><style>.cls-3{fill:#fbb713}.cls-4{fill:#000;opacity:.25}.cls-7{fill:#ff3a2f}.cls-8{fill:#000;opacity:.35}</style></defs><g id="group-134svg"><path d="M103.27 215.533c-12.988.0-21.384-4.803-21.384-12.232.0-16.742-12.88-34.531-36.752-34.531C42.601 168.77 40.551 166.72 40.551 164.186V75.652S25.756 76.799 25.756 76.799C24.368 76.875 23.026 76.382 22.077 75.388L1.248 53.438c-1.566-1.643-1.692-4.172-.295-5.97C2.161 45.905 31.144 9.066 69.677.119 72.129-.445 74.556 1.059 75.165 3.485c2.559 10.222 13.041 39.423 27.094 39.423 14.643.0 26.566-29.34 29.618-39.621C132.574.969 134.929-.431 137.309.119c38.507 8.937 67.911 45.428 69.146 46.972C207.851 48.863 207.77 51.388 206.24 53.048L185.967 75.164C185.018 76.198 183.514 76.726 182.252 76.637L168.871 75.63s0 88.556.0 88.556C168.871 166.72 166.821 168.77 164.288 168.77c-15.646.0-39.635 18.528-39.635 34.531.0 7.429-8.396 12.232-21.383 12.232z" id="path-1" class="cls-3" fill-rule="evenodd"/><path d="M66.543 3.485C69.103 13.707 79.584 42.908 93.637 42.908 95.14 42.908 96.607 42.531 98.045 41.967 86.141 37.03 77.461 12.654 75.165 3.485 74.556 1.059 72.129-.445 69.677.119 68.172.469 66.709.931 65.234 1.361 65.828 1.94 66.327 2.623 66.543 3.485z" id="path-2" class="cls-4" fill-rule="evenodd"/><path d="M206.455 47.091C205.22 45.547 175.816 9.056 137.309.119 135.728-.247 134.204.303 133.123 1.356c36.295 10.563 63.523 44.252 64.711 45.735C199.229 48.863 199.149 51.388 197.618 53.048L177.345 75.164C176.939 75.607 176.402 75.908 175.855 76.156L182.252 76.637C183.514 76.726 185.018 76.198 185.967 75.164L206.24 53.048C207.77 51.388 207.851 48.863 206.455 47.091z" id="path-3" class="cls-4" fill-rule="evenodd"/><path d="M160.249 75.63s0 88.556.0 88.556C160.249 166.72 158.199 168.768 155.666 168.768c-15.646.0-39.634 18.53-39.634 34.533.0 6.56700000000001-6.577 11.068-17.073 12.026C100.336 215.453 101.764 215.533 103.27 215.533c12.988.0 21.383-4.803 21.383-12.232.0-16.003 23.989-34.533 39.635-34.533C166.821 168.768 168.871 166.72 168.871 164.186V76.279S160.249 75.63 160.249 75.63z" id="path-4" class="cls-4" fill-rule="evenodd"/><path d="M102.92 135.285C102.348 135.285 101.766 135.178 101.22 134.963c-20.972-8.365-36.645-33.568-31.042-49.943C72.685 77.689 78.799 73.138 86.137 73.138 92.377 73.138 98.329 76.323 102.92 81.922 107.513 76.323 113.465 73.138 119.713 73.138 127.053 73.138 133.166 77.689 135.672 85.023 141.266 101.395 125.593 126.598 104.621 134.963 104.076 135.178 103.494 135.285 102.92 135.285z" id="path-5" class="cls-7" fill-rule="evenodd"/><path d="M98.61 81.922C99.297 81.085 100.022 80.321 100.765 79.596 96.535 75.461 91.443 73.138 86.137 73.138 85.469 73.138 84.823 73.217 84.178 73.29 89.549 73.984 94.598 77.031 98.61 81.922z" id="path-6" class="cls-8" fill-rule="evenodd"/><path d="M135.672 85.023C133.166 77.689 127.052 73.138 119.712 73.138 118.923 73.138 118.138 73.191 117.36 73.29 123.811 74.03 129.083 78.355 131.361 85.023c5.553 16.251-9.856 41.186-30.596 49.733C100.919 134.819 101.066 134.902 101.22 134.963 101.766 135.178 102.348 135.285 102.92 135.285 103.494 135.285 104.076 135.178 104.621 134.963c20.972-8.365 36.645-33.568 31.051-49.94z" id="path-7" class="cls-8" fill-rule="evenodd"/></g></svg>