<svg xmlns="http://www.w3.org/2000/svg" xmlns:xlink="http://www.w3.org/1999/xlink" preserveAspectRatio="xMidYMid" width="216" height="216" viewBox="0 0 216 216"><defs><style>.cls-3{fill:#fbb713}.cls-4{fill:#ededed}.cls-13{fill:#000;opacity:.35}</style></defs><g id="group-158svg"><path d="M63.503 214.14C46.669 218.139 28.219 213.573 15.086 200.449 1.954 187.317-2.608 168.86 1.391 152.029L152.018 1.412s0-.004.0-.004c16.835-3.999 35.284.567 48.417 13.699 13.133 13.129 17.695 31.582 13.696 48.41L63.503 214.14z" id="path-1" class="cls-3" fill-rule="evenodd"/><path d="M46.885 145.906C45.483 145.906 44.082 145.332 43.077 144.325 42.07 143.321 41.496 141.955 41.496 140.517 41.496 139.118 42.07 137.716 43.077 136.712c2.046-2.012 5.604-2.012 7.616.0C51.698 137.716 52.273 139.118 52.273 140.517 52.273 141.955 51.698 143.321 50.693 144.325 49.686 145.332 48.321 145.906 46.885 145.906z" id="path-2" class="cls-4" fill-rule="evenodd"/><path d="M75.011 174.033C73.574 174.033 72.21 173.459 71.205 172.452 70.198 171.447 69.623 170.046 69.623 168.645 69.623 167.209 70.198 165.844 71.205 164.836 73.215 162.826 76.807 162.826 78.819 164.836 79.826 165.844 80.399 167.209 80.399 168.645 80.399 170.046 79.826 171.447 78.819 172.452 77.814 173.459 76.413 174.033 75.011 174.033z" id="path-3" class="cls-4" fill-rule="evenodd"/><path d="M28.169 164.658C26.73 164.658 25.33 164.082 24.324 163.078 23.319 162.071 22.78 160.671 22.78 159.269 22.78 157.867 23.319 156.468 24.324 155.46c2.049-2.012 5.604-2.012 7.651.0C32.982 156.468 33.52 157.833 33.52 159.269 33.52 160.671 32.982 162.071 31.975 163.078 30.97 164.082 29.569 164.658 28.169 164.658z" id="path-4" class="cls-4" fill-rule="evenodd"/><path d="M56.26 192.784C54.824 192.784 53.457 192.174 52.452 191.204 51.447 190.197 50.872 188.798 50.872 187.397 50.872 185.959 51.447 184.558 52.452 183.553c2.012-1.977 5.604-2.011 7.616.0C61.073 184.558 61.649 185.959 61.649 187.397 61.649 188.798 61.073 190.197 60.068 191.204 59.061 192.174 57.697 192.784 56.26 192.784z" id="path-5" class="cls-4" fill-rule="evenodd"/><path d="M159.252 33.541C157.851 33.541 156.451 32.966 155.444 31.961 154.439 30.956 153.863 29.59 153.863 28.153 153.863 26.752 154.439 25.352 155.444 24.346 157.456 22.333 161.048 22.333 163.06 24.346 164.065 25.352 164.641 26.752 164.641 28.153 164.641 29.59 164.065 30.956 163.06 31.961 162.053 32.966 160.688 33.541 159.252 33.541z" id="path-6" class="cls-4" fill-rule="evenodd"/><path d="M187.381 61.669C185.944 61.669 184.577 61.093 183.572 60.089 182.568 59.082 181.992 57.682 181.992 56.281 181.992 54.844 182.568 53.478 183.572 52.473 185.584 50.461 189.176 50.461 191.188 52.473 192.193 53.478 192.769 54.844 192.769 56.281 192.769 57.682 192.193 59.082 191.188 60.089 190.181 61.093 188.781 61.669 187.381 61.669z" id="path-7" class="cls-4" fill-rule="evenodd"/><path d="M140.501 52.294C139.1 52.294 137.698 51.719 136.693 50.712 135.723 49.706 135.112 48.342 135.112 46.905 135.112 45.504 135.723 44.103 136.693 43.098 138.705 41.084 142.297 41.084 144.344 43.098 145.314 44.103 145.889 45.504 145.889 46.905 145.889 48.342 145.314 49.706 144.344 50.712 143.337 51.719 141.938 52.294 140.501 52.294z" id="path-8" class="cls-4" fill-rule="evenodd"/><path d="M168.628 80.419C167.228 80.419 165.826 79.846 164.819 78.839 163.814 77.834 163.239 76.431 163.239 75.03 163.239 73.594 163.814 72.23 164.819 71.225 166.832 69.213 170.46 69.213 172.436 71.225 173.442 72.23 174.016 73.594 174.016 75.03 174.016 76.431 173.442 77.834 172.436 78.839 171.43 79.846 170.066 80.419 168.628 80.419z" id="path-9" class="cls-4" fill-rule="evenodd"/><path d="M90.198 148.096s-24.562-24.563-24.562-24.563 57.982-57.979 57.982-57.979S148.18 90.116 148.18 90.116s-57.982 57.98-57.982 57.98z" id="path-10" class="cls-3" fill-rule="evenodd"/><path d="M90.198 148.096s-24.562-24.563-24.562-24.563 57.982-57.979 57.982-57.979S148.18 90.116 148.18 90.116s-57.982 57.98-57.982 57.98z" id="path-11" class="cls-13" fill-rule="evenodd"/></g></svg>