<svg xmlns="http://www.w3.org/2000/svg" xmlns:xlink="http://www.w3.org/1999/xlink" preserveAspectRatio="xMidYMid" width="216" height="178" viewBox="0 0 216 178"><defs><style>.cls-3{fill:#142a3b}.cls-5{fill:#060606;opacity:.35}.cls-6{fill:#ededed}</style></defs><g id="group-71svg"><path d="M215.552 69.841s-215.54.0-215.54.0S.012.005.012.005s215.54.0 215.54.0.0 69.836.0 69.836z" id="path-1" class="cls-3" fill-rule="evenodd"/><path d="M215.552 137.23s-215.54.0-215.54.0.0-69.838.0-69.838 215.54.0 215.54.0.0 69.838.0 69.838z" id="path-2" class="cls-3" fill-rule="evenodd"/><path d="M215.552 79.102S.012 71.264.012 71.264s0-3.872.0-3.872 215.54.0 215.54.0.0 11.71.0 11.71z" id="path-3" class="cls-5" fill-rule="evenodd"/><path d="M190.09 34.923c0 4.414-3.57900000000001 7.993-7.994 7.993S174.103 39.337 174.103 34.923c0-4.415 3.578-7.994 7.993-7.994s7.994 3.579 7.994 7.994z" id="path-4" class="cls-6" fill-rule="evenodd"/><path d="M47.976 34.923c0 4.414-3.579 7.993-7.994 7.993S31.988 39.337 31.988 34.923c0-4.415 3.579-7.994 7.994-7.994s7.994 3.579 7.994 7.994z" id="path-5" class="cls-6" fill-rule="evenodd"/><path d="M47.23 31.594C47.698 32.61 47.976 33.732 47.976 34.923c0 4.414-3.579 7.994-7.994 7.994C38.79 42.917 37.669 42.638 36.653 42.171 37.918 44.917 40.678 46.836 43.901 46.836c4.415.0 7.994-3.579 7.994-7.994C51.895 35.619 49.978 32.859 47.23 31.594z" id="path-6" class="cls-5" fill-rule="evenodd"/><path d="M190.09 102.311C190.09 106.726 186.511 110.306 182.096 110.306S174.103 106.726 174.103 102.311C174.103 97.897 177.681 94.318 182.096 94.318S190.09 97.897 190.09 102.311z" id="path-7" class="cls-6" fill-rule="evenodd"/><path d="M189.344 98.982C189.812 99.999 190.09 101.12 190.09 102.311 190.09 106.726 186.511 110.306 182.096 110.306 180.904 110.306 179.784 110.028 178.768 109.56 180.032 112.306 182.793 114.224 186.015 114.224 190.43 114.224 194.01 110.645 194.01 106.23 194.01 103.007 192.091 100.247 189.344 98.982z" id="path-8" class="cls-5" fill-rule="evenodd"/><path d="M189.344 31.854C189.812 32.87 190.09 33.991 190.09 35.182c0 4.415-3.57900000000001 7.995-7.994 7.995C180.904 43.177 179.784 42.898 178.768 42.43 180.032 45.177 182.793 47.095 186.015 47.095 190.43 47.095 194.01 43.516 194.01 39.101c0-3.222-1.91899999999998-5.982-4.666-7.247z" id="path-9" class="cls-5" fill-rule="evenodd"/><path d="M46.305 98.982C46.773 99.999 47.051 101.12 47.051 102.311 47.051 106.726 43.472 110.306 39.057 110.306 37.865 110.306 36.745 110.028 35.728 109.56c1.265 2.746 4.026 4.664 7.248 4.664C47.39 114.224 50.97 110.645 50.97 106.23 50.97 103.007 49.052 100.247 46.305 98.982z" id="path-10" class="cls-5" fill-rule="evenodd"/><path d="M47.976 102.311C47.976 106.726 44.397 110.306 39.982 110.306S31.988 106.726 31.988 102.311C31.988 97.897 35.567 94.318 39.982 94.318S47.976 97.897 47.976 102.311z" id="path-11" class="cls-6" fill-rule="evenodd"/><path d="M168.181 177.124S161.178 177.124 161.178 177.124s0-46.561.0-46.561S168.181 130.563 168.181 130.563s0 46.561.0 46.561z" id="path-12" class="cls-3" fill-rule="evenodd"/><path d="M61.595 177.124s-7.002.0-7.002.0.0-46.561.0-46.561 7.002.0 7.002.0.0 46.561.0 46.561z" id="path-13" class="cls-3" fill-rule="evenodd"/></g></svg>