<svg xmlns="http://www.w3.org/2000/svg" xmlns:xlink="http://www.w3.org/1999/xlink" preserveAspectRatio="xMidYMid" width="203" height="217" viewBox="0 0 203 217"><defs><style>.cls-3{fill:#142a3b}.cls-5{fill:#fff}.cls-6{fill:#2476ff}.cls-15{fill:#000;opacity:.35}.cls-18{fill:#fbb713}.cls-19{fill:#000;opacity:.25}.cls-21{fill:#ff3a2f}</style></defs><g id="group-14svg"><path d="M173.74 90.404S166.511 90.404 166.511 90.404s0-62.16.0-62.16C166.511 19.287 159.224 12 150.266 12 141.31 12 134.022 19.287 134.022 28.244H126.793c0-12.944 10.529-23.474 23.473-23.474 12.944.0 23.474 10.53 23.474 23.474v62.16z" id="path-1" class="cls-3" fill-rule="evenodd"/><path d="M149.002 51.957C149.399 50.654 149.688 49.299 149.836 47.895c1.249-11.864-7.357-22.495-19.22-23.743-11.864-1.249-22.493 7.357-23.742 19.22C106.726 44.776 106.727 46.162 106.844 47.517l42.158 4.44z" id="path-2" class="cls-3" fill-rule="evenodd"/><path d="M42.505 168.084C41.237 168.084 40.006 167.415 39.344 166.228c-5.728-10.285-8.757-21.98-8.757-33.822V111.122c0-1.997 1.618-3.616 3.615-3.616 1.996.0 3.614 1.619 3.614 3.616v21.284C37.816 143.019 40.529 153.498 45.66 162.71 46.631 164.453 46.006 166.655 44.262 167.626 43.704 167.938 43.101 168.084 42.505 168.084z" id="path-3" class="cls-5" fill-rule="evenodd"/><path d="M68.392 90.404C68.766 88.849 69.016 87.247 69.016 85.577 69.016 74.144 59.747 64.876 48.314 64.876S27.613 74.144 27.613 85.577C27.613 87.247 27.863 88.849 28.237 90.404H68.392z" id="path-4" class="cls-6" fill-rule="evenodd"/><path d="M24.853 26.775c0 6.86-5.562 12.421-12.422 12.421C5.57 39.196.01 33.635.01 26.775c0-6.861 5.56-12.422 12.421-12.422 6.86.0 12.422 5.561 12.422 12.422z" id="path-5" class="cls-6" fill-rule="evenodd"/><path d="M17.025 22.586c0 2.536-2.057 4.593-4.594 4.593-2.537.0-4.593-2.057-4.593-4.593.0-2.537 2.056-4.594 4.593-4.594 2.537.0 4.594 2.057 4.594 4.594z" id="path-6" class="cls-5" fill-rule="evenodd"/><path d="M49.182 77.048C49.182 81.15 45.858 84.474 41.756 84.474c-4.101.0-7.425-3.324-7.425-7.426s3.324-7.426 7.425-7.426c4.102.0 7.426 3.324 7.426 7.426z" id="path-7" class="cls-5" fill-rule="evenodd"/><path d="M85.088 8.042C85.088 12.48 81.49 16.078 77.052 16.078c-4.438.0-8.036-3.598-8.036-8.036.0-4.438 3.598-8.036 8.036-8.036C81.49.006 85.088 3.604 85.088 8.042z" id="path-8" class="cls-6" fill-rule="evenodd"/><path d="M117.959 72.177C117.959 69.767 122.321 64.321 122.321 64.321S126.682 69.767 126.682 72.177c0 2.40899999999999-1.952 4.362-4.361 4.362-2.40899999999999.0-4.362-1.953-4.362-4.362z" id="path-9" class="cls-6" fill-rule="evenodd"/><path d="M130.527 80.556C130.527 78.146 134.888 72.699 134.888 72.699s4.362 5.447 4.362 7.857C139.25 82.964 137.297 84.918 134.888 84.918S130.527 82.964 130.527 80.556z" id="path-10" class="cls-6" fill-rule="evenodd"/><path d="M105.391 59.608C105.391 57.199 109.753 51.752 109.753 51.752S114.114 57.199 114.114 59.608C114.114 62.017 112.161 63.97 109.753 63.97c-2.41.0-4.362-1.953-4.362-4.362z" id="path-11" class="cls-6" fill-rule="evenodd"/><path d="M36.726 203.318s20.322-18.817 20.322-18.817C60.634 185.336 64.353 185.821 68.193 185.821H74.513S53.389 206.08 53.389 206.08C52.486 206.864 52.004 207.784 52.004 208.725v3.358C52.004 214.736 48.26 216.885 43.642 216.885c-4.619.0-8.363-2.149-8.363-4.80199999999999v-6.066C35.279 205.055 35.784 204.114 36.726 203.318z" id="path-12" class="cls-3" fill-rule="evenodd"/><path d="M57.048 184.501s-13.655 12.643-13.655 12.643 19.312.0 19.312.0 11.808-11.323 11.808-11.323S68.193 185.821 68.193 185.821C64.353 185.821 60.634 185.335 57.048 184.501z" id="path-13" class="cls-15" fill-rule="evenodd"/><path d="M175.915 203.318s-20.321-18.817-20.321-18.817C152.008 185.336 148.288 185.821 144.448 185.821H138.128s21.124 20.259 21.124 20.259C160.155 206.864 160.636 207.784 160.636 208.725v3.358C160.636 214.736 164.381 216.885 168.999 216.885c4.619.0 8.363-2.149 8.363-4.80199999999999v-6.066C177.362 205.055 176.857 204.114 175.915 203.318z" id="path-14" class="cls-3" fill-rule="evenodd"/><path d="M155.594 184.501C152.008 185.335 148.288 185.821 144.448 185.821H138.128s11.808 11.323 11.808 11.323 19.312.0 19.312.0-13.654-12.643-13.654-12.643z" id="path-15" class="cls-15" fill-rule="evenodd"/><path d="M175.166 190.01s-139.352.0-139.352.0C25.67 190.01 17.445 181.786 17.445 171.641V102.742s176.09.0 176.09.0.0 68.899.0 68.899C193.535 181.786 185.311 190.01 175.166 190.01z" id="path-16" class="cls-18" fill-rule="evenodd"/><path d="M180.968 102.742s0 12.907.0 12.907c0 36.441-29.542 65.983-65.982 65.983H70.858c-10.845.0-21.051-2.666-30.078-7.303C52.286 184.093 67.156 190.01 83.427 190.01h44.126c36.441.0 65.982-29.542 65.982-65.983V102.742s-12.567.0-12.567.0z" id="path-17" class="cls-19" fill-rule="evenodd"/><path d="M17.445 110.333s176.09 7.914 176.09 7.914.0-16.508.0-16.508-176.09.0-176.09.0S17.445 110.333 17.445 110.333z" id="path-18" class="cls-15" fill-rule="evenodd"/><path d="M201.058 105.928s-191.136.0-191.136.0C8.913 105.928 8.095 105.109 8.095 104.1V92.232c0-1.009.818-1.828 1.827-1.828H201.058C202.067 90.404 202.885 91.223 202.885 92.232V104.1c0 1.009-.817999999999984 1.828-1.827 1.828z" id="path-19" class="cls-21" fill-rule="evenodd"/></g></svg>