<svg xmlns="http://www.w3.org/2000/svg" xmlns:xlink="http://www.w3.org/1999/xlink" preserveAspectRatio="xMidYMid" width="216" height="103" viewBox="0 0 216 103"><defs><style>.cls-3{fill:#142a3b}.cls-4{fill:#ff3a2f}.cls-5{fill:#000;opacity:.35}</style></defs><g id="group-54svg"><path d="M201.712 28.112s-13.834.0-13.834.0.0 46.854.0 46.854 13.834.0 13.834.0C209.36 74.966 215.548 72.87 215.548 70.282V32.797c0-2.59-6.18799999999999-4.685-13.836-4.685z" id="path-1" class="cls-3" fill-rule="evenodd"/><path d="M196.805 74.966s0-46.854.0-46.854.0-8.493.0-8.493c0-10.818-8.803-19.62-19.621-19.62H19.629C8.812-.001.008 8.801.008 19.619V83.458c0 10.818 8.804 19.621 19.621 19.621H177.184c10.818.0 19.621-8.803 19.621-19.621V74.966z" id="path-2" class="cls-4" fill-rule="evenodd"/><path d="M180.689.353C182.685 3.424 183.872 7.07 183.872 10.998v8.493s0 46.854.0 46.854.0 8.492.0 8.492C183.872 85.654 175.069 94.458 164.252 94.458H6.697C5.497 94.458 4.334 94.311 3.192 94.104 6.694 99.492 12.74 103.079 19.63 103.079H177.184C188.002 103.079 196.805 94.275 196.805 83.458V74.966s0-46.853.0-46.853.0-8.493.0-8.493c0-9.618-6.971-17.604-16.116-19.267z" id="path-3" class="cls-5" fill-rule="evenodd"/><path d="M56.236 79.652C56.236 82.243 54.14 84.337 51.55 84.337H32.807C30.218 84.337 28.121 82.243 28.121 79.652V23.427c0-2.591 2.097-4.687 4.686-4.687H51.55c2.59.0 4.686 2.096 4.686 4.687V79.652z" id="path-4" class="cls-3" fill-rule="evenodd"/><path d="M93.72 79.652C93.72 82.243 91.625 84.337 89.035 84.337H70.292C67.703 84.337 65.607 82.243 65.607 79.652V23.427c0-2.591 2.096-4.687 4.685-4.687H89.035c2.59.0 4.685 2.096 4.685 4.687V79.652z" id="path-5" class="cls-3" fill-rule="evenodd"/></g></svg>