<svg xmlns="http://www.w3.org/2000/svg" xmlns:xlink="http://www.w3.org/1999/xlink" preserveAspectRatio="xMidYMid" width="217" height="172" viewBox="0 0 217 172"><defs><style>.cls-3{fill:#ff3a2f}.cls-4{fill:#142a3b}.cls-5{fill:#020403;opacity:.35}.cls-7{fill:#fff}</style></defs><g id="group-82svg"><path d="M212.191 72.253C207.007 68.338 199.629 69.36 195.707 74.543l-45.103 59.643s-129.044.0-129.044.0C15.059 134.186 9.794 139.458 9.794 145.951c0 6.494 5.265 11.774 11.766 11.774h14.9s0 13.323.0 13.323 14.117.0 14.117.0.0-13.323.0-13.323 89.419.0 89.419.0.0 13.323.0 13.323 14.118.0 14.118.0.0-13.323.0-13.323 8.208.0 8.208.0 52.153-69.001 52.153-69.001C218.403 83.539 217.375 76.169 212.191 72.253z" id="path-1" class="cls-3" fill-rule="evenodd"/><path d="M185.1 74.986S92.547.005 92.547.005-.012 74.986-.012 74.986s78.785.0 78.785.0.0 59.936.0 59.936 27.55.0 27.55.0.0-59.936.0-59.936 78.777.0 78.777.0z" id="path-2" class="cls-4" fill-rule="evenodd"/><path d="M92.547.005S77.325 12.337 77.325 12.337s77.332 62.649 77.332 62.649 30.443.0 30.443.0S92.547.005 92.547.005z" id="path-3" class="cls-5" fill-rule="evenodd"/><path d="M106.323 95.186S78.773 85.816 78.773 85.816s0-10.83.0-10.83 27.55.0 27.55.0.0 20.2.0 20.2z" id="path-4" class="cls-5" fill-rule="evenodd"/><path d="M34.252 63.62C33.176 63.62 32.109 63.142 31.396 62.225 30.172 60.649 30.456 58.379 32.032 57.152L69.144 28.294C70.719 27.07 72.989 27.351 74.217 28.929 75.442 30.506 75.157 32.776 73.582 34.002L36.469 62.859C35.809 63.373 35.029 63.62 34.252 63.62z" id="path-5" class="cls-7" fill-rule="evenodd"/></g></svg>