<svg xmlns="http://www.w3.org/2000/svg" preserveAspectRatio="xMidYMid" width="206" height="218">
  <defs>
    <style>
      .cls-6{fill:#fbb713}
    </style>
  </defs>
  <g id="group-35svg">
    <path d="m121.014 197.104 9.549 2.555 22.402-83.612-9.549-2.556-22.402 83.613Z" id="path-1" fill-rule="evenodd" style="fill:#142a3b"/>
    <path d="M162.129 58.443c30.891 8.267 49.226 39.996 40.955 70.867L91.221 99.374c8.271-30.872 40.019-49.198 70.908-40.931Z" id="path-2" fill-rule="evenodd" style="fill:#ff3a2f"/>
    <path d="M108.28 98.791a3.615 3.615 0 0 1-3.493-4.551c5.635-21.035 27.347-33.561 48.384-27.93a3.614 3.614 0 0 1-1.868 6.982c-17.211-4.603-34.929 5.636-39.534 22.82a3.615 3.615 0 0 1-3.489 2.679Z" id="path-3" fill-rule="evenodd" style="fill:#fff"/>
    <path d="M15.873 203.187c17.841-7.497 40.841-12.011 65.944-12.011 37.997 0 71.174 10.343 88.935 25.716L15.873 203.187Z" id="path-4" class="cls-6" fill-rule="evenodd"/>
    <path d="M38.648 23.594a3.614 3.614 0 0 1-3.614-3.615V3.626a3.615 3.615 0 0 1 7.229 0v16.353a3.615 3.615 0 0 1-3.615 3.615Z" id="path-5" class="cls-6" fill-rule="evenodd"/>
    <path d="M38.648 77.294a3.614 3.614 0 0 1-3.614-3.614V57.327a3.615 3.615 0 1 1 7.229 0V73.68a3.615 3.615 0 0 1-3.615 3.614Z" id="path-6" class="cls-6" fill-rule="evenodd"/>
    <path d="M73.696 42.268H57.333a3.615 3.615 0 0 1 0-7.23h16.363a3.616 3.616 0 0 1 0 7.23Z" id="path-7" class="cls-6" fill-rule="evenodd"/>
    <path d="M19.965 42.268H3.602a3.615 3.615 0 0 1 0-7.23h16.363a3.615 3.615 0 0 1 0 7.23Z" id="path-8" class="cls-6" fill-rule="evenodd"/>
    <path d="M63.431 67.035c-.924 0-1.85-.352-2.555-1.057L49.305 54.414a3.616 3.616 0 0 1 5.112-5.113l11.57 11.562a3.616 3.616 0 0 1-2.556 6.172Z" id="path-9" class="cls-6" fill-rule="evenodd"/>
    <path d="M25.438 29.063c-.925 0-1.85-.352-2.555-1.057L11.311 16.442a3.615 3.615 0 1 1 5.112-5.113l11.57 11.562a3.615 3.615 0 0 1-2.555 6.172Z" id="path-10" class="cls-6" fill-rule="evenodd"/>
    <path d="M51.861 29.063a3.612 3.612 0 0 1-2.558-1.059 3.617 3.617 0 0 1 .002-5.113l11.571-11.562a3.615 3.615 0 0 1 5.111 5.113l-11.57 11.564a3.609 3.609 0 0 1-2.556 1.057Z" id="path-11" class="cls-6" fill-rule="evenodd"/>
    <path d="M13.867 67.035a3.616 3.616 0 0 1-2.556-6.172l11.572-11.562a3.614 3.614 0 1 1 5.11 5.113l-11.57 11.564a3.607 3.607 0 0 1-2.556 1.057Z" id="path-12" class="cls-6" fill-rule="evenodd"/>
    <path d="M56.869 39.684c0 10.056-8.157 18.209-18.22 18.209-10.063 0-18.22-8.153-18.22-18.209s8.157-18.209 18.22-18.209c10.063 0 18.22 8.153 18.22 18.209Z" id="path-13" class="cls-6" fill-rule="evenodd"/>
    <path d="M162.129 58.443c-5.476-1.467-10.975-2.056-16.371-1.929 27.099 9.995 42.813 38.703 36.274 67.163l21.052 5.633c8.272-30.871-10.064-62.6-40.955-70.867Z" id="path-14" fill-rule="evenodd" style="fill:#020403;opacity:.35"/>
  </g>
</svg>
