<svg xmlns="http://www.w3.org/2000/svg" xmlns:xlink="http://www.w3.org/1999/xlink" preserveAspectRatio="xMidYMid" width="217" height="217" viewBox="0 0 217 217"><defs><style>.cls-3{fill:#fbb713}.cls-4{fill:#ff3a2f}.cls-5{fill:#142a3b}.cls-6{fill:#0cb04a}.cls-7{fill:#fff}.cls-8{fill:#010101;opacity:.25}</style></defs><g id="group-139svg"><path d="M.033 108.455C.033 168.34 48.58 216.89 108.471 216.89c59.888.0 108.437-48.55 108.437-108.435C216.908 48.557 168.359.012 108.471.012 48.58.012.033 48.557.033 108.455z" id="path-1" class="cls-3" fill-rule="evenodd"/><path d="M104.691 47.005S206.214 88.419 213.1 137.046c0 0-14.031 65.215-87.159 78.446.0.0-33.259-52.572-38.586-154.894.0.0 4.283-14.799 17.336-13.593z" id="path-2" class="cls-4" fill-rule="evenodd"/><path d="M67.38 56.866S3.993 98.965 12.173 158.347c0 0-19.22-27.518-9.321-77.432.0.0 8.479-47.919 55.499-42.171.0.0 14.175 3.547 9.029 18.122z" id="path-3" class="cls-5" fill-rule="evenodd"/><path d="M83.746 23.678S84.181-5.257 127.207 1.198c0 0 25.39 4.41 49.488 22.48.0.0-61.102-12.909-75.303 8.824.0.0-17.211 7.528-17.646-8.824z" id="path-4" class="cls-6" fill-rule="evenodd"/><path d="M61.872 53.742C67.605 63.049 81.275 65.034 92.404 58.176 103.539 51.316 107.912 38.215 102.171 28.905 96.442 19.598 82.772 17.612 71.642 24.469c-11.13 6.861-15.508 19.966-9.77 29.273z" id="path-5" class="cls-7" fill-rule="evenodd"/><path d="M156.879 11.419c20.006 19.673 32.427 47.039 32.427 77.319.0 59.887-48.549 108.437-108.437 108.437C63.467 197.175 47.037 193.052 32.462 185.768c19.57 19.24 46.396 31.122 76.009 31.122 59.888.0 108.437-48.55 108.437-108.435.0-42.493-24.447-79.25-60.029-97.036z" id="path-6" class="cls-8" fill-rule="evenodd"/></g></svg>