<svg xmlns="http://www.w3.org/2000/svg" xmlns:xlink="http://www.w3.org/1999/xlink" preserveAspectRatio="xMidYMid" width="216" height="220" viewBox="0 0 216 220"><defs><style>.cls-3{fill:#fbb713}.cls-4{fill:#142a3b}.cls-6{fill:#000;opacity:.35}.cls-11{fill:#ededed;opacity:.7}</style></defs><g id="group-84svg"><path d="M122.527 188.331C86.099 224.783 8.975 206.711 8.975 206.711S-9.086 129.538 27.343 93.085c36.428-36.451 87.268-44.681 113.553-18.38 26.284 26.303 18.061 77.174-18.369 113.626z" id="path-1" class="cls-3" fill-rule="evenodd"/><path d="M41.358 80.94s93.308 93.366 93.308 93.366C140.916 165.928 145.844 157.117 149.414 148.244L67.404 66.183C58.537 69.755 49.731 74.685 41.358 80.94z" id="path-2" class="cls-4" fill-rule="evenodd"/><path d="M5.336 146.944s63.367 63.407 63.367 63.407C79.813 209.224 91.146 206.802 101.467 202.316L13.366 114.159c-4.483 10.328-6.903 21.668-8.03 32.785z" id="path-3" class="cls-4" fill-rule="evenodd"/><path d="M140.896 74.705C137.04 70.848 132.607 67.822 127.818 65.43c24.54 26.695 16.039 76.301-19.713 112.077-27.254 27.271-77.277 24.024-100.75 20.659C8.232 203.51 8.975 206.711 8.975 206.711s77.124 18.071 113.553-18.38c36.429-36.452 44.652-87.323 18.368-113.626z" id="path-4" class="cls-6" fill-rule="evenodd"/><path d="M127.566 47.979c13.071-13.08 43.687-3.65 43.687-3.65S180.677 74.964 167.606 88.043C154.535 101.123 134.975 102.757 123.919 91.693 112.862 80.63 114.495 61.058 127.566 47.979z" id="path-5" class="cls-4" fill-rule="evenodd"/><path d="M171.253 44.329S168.983 43.642 165.474 42.896C167.49 52.405 169.94 71.276 160.394 80.828c-11.613 11.621-28.335 14.181-39.678 6.854C121.635 89.106 122.686 90.46 123.919 91.693 134.975 102.757 154.535 101.123 167.606 88.043 180.677 74.964 171.253 44.329 171.253 44.329z" id="path-6" class="cls-6" fill-rule="evenodd"/><path d="M207.463 71.643C206.543 71.643 205.624 71.291 204.923 70.592 203.519 69.188 203.519 66.913 204.921 65.51 209.497 60.933 209.497 53.483 204.921 48.905 200.49 44.469 192.763 44.473 188.333 48.905L172.679 64.568C171.276 65.972 169.001 65.971 167.598 64.571 166.194 63.167 166.194 60.892 167.596 59.489l15.653-15.664C186.822 40.251 191.574 38.282 196.628 38.282 201.679 38.282 206.431 40.251 210.004 43.825c7.374 7.379 7.374 19.385.0 26.765C209.302 71.291 208.381 71.643 207.463 71.643z" id="path-7" class="cls-4" fill-rule="evenodd"/><path d="M153.565 49.039C152.646 49.039 151.727 48.688 151.025 47.988 149.622 46.584 149.622 44.311 151.023 42.907l15.654-15.666C171.253 22.664 171.253 15.214 166.677 10.637 162.246 6.2 154.519 6.204 150.089 10.637 148.685 12.04 146.41 12.038 145.007 10.639 143.603 9.235 143.603 6.96 145.006 5.557 148.578 1.982 153.33.012 158.384.012 163.435.012 168.187 1.982 171.76 5.557c7.374 7.379 7.374 19.385.0 26.764L156.107 47.986C155.406 48.688 154.484 49.039 153.565 49.039z" id="path-8" class="cls-4" fill-rule="evenodd"/><path d="M35.015 140.342c-19.336.0-35.011-15.686-35.011-35.034.0-19.349 15.675-35.035 35.011-35.035 19.337.0 77.333 35.035 77.333 35.035s-57.996 35.034-77.333 35.034z" id="path-9" class="cls-11" fill-rule="evenodd"/><path d="M78.907 184.261c0 19.349 15.675 35.034 35.012 35.034s35.012-15.685 35.012-35.034c0-19.349-35.012-77.382-35.012-77.382s-35.012 58.033-35.012 77.382z" id="path-10" class="cls-11" fill-rule="evenodd"/></g></svg>