<svg xmlns="http://www.w3.org/2000/svg" xmlns:xlink="http://www.w3.org/1999/xlink" preserveAspectRatio="xMidYMid" width="216" height="174" viewBox="0 0 216 174"><defs><style>.cls-3{fill:#0cb04a}.cls-6{fill:#fbb713}.cls-9{fill:#ff3a2f}.cls-10{fill:#ededed}.cls-11{fill:#000;opacity:.35}.cls-12{fill:#142a3b}</style></defs><g id="group-95svg"><path d="M107.797 83.373s-5.788.0-5.788.0.0-57.732.0-57.732 5.788.0 5.788.0.0 57.732.0 57.732z" id="path-1" class="cls-3" fill-rule="evenodd"/><path d="M64.497 83.373s-5.789.0-5.789.0.0-57.732.0-57.732 5.789.0 5.789.0.0 57.732.0 57.732z" id="path-2" class="cls-3" fill-rule="evenodd"/><path d="M151.097 83.373S145.309 83.373 145.309 83.373s0-57.732.0-57.732S151.097 25.641 151.097 25.641s0 57.732.0 57.732z" id="path-3" class="cls-3" fill-rule="evenodd"/><path d="M72.934 21.187C72.934 27.444 67.861 32.518 61.603 32.518c-6.259.0-11.332-5.074-11.332-11.331C50.271 14.928 61.603.001 61.603.001S72.934 14.928 72.934 21.187z" id="path-4" class="cls-6" fill-rule="evenodd"/><path d="M159.535 21.187C159.535 27.444 154.462 32.518 148.203 32.518 141.945 32.518 136.872 27.444 136.872 21.187c0-6.259 11.331-21.186 11.331-21.186s11.332 14.927 11.332 21.186z" id="path-5" class="cls-6" fill-rule="evenodd"/><path d="M116.234 21.187C116.234 27.444 111.161 32.518 104.903 32.518 98.645 32.518 93.571 27.444 93.571 21.187c0-6.259 11.332-21.186 11.332-21.186s11.331 14.927 11.331 21.186z" id="path-6" class="cls-6" fill-rule="evenodd"/><path d="M196.285 166.122s0-43.968.0-43.968c0-25.67-15.94-46.478-35.603-46.478H54.837c-19.663.0-35.603 20.808-35.603 46.478v43.968s177.051.0 177.051.0z" id="path-7" class="cls-9" fill-rule="evenodd"/><path d="M31.135 125.429c-1.983.0-3.592-1.608-3.592-3.592.0-21.146 13.555-38.349 30.217-38.349C59.744 83.488 61.353 85.097 61.353 87.08s-1.609 3.592-3.593 3.592c-12.699.0-23.032 13.981-23.032 31.165.0 1.98399999999999-1.609 3.592-3.593 3.592z" id="path-8" class="cls-10" fill-rule="evenodd"/><path d="M160.683 75.676s-17.32.0-17.32.0c19.662.0 35.602 20.808 35.602 46.478v19.747S19.234 152.65 19.234 152.65s177.051 13.472 177.051 13.472.0-43.968.0-43.968c0-25.67-15.94-46.478-35.602-46.478z" id="path-9" class="cls-11" fill-rule="evenodd"/><path d="M215.529 173.82s-215.539.0-215.539.0.0-21.17.0-21.17 215.539.0 215.539.0.0 21.17.0 21.17z" id="path-10" class="cls-12" fill-rule="evenodd"/><path d="M198.209 152.65s0 21.17.0 21.17 17.32.0 17.32.0.0-21.17.0-21.17-17.32.0-17.32.0z" id="path-11" class="cls-11" fill-rule="evenodd"/></g></svg>