<svg xmlns="http://www.w3.org/2000/svg" xmlns:xlink="http://www.w3.org/1999/xlink" preserveAspectRatio="xMidYMid" width="179" height="218" viewBox="0 0 179 218"><defs><style>.cls-3{fill:#fbb713}.cls-4{fill:#020403;opacity:.25}.cls-5{fill:#142a3b}.cls-6{fill:#ff3a2f}.cls-7{fill:#020403;opacity:.35}</style></defs><g id="group-138svg"><path d="M86.008 169.369s58.707-16.595 58.707-16.595S112.944 17.418 112.944 17.418 83.186 17.891 83.186 17.891 66.595 86.659 86.008 169.369z" id="path-1" class="cls-3" fill-rule="evenodd"/><path d="M96.527 132.171C88.438 80.622 93.268 37.445 96.5 17.74L87.064 17.891S70.473 86.659 89.886 169.369l54.829-16.595S142.879 144.948 142.879 144.948 125.512 150.319 125.512 150.319C112.345 154.39 98.664 145.787 96.527 132.171z" id="path-2" class="cls-4" fill-rule="evenodd"/><path d="M113.614 146.029C88.316 146.029 69.792 136.437 68.638 135.824 66.874 134.891 66.203 132.705 67.137 130.941 68.069 129.179 70.259 128.505 72.019 129.437 72.416 129.643 112.176 150.111 153.384 129.401 155.166 128.505 157.343 129.227 158.238 131.007 159.135 132.791 158.414 134.963 156.631 135.861 141.462 143.485 126.638 146.029 113.614 146.029z" id="path-3" class="cls-5" fill-rule="evenodd"/><path d="M-.012 157.506s5.339 34.461 111.799 42.121h66.254s0 17.232.0 17.232-66.254.0-66.254.0C5.327 209.201-.012 174.738-.012 174.738s0-17.232.0-17.232z" id="path-4" class="cls-6" fill-rule="evenodd"/><path d="M174.163 199.627S174.163 205.226 174.163 205.226s-66.254.0-66.254.0C32.856 199.826 8.085 181.116-.012 170.541v4.197s5.339 34.463 111.799 42.121h66.254s0-17.232.0-17.232S174.163 199.627 174.163 199.627z" id="path-5" class="cls-7" fill-rule="evenodd"/><path d="M89.01 190.796C87.309 190.796 85.793 189.587 85.463 187.856 84.382 182.169 59.294 48.033 85.881 1.792 86.875.063 89.084-.535 90.815.46c1.73.995 2.328 3.205 1.331 4.936C66.881 49.339 92.305 185.14 92.564 186.507 92.937 188.466 91.65 190.36 89.687 190.731 89.46 190.776 89.232 190.796 89.01 190.796z" id="path-6" class="cls-5" fill-rule="evenodd"/></g></svg>