<svg xmlns="http://www.w3.org/2000/svg" xmlns:xlink="http://www.w3.org/1999/xlink" preserveAspectRatio="xMidYMid" width="155" height="217" viewBox="0 0 155 217"><defs><style>.cls-3{fill:#142a3b}.cls-4{fill:#ff3a2f}.cls-5{fill:#020403;opacity:.35}.cls-8{fill:#fff}</style></defs><g id="group-94svg"><path d="M72.577 54.908c-1.996.0-3.5-1.619-3.5-3.615V19.84c0-11.317 8.976-19.851 20.854-19.851C91.927-.011 93.555 1.607 93.555 3.603 93.555 5.6 91.808 7.218 89.812 7.218 82.055 7.218 76.077 12.644 76.077 19.84V51.293c0 1.996-1.504 3.615-3.5 3.615z" id="path-1" class="cls-3" fill-rule="evenodd"/><path d="M77.502 63.579C81.07 63.579 84.553 63.904 87.993 64.37V44.205s-29.091.0-29.091.0.0 20.78.0 20.78 4.088.0 4.088.0C67.696 64.092 72.537 63.579 77.502 63.579z" id="path-2" class="cls-4" fill-rule="evenodd"/><path d="M83.837 44.205s0 11.854.0 11.854C80.397 55.593 76.914 55.267 73.347 55.267 68.405 55.267 63.588 55.778 58.902 56.662v8.323s4.088.0 4.088.0C67.696 64.092 72.537 63.579 77.502 63.579 81.07 63.579 84.553 63.904 87.993 64.37V44.205S83.837 44.205 83.837 44.205z" id="path-3" class="cls-5" fill-rule="evenodd"/><path d="M154.993 139.136c0 42.783-34.675 77.492-77.491 77.492-42.798.0-77.49-34.709-77.49-77.492.0-42.8 34.692-77.493 77.49-77.493 42.816.0 77.491 34.693 77.491 77.493z" id="path-4" class="cls-3" fill-rule="evenodd"/><path d="M95.589 63.457c23.077 13.42 38.625 38.352 38.625 66.972.0 42.783-34.675 77.493-77.491 77.493C50.491 207.922 44.461 207.106 38.654 205.715c11.431 6.649 24.674 10.518 38.848 10.518 42.816.0 77.491-34.709 77.491-77.491.0-36.562-25.336-67.131-59.404-75.285z" id="path-5" class="cls-5" fill-rule="evenodd"/><path d="M21.985 134.438C19.989 134.438 18.37 132.82 18.37 130.823c0-25.731 20.934-46.666 46.665-46.666C67.031 84.157 68.65 85.777 68.65 87.773 68.65 89.769 67.031 91.387 65.035 91.387c-21.746.0-39.436 17.692-39.436 39.436C25.599 132.82 23.981 134.438 21.985 134.438z" id="path-6" class="cls-8" fill-rule="evenodd"/></g></svg>