<svg xmlns="http://www.w3.org/2000/svg" xmlns:xlink="http://www.w3.org/1999/xlink" preserveAspectRatio="xMidYMid" width="216" height="216" viewBox="0 0 216 216"><defs><style>.cls-3{fill:#fbb713}.cls-4{fill:#000;opacity:.25}</style></defs><g id="group-82svg"><path d="M191.809 47.386S53.743 185.448 53.743 185.448 30.074 161.78 30.074 161.78 168.141 23.718 168.141 23.718s23.668 23.668 23.668 23.668z" id="path-1" class="cls-3" fill-rule="evenodd"/><path d="M168.141 23.718S162.437 29.422 162.437 29.422s17.965 17.963 17.965 17.963S48.039 179.744 48.039 179.744 53.743 185.448 53.743 185.448 191.809 47.385 191.809 47.385s-23.668-23.667-23.668-23.667z" id="path-2" class="cls-4" fill-rule="evenodd"/><path d="M64.123 174.419C59.503 169.8 53.451 167.486 47.397 167.477 47.387 161.423 45.074 155.371 40.454 150.751 31.195 141.492 16.183 141.492 6.923 150.751-2.335 160.01-2.335 175.022 6.923 184.281 11.544 188.9 17.595 191.213 23.649 191.223 23.66 197.277 25.973 203.329 30.592 207.948 39.852 217.207 54.864 217.207 64.123 207.948c9.259-9.25900000000002 9.259-24.27.0-33.529z" id="path-3" class="cls-3" fill-rule="evenodd"/><path d="M64.123 196.54C54.864 205.798 39.852 205.798 30.592 196.54c-4.619-4.619-6.932-10.671-6.943-16.725C17.595 179.806 11.544 177.492 6.923 172.873 3.758 169.707 1.701 165.863.701 161.812-1.226 169.608.83 178.188 6.923 184.281 11.544 188.9 17.595 191.213 23.649 191.223 23.66 197.277 25.973 203.329 30.592 207.948 39.852 217.207 54.864 217.207 64.123 207.948 70.216 201.855 72.273 193.276 70.346 185.479 69.345 189.531 67.289 193.375 64.123 196.54z" id="path-4" class="cls-4" fill-rule="evenodd"/><path d="M208.575 30.62C203.955 26.001 197.904 23.689 191.849 23.679 191.839 17.624 189.526 11.572 184.906 6.953 175.647-2.306 160.636-2.306 151.376 6.953 142.117 16.212 142.117 31.224 151.376 40.482c4.62 4.62 10.671 6.932 16.726 6.942C168.112 53.479 170.425 59.531 175.044 64.15 184.304 73.409 199.315 73.409 208.575 64.15 217.834 54.891 217.834 39.879 208.575 30.62z" id="path-5" class="cls-3" fill-rule="evenodd"/><path d="M208.575 56.545C199.315 65.804 184.304 65.804 175.044 56.545 170.425 51.926 168.112 45.874 168.102 39.82 162.047 39.81 155.996 37.497 151.376 32.877 147.717 29.22 145.528 24.66 144.761 19.915 143.586 27.179 145.775 34.882 151.376 40.482c4.62 4.62 10.671 6.932 16.726 6.942C168.112 53.479 170.425 59.531 175.044 64.15 184.304 73.409 199.315 73.409 208.575 64.15 214.176 58.549 216.365 50.846 215.19 43.583 214.422 48.327 212.234 52.887 208.575 56.545z" id="path-6" class="cls-4" fill-rule="evenodd"/></g></svg>