<svg xmlns="http://www.w3.org/2000/svg" xmlns:xlink="http://www.w3.org/1999/xlink" preserveAspectRatio="xMidYMid" width="216" height="169" viewBox="0 0 216 169"><defs><style>.cls-3{fill:#2476ff}.cls-4{fill:#ededed}.cls-5{fill:#ff3a2f}.cls-6{fill:#000;opacity:.35}.cls-7{fill:#142a3b}</style></defs><g id="group-59svg"><path d="M48.672 73.552S48.672 73.445 48.672 73.445s70.481.0 70.481.0.0-59.974.0-59.974 86.051.0 86.051.0.0 130.792.0 130.792-19.998.0-19.998.0-66.053.0-66.053.0-31.151.0-31.151.0-39.33.0-39.33.0-35.227.0-35.227.0c-4.526-7.184-7.181-15.739-7.181-24.947.0-24.62 18.813-44.65 42.408-45.764z" id="path-1" class="cls-3" fill-rule="evenodd"/><path d="M16.775 120.096c-1.984.0-3.592-1.608-3.592-3.592.0-19.812 14.941-36.074 34.117-37.274C49.414 78.809 51.611 80.481 51.611 82.709v3.428S48.189 86.377 48.189 86.377C32.588 87.114 20.368 100.346 20.368 116.504c0 1.98399999999999-1.608 3.592-3.593 3.592z" id="path-2" class="cls-4" fill-rule="evenodd"/><path d="M158.232 144.263C158.542 120.158 178.155 100.707 202.336 100.707 203.304 100.707 204.251 100.79 205.204 100.851v43.412s-19.998.0-19.998.0-26.974.0-26.974.0z" id="path-3" class="cls-5" fill-rule="evenodd"/><path d="M32.996 124.67s39.33.0 39.33.0 31.151.0 31.151.0 73.89.0 73.89.0.0.0.0.0c11.045.0 12.161-1.116 12.161-12.16V35.936s-70.375-12.14-70.375-12.14 86.051.0 86.051.0.0 120.467.0 120.467-19.998.0-19.998.0-66.053.0-66.053.0-31.151.0-31.151.0-39.33.0-39.33.0-35.227.0-35.227.0c-3.634-5.767-6.032-12.429-6.849-19.593h26.4z" id="path-4" class="cls-6" fill-rule="evenodd"/><path d="M215.529 138.528s0 29.829.0 29.829-24.094.0-24.094.0.0-8.03.0-8.03-11.473.0-11.473.0.0 8.03.0 8.03-20.652.0-20.652.0.0-8.03.0-8.03-11.473.0-11.473.0.0 8.03.0 8.03-20.653.0-20.653.0.0-8.03.0-8.03-11.473.0-11.473.0.0 8.03.0 8.03-20.652.0-20.652.0.0-8.03.0-8.03-11.473.0-11.473.0.0 8.03.0 8.03-20.653.0-20.653.0.0-8.03.0-8.03-11.473.0-11.473.0.0 8.03.0 8.03-20.652.0-20.652.0.0-8.03.0-8.03-11.474.0-11.474.0.0 8.03.0 8.03-19.344.0-19.344.0.0-29.829.0-29.829 215.539.0 215.539.0z" id="path-5" class="cls-7" fill-rule="evenodd"/><path d="M199.274 168.357s-7.839.0-7.839.0.0-8.03.0-8.03 7.839.0 7.839.0.0 8.03.0 8.03z" id="path-6" class="cls-6" fill-rule="evenodd"/><path d="M135.022 168.357S127.184 168.357 127.184 168.357s0-8.03.0-8.03S135.022 160.327 135.022 160.327s0 8.03.0 8.03z" id="path-7" class="cls-6" fill-rule="evenodd"/><path d="M102.897 168.357S95.059 168.357 95.059 168.357s0-8.03.0-8.03S102.897 160.327 102.897 160.327s0 8.03.0 8.03z" id="path-8" class="cls-6" fill-rule="evenodd"/><path d="M167.148 168.357S159.31 168.357 159.31 168.357s0-8.03.0-8.03S167.148 160.327 167.148 160.327s0 8.03.0 8.03z" id="path-9" class="cls-6" fill-rule="evenodd"/><path d="M70.771 168.357s-7.838.0-7.838.0.0-8.03.0-8.03 7.838.0 7.838.0.0 8.03.0 8.03z" id="path-10" class="cls-6" fill-rule="evenodd"/><path d="M38.646 168.357s-7.838.0-7.838.0.0-8.03.0-8.03 7.838.0 7.838.0.0 8.03.0 8.03z" id="path-11" class="cls-6" fill-rule="evenodd"/><path d="M107.76 23.796s107.769.0 107.769.0.0-23.793.0-23.793-107.769.0-107.769.0.0 23.793.0 23.793z" id="path-12" class="cls-7" fill-rule="evenodd"/><path d="M189.187 23.796s26.342.0 26.342.0.0-23.793.0-23.793-26.342.0-26.342.0.0 23.793.0 23.793z" id="path-13" class="cls-6" fill-rule="evenodd"/></g></svg>