<svg xmlns="http://www.w3.org/2000/svg" xmlns:xlink="http://www.w3.org/1999/xlink" preserveAspectRatio="xMidYMid" width="92" height="217" viewBox="0 0 92 217"><defs><style>.cls-3{fill:#142a3b}.cls-4{fill:#0cb04a}.cls-5{fill:#ff3a2f}.cls-6{fill:#020403;opacity:.35}</style></defs><g id="group-91svg"><path d="M51.291 131.871S66.041 6.06 66.041 6.06C66.39 3.076 65.148.468 63.281.268L60.852.006c-1.867-.2-3.635 2.083-3.928 5.074L44.599 131.152S51.291 131.871 51.291 131.871z" id="path-1" class="cls-3" fill-rule="evenodd"/><path d="M48.468 127.904C38.217 126.801 29.248 132.042 28.435 139.608L65.555 143.598C66.368 136.032 58.717 129.004 48.468 127.904z" id="path-2" class="cls-4" fill-rule="evenodd"/><path d="M63.719 213.906c-3.893-4.964-4.199-12.156-3.952-16.508C59.862 195.709 57.864 194.524 56.206 195.291 47.155 199.465 41.785 204.869 39.503 211.303L.005 207.058S5.29 157.882 5.29 157.882c1.214-11.289 12.486-19.42 25.049-18.07L63.65 143.393C76.214 144.743 85.5 155.085 84.287 166.373L81.3 194.168S75.876 208.292 91.32 216.874L63.719 213.906z" id="path-3" class="cls-5" fill-rule="evenodd"/><path d="M49.947 128.117C53.578 131.049 55.659 135.001 55.216 139.123l-25.809-2.774C28.928 137.379 28.559 138.454 28.435 139.608L65.555 143.598C66.328 136.4 59.44 129.705 49.947 128.117z" id="path-4" class="cls-6" fill-rule="evenodd"/><path d="M57.499 189.333C57.596 187.643 55.597 186.458 53.938 187.225 44.888 191.4 31.447 201.423 29.166 207.858L.254 204.75S.005 207.058.005 207.058s39.498 4.245 39.498 4.245c4.213-12.158 12.991-13.347 18.064-16.838C57.412 192.568 57.416 190.786 57.499 189.333z" id="path-5" class="cls-6" fill-rule="evenodd"/><path d="M81.3 194.168S84.287 166.373 84.287 166.373C85.5 155.085 76.214 144.743 63.65 143.393L63.519 143.378C70.488 147.592 74.799 155.021 73.948 162.927L70.961 190.722s-5.422 14.124 10.022 22.705l-18.819-2.023C62.61 212.277 63.107 213.125 63.719 213.906L91.32 216.874C75.876 208.292 81.3 194.168 81.3 194.168z" id="path-6" class="cls-6" fill-rule="evenodd"/><path d="M73.521 212.337C72.985 212.337 72.453 212.1 72.097 211.645 65.578 203.331 69.633 193.844 69.81 193.444 70.208 192.532 71.264 192.118 72.185 192.519 73.097 192.917 73.516 193.98 73.12 194.894 72.981 195.215 69.78 202.834 74.941 209.414 75.557 210.2 75.42 211.336 74.635 211.952 74.303 212.211 73.911 212.337 73.521 212.337z" id="path-7" class="cls-3" fill-rule="evenodd"/><path d="M28.196 209.643C28.133 209.643 28.067 209.639 28.002 209.632 27.009 209.525 26.29 208.636 26.397 207.642L27.455 197.807C27.561 196.815 28.43 196.09 29.444 196.204 30.437 196.31 31.156 197.201 31.049 198.193L29.991 208.03C29.892 208.956 29.108 209.643 28.196 209.643z" id="path-8" class="cls-3" fill-rule="evenodd"/><path d="M18.204 208.569C18.139 208.569 18.075 208.565 18.009 208.559 17.015 208.451 16.297 207.562 16.405 206.569l3.447-32.072C19.957 173.506 20.84 172.788 21.841 172.894 22.834 173 23.553 173.891 23.445 174.883l-3.447 32.072C19.899 207.882 19.115 208.569 18.204 208.569z" id="path-9" class="cls-3" fill-rule="evenodd"/><path d="M8.21 207.494C8.147 207.494 8.081 207.491 8.016 207.484 7.023 207.378 6.304 206.486 6.411 205.494l1.723-16.036C8.24 188.467 9.101 187.74 10.124 187.855 11.117 187.962 11.835 188.853 11.727 189.846L10.005 205.88C9.906 206.807 9.122 207.494 8.21 207.494z" id="path-10" class="cls-3" fill-rule="evenodd"/><path d="M82.015 162.453C81.952 162.453 81.887 162.45 81.821 162.443L9.947 154.717C8.953 154.61 8.235 153.719 8.343 152.727 8.448 151.736 9.318 151.017 10.331 151.123l71.876 7.726C83.2 158.955 83.918 159.846 83.811 160.839 83.712 161.766 82.928 162.453 82.015 162.453z" id="path-11" class="cls-3" fill-rule="evenodd"/></g></svg>