<svg xmlns="http://www.w3.org/2000/svg" xmlns:xlink="http://www.w3.org/1999/xlink" preserveAspectRatio="xMidYMid" width="215" height="150" viewBox="0 0 215 150"><defs><style>.cls-3{fill:#ededed}.cls-4{fill:#fbb713}.cls-5{fill:#000;opacity:.2}.cls-6{fill:#142a3b}</style></defs><g id="group-155svg"><path d="M195.943.011S18.66.011 18.66.011C8.395.011-.001 8.412-.001 18.673v18.66s0 65.313.0 65.313 46.654.0 46.654.0 121.298.0 121.298.0 46.654.0 46.654.0.0-83.973.0-83.973C214.605 8.412 206.208.011 195.943.011z" id="path-1" class="cls-3" fill-rule="evenodd"/><path d="M167.951 74.656s0 74.642.0 74.642-121.298.0-121.298.0.0-74.642.0-74.642 121.298.0 121.298.0z" id="path-2" class="cls-4" fill-rule="evenodd"/><path d="M46.653 74.654s0 9.331.0 9.331 107.302.0 107.302.0.0 65.313.0 65.313 13.996.0 13.996.0.0-74.644.0-74.644-121.298.0-121.298.0z" id="path-3" class="cls-5" fill-rule="evenodd"/><path d="M149.29 106.239s-83.976.0-83.976.0c-1.98399999999999.0-3.593-1.61-3.593-3.592.0-1.985 1.609-3.592 3.593-3.592H149.29C151.274 99.055 152.883 100.662 152.883 102.647 152.883 104.629 151.274 106.239 149.29 106.239z" id="path-4" class="cls-6" fill-rule="evenodd"/><path d="M209.941 50.256s-205.278.0-205.278.0c-1.983.0-3.592-1.608-3.592-3.591.0-1.984 1.609-3.594 3.592-3.594H209.941C211.924 43.071 213.533 44.681 213.533 46.665 213.533 48.648 211.924 50.256 209.941 50.256z" id="path-5" class="cls-6" fill-rule="evenodd"/><path d="M149.29 124.9s-83.976.0-83.976.0C63.33 124.9 61.721 123.291 61.721 121.307c0-1.983 1.609-3.592 3.593-3.592H149.29C151.274 117.715 152.883 119.324 152.883 121.307 152.883 123.291 151.274 124.9 149.29 124.9z" id="path-6" class="cls-6" fill-rule="evenodd"/><path d="M214.605 51.329s0-32.656.0-32.656C214.605 8.412 206.208.011 195.943.011H18.66C8.395.011-.001 8.412-.001 18.673v18.66s0 13.996.0 13.996 214.606.0 214.606.0z" id="path-7" class="cls-6" fill-rule="evenodd"/><path d="M164.813 22.824c0 4.723-3.82899999999998 8.553-8.553 8.553-4.72399999999999.0-8.553-3.83-8.553-8.553.0-4.723 3.82900000000001-8.553 8.553-8.553 4.72400000000002.0 8.553 3.83 8.553 8.553z" id="path-8" class="cls-3" fill-rule="evenodd"/><path d="M195.943.011S18.66.011 18.66.011c-4.673.0-8.907 1.801-12.19 4.666H172.617c10.264.0 18.661 8.402 18.661 18.661v79.308s23.327.0 23.327.0.0-83.973.0-83.973C214.605 8.412 206.208.011 195.943.011z" id="path-9" class="cls-5" fill-rule="evenodd"/><path d="M197.47 22.824c0 4.723-3.82900000000001 8.553-8.553 8.553-4.72300000000001.0-8.553-3.83-8.553-8.553.0-4.723 3.82999999999998-8.553 8.553-8.553 4.72399999999999.0 8.553 3.83 8.553 8.553z" id="path-10" class="cls-3" fill-rule="evenodd"/></g></svg>