<svg xmlns="http://www.w3.org/2000/svg" xmlns:xlink="http://www.w3.org/1999/xlink" preserveAspectRatio="xMidYMid" width="180" height="216" viewBox="0 0 180 216"><defs><style>.cls-3{fill:#0cb04a}.cls-4{fill:#000;opacity:.35}.cls-5{fill:#fbb713}.cls-6{fill:#010101;opacity:.25}.cls-7{fill:#142a3b}</style></defs><g id="group-92svg"><path d="M156.32 215.521s-67.505-86.45-67.505-86.45S-.006 59.201-.006 59.201 18.943 40.254 18.943 40.254 180.006 201.311 180.006 201.311s-23.686 14.21-23.686 14.21z" id="path-1" class="cls-3" fill-rule="evenodd"/><path d="M174.084 195.388s-17.764 10.66-17.764 10.66-67.505-86.451-67.505-86.451S5.297 53.899 5.297 53.899-.005 59.2-.005 59.2s88.82 69.871 88.82 69.871 67.505 86.45 67.505 86.45 23.686-14.21 23.686-14.21-5.922-5.923-5.922-5.923z" id="path-2" class="cls-4" fill-rule="evenodd"/><path d="M95.921 117.229S26.049 47.358 26.049 47.358 40.26-.011 40.26-.011 140.924 100.65 140.924 100.65s-45.003 16.579-45.003 16.579z" id="path-3" class="cls-5" fill-rule="evenodd"/><path d="M125.802 85.527s-23.195 8.545-23.195 8.545C95.644 96.638 87.824 94.921 82.576 89.674L27.386 42.901S26.049 47.358 26.049 47.358s69.873 69.871 69.873 69.871 45.002-16.579 45.002-16.579-15.122-15.123-15.122-15.123z" id="path-4" class="cls-6" fill-rule="evenodd"/><path d="M87.763 97.96C86.358 97.96 85.025 97.131 84.449 95.756 83.682 93.926 84.543 91.822 86.373 91.053L115.72 78.75C117.555 77.984 119.656 78.844 120.422 80.673 121.189 82.503 120.328 84.608 118.498 85.377L89.151 97.68C88.696 97.87 88.226 97.96 87.763 97.96z" id="path-5" class="cls-7" fill-rule="evenodd"/><path d="M48.909 59.113C48.446 59.113 47.976 59.022 47.522 58.833 45.692 58.065 44.831 55.959 45.597 54.13L57.902 24.783C58.669 22.956 60.768 22.093 62.605 22.858 64.434 23.627 65.296 25.732 64.529 27.562L52.224 56.908C51.647 58.283 50.314 59.113 48.909 59.113z" id="path-6" class="cls-7" fill-rule="evenodd"/><path d="M72.324 74.724C71.417 74.724 70.509 74.382 69.809 73.698 68.393 72.309 68.37 70.034 69.758 68.616l17.586-17.94C88.737 49.263 91.009 49.241 92.426 50.625 93.841 52.014 93.864 54.289 92.477 55.708L74.89 73.647C74.186 74.364 73.256 74.724 72.324 74.724z" id="path-7" class="cls-7" fill-rule="evenodd"/></g></svg>