<svg xmlns="http://www.w3.org/2000/svg" xmlns:xlink="http://www.w3.org/1999/xlink" preserveAspectRatio="xMidYMid" width="217" height="217" viewBox="0 0 217 217"><defs><style>.cls-3{fill:#ff3a2f}.cls-4{fill:#020403;opacity:.35}.cls-6{fill:#142a3b}.cls-8{fill:#ededed}</style></defs><g id="group-164svg"><path d="M172.56 16.825c-22.459-22.458-58.873-22.458-81.332.0C74.614 33.44 70.327 57.682 78.294 78.272 57.705 70.305 33.464 74.594 16.85 91.207c-22.459 22.459-22.459 58.874.0 81.332 17.149 17.151 42.416 21.162 63.412 12.122C82.029 191.83 85.665 198.632 91.266 204.233c16.361 16.362 42.888 16.362 59.248.0 12.067-12.066 15.204-29.653 9.471-44.623C174.955 165.341 192.542 162.205 204.608 150.139c16.361-16.361 16.361-42.89.0-59.25C198.962 85.243 192.096 81.593 184.864 79.843 193.679 58.927 189.599 33.866 172.56 16.825z" id="path-1" class="cls-3" fill-rule="evenodd"/><path d="M150.514 183.621c-16.36 16.361-42.887 16.36-59.248.0C85.665 178.02 82.029 171.217 80.263 164.049 59.266 173.088 33.998 169.078 16.85 151.928 8.254 143.331 2.976 132.687.96 121.568c-3.251 17.933 2.027 37.11 15.89 50.971C33.998 189.69 59.266 193.7 80.263 184.661 82.029 191.829 85.665 198.632 91.266 204.233c16.361 16.362 42.888 16.362 59.248.0 10.835-10.834 14.408-26.108 10.887-39.953C159.619 171.358 156.053 178.081 150.514 183.621z" id="path-2" class="cls-4" fill-rule="evenodd"/><path d="M204.608 129.527c-12.066 12.065-29.653 15.202-44.622 9.471C162.594 145.809 163.27 153.151 162.2 160.281 176.668 164.919 193.126 161.622 204.608 150.139c10.825-10.828 14.442-26.094 10.941-39.933C213.76 117.282 210.144 123.99 204.608 129.527z" id="path-3" class="cls-4" fill-rule="evenodd"/><path d="M78.291 81.887C77.495 81.887 76.696 81.625 76.028 81.089 47.308 57.992 53.932 8.739 54.226 6.652 54.507 4.676 56.333 3.309 58.312 3.582c1.975.279 3.35 2.107 3.073 4.085C61.318 8.137 55.057 54.947 80.557 75.456 82.114 76.706 82.361 78.981 81.11 80.537 80.395 81.426 79.348 81.887 78.291 81.887z" id="path-4" class="cls-6" fill-rule="evenodd"/><path d="M79.758 80.424C78.701 80.424 77.654 79.961 76.939 79.073 56.394 53.521 9.62 59.829 9.154 59.9 7.179 60.188 5.348 58.806 5.066 56.829c-.28-1.979 1.095-3.809 3.071-4.088C10.227 52.446 59.48 45.82 82.573 74.545 83.825 76.099 83.577 78.375 82.02 79.626 81.353 80.162 80.553 80.424 79.758 80.424z" id="path-5" class="cls-6" fill-rule="evenodd"/><path d="M136.511 51.267C132.545 47.301 126.115 47.301 122.15 51.267 118.184 55.233 118.184 61.663 122.15 65.628 126.115 69.594 132.545 69.594 136.511 65.628c3.965-3.965 3.965-10.395.0-14.361z" id="path-6" class="cls-8" fill-rule="evenodd"/><path d="M63.636 124.143c-3.965-3.964-10.395-3.964-14.36.0-3.966 3.965-3.966 10.397.0 14.361C53.241 142.47 59.671 142.47 63.636 138.504c3.966-3.964 3.966-10.396.0-14.361z" id="path-7" class="cls-8" fill-rule="evenodd"/></g></svg>