<svg xmlns="http://www.w3.org/2000/svg" xmlns:xlink="http://www.w3.org/1999/xlink" preserveAspectRatio="xMidYMid" width="218" height="212" viewBox="0 0 218 212"><defs><style>.cls-3{fill:#fbb713}.cls-4{fill:#020403;opacity:.35}.cls-7{fill:#fff}.cls-8{fill:#020403;opacity:.25}.cls-9{fill:#ff3a2f}.cls-15{fill:#142a3b}</style></defs><g id="group-170svg"><path d="M60.375 147.727s-54.573-23.899.0-112.971c0 0 5.16200000000001 34.76 15.746 43.45.0.0 16.041-43.45 36.124-43.45.0.0 14.036 4.344 1.85199999999999-34.76.0.0 16.172 8.689 22.632 41.277.0.0 4.40299999999999 10.862.0 32.587.0.0 28.878-13.035 28.531-49.967.0.0 50.32 65.175.00300000000001432 123.834-32.764 21.472-67.694 21.789-104.888.0z" id="path-1" class="cls-3" fill-rule="evenodd"/><path d="M115.342 34.469C117.509 39.584 119.489 45.699 120.957 53.102c0 0 4.40300000000001 10.863.0 32.589.0.0 8.33199999999999-3.816 15.992-13.029C140.945 51.754 136.729 41.273 136.729 41.273 130.269 8.685 114.097-.005 114.097-.005 122.295 26.308 118.623 32.94 115.342 34.469z" id="path-2" class="cls-4" fill-rule="evenodd"/><path d="M60.348 90.035s3.696-9.994 9.752-20.396C63.585 56.231 60.375 34.755 60.375 34.755c-5.463 8.916-9.788 17.15-13.228 24.802 2.508 10.83 6.88 25.289 13.201 30.478z" id="path-3" class="cls-4" fill-rule="evenodd"/><path d="M165.26 23.893C165.367 35.215 162.715 44.27 159.001 51.413 170.138 73.312 183.52 114.823 153.647 154.378 157.548 152.444 161.421 150.244 165.263 147.727 215.58 89.068 165.26 23.893 165.26 23.893z" id="path-4" class="cls-4" fill-rule="evenodd"/><path d="M62.891 141.997C62.084 141.997 61.271 141.729 60.598 141.175 49.266 131.87 44.119 99.162 43.57 95.462 43.277 93.489 44.639 91.65 46.615 91.357 48.572 91.062 50.425 92.424 50.722 94.4c1.382 9.288 6.675 34.793 14.465 41.189C66.73 136.855 66.954 139.133 65.687 140.676 64.971 141.546 63.935 141.997 62.891 141.997z" id="path-5" class="cls-7" fill-rule="evenodd"/><path d="M82.6 158.808s-30.837-13.503.0-63.833c0 0 2.91600000000001 19.642 8.896 24.551.0.0 9.06400000000001-24.551 20.412-24.551.0.0 7.931 2.45500000000001 1.047-19.641C112.955 75.334 122.093 80.243 125.743 98.658c0 0 2.48699999999999 6.137.0 18.413.0.0 16.316-7.365 16.121-28.234.0.0 28.433 36.827.00200000000000955 69.971-18.513 12.133-38.25 12.312-59.266.0z" id="path-6" class="cls-8" fill-rule="evenodd"/><path d="M86.065 157.235S63.079 147.171 86.064 109.653C86.064 109.653 88.239 124.294 92.696 127.955c0 0 6.756-18.302 15.215-18.302C107.911 109.653 113.823 111.484 108.691 95.013c0 0 6.812 3.66 9.533 17.386.0.0 1.85499999999999 4.575.0 13.725.0.0 12.163-5.49 12.017-21.045.0.0 21.195 27.45.00199999999998113 52.156C116.443 166.281 101.73 166.414 86.065 157.235z" id="path-7" class="cls-9" fill-rule="evenodd"/><path d="M108.472 109.709C109.187 111.602 109.833 113.797 110.338 116.342c0 0 1.854 4.57600000000001.0 13.726C110.338 130.068 115.277 127.82 118.823 122.167 119.514 115.683 118.224 112.399 118.224 112.399c-2.721-13.726-9.533-17.386-9.533-17.386C112.814 108.244 109.813 109.662 108.472 109.709z" id="path-8" class="cls-4" fill-rule="evenodd"/><path d="M130.242 105.079C130.29 110.233 128.976 114.262 127.212 117.372 131.87 127.39 136.337 144.88 122.357 161.18 122.153 161.312 121.945 161.401 121.741 161.529 124.609 160.433 127.45 159.066 130.243 157.235 151.436 132.529 130.242 105.079 130.242 105.079z" id="path-9" class="cls-4" fill-rule="evenodd"/><path d="M84.81 131.898S86.553 127.19 89.371 122.549C87.156 116.967 86.065 109.653 86.065 109.653 83.416 113.976 81.401 117.919 79.868 121.539 80.969 125.613 82.61 130.092 84.81 131.898z" id="path-10" class="cls-4" fill-rule="evenodd"/><path d="M90.004 156.931C89.764 156.931 89.518 156.882 89.281 156.778 89.123 156.708 73.466 149.562 79.291 126.971 79.542 126.004 80.533 125.422 81.492 125.672 82.459 125.921 83.041 126.906 82.791 127.874 77.758 147.389 90.207 153.232 90.739 153.47 91.647 153.878 92.059 154.944 91.656 155.854 91.355 156.528 90.697 156.931 90.004 156.931z" id="path-11" class="cls-7" fill-rule="evenodd"/><path d="M96.64 135.535C96.431 135.535 96.219 135.499 96.013 135.423 95.078 135.076 94.599 134.038 94.943 133.101 95.679 131.108 102.409 113.62 111.855 113.62 112.854 113.62 113.663 114.43 113.663 115.427 113.663 116.425 112.854 117.234 111.855 117.234c-5.867.0-11.878 12.678-13.52 17.12C98.066 135.084 97.373 135.535 96.64 135.535z" id="path-12" class="cls-7" fill-rule="evenodd"/><path d="M5.528 211.668s211.339-50.322 211.339-50.322-5.535-23.247-5.535-23.247S-.006 188.42-.006 188.42s5.534 23.248 5.534 23.248z" id="path-13" class="cls-15" fill-rule="evenodd"/><path d="M143.871 179.853S160.817 175.819 160.817 175.819s1.958-6.017 1.958-6.017-33.746-10.98-33.746-10.98-28.753 6.846-28.753 6.846 43.595 14.185 43.595 14.185z" id="path-14" class="cls-4" fill-rule="evenodd"/><path d="M90.734 190.628S118.307 184.062 118.307 184.062 119.007 181.911 119.007 181.911s-38.739-12.605-38.739-12.605-31.795 7.571-31.795 7.571 42.261 13.751 42.261 13.751z" id="path-15" class="cls-4" fill-rule="evenodd"/><path d="M211.332 211.668S-.006 161.346-.006 161.346s5.534-23.247 5.534-23.247S216.867 188.42 216.867 188.42s-5.535 23.248-5.535 23.248z" id="path-16" class="cls-15" fill-rule="evenodd"/></g></svg>