<svg xmlns="http://www.w3.org/2000/svg" xmlns:xlink="http://www.w3.org/1999/xlink" preserveAspectRatio="xMidYMid" width="103" height="216" viewBox="0 0 103 216"><defs><style>.cls-3{fill:#fbb713}.cls-4{fill:#000;opacity:.35}.cls-5{fill:#fbfbfb;opacity:.5}.cls-6{fill:#000;opacity:.45}.cls-7{fill:#0cb04a}</style></defs><g id="group-58svg"><path d="M101.564 66.577S64.512 205.164 64.512 205.164c-3.695 13.821-23.309 13.821-27.004.0L.455 66.577c-2.372-8.875 4.316-17.585 13.502-17.585H88.062c9.187.0 15.875 8.71 13.502 17.585z" id="path-1" class="cls-3" fill-rule="evenodd"/><path d="M88.063 48.992s-8.268.0-8.268.0c9.187.0 15.875 8.71 13.502 17.585L56.245 205.164C54.84 210.417 51.133 213.662 46.876 214.922 53.817 216.977 62.221 213.731 64.512 205.164L101.564 66.577c2.373-8.875-4.315-17.585-13.501-17.585z" id="path-2" class="cls-4" fill-rule="evenodd"/><path d="M88.063 48.992s-71.595.0-71.595.0C13.152 49.508 10.068 50.087 7.246 50.721 1.847 53.689-1.282 60.081.455 66.577L1.116 69.046C13.356 72.72 33.422 75.119 56.119 75.119c16.863.0 32.268-1.325 44.101-3.512L101.564 66.577c2.373-8.875-4.315-17.585-13.501-17.585z" id="path-3" class="cls-5" fill-rule="evenodd"/><path d="M65.478 49.271s0 10.464.0 10.464C65.478 65.101 61.468 69.451 56.521 69.451 51.575 69.451 47.565 65.101 47.565 59.735V49.271s17.913.0 17.913.0z" id="path-4" class="cls-6" fill-rule="evenodd"/><path d="M57.681 63.941s-13.342.0-13.342.0c-1.262.0-2.285-1.024-2.285-2.286V22.136c0-1.262 1.023-2.286 2.285-2.286H57.681c1.262.0 2.285 1.024 2.285 2.286v39.52c0 1.261-1.023 2.285-2.285 2.285z" id="path-5" class="cls-7" fill-rule="evenodd"/><path d="M51.01 19.85c-4.946.0-8.956 4.011-8.956 8.956V44.753c2.719 1.243 5.752 1.941 8.956 1.941s6.237-.698 8.956-1.941V28.806c0-4.945-4.01-8.956-8.956-8.956z" id="path-6" class="cls-6" fill-rule="evenodd"/><path d="M72.703 6.207C70.732 6.207 68.853 6.589 67.134 7.272 63.252 2.826 57.474-.003 51.01-.003S38.768 2.826 34.886 7.272C33.166 6.589 31.288 6.207 29.316 6.207c-8.163.0-14.78 6.439-14.78 14.383.0 7.943 6.617 14.383 14.78 14.383C31.288 34.973 33.166 34.59 34.886 33.908c3.882 4.447 9.66 7.275 16.124 7.275s12.242-2.828 16.124-7.275C68.853 34.59 70.732 34.973 72.703 34.973c8.164.0 14.781-6.44 14.781-14.383C87.484 12.646 80.867 6.207 72.703 6.207z" id="path-7" class="cls-7" fill-rule="evenodd"/><path d="M80.1 8.205C81.256 10.257 81.973 12.574 81.973 15.078c0 7.945-6.618 14.384-14.781 14.384C65.22 29.462 63.342 29.079 61.622 28.396c-3.881 4.446-9.659 7.276-16.124 7.276-6.464.0-12.242-2.83-16.124-7.276-1.72.683-3.598 1.066-5.569 1.066C21.096 29.462 18.591 28.701 16.409 27.464c2.511 4.454 7.317 7.509 12.907 7.509C31.288 34.973 33.166 34.59 34.886 33.908c3.882 4.447 9.66 7.275 16.124 7.275s12.242-2.828 16.124-7.275C68.853 34.59 70.731 34.973 72.703 34.973c8.164.0 14.781-6.44 14.781-14.383.0-5.308-2.988-9.892-7.384-12.385z" id="path-8" class="cls-4" fill-rule="evenodd"/><path d="M61.63 105.067s-43.173.0-43.173.0C16.473 105.067 14.865 103.459 14.865 101.476 14.865 99.492 16.473 97.883 18.457 97.883H61.63C63.614 97.883 65.222 99.492 65.222 101.476 65.222 103.459 63.614 105.067 61.63 105.067z" id="path-9" class="cls-4" fill-rule="evenodd"/><path d="M62.874 147.09s-21.854.0-21.854.0C39.036 147.09 37.427 145.482 37.427 143.498 37.427 141.515 39.036 139.906 41.02 139.906H62.874C64.857 139.906 66.466 141.515 66.466 143.498 66.466 145.482 64.857 147.09 62.874 147.09z" id="path-10" class="cls-4" fill-rule="evenodd"/><path d="M54.368 189.115s-13.566.0-13.566.0C38.818 189.115 37.21 187.506 37.21 185.522 37.21 183.538 38.818 181.929 40.802 181.929H54.368C56.352 181.929 57.96 183.538 57.96 185.522 57.96 187.506 56.352 189.115 54.368 189.115z" id="path-11" class="cls-4" fill-rule="evenodd"/></g></svg>