<svg xmlns="http://www.w3.org/2000/svg" xmlns:xlink="http://www.w3.org/1999/xlink" preserveAspectRatio="xMidYMid" width="216" height="148" viewBox="0 0 216 148"><defs><style>.cls-3{fill:#ff3a2f}.cls-4{fill:#060606;opacity:.35}.cls-5{fill:#142a3b}.cls-8{fill:#fbb713}.cls-10{fill:#ededed}</style></defs><g id="group-44svg"><path d="M196.185 114.731C196.297 112.813 196.366 110.87 196.366 108.896c0-28.677-12.062-72.051-26.942-72.051C167.811 36.845 164.706 36.845 164.706 36.845S42.259 37.443 42.259 37.443c-13.037 3.633-23.063 45.321-23.063 71.453C19.196 110.873 19.271 112.812 19.383 114.731H196.185z" id="path-1" class="cls-3" fill-rule="evenodd"/><path d="M169.424 36.845C168.703 36.845 167.689 36.845 166.781 36.845 166.912 37.169 167.026 37.532 167.154 37.86h-115s0 10.398.0 10.398 118.49.0 118.49.0C174.463 61.532 176.772 76.801 176.772 89.302 176.772 89.322 176.772 89.341 176.772 89.362 176.769 92.61 174.154 95.259 170.91 95.422L19.965 102.975C19.466 107.818 19.196 104.646 19.196 108.896 19.196 110.873 19.271 112.812 19.383 114.732H196.186C196.297 112.813 196.366 110.871 196.366 108.896c0-28.677-12.062-72.051-26.942-72.051z" id="path-2" class="cls-4" fill-rule="evenodd"/><path d="M167.327 40.421s-119.093.0-119.093.0.0-40.435.0-40.435 119.093.0 119.093.0.0 40.435.0 40.435z" id="path-3" class="cls-5" fill-rule="evenodd"/><path d="M215.551 147.349s-215.54.0-215.54.0.0-41.095.0-41.095 215.54.0 215.54.0.0 41.095.0 41.095z" id="path-4" class="cls-5" fill-rule="evenodd"/><path d="M195.957 106.255s0 8.595.0 8.595c0 9.399-7.41999999999999 17.12-16.81 17.495L.011 139.511S.011 147.349.011 147.349s215.54.0 215.54.0.0-41.094.0-41.094-19.594.0-19.594.0z" id="path-5" class="cls-4" fill-rule="evenodd"/><path d="M157.787 32.968s-100.012.0-100.012.0.0-25.529.0-25.529 100.012.0 100.012.0.0 25.529.0 25.529z" id="path-6" class="cls-8" fill-rule="evenodd"/><path d="M157.787 7.439s-100.012.0-100.012.0.0 2.398.0 2.398.0 3.327.0 3.327.0 19.955.0 19.955 5.727.0 5.727.0.0-19.955.0-19.955 94.285.0 94.285.0.0-5.725.0-5.725z" id="path-7" class="cls-4" fill-rule="evenodd"/><path d="M166.303 94.37s-17.032.0-17.032.0.0-37.164.0-37.164 17.032.0 17.032.0.0 37.164.0 37.164z" id="path-8" class="cls-10" fill-rule="evenodd"/><path d="M139.925 94.37s-25.161.0-25.161.0.0-13.892.0-13.892 25.161.0 25.161.0.0 13.892.0 13.892z" id="path-9" class="cls-10" fill-rule="evenodd"/><path d="M107.171 94.37s-25.16.0-25.16.0.0-13.892.0-13.892 25.16.0 25.16.0.0 13.892.0 13.892z" id="path-10" class="cls-10" fill-rule="evenodd"/><path d="M74.419 94.37s-25.16.0-25.16.0.0-13.892.0-13.892 25.16.0 25.16.0.0 13.892.0 13.892z" id="path-11" class="cls-10" fill-rule="evenodd"/><path d="M139.925 71.727s-25.161.0-25.161.0.0-13.893.0-13.893 25.161.0 25.161.0.0 13.893.0 13.893z" id="path-12" class="cls-10" fill-rule="evenodd"/><path d="M107.171 71.727s-25.16.0-25.16.0.0-13.893.0-13.893 25.16.0 25.16.0.0 13.893.0 13.893z" id="path-13" class="cls-10" fill-rule="evenodd"/><path d="M74.419 71.727s-25.16.0-25.16.0.0-13.893.0-13.893 25.16.0 25.16.0.0 13.893.0 13.893z" id="path-14" class="cls-10" fill-rule="evenodd"/></g></svg>