<svg xmlns="http://www.w3.org/2000/svg" xmlns:xlink="http://www.w3.org/1999/xlink" preserveAspectRatio="xMidYMid" width="216" height="162" viewBox="0 0 216 162"><defs><style>.cls-3{fill:#2476ff}.cls-4{fill:#000;opacity:.35}.cls-8{fill:#fff}.cls-9{fill:#142a3b}</style></defs><g id="group-81svg"><path d="M215.531 158.734s-215.539.0-215.539.0.0-158.745.0-158.745 215.539.0 215.539.0.0 158.745.0 158.745z" id="path-1" class="cls-3" fill-rule="evenodd"/><path d="M187.457 155.061s-152.146.0-152.146.0 21.735-18.379 21.735-18.379 112.298.0 112.298.0 18.113 18.379 18.113 18.379z" id="path-2" class="cls-4" fill-rule="evenodd"/><path d="M183.834 162.305s-152.145.0-152.145.0 21.735-20.846 21.735-20.846 112.298.0 112.298.0 18.112 20.846 18.112 20.846z" id="path-3" class="cls-3" fill-rule="evenodd"/><path d="M204.664-.011s0 158.745.0 158.745 10.867.0 10.867.0.0-158.745.0-158.745-10.867.0-10.867.0z" id="path-4" class="cls-4" fill-rule="evenodd"/><path d="M187.457 114.275s-152.146.0-152.146.0.0-85.402.0-85.402 152.146.0 152.146.0.0 85.402.0 85.402z" id="path-5" class="cls-4" fill-rule="evenodd"/><path d="M183.834 110.652s-152.145.0-152.145.0.0-85.402.0-85.402 152.145.0 152.145.0.0 85.402.0 85.402z" id="path-6" class="cls-8" fill-rule="evenodd"/><path d="M169.797 72.117c0 8.502-6.893 15.395-15.395 15.395C145.898 87.512 139.005 80.619 139.005 72.117 139.005 63.614 145.898 56.721 154.402 56.721 162.904 56.721 169.797 63.614 169.797 72.117z" id="path-7" class="cls-9" fill-rule="evenodd"/><path d="M163.303 59.593C165.096 62.11 166.174 65.169 166.174 68.494 166.174 76.998 159.282 83.889 150.779 83.889 147.454 83.889 144.394 82.81 141.877 81.017 144.668 84.936 149.224 87.512 154.402 87.512 162.904 87.512 169.797 80.619 169.797 72.116 169.797 66.939 167.221 62.384 163.303 59.593z" id="path-8" class="cls-4" fill-rule="evenodd"/><path d="M75.612 72.117c0 8.502-6.893 15.395-15.396 15.395-8.503.0-15.396-6.893-15.396-15.395C44.82 63.614 51.713 56.721 60.216 56.721s15.396 6.893 15.396 15.396z" id="path-9" class="cls-9" fill-rule="evenodd"/><path d="M60.216 56.721C59.595 56.721 59.006 56.833 58.405 56.904 66.044 57.811 71.99 64.234 71.99 72.116S66.044 86.423 58.405 87.33C59.006 87.401 59.595 87.512 60.216 87.512 68.719 87.512 75.612 80.619 75.612 72.116c0-8.502-6.893-15.395-15.396-15.395z" id="path-10" class="cls-4" fill-rule="evenodd"/><path d="M154.402 149.999C154.402 152.499 152.374 154.526 149.873 154.526 147.373 154.526 145.345 152.499 145.345 149.999 145.345 147.498 147.373 145.47 149.873 145.47c2.501.0 4.529 2.02799999999999 4.529 4.529z" id="path-11" class="cls-8" fill-rule="evenodd"/><path d="M78.329 149.999C78.329 152.499 76.301 154.526 73.8 154.526 71.299 154.526 69.272 152.499 69.272 149.999 69.272 147.498 71.299 145.47 73.8 145.47c2.501.0 4.529 2.02799999999999 4.529 4.529z" id="path-12" class="cls-8" fill-rule="evenodd"/><path d="M135.836 82.824s-56.149.0-56.149.0.0-20.883.0-20.883 56.149.0 56.149.0.0 20.883.0 20.883z" id="path-13" class="cls-9" fill-rule="evenodd"/><path d="M184.741 44.104s-153.958.0-153.958.0.0-7.185.0-7.185 153.958.0 153.958.0.0 7.185.0 7.185z" id="path-14" class="cls-9" fill-rule="evenodd"/></g></svg>