<svg xmlns="http://www.w3.org/2000/svg" xmlns:xlink="http://www.w3.org/1999/xlink" preserveAspectRatio="xMidYMid" width="217" height="178" viewBox="0 0 217 178"><defs><style>.cls-3{fill:#0cb04a}.cls-4{fill:#020403;opacity:.35}.cls-6{fill:#fff}.cls-7{fill:#ff3a2f}</style></defs><g id="group-9svg"><path d="M95.303 8.088c31.993-10.512 65.022-11.101 99.272.0L181.407 51.212s35.454 116.061 35.454 116.061c0 13.999-144.857 13.999-144.857.0L108.471 49.76S95.303 8.088 95.303 8.088z" id="path-1" class="cls-3" fill-rule="evenodd"/><path d="M181.407 50.645S194.575 8.053 194.575 8.053C188.841 6.194 183.142 4.692 177.475 3.482L165.341 43.999s35.456 116.916 35.456 116.916C200.797 173.655 109.754 173.26 72.045 165.794L72.004 165.927C72.004 181.992 216.861 182.238 216.861 166.173L181.407 50.645z" id="path-2" class="cls-4" fill-rule="evenodd"/><path d="M177.573 54.691C177.316 54.691 177.053 54.663 176.791 54.606 168.771 52.836 124.324 51.421 112.63 54.263 110.674 54.733 108.735 53.544 108.263 51.605 107.792 49.665 108.982 47.71 110.921 47.239 123.809 44.106 169.208 45.528 178.349 47.546 180.298 47.976 181.531 49.906 181.1 51.855 180.728 53.542 179.233 54.691 177.573 54.691z" id="path-3" class="cls-4" fill-rule="evenodd"/><path d="M96.242 142.618C95.873 142.618 95.497 142.562 95.125 142.441 93.228 141.825 92.188 139.786 92.804 137.887l21.673-66.741C115.093 69.249 117.121 68.206 119.033 68.824 120.93 69.44 121.969 71.48 121.354 73.379L99.68 140.119C99.184 141.647 97.767 142.618 96.242 142.618z" id="path-4" class="cls-6" fill-rule="evenodd"/><path d="M68.013 59.565S9.612 39.343 9.612 39.343C6.167 38.15 2.063 41.402.548 46.524-.969 51.647.706 56.608 4.245 57.482L64.247 72.296S68.013 59.565 68.013 59.565z" id="path-5" class="cls-7" fill-rule="evenodd"/><path d="M51.147 68.962S51.839 69.198 51.839 69.198 64.247 72.262 64.247 72.262 68.013 59.531 68.013 59.531s-6.233-2.159-6.233-2.159-10.633 11.59-10.633 11.59z" id="path-6" class="cls-4" fill-rule="evenodd"/><path d="M103.281 69.67S71.992 56.818 71.992 56.818C69.22 55.68 65.809 58.282 64.566 62.484l-2.34 7.909C61.009 74.506 62.367 78.484 65.217 79.154L98.183 86.894s5.098-17.224 5.098-17.224z" id="path-7" class="cls-3" fill-rule="evenodd"/><path d="M98.183 86.86s5.098-17.224 5.098-17.224S96.299 66.769 96.299 66.769s-9.036 17.528-9.036 17.528 10.92 2.563 10.92 2.563z" id="path-8" class="cls-4" fill-rule="evenodd"/></g></svg>