<svg xmlns="http://www.w3.org/2000/svg" xmlns:xlink="http://www.w3.org/1999/xlink" preserveAspectRatio="xMidYMid" width="164" height="217" viewBox="0 0 164 217"><defs><style>.cls-3{fill:#142a3b}.cls-5{fill:#020403;opacity:.35}.cls-6{fill:#ff3a2f}.cls-10{fill:#020403;opacity:.45}.cls-11{fill:#ffe56d}.cls-13{fill:#fff}</style></defs><g id="group-43svg"><path d="M139.632 188.026s-38.574-52.185-38.574-52.185-3.033 2.243-3.033 2.243 17.329 23.444 17.329 23.444-60.545.0-60.545.0 17.33-23.444 17.33-23.444-3.035-2.243-3.035-2.243-55.212 74.694-55.212 74.694S16.925 212.777 16.925 212.777s34.728-46.979 34.728-46.979S51.653 165.799 51.653 165.799s66.858.0 66.858.0 18.088 24.469 18.088 24.469S139.632 188.026 139.632 188.026z" id="path-1" class="cls-3" fill-rule="evenodd"/><path d="M86.074 148.284c-31.672.0-57.346-25.675-57.346-57.347H143.422c0 31.672-25.676 57.347-57.348 57.347z" id="path-2" class="cls-3" fill-rule="evenodd"/><path d="M28.728 90.936C28.728 94.777 29.121 94.785 29.841 98.415L117.247 105.893c0 18.497-8.794 31.163-22.388 41.65 27.49-4.238 48.563-27.93 48.563-56.607H28.728z" id="path-3" class="cls-5" fill-rule="evenodd"/><path d="M153.231 93.447s-134.314.0-134.314.0C16.921 93.447 15.303 91.829 15.303 89.833c0-1.997 1.618-3.614 3.614-3.614H153.231C155.229 86.219 156.846 87.836 156.846 89.833 156.846 91.829 155.229 93.447 153.231 93.447z" id="path-4" class="cls-6" fill-rule="evenodd"/><path d="M131.188 207.06C135.215 215.605 145.407 219.268 153.951 215.24 162.496 211.213 166.158 201.022 162.13 192.476 158.104 183.932 147.912 180.269 139.368 184.296 130.824 188.323 127.161 198.515 131.188 207.06zm11.872-14.93C147.278 190.143 152.309 191.951 154.297 196.169 156.285 200.387 154.476 205.417 150.259 207.406 146.042 209.393 141.011 207.585 139.023 203.368 137.035 199.149 138.843 194.119 143.06 192.13z" id="path-5" class="cls-6" fill-rule="evenodd"/><path d="M-.014 216.876s33.046.0 33.046.0.0-7.173.0-7.173-33.046.0-33.046.0.0 7.173.0 7.173z" id="path-6" class="cls-6" fill-rule="evenodd"/><path d="M122.629 24.998C120.968 23.783 119.225 22.658 117.414 21.615 118.354 16.405 116.12 11.481 112.033 10.266L101.597 7.167C97.447 5.934 92.801 8.949 90.794 13.967 88.708 13.892 86.631 13.926 84.572 14.076L86.297 8.273C87.998 2.543 93.051-1.055 97.523.273l21.686 6.442C123.682 8.044 125.95 13.818 124.249 19.545L122.629 24.998z" id="path-7" class="cls-6" fill-rule="evenodd"/><path d="M76.001 112.137C77.579 112.613 79.195 112.998 80.838 113.303 81.516 117.486 84.514 120.609 87.922 120.438L96.626 120C100.087 119.826 102.792 116.314 102.972 111.991 104.566 111.492 106.125 110.913 107.638 110.252L107.883 115.093C108.123 119.87 105.267 123.933 101.537 124.12L83.45 125.03C79.719 125.218 76.47 121.461 76.229 116.685L76.001 112.137z" id="path-8" class="cls-10" fill-rule="evenodd"/><path d="M72.262 104.658C73.84 105.134 75.456 105.519 77.099 105.824 77.776 110.008 80.776 113.131 84.183 112.959L92.886 112.522C96.348 112.348 99.053 108.835 99.233 104.512 100.828 104.013 102.386 103.435 103.899 102.773L104.144 107.614C104.384 112.391 101.527 116.454 97.797 116.642L79.71 117.551C75.979 117.739 72.731 113.983 72.49 109.206L72.262 104.658z" id="path-9" class="cls-11" fill-rule="evenodd"/><path d="M107.296 17.019c29.969 10.244 45.96 42.843 35.717 72.814L34.483 52.737c10.244-29.97 42.843-45.962 72.813-35.718z" id="path-10" class="cls-3" fill-rule="evenodd"/><path d="M48.272 43.701C47.853 43.701 47.431 43.557 47.091 43.262 46.335 42.61 46.251 41.468 46.904 40.713c7.985-9.252 18.904-15.949 30.748-18.859C78.62 21.619 79.6 22.209 79.837 23.179 80.076 24.148 79.483 25.127 78.513 25.365c-11.12 2.73-21.374 9.02-28.874 17.71C49.283 43.489 48.778 43.701 48.272 43.701z" id="path-11" class="cls-13" fill-rule="evenodd"/><path d="M107.296 17.019C103.332 15.664 99.324 14.797 95.326 14.332c23.009 13.462 34.169 41.64 25.301 67.849l22.386 7.652C153.256 59.862 137.265 27.263 107.296 17.019z" id="path-12" class="cls-5" fill-rule="evenodd"/></g></svg>