<svg xmlns="http://www.w3.org/2000/svg" xmlns:xlink="http://www.w3.org/1999/xlink" preserveAspectRatio="xMidYMid" width="218" height="214" viewBox="0 0 218 214"><defs><style>.cls-3{fill:#142a3b}.cls-4{fill:#020403;opacity:.35}.cls-5{fill:#0cb04a}.cls-6{fill:#fff}</style></defs><g id="group-113svg"><path d="M201.66 213.525C196.797 214.57 161.271 196.227 156.019 196.227c-33.611.0-60.855-22.8-60.855-50.923.0-28.125 27.244-50.925 60.855-50.925 33.604.0 60.856 22.8 60.856 50.925.0 16.081-8.91 30.421-22.819 39.754C192.535 186.071 192.558 188.033 193.403 190.46L201.66 213.525z" id="path-1" class="cls-3" fill-rule="evenodd"/><path d="M156.019 94.379c-33.611.0-60.855 22.8-60.855 50.925.0 13.616 6.425 25.953 16.827 35.089C112.755 180.219 113.405 180.112 113.88 180.112c45.21.0 83.266-25.534 94.763-60.302-10.534-15.189-30.131-25.431-52.624-25.431z" id="path-2" class="cls-4" fill-rule="evenodd"/><path d="M24.591 192.534C32.449 194.223 89.86 164.582 98.348 164.582c54.315.0 98.341-36.846 98.341-82.294.0-45.451-44.026-82.297-98.341-82.297C44.041-.009.002 36.837.002 82.288c0 25.987 14.398 49.161 36.876 64.243C39.335 148.169 39.299 151.337 37.933 155.26L24.591 192.534z" id="path-3" class="cls-5" fill-rule="evenodd"/><path d="M26.329 83.826C23.334 83.826 20.907 81.398 20.907 78.405c0-31.24 29.898-56.654 66.646-56.654C90.548 21.751 92.974 24.179 92.974 27.174 92.974 30.167 90.548 32.595 87.553 32.595c-30.77.0-55.802 20.55-55.802 45.81C31.751 81.398 29.324 83.826 26.329 83.826z" id="path-4" class="cls-6" fill-rule="evenodd"/><path d="M167.602 23.869C178.588 37.152 185.04 53.26 185.04 70.638c0 45.448-44.026 82.292-98.342 82.292C80.747 152.93 50.753 167.496 30.644 175.624l-6.053 16.91C32.45 194.223 89.86 164.581 98.348 164.581c54.315.0 98.341-36.845 98.341-82.293.0-22.843-11.127-43.509-29.087-58.419z" id="path-5" class="cls-4" fill-rule="evenodd"/></g></svg>