<svg xmlns="http://www.w3.org/2000/svg" xmlns:xlink="http://www.w3.org/1999/xlink" preserveAspectRatio="xMidYMid" width="216" height="124" viewBox="0 0 216 124"><defs><style>.cls-3{fill:#fbb713}.cls-4{fill:#142a3b}.cls-5{fill:#000;opacity:.45}.cls-7{fill:#000;opacity:.1}.cls-9{fill:#000;opacity:.35}</style></defs><g id="group-90svg"><path d="M107.771 63.232C48.256 63.232.009 72.914.009 84.859v19.56c2.034 25.035 217.7 25.683 215.524.0V84.859c0-11.945-48.247-21.627-107.762-21.627zm0 42.22c-56.669.0-102.609-9.22-102.609-20.593.0-11.374 45.94-20.593 102.609-20.593S210.38 73.485 210.38 84.859c0 11.373-45.94 20.593-102.609 20.593z" id="path-1" class="cls-3" fill-rule="evenodd"/><path d="M215.541 84.342c0 11.659-48.247 21.11-107.762 21.11C48.264 105.452.017 96.001.017 84.342c0-11.66 48.247-21.11 107.762-21.11 59.515.0 107.762 9.45 107.762 21.11z" id="path-2" class="cls-4" fill-rule="evenodd"/><path d="M176.136 91.147c0 7.396-30.605 13.391-68.357 13.391C70.027 104.538 39.422 98.543 39.422 91.147 39.422 83.752 70.027 77.756 107.779 77.756s68.357 5.996 68.357 13.391z" id="path-3" class="cls-5" fill-rule="evenodd"/><path d="M95.162-.003c33.189.0 71.118 23.474 71.118 56.663L49.278 52.393S95.162-.003 95.162-.003z" id="path-4" class="cls-3" fill-rule="evenodd"/><path d="M152.651 56.163s13.629.497 13.629.497c0-33.189-37.928-56.663-71.118-56.663L94.21 1.084c29.299 4.942 58.109 26.315 58.441 55.079z" id="path-5" class="cls-7" fill-rule="evenodd"/><path d="M166.28 93.336s-117.002.0-117.002.0.0-40.943.0-40.943 117.002.0 117.002.0.0 40.943.0 40.943z" id="path-6" class="cls-3" fill-rule="evenodd"/><path d="M166.28 93.336s-117.002.0-117.002.0.0-40.943.0-40.943 117.002.0 117.002.0.0 40.943.0 40.943z" id="path-7" class="cls-9" fill-rule="evenodd"/></g></svg>