<svg xmlns="http://www.w3.org/2000/svg" xmlns:xlink="http://www.w3.org/1999/xlink" preserveAspectRatio="xMidYMid" width="216" height="139" viewBox="0 0 216 139"><defs><style>.cls-3{fill:#142a3b}.cls-4{fill:#000;opacity:.35}.cls-5{fill:#fbb713}.cls-6{fill:#fff}.cls-7{fill:#010101;opacity:.25}</style></defs><g id="group-93svg"><path d="M178.998 137.831s-143.209.0-143.209.0S-.013 90.682-.013 90.682s214.812.0 214.812.0-35.801 47.149-35.801 47.149z" id="path-1" class="cls-3" fill-rule="evenodd"/><path d="M189.253 90.682s-14.171 18.663-14.171 18.663C165.204 122.354 149.81 129.995 133.476 129.995H29.838S35.789 137.831 35.789 137.831s143.208.0 143.208.0 35.802-47.149 35.802-47.149-25.546.0-25.546.0z" id="path-2" class="cls-4" fill-rule="evenodd"/><path d="M169.416 90.682C172.206 83.31 173.803 75.352 173.803 67.002c0-37.005-30-67.003-67.006-67.003-37.007.0-67.006 29.998-67.006 67.003C39.791 75.352 41.388 83.31 44.178 90.682H169.416z" id="path-3" class="cls-5" fill-rule="evenodd"/><path d="M60.678 63.843C58.694 63.843 57.085 62.234 57.085 60.252c0-27.412 22.3-49.713 49.711-49.713C108.78 10.539 110.389 12.147 110.389 14.132 110.389 16.114 108.78 17.723 106.796 17.723c-23.448.0-42.526 19.078-42.526 42.529.0 1.982-1.608 3.591-3.592 3.591z" id="path-4" class="cls-6" fill-rule="evenodd"/><path d="M138.671 8.055c12.021 12.111 19.456 28.78 19.456 47.191C158.127 55.33 158.127 55.413 158.127 55.497 158.077 68.562 146.999 78.926 133.933 78.926H40.898C41.647 82.98 42.75 86.911 44.178 90.682H169.416C172.206 83.311 173.803 75.352 173.803 67.002c0-25.465-14.209-47.612-35.132-58.947z" id="path-5" class="cls-7" fill-rule="evenodd"/><path d="M180.331 31.071s10.403 27.272.0 37.675c-10.405 10.404-27.272 10.404-37.676.0-10.404-10.403-10.404-27.271.0-37.675 10.404-10.403 37.676.0 37.676.0z" id="path-6" class="cls-5" fill-rule="evenodd"/><path d="M184.25 60.908c-10.405 10.405-27.273 10.405-37.677.0C139.376 53.711 137.166 43.423 139.927 34.317 132.38 44.732 133.27 59.361 142.654 68.746c10.405 10.404 27.272 10.404 37.677.0C182.404 66.674 183.625 63.917 184.293 60.854 184.277 60.87 184.266 60.891 184.25 60.908z" id="path-7" class="cls-7" fill-rule="evenodd"/><path d="M178.114 41.085s-5.368-6.401-5.368-6.401 23.638-18.091 23.638-18.091S201.752 22.993 201.752 22.993s-23.638 18.092-23.638 18.092z" id="path-8" class="cls-3" fill-rule="evenodd"/><path d="M208.367 10.77c0 5.424-4.39699999999999 9.822-9.822 9.822C193.121 20.592 188.723 16.194 188.723 10.77 188.723 5.345 193.121.948 198.545.948 203.97.948 208.367 5.345 208.367 10.77z" id="path-9" class="cls-3" fill-rule="evenodd"/><path d="M215.527 21.511C215.527 26.935 211.13 31.332 205.705 31.332c-5.42400000000001.0-9.822-4.397-9.822-9.821.0-5.425 4.398-9.822 9.822-9.822C211.13 11.689 215.527 16.086 215.527 21.511z" id="path-10" class="cls-3" fill-rule="evenodd"/></g></svg>