<svg xmlns="http://www.w3.org/2000/svg" xmlns:xlink="http://www.w3.org/1999/xlink" preserveAspectRatio="xMidYMid" width="217" height="144" viewBox="0 0 217 144"><defs><style>.cls-3{fill:#ff3a2f}.cls-4{fill:#010101;opacity:.35}.cls-5{fill:#fff}.cls-6{fill:#9acd32}</style></defs><g><path d="M29.074 78.127c1.43 13.202 10.035 44.912 131.9 63.471.0.0 46.558 6.297 54.815-7.02300000000003C224.041 121.26 182.568 114.293 174.517 111.286 126 93.171 91.235 37.689 71.793 31.191c-11.907-3.981-35.949-3.786-35.949-3.786S14.458.009 14.458.009-.003 17.723-.003 17.723s28.269 20.45 28.269 20.45S28.204 70.09 29.074 78.127z" id="path-1" class="cls-3" fill-rule="evenodd"/><path d="M215.789 134.575C216.065 134.131 216.279 133.695 216.444 133.265 216.474 133.186 216.486 133.11 216.514 133.032 216.637 132.672 216.738 132.313 216.79 131.964 216.798 131.912 216.796 131.863 216.802 131.811 216.846 131.429 216.86 131.052 216.825 130.681 216.825 130.681 216.82 130.649 216.818 130.631 216.775 130.231 216.693 129.836 216.565 129.45L216.564 129.448C203.066 138.206 165.226 133.092 165.226 133.092 68.658 118.386 50.817 87.131 44.04 74.789 42.857 72.634 43.573 69.971 45.642 68.643c9.694-6.218 25.32-32.056 23.148-38.301C60.122 28.2 47.716 27.614 40.865 27.46 38.328 28.038 36.14 28.617 34.653 29.039 33.274 29.428 31.813 29.157 30.653 28.318L9.526 13.034C7.513 11.58 4.714 11.944 3.142 13.869L3.141 13.87c-1.706 2.09-1.301 5.187.886 6.768l20.487 14.82s3.752 2.716 3.752 2.716S28.265 39.165 28.266 40.764C28.266 41.04 28.266 41.354 28.267 41.668 28.268 41.964 28.268 42.283 28.269 42.609 28.269 42.979 28.271 43.362 28.272 43.768 28.273 44.163 28.274 44.585 28.275 45.011 28.276 45.336 28.278 45.651 28.279 45.992 28.282 46.756 28.286 47.564 28.291 48.397 28.292 48.621 28.294 48.846 28.295 49.074 28.3 49.871 28.305 50.69 28.312 51.53 28.314 51.874 28.318 52.229 28.321 52.578 28.326 53.246 28.332 53.923 28.339 54.608 28.343 55.001 28.347 55.398 28.352 55.795 28.358 56.435 28.366 57.078 28.375 57.724 28.38 58.177 28.386 58.629 28.393 59.082 28.402 59.783 28.413 60.481 28.424 61.177 28.43 61.499 28.434 61.823 28.44 62.143 28.457 63.128 28.476 64.103 28.497 65.06 28.5 65.231 28.504 65.4 28.508 65.571 28.528 66.469 28.55 67.348 28.573 68.202 28.583 68.55 28.594 68.878 28.605 69.218 28.622 69.822 28.641 70.417 28.661 70.987 28.673 71.326 28.686 71.652 28.699 71.979 28.72 72.523 28.742 73.042 28.766 73.544 28.779 73.84 28.793 74.134 28.808 74.414 28.834 74.919 28.862 75.385 28.891 75.833 28.905 76.049 28.919 76.278 28.933 76.479 28.977 77.091 29.023 77.649 29.073 78.112L29.074 78.126C29.834 85.141 32.618 97.377 53.334 110.092 54.552 110.84 55.832 111.59 57.178 112.34 65.254 116.841 75.678 121.365 89.154 125.708 91.399 126.43 93.73 127.149 96.149 127.861 113.077 132.85 134.315 137.538 160.974 141.598 160.974 141.598 207.532 147.894 215.789 134.575z" id="path-2" class="cls-4" fill-rule="evenodd"/><path d="M98.6 73.924C97.179 73.924 95.832 73.082 95.257 71.688 95.155 71.445 88.966 57.037 74.822 52.978 72.904 52.428 71.795 50.426 72.344 48.506 72.897 46.587 74.892 45.48 76.817 46.03c17.615 5.055 24.825 22.179 25.125 22.906C102.699 70.782 101.817 72.894 99.971 73.653 99.521 73.837 99.056 73.924 98.6 73.924z" id="path-3" class="cls-5" fill-rule="evenodd"/><path d="M61.833 29.027c-11.936-1.731-25.989-1.621-25.989-1.621S14.458.008 14.458.008-.003 17.723-.003 17.723 28.266 38.174 28.266 38.174 28.237 53.301 28.503 65.35C45.834 57.271 57.159 45.303 61.833 29.027z" id="path-4" class="cls-6" fill-rule="evenodd"/><path d="M32.756 56.845C32.489 44.796 32.519 29.668 32.519 29.668S5.941 10.441 5.941 10.441-.003 17.723-.003 17.723 28.266 38.174 28.266 38.174 28.237 53.301 28.503 65.35c15.612-7.276 26.3-17.744 31.694-31.641C54.175 43.445 44.998 51.138 32.756 56.845z" id="path-5" class="cls-4" fill-rule="evenodd"/></g></svg>