<svg xmlns="http://www.w3.org/2000/svg" xmlns:xlink="http://www.w3.org/1999/xlink" preserveAspectRatio="xMidYMid" width="221" height="220" viewBox="0 0 221 220"><defs><style>.cls-3{fill:#142a3b}.cls-4{fill:#020403}.cls-5{fill:#ff3a2f}.cls-6{fill:#010101;opacity:.35}</style></defs><g id="group-78svg"><path d="M160.777 75.258s-15.679-15.679-15.679-15.679S203.904.772 203.904.772C204.945-.269 206.633-.269 207.673.772l11.909 11.909c1.041 1.041 1.041 2.729.0 3.769L160.777 75.258z" id="path-1" class="cls-3" fill-rule="evenodd"/><path d="M213.628 6.727C211.153 4.251 207.802 3.241 204.574 3.595 204.647 3.666 204.734 3.714 204.805 3.785 209.135 8.114 209.134 15.134 204.805 19.464l-49.91 49.912S160.777 75.257 160.777 75.257s52.851-52.852 52.851-52.852C217.958 18.075 217.958 11.056 213.628 6.727z" id="path-2" class="cls-4" fill-rule="evenodd"/><path d="M101.705 212.42S7.939 118.652 7.939 118.652C4.039 114.752 4.039 108.429 7.939 104.528L51.118 61.349c29.793-29.794 78.096-29.794 107.889.0 29.793 29.794 29.792 78.098.0 107.892L115.829 212.42C111.929 216.32 105.605 216.32 101.705 212.42z" id="path-3" class="cls-5" fill-rule="evenodd"/><path d="M159.007 61.349s0 0 0 0c-29.793-29.795-78.097-29.795-107.89.0L42.804 69.662C72.598 39.874 120.898 39.874 150.688 69.666c29.793 29.795 29.793 78.099.0 107.893l-41.921 41.922s0 0 0 0 50.24-50.24 50.24-50.24c29.793-29.794 29.793-78.099.0-107.892z" id="path-4" class="cls-6" fill-rule="evenodd"/><path d="M108.767 219.481S.001 110.713.001 110.713 10.996 99.718 10.996 99.718 119.761 208.487 119.761 208.487s-10.994 10.994-10.994 10.994z" id="path-5" class="cls-3" fill-rule="evenodd"/></g></svg>