<svg xmlns="http://www.w3.org/2000/svg" xmlns:xlink="http://www.w3.org/1999/xlink" preserveAspectRatio="xMidYMid" width="217" height="127" viewBox="0 0 217 127"><defs><style>.cls-3{fill:#142a3b}.cls-4{fill:#ff3a2f}</style></defs><g id="group-95svg"><path d="M106.68 64.605C104.684 64.605 103.065 62.987 103.065 60.991V43.792S106.68 43.792 106.68 43.792c17.467.0 19.354-12.791 19.354-18.289.0-10.418-7.319-18.274-17.026-18.274-10.031.0-18.189 8.15-18.189 18.168C90.819 27.392 89.2 29.012 87.204 29.012c-1.996.0-3.615-1.62-3.615-3.615.0-14.004 11.404-25.398 25.419-25.398 13.828.0 24.255 10.965 24.255 25.504.0 14.312-8.893 23.949-22.969 25.343V60.991c0 1.996-1.618 3.614-3.61399999999999 3.614z" id="path-1" class="cls-3" fill-rule="evenodd"/><path d="M106.188 60.006S-.011 100.876-.011 100.876s7.68 25.632 7.68 25.632 202.949.0 202.949.0 6.245-25.632 6.245-25.632-110.675-40.87-110.675-40.87zm96.138 58.62s-186.051.0-186.051.0-3.931-11.166-3.931-11.166 92.371-38.094 92.371-38.094S205.601 107.46 205.601 107.46 202.326 118.626 202.326 118.626z" id="path-2" class="cls-4" fill-rule="evenodd"/></g></svg>