<svg xmlns="http://www.w3.org/2000/svg" xmlns:xlink="http://www.w3.org/1999/xlink" preserveAspectRatio="xMidYMid" width="217" height="100" viewBox="0 0 217 100"><defs><style>.cls-3{fill:#2476ff}.cls-4{fill:#020403;opacity:.25}.cls-5{fill:#fff}</style></defs><g id="group-96svg"><path d="M216.521 81.48C217.337 73.285 216.785 64.65 214.504 55.796 206.709 25.546 180.233 2.924 149.108.271 117.426-2.428 89.527 14.805 76.371 40.78c-9.557-7.548-22.072-11.523-35.555-9.748C20.757 33.675 4.305 49.411.758 69.331.064 73.219-.137 77.099.095 80.791.741 91.082 9.471 99.078 19.782 99.078H196.906C206.951 99.078 215.526 91.475 216.521 81.48z" id="path-1" class="cls-3" fill-rule="evenodd"/><path d="M214.503 55.796C208 30.559 188.475 10.677 164.114 3.226 171.028 11.523 176.23 21.328 179.015 32.136 181.296 40.99 181.849 49.625 181.032 57.821 180.037 67.816 171.462 75.419 161.418 75.419H.081c-.092 1.818-.096 3.619.014 5.372.646 10.291 9.376 18.287 19.687 18.287H196.906c10.044.0 18.62-7.602 19.615-17.598C217.337 73.285 216.785 64.65 214.503 55.796z" id="path-2" class="cls-4" fill-rule="evenodd"/><path d="M96.35 46.115C95.928 46.115 95.502 46.041 95.083 45.884 93.214 45.185 92.265 43.102 92.965 41.233 100.139 22.057 119.392 9.741 139.792 11.242 141.783 11.39 143.276 13.124 143.128 15.115 142.98 17.105 141.252 18.587 139.256 18.451c-17.213-1.288-33.465 9.13-39.521 25.314C99.192 45.219 97.814 46.115 96.35 46.115z" id="path-3" class="cls-5" fill-rule="evenodd"/></g></svg>