<svg xmlns="http://www.w3.org/2000/svg" width="201.945" height="215.533" viewBox="0 0 201.945 215.533">
  <g id="group-79svg" transform="translate(-9.008 -0.003)">
    <path id="path-3" d="M185.445,174.557H14.307V50.222H185.445Z" transform="translate(10.104 3.879)" fill="#142a3b" fill-rule="evenodd"/>
    <path id="path-4" d="M14.307,50.222V63.913l140.334,6.845v103.8h30.8V50.222Z" transform="translate(10.104 3.879)" fill-rule="evenodd" opacity="0.35"/>
    <path id="path-5" d="M162.638,0H39.323C17.61,0,.008,26.055.008,58.189H201.953C201.953,26.055,184.351,0,162.638,0Z" transform="translate(9 0)" fill="#fbb713" fill-rule="evenodd"/>
    <path id="path-6" d="M13.082,40.042a3.875,3.875,0,0,1-3.554-5.4C16.749,17.8,29.517,6.186,42.847,4.338A3.869,3.869,0,1,1,43.909,12C33.249,13.481,22.8,23.325,16.64,37.7A3.871,3.871,0,0,1,13.082,40.042Z" transform="translate(9.711 0.332)" fill="#ededed" fill-rule="evenodd"/>
    <path id="path-7" d="M153.432,0H119.2c21.713,0,39.315,26.052,39.315,58.186h34.228C192.747,26.055,175.145,0,153.432,0Z" transform="translate(18.206)" fill-rule="evenodd" opacity="0.25"/>
    <path id="path-8" d="M.033,163.132c0,.166-.025.325-.025.491a39.314,39.314,0,0,0,39.315,39.314H162.638a39.314,39.314,0,0,0,39.315-39.314c0-.166-.023-.325-.026-.491Z" transform="translate(9 12.599)" fill="#fbb713" fill-rule="evenodd"/>
    <path id="path-9" d="M192.476,163.132h-30.8c0,.166.025.325.025.491a39.314,39.314,0,0,1-39.315,39.314h30.806A39.314,39.314,0,0,0,192.5,163.623C192.5,163.457,192.479,163.3,192.476,163.132Z" transform="translate(18.452 12.599)" fill-rule="evenodd" opacity="0.25"/>
    <path id="path-10" d="M80.793,71.254h30.8a18.825,18.825,0,0,0,18.826-18.826H61.967A18.825,18.825,0,0,0,80.793,71.254Z" transform="translate(13.785 4.049)" fill="#fff" fill-rule="evenodd"/>
    <path id="path-11" d="M114.156,52.428A18.825,18.825,0,0,1,95.33,71.253h13.691a18.824,18.824,0,0,0,18.826-18.825Z" transform="translate(16.362 4.049)" fill-rule="evenodd" opacity="0.25"/>
    <path id="path-12" d="M133.568,45.659H71.1v-25h62.466Z" transform="translate(14.491 1.595)" fill-rule="evenodd" opacity="0.35"/>
    <path id="path-13" d="M127.213,42.482H64.747v-25h62.466Z" transform="translate(14 1.35)" fill="#ff3a2f" fill-rule="evenodd"/>
    <path id="path-14" d="M118.081,148.526a16.837,16.837,0,1,0,8.356-32.621l-9.405-2.41-2.2,8.6,9.4,2.408a7.956,7.956,0,1,1-3.948,15.414l-9.4-2.409-2.2,8.6Z" transform="translate(17.393 8.765)" fill="#fff" fill-rule="evenodd"/>
    <path id="path-15" d="M53.037,111.708c0,28.652,12.881,51.879,28.769,51.879H99.418c15.888,0,28.768-23.226,28.768-51.879Z" transform="translate(13.096 8.627)" fill="#fff" fill-rule="evenodd"/>
    <path id="path-16" d="M105.692,111.708c0,27.762-12.1,50.364-27.306,51.745.488.044.968.134,1.462.134H97.461c15.888,0,28.768-23.226,28.768-51.879Z" transform="translate(15.054 8.627)" fill-rule="evenodd" opacity="0.25"/>
    <path id="path-17" d="M137.9,189.626h-82.4v-8.019h82.4Z" transform="translate(13.286 14.026)" fill="#142a3b" fill-rule="evenodd"/>
  </g>
</svg>
