<svg xmlns="http://www.w3.org/2000/svg" xmlns:xlink="http://www.w3.org/1999/xlink" preserveAspectRatio="xMidYMid" width="217" height="213" viewBox="0 0 217 213"><defs><style>.cls-3{fill:#fbb713}.cls-4{fill:#fff}.cls-5{fill:#020403;opacity:.25}.cls-7{fill:#ff3a2f}.cls-8{fill:#020403;opacity:.35}.cls-10{fill:#142a3b}.cls-11{fill:#020403}</style></defs><g id="group-72svg"><path d="M64.079 177.712s-10.38.0-10.38.0c-18.427.0-32.319-14.96-32.319-34.798V111.067C21.38 108.61 23.367 106.624 25.823 106.624H96.91C99.365 106.624 101.352 108.61 101.352 111.067v31.847c0 18.536-17.415 34.798-37.273 34.798z" id="path-1" class="cls-3" fill-rule="evenodd"/><path d="M34.175 155.06C32.179 155.06 30.561 153.442 30.561 151.445V119.598c0-4.443 3.614-8.059 8.058-8.059 1.996.0 3.614 1.619 3.614 3.616.0 1.996-1.618 3.614-3.614 3.614C38.162 118.769 37.789 119.141 37.789 119.598v31.847C37.789 153.442 36.171 155.06 34.175 155.06z" id="path-2" class="cls-4" fill-rule="evenodd"/><path d="M96.909 106.624s-16.883.0-16.883.0.0 27.761.0 27.761c0 18.534-17.416 34.797-37.274 34.797H32.373C32.275 169.182 32.18 169.167 32.081 169.167 37.729 174.518 45.222 177.712 53.699 177.712h10.38c19.858.0 37.273-16.262 37.273-34.797V111.067C101.352 108.61 99.365 106.624 96.909 106.624z" id="path-3" class="cls-5" fill-rule="evenodd"/><path d="M26.241 154.669s-11.965.0-11.965.0C7.689 154.669-.007 150.279-.007 137.907v-9.25c0-12.372 7.696-16.761 14.283-16.761H24.882s1.359 42.773 1.359 42.773zM14.276 119.125C11.06 119.125 7.222 120.779 7.222 128.657v9.25C7.222 145.786 11.06 147.441 14.276 147.441H18.78s-.901-28.316-.901-28.316-3.603.0-3.603.0z" id="path-4" class="cls-3" fill-rule="evenodd"/><path d="M212.425 213.256s-204.374.0-204.374.0C5.596 213.256 3.609 211.269 3.609 208.813V173.27C3.609 170.812 5.596 168.826 8.051 168.826H108.733S133.168 71.08 133.168 71.08s-125.117.0-125.117.0C5.596 71.08 3.609 69.093 3.609 66.637V4.435c0-2.456 1.987-4.443 4.442-4.443H212.425C214.881-.008 216.867 1.979 216.867 4.435V208.813C216.867 211.269 214.881 213.256 212.425 213.256z" id="path-5" class="cls-7" fill-rule="evenodd"/><path d="M9.71 71.08s132.293.0 132.293.0 4.393-12.796 4.393-12.796-142.787.0-142.787.0.0 8.353.0 8.353c0 2.456 2.728 4.443 6.101 4.443z" id="path-6" class="cls-8" fill-rule="evenodd"/><path d="M212.425-.008s-21.149.0-21.149.0.0 196.025.0 196.025C191.276 198.473 189.29 200.46 186.833 200.46H3.609S3.609 208.813 3.609 208.813C3.609 211.269 5.596 213.255 8.051 213.255H212.425C214.881 213.255 216.867 211.269 216.867 208.813V4.435C216.867 1.979 214.881-.008 212.425-.008z" id="path-7" class="cls-5" fill-rule="evenodd"/><path d="M65.809 88.852s-8.886.0-8.886.0.0-17.772.0-17.772 8.886.0 8.886.0.0 17.772.0 17.772z" id="path-8" class="cls-10" fill-rule="evenodd"/><path d="M198.919 204.015s-35.543.0-35.543.0C160.918 204.015 158.932 202.028 158.932 199.572V181.799C158.932 179.344 160.918 177.358 163.376 177.358h35.543C201.374 177.358 203.362 179.344 203.362 181.799v17.773C203.362 202.028 201.374 204.015 198.919 204.015z" id="path-9" class="cls-11" fill-rule="evenodd"/><path d="M194.653 195.485s-35.543.0-35.543.0C156.653 195.485 154.667 193.498 154.667 191.041V173.27C154.667 170.812 156.653 168.826 159.11 168.826h35.543C197.109 168.826 199.096 170.812 199.096 173.27v17.771C199.096 193.498 197.109 195.485 194.653 195.485z" id="path-10" class="cls-10" fill-rule="evenodd"/></g></svg>