<svg xmlns="http://www.w3.org/2000/svg" xmlns:xlink="http://www.w3.org/1999/xlink" preserveAspectRatio="xMidYMid" width="216" height="154" viewBox="0 0 216 154"><defs><style>.cls-3{fill:#fbb713}.cls-4{fill:#000;opacity:.25}.cls-12{fill:#ededed}</style></defs><g id="group-131svg"><path d="M215.516 106.42C215.121 87.95 167.152 83.002 138.741 83.002 110.331 83.002 62.362 87.95 61.966 106.42H61.931s0 23.854.0 23.854c0 18.612 48.283 23.575 76.81 23.575 28.528.0 76.811-4.99199999999999 76.811-23.686V106.42S215.516 106.42 215.516 106.42z" id="path-1" class="cls-3" fill-rule="evenodd"/><path d="M215.516 106.42C215.121 87.95 167.152 83.002 138.741 83.002 110.331 83.002 62.362 87.95 61.966 106.42H61.931s0 23.854.0 23.854c0 18.612 48.283 23.575 76.81 23.575 28.528.0 76.811-4.99199999999999 76.811-23.686V106.42S215.516 106.42 215.516 106.42z" id="path-2" class="cls-4" fill-rule="evenodd"/><path d="M138.741 130.268c-28.527.0-76.81-4.974-76.81-23.629.0-18.658 48.283-23.637 76.81-23.637 28.528.0 76.811 4.979 76.811 23.637.0 18.655-48.283 23.629-76.811 23.629z" id="path-3" class="cls-3" fill-rule="evenodd"/><path d="M186.162 63.309C185.768 44.838 137.798 39.89 109.388 39.89c-28.41.0-76.38 4.948-76.775 23.419H32.577s0 23.852.0 23.852c0 18.613 48.283 23.576 76.811 23.576C137.915 110.737 186.199 105.745 186.199 87.052V63.309S186.162 63.309 186.162 63.309z" id="path-4" class="cls-3" fill-rule="evenodd"/><path d="M186.162 63.309C185.768 44.838 137.798 39.89 109.388 39.89c-28.41.0-76.38 4.948-76.775 23.419H32.577s0 23.852.0 23.852c0 18.613 48.283 23.576 76.811 23.576C137.915 110.737 186.199 105.745 186.199 87.052V63.309S186.162 63.309 186.162 63.309z" id="path-5" class="cls-4" fill-rule="evenodd"/><path d="M109.388 87.156C80.86 87.156 32.577 82.181 32.577 63.528c0-18.659 48.283-23.638 76.811-23.638 28.527.0 76.811 4.979 76.811 23.638.0 18.653-48.284 23.628-76.811 23.628z" id="path-6" class="cls-3" fill-rule="evenodd"/><path d="M153.598 23.407C153.203 4.936 105.234-.012 76.824-.012S.444 4.936.049 23.407H.013s0 23.852.0 23.852c0 18.614 48.283 23.577 76.811 23.577 28.527.0 76.81-4.991 76.81-23.686V23.407S153.598 23.407 153.598 23.407z" id="path-7" class="cls-3" fill-rule="evenodd"/><path d="M153.598 23.407C153.203 4.936 105.234-.012 76.824-.012S.444 4.936.049 23.407H.013s0 23.852.0 23.852c0 18.614 48.283 23.577 76.811 23.577 28.527.0 76.81-4.991 76.81-23.686V23.407S153.598 23.407 153.598 23.407z" id="path-8" class="cls-4" fill-rule="evenodd"/><path d="M76.824 47.255C48.296 47.255.012 42.281.012 23.627.012 4.967 48.296-.012 76.824-.012c28.527.0 76.81 4.979 76.81 23.639.0 18.654-48.283 23.628-76.81 23.628z" id="path-9" class="cls-3" fill-rule="evenodd"/><path d="M19.197 32.599c-1.984.0-3.593-1.608-3.593-3.591.0-20.435 51.38-21.471 61.679-21.471C79.267 7.537 80.875 9.146 80.875 11.13c0 1.983-1.608 3.592-3.592 3.592-26.787.0-54.494 5.342-54.494 14.286.0 1.983-1.608 3.591-3.592 3.591z" id="path-10" class="cls-12" fill-rule="evenodd"/></g></svg>