<svg xmlns="http://www.w3.org/2000/svg" preserveAspectRatio="xMidYMid" width="216" height="123"><defs><style>.cls-3{fill:#3c9cc3}.cls-5{fill:#000;opacity:.35}.cls-9{fill:#3c9cc3}</style></defs><g id="group-118svg"><path d="M107.776 97.661c50.766.0 91.921-41.154 91.921-91.917H15.855c0 50.763 41.155 91.917 91.921 91.917z" id="path-1" class="cls-3" fill-rule="evenodd"/><path d="M107.776 97.661c-12.845.0-25.07-2.642-36.173-7.401l-5.982 19.739c-1.894 6.25 2.784 12.557 9.316 12.557h66.423c6.305.0 10.946-5.902 9.46-12.028l-5.107-21.066a91.522 91.522.0 01-37.937 8.199z" id="path-2" class="cls-3" fill-rule="evenodd"/><path d="M68.909 99.147a91.569 91.569.0 0038.867 8.616c14.395.0 28.012-3.313 40.142-9.21l-2.205-9.091a91.538 91.538.0 01-37.937 8.199c-12.845.0-25.071-2.642-36.174-7.401l-2.693 8.887z" id="path-3" class="cls-5" fill-rule="evenodd"/><path d="M207.676 7.021H7.876a3.511 3.511.0 010-7.023h199.8a3.512 3.512.0 010 7.023z" id="path-4" class="cls-3" fill-rule="evenodd"/><path d="M5.142 24.864h21.426a5.136 5.136.0 100-10.272H5.142a5.135 5.135.0 000 10.272z" id="path-5" class="cls-3" fill-rule="evenodd"/><path d="M188.984 24.864h21.426a5.136 5.136.0 100-10.272h-21.426a5.136 5.136.0 000 10.272z" id="path-6" class="cls-3" fill-rule="evenodd"/><path d="M66.313 29.346a4.483 4.483.0 11-8.966.0 4.483 4.483.0 018.966.0z" id="path-7" class="cls-9" fill-rule="evenodd"/><path d="M40.779 29.346a4.483 4.483.0 11-8.966.0 4.483 4.483.0 018.966.0z" id="path-8" class="cls-9" fill-rule="evenodd"/><path d="M99.506 29.346a4.482 4.482.0 11-8.964.002 4.482 4.482.0 018.964-.002z" id="path-9" class="cls-9" fill-rule="evenodd"/><path d="M168.447 29.346a4.482 4.482.0 11-8.964.002 4.482 4.482.0 018.964-.002z" id="path-10" class="cls-9" fill-rule="evenodd"/><path d="M122.487 49.773a4.483 4.483.0 11-8.965-.001 4.483 4.483.0 018.965.001z" id="path-11" class="cls-9" fill-rule="evenodd"/><path d="M89.293 49.773a4.483 4.483.0 11-8.965-.001 4.483 4.483.0 018.965.001z" id="path-12" class="cls-9" fill-rule="evenodd"/><path d="M163.341 49.773a4.484 4.484.0 11-8.967-.003 4.484 4.484.0 018.967.003z" id="path-13" class="cls-9" fill-rule="evenodd"/><path d="M142.914 67.646a4.481 4.481.0 01-4.483 4.482 4.483 4.483.0 114.483-4.482z" id="path-14" class="cls-9" fill-rule="evenodd"/><path d="M109.72 70.2a4.483 4.483.0 11-8.967-.003 4.483 4.483.0 018.967.003z" id="path-15" class="cls-9" fill-rule="evenodd"/><path d="M58.653 49.773a4.483 4.483.0 11-8.965-.001 4.483 4.483.0 018.965.001z" id="path-16" class="cls-9" fill-rule="evenodd"/><path d="M140.36 31.9a4.483 4.483.0 11-8.965.0 4.483 4.483.0 018.965.0z" id="path-17" class="cls-9" fill-rule="evenodd"/><path d="M61.83 24.864c-.597.0-1.162.127-1.684.339a4.475 4.475.0 012.799 4.143 4.475 4.475.0 01-2.799 4.144 4.478 4.478.0 001.684.339 4.483 4.483.0 100-8.965z" id="path-18" class="cls-5" fill-rule="evenodd"/><path d="M36.296 24.864c-.597.0-1.163.127-1.684.339a4.474 4.474.0 012.8 4.143 4.475 4.475.0 01-2.8 4.144 4.474 4.474.0 001.684.339 4.483 4.483.0 100-8.965z" id="path-19" class="cls-5" fill-rule="evenodd"/><path d="M95.024 24.864c-.598.0-1.163.127-1.684.339a4.475 4.475.0 012.799 4.143A4.475 4.475.0 0193.34 33.49a4.47 4.47.0 001.684.339 4.482 4.482.0 000-8.965z" id="path-20" class="cls-5" fill-rule="evenodd"/><path d="M163.964 24.864c-.597.0-1.162.127-1.684.339a4.474 4.474.0 012.8 4.143 4.475 4.475.0 01-2.8 4.144 4.478 4.478.0 001.684.339 4.482 4.482.0 100-8.965z" id="path-21" class="cls-5" fill-rule="evenodd"/><path d="M118.004 45.289c-.598.0-1.162.129-1.684.342a4.47 4.47.0 012.799 4.142 4.473 4.473.0 01-2.799 4.143 4.455 4.455.0 001.684.339 4.483 4.483.0 100-8.966z" id="path-22" class="cls-5" fill-rule="evenodd"/><path d="M84.81 45.289c-.597.0-1.162.129-1.683.342a4.472 4.472.0 012.799 4.142 4.474 4.474.0 01-2.799 4.143 4.45 4.45.0 001.683.339 4.483 4.483.0 100-8.966z" id="path-23" class="cls-5" fill-rule="evenodd"/><path d="M158.858 45.289c-.598.0-1.163.129-1.684.342a4.47 4.47.0 012.799 4.142 4.473 4.473.0 01-2.799 4.143 4.451 4.451.0 001.684.339 4.483 4.483.0 100-8.966z" id="path-24" class="cls-5" fill-rule="evenodd"/><path d="M138.431 63.163c-.597.0-1.163.128-1.684.34a4.474 4.474.0 012.799 4.143 4.473 4.473.0 01-2.799 4.143 4.474 4.474.0 001.684.339 4.483 4.483.0 100-8.965z" id="path-25" class="cls-5" fill-rule="evenodd"/><path d="M105.237 65.717c-.597.0-1.163.128-1.684.34a4.474 4.474.0 012.8 4.143 4.471 4.471.0 01-2.8 4.141 4.437 4.437.0 001.684.341 4.483 4.483.0 000-8.965z" id="path-26" class="cls-5" fill-rule="evenodd"/><path d="M54.17 45.289c-.597.0-1.163.129-1.684.342a4.47 4.47.0 012.799 4.142 4.473 4.473.0 01-2.799 4.143 4.455 4.455.0 001.684.339 4.483 4.483.0 100-8.966z" id="path-27" class="cls-5" fill-rule="evenodd"/><path d="M135.878 27.418c-.597.0-1.163.127-1.685.339a4.472 4.472.0 012.8 4.143 4.473 4.473.0 01-2.8 4.143c.522.212 1.088.34 1.685.34a4.483 4.483.0 000-8.965z" id="path-28" class="cls-5" fill-rule="evenodd"/><path d="M198.639 19.727c.634-4.148.967-8.396 1.026-12.706H15.887c.059 4.31-.339 2.203.294 6.353l182.458 6.353z" id="path-29" class="cls-5" fill-rule="evenodd"/></g></svg>