<svg xmlns="http://www.w3.org/2000/svg" xmlns:xlink="http://www.w3.org/1999/xlink" preserveAspectRatio="xMidYMid" width="218" height="218" viewBox="0 0 218 218"><defs><style>.cls-3{fill:#db2c3f}.cls-4{fill:#ff3a2f}.cls-5{fill:#fff}.cls-6{fill:#010101;opacity:.35}.cls-8{fill:#142a3b}.cls-9{fill:#0cb04a}</style></defs><g id="group-159svg"><path d="M100.068 117.341s61.38 36.648 61.38 36.648-36.646-61.381-36.646-61.381S125.02 92.39 125.02 92.39 124.479 92.067 124.479 92.067 124.156 91.527 124.156 91.527 123.939 91.746 123.939 91.746 62.56 55.098 62.56 55.098s36.646 61.38 36.646 61.38S98.988 116.696 98.988 116.696 99.528 117.018 99.528 117.018 99.851 117.559 99.851 117.559 100.068 117.341 100.068 117.341z" id="path-1" class="cls-3" fill-rule="evenodd"/><path d="M216.859 108.43c0 59.89-48.549 108.439-108.437 108.439C48.534 216.869-.015 168.32-.015 108.43-.015 48.54 48.534-.01 108.422-.01S216.859 48.54 216.859 108.43z" id="path-2" class="cls-4" fill-rule="evenodd"/><path d="M186.372 108.43c0 43.052-34.899 77.951-77.95 77.951-43.051.0-77.95-34.899-77.95-77.951.0-43.052 34.899-77.952 77.95-77.952s77.95 34.9 77.95 77.952z" id="path-3" class="cls-5" fill-rule="evenodd"/><path d="M108.422 30.478c-13.281.0-25.775 3.34-36.72 9.198C71.691 39.682 71.68 39.687 71.669 39.694 80.465 36.254 90.039 34.364 100.055 34.364c43.05.0 77.949 34.898 77.949 77.951.0 28.033-14.801 52.608-37.013 66.343C143.605 177.636 146.122 176.432 148.589 175.144c22.612-13.647 37.783-38.377 37.783-66.715.0-43.05-34.899-77.951-77.95-77.951z" id="path-4" class="cls-6" fill-rule="evenodd"/><path d="M55.642 56.499S163.734 164.594 163.734 164.594s-32.198-77.046-32.198-77.046S55.642 56.499 55.642 56.499z" id="path-5" class="cls-6" fill-rule="evenodd"/><path d="M95.407 120.583s62.459 37.291 62.459 37.291-37.291-62.46-37.291-62.46-25.168 25.169-25.168 25.169z" id="path-6" class="cls-8" fill-rule="evenodd"/><path d="M96.269 121.447S58.978 58.985 58.978 58.985s62.46 37.292 62.46 37.292-25.169 25.17-25.169 25.17z" id="path-7" class="cls-9" fill-rule="evenodd"/></g></svg>