<svg xmlns="http://www.w3.org/2000/svg" xmlns:xlink="http://www.w3.org/1999/xlink" preserveAspectRatio="xMidYMid" width="217" height="116" viewBox="0 0 217 116"><defs><style>.cls-3{fill:#142a3b}.cls-4{fill:#fbb713}.cls-5{fill:#020403;opacity:.35}.cls-9{fill:#ff3a2f}.cls-10{fill:#fff}</style></defs><g id="group-70svg"><path d="M.015 81.679c0-18.543 15.089-33.631 33.63-33.631 18.544.0 33.631 15.088 33.631 33.631.0 18.542-15.087 33.631-33.631 33.631-18.541.0-33.63-15.089-33.63-33.631z" id="path-1" class="cls-3" fill-rule="evenodd"/><path d="M19.233 81.679C19.233 73.731 25.697 67.265 33.645 67.265S48.059 73.731 48.059 81.679C48.059 89.627 41.593 96.093 33.645 96.093 25.697 96.093 19.233 89.627 19.233 81.679z" id="path-2" class="cls-4" fill-rule="evenodd"/><path d="M38.31 48.41c10.317 5.75 17.321 16.761 17.321 29.387.0 18.542-15.089 33.631-33.631 33.631C20.413 111.428 18.863 111.28 17.335 111.066 22.171 113.761 27.728 115.31 33.645 115.31c18.543.0 33.631-15.089 33.631-33.631.0-16.956-12.628-30.986-28.966-33.269z" id="path-3" class="cls-5" fill-rule="evenodd"/><path d="M41.707 69.736C43.265 72.038 44.177 74.813 44.177 77.797c0 7.947-6.466 14.413-14.413 14.413C26.78 92.21 24.006 91.299 21.704 89.741c2.592 3.83 6.977 6.352 11.941 6.352C41.593 96.093 48.059 89.627 48.059 81.679c0-4.964-2.522-9.349-6.352-11.943z" id="path-4" class="cls-5" fill-rule="evenodd"/><path d="M178.702 95.826C178.02 95.826 177.325 95.74 176.636 95.573L128.599 83.11s36.654-59.297 36.654-59.297 21.391 60.799 21.391 60.799C187.678 87.549 187.011 90.804 184.901 93.102 183.317 94.832 181.056 95.826 178.702 95.826zM139.901 78.574s38.801 10.022 38.801 10.022C179.036 88.596 179.351 88.458 179.573 88.216 179.875 87.886 179.971 87.426 179.824 87.01L163.453 40.475s-23.552 38.099-23.552 38.099z" id="path-5" class="cls-3" fill-rule="evenodd"/><path d="M213.274 7.498s-28.469.0-28.469.0C182.809 7.498 181.19 5.88 181.19 3.884 181.19 1.887 182.809.269 184.805.269h28.469C215.271.269 216.889 1.887 216.889 3.884 216.889 5.88 215.271 7.498 213.274 7.498z" id="path-6" class="cls-3" fill-rule="evenodd"/><path d="M134.538 86.483C136.153 86.483 137.654 85.677 138.546 84.335L194.379.002s-14.48.0-14.48.0-139.328.0-139.328.0c-2.656.0-4.804 2.148-4.804 4.805V19.22C35.767 20.196 36.058 21.135 36.611 21.941l42.79 62.46C80.33 85.751 81.83 86.483 83.361 86.483h51.177z" id="path-7" class="cls-9" fill-rule="evenodd"/><path d="M78.926 64.65C77.772 64.65 76.639 64.101 75.939 63.078L49.157 23.983C48.191 22.573 47.68 20.926 47.68 19.22V8.688c0-1.995 1.619-3.613 3.615-3.613 1.996.0 3.615 1.618 3.615 3.613V19.22C54.91 19.465 54.98 19.694 55.122 19.898L81.905 58.993C83.032 60.639 82.612 62.888 80.963 64.017 80.34 64.446 79.629 64.65 78.926 64.65z" id="path-8" class="cls-10" fill-rule="evenodd"/><path d="M111.247 78.72C112.86 78.72 114.362 77.912 115.253 76.571L165.946.002s13.953.0 13.953.0 14.48.0 14.48.0-55.833 84.333-55.833 84.333C137.654 85.677 136.153 86.483 134.538 86.483H83.361C81.83 86.483 80.33 85.751 79.401 84.401L75.508 78.72s35.739.0 35.739.0z" id="path-9" class="cls-5" fill-rule="evenodd"/></g></svg>