<svg xmlns="http://www.w3.org/2000/svg" xmlns:xlink="http://www.w3.org/1999/xlink" preserveAspectRatio="xMidYMid" width="217" height="207" viewBox="0 0 217 207"><defs><style>.cls-3{fill:#ff3a2f}.cls-4{fill:#010101;opacity:.35}.cls-14{fill:#fff}</style></defs><g id="group-156svg"><path d="M216.239 135.487C215.339 133.16 213.598 131.33 211.339 130.331l-16.93-7.517C191.858 121.685 188.799 121.798 186.338 123.108 184.08 122.023 181.449 121.738 178.987 122.341L159.329 127.254S156.2 112.818 156.2 112.818C156.797 112.759 157.412 112.638 158.117 112.445l20.874-8.625C179.806 103.614 180.75 103.358 181.689 103.044 181.873 103.142 182.061 103.221 182.241 103.299L182.702 103.494S203.084 101.671 203.084 101.671C204.001 102.361 204.785 103.914 205.38 105.101 206.21 106.722 206.991 108.25 208.701 108.25 210.442 108.25 211.193 106.557 211.512 105.828 212.517 103.547 212.577 101.017 211.684 98.71 210.792 96.395 209.043 94.563 206.772 93.55L189.831 86.034C187.272 84.927 184.237 85.028 181.772 86.33 179.505 85.232 176.845 84.949 174.433 85.561l-21.962 5.482C152.246 91.101 152.021 91.164 151.784 91.243L157.491 87.205C158.842 86.248 159.926 84.949 160.636 83.458 162.902 81.946 164.463 79.664 165.045 77.018L167.029 68.069C176.026 50.598 176.759 35.431 169.201 23.001 160.628 8.887 143.173 2.819 138.797 2.819 136.707 2.819 136.276 4.219 136.194 4.646 135.789 6.74 138.204 7.701 139.976 8.41 144.171 10.096 147.018 12.665 148.444 16.043 150.992 22.145 148.201 29.195 148.201 29.195 147.301 30.762 146.52 30.762 146.261 30.762 143.45 30.762 138.782 24.892 136.363 20.719L134.587 17.672s-1.744 3.057-1.744 3.057c-3.595 6.297-4.41 12.818-2.428 19.378C133.586 50.594 142.941 58.159 147.252 61.183 146.944 61.859 146.707 62.553 146.553 63.266l-2.048 9.222C144.478 72.612 144.46 72.733 144.44 72.861l-7.773 5.515C136.611 78.418 136.554 79.897 136.498 79.939 135.151 79.676 133.874 80.99 132.603 80.99H85.854C85.321 80.99 84.791 79.572 84.251 79.623 83.583 78.58 82.751 76.984 81.761 76.292l-7.798-5.889C73.948 70.283 73.921 69.971 73.899 69.832L71.847 60.531C71.689 59.813 71.452 59.071 71.149 58.403c5.328-3.793 25.958-20.3 14.408-40.479L83.82 14.854S82.046 17.895 82.046 17.895C79.622 22.064 74.942 27.937 72.132 27.937 71.873 27.937 71.104 27.934 70.312 26.595 70.016 25.845 67.505 19.101 69.959 13.221 71.381 9.833 74.234 7.262 78.425 5.577 80.188 4.876 82.604 3.908 82.207 1.814 82.12 1.386 81.685-.009 79.598-.009c-4.371.0-21.815 6.07-30.396 20.179-7.564 12.44-6.833 27.602 2.18 45.069L53.356 74.193C53.948 76.834 55.517 79.116 57.767 80.628 58.466 82.117 59.551 83.412 60.917 84.387l6.862 4.864C67.723 89.37 67.66 89.49 67.603 89.61 66.619 88.972 65.532 88.493 64.349 88.193L42.395 82.73C39.972 82.117 37.33 82.392 35.044 83.476 32.576 82.17 29.507 82.077 26.971 83.194L10.06 90.698C7.8 91.697 6.07 93.513 5.189 95.816 4.269 98.189 4.356 100.815 5.417 103.201 6.052 104.661 6.959 105.397 8.126 105.397 9.846 105.397 10.618 103.881 11.463 102.214c.573-1.151 1.357-2.708 2.284-3.398L33.993 100.639S34.148 100.649 34.148 100.649 34.629 100.433 34.629 100.433C34.797 100.358 34.966 100.279 35.124 100.189 35.923 100.466 36.782 100.714 37.563 100.879L58.988 109.693C60.098 109.979 61.269 110.073 62.474 109.968l-3.659 14.761s-20.982-5.22-20.982-5.22C35.401 118.882 32.752 119.167 30.475 120.249 27.998 118.961 24.939 118.859 22.415 119.96L5.492 127.483C3.203 128.496 1.466 130.342.592 132.68-.29 135.036-.192 137.629.847 139.993 1.482 141.454 2.389 142.188 3.553 142.188 5.286 142.188 6.063 140.639 6.888 138.991 7.432 137.91 8.239 136.301 9.181 135.595L29.447 137.419S29.6 137.432 29.6 137.432 30.092 137.205 30.092 137.205C30.25 137.131 30.404 137.051 30.565 136.969 31.593 137.322 32.569 137.565 33 137.659l21.406 8.81C54.991 146.616 55.604 146.705 56.248 146.746 57.202 149.118 58.673 151.925 60.549 154.908L47.69 162.635C45.491 163.967 43.886 165.949 43.037 168.365 40.339 169.212 38.144 171.25 37.123 173.872l-6.641 17.273C29.574 193.466 29.638 195.992 30.64 198.263 31.664 200.578 33.533 202.312 36.047 203.283 36.606 203.492 37.139 203.602 37.634 203.602 38.939 203.602 39.589 202.848 39.753 202.62 40.636 201.404 40.183 200.038 39.604 198.308 39.221 197.149 38.651 195.434 38.827 194.277l15.624-13.054S54.571 181.123 54.571 181.123 54.76 180.597 54.76 180.597C54.812 180.442 54.861 180.281 54.908 180.127 55.656 179.764 56.414 179.339 57.123 178.905l16.987-8.78c6.48 6.352 11.966 7.862 16.317 7.862h40.652C134.677 177.987 138.7 177.482 143.045 173.118L159.412 180.777C160.361 181.343 161.161 182.214 161.889 182.566 161.941 182.736 161.994 183.122 162.061 183.295L162.197 183.754s15.77 13.322 15.77 13.322C178.144 198.243 177.576 199.985 177.187 201.14 176.624 202.87 176.173 204.249 177.048 205.457 177.321 205.844 177.96 206.48 179.119 206.48 179.637 206.48 180.173 206.361 180.991 206.049 185.782 204.184 188.173 198.779 186.32 194.002l-6.642-17.271C178.661 174.112 176.47 172.072 173.765 171.22 172.928 168.814 171.288 166.792 169.115 165.487L155.525 157.324C156.992 154.619 158.245 152.037 159.258 149.622 160.361 149.681 161.385 149.587 162.666 149.239L183.55 140.616C184.416 140.391 185.347 140.14 186.245 139.828 186.402 139.91 186.563 139.993 186.729 140.065L187.208 140.283S207.621 138.455 207.621 138.455C208.567 139.148 209.377 140.762 209.925 141.851 210.747 143.489 211.523 145.029 213.249 145.029 215.001 145.029 215.737 143.344 216.055 142.616 217.073 140.338 217.132 137.806 216.239 135.487z" id="path-1" class="cls-3" fill-rule="evenodd"/><path d="M138.716 26.99C138.924 26.99 139.477 26.947 140.154 26.125 138.704 24.376 137.346 22.414 136.363 20.719L134.587 17.672s-1.744 3.057-1.744 3.057C132.619 21.122 132.439 21.518 132.236 21.912 134.451 24.67 136.949 26.99 138.716 26.99z" id="path-2" class="cls-4" fill-rule="evenodd"/><path d="M161.656 19.226C169.213 31.659 168.482 46.825 159.484 64.296L157.499 73.245C156.917 75.891 155.356 78.172 153.09 79.684 152.381 81.178 151.297 82.477 149.946 83.433L144.239 87.47C144.476 87.39 144.7 87.327 144.926 87.271L160.826 83.302C162.98 81.791 164.48 79.583 165.045 77.018L167.029 68.069C176.026 50.598 176.759 35.431 169.201 23.001c-5.697-9.38-15.301-15.186-22.399-18.04C152.221 8.231 157.824 12.921 161.656 19.226z" id="path-3" class="cls-4" fill-rule="evenodd"/><path d="M51.442 105.92s-21.425-8.813-21.425-8.813C29.236 96.941 28.378 96.693 27.578 96.415 27.421 96.505 27.252 96.584 27.083 96.659L26.603 96.877S26.449 96.865 26.449 96.865 6.202 95.041 6.202 95.041C5.773 95.363 5.378 95.876 5.016 96.442c-.683 2.203-.57 4.578.401 6.759C6.052 104.661 6.959 105.397 8.126 105.397 9.846 105.397 10.618 103.881 11.463 102.214 12.036 101.063 12.82 99.504 13.747 98.815l20.246 1.824S34.148 100.649 34.148 100.649 34.629 100.433 34.629 100.433C34.797 100.358 34.966 100.279 35.124 100.189 35.923 100.466 36.782 100.714 37.563 100.879L54.517 107.853S54.928 106.194 54.928 106.194C53.724 106.3 52.553 106.205 51.442 105.92z" id="path-4" class="cls-4" fill-rule="evenodd"/><path d="M148.655 109.046S151.784 123.481 151.784 123.481 158.166 121.886 158.166 121.886 156.2 112.818 156.2 112.818C156.797 112.759 157.412 112.638 158.117 112.445l20.874-8.624C179.806 103.614 180.75 103.358 181.689 103.044 181.873 103.142 182.061 103.221 182.241 103.299L182.702 103.494s15.548-1.39 15.548-1.39C198.111 101.846 197.972 101.595 197.836 101.327 197.238 100.141 196.455 98.589 195.539 97.898l-20.381 1.824S174.695 99.526 174.695 99.526C174.515 99.448 174.327 99.368 174.144 99.27 173.206 99.586 172.26 99.842 171.446 100.048L150.573 108.671C149.867 108.866 149.252 108.987 148.655 109.046z" id="path-5" class="cls-4" fill-rule="evenodd"/><path d="M80.533 20.264c4.871 17.342-12.15 31.006-16.93 34.408C63.908 55.34 64.144 56.127 64.301 56.843l2.053 9.387C66.375 66.37 66.402 66.85 66.417 66.971L74.215 73.2C75.205 73.895 76.038 76.173 76.706 77.217 77.247 77.164 77.775 79.95 78.308 79.95H83.684C83.129 78.846 82.488 77.483 81.761 76.974l-7.798-6.23C73.948 70.624 73.921 70.142 73.899 70.003l-2.053-9.388C71.689 59.899 71.452 59.112 71.149 58.445c5.328-3.793 25.958-20.321 14.408-40.5L83.82 14.864S82.046 17.901 82.046 17.901C81.611 18.647 81.089 19.452 80.533 20.264z" id="path-6" class="cls-4" fill-rule="evenodd"/><path d="M162.666 149.239S183.55 140.616 183.55 140.616C184.416 140.391 185.347 140.14 186.245 139.828 186.402 139.91 186.563 139.993 186.729 140.065L187.208 140.283S202.803 138.886 202.803 138.886C202.662 138.62 202.519 138.357 202.379 138.079 201.832 136.991 201.021 135.376 200.076 134.682l-20.413 1.827S179.184 136.291 179.184 136.291C179.018 136.219 178.856 136.138 178.699 136.055 177.802 136.367 176.872 136.618 176.005 136.844L155.119 145.466C153.84 145.814 152.816 145.908 151.713 145.848 150.7 148.265 149.447 150.847 147.98 153.552L161.57 161.714C163.743 163.02 165.382 165.042 166.219 167.447 168.924 168.299 171.116 170.34 172.132 172.959l6.642 17.272C179.892 193.112 179.445 196.209 177.881 198.633 177.723 199.518 177.43 200.449 177.187 201.171 176.624 202.9 176.173 204.264 177.048 205.472 177.321 205.858 177.96 206.488 179.119 206.488 179.637 206.488 180.173 206.363 180.991 206.053 185.782 204.187 188.173 198.782 186.319 194.005L179.678 176.731C178.661 174.113 176.47 172.072 173.765 171.22 172.928 168.814 171.288 166.792 169.115 165.487L155.525 157.324C156.992 154.619 158.245 152.038 159.258 149.622 160.361 149.681 161.385 149.587 162.666 149.239z" id="path-7" class="cls-4" fill-rule="evenodd"/><path d="M153.085 176.278C152.358 175.925 134.242 168.266 134.242 168.266 129.897 172.63 125.875 175.046 122.276 175.046H81.625C80.951 175.046 80.24 174.936 79.513 174.773 83.165 177.42 86.4 178.82 89.17 178.82h40.652C133.421 178.82 138.7 177.95 143.045 173.586L152.247 177.76C152.188 177.605 153.134 176.433 153.085 176.278z" id="path-8" class="cls-4" fill-rule="evenodd"/><path d="M62.414 9.45C59.96 15.329 62.47 22.075 62.767 22.824 63.558 24.165 64.328 24.167 64.587 24.167 65.83 24.167 67.44 22.987 69.058 21.345 68.765 18.914 68.808 15.983 69.959 13.221 71.381 9.835 74.234 7.262 78.425 5.578 80.188 4.876 82.604 3.908 82.207 1.814 82.12 1.386 81.685-.009 79.598-.009 77.364-.009 71.712 1.588 65.577 5.024 64.18 6.293 63.119 7.769 62.414 9.45z" id="path-9" class="cls-4" fill-rule="evenodd"/><path d="M66.564 168.266S49.578 175.131 49.578 175.131C48.869 175.566 48.111 175.991 47.364 176.355 47.315 176.508 47.266 176.67 47.214 176.823L47.026 177.348S46.906 177.45 46.906 177.45s-15.624 13.055-15.624 13.055C31.105 191.66 31.676 193.375 32.058 194.536 32.636 196.265 33.09 197.631 32.209 198.847 32.111 198.98 31.822 199.285 31.356 199.523 32.44 201.202 34.02 202.5 36.047 203.283 36.606 203.492 37.139 203.602 37.634 203.602 38.939 203.602 39.589 202.848 39.753 202.62 40.636 201.404 40.183 200.037 39.604 198.308 39.221 197.149 38.651 195.434 38.827 194.277l15.624-13.054S54.571 181.122 54.571 181.122 54.759 180.596 54.759 180.596C54.812 180.442 54.861 180.281 54.91 180.127 55.656 179.764 56.414 179.339 57.123 178.905L74.11 170.592C72.425 169.268 68.413 170.08 66.564 168.266z" id="path-10" class="cls-4" fill-rule="evenodd"/><path d="M29.6 137.432S30.092 137.205 30.092 137.205C30.25 137.13 30.404 137.051 30.564 136.969 31.593 137.322 32.569 137.565 33 137.659l16.369 6.737C49.159 143.93 48.879 143.413 48.704 142.975 48.057 142.934 47.446 142.843 46.861 142.697L25.455 133.886C25.023 133.793 24.048 133.549 23.02 133.195 22.857 133.279 22.704 133.358 22.547 133.432L22.055 133.657S21.902 133.647 21.902 133.647 1.635 131.822 1.635 131.822C1.206 132.145.809 132.664.448 133.226-.231 135.435-.114 137.807.847 139.993 1.482 141.454 2.389 142.188 3.552 142.188 5.286 142.188 6.063 140.639 6.888 138.991 7.432 137.91 8.239 136.301 9.181 135.595L29.447 137.419S29.6 137.432 29.6 137.432z" id="path-11" class="cls-4" fill-rule="evenodd"/><circle id="circle-1" class="cls-14" cx="90" cy="96" r="5"/><circle id="circle-2" class="cls-14" cx="89" cy="155" r="12"/><circle id="circle-3" class="cls-14" cx="78" cy="136" r="7"/><circle id="circle-4" class="cls-14" cx="130" cy="96" r="5"/><path d="M216.239 135.487C215.339 133.16 213.598 131.33 211.339 130.33L205.935 127.932C207.141 128.932 208.11 130.203 208.695 131.714 209.587 134.033 209.527 136.566 208.511 138.842 208.47 138.935 208.401 139.07 208.347 139.186 208.979 139.979 209.524 141.054 209.925 141.851 210.747 143.489 211.523 145.029 213.249 145.029 215.001 145.029 215.737 143.344 216.055 142.616 217.073 140.338 217.132 137.806 216.239 135.487z" id="path-12" class="cls-4" fill-rule="evenodd"/><path d="M204.139 94.937C205.033 97.246 204.972 99.773 203.966 102.056 203.925 102.149 203.855 102.287 203.798 102.406 204.41 103.185 204.947 104.236 205.38 105.101 206.21 106.722 206.991 108.25 208.701 108.25 210.442 108.25 211.193 106.557 211.512 105.828 212.517 103.547 212.577 101.017 211.684 98.71 210.792 96.395 209.042 94.563 206.772 93.55L201.369 91.154C202.584 92.159 203.558 93.43 204.139 94.937z" id="path-13" class="cls-4" fill-rule="evenodd"/></g></svg>