<svg xmlns="http://www.w3.org/2000/svg" xmlns:xlink="http://www.w3.org/1999/xlink" preserveAspectRatio="xMidYMid" width="216" height="186" viewBox="0 0 216 186"><defs><style>.cls-3{fill:#0cb04a}.cls-4{fill:#ededed}.cls-5{fill:#000;opacity:.35}.cls-6{fill:#ff3a2f}.cls-8{fill:#142a3b}</style></defs><g id="group-61svg"><path d="M199.39 126.222C197.723 77.035 157.35 37.668 107.758 37.668c-49.593.0-89.965 39.367-91.632 88.554H199.39z" id="path-1" class="cls-3" fill-rule="evenodd"/><path d="M45.081 90.96C44.565 90.96 44.041 90.85 43.544 90.615 41.751 89.766 40.987 87.624 41.836 85.83 52.4 63.526 75.163 49.115 99.827 49.115 101.811 49.115 103.419 50.724 103.419 52.708 103.419 54.691 101.811 56.3 99.827 56.3c-21.901.0-42.115 12.798-51.498 32.607-.613 1.295-1.905 2.053-3.248 2.053z" id="path-2" class="cls-4" fill-rule="evenodd"/><path d="M118.332 38.296C129.666 44.934 139.448 53.937 147 64.627 161.747 85.501 146.978 114.327 121.419 114.327H17.329C16.686 118.217 16.263 122.182 16.126 126.222H199.39c-1.547-45.636-36.422-82.797-81.058-87.926z" id="path-3" class="cls-5" fill-rule="evenodd"/><path d="M215.528 184.892s-215.54.0-215.54.0.0-63.462.0-63.462 215.54.0 215.54.0.0 63.462.0 63.462z" id="path-4" class="cls-6" fill-rule="evenodd"/><path d="M187.771 121.429s0 7.5.0 7.5c0 24.339-19.731 44.069-44.07 44.069H-.012s0 11.895.0 11.895 215.54.0 215.54.0.0-63.464.0-63.464-27.757.0-27.757.0z" id="path-5" class="cls-5" fill-rule="evenodd"/><path d="M126.921 19.163C126.921 29.745 118.341 38.325 107.758 38.325s-19.163-8.58-19.163-19.162C88.595 8.58 97.175.0 107.758.0s19.163 8.58 19.163 19.163z" id="path-6" class="cls-8" fill-rule="evenodd"/><path d="M104.685 15.198c0 2.681-2.17400000000001 4.857-4.858 4.857-2.682.0-4.857-2.176-4.857-4.857.0-2.683 2.175-4.857 4.857-4.857 2.684.0 4.858 2.174 4.858 4.857z" id="path-7" class="cls-4" fill-rule="evenodd"/><path d="M111.994.506c4.239 3.515 6.996 8.755 6.996 14.691C118.99 25.781 110.411 34.36 99.827 34.36 98.367 34.36 96.959 34.164 95.592 33.854 98.909 36.606 103.112 38.325 107.758 38.325c10.583.0 19.163-8.58 19.163-19.162C126.921 10.04 120.532 2.439 111.994.506z" id="path-8" class="cls-5" fill-rule="evenodd"/></g></svg>