<svg xmlns="http://www.w3.org/2000/svg" xmlns:xlink="http://www.w3.org/1999/xlink" preserveAspectRatio="xMidYMid" width="216" height="182" viewBox="0 0 216 182"><defs><style>.cls-3{fill:#fbb713}.cls-6{fill:#000;opacity:.2}.cls-9{fill:#000;opacity:.35}.cls-11{fill:#000;opacity:.1}</style></defs><g id="group-159svg"><path d="M53.747-.004S64.402 38.811 64.402 38.811.519 34.413.519 34.413C.334 34.413.183 33.944-.002 33.958L53.747-.004z" id="path-1" class="cls-3" fill-rule="evenodd"/><path d="M215.538 35.322s-64.029.0-64.029.0S161.925-.004 161.925-.004s53.613 35.326 53.613 35.326z" id="path-2" class="cls-3" fill-rule="evenodd"/><path d="M151.27 38.811s-86.868.0-86.868.0S53.747-.004 53.747-.004s108.178.0 108.178.0S151.27 38.811 151.27 38.811z" id="path-3" class="cls-3" fill-rule="evenodd"/><path d="M151.27 38.811s-86.868.0-86.868.0S53.747-.004 53.747-.004s108.178.0 108.178.0S151.27 38.811 151.27 38.811z" id="path-4" class="cls-6" fill-rule="evenodd"/><path d="M151.509 35.322s-42.881 145.767-42.881 145.767S64.551 34.413 64.551 34.413 151.509 35.322 151.509 35.322z" id="path-5" class="cls-3" fill-rule="evenodd"/><path d="M64.551 34.413s44.077 146.676 44.077 146.676S.519 34.413.519 34.413s64.032.0 64.032.0z" id="path-6" class="cls-3" fill-rule="evenodd"/><path d="M64.551 34.413s44.077 146.676 44.077 146.676S.519 34.413.519 34.413s64.032.0 64.032.0z" id="path-7" class="cls-9" fill-rule="evenodd"/><path d="M151.509 35.322s64.029.0 64.029.0-106.91 145.767-106.91 145.767S151.509 35.322 151.509 35.322z" id="path-8" class="cls-3" fill-rule="evenodd"/><path d="M151.509 35.322s64.029.0 64.029.0-106.91 145.767-106.91 145.767S151.509 35.322 151.509 35.322z" id="path-9" class="cls-11" fill-rule="evenodd"/></g></svg>