<svg xmlns="http://www.w3.org/2000/svg" xmlns:xlink="http://www.w3.org/1999/xlink" preserveAspectRatio="xMidYMid" width="216" height="216" viewBox="0 0 216 216"><defs><style>.cls-3{fill:#fbb713}.cls-4{fill:#2476ff}.cls-5{fill:#ff3a2f}.cls-6{fill:#000;opacity:.35}</style></defs><g id="group-150svg"><path d="M93.719 14.06C93.719 6.299 100.015.003 107.776.003 115.536.003 121.833 6.299 121.833 14.06V215.536s-28.114.0-28.114.0.0-201.476.0-201.476z" id="path-1" class="cls-3" fill-rule="evenodd"/><path d="M180.403 74.972s-161.654.0-161.654.0S28.12 51.543 28.12 51.543s-9.371-23.428-9.371-23.428 161.654.0 161.654.0 35.143 23.428 35.143 23.428-35.143 23.429-35.143 23.429z" id="path-2" class="cls-4" fill-rule="evenodd"/><path d="M35.149 93.713s161.654.0 161.654.0S187.432 117.14 187.432 117.14 196.803 140.568 196.803 140.568s-161.654.0-161.654.0S.007 117.14.007 117.14 35.149 93.713 35.149 93.713z" id="path-3" class="cls-5" fill-rule="evenodd"/><path d="M180.403 28.115s-161.654.0-161.654.0 1.724 4.312 1.724 4.312 151.309.0 151.309.0 35.142 23.426 35.142 23.426-28.676 19.119-28.676 19.119 2.155.0 2.155.0 35.143-23.429 35.143-23.429-35.143-23.428-35.143-23.428z" id="path-4" class="cls-6" fill-rule="evenodd"/><path d="M196.803 93.713s-161.655.0-161.655.0S28.683 98.024 28.683 98.024s159.498.0 159.498.0S178.811 121.452 178.811 121.452 186.458 140.568 186.458 140.568s10.345.0 10.345.0S187.432 117.141 187.432 117.141 196.803 93.713 196.803 93.713z" id="path-5" class="cls-6" fill-rule="evenodd"/></g></svg>