<svg xmlns="http://www.w3.org/2000/svg" xmlns:xlink="http://www.w3.org/1999/xlink" preserveAspectRatio="xMidYMid" width="216" height="191" viewBox="0 0 216 191"><defs><style>.cls-3{fill:#ededed}.cls-4{fill:#000;opacity:.35}.cls-7{fill:#2476ff}</style></defs><g id="group-138svg"><path d="M124.39 190.012H124.382C118.639 190.012 113.666 187.216 110.746 182.352 110.316 181.635 110.092 180.82 110.092 179.986V155.359C101.177 129.656 92.631 112.902 75.742 103.452 74.291 102.634 73.394 101.103 73.394 99.445V24.701c0-8.267 12.813-15.525 20.553-15.525h84.664C182.76 9.176 186.809 11.308 190.321 15.331 194.899 20.572 197.784 28.097 197.882 34.592 204.772 39.646 207.971 48.497 207.406 60.959 214.591 68.511 214.404 79.665 211.895 86.643 214.977 91.052 215.541 98.658 215.541 103.665c0 14.308-19.736 24.772-28.131 24.772H148.768C155.452 157.123 148.078 172.72 142.837 179.654 137.857 186.231 131.137 190.012 124.39 190.012z" id="path-1" class="cls-3" fill-rule="evenodd"/><path d="M196.98 28.306C195.788 23.619 193.469 18.935 190.321 15.331 189.881 14.826 189.409 14.441 188.953 13.997 189.122 15.132 189.244 16.258 189.261 17.35 192.843 19.976 195.403 23.653 196.98 28.306z" id="path-2" class="cls-4" fill-rule="evenodd"/><path d="M73.394 90.371s0 9.074.0 9.074C73.394 101.103 74.291 102.634 75.742 103.452c8.39 4.693 14.715 11.199 20.056 19.701C89.788 108.688 83.141 97.874 73.394 90.371z" id="path-3" class="cls-4" fill-rule="evenodd"/><path d="M211.895 86.643C214.404 79.665 214.591 68.511 207.406 60.959 207.952 48.901 204.943 40.259 198.51 35.132 198.83 37.771 198.924 40.631 198.785 43.716 205.97 51.267 205.782 62.422 203.274 69.4 206.356 73.809 206.92 81.414 206.92 86.423c0 14.308-19.737 24.77-28.132 24.77H140.147C146.83 139.88 139.457 155.478 134.216 162.412 129.235 168.987 122.515 172.769 115.769 172.769H115.76C113.756 172.769 111.854 172.408 110.092 171.758V179.986C110.092 180.82 110.316 181.635 110.746 182.352c2.92 4.864 7.893 7.66 13.636 7.66H124.39c6.747.0 13.466-3.78100000000001 18.447-10.358C148.078 172.72 155.452 157.123 148.768 128.437h38.641c8.39500000000001.0 28.133-10.464 28.133-24.77C215.542 98.658 214.977 91.052 211.895 86.643z" id="path-4" class="cls-4" fill-rule="evenodd"/><path d="M66.479 128.437s-50.387.0-50.387.0C7.222 128.437.001 121.225.001 112.355V16.083C.001 7.214 7.222.003 16.092.003H66.479c8.869.0 16.09 7.211 16.09 16.08v96.272C82.569 121.225 75.348 128.437 66.479 128.437z" id="path-5" class="cls-7" fill-rule="evenodd"/><path d="M72.696 1.255C73.499 3.166 73.948 5.262 73.948 7.462v96.272C73.948 112.604 66.726 119.816 57.857 119.816H7.47C5.267 119.816 3.168 119.366 1.253 118.561 3.689 124.357 9.422 128.437 16.092 128.437H66.479C75.348 128.437 82.57 121.225 82.57 112.355V16.083C82.57 9.418 78.488 3.69 72.696 1.255z" id="path-6" class="cls-4" fill-rule="evenodd"/></g></svg>