<svg xmlns="http://www.w3.org/2000/svg" xmlns:xlink="http://www.w3.org/1999/xlink" preserveAspectRatio="xMidYMid" width="206" height="218" viewBox="0 0 206 218"><defs><style>.cls-3{fill:#0f1d27}.cls-5{fill:#ff3a2f}.cls-7{fill:#020403;opacity:.35}.cls-9{fill:#142a3b}.cls-16{fill:#fbb713}.cls-18{fill:#fff}</style></defs><g id="group-25svg"><path d="M87.853 141.378s-13.621.0-13.621.0.0-37.113.0-37.113 13.621.0 13.621.0.0 37.113.0 37.113z" id="path-1" class="cls-3" fill-rule="evenodd"/><path d="M87.853 205.357s-13.621.0-13.621.0.0-37.114.0-37.114 13.621.0 13.621.0.0 37.114.0 37.114z" id="path-2" class="cls-3" fill-rule="evenodd"/><path d="M85.312 216.883s74.224.0 74.224.0.0-138.214.0-138.214c0-20.497-16.617-37.112-37.112-37.112-20.496.0-37.112 16.615-37.112 37.112V216.883z" id="path-3" class="cls-5" fill-rule="evenodd"/><path d="M.008 216.883s74.224.0 74.224.0.0-138.214.0-138.214c0-20.497-16.616-37.112-37.112-37.112C16.624 41.557.008 58.172.008 78.669V216.883z" id="path-4" class="cls-5" fill-rule="evenodd"/><path d="M122.424 41.557C119.483 41.557 116.637 41.935 113.893 42.58c16.378 3.86 28.581 18.534 28.581 36.089V216.882s17.062.0 17.062.0.0-138.213.0-138.213c0-20.497-16.617-37.112-37.112-37.112z" id="path-5" class="cls-7" fill-rule="evenodd"/><path d="M37.12 41.557c-2.94.0-5.787.378-8.531 1.023 16.378 3.86 28.582 18.534 28.582 36.089V216.882s17.061.0 17.061.0.0-138.213.0-138.213c0-20.497-16.616-37.112-37.112-37.112z" id="path-6" class="cls-7" fill-rule="evenodd"/><path d="M122.424 46.024c-1.997.0-3.614-1.619-3.614-3.615V3.618c0-1.996 1.617-3.614 3.614-3.614C124.419.004 126.038 1.622 126.038 3.618V42.409c0 1.996-1.619 3.615-3.61399999999999 3.615z" id="path-7" class="cls-9" fill-rule="evenodd"/><path d="M190.897 150.537C188.902 150.537 187.282 148.918 187.282 146.922V73.45c0-25.818-21.002-46.822-46.819-46.822H19.316c-1.996.0-3.613-1.618-3.613-3.614.0-1.996 1.617-3.615 3.613-3.615H140.463c29.803.0 54.048 24.247 54.048 54.051v73.472C194.511 148.918 192.893 150.537 190.897 150.537z" id="path-8" class="cls-9" fill-rule="evenodd"/><path d="M205.179 160.999c0 7.77500000000001-6.303 14.078-14.077 14.078-7.77500000000001.0-14.077-6.303-14.077-14.078.0-7.774 6.30199999999999-14.077 14.077-14.077 7.774.0 14.077 6.303 14.077 14.077z" id="path-9" class="cls-5" fill-rule="evenodd"/><path d="M192.782 147.092C195.165 149.614 196.648 152.992 196.648 156.734 196.648 164.51 190.346 170.812 182.572 170.812 181.995 170.812 181.448 170.709 180.891 170.643 183.457 173.359 187.07 175.077 191.102 175.077c7.774.0 14.077-6.303 14.077-14.078C205.179 153.8 199.755 147.932 192.782 147.092z" id="path-10" class="cls-7" fill-rule="evenodd"/><path d="M130.955 22.786C130.955 27.734 126.944 31.745 121.997 31.745s-8.958-4.011-8.958-8.959c0-4.947 4.011-8.958 8.958-8.958S130.955 17.839 130.955 22.786z" id="path-11" class="cls-5" fill-rule="evenodd"/><path d="M37.119 46.024c-1.996.0-3.614-1.619-3.614-3.615V3.618c0-1.996 1.618-3.614 3.614-3.614s3.615 1.618 3.615 3.614V42.409c0 1.996-1.619 3.615-3.615 3.615z" id="path-12" class="cls-9" fill-rule="evenodd"/><path d="M45.652 22.786c0 4.948-4.012 8.959-8.958 8.959-4.948.0-8.958-4.011-8.958-8.959.0-4.947 4.01-8.958 8.958-8.958 4.946.0 8.958 4.011 8.958 8.958z" id="path-13" class="cls-5" fill-rule="evenodd"/><path d="M159.536 178.491s-74.224.0-74.224.0.0-74.226.0-74.226 74.224.0 74.224.0.0 74.226.0 74.226z" id="path-14" class="cls-16" fill-rule="evenodd"/><path d="M74.232 178.491s-74.224.0-74.224.0.0-74.226.0-74.226 74.224.0 74.224.0.0 74.226.0 74.226z" id="path-15" class="cls-16" fill-rule="evenodd"/><path d="M8.538 159.067c-1.996.0-3.615-1.618-3.615-3.614V87.201c0-13.79 6.896-26.537 18.448-34.099 1.671-1.093 3.909-.625 5.002 1.044C29.469 55.816 29 58.057 27.332 59.15c-9.505 6.222-15.179 16.708-15.179 28.051v68.252c0 1.99600000000001-1.618 3.614-3.615 3.614z" id="path-16" class="cls-18" fill-rule="evenodd"/><path d="M93.843 159.067C91.846 159.067 90.228 157.449 90.228 155.453V87.201C90.228 73.41 97.123 60.663 108.674 53.102 110.348 52.009 112.589 52.477 113.68 54.146 114.773 55.817 114.305 58.058 112.636 59.15c-9.505 6.221-15.179 16.707-15.179 28.051v68.252C97.457 157.449 95.839 159.067 93.843 159.067z" id="path-17" class="cls-18" fill-rule="evenodd"/><path d="M142.474 104.265s0 74.226.0 74.226 17.062.0 17.062.0.0-74.226.0-74.226-17.062.0-17.062.0z" id="path-18" class="cls-7" fill-rule="evenodd"/><path d="M57.171 104.265s0 74.226.0 74.226 17.061.0 17.061.0.0-74.226.0-74.226-17.061.0-17.061.0z" id="path-19" class="cls-7" fill-rule="evenodd"/><path d="M136.823 144.993s-29.644.0-29.644.0c-1.996.0-3.613-1.619-3.613-3.61500000000001C103.566 139.382 105.183 137.762 107.179 137.762h29.644C138.819 137.762 140.438 139.382 140.438 141.378 140.438 143.374 138.819 144.993 136.823 144.993z" id="path-20" class="cls-9" fill-rule="evenodd"/><path d="M51.52 144.993s-29.644.0-29.644.0C19.88 144.993 18.261 143.374 18.261 141.378 18.261 139.382 19.88 137.762 21.876 137.762H51.52c1.996.0 3.614 1.62 3.614 3.61599999999999C55.134 143.374 53.516 144.993 51.52 144.993z" id="path-21" class="cls-9" fill-rule="evenodd"/></g></svg>