<svg xmlns="http://www.w3.org/2000/svg" xmlns:xlink="http://www.w3.org/1999/xlink" preserveAspectRatio="xMidYMid" width="218" height="194" viewBox="0 0 218 194"><defs><style>.cls-3{fill:#142a3b}.cls-5{fill:#020403;opacity:.45}.cls-7{fill:#ff3a2f}.cls-8{fill:#020403;opacity:.35}.cls-13{fill:#020403}</style></defs><g id="group-23svg"><path d="M61.572 153.079S90.547 12.601 90.547 12.601s-90.545.0-90.545.0S28.976 153.079 28.976 153.079s32.596.0 32.596.0z" id="path-1" class="cls-3" fill-rule="evenodd"/><path d="M187.902 153.079S216.876 12.601 216.876 12.601s-90.545.0-90.545.0 28.975 140.478 28.975 140.478 32.596.0 32.596.0z" id="path-2" class="cls-3" fill-rule="evenodd"/><path d="M155.306 153.079s32.596.0 32.596.0S192.686 129.878 192.686 129.878 192.686 126.993 192.686 126.993c0-9.679-7.90800000000002-17.599-17.576-17.599H168.097c-9.666.0-17.576 7.91999999999999-17.576 17.599v2.887S155.306 153.079 155.306 153.079z" id="path-3" class="cls-5" fill-rule="evenodd"/><path d="M28.976 153.079s32.596.0 32.596.0 4.786-23.201 4.786-23.201S66.358 126.993 66.358 126.993c0-9.679-7.91-17.599-17.578-17.599H41.768C32.101 109.394 24.191 117.314 24.191 126.993v2.887s4.785 23.199 4.785 23.199z" id="path-4" class="cls-5" fill-rule="evenodd"/><path d="M184.867 192.699s-26.526.0-26.526.0C155.968 192.699 154.027 190.759 154.027 188.387V124.974C154.027 122.601 155.968 120.66 158.34 120.66h26.526C187.24 120.66 189.18 122.601 189.18 124.974v63.413C189.18 190.759 187.24 192.699 184.867 192.699z" id="path-5" class="cls-7" fill-rule="evenodd"/><path d="M179.807 177.954s-16.407.0-16.407.0C162.202 177.954 161.223 176.975 161.223 175.777V137.583C161.223 136.386 162.202 135.406 163.4 135.406h16.407C181.005 135.406 181.984 136.386 181.984 137.583v38.194C181.984 176.975 181.005 177.954 179.807 177.954z" id="path-6" class="cls-8" fill-rule="evenodd"/><path d="M177.187 173.874S174.171 173.874 174.171 173.874C169.29 173.874 165.298 169.876 165.298 164.99V140.21C165.298 138.817 165.651 137.513 166.228 136.337 163.282 137.786 161.223 140.797 161.223 144.29v24.781C161.223 173.956 165.216 177.954 170.095 177.954h3.018C176.601 177.954 179.608 175.893 181.055 172.943 179.88 173.52 178.579 173.874 177.187 173.874z" id="path-7" class="cls-8" fill-rule="evenodd"/><path d="M58.538 192.699s-26.527.0-26.527.0C29.64 192.699 27.698 190.759 27.698 188.387V124.974C27.698 122.601 29.64 120.66 32.011 120.66H58.538C60.91 120.66 62.85 122.601 62.85 124.974v63.413C62.85 190.759 60.91 192.699 58.538 192.699z" id="path-8" class="cls-7" fill-rule="evenodd"/><path d="M50.859 173.874s-3.018.0-3.018.0C42.96 173.874 38.969 169.876 38.969 164.99V140.21C38.969 138.817 39.322 137.513 39.898 136.337 36.952 137.786 34.894 140.797 34.894 144.29v24.781C34.894 173.956 38.886 177.954 43.765 177.954h3.018c3.489.0 6.496-2.06100000000001 7.943-5.011C53.551 173.52 52.249 173.874 50.859 173.874z" id="path-9" class="cls-8" fill-rule="evenodd"/><path d="M53.478 177.954s-16.408.0-16.408.0C35.873 177.954 34.894 176.975 34.894 175.777V137.583C34.894 136.386 35.873 135.406 37.07 135.406H53.478C54.676 135.406 55.655 136.386 55.655 137.583v38.194C55.655 176.975 54.676 177.954 53.478 177.954z" id="path-10" class="cls-8" fill-rule="evenodd"/><path d="M190.505 45.871C190.322 45.871 190.138 45.862 189.95 45.843 186.973 45.542 184.802 42.882 185.104 39.902l2.19-21.628C187.596 15.294 190.248 13.12 193.234 13.426 196.213 13.728 198.382 16.387 198.081 19.366l-2.19 21.629C195.608 43.789 193.252 45.871 190.505 45.871z" id="path-11" class="cls-13" fill-rule="evenodd"/><path d="M162.311 45.871C159.563 45.871 157.207 43.789 156.925 40.995l-2.191-21.629C154.433 16.387 156.603 13.728 159.581 13.426 162.571 13.121 165.22 15.294 165.522 18.274l2.19 21.628C168.014 42.882 165.843 45.542 162.866 45.843 162.678 45.862 162.495 45.871 162.311 45.871z" id="path-12" class="cls-13" fill-rule="evenodd"/><path d="M64.174 45.871C63.991 45.871 63.807 45.862 63.62 45.843 60.643 45.542 58.471 42.882 58.774 39.902l2.19-21.628c.302-2.98 2.946-5.154 5.941-4.848 2.979.302 5.148 2.961 4.846 5.94l-2.19 21.629C69.278 43.789 66.922 45.871 64.174 45.871z" id="path-13" class="cls-13" fill-rule="evenodd"/><path d="M35.982 45.871C33.234 45.871 30.877 43.789 30.595 40.995l-2.19-21.629c-.302-2.979 1.867-5.638 4.846-5.94 2.982-.305 5.64 1.868 5.941 4.848l2.191 21.628c.302 2.98-1.869 5.64-4.847 5.941C36.349 45.862 36.165 45.871 35.982 45.871z" id="path-14" class="cls-13" fill-rule="evenodd"/><path d="M158.029 48.145C156.198 48.145 154.627 46.76 154.437 44.899L150.227 3.965C150.022 1.98 151.466.205 153.451.001 155.463-.205 157.214 1.24 157.417 3.227L161.627 44.16C161.831 46.146 160.388 47.922 158.402 48.125 158.274 48.139 158.151 48.145 158.029 48.145z" id="path-15" class="cls-7" fill-rule="evenodd"/><path d="M186.425 48.145C186.337 48.145 186.249 48.141 186.162 48.135 184.169 47.991 182.674 46.26 182.816 44.269L185.779 3.335C185.924 1.343 187.694-.147 189.646-.009 191.638.135 193.134 1.866 192.991 3.856L190.028 44.791C189.89 46.692 188.304 48.145 186.425 48.145z" id="path-16" class="cls-7" fill-rule="evenodd"/><path d="M60.095 48.145C60.007 48.145 59.919 48.141 59.831 48.135 57.841 47.991 56.344 46.26 56.486 44.269L59.45 3.335C59.593 1.343 61.35-.147 63.317-.009c1.99.144 3.487 1.875 3.344 3.865L63.698 44.791C63.56 46.692 61.973 48.145 60.095 48.145z" id="path-17" class="cls-7" fill-rule="evenodd"/><path d="M31.698 48.145C29.868 48.145 28.297 46.76 28.106 44.899L23.897 3.965C23.692 1.98 25.137.205 27.121.001c2.016-.206 3.763 1.239 3.966 3.226l4.21 40.933C35.502 46.146 34.058 47.922 32.073 48.125 31.946 48.139 31.822 48.145 31.698 48.145z" id="path-18" class="cls-7" fill-rule="evenodd"/></g></svg>