<svg xmlns="http://www.w3.org/2000/svg" xmlns:xlink="http://www.w3.org/1999/xlink" preserveAspectRatio="xMidYMid" width="217" height="214" viewBox="0 0 217 214"><defs><style>.cls-3{fill:#2476ff}.cls-4{fill:#fff}.cls-7{fill:#ff3a2f}.cls-9{fill:#142a3b}.cls-10{fill:#0cb04a}.cls-11{fill:#020403;opacity:.35}</style></defs><g id="group-140svg"><path d="M24.4 125.733C24.4 132.487 18.937 137.963 12.198 137.963S-.003 132.487-.003 125.733c0-6.756 5.462-12.233 12.201-12.233S24.4 118.977 24.4 125.733z" id="path-1" class="cls-3" fill-rule="evenodd"/><path d="M17.713 121.607C17.713 124.66 15.244 127.135 12.198 127.135 9.152 127.135 6.684 124.66 6.684 121.607S9.152 116.079 12.198 116.079C15.244 116.079 17.713 118.554 17.713 121.607z" id="path-2" class="cls-4" fill-rule="evenodd"/><path d="M20.092 39.843C20.092 44.214 16.558 47.757 12.198 47.757 7.838 47.757 4.304 44.214 4.304 39.843 4.304 35.474 7.838 31.93 12.198 31.93s7.894 3.544 7.894 7.913z" id="path-3" class="cls-3" fill-rule="evenodd"/><path d="M67.261 6.843C67.261 9.986 64.718 12.534 61.582 12.534c-3.137.0-5.679-2.548-5.679-5.691.0-3.145 2.542-5.693 5.679-5.693 3.136.0 5.679 2.548 5.679 5.693z" id="path-4" class="cls-3" fill-rule="evenodd"/><path d="M37.681 90.359s-10.325.0-10.325.0.0-31.172.0-31.172 10.325.0 10.325.0.0 31.172.0 31.172z" id="path-5" class="cls-7" fill-rule="evenodd"/><path d="M212.792 90.359s-14.743.0-14.743.0.0-31.172.0-31.172 14.743.0 14.743.0.0 31.172.0 31.172z" id="path-6" class="cls-7" fill-rule="evenodd"/><path d="M37.681 57.987s0 33.572.0 33.572C37.681 100.828 45.178 108.344 54.427 108.344H89.789c5.983.0 11.511-3.199 14.502-8.393C110.736 88.761 126.849 88.761 133.295 99.951 136.286 105.145 141.814 108.344 147.797 108.344h35.362c9.249.0 16.746-7.51599999999999 16.746-16.785V57.987C199.905 48.717 192.408 41.201 183.159 41.201H54.427c-9.249.0-16.746 7.516-16.746 16.786z" id="path-7" class="cls-9" fill-rule="evenodd"/><path d="M51.989 65.207s0 19.132.0 19.132C51.989 89.623 56.261 93.907 61.532 93.907H89.917c3.41.0 6.56-1.824 8.265-4.78399999999999h8.23C110.086 82.745 127.5 82.745 131.173 89.123h8.231C141.108 92.083 152.49 93.907 155.899 93.907h20.154C181.325 93.907 185.597 89.623 185.597 84.339V65.207C185.597 59.923 181.325 55.64 176.053 55.64H61.532C56.261 55.64 51.989 59.923 51.989 65.207z" id="path-8" class="cls-10" fill-rule="evenodd"/><path d="M176.053 55.64s-114.521.0-114.521.0c-3.25.0-6.113 1.637-7.837 4.126H167.823C173.093 59.766 177.365 64.049 177.365 69.331V88.465C177.365 90.489 176.73 92.361 175.66 93.907H176.053C181.325 93.907 185.597 89.623 185.597 84.339V65.207C185.597 59.925 181.325 55.64 176.053 55.64z" id="path-9" class="cls-11" fill-rule="evenodd"/><path d="M165.541 213.491c-28.302.0-51.327-23.076-51.327-51.443C114.214 160.051 115.832 158.433 117.828 158.433c1.996.0 3.615 1.618 3.615 3.61500000000001.0 24.38 19.783 44.214 44.098 44.214 24.317.0 44.1-19.834 44.1-44.214V3.616C209.641 1.62 211.26.001 213.256.001S216.871 1.62 216.871 3.616V162.048c0 28.367-23.028 51.443-51.33 51.443z" id="path-10" class="cls-9" fill-rule="evenodd"/><path d="M119.853 163.446c16.706.0 30.25-13.576 30.25-30.323h-60.5c0 16.747 13.543 30.323 30.25 30.323z" id="path-11" class="cls-7" fill-rule="evenodd"/><path d="M137.446 133.123c-2.012 14.79-14.631 26.197-29.939 26.197C106.462 159.32 105.43 159.267 104.412 159.163 108.937 161.865 114.204 163.446 119.853 163.446c16.707.0 30.25-13.576 30.25-30.323H137.446z" id="path-12" class="cls-11" fill-rule="evenodd"/><path d="M103.42 141.406C103.42 143.494 101.731 145.186 99.647 145.186 97.564 145.186 95.875 143.494 95.875 141.406 95.875 139.317 97.564 137.625 99.647 137.625 101.731 137.625 103.42 139.317 103.42 141.406z" id="path-13" class="cls-4" fill-rule="evenodd"/><path d="M113.277 149.656C113.277 152.646 110.859 155.068 107.878 155.068 104.896 155.068 102.479 152.646 102.479 149.656 102.479 146.667 104.896 144.243 107.878 144.243 110.859 144.243 113.277 146.667 113.277 149.656z" id="path-14" class="cls-4" fill-rule="evenodd"/><path d="M65.011 92.168C64.436 92.168 63.869 91.893 63.518 91.382 62.955 90.56 63.164 89.433 63.988 88.869l38.409-26.337C103.222 61.969 104.348 62.178 104.911 63.001 105.474 63.825 105.264 64.951 104.442 65.515L66.031 91.852C65.719 92.065 65.362 92.168 65.011 92.168z" id="path-15" class="cls-4" fill-rule="evenodd"/><path d="M69.381 76.582C68.806 76.582 68.239 76.307 67.889 75.795 67.325 74.973 67.533 73.847 68.358 73.282l15.677-10.75C84.858 61.969 85.984 62.178 86.548 63.001 87.111 63.825 86.903 64.951 86.079 65.515L70.402 76.265C70.089 76.479 69.732 76.582 69.381 76.582z" id="path-16" class="cls-4" fill-rule="evenodd"/></g></svg>