<svg xmlns="http://www.w3.org/2000/svg" xmlns:xlink="http://www.w3.org/1999/xlink" preserveAspectRatio="xMidYMid" width="123" height="217" viewBox="0 0 123 217"><defs><style>.cls-3{fill:#142a3b}.cls-6{fill:#ff3a2f}.cls-8{fill:#fff}.cls-9{fill:#020403;opacity:.35}.cls-18{fill:#fbb713}</style></defs><g id="group-24svg"><path d="M122.317 159.85C122.317 167.783 115.885 174.214 107.952 174.214 100.019 174.214 93.588 167.783 93.588 159.85S100.019 145.485 107.952 145.485C115.885 145.485 122.317 151.917 122.317 159.85z" id="path-1" class="cls-3" fill-rule="evenodd"/><path d="M75.742 177.697s-74.742.0-74.742.0.0-75.741.0-75.741 74.742.0 74.742.0.0 75.741.0 75.741z" id="path-2" class="cls-3" fill-rule="evenodd"/><path d="M52.567 143.442s-30.249.0-30.249.0c-1.996.0-3.614-1.618-3.614-3.61500000000001C18.704 137.832 20.322 136.212 22.318 136.212H52.567c1.996.0 3.615 1.62 3.615 3.61500000000001C56.182 141.824 54.563 143.442 52.567 143.442z" id="path-3" class="cls-3" fill-rule="evenodd"/><path d="M122.317 159.85C122.317 167.783 115.885 174.214 107.952 174.214 100.019 174.214 93.588 167.783 93.588 159.85S100.019 145.485 107.952 145.485C115.885 145.485 122.317 151.917 122.317 159.85z" id="path-4" class="cls-6" fill-rule="evenodd"/><path d="M37.872 46.806c-1.995.0-3.615-1.619-3.615-3.616V7.962c0-1.997 1.62-3.615 3.615-3.615 1.996.0 3.614 1.618 3.614 3.615V43.19c0 1.997-1.618 3.616-3.614 3.616z" id="path-5" class="cls-3" fill-rule="evenodd"/><path d="M108.113 155.498c0 2.49200000000002-2.021 4.512-4.512 4.512C101.108 160.01 99.088 157.99 99.088 155.498 99.088 153.005 101.108 150.985 103.601 150.985 106.092 150.985 108.113 153.005 108.113 155.498z" id="path-6" class="cls-8" fill-rule="evenodd"/><path d="M115.677 147.772C117.11 150.007 117.964 152.647 117.964 155.498c0 7.93300000000002-6.431 14.363-14.363 14.363C100.75 169.861 98.109 169.007 95.876 167.574 98.428 171.558 102.87 174.214 107.952 174.214 115.885 174.214 122.317 167.783 122.317 159.85 122.317 154.768 119.662 150.326 115.677 147.772z" id="path-7" class="cls-9" fill-rule="evenodd"/><path d="M.004 216.873s75.738.0 75.738.0.0-141.034.0-141.034c0-20.915-16.955-37.869-37.87-37.869C16.958 37.97.004 54.924.004 75.839V216.873z" id="path-8" class="cls-3" fill-rule="evenodd"/><path d="M37.872 42.454c-1.995.0-3.615-1.619-3.615-3.615V3.609c0-1.996 1.62-3.615 3.615-3.615 1.996.0 3.614 1.619 3.614 3.615v35.23c0 1.996-1.618 3.615-3.614 3.615z" id="path-9" class="cls-3" fill-rule="evenodd"/><path d="M107.745 149.1C105.749 149.1 104.13 147.481 104.13 145.485V70.513c0-26.385-21.464-47.851-47.85-47.851H19.705c-1.996.0-3.614-1.618-3.614-3.614.0-1.997 1.618-3.615 3.614-3.615H56.28c30.371.0 55.08 24.709 55.08 55.08v74.972C111.36 147.481 109.741 149.1 107.745 149.1z" id="path-10" class="cls-3" fill-rule="evenodd"/><path d="M.004 216.873s75.738.0 75.738.0.0-141.034.0-141.034c0-20.915-16.955-37.869-37.87-37.869C16.958 37.97.004 54.924.004 75.839V216.873z" id="path-11" class="cls-6" fill-rule="evenodd"/><path d="M37.872 37.969C34.873 37.969 31.967 38.355 29.169 39.015 45.88 42.952 58.333 57.926 58.333 75.839V216.873s17.409.0 17.409.0.0-141.034.0-141.034c0-20.915-16.955-37.87-37.87-37.87z" id="path-12" class="cls-9" fill-rule="evenodd"/><path d="M49.759 19.396c0 6.259-5.074 11.334-11.335 11.334-6.26.0-11.335-5.075-11.335-11.334.0-6.261 5.075-11.336 11.335-11.336 6.261.0 11.335 5.075 11.335 11.336z" id="path-13" class="cls-6" fill-rule="evenodd"/><path d="M38.601 8.077c1.513 1.927 2.454 4.326 2.454 6.966.0 6.259-5.075 11.335-11.335 11.335C29.659 26.378 29.603 26.361 29.543 26.361c2.075 2.641 5.261 4.369 8.881 4.369 6.261.0 11.335-5.075 11.335-11.334.0-6.2-4.982-11.222-11.158-11.319z" id="path-14" class="cls-9" fill-rule="evenodd"/><path d="M37.983 16.223c0 2.22-1.799 4.018-4.019 4.018-2.218.0-4.017-1.798-4.017-4.018.0-2.22 1.799-4.019 4.017-4.019 2.22.0 4.019 1.799 4.019 4.019z" id="path-15" class="cls-8" fill-rule="evenodd"/><path d="M75.742 177.697s-75.738.0-75.738.0.0-75.741.0-75.741 75.738.0 75.738.0.0 75.741.0 75.741z" id="path-16" class="cls-18" fill-rule="evenodd"/><path d="M58.333 101.956s0 75.741.0 75.741 17.409.0 17.409.0.0-75.741.0-75.741-17.409.0-17.409.0z" id="path-17" class="cls-9" fill-rule="evenodd"/><path d="M52.567 143.442s-30.249.0-30.249.0c-1.996.0-3.614-1.618-3.614-3.61500000000001C18.704 137.832 20.322 136.212 22.318 136.212H52.567c1.996.0 3.615 1.62 3.615 3.61500000000001C56.182 141.824 54.563 143.442 52.567 143.442z" id="path-18" class="cls-3" fill-rule="evenodd"/><path d="M7.606 156.64C5.609 156.64 3.991 155.021 3.991 153.025V83.38c0-14.047 7.024-27.031 18.79-34.733 1.674-1.093 3.912-.625 5.006 1.045 1.093 1.67.625 3.91-1.045 5.003C17.023 61.057 11.22 71.78 11.22 83.38v69.645C11.22 155.021 9.601 156.64 7.606 156.64z" id="path-19" class="cls-8" fill-rule="evenodd"/></g></svg>