<svg xmlns="http://www.w3.org/2000/svg" xmlns:xlink="http://www.w3.org/1999/xlink" preserveAspectRatio="xMidYMid" width="217" height="161" viewBox="0 0 217 161"><defs><style>.cls-3{fill:#2476ff}.cls-4{fill:#fff}.cls-5{fill:#020403;opacity:.35}</style></defs><g id="group-71svg"><path d="M65.466 160.837C64.182 160.837 62.929 160.291 62.051 159.28c-10.85-12.522-13.475-15.284-22.947-18.544C32.808 140.877 17.559 147.535 7.116 154.833 5.633 155.87 3.678 155.932 2.143 154.969.608 154.016-.213 152.238.06 150.451c2.498-16.405 15.351-36.605 37.778-43.239 22.113-42.385 53.271-69.865 68.626-81.695-6.932-10.082-19.272-12.385-26.42-12.831C77.865 12.545 76.095 10.868 75.84 8.702 75.584 6.536 76.916 4.494 78.999 3.854 94.044-.758 113.435 1.81 130.14 10.198 132.832 8.83 135.284 7.727 137.455 6.915 149.928 2.203 159.459.002 167.436.002c13.369.0 22.925 6.331 29.902 19.867 11.85 1.197 17.828 4.108 19.262 9.311C217.85 33.729 214.73 37.85 211.394 40.197 210.529 40.797 209.462 41.079 208.443 40.995c-12.924-1.041-26.646 1.042-41.607 6.046C167.732 62.899 161.802 89.036 158.219 94.417 157.111 96.061 155.051 96.801 153.149 96.224 151.243 95.647 149.942 93.889 149.942 91.9 149.942 85.542 146.261 79.105 139.3 73.285 135.894 70.438 133.652 66.605 132.8 62.634c-31.745 18.085-58.041 42.251-69.857 53.904 2.938 10.784 6.697 28.297 7.02 38.44C70.095 155.402 70.165 155.852 70.165 156.318 70.165 158.843 68.131 160.647 65.564 160.837 65.529 160.837 65.498 160.837 65.466 160.837z" id="path-1" class="cls-3" fill-rule="evenodd"/><path d="M146.313 14.155C145.583 14.155 144.896 13.71 144.623 12.986 144.269 12.053 144.741 11.009 145.675 10.656c11.741-4.434 20.74-6.5 28.323-6.5C174.997 4.156 175.806 4.966 175.806 5.963 175.806 6.962 174.997 7.771 173.998 7.771 166.866 7.771 158.272 9.762 146.953 14.038 146.743 14.117 146.525 14.155 146.313 14.155z" id="path-2" class="cls-4" fill-rule="evenodd"/><path d="M189.451 11.982C190.562 12.096 191.569 12.237 192.577 12.38 190.337 9.464 187.895 7.044 185.195 5.18 186.7 7.225 188.138 9.434 189.451 11.982z" id="path-3" class="cls-5" fill-rule="evenodd"/><path d="M76.874 5.348C76.12 6.272 75.692 7.449 75.84 8.702 76.095 10.868 77.865 12.546 80.044 12.685c4.789.299 11.89 1.496 18.153 5.245C98.318 17.836 98.459 17.723 98.578 17.631 92.994 9.509 83.936 6.47 76.874 5.348z" id="path-4" class="cls-5" fill-rule="evenodd"/><path d="M62.943 116.538c11.486-11.329 36.674-34.466 67.233-52.362C127.493 61.492 125.652 58.191 124.914 54.747c-31.745 18.086-58.042 42.25-69.857 53.905 2.937 10.784 6.696 28.296 7.019 38.44C62.209 147.515 62.279 147.965 62.279 148.432 62.279 150.956 60.245 152.762 57.678 152.951 57.642 152.951 57.61 152.951 57.58 152.951 57.112 152.951 56.668 152.801 56.226 152.66 57.906 154.512 59.795 156.676 62.051 159.28 62.929 160.291 64.182 160.837 65.466 160.837 65.498 160.837 65.529 160.837 65.564 160.837 68.131 160.648 70.165 158.843 70.165 156.318 70.165 155.852 70.095 155.402 69.963 154.979 69.64 144.834 65.88 127.322 62.943 116.538z" id="path-5" class="cls-5" fill-rule="evenodd"/><path d="M216.6 29.18C215.746 26.078 213.231 23.806 208.862 22.212 209.489 26.389 206.616 30.123 203.507 32.311 202.643 32.911 201.576 33.193 200.556 33.109c-12.923-1.042-26.645 1.042-41.607 6.045C159.845 55.011 153.916 81.15 150.332 86.529 150.059 86.934 149.726 87.284 149.354 87.573 149.727 89.014 149.942 90.459 149.942 91.9 149.942 93.889 151.243 95.647 153.149 96.224 155.051 96.801 157.111 96.061 158.22 94.416 161.802 89.036 167.732 62.899 166.836 47.041c14.961-5.004 28.683-7.087 41.606-6.046C209.462 41.079 210.529 40.797 211.394 40.197 214.73 37.85 217.85 33.729 216.6 29.18z" id="path-6" class="cls-5" fill-rule="evenodd"/><path d="M53.518 92.531C53.196 92.531 52.871 92.447 52.578 92.267 51.726 91.748 51.455 90.635 51.977 89.783 53.166 87.829 81.383 41.893 102.189 38.013 103.186 37.828 104.116 38.479 104.298 39.458 104.48 40.44 103.834 41.384 102.853 41.567 83.621 45.152 55.346 91.2 55.062 91.665 54.721 92.224 54.126 92.531 53.518 92.531z" id="path-7" class="cls-4" fill-rule="evenodd"/><path d="M31.217 132.848C25.272 132.982 11.392 138.937 1.066 145.743.65 147.334.294 148.912.06 150.451-.213 152.239.608 154.016 2.143 154.969 3.678 155.932 5.633 155.869 7.116 154.833 17.559 147.534 32.808 140.877 39.104 140.736 43.599 142.283 46.553 143.73 49.576 146.149 42.327 138.005 39.186 135.593 31.217 132.848z" id="path-8" class="cls-5" fill-rule="evenodd"/></g></svg>