<svg xmlns="http://www.w3.org/2000/svg" xmlns:xlink="http://www.w3.org/1999/xlink" preserveAspectRatio="xMidYMid" width="217" height="207" viewBox="0 0 217 207"><defs><style>.cls-3{fill:#ff3a2f}.cls-4{fill:#fbb713}.cls-7{fill:#a72720}.cls-8{fill:#000;opacity:.25}.cls-9{fill:#fff}</style></defs><g id="group-144svg"><path d="M184.566 184.342c0 6.922-5.612 12.534-12.533 12.534-6.92299999999997.0-12.534-5.612-12.534-12.534.0-6.923 5.61100000000002-12.534 12.534-12.534C178.954 171.808 184.566 177.419 184.566 184.342z" id="path-1" class="cls-3" fill-rule="evenodd"/><path d="M109.985 201.108C109.985 203.876 107.74 206.121 104.971 206.121 102.202 206.121 99.957 203.876 99.957 201.108 99.957 198.339 102.202 196.093 104.971 196.093 107.74 196.093 109.985 198.339 109.985 201.108z" id="path-2" class="cls-4" fill-rule="evenodd"/><path d="M216.886 154.164C216.886 159.073 212.906 163.054 207.996 163.054S199.106 159.073 199.106 154.164C199.106 149.254 203.086 145.273 207.996 145.273S216.886 149.254 216.886 154.164z" id="path-3" class="cls-3" fill-rule="evenodd"/><path d="M86.017-.006C38.518-.006.013 38.501.013 86.001c0 47.501 38.505 86.008 86.004 86.008C91.877 172.009 97.599 171.421 103.13 170.304c.128-11.253 9.187-20.347 20.424-20.54C123.548 149.563 123.524 149.366 123.524 149.164c0-11.485 9.31-20.797 20.796-20.797C144.685 128.367 145.042 128.404 145.403 128.423 145.078 126.966 144.901 125.455 144.901 123.899c0-11.484 9.31099999999998-20.796 20.796-20.796C167.25 103.103 168.759 103.286 170.215 103.61 171.398 97.926 172.022 92.036 172.022 86.001c0-47.5-38.506-86.007-86.005-86.007zm0 111.097c-13.855.0-25.088-11.233-25.088-25.09.0-13.855 11.233-25.089 25.088-25.089 13.856.0 25.088 11.234 25.088 25.089.0 13.857-11.232 25.09-25.088 25.09z" id="path-4" class="cls-3" fill-rule="evenodd"/><path d="M85.259 45.71c-22.252.0-40.29 18.04-40.29 40.291.0 22.253 18.038 40.292 40.29 40.292s40.29-18.039 40.29-40.292c0-22.251-18.038-40.291-40.29-40.291zm0 65.499c-13.922.0-25.206-11.286-25.206-25.208.0-13.921 11.284-25.207 25.206-25.207 13.921.0 25.207 11.286 25.207 25.207.0 13.922-11.286 25.208-25.207 25.208z" id="path-5" class="cls-7" fill-rule="evenodd"/><path d="M85.259.408c-17.538.0-33.837 5.284-47.411 14.335C15.018 30.206.013 56.35.013 86.001c0 29.652 15.005 55.797 37.835 71.259C51.422 166.311 67.721 171.595 85.259 171.595c6.154.0 12.152-.663999999999987 17.938-1.899C103.349 165.958 104.483 162.49 106.355 159.516 99.647 161.439 92.586 162.529 85.259 162.529c-42.264.0-76.526-34.263-76.526-76.528.0-42.265 34.262-76.527 76.526-76.527s76.526 34.262 76.526 76.527C161.785 92.262 160.951 98.314 159.533 104.138 161.492 103.526 163.535 103.103 165.697 103.103 166.851 103.103 167.971 103.233 169.072 103.418 170.235 97.793 170.849 91.969 170.849 86.001c0-47.27-38.319-85.593-85.59-85.593z" id="path-6" class="cls-8" fill-rule="evenodd"/><path d="M20.318 89.617c-1.996.0-3.614-1.62-3.614-3.616.0-14.487 4.463-28.335 12.908-40.05 1.167-1.618 3.425-1.983 5.047-.817C36.276 46.301 36.644 48.561 35.475 50.181c-7.55 10.472-11.542 22.861-11.542 35.82.0 1.996-1.619 3.616-3.615 3.616z" id="path-7" class="cls-9" fill-rule="evenodd"/></g></svg>