<svg xmlns="http://www.w3.org/2000/svg" xmlns:xlink="http://www.w3.org/1999/xlink" preserveAspectRatio="xMidYMid" width="201" height="216" viewBox="0 0 201 216"><defs><style>.cls-3{fill:#142a3b}.cls-4{fill:#000;opacity:.35}.cls-5{fill:#0cb04a}.cls-11{fill:#fbb713}.cls-17{fill:#fbfbfb;opacity:.5}.cls-21{fill:#000}</style></defs><g id="group-62svg"><path d="M107.599 215.549s-14.503.0-14.503.0C91.758 215.549 90.672 214.463 90.672 213.124V65.11C90.672 63.771 91.758 62.686 93.096 62.686h14.503C108.938 62.686 110.023 63.771 110.023 65.11V213.124C110.023 214.463 108.938 215.549 107.599 215.549z" id="path-1" class="cls-3" fill-rule="evenodd"/><path d="M104.864 63.854C105.584 65.207 106.031 66.73 106.031 68.369V201.883C106.031 207.225 101.7 211.557 96.357 211.557 94.716 211.557 93.194 211.11 91.84 210.389 93.467 213.445 96.645 215.549 100.348 215.549 105.692 215.549 110.023 211.217 110.023 205.874V72.36c0-3.702-2.104-6.88-5.15899999999999-8.506z" id="path-2" class="cls-4" fill-rule="evenodd"/><path d="M121.812 84.453s-42.929.0-42.929.0C77.272 84.453 75.967 83.149 75.967 81.537V61.249C75.967 59.637 77.272 58.332 78.883 58.332h42.929c1.61200000000001.0 2.917 1.305 2.917 2.917V81.537C124.729 83.149 123.424 84.453 121.812 84.453z" id="path-3" class="cls-5" fill-rule="evenodd"/><path d="M113.883 58.412C115.643 60.451 116.746 63.077 116.746 65.983v2.839C116.746 75.25 111.534 80.463 105.105 80.463H79.626C79.353 80.463 79.098 80.401 78.83 80.383 80.965 82.856 84.085 84.453 87.609 84.453h25.479c6.429.0 11.641-5.211 11.641-11.641V69.974c0-6.157-4.795-11.146-10.846-11.562z" id="path-4" class="cls-4" fill-rule="evenodd"/><path d="M124.522 62.686s-48.348.0-48.348.0c-1.611.0-2.917-1.306-2.917-2.918V36.578c0-1.611 1.306-2.917 2.917-2.917h48.348c1.61.0 2.916 1.306 2.916 2.917v23.19c0 1.612-1.306 2.918-2.916 2.918z" id="path-5" class="cls-5" fill-rule="evenodd"/><path d="M116.592 33.741C118.352 35.781 119.455 38.406 119.455 41.312v5.74c0 6.431-5.212 11.641-11.641 11.641H76.916C76.644 58.693 76.389 58.632 76.121 58.613 78.256 61.087 81.375 62.685 84.899 62.685h30.897C122.226 62.685 127.438 57.473 127.438 51.044V45.303C127.438 39.145 122.643 34.157 116.592 33.741z" id="path-6" class="cls-4" fill-rule="evenodd"/><path d="M112.857 35.596s-25.018.0-25.018.0C86.768 35.596 85.9 34.728 85.9 33.656v-11.6C85.9 20.984 86.768 20.117 87.839 20.117h25.018C113.928 20.117 114.796 20.984 114.796 22.056v11.6C114.796 34.728 113.928 35.596 112.857 35.596z" id="path-7" class="cls-5" fill-rule="evenodd"/><path d="M107.056 20.117S105.805 20.117 105.805 20.117C106.428 21.232 106.813 22.497 106.813 23.865c0 4.274-3.465 7.74-7.74000000000001 7.74H86.907C88.231 33.975 90.733 35.596 93.64 35.596h13.416C111.331 35.596 114.796 32.13 114.796 27.856c0-4.275-3.465-7.739-7.74000000000001-7.739z" id="path-8" class="cls-4" fill-rule="evenodd"/><path d="M200.289 112.135C199.245 117.782 176.793 118.368 150.14 113.442 123.487 108.516 102.728 99.943 103.772 94.296 104.816 88.647 127.269 88.061 153.921 92.988c26.652 4.926 47.412 13.498 46.368 19.147z" id="path-9" class="cls-11" fill-rule="evenodd"/><path d="M105.025 92.519C109.913 97.115 128.573 100.538 150.901 100.538 160.765 100.538 169.915 99.869 177.486 98.728 170.612 96.581 162.589 94.589 153.921 92.988 130.403 88.641 110.179 88.591 105.025 92.519z" id="path-10" class="cls-4" fill-rule="evenodd"/><path d="M.028 112.135C1.072 117.782 23.524 118.368 50.177 113.442 76.83 108.516 97.589 99.943 96.546 94.296 95.501 88.647 73.049 88.061 46.396 92.988 19.743 97.914-1.016 106.486.028 112.135z" id="path-11" class="cls-11" fill-rule="evenodd"/><path d="M22.831 98.728C30.403 99.869 39.552 100.538 49.417 100.538 71.744 100.538 90.404 97.115 95.292 92.519 90.138 88.591 69.914 88.641 46.397 92.988c-8.668 1.601-16.692 3.593-23.566 5.74z" id="path-12" class="cls-4" fill-rule="evenodd"/><path d="M2.25 86.147c0 5.744 21.117 10.401 47.167 10.401 26.049.0 47.166-4.657 47.166-10.401s-21.117-10.4-47.166-10.4C23.367 75.747 2.25 80.403 2.25 86.147z" id="path-13" class="cls-11" fill-rule="evenodd"/><path d="M198.067 86.147c0 5.744-21.117 10.401-47.166 10.401-26.05.0-47.167-4.657-47.167-10.401s21.117-10.4 47.167-10.4C176.95 75.747 198.067 80.403 198.067 86.147z" id="path-14" class="cls-11" fill-rule="evenodd"/><path d="M2.25 86.147c0 5.744 21.117 10.401 47.167 10.401 26.049.0 47.166-4.657 47.166-10.401s-21.117-10.4-47.166-10.4C23.367 75.747 2.25 80.403 2.25 86.147z" id="path-15" class="cls-17" fill-rule="evenodd"/><path d="M198.067 86.147c0 5.744-21.117 10.401-47.166 10.401-26.05.0-47.167-4.657-47.167-10.401s21.117-10.4 47.167-10.4C176.95 75.747 198.067 80.403 198.067 86.147z" id="path-16" class="cls-17" fill-rule="evenodd"/><path d="M119.941 14.432c0 7.963-5.089 14.418-11.367 14.418-6.279.0-11.368-6.455-11.368-14.418.0-7.961 5.089-14.417 11.368-14.417C114.852.015 119.941 6.471 119.941 14.432z" id="path-17" class="cls-3" fill-rule="evenodd"/><path d="M101.557 14.432c0 7.963-5.089 14.418-11.367 14.418-6.279.0-11.368-6.455-11.368-14.418C78.822 6.471 83.911.015 90.19.015 96.468.015 101.557 6.471 101.557 14.432z" id="path-18" class="cls-3" fill-rule="evenodd"/><path d="M113.376 1.409C114.961 3.887 115.95 7.002 115.95 10.441c0 7.963-5.09 14.418-11.368 14.418C102.859 24.859 101.243 24.336 99.78 23.465c2.084 3.259 5.227 5.385 8.794 5.385C114.852 28.85 119.941 22.396 119.941 14.432c0-5.776-2.696-10.722-6.565-13.023z" id="path-19" class="cls-21" fill-rule="evenodd"/><path d="M94.992 1.409C96.577 3.887 97.566 7.002 97.566 10.441c0 7.963-5.09 14.418-11.368 14.418C84.475 24.859 82.859 24.336 81.396 23.465c2.084 3.259 5.227 5.385 8.794 5.385C96.468 28.85 101.557 22.396 101.557 14.432c0-5.776-2.696-10.722-6.565-13.023z" id="path-20" class="cls-4" fill-rule="evenodd"/></g></svg>