<svg xmlns="http://www.w3.org/2000/svg" xmlns:xlink="http://www.w3.org/1999/xlink" preserveAspectRatio="xMidYMid" width="216" height="170" viewBox="0 0 216 170"><defs><style>.cls-3{fill:#ff3a2f}.cls-4{fill:#060606;opacity:.35}.cls-8{fill:#142a3b}</style></defs><g id="group-37svg"><path d="M32.797-.015C14.713-.015-.002 14.695-.002 32.784c0 14.308 9.123 26.608 22.329 31.003L2.816 127.138c-5.308 17.274 4.421 35.668 21.708 40.989C27.663 169.094 30.912 169.588 34.179 169.588 48.666 169.588 61.258 160.289 65.524 146.438l13.397-43.514C79.169 102.957 79.398 103.066 79.653 103.066h13.92C95.577 103.066 97.353 101.794 98.002 99.904l11.796-34.322s28.468.0 28.468.0.0-65.597.0-65.597-105.469.0-105.469.0zm57.436 93.71S81.758 93.695 81.758 93.695s6.745-21.909 6.745-21.909C89.647 68.076 93.015 65.582 96.904 65.582H99.897s-9.664 28.113-9.664 28.113z" id="path-1" class="cls-3" fill-rule="evenodd"/><path d="M38.097 161.75C34.83 161.75 31.582 161.255 28.443 160.29 11.155 154.967 1.427 136.574 6.735 119.3L26.246 55.95C13.04 51.554 3.916 39.254 3.916 24.947c0-3.73.656-7.302 1.808-10.646C2.117 19.568-.003 25.93-.003 32.784c0 14.308 9.124 26.608 22.33 31.003L2.816 127.138c-5.308 17.274 4.42 35.668 21.708 40.989C27.663 169.094 30.911 169.587 34.178 169.587 48.249 169.587 60.465 160.776 65.067 147.584 59.078 156.308 49.156 161.75 38.097 161.75z" id="path-2" class="cls-4" fill-rule="evenodd"/><path d="M94.152 85.857s9.664-28.113 9.664-28.113S100.823 57.744 100.823 57.744C96.934 57.744 93.566 60.238 92.421 63.949L91.289 67.627C92.825 66.346 94.779 65.582 96.904 65.582H99.897s-6.971 20.275-6.971 20.275 1.226.0 1.226.0z" id="path-3" class="cls-4" fill-rule="evenodd"/><path d="M97.492 95.228s-13.921.0-13.921.0C83.316 95.228 83.088 95.119 82.84 95.087L80.383 103.065s13.191.0 13.191.0c2.003.0 3.779-1.271 4.428-3.161L99.845 94.543C99.142 94.956 98.349 95.228 97.492 95.228z" id="path-4" class="cls-4" fill-rule="evenodd"/><path d="M113.717 57.744S111.024 65.582 111.024 65.582s27.242.0 27.242.0S138.266 57.744 138.266 57.744s-24.549.0-24.549.0z" id="path-5" class="cls-4" fill-rule="evenodd"/><path d="M210.851 28.098s-42.646.0-42.646.0C165.917 12.248 152.372-.015 135.881-.015V65.582c16.491.0 30.036-12.263 32.324-28.113h42.646C213.451 37.469 215.537 35.378 215.537 32.784 215.537 30.193 213.451 28.098 210.851 28.098z" id="path-6" class="cls-8" fill-rule="evenodd"/><path d="M213.273 28.865C212.556 29.309 211.76 29.631 210.851 29.631H168.205C165.917 45.481 152.372 57.745 135.88 57.745v7.838c16.492.0 30.037-12.264 32.325-28.114h42.646C213.451 37.469 215.537 35.378 215.537 32.784 215.537 31.099 214.605 29.691 213.273 28.865z" id="path-7" class="cls-4" fill-rule="evenodd"/><path d="M51.539 46.84s-9.371.0-9.371.0c-2.581.0-4.686-2.091-4.686-4.685.0-2.59 2.105-4.686 4.686-4.686h9.371c2.6.0 4.686 2.096 4.686 4.686.0 2.594-2.086 4.685-4.686 4.685z" id="path-8" class="cls-8" fill-rule="evenodd"/><path d="M51.539 28.098s-9.371.0-9.371.0c-2.581.0-4.686-2.091-4.686-4.685.0-2.59 2.105-4.686 4.686-4.686h9.371c2.6.0 4.686 2.096 4.686 4.686.0 2.594-2.086 4.685-4.686 4.685z" id="path-9" class="cls-8" fill-rule="evenodd"/></g></svg>