<svg xmlns="http://www.w3.org/2000/svg" xmlns:xlink="http://www.w3.org/1999/xlink" preserveAspectRatio="xMidYMid" width="216" height="198" viewBox="0 0 216 198"><defs><style>.cls-3{fill:#2476ff}.cls-4{fill:#ff3a2f}.cls-5{fill:#000;opacity:.35}</style></defs><g id="group-135svg"><path d="M79.636 196.697s-39.005.0-39.005.0c-1.509.0-2.942-.613-3.995-1.69400000000002L1.584 158.781C-.522 156.599-.5 153.134 1.65 150.986L151.018 1.61C153.189-.56 156.708-.56 158.879 1.61l55.053 55.041C214.973 57.692 215.56 59.104 215.56 60.58 215.56 62.058 214.973 63.468 213.932 64.511L83.576 195.057C82.534 196.106 81.112 196.697 79.636 196.697z" id="path-1" class="cls-3" fill-rule="evenodd"/><path d="M125.945 152.506s-42.369 42.551-42.369 42.551C82.534 196.106 81.112 196.697 79.636 196.697H40.631c-1.509.0-2.942-.613-3.995-1.69400000000002L1.584 158.781C-.522 156.599-.5 153.134 1.65 150.986l61.381-61.38s62.914 62.9 62.914 62.9z" id="path-2" class="cls-4" fill-rule="evenodd"/><path d="M213.932 56.651s-6.845-6.844-6.845-6.844S79.265 177.815 79.265 177.815C78.223 178.863 76.8 179.454 75.324 179.454H36.32c-1.508.0-2.942-.613-3.995-1.691L4.072 148.564s-2.422 2.422-2.422 2.422C-.501 153.134-.522 156.599 1.584 158.781l35.052 36.222C37.689 196.084 39.122 196.697 40.631 196.697H79.635C81.111 196.697 82.534 196.106 83.576 195.057L213.932 64.511C214.973 63.468 215.561 62.058 215.561 60.58 215.561 59.104 214.973 57.692 213.932 56.651z" id="path-3" class="cls-5" fill-rule="evenodd"/></g></svg>