<svg xmlns="http://www.w3.org/2000/svg" xmlns:xlink="http://www.w3.org/1999/xlink" preserveAspectRatio="xMidYMid" width="182" height="216" viewBox="0 0 182 216"><defs><style>.cls-3{fill:#ff3a2f}.cls-4{fill:#0cb04a}.cls-5{fill:#060606;opacity:.35}</style></defs><g id="group-29svg"><path d="M169.383 142.913C169.321 142.913 169.267 142.913 169.196 142.913H14.453c-1.631.0-3.119-.869-3.935-2.26900000000001C9.703 139.244 9.703 137.507 10.518 136.107L87.88 2.089C89.502-.72 94.12-.72 95.742 2.089l76.839 133.074C173.414 135.982 173.92 137.117 173.92 138.376 173.92 140.888 171.89 142.913 169.383 142.913z" id="path-1" class="cls-3" fill-rule="evenodd"/><path d="M176.977 215.514s-172.432.0-172.432.0C2.045 215.514.007 213.489.007 210.977V165.601C.007 163.092 2.045 161.063 4.545 161.063H176.977C179.495 161.063 181.515 163.092 181.515 165.601v45.376C181.515 213.489 179.495 215.514 176.977 215.514z" id="path-2" class="cls-4" fill-rule="evenodd"/><path d="M172.582 135.163S95.742 2.09 95.742 2.09C94.12-.72 89.502-.72 87.88 2.09L87.834 2.169s71.815 124.372 71.815 124.372C160.481 127.361 160.988 128.496 160.988 129.754 160.988 132.268 158.959 134.293 156.45 134.293 156.388 134.293 156.335 134.293 156.263 134.293H11.566S10.518 136.107 10.518 136.107C9.703 137.508 9.703 139.244 10.518 140.644 11.334 142.044 12.823 142.914 14.453 142.914H169.196C169.267 142.914 169.32 142.914 169.383 142.914 171.891 142.914 173.92 140.888 173.92 138.376 173.92 137.117 173.413 135.982 172.582 135.163z" id="path-3" class="cls-5" fill-rule="evenodd"/><path d="M176.978 161.063S168.583 161.063 168.583 161.063s0 41.293.0 41.293C168.583 204.869 166.563 206.893 164.045 206.893H.008s0 4.084.0 4.084C.008 213.49 2.045 215.514 4.545 215.514H176.978C179.495 215.514 181.515 213.49 181.515 210.977V165.602C181.515 163.092 179.495 161.063 176.978 161.063z" id="path-4" class="cls-5" fill-rule="evenodd"/></g></svg>