<svg xmlns="http://www.w3.org/2000/svg" xmlns:xlink="http://www.w3.org/1999/xlink" preserveAspectRatio="xMidYMid" width="156" height="217" viewBox="0 0 156 217"><defs><style>.cls-3{fill:#2476ff}.cls-4{fill:#010101;opacity:.35}.cls-5{fill:#ff3a2f}.cls-7{fill:#142a3b}.cls-8{fill:#fff}</style></defs><g id="group-88svg"><path d="M108.442 31.17s0 20.92.0 20.92c0 3.205-2.59899999999999 5.806-5.806 5.806H35.085c-19.294.0-35.08 15.786-35.08 35.08v92.053c0 17.551 14.36 31.912 31.911 31.912H136.455c10.48.0 18.976-8.49700000000001 18.976-18.977V99.189s0-20.649.0-20.649.0-47.37.0-47.37C155.431 27.963 152.832 25.364 149.625 25.364H114.248C111.041 25.364 108.442 27.963 108.442 31.17z" id="path-1" class="cls-3" fill-rule="evenodd"/><path d="M141.784 25.364c-2.875.0-5.215 2.311-5.25100000000001 5.185L136.166 59.819s0 20.649.0 20.649.0 91.646.0 91.646c0 14.134-11.564 25.699-25.699 25.699H7.354C5.004 197.813 2.682 197.434.439 196.775c2.99 11.079 14.073 19.871 25.748 19.871H139.169c8.743.0 15.83-7.08799999999999 15.83-15.829V99.301s0-20.648.0-20.648S155.388 30.657 155.388 30.657C155.412 27.74 153.054 25.364 150.138 25.364H141.784z" id="path-2" class="cls-4" fill-rule="evenodd"/><path d="M151.615-.016s-39.997.0-39.997.0.0 25.001.0 25.001 39.997.0 39.997.0.0-25.001.0-25.001z" id="path-3" class="cls-5" fill-rule="evenodd"/><path d="M137.692.061s0 2.944.0 2.944c0 6.175-5.006 11.182-11.182 11.182H112.056s0 11.177.0 11.177 39.761.0 39.761.0.0-25.303.0-25.303-14.125.0-14.125.0z" id="path-4" class="cls-4" fill-rule="evenodd"/><path d="M119.656 148.058c0-20.346-36.839-59.478-36.839-59.478s-36.84 39.132-36.84 59.478c0 20.347 16.493 36.84 36.84 36.84 20.345.0 36.839-16.493 36.839-36.84z" id="path-5" class="cls-7" fill-rule="evenodd"/><path d="M16.842 96.281C14.846 96.281 13.228 94.662 13.228 92.666c0-16.696 15.547-25.707 30.175-25.707 1.996.0 3.614 1.619 3.614 3.616C47.017 72.571 45.399 74.189 43.403 74.189 32.279 74.189 20.457 80.665 20.457 92.666 20.457 94.662 18.837 96.281 16.842 96.281z" id="path-6" class="cls-8" fill-rule="evenodd"/><path d="M89.017 175.88c-18.76.0-34.022-15.262-34.022-34.023C54.995 139.861 56.613 138.242 58.609 138.242c1.996.0 3.615 1.619 3.615 3.61500000000001.0 14.774 12.019 26.794 26.793 26.794C91.013 168.651 92.632 170.269 92.632 172.266 92.632 174.262 91.013 175.88 89.017 175.88z" id="path-7" class="cls-8" fill-rule="evenodd"/></g></svg>