<svg xmlns="http://www.w3.org/2000/svg" xmlns:xlink="http://www.w3.org/1999/xlink" preserveAspectRatio="xMidYMid" width="216" height="106" viewBox="0 0 216 106"><defs><style>.cls-3{fill:#fbb713}.cls-5{fill:#ededed}.cls-6{fill:#060606;opacity:.25}</style></defs><g id="group-17svg"><path d="M213.879 105.507s-212.199.0-212.199.0C.758 105.507.01 104.759.01 103.837v-9.8C.01 93.114.758 92.367 1.68 92.367H213.879C214.802 92.367 215.55 93.114 215.55 94.037v9.8C215.55 104.759 214.802 105.507 213.879 105.507z" id="path-1" class="cls-3" fill-rule="evenodd"/><path d="M199.067 92.367C196.051 44.565 156.345 6.721 107.78 6.721S19.509 44.565 16.493 92.367H199.067z" id="path-2" class="cls-3" fill-rule="evenodd"/><path d="M34.346 67.257C33.829 67.257 33.305 67.147 32.809 66.912 31.016 66.061 30.251 63.92 31.101 62.126c7.691-16.229 20.882-29.407 37.14-37.101C70.034 24.179 72.177 24.938 73.025 26.735 73.873 28.527 73.109 30.668 71.314 31.517c-14.762 6.989-26.739 18.95-33.72 33.687C36.98 66.5 35.689 67.257 34.346 67.257z" id="path-3" class="cls-5" fill-rule="evenodd"/><path d="M136.391 11.375c22.25 15.484 36.771 34.552 38.582 63.261L17.346 84.46C16.595 88.309 16.746 88.362 16.493 92.367H199.067C196.672 54.414 171.113 22.817 136.391 11.375z" id="path-4" class="cls-6" fill-rule="evenodd"/><path d="M98.871 52.185C102.823 52.185 106.027 48.981 106.027 45.028V7.142C106.027 7.027 105.999 6.921 105.993 6.808c-4.863.093-9.63.562-14.279 1.386V45.028c0 3.953 3.205 7.157 7.157 7.157z" id="path-5" class="cls-6" fill-rule="evenodd"/><path d="M134.141 52.185C138.093 52.185 141.297 48.981 141.297 45.028V13.096C136.699 11.283 131.912 9.856 126.984 8.802V45.028c0 3.953 3.205 7.157 7.157 7.157z" id="path-6" class="cls-6" fill-rule="evenodd"/><path d="M131.64 52.185s-10.674.0-10.674.0C119.961 52.185 119.146 51.37 119.146 50.366V1.805C119.146.8 119.961-.014 120.966-.014H131.64C132.645-.014 133.46.8 133.46 1.805V50.366C133.46 51.37 132.645 52.185 131.64 52.185z" id="path-7" class="cls-3" fill-rule="evenodd"/><path d="M94.595 52.185s-10.675.0-10.675.0C82.915 52.185 82.1 51.37 82.1 50.366V1.805C82.1.8 82.915-.014 83.92-.014H94.595c1.004.0 1.819.814 1.819 1.819V50.366C96.414 51.37 95.599 52.185 94.595 52.185z" id="path-8" class="cls-3" fill-rule="evenodd"/><path d="M6.58 105.507s202.4.0 202.4.0C212.609 105.507 215.55 102.565 215.55 98.937H.01C.01 102.565 2.952 105.507 6.58 105.507z" id="path-9" class="cls-6" fill-rule="evenodd"/></g></svg>