<svg xmlns="http://www.w3.org/2000/svg" xmlns:xlink="http://www.w3.org/1999/xlink" preserveAspectRatio="xMidYMid" width="216" height="216" viewBox="0 0 216 216"><defs><style>.cls-3{fill:#2476ff}.cls-4{fill:#000;opacity:.35}</style></defs><g id="group-129svg"><path d="M156.762 215.53s41.351.0 41.351.0c7.893.0 17.432-6.554 17.432-14.696V14.694C215.545 6.551 206.006-.002 198.113-.002H11.964C3.134-.002.005 7.909.005 14.694v186.14C.005 207.618 3.134 215.53 11.964 215.53H117.572s0-78.376.0-78.376-34.29.0-34.29.0c-2.708.0-4.899-2.19-4.899-4.89699999999999V102.866c0-2.708 2.191-4.899 4.899-4.899h34.29s0-34.289.0-34.289c0-23.899 21.183-44.086 46.25-44.086h27.23c2.708.0 4.899 2.189 4.899 4.897V53.88c0 2.709-2.191 4.9-4.899 4.9H173.62c-8.286.0-16.858 4.582-16.858 12.246V97.967s31.554.0 31.554.0C189.894 97.967 191.367 98.723 192.287 100.004 193.214 101.277 193.463 102.924 192.965 104.416l-9.797 29.391C182.499 135.805 180.623 137.154 178.518 137.154H156.762s0 78.376.0 78.376z" id="path-1" class="cls-3" fill-rule="evenodd"/><path d="M178.91 93.264s-22.148.0-22.148.0.0 4.703.0 4.703 27.012.0 27.012.0C183.735 97.019 183.455 96.089 182.881 95.302 181.963 94.02 180.489 93.264 178.91 93.264z" id="path-2" class="cls-4" fill-rule="evenodd"/><path d="M108.167 210.828s-105.408.0-105.408.0C4.648 213.594 7.607 215.53 11.964 215.53H117.572s0-78.376.0-78.376-9.405.0-9.405.0.0 73.674.0 73.674z" id="path-3" class="cls-4" fill-rule="evenodd"/><path d="M186.506 19.592C186.398 16.981 184.285 14.89 181.647 14.89h-27.23c-25.067.0-46.25 20.185-46.25 44.085V93.264s-34.29.0-34.29.0C71.168 93.264 68.978 95.456 68.978 98.164v29.39c0 2.708 2.19000000000001 4.899 4.899 4.899H78.423C78.42 132.383 78.383 132.325 78.383 132.257V102.866c0-2.708 2.191-4.899 4.899-4.899h34.29s0-34.289.0-34.289c0-23.899 21.183-44.086 46.25-44.086h22.684z" id="path-4" class="cls-4" fill-rule="evenodd"/><path d="M201.141.298c2.94 2.589 4.999 5.953 4.999 9.693V196.132c0 8.142-9.53899999999999 14.696-17.433 14.696H156.762s0 4.702.0 4.702 41.351.0 41.351.0c7.893.0 17.432-6.554 17.432-14.696V14.694C215.545 7.573 208.251 1.669 201.141.298z" id="path-5" class="cls-4" fill-rule="evenodd"/></g></svg>