<svg xmlns="http://www.w3.org/2000/svg" xmlns:xlink="http://www.w3.org/1999/xlink" preserveAspectRatio="xMidYMid" width="162" height="216" viewBox="0 0 162 216"><defs><style>.cls-3{fill:#2476ff}.cls-5{fill:#000;opacity:.35}</style></defs><g id="group-133svg"><path d="M157.167 215.542s-152.674.0-152.674.0C2.011 215.542.003 213.534.003 211.051V54.628c0-1.061.377-2.087 1.061-2.898L43.465 1.6C44.319.591 45.573.009 46.893.009H157.167C159.649.009 161.658 2.017 161.658 4.499V211.051C161.658 213.534 159.649 215.542 157.167 215.542z" id="path-1" class="cls-3" fill-rule="evenodd"/><path d="M44.907.009s0 49.393.0 49.393c0 2.483-2.008 4.49-4.491 4.49H.003S44.907.009 44.907.009z" id="path-2" class="cls-3" fill-rule="evenodd"/><path d="M44.907.009s0 49.393.0 49.393c0 2.483-2.008 4.49-4.491 4.49H.003S44.907.009 44.907.009z" id="path-3" class="cls-5" fill-rule="evenodd"/></g></svg>