<svg xmlns="http://www.w3.org/2000/svg" xmlns:xlink="http://www.w3.org/1999/xlink" preserveAspectRatio="xMidYMid" width="216" height="171" viewBox="0 0 216 171"><defs><style>.cls-3{fill:#0cb04a}.cls-4{fill:#000;opacity:.35}</style></defs><g id="group-78svg"><path d="M72.412 67.135s70.738.0 70.738.0 60.562-44.362 60.562-44.362-191.862.0-191.862.0S72.412 67.135 72.412 67.135z" id="path-1" class="cls-3" fill-rule="evenodd"/><path d="M11.85 22.773s5.785 4.237 5.785 4.237 122.683 8.94 122.683 8.94C146.008 36.365 148.099 43.643 143.496 47.013L116.028 67.135s27.122.0 27.122.0 60.562-44.362 60.562-44.362-191.862.0-191.862.0z" id="path-2" class="cls-4" fill-rule="evenodd"/><path d="M83.993 67.042s47.576.0 47.576.0.0 103.494.0 103.494-47.576.0-47.576.0.0-103.494.0-103.494z" id="path-3" class="cls-3" fill-rule="evenodd"/><path d="M83.993 67.042S117.18 72.38 117.18 72.38s0 98.156.0 98.156 14.389.0 14.389.0.0-103.493.0-103.493S83.993 67.042 83.993 67.042z" id="path-4" class="cls-4" fill-rule="evenodd"/><path d="M.011-.004s215.54.0 215.54.0.0 22.777.0 22.777-215.54.0-215.54.0.0-22.777.0-22.777z" id="path-5" class="cls-3" fill-rule="evenodd"/></g></svg>