<svg xmlns="http://www.w3.org/2000/svg" xmlns:xlink="http://www.w3.org/1999/xlink" preserveAspectRatio="xMidYMid" width="204" height="217" viewBox="0 0 204 217"><defs><style>.cls-3{fill:#ff3a2f}.cls-4{fill:#020403;opacity:.35}.cls-5{fill:#fbb713}.cls-8{fill:#142a3b}</style></defs><g id="group-141svg"><path d="M132.573 199.283s-110.275.0-110.275.0.0-73.911.0-73.911 110.275.0 110.275.0.0 73.911.0 73.911z" id="path-1" class="cls-3" fill-rule="evenodd"/><path d="M108.798 152.668s0 21.821.0 21.821-61.551.0-61.551.0.0 11.027.0 11.027 76.255.0 76.255.0.0-32.848.0-32.848-14.704.0-14.704.0z" id="path-2" class="cls-4" fill-rule="evenodd"/><path d="M116.15 178.165s-76.254.0-76.254.0.0-32.847.0-32.847 76.254.0 76.254.0.0 32.847.0 32.847z" id="path-3" class="cls-5" fill-rule="evenodd"/><path d="M117.159 110.097c0-22.112-17.926-40.039-40.038-40.039-22.113.0-40.039 17.927-40.039 40.039h80.077z" id="path-4" class="cls-3" fill-rule="evenodd"/><path d="M82.315 70.432C92.28 77.716 98.78 89.458 98.78 102.746H37.786C37.343 105.131 37.082 107.582 37.082 110.097h80.077c0-20.349-15.191-37.113-34.844-39.665z" id="path-5" class="cls-4" fill-rule="evenodd"/><path d="M156.036 125.372s-156.027.0-156.027.0.0-17.597.0-17.597 156.027.0 156.027.0.0 17.597.0 17.597z" id="path-6" class="cls-8" fill-rule="evenodd"/><path d="M22.298 133.775s110.275 5.196 110.275 5.196.0-13.599.0-13.599-110.275.0-110.275.0S22.298 133.775 22.298 133.775z" id="path-7" class="cls-4" fill-rule="evenodd"/><path d="M156.036 216.879s-156.027.0-156.027.0.0-17.596.0-17.596 156.027.0 156.027.0.0 17.596.0 17.596z" id="path-8" class="cls-8" fill-rule="evenodd"/><path d="M22.298 191.931S22.298 199.283 22.298 199.283s110.275.0 110.275.0S132.573 191.931 132.573 191.931s-110.275.0-110.275.0z" id="path-9" class="cls-4" fill-rule="evenodd"/><path d="M87.608 65.792s-17.211.0-17.211.0.0-7.229.0-7.229 14.346.0 14.346.0S98.445 45.659 98.445 45.659s45.764.0 45.764.0.0-9.291.0-9.291S151.439 36.368 151.439 36.368s0 16.521.0 16.521-50.128.0-50.128.0S87.608 65.792 87.608 65.792z" id="path-10" class="cls-8" fill-rule="evenodd"/><path d="M160.163 36.368s-24.227.0-24.227.0.0-36.368.0-36.368 24.227.0 24.227.0.0 36.368.0 36.368z" id="path-11" class="cls-3" fill-rule="evenodd"/><path d="M152.812.0s0 36.368.0 36.368S160.164 36.368 160.164 36.368s0-36.368.0-36.368S152.812.0 152.812.0z" id="path-12" class="cls-4" fill-rule="evenodd"/><path d="M83.671 47.278C83.671 50.896 80.738 53.829 77.121 53.829 73.504 53.829 70.571 50.896 70.571 47.278 70.571 43.661 73.504 40.729 77.121 40.729 80.738 40.729 83.671 43.661 83.671 47.278z" id="path-13" class="cls-8" fill-rule="evenodd"/><path d="M83.671 160.919C83.671 164.537 80.738 167.47 77.121 167.47 73.504 167.47 70.571 164.537 70.571 160.919 70.571 157.302 73.504 154.369 77.121 154.369 80.738 154.369 83.671 157.302 83.671 160.919z" id="path-14" class="cls-3" fill-rule="evenodd"/><path d="M80.797 154.369C80.154 154.369 79.545 154.49 78.959 154.662 81.675 155.461 83.671 157.944 83.671 160.919 83.671 163.894 81.675 166.378 78.959 167.175 79.545 167.349 80.154 167.47 80.797 167.47 84.414 167.47 87.346 164.537 87.346 160.919 87.346 157.302 84.414 154.369 80.797 154.369z" id="path-15" class="cls-4" fill-rule="evenodd"/><path d="M164.703 80.478C164.703 83.526 162.232 85.997 159.185 85.997S153.667 83.526 153.667 80.478c0-3.047 2.471-5.517 5.518-5.517s5.518 2.47 5.518 5.517z" id="path-16" class="cls-3" fill-rule="evenodd"/><path d="M203.868 97.863C203.868 102.054 200.471 105.451 196.281 105.451 192.09 105.451 188.694 102.054 188.694 97.863 188.694 93.673 192.09 90.275 196.281 90.275 200.471 90.275 203.868 93.673 203.868 97.863z" id="path-17" class="cls-3" fill-rule="evenodd"/></g></svg>