<svg xmlns="http://www.w3.org/2000/svg" xmlns:xlink="http://www.w3.org/1999/xlink" preserveAspectRatio="xMidYMid" width="154" height="217" viewBox="0 0 154 217"><defs><style>.cls-3{fill:#142a3b}.cls-5{fill:#ff3a2f}.cls-6{fill:#020403;opacity:.45}.cls-9{fill:#020403;opacity:.35}.cls-16{fill:#fff}</style></defs><g id="group-65svg"><path d="M130.074 154.095c12.815.0 23.241-10.43 23.241-23.249.0-12.812-10.426-23.234-23.241-23.234v46.483z" id="path-1" class="cls-3" fill-rule="evenodd"/><path d="M23.228 154.095c-12.816.0-23.241-10.43-23.241-23.249.0-12.812 10.425-23.234 23.241-23.234v46.483z" id="path-2" class="cls-3" fill-rule="evenodd"/><path d="M51.982 162.9s-26.993.0-26.993.0C22.502 162.9 20.491 160.887 20.491 158.401V104.413C20.491 101.926 22.502 99.915 24.989 99.915H51.982c2.487.0 4.499 2.011 4.499 4.49799999999999v53.988C56.481 160.887 54.469 162.9 51.982 162.9z" id="path-3" class="cls-5" fill-rule="evenodd"/><path d="M46.054 99.915s-2.75.0-2.75.0.0 50.599.0 50.599c0 2.48699999999999-1.633 4.499-3.652 4.499H20.491S20.491 158.401 20.491 158.401C20.491 160.887 22.124 162.9 24.142 162.9H46.054C48.073 162.9 49.706 160.887 49.706 158.401V104.413C49.706 101.926 48.073 99.915 46.054 99.915z" id="path-4" class="cls-6" fill-rule="evenodd"/><path d="M132.961 162.9s-26.994.0-26.994.0C103.481 162.9 101.469 160.887 101.469 158.401V104.413C101.469 101.926 103.481 99.915 105.967 99.915h26.994C135.447 99.915 137.459 101.926 137.459 104.413v53.988C137.459 160.887 135.447 162.9 132.961 162.9z" id="path-5" class="cls-5" fill-rule="evenodd"/><path d="M105.967 198.891s-53.985.0-53.985.0c-2.487.0-4.499-2.012-4.499-4.5V86.419c0-2.488 2.012-4.5 4.499-4.5h53.985c2.48699999999999.0 4.499 2.012 4.499 4.5V194.391c0 2.488-2.012 4.5-4.499 4.5z" id="path-6" class="cls-5" fill-rule="evenodd"/><path d="M105.967 81.919s-53.985.0-53.985.0c-2.487.0-4.499 2.012-4.499 4.5V89.805s38.769.0 38.769.0C88.739 89.805 90.751 91.817 90.751 94.305V198.891s15.216.0 15.216.0c2.48699999999999.0 4.499-2.012 4.499-4.5V86.419c0-2.488-2.012-4.5-4.499-4.5z" id="path-7" class="cls-9" fill-rule="evenodd"/><path d="M141.958 216.887s-125.967.0-125.967.0c-2.486.0-4.498-2.012-4.498-4.5V194.391C11.493 191.906 13.505 189.894 15.991 189.894H141.958C144.445 189.894 146.457 191.906 146.457 194.391v17.996c0 2.488-2.012 4.5-4.499 4.5z" id="path-8" class="cls-5" fill-rule="evenodd"/><path d="M141.958 189.894s-11.274.0-11.274.0.0 14.608.0 14.608C130.684 206.988 128.673 209 126.185 209H11.493s0 3.387.0 3.387c0 2.488 2.012 4.5 4.498 4.5H141.958c2.48699999999999.0 4.499-2.012 4.499-4.5V194.391C146.457 191.905 144.445 189.894 141.958 189.894z" id="path-9" class="cls-9" fill-rule="evenodd"/><path d="M103.651 23.249C103.651 10.438 93.225.007 80.409.007c-12.815.0-23.24 10.431-23.24 23.242h46.482z" id="path-10" class="cls-3" fill-rule="evenodd"/><path d="M123.963 86.974s-89.976.0-89.976.0C31.5 86.974 29.488 84.961 29.488 82.474V62.229c0-26.588 21.739-47.422 49.487-47.422 27.749.0 49.487 20.991 49.487 47.791V82.474C128.462 84.961 126.45 86.974 123.963 86.974z" id="path-11" class="cls-5" fill-rule="evenodd"/><path d="M78.975 14.807c-3.395.0-6.696.321-9.88199999999999.917 22.88 4.29 39.653 23.337 39.653 46.874V82.474c0 2.48699999999999-2.011 4.5-4.499 4.5h19.716C126.45 86.974 128.461 84.961 128.461 82.474V62.598c0-26.8-21.737-47.791-49.486-47.791z" id="path-12" class="cls-9" fill-rule="evenodd"/><path d="M119.465 162.9S110.466 162.9 110.466 162.9s0-62.985.0-62.985S119.465 99.915 119.465 99.915s0 62.985.0 62.985z" id="path-13" class="cls-6" fill-rule="evenodd"/><path d="M38.491 66.412C38.317 66.412 38.139 66.399 37.962 66.372 35.987 66.082 34.62 64.246 34.911 62.271 35.114 60.885 40.149 28.311 63.042 30.61 65.028 30.809 66.476 32.58 66.279 34.567 66.079 36.553 64.3 38.006 62.322 37.804 46.145 36.193 42.101 63.05 42.062 63.322 41.799 65.119 40.255 66.412 38.491 66.412z" id="path-14" class="cls-16" fill-rule="evenodd"/></g></svg>