<svg xmlns="http://www.w3.org/2000/svg" xmlns:xlink="http://www.w3.org/1999/xlink" preserveAspectRatio="xMidYMid" width="216" height="216" viewBox="0 0 216 216"><defs><style>.cls-3{fill:#142a3b}.cls-4{fill:#ff3a2f}.cls-6{fill:#000;opacity:.35}.cls-14{fill:#ededed}</style></defs><g id="group-47svg"><path d="M147.629 67.917S48.263 167.28 48.263 167.28s0 0 0 0" id="path-1" class="cls-3" fill-rule="evenodd"/><path d="M50.803 169.821S45.724 164.741 45.724 164.741s99.365-99.364 99.365-99.364S150.168 70.457 150.168 70.457s-99.365 99.364-99.365 99.364z" id="path-2" class="cls-4" fill-rule="evenodd"/><path d="M114.223 23.506S200.434.406 200.434.406C209.364-1.986 217.534 6.183 215.142 15.113l-23.1 86.209C189.649 110.25 178.488 113.24 171.951 106.704c-10.854-29.858-31.552-51.189-63.111-63.108C102.304 37.059 105.294 25.898 114.223 23.506z" id="path-3" class="cls-4" fill-rule="evenodd"/><path d="M162.981 87.694c-10.741-25.962-29.482-44.989-56.935-56.471C104.645 35.314 105.347 40.102 108.84 43.595c24.383 9.209 42.255 24.061 54.141 44.099z" id="path-4" class="cls-6" fill-rule="evenodd"/><path d="M208.095 1.019s-23.101 86.208-23.101 86.208C182.754 95.589 172.87 98.632 166.249 93.634 168.372 97.798 170.292 102.139 171.951 106.704 178.488 113.24 189.649 110.251 192.041 101.321l23.101-86.208C216.802 8.919 213.334 3.176 208.099.986 208.096.997 208.098 1.008 208.095 1.019z" id="path-5" class="cls-6" fill-rule="evenodd"/><path d="M4.649 170.486s44.765-11.994 44.765-11.994C54.05 157.249 58.293 161.491 57.051 166.128L45.056 210.892C43.814 215.528 38.019 217.081 34.625 213.687c-5.637-15.504-16.384-26.579-32.771-32.769C-1.54 177.524.013 171.729 4.649 170.486z" id="path-6" class="cls-4" fill-rule="evenodd"/><path d="M.066 176.15C-.038 177.829.499 179.563 1.854 180.918 8.178 183.306 13.641 186.44 18.316 190.257 13.522 184.438 7.468 179.709.066 176.15z" id="path-7" class="cls-6" fill-rule="evenodd"/><path d="M50.091 158.406C50.055 158.632 50.065 158.853 50.004 159.081L38.009 203.845C37.269 206.605 34.911 208.237 32.411 208.418 33.215 210.116 33.962 211.865 34.625 213.687 38.018 217.081 43.814 215.528 45.057 210.893l11.994-44.765C58.232 161.721 54.449 157.727 50.091 158.406z" id="path-8" class="cls-6" fill-rule="evenodd"/><path d="M142.356 127.838C140.372 127.838 138.763 126.229 138.763 124.246c0-26.172-21.293-47.464-47.465-47.464C89.314 76.782 87.706 75.174 87.706 73.19 87.706 71.206 89.314 69.597 91.298 69.597c30.133.0 54.65 24.517 54.65 54.649C145.948 126.229 144.339 127.838 142.356 127.838z" id="path-9" class="cls-4" fill-rule="evenodd"/><path d="M119.063 151.13C117.079 151.13 115.471 149.522 115.471 147.537c0-26.171-21.293-47.463-47.465-47.463C66.022 100.074 64.414 98.465 64.414 96.482 64.414 94.498 66.022 92.889 68.006 92.889c30.134.0 54.65 24.516 54.65 54.648C122.656 149.522 121.047 151.13 119.063 151.13z" id="path-10" class="cls-4" fill-rule="evenodd"/><path d="M95.771 174.422C93.787 174.422 92.179 172.812 92.179 170.828c0-26.171-21.293-47.463-47.466-47.463-1.983.0-3.592-1.60799999999999-3.592-3.592C41.121 117.789 42.73 116.181 44.713 116.181c30.134.0 54.65 24.516 54.65 54.647C99.363 172.812 97.755 174.422 95.771 174.422z" id="path-11" class="cls-4" fill-rule="evenodd"/><path d="M194.226 34.52C190.581 38.164 184.672 38.164 181.027 34.52 177.383 30.875 177.383 24.967 181.027 21.322c3.64500000000001-3.645 9.554-3.645 13.199.0S197.871 30.875 194.226 34.52z" id="path-12" class="cls-14" fill-rule="evenodd"/></g></svg>