<svg xmlns="http://www.w3.org/2000/svg" xmlns:xlink="http://www.w3.org/1999/xlink" preserveAspectRatio="xMidYMid" width="163" height="219" viewBox="0 0 163 219"><defs><style>.cls-3{fill:#2476ff}.cls-5{fill:#142a3b}.cls-7{fill:#020403;opacity:.35}.cls-8{fill:#fff}</style></defs><g id="group-148svg"><path d="M53.606 153.82s-53.604.0-53.604.0 21.299-52.591 21.299-52.591S.002 48.825.002 48.825s53.604.0 53.604.0.0 104.995.0 104.995z" id="path-1" class="cls-3" fill-rule="evenodd"/><path d="M151.601 160.821s-97.995.0-97.995.0.0-122.997.0-122.997 97.995.0 97.995.0.0 122.997.0 122.997z" id="path-2" class="cls-3" fill-rule="evenodd"/><path d="M148.101 218.576C146.105 218.576 144.601 216.956 144.601 214.96V30.612c0-1.995 1.50399999999999-3.614 3.5-3.614s3.5 1.619 3.5 3.614V214.96C151.601 216.956 150.097 218.576 148.101 218.576z" id="path-3" class="cls-5" fill-rule="evenodd"/><path d="M138.965 32.358C140.005 32.807 141.098 33.156 142.226 33.391 142.245 33.395 152.473 32.974 152.473 32.974 158.427 30.349 162.587 24.07 162.599 17.138 162.579 7.769 155.021.03 145.651.013 136.296.03 128.729 7.515 128.717 16.884 128.723 23.863 132.941 29.761 138.965 32.358z" id="path-4" class="cls-3" fill-rule="evenodd"/><path d="M142.246.185C138.664 3.269 136.35 7.774 136.344 12.899 136.349 19.879 140.567 25.776 146.591 28.374 147.63 28.821 148.724 29.171 149.851 29.407 149.865 29.408 154.642 29.213 157.668 29.089 156.179 30.643 154.437 31.937 152.473 32.803 152.473 32.803 142.245 33.223 142.226 33.22 141.098 32.984 140.005 32.635 138.965 32.185c-6.024-2.596-10.242-8.493-10.248-15.473C128.727 8.51 134.526 1.755 142.246.185z" id="path-5" class="cls-7" fill-rule="evenodd"/><path d="M145.22 16.036C147.601 18.416 151.46 18.416 153.84 16.036c2.381-2.381 2.381-6.24.0-8.621C151.46 5.035 147.601 5.035 145.22 7.415c-2.38 2.381-2.38 6.24.0 8.621z" id="path-6" class="cls-8" fill-rule="evenodd"/><path d="M36.215 153.511s16.516.0 16.516.0S53.363 48.686 53.363 48.686s-8.89.0-8.89.0-8.258 104.825-8.258 104.825z" id="path-7" class="cls-7" fill-rule="evenodd"/></g></svg>