<svg xmlns="http://www.w3.org/2000/svg" xmlns:xlink="http://www.w3.org/1999/xlink" preserveAspectRatio="xMidYMid" width="217" height="124" viewBox="0 0 217 124"><defs><style>.cls-3{fill:#ff3a2f}.cls-4{fill:#000;opacity:.35}.cls-5{fill:#142a3b}.cls-11{fill:#2476ff}.cls-13{fill:#fff}</style></defs><g id="group-4svg"><path d="M203.462 123.823s-154.953.0-154.953.0.0-61.017.0-61.017 154.953.0 154.953.0.0 61.017.0 61.017z" id="path-1" class="cls-3" fill-rule="evenodd"/><path d="M203.462 84.986S48.509 72.07 48.509 72.07s0-9.264.0-9.264 154.953.0 154.953.0.0 22.18.0 22.18z" id="path-2" class="cls-4" fill-rule="evenodd"/><path d="M206.753 42.551s-137.08.0-137.08.0C69.674 42.51 69.685 42.473 69.685 42.431V36.473c0-13.424 10.883-24.306 24.307-24.306h56.426C153.774 12.167 156.495 9.446 156.495 6.09c0-3.355-2.721-6.076-6.077-6.076H82.984c-15.102.0-27.345 12.242-27.345 27.344V42.431C55.639 42.473 55.651 42.51 55.651 42.551H45.218c-5.594.0-10.128 4.534-10.128 10.127.0 5.594 4.534 10.129 10.128 10.129H206.753C212.346 62.807 216.881 58.272 216.881 52.678c0-5.593-4.535-10.127-10.128-10.127z" id="path-3" class="cls-5" fill-rule="evenodd"/><path d="M179.225 122.813C177.229 122.813 175.61 121.194 175.61 119.198V90.585C175.61 88.589 177.229 86.97 179.225 86.97c1.99600000000001.0 3.614 1.619 3.614 3.615v28.613C182.839 121.194 181.221 122.813 179.225 122.813z" id="path-4" class="cls-5" fill-rule="evenodd"/><path d="M157.449 122.813C155.453 122.813 153.834 121.194 153.834 119.198V90.585C153.834 88.589 155.453 86.97 157.449 86.97 159.445 86.97 161.064 88.589 161.064 90.585v28.613C161.064 121.194 159.445 122.813 157.449 122.813z" id="path-5" class="cls-5" fill-rule="evenodd"/><path d="M100.98 122.813C98.984 122.813 97.366 121.194 97.366 119.198V90.585c0-1.996 1.618-3.615 3.614-3.615 1.996.0 3.615 1.619 3.615 3.615v28.613C104.595 121.194 102.976 122.813 100.98 122.813z" id="path-6" class="cls-5" fill-rule="evenodd"/><path d="M129.214 122.813C127.218 122.813 125.6 121.194 125.6 119.198V90.585C125.6 88.589 127.218 86.97 129.214 86.97 131.21 86.97 132.828 88.589 132.828 90.585v28.613C132.828 121.194 131.21 122.813 129.214 122.813z" id="path-7" class="cls-5" fill-rule="evenodd"/><path d="M72.747 122.813c-1.996.0-3.615-1.619-3.615-3.61500000000001V90.585c0-1.996 1.619-3.615 3.615-3.615s3.614 1.619 3.614 3.615v28.613C76.361 121.194 74.743 122.813 72.747 122.813z" id="path-8" class="cls-5" fill-rule="evenodd"/><path d="M31.588 94.529c0 7.05-5.714 12.764-12.765 12.764C11.774 107.293 6.059 101.579 6.059 94.529c0-7.051 5.715-12.766 12.764-12.766C25.874 81.763 31.588 87.478 31.588 94.529z" id="path-9" class="cls-11" fill-rule="evenodd"/><path d="M12.112 63.777C12.112 67.119 9.402 69.829 6.059 69.829 2.717 69.829.007 67.119.007 63.777s2.71-6.053 6.052-6.053C9.402 57.724 12.112 60.435 12.112 63.777z" id="path-10" class="cls-11" fill-rule="evenodd"/><path d="M22.043 89.647c0 2.69-2.18 4.869-4.869 4.869s-4.869-2.179-4.869-4.869C12.305 86.958 14.485 84.778 17.174 84.778S22.043 86.958 22.043 89.647z" id="path-11" class="cls-13" fill-rule="evenodd"/></g></svg>