<svg xmlns="http://www.w3.org/2000/svg" xmlns:xlink="http://www.w3.org/1999/xlink" preserveAspectRatio="xMidYMid" width="218" height="151" viewBox="0 0 218 151"><defs><style>.cls-3{fill:#fbb713}.cls-4{fill:#fff}.cls-5{fill:#ff3a2f}.cls-6{fill:#020403;opacity:.25}.cls-7{fill:#a6261f}.cls-9{fill:#142a3b}</style></defs><g id="group-85svg"><path d="M107.796 44.202c-51.566.0-93.37 42.159-93.37 93.371H201.167c0-51.212-41.804-93.371-93.371-93.371z" id="path-1" class="cls-3" fill-rule="evenodd"/><path d="M36.146 122.882C34.15 122.882 32.531 121.264 32.531 119.268c0-33.292 27.083-60.375 60.373-60.375 1.997.0 3.614 1.619 3.614 3.615C96.518 64.505 94.901 66.122 92.904 66.122c-29.303.0-53.144 23.842-53.144 53.146.0 1.996-1.618 3.614-3.614 3.614z" id="path-2" class="cls-4" fill-rule="evenodd"/><path d="M127.319 19.514C127.319 30.297 118.579 39.038 107.796 39.038c-10.781.0-19.522-8.741-19.522-19.524.0-10.782 8.741-19.523 19.522-19.523 10.783.0 19.523 8.741 19.523 19.523z" id="path-3" class="cls-5" fill-rule="evenodd"/><path d="M148.621 53.647C152.728 57.239 156.521 61.185 159.95 65.431 178.903 88.903 161.875 123.917 131.709 123.917H15.441C14.78 128.38 14.426 132.938 14.426 137.573H201.167c0-36.671-21.44-68.694-52.546-83.926z" id="path-4" class="cls-6" fill-rule="evenodd"/><path d="M117.744 2.737C119.478 5.654 120.492 9.047 120.492 12.686c0 10.783-8.742 19.524-19.524 19.524C97.33 32.21 93.936 31.195 91.02 29.461 94.423 35.188 100.652 39.038 107.796 39.038c10.783.0 19.523-8.741 19.523-19.524.0-7.144-3.849-13.373-9.575-16.777z" id="path-5" class="cls-7" fill-rule="evenodd"/><path d="M105.1 17.271C102.969 19.402 99.513 19.402 97.382 17.271c-2.131-2.132-2.131-5.588.0-7.718C99.513 7.421 102.969 7.421 105.1 9.553 107.232 11.683 107.232 15.139 105.1 17.271z" id="path-6" class="cls-4" fill-rule="evenodd"/><path d="M216.875 150.622s-216.873.0-216.873.0.0-12.951.0-12.951 216.873.0 216.873.0.0 12.951.0 12.951z" id="path-7" class="cls-9" fill-rule="evenodd"/></g></svg>