<svg xmlns="http://www.w3.org/2000/svg" xmlns:xlink="http://www.w3.org/1999/xlink" preserveAspectRatio="xMidYMid" width="216" height="131" viewBox="0 0 216 131"><defs><style>.cls-3{fill:#2476ff}.cls-4{fill:#060606;opacity:.35}.cls-19{fill:#ededed}</style></defs><g id="group-34svg"><path d="M70.536 33.318c-3.627-4.334-8.362-6.533-14.066-6.533-6.418.0-12.593 2.907-15.227 4.149-15.841 7.462-23.385 19.7-23.054 37.41C18.438 81.689 30.902 130.687 51.061 130.693 51.12 130.693 51.723 130.675 51.781 130.669 59.336 130.245 65.256 126.671 68.441 120.619 72.868 112.206 71.569 100.293 65.046 89.523 56.151 74.843 61.066 69.759 65.818 64.839 76.559 53.71 78.242 42.516 70.536 33.318z" id="path-1" class="cls-3" fill-rule="evenodd"/><path d="M65.818 64.839c10.741-11.129 12.424-22.323 4.718-31.52-3.627-4.335-8.362-6.534-14.066-6.534-1.383.0-2.747.155000000000001-4.075.378C56.439 27.94 59.905 29.98 62.698 33.319c7.706 9.197 6.023 20.391-4.718 31.52C53.228 69.759 48.313 74.843 57.208 89.523c6.523 10.769 7.822 22.683 3.395 31.096C57.943 125.671 53.361 128.965 47.53 130.173 48.68 130.506 49.855 130.692 51.061 130.693 51.12 130.693 51.723 130.675 51.781 130.669 59.337 130.246 65.256 126.671 68.441 120.619 72.868 112.206 71.569 100.292 65.046 89.523 56.151 74.843 61.066 69.759 65.818 64.839z" id="path-2" class="cls-4" fill-rule="evenodd"/><circle id="circle-1" class="cls-3" cx="10" cy="45" r="10"/><path d="M19.639 35.663c4.916.0 8.913-3.998 8.913-8.913.0-4.914-3.997-8.913-8.913-8.913-4.915.0-8.913 3.999-8.913 8.913.0 4.915 3.998 8.913 8.913 8.913z" id="path-3" class="cls-3" fill-rule="evenodd"/><path d="M36.787 23.78c4.909.0 8.913-3.999 8.913-8.914C45.7 9.952 41.696 5.954 36.787 5.954c-4.921.0-8.913 3.998-8.913 8.912.0 4.915 3.992 8.914 8.913 8.914z" id="path-4" class="cls-3" fill-rule="evenodd"/><path d="M57.096 17.837C62.011 17.837 66.009 13.84 66.009 8.925c0-4.915-3.998-8.913-8.913-8.913-4.915.0-8.913 3.998-8.913 8.913.0 4.915 3.998 8.912 8.913 8.912z" id="path-5" class="cls-3" fill-rule="evenodd"/><path d="M84.242.012c-8.193.0-14.855 6.661-14.855 14.854C69.387 23.06 76.049 29.721 84.242 29.721S99.097 23.06 99.097 14.866C99.097 6.673 92.435.012 84.242.012z" id="path-6" class="cls-3" fill-rule="evenodd"/><path d="M149.693 64.839C154.445 69.759 159.36 74.843 150.465 89.523 143.942 100.293 142.642 112.206 147.07 120.619 150.255 126.671 156.174 130.245 163.73 130.669 163.788 130.675 164.391 130.693 164.449 130.693 184.608 130.687 197.072 81.689 197.322 68.344 197.653 50.634 190.108 38.396 174.267 30.934 171.633 29.692 165.459 26.785 159.041 26.785 153.337 26.785 148.602 28.984 144.975 33.318 137.269 42.516 138.952 53.71 149.693 64.839z" id="path-7" class="cls-3" fill-rule="evenodd"/><path d="M174.267 30.934C171.633 29.693 165.459 26.785 159.041 26.785 157.73 26.785 156.484 26.931 155.278 27.163 160.11 27.98 164.363 29.96 166.43 30.934c15.841 7.462 23.385 19.7 23.054 37.41C189.249 80.891 178.216 124.942 160.143 130.173 161.297 130.412 162.481 130.599 163.729 130.669 163.788 130.675 164.391 130.693 164.449 130.693 184.608 130.686 197.072 81.69 197.322 68.344 197.653 50.634 190.108 38.396 174.267 30.934z" id="path-8" class="cls-4" fill-rule="evenodd"/><path d="M197.699 44.576c0 4.915 3.993 8.913 8.91299999999998 8.913C211.521 53.489 215.525 49.491 215.525 44.576S211.521 35.663 206.612 35.663C201.692 35.663 197.699 39.661 197.699 44.576z" id="path-9" class="cls-3" fill-rule="evenodd"/><path d="M204.784 26.75C204.784 21.836 200.786 17.837 195.871 17.837 190.956 17.837 186.958 21.836 186.958 26.75 186.958 31.665 190.956 35.663 195.871 35.663 200.786 35.663 204.784 31.665 204.784 26.75z" id="path-10" class="cls-3" fill-rule="evenodd"/><path d="M187.636 14.866C187.636 9.952 183.645 5.954 178.724 5.954 173.815 5.954 169.811 9.952 169.811 14.866 169.811 19.781 173.815 23.78 178.724 23.78 183.645 23.78 187.636 19.781 187.636 14.866z" id="path-11" class="cls-3" fill-rule="evenodd"/><path d="M167.328 8.925C167.328 4.01 163.329.012 158.415.012 153.499.012 149.501 4.01 149.501 8.925 149.501 13.84 153.499 17.837 158.415 17.837 163.329 17.837 167.328 13.84 167.328 8.925z" id="path-12" class="cls-3" fill-rule="evenodd"/><path d="M116.414 14.866c0 8.194 6.661 14.855 14.854 14.855C139.462 29.721 146.124 23.06 146.124 14.866 146.124 6.673 139.462.012 131.268.012c-8.193.0-14.854 6.661-14.854 14.854z" id="path-13" class="cls-3" fill-rule="evenodd"/><path d="M92.595 2.595c1.626 2.382 2.583 5.256 2.583 8.353.0 8.194-6.661 14.854-14.855 14.854C77.226 25.802 74.352 24.845 71.97 23.219c2.676 3.92 7.175 6.502 12.272 6.502 8.193.0 14.855-6.661 14.855-14.854C99.097 9.771 96.515 5.271 92.595 2.595z" id="path-14" class="cls-4" fill-rule="evenodd"/><path d="M139.622 2.595C141.248 4.977 142.205 7.851 142.205 10.948 142.205 19.142 135.543 25.802 127.35 25.802 124.252 25.802 121.378 24.845 118.996 23.219c2.676 3.92 7.176 6.502 12.272 6.502C139.462 29.721 146.124 23.06 146.124 14.867 146.124 9.771 143.542 5.271 139.622 2.595z" id="path-15" class="cls-4" fill-rule="evenodd"/><path d="M153.397 54.725c-1.256.0-2.47-.661000000000001-3.12-1.84C150.001 52.388 147.642 47.886 149.452 42.985 150.715 39.568 153.569 37.009 157.936 35.374 159.796 34.676 161.866 35.617 162.56 37.478 163.257 39.337 162.313 41.407 160.455 42.101 158.154 42.963 156.724 44.086 156.207 45.436 155.488 47.311 156.572 49.423 156.582 49.444 157.492 51.188 156.842 53.361 155.109 54.29 154.563 54.585 153.976 54.725 153.397 54.725z" id="path-16" class="cls-19" fill-rule="evenodd"/><path d="M27.877 63.277C27.7 63.277 27.523 63.265 27.343 63.239 25.387 62.947 24.033 61.131 24.32 59.173 24.408 58.57 26.622 44.326 38.94 39.716 40.796 39.02 42.87 39.96 43.564 41.821 44.261 43.681 43.317 45.75 41.459 46.444c-8.304 3.108-10.016 13.675-10.033 13.781C31.154 62.001 29.623 63.277 27.877 63.277z" id="path-17" class="cls-19" fill-rule="evenodd"/></g></svg>