<svg xmlns="http://www.w3.org/2000/svg" xmlns:xlink="http://www.w3.org/1999/xlink" preserveAspectRatio="xMidYMid" width="134" height="216" viewBox="0 0 134 216"><defs><style>.cls-3{fill:#ededed}.cls-4{fill:#142a3b}.cls-5{fill:#000}.cls-7{fill:#000;opacity:.25}.cls-9{fill:#000;opacity:.35}.cls-10{fill:#ff3a2f}</style></defs><g id="group-63svg"><path d="M133.479 60.628s-133.477.0-133.477.0.0-60.637.0-60.637 133.477.0 133.477.0.0 60.637.0 60.637z" id="path-1" class="cls-3" fill-rule="evenodd"/><path d="M115.372 215.524s-97.263.0-97.263.0.0-12.008.0-12.008 97.263.0 97.263.0.0 12.008.0 12.008z" id="path-2" class="cls-4" fill-rule="evenodd"/><path d="M115.372 211.719s-97.263-3.602-97.263-3.602.0-4.601.0-4.601 97.263.0 97.263.0.0 8.203.0 8.203z" id="path-3" class="cls-5" fill-rule="evenodd"/><path d="M.002 203.516s133.477.0 133.477.0.0-142.288.0-142.288-133.477.0-133.477.0.0 142.288.0 142.288z" id="path-4" class="cls-3" fill-rule="evenodd"/><path d="M119.07-.009s0 61.237.0 61.237 14.409.0 14.409.0.0-61.237.0-61.237-14.409.0-14.409.0z" id="path-5" class="cls-7" fill-rule="evenodd"/><path d="M.002 61.228s0 3.603.0 3.603S119.07 72.036 119.07 72.036s0 131.48.0 131.48 14.409.0 14.409.0.0-142.288.0-142.288-133.477.0-133.477.0z" id="path-6" class="cls-7" fill-rule="evenodd"/><path d="M108.72 124.268S100.314 124.268 100.314 124.268s0-76.848.0-76.848S108.72 47.42 108.72 47.42s0 76.848.0 76.848z" id="path-7" class="cls-9" fill-rule="evenodd"/><path d="M105.117 120.665s-8.405.0-8.405.0.0-76.847.0-76.847 8.405.0 8.405.0.0 76.847.0 76.847z" id="path-8" class="cls-10" fill-rule="evenodd"/><path d="M115.372 215.524s-97.263.0-97.263.0.0-12.008.0-12.008 97.263.0 97.263.0.0 12.008.0 12.008z" id="path-9" class="cls-4" fill-rule="evenodd"/></g></svg>