<svg xmlns="http://www.w3.org/2000/svg" xmlns:xlink="http://www.w3.org/1999/xlink" preserveAspectRatio="xMidYMid" width="218" height="202" viewBox="0 0 218 202"><defs><style>.cls-3{fill:#ededed}.cls-4{fill:#020403;opacity:.25}.cls-6{fill:#fbb713}.cls-7{fill:#fff}</style></defs><g id="group-86svg"><path d="M53.678 44.691s63.742-100.554 132.872.0c0 0 53.867 29.248 17.956 74.777.0.0-4.489 131.718-145.442 61.69.0.0-129.281-65.541-5.386-136.467z" id="path-1" class="cls-3" fill-rule="evenodd"/><path d="M186.55 44.691C165.066 13.441 144.104 1.622 125.412.165c13.939 5.94 28.735 18.293 43.789 40.188.0.0 53.866 29.248 17.954 74.778.0.0-3.31 96.888-93.186 80.28 106.805 33.055 110.537-75.943 110.537-75.943 35.911-45.53-17.956-74.777-17.956-74.777z" id="path-2" class="cls-4" fill-rule="evenodd"/><path d="M159.949 103.307c0 24.48-19.845 44.325-44.325 44.325-24.479.0-44.322-19.845-44.322-44.325s19.843-44.324 44.322-44.324c24.48.0 44.325 19.844 44.325 44.324z" id="path-3" class="cls-4" fill-rule="evenodd"/><path d="M150.534 103.307c0 19.28-15.63 34.911-34.91 34.911-19.279.0-34.909-15.631-34.909-34.911s15.63-34.91 34.909-34.91c19.28.0 34.91 15.63 34.91 34.91z" id="path-4" class="cls-6" fill-rule="evenodd"/><path d="M95.128 105.522c-1.996.0-3.614-1.619-3.614-3.61500000000001.0-14.916 12.134-27.05 27.049-27.05 1.997.0 3.615 1.619 3.615 3.615.0 1.99600000000001-1.618 3.614-3.615 3.614-10.929.0-19.819 8.893-19.819 19.821C98.744 103.903 97.124 105.522 95.128 105.522z" id="path-5" class="cls-7" fill-rule="evenodd"/></g></svg>