<svg xmlns="http://www.w3.org/2000/svg" xmlns:xlink="http://www.w3.org/1999/xlink" preserveAspectRatio="xMidYMid" width="216" height="137" viewBox="0 0 216 137"><defs><style>.cls-3{fill:#142a3b}.cls-4{fill:#060606;opacity:.35}.cls-6{fill:#ff3a2f}.cls-7{fill:#ededed}.cls-11{fill:#0cb04a}</style></defs><g id="group-39svg"><path d="M167.789 42.936s-60.759.0-60.759.0C107.6 35.696 109.525 32.874 111.717 29.751 114.942 25.156 118.599 19.955 118.599 4.712c0-2.601-2.104-4.706-4.705-4.706C111.294.006 109.189 2.111 109.189 4.712 109.189 16.977 106.791 20.386 104.016 24.348 101.305 28.198 98.282 32.517 97.579 42.936H48.041C21.553 42.936.0 64.264.0 90.479c0 25.913 21.103 46.201 48.041 46.201 16.301.0 28.914-10.897 35.713-18.468h47.747C137.377 124.68 150.21 136.139 167.352 136.139c27.021.0 48.188-20.446 48.188-46.551.0-26.161-20.974-46.652-47.751-46.652z" id="path-1" class="cls-3" fill-rule="evenodd"/><path d="M197.833 53.1C204.021 60.96 207.702 70.848 207.702 81.751c0 26.104-21.167 46.551-48.188 46.551-17.142.0-29.975-11.46-35.852-17.928H75.916C69.117 117.945 56.504 128.842 40.203 128.842 28.538 128.842 17.976 125.027 9.739 118.609c8.702 11.034 22.474 18.071 38.302 18.071 16.301.0 28.914-10.897 35.713-18.469h47.747C137.377 124.68 150.21 136.14 167.352 136.14c27.021.0 48.188-20.448 48.188-46.551C215.54 74.651 208.685 61.581 197.833 53.1z" id="path-2" class="cls-4" fill-rule="evenodd"/><path d="M63.708 93.902s-9.41.0-9.41.0S54.298 103.311 54.298 103.311c0 2.601-2.104 4.705-4.705 4.705C46.993 108.016 44.888 105.912 44.888 103.311V93.902s-9.409.0-9.409.0C32.878 93.902 30.774 91.798 30.774 89.198 30.774 86.596 32.878 84.492 35.479 84.492h9.409S44.888 75.083 44.888 75.083C44.888 72.483 46.993 70.378 49.593 70.378c2.601.0 4.705 2.105 4.705 4.705V84.492s9.41.0 9.41.0C66.308 84.492 68.413 86.596 68.413 89.198 68.413 91.798 66.308 93.902 63.708 93.902z" id="path-3" class="cls-4" fill-rule="evenodd"/><path d="M59.789 89.983s-9.41.0-9.41.0.0 9.41.0 9.41C50.379 101.993 48.275 104.097 45.674 104.097 43.075 104.097 40.969 101.993 40.969 99.393v-9.41s-9.409.0-9.409.0c-2.6.0-4.705-2.104-4.705-4.705C26.855 82.678 28.96 80.574 31.56 80.574h9.409s0-9.41.0-9.41C40.969 68.564 43.075 66.46 45.674 66.46 48.275 66.46 50.379 68.564 50.379 71.164v9.41s9.41.0 9.41.0C62.39 80.574 64.494 82.678 64.494 85.278c0 2.601-2.104 4.705-4.705 4.705z" id="path-4" class="cls-6" fill-rule="evenodd"/><path d="M97.427 89.983S88.017 89.983 88.017 89.983C85.418 89.983 83.313 87.879 83.313 85.278 83.313 82.678 85.418 80.574 88.017 80.574H97.427c2.601.0 4.705 2.104 4.705 4.70400000000001.0 2.601-2.104 4.705-4.705 4.705z" id="path-5" class="cls-7" fill-rule="evenodd"/><path d="M125.656 89.983S116.247 89.983 116.247 89.983c-2.601.0-4.705-2.104-4.705-4.705C111.542 82.678 113.646 80.574 116.247 80.574H125.656C128.257 80.574 130.361 82.678 130.361 85.278 130.361 87.879 128.257 89.983 125.656 89.983z" id="path-6" class="cls-7" fill-rule="evenodd"/><circle id="circle-1" class="cls-4" cx="158" cy="103" r="10"/><circle id="circle-2" class="cls-4" cx="186" cy="75" r="10"/><circle id="circle-3" class="cls-11" cx="154" cy="99" r="10"/><path d="M182.114 80.574c-5.196.0-9.41-4.209-9.41-9.41.0-5.191 4.214-9.409 9.41-9.409 5.197.0 9.41 4.218 9.41 9.409C191.524 76.365 187.311 80.574 182.114 80.574z" id="path-7" class="cls-11" fill-rule="evenodd"/></g></svg>