<svg xmlns="http://www.w3.org/2000/svg" xmlns:xlink="http://www.w3.org/1999/xlink" preserveAspectRatio="xMidYMid" width="131" height="218" viewBox="0 0 131 218"><defs><style>.cls-3{fill:#0cb04a}.cls-4{fill:#fbb713}.cls-5{fill:#000;opacity:.25}.cls-6{fill:#ff3a2f}.cls-7{fill:#142a3b}.cls-10{fill:#000;opacity:.35}.cls-11{fill:#fff}</style></defs><g id="group-18svg"><path d="M2.845 42.159S-13.22 108.428 30.958 180.721h70.283s42.17-57.232 26.106-138.562H2.845z" id="path-1" class="cls-3" fill-rule="evenodd"/><path d="M9.968 135.226c4.692 14.476 11.425 29.843 20.99 45.495h70.283s12.468-16.961 21.263-45.495H9.968z" id="path-2" class="cls-4" fill-rule="evenodd"/><path d="M127.347 42.159s-19.601.0-19.601.0C117.239 116.507 79.554 167.709 79.554 167.709s-55.945.0-55.945.0C25.854 172.016 28.291 176.356 30.958 180.721h70.283s42.17-57.232 26.106-138.562z" id="path-3" class="cls-5" fill-rule="evenodd"/><path d="M42.992 120.455c0-12.429 22.504-40.532 22.504-40.532S88 108.026 88 120.455c0 12.428-10.075 22.504-22.504 22.504-12.428.0-22.504-10.076-22.504-22.504z" id="path-4" class="cls-6" fill-rule="evenodd"/><path d="M95.592 216.868s-60.191.0-60.191.0c-2.233.0-4.042-1.81-4.042-4.042V180.721s68.275.0 68.275.0.0 32.105.0 32.105c0 2.232-1.81 4.042-4.042 4.042z" id="path-5" class="cls-7" fill-rule="evenodd"/><path d="M129.171 42.159s-127.349.0-127.349.0.0-38.763.0-38.763c0-1.882 1.526-3.407 3.407-3.407H125.764C127.646-.011 129.171 1.514 129.171 3.396V42.159z" id="path-6" class="cls-7" fill-rule="evenodd"/><path d="M75.537 216.868S75.537 208.836 75.537 208.836c0-5.524-4.518-10.041-10.041-10.041-5.522.0-10.04 4.51700000000002-10.04 10.041V216.868s20.081.0 20.081.0z" id="path-7" class="cls-4" fill-rule="evenodd"/><path d="M130.027 60.447C129.435 54.497 128.581 48.409 127.347 42.159H2.845s-.572 2.364-1.203 6.675L130.027 60.447z" id="path-8" class="cls-10" fill-rule="evenodd"/><path d="M31.343 150.157c-1.445.0-2.811-.874000000000024-3.369-2.304-12.356-31.761-14.547-60.21-14.21-78.483C13.803 67.374 15.573 65.793 17.446 65.822 19.442 65.86 21.031 67.508 20.994 69.504 20.667 87.126 22.781 114.569 34.712 145.231 35.436 147.092 34.515 149.188 32.655 149.911 32.224 150.079 31.779 150.157 31.343 150.157z" id="path-9" class="cls-11" fill-rule="evenodd"/></g></svg>