<svg xmlns="http://www.w3.org/2000/svg" xmlns:xlink="http://www.w3.org/1999/xlink" preserveAspectRatio="xMidYMid" width="126" height="216" viewBox="0 0 126 216"><defs><style>.cls-3{fill:#ff3a2f}.cls-4{fill:#000;opacity:.35}.cls-5{fill:#142a3b}.cls-6{fill:#2476ff}.cls-7{fill:#fff}</style></defs><g id="group-99svg"><path d="M68 193.565s0-24.999.0-24.999-36 0-36 0 0 24.999.0 24.999 36 0 36 0z" id="path-1" class="cls-3" fill-rule="evenodd"/><path d="M32.523 167.675S32.552 171.554 32.552 171.554 60.973 178.635 60.973 178.635 60.944 192.46 60.944 192.46s-28.421 3.541-28.421 3.541.0.0.0.0 35.527.0 35.527.0.0-28.326.0-28.326-35.527.0-35.527.0z" id="path-2" class="cls-4" fill-rule="evenodd"/><path d="M118.54 211.565s-14.369.0-14.369.0C102.188 211.565 100.579 210.048 100.579 208.064 100.579 206.081 102.188 204.565 104.171 204.565H118.54C120.524 204.565 122.133 206.081 122.133 208.064 122.133 210.048 120.524 211.565 118.54 211.565z" id="path-3" class="cls-5" fill-rule="evenodd"/><path d="M63.541 27.152s0-27.162.0-27.162-24.868.0-24.868.0.0 27.162.0 27.162-47.635 90.229-15.949 135.532C25.99 167.353 31.505 169.947 37.216 169.947H71.663C77.834 169.947 83.568 166.795 86.913 161.629 116.422 116.048 63.541 27.152 63.541 27.152z" id="path-4" class="cls-6" fill-rule="evenodd"/><path d="M26.577 149.368c-1.221.0-2.412-.621999999999986-3.084-1.744-14.761-24.616-3.48-60.895 8.583-86.994C32.909 58.827 35.043 58.045 36.843 58.875 38.644 59.707 39.43 61.842 38.597 63.644c-9.279 20.078-22.78 57.208-8.944 80.285C30.674 145.63 30.121 147.837 28.42 148.856 27.841 149.204 27.204 149.368 26.577 149.368z" id="path-5" class="cls-7" fill-rule="evenodd"/><path d="M63.541 27.152s0-27.162.0-27.162-10.658.0-10.658.0.0 23.622.0 23.622 52.88 88.895 23.372 134.475C72.91 163.255 67.176 166.405 61.005 166.405H26.558C26.498 166.405 26.439 166.396 26.379 166.395 29.457 168.688 33.281 169.947 37.216 169.947H71.663C77.834 169.947 83.568 166.796 86.913 161.629 116.422 116.048 63.541 27.152 63.541 27.152z" id="path-6" class="cls-4" fill-rule="evenodd"/><path d="M108 215.564s-108 0-108 0 0-21.999.0-21.999 108 0 108 0 0 21.999.0 21.999z" id="path-7" class="cls-5" fill-rule="evenodd"/><path d="M86.447 193.434s0 21.555.0 21.555 21.317.0 21.317.0.0-21.555.0-21.555-21.317.0-21.317.0z" id="path-8" class="cls-4" fill-rule="evenodd"/><path d="M65 168.566s-8 0-8 0 0-39.999.0-39.999 8 0 8 0 0 39.999.0 39.999z" id="path-9" class="cls-5" fill-rule="evenodd"/><path d="M50 168.566s-7 0-7 0 0-39.999.0-39.999 7 0 7 0 0 39.999.0 39.999z" id="path-10" class="cls-5" fill-rule="evenodd"/><path d="M122.5 215.101C120.516 215.101 119 213.493 119 211.509v-7.184C119 202.341 120.516 200.733 122.5 200.733c1.983.0 3.5 1.608 3.5 3.59199999999998v7.184C126 213.493 124.483 215.101 122.5 215.101z" id="path-11" class="cls-5" fill-rule="evenodd"/></g></svg>