<svg xmlns="http://www.w3.org/2000/svg" xmlns:xlink="http://www.w3.org/1999/xlink" preserveAspectRatio="xMidYMid" width="218" height="73" viewBox="0 0 218 73"><defs><style>.cls-3{fill:#0cb04a}.cls-4{fill:#020403;opacity:.35}</style></defs><g id="group-55svg"><path d="M117.196 9.527C112.283 11.008 106.45 11.487 99.679 9.44 51.496-7.725.015 3.807.015 3.807s.459 4.499 1.548 11.75c9.64 1.231 9.617 13.012 9.617 13.012s1.963 16.961 6.077 26.034c6.459 14.248 31.64 16.903 31.64 16.903C65.191 73.865 78.666 67.899 84.637 61.868c6.833-6.909 7.169-10.652 10.431-23.636 2.611-10.388 5.015-10.363 9.973-10.363C111.745 27.869 115.692 28.012 118.176 38.362c3.124 13.019 5.904 17.52 12.665 24.494 5.91 6.099 19.734 11.826 36.062 9.636.0.0 25.404-2.577 32.024-16.76 4.202-9.029 6.453-26.062 6.453-26.062S205.536 17.834 215.189 16.701C216.355 9.461 216.889 4.963 216.889 4.963S165.553-7.132 117.196 9.527zM85.11 26.444C83.16 26.852 84.239 28.327 82.885 33.718 80.544 43.032 80.304 45.716 75.402 50.673 71.118 55 61.451 59.28 49.763 57.589c0 0-18.064-1.906-22.697-12.128-2.952-6.507-4.36-18.674-4.36-18.674S22.388 25.575 22.388 25.575C21.415 19.097 21.006 15.077 21.006 15.077s28.965-7.001 64.104-.836V26.444zm107.241 1.883S192.033 29.537 192.033 29.537 190.624 41.705 187.674 48.213C183.04 58.434 164.977 60.339 164.977 60.339c-11.689 1.692-21.356-2.587-25.64-6.914C134.436 48.469 134.194 45.783 131.855 36.469 130.5 31.079 131.578 29.602 129.629 29.195V16.991C164.769 10.827 193.733 17.829 193.733 17.829S193.324 21.848 192.351 28.327z" id="path-1" class="cls-3" fill-rule="evenodd"/><path d="M87.848 9.44C93.441 11.131 98.382 11.085 102.704 10.188 101.714 9.988 100.711 9.752 99.679 9.44 76.732 1.266 53.051-.395 34.524.101 50.776.545 69.547 2.92 87.848 9.44z" id="path-2" class="cls-4" fill-rule="evenodd"/><path d="M139.337 53.425C134.436 48.469 134.194 45.783 131.855 36.469 130.5 31.079 131.578 29.602 129.629 29.195V16.991C138.125 15.501 146.249 14.791 153.701 14.555 143.426 14.216 131.055 14.666 117.8 16.991V29.195c1.949.407.871000000000009 1.884 2.226 7.274 2.339 9.314 2.58 12 7.48100000000001 16.956C131.792 57.752 141.459 62.031 153.146 60.339 153.146 60.339 153.502 60.299 154.088 60.213c-6.631-1.09-11.9-3.908-14.751-6.788z" id="path-3" class="cls-4" fill-rule="evenodd"/><path d="M11.614 31.792C12.311 35.905 13.506 41.648 15.237 45.461 19.87 55.683 37.933 57.589 37.933 57.589 41.841 58.153 45.49 58.01 48.821 57.462 45.085 56.913 31.071 54.295 27.066 45.461c-2.952-6.507-4.36-18.674-4.36-18.674S22.388 25.574 22.388 25.574C21.415 19.097 21.007 15.078 21.007 15.078s11.239-2.714 28.202-3.274c-23.368-.741-40.033 3.274-40.033 3.274s.311 3.039 1.029 8.084C11.172 26.014 11.18 28.569 11.18 28.569S11.327 29.821 11.614 31.792z" id="path-4" class="cls-4" fill-rule="evenodd"/><path d="M93.212 27.869C88.254 27.869 85.849 27.844 83.238 38.232 79.977 51.216 79.641 54.959 72.808 61.868 68.548 66.171 60.429 70.384 50.233 71.621 65.914 73.467 78.832 67.73 84.637 61.868c6.833-6.909 7.169-10.652 10.431-23.636C96.603 32.126 98.071 29.628 100.022 28.599 98.139 27.904 95.901 27.869 93.212 27.869z" id="path-5" class="cls-4" fill-rule="evenodd"/><path d="M168.31.811c21.588.591 36.749 4.152 36.749 4.152S204.526 9.46 203.359 16.701C193.707 17.834 193.55 29.67 193.55 29.67s-2.25 17.033-6.452 26.062c-6.62 14.183-32.025 16.76-32.025 16.76C154.675 72.546 154.298 72.539 153.902 72.583 157.97 73.048 162.32 73.107 166.903 72.492c0 0 25.404-2.577 32.024-16.76 4.202-9.029 6.453-26.062 6.453-26.062S205.536 17.834 215.189 16.701C216.355 9.46 216.889 4.963 216.889 4.963S195.99.052 168.31.811z" id="path-6" class="cls-4" fill-rule="evenodd"/></g></svg>