<svg xmlns="http://www.w3.org/2000/svg" xmlns:xlink="http://www.w3.org/1999/xlink" preserveAspectRatio="xMidYMid" width="217" height="217" viewBox="0 0 217 217"><defs><style>.cls-3{fill:#142a3b}.cls-4{fill:#ff3a2f}.cls-5{fill:#010101;opacity:.35}.cls-6{fill:#0cb04a}</style></defs><g id="group-77svg"><path d="M7.372 216.882S.013 209.523.013 209.523 127.875 81.657 127.875 81.657 135.234 89.017 135.234 89.017 7.372 216.882 7.372 216.882z" id="path-1" class="cls-3" fill-rule="evenodd"/><path d="M100.279 123.972S92.921 116.613 92.921 116.613s34.954-34.956 34.954-34.956S135.234 89.017 135.234 89.017s-34.955 34.955-34.955 34.955z" id="path-2" class="cls-4" fill-rule="evenodd"/><path d="M123.036 101.215s-1.782-12.935-1.782-12.935S127.875 81.657 127.875 81.657 135.234 89.017 135.234 89.017s-12.198 12.198-12.198 12.198z" id="path-3" class="cls-5" fill-rule="evenodd"/><path d="M175.708 129.492s-88.307-88.31-88.307-88.31 16.557-16.558 16.557-16.558 88.308 88.31 88.308 88.31-16.558 16.558-16.558 16.558z" id="path-4" class="cls-6" fill-rule="evenodd"/><path d="M183.988 121.212s-85.52-91.097-85.52-91.097 5.49-5.491 5.49-5.491 88.308 88.31 88.308 88.31S183.988 121.212 183.988 121.212z" id="path-5" class="cls-5" fill-rule="evenodd"/><path d="M210.419 132.497S84.397 6.471 84.397 6.471 90.864.003 90.864.003 216.887 126.028 216.887 126.028 210.419 132.497 210.419 132.497z" id="path-6" class="cls-4" fill-rule="evenodd"/></g></svg>