<svg xmlns="http://www.w3.org/2000/svg" xmlns:xlink="http://www.w3.org/1999/xlink" preserveAspectRatio="xMidYMid" width="224" height="223" viewBox="0 0 224 223"><defs><style>.cls-3{fill:#fbb713}.cls-4{fill:#000;opacity:.25}.cls-5{fill:#142a3b}.cls-8{fill:#000;opacity:.35}.cls-11{fill:#ededed}</style></defs><g id="group-105svg"><path d="M78.874 221.037S1.896 144.06 1.896 144.06C-.642 141.523-.642 137.407 1.896 134.868L99.453 37.316c2.538-2.539 6.654-2.539 9.19199999999999.0l76.979 76.975C188.162 116.829 188.162 120.945 185.624 123.483L88.067 221.037C85.529 223.575 81.413 223.575 78.874 221.037z" id="path-1" class="cls-3" fill-rule="evenodd"/><path d="M176.485 106.861C175.996 112.796 173.495 118.598 168.953 123.141L99.066 193.025c-10.18 10.179-26.683 10.179-36.862.0L12.895 143.717C10.96 141.783 9.398 139.619 8.199 137.314 7.593 144.681 10.094 152.258 15.73 157.896l49.31 49.306c10.179 10.179 26.682 10.179 36.861.0l69.888-69.886C180.034 129.072 181.595 116.681 176.485 106.861z" id="path-2" class="cls-4" fill-rule="evenodd"/><path d="M164.298 95.282s-36.644-36.641-36.644-36.641 16.123-16.123 16.123-16.123S180.42 79.159 180.42 79.159s-16.122 16.123-16.122 16.123z" id="path-3" class="cls-5" fill-rule="evenodd"/><path d="M181.479 80.218s-38.76-38.759-38.76-38.759C141.215 39.956 141.538 37.437 143.373 36.362L180.088 14.84C181.363 14.092 182.981 14.3 184.027 15.345l23.567 23.567C208.639 39.957 208.847 41.575 208.099 42.85L186.577 79.565C185.501 81.398 182.982 81.722 181.479 80.218z" id="path-4" class="cls-5" fill-rule="evenodd"/><path d="M188.564 19.739S217.224.622 217.224.622C220.565-1.608 224.547 2.374 222.318 5.717L203.201 34.375s-14.637-14.636-14.637-14.636z" id="path-5" class="cls-5" fill-rule="evenodd"/><path d="M143.777 42.518s26.697 35.246 26.697 35.246S164.298 83.941 164.298 83.941s-30.972-30.97-30.972-30.97S127.655 58.641 127.655 58.641s36.643 36.641 36.643 36.641 16.123-16.123 16.123-16.123-36.644-36.641-36.644-36.641z" id="path-6" class="cls-8" fill-rule="evenodd"/><path d="M186.577 79.565s21.522-36.714 21.522-36.714C208.847 41.575 208.639 39.957 207.594 38.912L201.923 33.241C202.968 34.286 203.176 35.904 202.429 37.179L180.906 73.893C179.83 75.727 177.312 76.051 175.808 74.547L181.479 80.218C182.983 81.722 185.501 81.398 186.577 79.565z" id="path-7" class="cls-8" fill-rule="evenodd"/><path d="M222.318 5.717C224.547 2.375 220.565-1.606 217.224.622l-1.732 1.154S197.53 28.703 197.53 28.703 203.201 34.375 203.201 34.375 222.318 5.717 222.318 5.717z" id="path-8" class="cls-8" fill-rule="evenodd"/><path d="M100.722 180.841s-58.628-58.628-58.628-58.628S86.798 77.511 86.798 77.511s58.628 58.627 58.628 58.627-44.704 44.703-44.704 44.703z" id="path-9" class="cls-11" fill-rule="evenodd"/><path d="M142.591 138.973s-41.869 41.868-41.869 41.868-55.793-55.792-55.793-55.792S42.094 127.884 42.094 127.884s58.628 58.628 58.628 58.628 44.704-44.703 44.704-44.703S142.591 138.973 142.591 138.973z" id="path-10" class="cls-8" fill-rule="evenodd"/></g></svg>