<svg xmlns="http://www.w3.org/2000/svg" xmlns:xlink="http://www.w3.org/1999/xlink" preserveAspectRatio="xMidYMid" width="216" height="190" viewBox="0 0 216 190"><defs><style>.cls-3{fill:#9acd32}.cls-4{fill:#5c7b1e}.cls-5{fill:#060606;opacity:.35}.cls-6{fill:#142a3b}</style></defs><g id="group-35svg"><path d="M60.746 61.023c-26.031 26.246.0 95.045.0 95.045s68.237 26.245 94.268.0C181.046 129.822 215.537.003 215.537.003S86.778 34.777 60.746 61.023z" id="path-1" class="cls-3" fill-rule="evenodd"/><path d="M67.21 119.747C65.523 119.747 64.018 118.552 63.687 116.836c-3.47-17.999-4.872-42.207 8.158-55.341C73.238 60.084 75.514 60.076 76.924 61.474 78.333 62.872 78.344 65.144 76.945 66.554 66.125 77.461 67.598 99.178 70.741 115.475 71.117 117.423 69.842 119.307 67.895 119.683 67.665 119.727 67.435 119.747 67.21 119.747z" id="path-2" class="cls-4" fill-rule="evenodd"/><path d="M194.585 5.971c-11.411 39.002-34.691 112.306-53.543 131.313-20.212 20.377-80.296 18.784-80.296 18.784s68.237 26.246 94.268.0C181.046 129.822 215.537.003 215.537.003S207.297 2.229 194.585 5.971z" id="path-3" class="cls-5" fill-rule="evenodd"/><path d="M20.952 189.307c-6.215.0-12.541-1.541-18.925-4.618C.242 183.826-.509 181.679.352 179.893 1.214 178.103 3.36 177.356 5.15 178.217 14.145 182.555 22.913 183.265 31.227 180.334c18.353-6.476 28.913-28.352 29.018-28.573L60.505 151.302C97.801 95.611 142.104 50.951 192.179 18.569 193.845 17.494 196.068 17.969 197.146 19.635 198.223 21.301 197.746 23.525 196.08 24.603 146.894 56.41 103.334 100.316 66.614 155.094 65.255 157.858 53.855 179.97 33.617 187.11 29.464 188.575 25.234 189.307 20.952 189.307z" id="path-4" class="cls-6" fill-rule="evenodd"/></g></svg>