<svg xmlns="http://www.w3.org/2000/svg" xmlns:xlink="http://www.w3.org/1999/xlink" preserveAspectRatio="xMidYMid" width="216" height="216" viewBox="0 0 216 216"><defs><style>.cls-3{fill:#fbb713}.cls-4{fill:#ededed}.cls-6{fill:#142a3b}.cls-8{fill:#060606;opacity:.35}.cls-9{fill:#ff3a2f}</style></defs><g id="group-36svg"><path d="M134.95 121.274C133.551 118.584 130.723 115.365 125.242 115.365 123.132 115.365 120.997 115.828 118.933 116.275 116.97 116.692 114.942 117.138 113.078 117.138c-3.063.0-6.69-1.08200000000001-10.436-9.063C97.834 97.821 100.153 91.768 102.388 85.917 104.515 80.35 106.925 74.055 101.825 66.587 97.915 60.851 92.388 57.702 86.279 57.702c-7.827.0-15.826 5.158-22.507 14.549C60.39 76.987 58.426 83.041 56.517 88.894 54.79 94.203 52.999 99.685 50.599 102.148c-5.19 5.331-12.554 8.054-20.353 10.954C22.318 116.038 14.137 119.074 8.219 125.147c-17.427 17.897-4.082 51.397 11.808 67.722C20.918 193.778 42.145 215.304 63.572 215.304 71.589 215.304 78.535 212.35 84.208 206.523c13.072-13.417 15.707-27.253 17.625-37.361C102.825 163.98 103.679 159.49 105.625 157.18 108.57 153.69 113.761 150.271 118.778 146.973 128.588 140.518 140.796 132.483 134.95 121.274z" id="path-1" class="cls-3" fill-rule="evenodd"/><path d="M33.87 188.737C32.935 188.737 32.001 188.375 31.295 187.65c-13.955-14.341-24.974-42.74-9.37-58.766C23.309 127.462 25.586 127.433 27.005 128.817 28.426 130.2 28.456 132.474 27.072 133.897c-11.794 12.111-2.489 36.553 9.374 48.744C37.83 184.061 37.798 186.336 36.375 187.72 35.677 188.398 34.774 188.737 33.87 188.737z" id="path-2" class="cls-4" fill-rule="evenodd"/><path d="M70.004 86.943C69.531 86.943 69.048 86.849 68.585 86.649 66.763 85.865 65.923 83.751 66.707 81.929 70.795 72.436 77.04 66.351 84.293 64.794 86.237 64.385 88.143 65.611 88.559 67.551 88.976 69.491 87.741 71.401 85.801 71.816 80.886 72.872 76.449 77.473 73.306 84.771 72.72 86.129 71.395 86.943 70.004 86.943z" id="path-3" class="cls-4" fill-rule="evenodd"/><path d="M102.388 85.917C100.152 91.768 97.833 97.821 102.642 108.075 105.446 114.047 108.182 116.154 110.666 116.839l51.739-52.724C157.695 62.924 153.277 60.451 149.641 56.715 145.323 52.28 142.405 47.771 140.696 43.225L104.253 80.261C103.769 82.229 103.077 84.116 102.388 85.917z" id="path-4" class="cls-6" fill-rule="evenodd"/><path d="M159.236 65.311C154.597 65.311 150.259 63.374 146.72 59.743 140.498 53.354 137.835 47.431 138.571 41.602 139.679 32.81 148.228 25.939 160.707 18.312 163.771 16.44 166.648 14.62 169.386 12.873 180.692 5.675 189.613-.006 198.264-.006 202.277-.006 206.003 1.253 209.346 3.72 214.84 7.785 216.88 14.494 214.664 21.227 212.531 27.671 205.761 35.158 193.524 35.941 186.885 47.911 173.511 65.311 159.236 65.311z" id="path-5" class="cls-6" fill-rule="evenodd"/><path d="M211.407 5.558C211.826 8.069 211.647 10.743 210.763 13.426 208.63 19.87 201.861 27.357 189.624 28.139 182.983 40.11 169.61 57.51 155.335 57.51 150.697 57.51 146.358 55.573 142.819 51.941 141.345 50.427 140.086 48.942 139.01 47.475 140.041 51.431 142.571 55.482 146.72 59.743 150.259 63.374 154.597 65.311 159.236 65.311c14.275.0 27.649-17.4 34.288-29.37C205.761 35.158 212.531 27.672 214.664 21.227 216.574 15.423 215.307 9.647 211.407 5.558z" id="path-6" class="cls-8" fill-rule="evenodd"/><path d="M42.881 157.599C41.082 155.753 41.118 152.803 42.963 151.017 44.809 149.222 47.754 149.253 49.545 151.091l14.536 14.908C65.87 167.844 65.835 170.802 63.99 172.58 63.09 173.471 61.917 173.907 60.745 173.907 59.535 173.907 58.317 173.434 57.408 172.507L42.881 157.599z" id="path-7" class="cls-9" fill-rule="evenodd"/><path d="M68.007 191.624C66.008 193.687 62.753 193.687 60.745 191.624 58.735 189.56 58.735 186.234 60.745 184.16c2.008-2.054 5.263-2.054 7.26200000000001.0C70.017 186.234 70.017 189.56 68.007 191.624z" id="path-8" class="cls-9" fill-rule="evenodd"/><path d="M78.516 157.681C77.617 158.562 76.444 158.999 75.28 158.999 74.062 158.999 72.852 158.531 71.935 157.59L57.408 142.663C55.617 140.818 55.654 137.873 57.499 136.082 59.336 134.292 62.281 134.327 64.081 136.174L78.607 151.1C80.408 152.944 80.371 155.88 78.516 157.681z" id="path-9" class="cls-9" fill-rule="evenodd"/><path d="M134.95 121.274C133.82 119.099 131.728 116.61 128.085 115.724 131.322 125.769 120.116 133.158 110.977 139.171 105.959 142.471 100.769 145.889 97.824 149.379 95.878 151.687 95.024 156.179 94.032 161.361c-1.917 10.108-4.554 23.944-17.626 37.361C70.733 204.549 63.788 207.503 55.77 207.503c-15.716.0-31.292-11.562-38.847-18.094C17.942 190.628 18.978 191.791 20.027 192.868 20.918 193.778 42.145 215.304 63.572 215.304 71.589 215.304 78.535 212.35 84.208 206.523c13.072-13.417 15.707-27.253 17.626-37.361C102.825 163.98 103.679 159.489 105.625 157.18 108.57 153.69 113.761 150.272 118.778 146.972 128.588 140.519 140.796 132.483 134.95 121.274z" id="path-10" class="cls-8" fill-rule="evenodd"/><path d="M94.587 78.116C92.351 83.967 90.032 90.02 94.841 100.274 97.763 106.501 100.609 108.509 103.176 109.098 102.998 108.75 102.821 108.456 102.642 108.075 97.834 97.821 100.152 91.768 102.388 85.917 104.515 80.35 106.925 74.055 101.825 66.588 99.816 63.64 97.376 61.389 94.654 59.884 98.804 66.868 96.607 72.827 94.587 78.116z" id="path-11" class="cls-8" fill-rule="evenodd"/></g></svg>