<svg xmlns="http://www.w3.org/2000/svg" xmlns:xlink="http://www.w3.org/1999/xlink" preserveAspectRatio="xMidYMid" width="220" height="198" viewBox="0 0 220 198"><defs><style>.cls-3{fill:#0cb04a}.cls-4{fill:#020403;opacity:.35}.cls-5{fill:#142a3b}.cls-6{fill:#2476ff}.cls-9{fill:#fff}</style></defs><g id="group-92svg"><path d="M23.199 197.374S.009 174.184.009 174.184 104.754 69.435 104.754 69.435s23.189 23.191 23.189 23.191S23.199 197.374 23.199 197.374z" id="path-1" class="cls-3" fill-rule="evenodd"/><path d="M15.894 171.856S9.115 165.078 9.115 165.078.009 174.184.009 174.184s23.19 23.189 23.19 23.189S127.943 92.626 127.943 92.626 118.838 83.52 118.838 83.52s-88.334 88.336-88.334 88.336c-4.034 4.036-10.576 4.036-14.61.0z" id="path-2" class="cls-4" fill-rule="evenodd"/><path d="M169.907 40.773S160.914 31.78 160.914 31.78 167.113 25.581 167.113 25.581s8.994 8.993 8.994 8.993S169.907 40.773 169.907 40.773z" id="path-3" class="cls-5" fill-rule="evenodd"/><path d="M178.768 114.348s-13.877-13.88-13.877-13.88C163.755 99.332 163.755 97.472 164.892 96.335l36.356-36.358C202.384 58.84 204.245 58.84 205.381 59.977L219.26 73.856c1.137 1.137 1.137 2.997.0 4.134l-36.357 36.358C181.766 115.485 179.906 115.485 178.768 114.348z" id="path-4" class="cls-6" fill-rule="evenodd"/><path d="M213.798 72.526s-25.433 25.432-25.433 25.432C184.225 102.1 177.448 102.1 173.308 97.958L170.353 95.004C169.724 94.375 169.223 93.671 168.785 92.938 166.341 97.026 166.841 102.42 170.353 105.931L173.308 108.886c4.14000000000002 4.14 10.917 4.14 15.057.0l25.433-25.433C217.309 79.941 217.811 74.548 215.366 70.46 214.928 71.192 214.428 71.896 213.798 72.526z" id="path-5" class="cls-4" fill-rule="evenodd"/><path d="M161.951 80.203C164.806 77.348 169.435 77.348 172.29 80.203 174.171 82.083 174.786 84.729 174.188 87.135l20.541-20.542C192.324 67.191 189.678 66.576 187.797 64.695 185.713 62.611 185.169 59.588 186.126 56.993L137.652 8.518C126.28-2.854 107.673-2.854 96.3 8.518c0 0-12.922 16.369-15.507 31.015C77.999 55.371 110.773 28.161 122.145 39.533l39.568 40.961C161.799 80.4 161.861 80.293 161.951 80.203z" id="path-6" class="cls-6" fill-rule="evenodd"/><path d="M134.106 19.417C133.181 19.417 132.256 19.065 131.551 18.359 123.513 10.321 110.44 10.325 102.403 18.359 100.991 19.77 98.703 19.77 97.291 18.359c-1.411-1.411-1.411-3.701.0-5.112 10.858-10.855 28.52-10.852 39.371.0C138.074 14.658 138.074 16.948 136.662 18.359 135.955 19.065 135.031 19.417 134.106 19.417z" id="path-7" class="cls-9" fill-rule="evenodd"/><path d="M187.797 64.695C187.432 64.33 187.174 63.907 186.904 63.492L177.83 72.565C178.429 70.159 177.813 67.514 175.932 65.632 173.077 62.779 168.449 62.779 165.593 65.632 165.504 65.723 165.441 65.83 165.355 65.925L125.787 24.963C115.393 14.57 87.133 36.389 84.484 28.126 82.832 31.835 81.463 35.739 80.793 39.533 77.999 55.371 110.773 28.161 122.145 39.533l39.568 40.961C161.799 80.4 161.861 80.293 161.952 80.203c2.85400000000001-2.855 7.483-2.855 10.339.0C174.171 82.083 174.786 84.729 174.188 87.134l20.541-20.541C192.324 67.191 189.678 66.576 187.797 64.695z" id="path-8" class="cls-4" fill-rule="evenodd"/><path d="M126.814 61.571s-14.961 14.963-14.961 14.963S120.846 85.528 120.846 85.528s14.963-14.963 14.963-14.963S126.814 61.571 126.814 61.571z" id="path-9" class="cls-5" fill-rule="evenodd"/><path d="M142.907 77.664s-23.19-23.19-23.19-23.19S127.846 46.343 127.846 46.343s23.19 23.191 23.19 23.191S142.907 77.664 142.907 77.664z" id="path-10" class="cls-5" fill-rule="evenodd"/><path d="M127.846 46.343S124.203 49.986 124.203 49.986s19.548 19.547 19.548 19.547S139.265 74.021 139.265 74.021s3.643 3.643 3.643 3.643S151.036 69.533 151.036 69.533s-23.19-23.19-23.19-23.19z" id="path-11" class="cls-4" fill-rule="evenodd"/><path d="M207.534 150.193S201.596 186.772 201.596 186.772 195.658 150.193 195.658 150.193s11.876.0 11.876.0z" id="path-12" class="cls-5" fill-rule="evenodd"/><path d="M216.795 146.589C216.795 148.691 209.99 150.396 201.596 150.396 193.203 150.396 186.398 148.691 186.398 146.589 186.398 144.485 193.203 142.781 201.596 142.781 209.99 142.781 216.795 144.485 216.795 146.589z" id="path-13" class="cls-5" fill-rule="evenodd"/></g></svg>