<svg xmlns="http://www.w3.org/2000/svg" xmlns:xlink="http://www.w3.org/1999/xlink" preserveAspectRatio="xMidYMid" width="215" height="218" viewBox="0 0 215 218"><defs><style>.cls-3{fill:#fccb56}.cls-4{fill:#fbb713}.cls-5{fill:#fff}.cls-6{fill:#000;opacity:.35}.cls-7{fill:#000;opacity:.25}.cls-8{fill:#2476ff}.cls-9{fill:#ff3a2f}</style></defs><g id="group-2svg"><path d="M214.973 129.978c0 37.418-30.333 67.752-67.751 67.752-37.418.0-67.75-30.334-67.75-67.752.0-37.419 30.332-67.753 67.75-67.753 37.418.0 67.751 30.334 67.751 67.753z" id="path-1" class="cls-3" fill-rule="evenodd"/><path d="M196.583 129.978c0 27.263-22.1 49.363-49.361 49.363-27.261.0-49.361-22.1-49.361-49.363.0-27.262 22.1-49.362 49.361-49.362s49.361 22.1 49.361 49.362z" id="path-2" class="cls-4" fill-rule="evenodd"/><path d="M147.221 169.645C145.225 169.645 143.607 168.027 143.607 166.03c0-1.99600000000001 1.618-3.614 3.614-3.614 17.886.0 32.437-14.552 32.437-32.438C179.658 127.983 181.277 126.363 183.273 126.363 185.27 126.363 186.888 127.983 186.888 129.978c0 21.873-17.794 39.667-39.667 39.667z" id="path-3" class="cls-5" fill-rule="evenodd"/><path d="M114.512 166.876C106.783 158.164 102.049 146.732 102.049 134.166c0-27.261 22.1-49.363 49.361-49.363 12.564.0 23.996 4.735 32.709 12.465-9.042-10.193-22.2-16.652-36.897-16.652-27.261.0-49.361 22.1-49.361 49.362C97.861 144.675 104.32 157.834 114.512 166.876z" id="path-4" class="cls-6" fill-rule="evenodd"/><path d="M112.881 188.308C118.37 191.548 124.345 194.018 130.684 195.612V64.344C124.345 65.937 118.37 68.408 112.881 71.647V188.308z" id="path-5" class="cls-7" fill-rule="evenodd"/><path d="M64.401 45.328s-15.177.0-15.177.0C48.494 45.328 47.902 44.737 47.902 44.006V11.007C47.902 10.278 48.494 9.685 49.224 9.685H64.401C65.131 9.685 65.723 10.278 65.723 11.007V44.006C65.723 44.737 65.131 45.328 64.401 45.328z" id="path-6" class="cls-8" fill-rule="evenodd"/><path d="M81.664 68.354s-49.704.0-49.704.0C31.23 68.354 30.638 67.761 30.638 67.032V41.831C30.638 41.101 31.23 40.508 31.961 40.508H81.664C82.395 40.508 82.987 41.1 82.987 41.831V67.032C82.987 67.761 82.395 68.354 81.664 68.354z" id="path-7" class="cls-9" fill-rule="evenodd"/><path d="M112.293 216.877s-110.962.0-110.962.0C.601 216.877.009 216.285.009 215.555V60.037C.009 59.306.601 58.715 1.331 58.715H112.293C113.024 58.715 113.616 59.306 113.616 60.037V215.555C113.616 216.285 113.024 216.877 112.293 216.877z" id="path-8" class="cls-8" fill-rule="evenodd"/><path d="M102.713 19.325s-65.07.0-65.07.0c-3.254.0-5.891-2.638-5.891-5.891V5.89c0-3.522 3.07-6.259 6.57-5.852l65.069 7.544C106.362 7.927 108.604 10.443 108.604 13.434 108.604 16.687 105.966 19.325 102.713 19.325z" id="path-9" class="cls-8" fill-rule="evenodd"/><path d="M105.294 101.733s-24.505.0-24.505.0C79.79 101.733 78.982 100.924 78.982 99.926S79.79 98.119 80.789 98.119h24.505C106.293 98.119 107.101 98.928 107.101 99.926S106.293 101.733 105.294 101.733z" id="path-10" class="cls-5" fill-rule="evenodd"/><path d="M105.294 146.285s-24.505.0-24.505.0C79.79 146.285 78.982 145.477 78.982 144.478 78.982 143.481 79.79 142.672 80.789 142.672h24.505C106.293 142.672 107.101 143.481 107.101 144.478 107.101 145.477 106.293 146.285 105.294 146.285z" id="path-11" class="cls-5" fill-rule="evenodd"/><path d="M105.294 190.838s-24.505.0-24.505.0C79.79 190.838 78.982 190.03 78.982 189.031 78.982 188.033 79.79 187.224 80.789 187.224h24.505C106.293 187.224 107.101 188.033 107.101 189.031 107.101 190.03 106.293 190.838 105.294 190.838z" id="path-12" class="cls-5" fill-rule="evenodd"/><path d="M20.751 196.525C18.754 196.525 17.136 194.907 17.136 192.91V101.926c0-1.996 1.618-3.615 3.615-3.615 1.996.0 3.614 1.619 3.614 3.615V192.91C24.365 194.907 22.747 196.525 20.751 196.525z" id="path-13" class="cls-5" fill-rule="evenodd"/><path d="M65.723 30.232s0-10.269.0-10.269-17.821.0-17.821.0.0 5.448.0 5.448 17.821 4.821 17.821 4.821z" id="path-14" class="cls-6" fill-rule="evenodd"/></g></svg>