<svg xmlns="http://www.w3.org/2000/svg" xmlns:xlink="http://www.w3.org/1999/xlink" preserveAspectRatio="xMidYMid" width="218" height="140" viewBox="0 0 218 140"><defs><style>.cls-3{fill:#fbb713}.cls-4{fill:#fff}.cls-5{fill:#2476ff}.cls-7{fill:#020403;opacity:.25}.cls-8{fill:#020403;opacity:.35}.cls-10{fill:#020403}.cls-11{fill:#ff3a2f}</style></defs><g id="group-153svg"><path d="M108.423 87.614S173.49 83.472 173.49 83.472C174.802 78.238 175.539 72.774 175.539 67.132c0-37.066-30.049-67.117-67.116-67.117-37.068.0-67.117 30.051-67.117 67.117C41.306 72.774 42.043 78.238 43.355 83.472L108.423 87.614z" id="path-1" class="cls-3" fill-rule="evenodd"/><path d="M55.38 61.368C55.073 61.368 54.763 61.327 54.452 61.245 52.521 60.733 51.372 58.754 51.886 56.824 57.649 35.105 73.611 17.261 94.585 9.09 96.436 8.368 98.539 9.284 99.263 11.147 99.988 13.005 99.066 15.102 97.206 15.825 78.379 23.163 64.047 39.182 58.871 58.678 58.442 60.298 56.979 61.368 55.38 61.368z" id="path-2" class="cls-4" fill-rule="evenodd"/><path d="M114.356 138.456C167.551 135.798 216.858 124.8 216.858 124.8 211.002 101.188 174.393 83.415 174.393 83.415s-65.97 4.199-65.97 4.199-65.971-4.199-65.971-4.199S5.843 101.188-.015 124.8c0 0 49.309 10.998 102.504 13.656.0.0 3.958.336000000000013 5.934.262C110.398 138.792 114.356 138.456 114.356 138.456z" id="path-3" class="cls-5" fill-rule="evenodd"/><path d="M18.753 118.619C17.993 118.619 17.228 118.382 16.574 117.887 14.982 116.682 14.668 114.415 15.874 112.823 23.613 102.597 35.14 94.38 43.449 89.286 45.145 88.242 47.376 88.775 48.419 90.479 49.462 92.181 48.929 94.407 47.226 95.448 39.449 100.217 28.696 107.86 21.637 117.187 20.926 118.125 19.847 118.619 18.753 118.619z" id="path-4" class="cls-4" fill-rule="evenodd"/><path d="M108.423.015c-2.624.0-5.199.188-7.744.481 25.3 9.614 43.315 34.02 43.315 62.694C143.994 68.83 143.257 74.294 141.945 79.529L76.878 83.671S42.924 81.509 42.924 81.509C43.067 82.163 43.193 82.825 43.355 83.472L108.423 87.614S173.49 83.472 173.49 83.472C174.802 78.238 175.539 72.774 175.539 67.132c0-37.066-30.049-67.117-67.116-67.117z" id="path-5" class="cls-7" fill-rule="evenodd"/><path d="M174.394 83.415S130.838 86.187 130.838 86.187c11.257 7.258 27.129 19.802 30.817 34.67.0.0-49.307 10.998-102.504 13.655C59.151 134.512 58.947 134.529 58.651 134.552 72.224 136.237 87.192 137.691 102.489 138.455 102.489 138.455 106.447 138.792 108.423 138.718 110.398 138.792 114.356 138.455 114.356 138.455 167.551 135.798 216.858 124.8 216.858 124.8 211.002 101.188 174.394 83.415 174.394 83.415z" id="path-6" class="cls-8" fill-rule="evenodd"/><path d="M186.184 90.22C179.492 85.891 174.394 83.415 174.394 83.415S171.596 83.592 171.596 83.592s0 49.168.0 49.168C171.953 132.709 172.309 132.658 172.664 132.608L180.092 108.595S186.184 130.405 186.184 130.405s0-40.185.0-40.185z" id="path-7" class="cls-8" fill-rule="evenodd"/><path d="M145.82 82.389C137.46 84.186 132.139 92.419 133.935 100.778 135.732 109.139 143.964 114.46 152.324 112.665 160.684 110.867 168.957 93.254 168.957 93.254S154.18 80.593 145.82 82.389zM151.822 103.692C148.254 104.458 144.742 102.187 143.975 98.621 143.209 95.056 145.48 91.542 149.046 90.777 152.613 90.01 158.917 95.41 158.917 95.41s-3.529 7.515-7.095 8.282z" id="path-8" class="cls-10" fill-rule="evenodd"/><path d="M195.794 65.681c-4.178-7.459-13.613-10.122-21.074-5.944C167.26 63.915 164.537 83.184 164.537 83.184S182.388 90.933 189.849 86.755C197.309 82.577 199.971 73.141 195.794 65.681zM185.411 81.107c-4.041 2.264-13.711-1.934-13.711-1.934S173.174 68.735 177.216 66.472C181.258 64.209 186.368 65.651 188.632 69.692 190.894 73.733 189.453 78.845 185.411 81.107z" id="path-9" class="cls-11" fill-rule="evenodd"/><path d="M145.82 70.559C137.46 72.356 132.139 80.589 133.935 88.949c1.797 8.36 10.029 13.681 18.389 11.885C160.684 99.038 168.957 81.424 168.957 81.424S154.18 68.763 145.82 70.559zM151.822 91.862C148.254 92.629 144.742 90.359 143.975 86.792 143.209 83.225 145.48 79.712 149.046 78.946 152.613 78.179 158.917 83.581 158.917 83.581S155.388 91.097 151.822 91.862z" id="path-10" class="cls-11" fill-rule="evenodd"/><path d="M178.298 81.841s0 52.508.0 52.508S172.205 112.538 172.205 112.538 163.71 140.004 163.71 140.004s0-58.163.0-58.163 14.588.0 14.588.0z" id="path-11" class="cls-11" fill-rule="evenodd"/></g></svg>