<svg xmlns="http://www.w3.org/2000/svg" xmlns:xlink="http://www.w3.org/1999/xlink" preserveAspectRatio="xMidYMid" width="216" height="206" viewBox="0 0 216 206"><defs><style>.cls-3{fill:#142a3b}.cls-4{fill:#2476ff}.cls-6{fill:#060606;opacity:.35}</style></defs><g id="group-42svg"><path d="M36.467 138.959s0-65.551.0-65.551c0-36.899 37.826-64.466 71.629-64.466 33.822.0 71.629 27.567 71.629 64.466v65.551S188.679 138.959 188.679 138.959s0-65.551.0-65.551c0-39.11-37.651-73.42-80.583-73.42-42.923.0-80.584 34.31-80.584 73.42v65.551s8.955.0 8.955.0z" id="path-1" class="cls-3" fill-rule="evenodd"/><path d="M179.725 134.207S179.725 138.685 179.725 138.685s0 58.196.0 58.196.0 4.477.0 4.477C179.725 203.833 181.737 205.835 184.203 205.835h26.861c2.483.0 4.476-2.00200000000001 4.476-4.477V138.685C215.54 136.219 213.547 134.207 211.064 134.207H179.725z" id="path-2" class="cls-4" fill-rule="evenodd"/><path d="M4.477 134.207C1.993 134.207.0 136.219.0 138.685v62.673C0 203.833 1.993 205.835 4.477 205.835H31.339c2.465.0 4.476-2.00200000000001 4.476-4.477v-4.477s0-58.196.0-58.196S35.815 134.207 35.815 134.207s-31.338.0-31.338.0z" id="path-3" class="cls-4" fill-rule="evenodd"/><path d="M211.064 134.207s-11.152.0-11.152.0.0 59.337.0 59.337c0 2.476-1.993 4.476-4.477 4.476h-15.71S179.725 201.358 179.725 201.358c0 2.476 2.012 4.476 4.47800000000001 4.476h26.861c2.483.0 4.476-2 4.476-4.476V138.684c0-2.464-1.993-4.477-4.476-4.477z" id="path-4" class="cls-6" fill-rule="evenodd"/><path d="M20.187 134.207s0 54.86.0 54.86.0 4.477.0 4.477c0 2.476-2.011 4.476-4.477 4.476H0S0 201.358.0 201.358c0 2.476 1.993 4.476 4.477 4.476H31.339c2.465.0 4.476-2 4.476-4.476v-4.476s0-58.198.0-58.198.0-4.477.0-4.477-15.628.0-15.628.0z" id="path-5" class="cls-6" fill-rule="evenodd"/></g></svg>