<svg xmlns="http://www.w3.org/2000/svg" xmlns:xlink="http://www.w3.org/1999/xlink" preserveAspectRatio="xMidYMid" width="216" height="170" viewBox="0 0 216 170"><defs><style>.cls-3{fill:#ff3a2f}.cls-4{fill:#000;opacity:.35}</style></defs><g id="group-166svg"><path d="M209.133 85.761C213.195 77.746 215.535 68.71 215.535 59.109c0-32.638-26.46-59.098-59.1-59.098-20.198.0-38.011 10.147-48.67 25.606C97.106 10.158 79.293.011 59.095.011c-32.64.0-59.1 26.46-59.1 59.098.0 11.392 3.279 21.995 8.864 31.02 13.639 26.845 47.177 53.191 99.615 79.065 36.053-18.807 65.82-41.164 88.748-67.385C200.694 98.491 209.133 85.761 209.133 85.761z" id="path-1" class="cls-3" fill-rule="evenodd"/><path d="M101.029 33.737C103.033 30.831 105.289 28.115 107.765 25.617 94.047 6.526 75.497.012 59.095.012c-2.264.0-4.489.156-6.686.403 17.365 1.989 39.172 19.62 48.62 33.322z" id="path-2" class="cls-4" fill-rule="evenodd"/><path d="M156.435.012C154.138.012 151.877.16 149.65.415c29.487 3.324 52.413 28.319 52.413 58.695C202.063 68.71 199.724 77.746 195.661 85.761c0 0-8.43799999999999 12.73-11.911 16.048-21.523 24.617-49.149 45.786-82.271 63.848C103.787 166.838 106.089 168.016 108.474 169.194c36.053-18.807 65.82-41.164 88.748-67.385C200.694 98.491 209.133 85.761 209.133 85.761 213.196 77.746 215.535 68.71 215.535 59.11c0-32.639-26.46-59.098-59.1-59.098z" id="path-3" class="cls-4" fill-rule="evenodd"/></g></svg>