<svg xmlns="http://www.w3.org/2000/svg" xmlns:xlink="http://www.w3.org/1999/xlink" preserveAspectRatio="xMidYMid" width="216" height="215" viewBox="0 0 216 215"><defs><style>.cls-3{fill:#142a3b}.cls-4{fill:#060606;opacity:.35}.cls-5{fill:#fbb713}.cls-6{fill:#060606;opacity:.25}.cls-9{fill:#2476ff}.cls-11{fill:#ededed}</style></defs><g id="group-24svg"><path d="M169.954 62.425s-29.891.0-29.891.0.0-40.585.0-40.585 29.891.0 29.891.0.0 40.585.0 40.585z" id="path-1" class="cls-3" fill-rule="evenodd"/><path d="M140.063 62.425s29.891.0 29.891.0.0-19.593.0-19.593-29.891-19.594-29.891-19.594.0 39.187.0 39.187z" id="path-2" class="cls-4" fill-rule="evenodd"/><path d="M177.044 214.403s-138.535.0-138.535.0.0-136.806.0-136.806 138.535.0 138.535.0.0 136.806.0 136.806z" id="path-3" class="cls-5" fill-rule="evenodd"/><path d="M38.509 77.597s0 23.512.0 23.512S157.45 112.866 157.45 112.866 165.287 214.402 165.287 214.402s11.757.0 11.757.0.0-136.805.0-136.805-138.535.0-138.535.0z" id="path-4" class="cls-6" fill-rule="evenodd"/><path d="M130.195 214.403s-44.837.0-44.837.0.0-65.53.0-65.53 44.837.0 44.837.0.0 65.53.0 65.53z" id="path-5" class="cls-3" fill-rule="evenodd"/><path d="M85.358 148.874s0 11.757.0 11.757 29.161.0 29.161.0.0 53.771.0 53.771 15.676.0 15.676.0.0-65.528.0-65.528-44.837.0-44.837.0z" id="path-6" class="cls-4" fill-rule="evenodd"/><path d="M.007 93.329S107.776.0 107.776.0s107.77 93.329 107.77 93.329-215.539.0-215.539.0z" id="path-7" class="cls-9" fill-rule="evenodd"/><path d="M107.776.001s-7.535 6.525-7.535 6.525 74.77 64.75 74.77 64.75C182.24 77.536 177.813 89.411 168.251 89.411H4.532S.007 93.329.007 93.329s215.539.0 215.539.0S107.776.001 107.776.001z" id="path-8" class="cls-4" fill-rule="evenodd"/><path d="M48.664 192.326C46.68 192.326 45.071 190.716 45.071 188.734V120.156c0-1.985 1.609-3.593 3.593-3.593 1.983.0 3.592 1.608 3.592 3.593v68.578C52.256 190.716 50.647 192.326 48.664 192.326z" id="path-9" class="cls-11" fill-rule="evenodd"/><path d="M36.776 79.325C35.769 79.325 34.767 78.905 34.057 78.084 32.759 76.582 32.924 74.314 34.424 73.016L87.659 26.981C89.159 25.682 91.428 25.848 92.725 27.347 94.024 28.848 93.859 31.117 92.359 32.414L39.125 78.45c-.68.587000000000003-1.516.875-2.349.875z" id="path-10" class="cls-11" fill-rule="evenodd"/></g></svg>