<svg xmlns="http://www.w3.org/2000/svg" xmlns:xlink="http://www.w3.org/1999/xlink" preserveAspectRatio="xMidYMid" width="95" height="216" viewBox="0 0 95 216"><defs><style>.cls-3{fill:#142a3b}.cls-4{fill:#ff3a2f}.cls-5{fill:#000;opacity:.35}</style></defs><g id="group-91svg"><path d="M46.993 215.528c-25.362.0-45.995-20.634-45.995-45.995C.998 165.565 4.215 162.347 8.183 162.347S15.368 165.565 15.368 169.533c0 17.438 14.186 31.626 31.625 31.626s31.628-14.188 31.628-31.626c0-17.44-14.189-31.625-31.628-31.625H39.809s0-37.824.0-37.824C39.809 96.117 43.025 92.899 46.993 92.899c3.968.0 7.185 3.218 7.185 7.185v24.014c21.963 3.459 38.812 22.517 38.812 45.435.0 25.361-20.635 45.995-45.997 45.995z" id="path-1" class="cls-3" fill-rule="evenodd"/><path d="M93.976 106.212s-93.964.0-93.964.0S.012-.006.012-.006s93.964.0 93.964.0.0 106.218.0 106.218z" id="path-2" class="cls-4" fill-rule="evenodd"/><path d="M81.576-.006s0 106.218.0 106.218 12.4.0 12.4.0.0-106.218.0-106.218-12.4.0-12.4.0z" id="path-3" class="cls-5" fill-rule="evenodd"/><path d="M61.221 33.582s-28.455.0-28.455.0S18.539 58.223 18.539 58.223 32.766 82.864 32.766 82.864s28.455.0 28.455.0S75.448 58.223 75.448 58.223 61.221 33.582 61.221 33.582zM55.027 73.53s-16.066.0-16.066.0-8.034-15.307-8.034-15.307 8.034-15.307 8.034-15.307 16.066.0 16.066.0S63.06 58.223 63.06 58.223 55.027 73.53 55.027 73.53z" id="path-4" class="cls-3" fill-rule="evenodd"/><path d="M38.961 42.916s-8.034 15.307-8.034 15.307S38.961 73.53 38.961 73.53s6.127.0 6.127.0-8.033-15.307-8.033-15.307 8.033-15.307 8.033-15.307-6.127.0-6.127.0z" id="path-5" class="cls-5" fill-rule="evenodd"/><path d="M67.349 33.581S61.221 33.581 61.221 33.581 75.448 58.223 75.448 58.223 61.221 82.865 61.221 82.865 67.349 82.865 67.349 82.865 81.576 58.223 81.576 58.223 67.349 33.581 67.349 33.581z" id="path-6" class="cls-5" fill-rule="evenodd"/></g></svg>