<svg xmlns="http://www.w3.org/2000/svg" xmlns:xlink="http://www.w3.org/1999/xlink" preserveAspectRatio="xMidYMid" width="97" height="217" viewBox="0 0 97 217"><defs><style>.cls-3{fill:#ff3a2f}.cls-4{fill:#fff}.cls-5{fill:#020403;opacity:.35}.cls-6{fill:#fbb713}.cls-8{fill:#020403;opacity:.25}.cls-9{fill:#020403}</style></defs><g id="group-59svg"><path d="M90.869 91.821C90.07 91.426 89.244 91.158 88.411 90.981 89.213 89.616 89.984 88.21 90.714 86.742 93.256 81.609 91.157 75.387 86.027 72.847 85.711 72.69 85.394 72.554 85.072 72.433 85.414 71.847 85.773 71.284 86.1 70.682 88.832 65.648 86.968 59.351 81.935 56.617 81.251 56.247 80.546 55.967 79.825 55.762 80.182 55.258 80.546 54.783 80.897 54.254 84.062 49.483 82.757 43.048 77.987 39.883 76.813 39.104 75.54 38.599 74.238 38.344 74.659 37.484 75.067 36.593 75.461 35.661 77.681 30.392 75.213 24.323 69.954 22.09 68.549 20.665 66.747 19.597 64.656 19.103l-5.367-1.268S59.135 17.799 58.875 17.754C58.621 17.71 58.252 17.646 57.783 17.563 57.332 17.485 56.809 17.387 56.25 17.276 55.69 17.163 55.094 17.029 54.521 16.869 53.952 16.715 52.445 15.662 52.184 14.544 52.134 14.209 52.108 13.873 52.104 13.527 52.089 12.166 52.455 10.73 53.098 9.566 53.734 8.384 54.6 7.451 55.465 6.762 56.327 6.066 57.191 5.61 57.918 5.329 58.65 5.04 59.247 4.919 59.648 4.873 60.049 4.824 60.244 4.85 60.226 4.847 60.947 4.925 61.591 4.405 61.673 3.688 61.754 2.969 58.625 1.896 57.74 1.686 56.854 1.482 55.757 1.211 54.401.917 53.073.633 51.497.337 49.59.143 49.553.138 49.52.133 49.483.129c-1.943-.171-4.281-.236-6.877.263C41.962.517 41.296.671 40.627.868 39.951 1.057 39.288 1.308 38.608 1.58 37.946 1.873 37.27 2.19 36.618 2.562 36.296 2.748 35.968 2.942 35.655 3.151 35.334 3.359 35.027 3.581 34.722 3.807c-2.467 1.826-4.427 4.344-5.695 7.008L28.793 11.317S28.778 11.35 28.778 11.35C28.788 11.311 28.629 11.803 28.692 11.604L28.674 11.644S28.636 11.721 28.636 11.721 28.56 11.876 28.56 11.876 28.41 12.188 28.41 12.188 28.156 12.885 28.156 12.885 27.919 13.587 27.919 13.587 27.72 14.199 27.72 14.199C27.589 14.603 27.474 15.038 27.369 15.469 26.935 17.205 26.641 19.159 26.655 21.282 26.642 23.394 26.982 25.699 27.685 27.956 28.404 30.209 29.504 32.405 30.878 34.287 31.298 34.864 31.744 35.404 32.198 35.925c-1.644-1.071-3.587-1.718-5.694-1.718-5.784.0-10.471 4.689-10.471 10.472.0 3.29 1.526 6.211 3.896 8.131C14.896 53.573 11.037 57.903 11.037 63.149 11.037 66.576 12.685 69.615 15.233 71.526 10 72.107 5.933 76.539 5.933 81.926c0 2.943 1.234 5.581 3.189 7.483C3.974 90.069-.008 94.456-.008 99.785-.008 103.701 2.146 107.103 5.329 108.9 4.128 112.742 6.511 115.917 10.602 118.499H49.59s38.988.0 38.988.0C88.578 118.577 88.574 118.655 88.574 118.733 91.196 115.815 93.54 112.371 95.583 108.246 98.128 103.115 96.003 94.367 90.869 91.821z" id="path-1" class="cls-3" fill-rule="evenodd"/><path d="M17.154 112.516C16.552 112.516 15.942 112.365 15.38 112.048c-4.424-2.5-7.175-7.199-7.175-12.263C8.205 94.604 11.048 89.995 15.327 87.552 14.555 85.799 14.149 83.894 14.149 81.926 14.149 76.843 16.842 72.344 20.945 69.866c-1.103-2.026-1.694-4.319-1.694-6.717.0-5.024 2.583-9.453 6.6-11.946C24.808 49.217 24.248 46.989 24.248 44.679c0-1.996 1.618-3.614 3.614-3.614 1.996.0 3.614 1.618 3.614 3.614.0 2.067.933 4.005 2.557 5.322L40.4 55.156s-8.1 1.228-8.1 1.228C28.983 56.888 26.48 59.795 26.48 63.149 26.48 65.323 27.482 67.321 29.231 68.633l7.301 5.477S27.462 75.117 27.462 75.117C23.993 75.504 21.378 78.431 21.378 81.926 21.378 83.767 22.121 85.504 23.471 86.819l5.366 5.224S21.409 92.995 21.409 92.995C18.003 93.431 15.435 96.35 15.435 99.785 15.435 102.247 16.777 104.534 18.935 105.754 20.673 106.735 21.286 108.94 20.305 110.679 19.641 111.855 18.416 112.516 17.154 112.516z" id="path-2" class="cls-4" fill-rule="evenodd"/><path d="M90.869 91.821C90.07 91.426 89.244 91.158 88.411 90.981 89.213 89.616 89.984 88.21 90.714 86.742 93.256 81.609 91.157 75.387 86.027 72.847 85.711 72.69 85.394 72.554 85.072 72.433 85.414 71.847 85.773 71.284 86.1 70.682 88.832 65.648 86.968 59.351 81.935 56.617 81.251 56.247 80.546 55.967 79.825 55.762 80.182 55.258 80.546 54.782 80.897 54.254 84.062 49.483 82.757 43.048 77.987 39.883 76.813 39.104 75.54 38.599 74.238 38.344 74.659 37.484 75.067 36.593 75.461 35.661 77.681 30.392 75.213 24.323 69.954 22.09 68.549 20.665 66.747 19.597 64.656 19.103l-5.367-1.268S59.135 17.799 58.875 17.753C58.621 17.71 58.252 17.646 57.783 17.563 57.332 17.485 56.809 17.387 56.25 17.276 55.69 17.163 55.094 17.029 54.521 16.869 53.952 16.715 52.445 15.662 52.184 14.544 52.134 14.209 52.108 13.873 52.104 13.527 52.089 12.165 52.455 10.73 53.098 9.566 53.734 8.384 54.6 7.451 55.465 6.762 56.327 6.066 57.191 5.61 57.918 5.329 58.65 5.04 59.247 4.919 59.648 4.873 60.049 4.824 60.244 4.85 60.226 4.847 60.947 4.924 61.591 4.405 61.673 3.688 61.754 2.969 58.625 1.896 57.74 1.686 56.854 1.482 55.757 1.211 54.401.917 53.073.632 51.497.337 49.59.143 49.553.138 49.52.133 49.483.129c-1.943-.171-4.281-.236-6.877.263C41.962.517 41.296.671 40.627.867 39.951 1.057 39.288 1.308 38.608 1.58 37.946 1.873 37.27 2.19 36.618 2.562 36.296 2.748 35.968 2.942 35.655 3.151 35.334 3.359 35.027 3.581 34.722 3.807c-1.535 1.137-2.845 2.558-3.944 4.098C31.824 7.895 32.819 7.937 33.71 8.016 33.747 8.019 33.78 8.024 33.818 8.029 35.725 8.223 37.3 8.519 38.629 8.802 39.984 9.097 41.082 9.369 41.968 9.573 42.852 9.782 45.981 10.854 45.9 11.574 45.819 12.292 45.174 12.811 44.454 12.734 44.471 12.736 44.277 12.71 43.876 12.759 43.475 12.806 42.877 12.927 42.145 13.216 41.419 13.496 40.555 13.953 39.692 14.649 38.828 15.338 37.961 16.27 37.326 17.453 36.683 18.617 36.317 20.052 36.331 21.413 36.335 21.759 36.362 22.096 36.411 22.43 36.672 23.549 38.179 24.601 38.749 24.755 39.321 24.916 39.918 25.049 40.477 25.163 41.036 25.274 41.559 25.372 42.011 25.45 42.48 25.532 42.848 25.596 43.102 25.64 43.362 25.685 43.516 25.721 43.516 25.721s5.368 1.269 5.368 1.269C50.975 27.484 52.775 28.552 54.182 29.977c5.258 2.233 7.726 8.301 5.506 13.57C59.294 44.48 58.887 45.372 58.466 46.231 59.767 46.486 61.041 46.99 62.215 47.77 66.985 50.934 68.289 57.37 65.124 62.141 64.773 62.67 64.41 63.145 64.053 63.648 64.773 63.853 65.478 64.133 66.163 64.504 71.195 67.237 73.058 73.535 70.327 78.568 70 79.171 69.642 79.733 69.299 80.319 69.622 80.44 69.939 80.576 70.253 80.734 75.384 83.273 77.484 89.496 74.94 94.628 74.213 96.096 73.441 97.502 72.639 98.867 73.472 99.044 74.298 99.313 75.097 99.708 80.23 102.253 82.356 111.001 79.811 116.132 79.404 116.955 78.975 117.731 78.545 118.499H88.578C88.578 118.577 88.574 118.655 88.574 118.732 91.196 115.815 93.54 112.37 95.583 108.246 98.128 103.114 96.003 94.367 90.869 91.821z" id="path-3" class="cls-5" fill-rule="evenodd"/><path d="M49.59 118.499s-38.988.0-38.988.0c0 12.669 3.105 23.701 15.275 29.455l5.912 56.279S31.96 204.233 31.96 204.233C31.96 211.219 39.851 216.883 49.59 216.883 59.327 216.883 67.221 211.219 67.221 204.233H67.392S73.361 147.399 73.361 147.399C84.555 141.546 88.523 130.906 88.574 118.733 88.574 118.655 88.578 118.577 88.578 118.499H49.59z" id="path-4" class="cls-6" fill-rule="evenodd"/><path d="M43.79 207.847s-3.195.0-3.195.0S40.033 204.677 40.033 204.677s-7.364-59.478-7.364-59.478C22.544 142.272 18.176 135.514 18.176 123.068c0-1.996 1.619-3.615 3.615-3.615s3.614 1.619 3.614 3.615c0 11.251 3.804 14.109 11.291 15.687L39.223 139.285s7.895 63.777 7.895 63.777C47.247 203.429 47.32 203.823 47.32 204.233c0 1.99600000000001-1.533 3.614-3.53 3.614z" id="path-5" class="cls-4" fill-rule="evenodd"/><path d="M76.749 118.499C76.749 118.577 76.744 118.655 76.744 118.732 76.694 130.906 72.726 141.546 61.531 147.398l-5.968 56.835S55.391 204.233 55.391 204.233C55.391 209.723 50.487 214.349 43.675 216.1 45.532 216.577 47.504 216.883 49.59 216.883 59.327 216.883 67.221 211.219 67.221 204.233H67.392S73.361 147.398 73.361 147.398c11.194-5.852 15.162-16.492 15.213-28.666C88.574 118.655 88.578 118.577 88.578 118.499H76.749z" id="path-6" class="cls-8" fill-rule="evenodd"/><path d="M16.154 43.475C16.147 43.532 16.142 43.591 16.136 43.65 16.231 43.708 16.332 43.752 16.425 43.812 16.332 43.704 16.246 43.584 16.154 43.475z" id="path-7" class="cls-9" fill-rule="evenodd"/></g></svg>