<svg xmlns="http://www.w3.org/2000/svg" xmlns:xlink="http://www.w3.org/1999/xlink" preserveAspectRatio="xMidYMid" width="106" height="218" viewBox="0 0 106 218"><defs><style>.cls-3{fill:#142a3b}.cls-4{fill:#0cb04a}.cls-5{fill:#020403;opacity:.45}.cls-6{fill:#ff3a2f}.cls-7{fill:#fff}.cls-9{fill:#020403;opacity:.35}.cls-10{fill:#fbb713}.cls-11{fill:#020403;opacity:.25}</style></defs><g id="group-39svg"><path d="M84.16 30.251c0 16.701-13.538 30.239-30.238 30.239-16.699.0-30.239-13.538-30.239-30.239.0-16.7 13.54-30.239 30.239-30.239 16.7.0 30.238 13.539 30.238 30.239z" id="path-1" class="cls-3" fill-rule="evenodd"/><path d="M60.888 61.484c0 16.7-13.538 30.239-30.238 30.239C13.95 91.723.413 78.184.413 61.484.413 44.783 13.95 31.245 30.65 31.245c16.7.0 30.238 13.538 30.238 30.239z" id="path-2" class="cls-4" fill-rule="evenodd"/><path d="M54.235 36.365c-12.801 3.518-22.218 15.21-22.218 29.129C32.017 79.414 41.434 91.105 54.235 94.623c12.802-3.518 22.219-15.209 22.219-29.129C76.454 51.575 67.037 39.883 54.235 36.365z" id="path-3" class="cls-5" fill-rule="evenodd"/><path d="M104.524 61.484c0 16.7-13.539 30.239-30.239 30.239-16.7.0-30.238-13.539-30.238-30.239.0-16.701 13.538-30.239 30.238-30.239 16.7.0 30.239 13.538 30.239 30.239z" id="path-4" class="cls-6" fill-rule="evenodd"/><path d="M50.669 70.507C48.673 70.507 47.054 68.888 47.054 66.892c0-15.786 12.844-28.629 28.63-28.629 1.995.0 3.614 1.618 3.614 3.615s-1.619 3.615-3.614 3.615c-11.8.0-21.4 9.6-21.4 21.399C54.284 68.888 52.665 70.507 50.669 70.507z" id="path-5" class="cls-7" fill-rule="evenodd"/><path d="M10.57 70.507C8.574 70.507 6.955 68.888 6.955 66.892c0-9.295 4.542-18.047 12.147-23.41C20.729 42.332 22.988 42.722 24.139 44.352 25.29 45.984 24.899 48.239 23.266 49.39c-5.685 4.011-9.082 10.554-9.082 17.502C14.184 68.888 12.566 70.507 10.57 70.507z" id="path-6" class="cls-7" fill-rule="evenodd"/><path d="M77.566 31.43c8.923 5.257 14.927 14.939 14.927 26.044.0 16.7-13.538 30.24-30.237 30.24C61.145 87.714 60.052 87.644 58.973 87.528 63.468 90.177 68.69 91.723 74.285 91.723c16.7.0 30.239-13.539 30.239-30.239.0-15.59-11.802-28.416-26.958-30.054z" id="path-7" class="cls-9" fill-rule="evenodd"/><path d="M67.668 216.892S105.684 77.276 105.684 77.276s-105.669.0-105.669.0S38.03 216.892 38.03 216.892s29.638.0 29.638.0z" id="path-8" class="cls-10" fill-rule="evenodd"/><path d="M86.368 77.276S51.629 204.861 51.629 204.861s-16.875.0-16.875.0 3.276 12.03 3.276 12.03 29.638.0 29.638.0S105.684 77.276 105.684 77.276s-19.316.0-19.316.0z" id="path-9" class="cls-11" fill-rule="evenodd"/><path d="M41.172 181.157C39.586 181.157 38.131 180.105 37.69 178.503L17.71 106.055C17.178 104.129 18.308 102.14 20.232 101.609 22.164 101.076 24.147 102.208 24.676 104.133L44.658 176.58C45.189 178.504 44.059 180.495 42.136 181.025 41.813 181.114 41.49 181.157 41.172 181.157z" id="path-10" class="cls-7" fill-rule="evenodd"/></g></svg>