<svg xmlns="http://www.w3.org/2000/svg" xmlns:xlink="http://www.w3.org/1999/xlink" preserveAspectRatio="xMidYMid" width="100" height="217" viewBox="0 0 100 217"><defs><style>.cls-3{fill:#ff3a2f}.cls-4{fill:#020403;opacity:.35}.cls-5{fill:#fbb713}.cls-6{fill:#fff}.cls-7{fill:#020403;opacity:.25}</style></defs><g id="group-149svg"><path d="M63.116 162.14C63.291 162.765 63.263 204.541 63.263 204.541 63.263 211.235 58.094 216.871 51.4 216.871H47.95C41.257 216.871 36.707 211.235 36.707 204.541 36.707 204.541 36.305 162.765 36.479 162.14H63.116z" id="path-1" class="cls-3" fill-rule="evenodd"/><path d="M63.263 182.412S63.291 162.765 63.116 162.14H36.479C36.305 162.765 36.707 182.412 36.707 182.412s26.556.0 26.556.0z" id="path-2" class="cls-4" fill-rule="evenodd"/><path d="M99.232 168.183C99.869 163.757 98.67 44.043 98.67 44.043 98.67 19.597 80.418-.01 55.975-.01H43.376C18.931-.01 1.299 19.597 1.299 44.043c0 0-1.818 119.714-1.181 124.14H99.232z" id="path-3" class="cls-5" fill-rule="evenodd"/><path d="M12.29 84.043C12.264 84.043 12.239 84.043 12.214 84.043 10.218 84.002 8.634 82.351 8.673 80.355 8.965 66.362 9.248 54.628 9.248 54.628 9.246 37.406 18.314 22.354 32.91 15.436 34.712 14.583 36.868 15.35 37.725 17.156 38.579 18.958 37.81 21.113 36.005 21.969c-12.047 5.71-19.53 18.258-19.53 32.745C16.473 54.805 16.191 66.526 15.902 80.504 15.861 82.476 14.251 84.043 12.29 84.043z" id="path-4" class="cls-6" fill-rule="evenodd"/><path d="M98.67 44.043C98.67 19.597 80.418-.01 55.975-.01h-12.6C32.76-.01 23.436 3.697 16.277 9.881 19.273 9.216 22.405 8.843 25.671 8.843H38.27c24.445.0 42.697 19.607 42.697 44.052C80.967 52.895 81.834 139.693 81.7 168.183H99.232C99.869 163.757 98.67 44.043 98.67 44.043z" id="path-5" class="cls-7" fill-rule="evenodd"/><path d="M63.263 134.176c-1.996.0-3.615-1.619-3.615-3.61499999999998V46.466c0-1.996 1.619-3.615 3.615-3.615 1.996.0 3.615 1.619 3.615 3.615v84.095C66.878 132.557 65.259 134.176 63.263 134.176z" id="path-6" class="cls-4" fill-rule="evenodd"/><path d="M32.281 134.176c-1.996.0-3.614-1.619-3.614-3.61499999999998V46.466c0-1.996 1.618-3.615 3.614-3.615s3.616 1.619 3.616 3.615v84.095C35.897 132.557 34.277 134.176 32.281 134.176z" id="path-7" class="cls-4" fill-rule="evenodd"/></g></svg>