<svg xmlns="http://www.w3.org/2000/svg" xmlns:xlink="http://www.w3.org/1999/xlink" preserveAspectRatio="xMidYMid" width="140" height="216" viewBox="0 0 140 216"><defs><style>.cls-3{fill:#142a3b}.cls-4{fill:#ff3a2f}.cls-5{fill:#ededed}.cls-6{fill:#060606;opacity:.35}</style></defs><g id="group-32svg"><path d="M135.492 207.934S128.491 207.934 128.491 207.934C128.676 207.486 128.784 206.999 128.784 206.483 128.784 204.382 127.08 202.677 124.978 202.677H14.306C12.204 202.677 10.5 204.382 10.5 206.483 10.5 206.999 10.608 207.486 10.793 207.934H3.792C1.69 207.934-.014 209.639-.014 211.74-.014 213.844 1.69 215.546 3.792 215.546h131.7C137.594 215.546 139.298 213.844 139.298 211.74 139.298 209.639 137.594 207.934 135.492 207.934z" id="path-1" class="cls-3" fill-rule="evenodd"/><path d="M106.075 36.445c0 20.122-16.312 36.433-36.433 36.433-20.121.0-36.433-16.311-36.433-36.433C33.209 16.325 49.521.014 69.642.014c20.121.0 36.433 16.311 36.433 36.431z" id="path-2" class="cls-4" fill-rule="evenodd"/><path d="M44.475 40.039c-1.983.0-3.592-1.609-3.592-3.593.0-15.858 12.901-28.759 28.76-28.759C71.627 7.687 73.235 9.296 73.235 11.279c0 1.984-1.608 3.593-3.592 3.593-11.896.0-21.576 9.678-21.576 21.574.0 1.984-1.608 3.593-3.592 3.593z" id="path-3" class="cls-5" fill-rule="evenodd"/><path d="M95.462 10.748C97.243 15.044 98.238 19.749 98.238 24.689c0 20.122-16.312 36.432-36.434 36.432-10.091.0-19.222-4.106-25.82-10.734 5.475 13.2 18.477 22.49 33.658 22.49 20.121.0 36.433-16.31 36.433-36.432C106.075 26.417 102.02 17.336 95.462 10.748z" id="path-4" class="cls-6" fill-rule="evenodd"/><path d="M107.048 103.399s-74.812.0-74.812.0C31.099 103.399 30.177 102.478 30.177 101.341V69.679C30.177 68.542 31.099 67.621 32.236 67.621h74.812C108.185 67.621 109.107 68.542 109.107 69.679v31.662C109.107 102.478 108.185 103.399 107.048 103.399z" id="path-5" class="cls-3" fill-rule="evenodd"/><path d="M101.039 67.621S100.088 67.621 100.088 67.621C100.822 68.836 101.269 70.246 101.269 71.77V91.414C101.269 95.869 97.657 99.481 93.201 99.481H31.359C32.771 101.82 35.313 103.399 38.245 103.399h62.794c4.456.0 8.068-3.61 8.068-8.06700000000001V75.688C109.107 71.233 105.495 67.621 101.039 67.621z" id="path-6" class="cls-6" fill-rule="evenodd"/><path d="M113.451 202.678s-87.618.0-87.618.0 21.029-99.279 21.029-99.279 45.561.0 45.561.0 21.028 99.279 21.028 99.279z" id="path-7" class="cls-3" fill-rule="evenodd"/><path d="M92.423 103.399s-45.561.0-45.561.0S46.501 105.098 46.501 105.098s31.987 6.964 31.987 6.964 18.015 77.625 18.015 77.625C97.016 191.899 95.336 194.014 93.065 194.014L26.524 199.416S25.833 202.678 25.833 202.678s87.618.0 87.618.0-21.028-99.279-21.028-99.279z" id="path-8" class="cls-6" fill-rule="evenodd"/><path d="M128.491 207.934C128.676 207.486 128.784 206.999 128.784 206.484 128.784 206.063 128.671 205.677 128.545 205.298H10.739C10.613 205.677 10.5 206.063 10.5 206.484 10.5 206.999 10.608 207.486 10.793 207.934H6.788S6.788 207.967 6.788 207.967s126.905.0 126.905.0S133.693 207.934 133.693 207.934s-5.202.0-5.202.0z" id="path-9" class="cls-6" fill-rule="evenodd"/><path d="M-.014 211.74C-.014 213.844 1.69 215.547 3.792 215.547h131.7C137.594 215.547 139.298 213.844 139.298 211.74 139.298 211.585 139.228 211.452 139.209 211.3H.074C.056 211.452-.014 211.585-.014 211.74z" id="path-10" class="cls-6" fill-rule="evenodd"/><path d="M41.299 186.049C41.079 186.049 40.859 186.03 40.636 185.988 38.685 185.623 37.4 183.748 37.764 181.797l11.105-59.434C49.234 120.413 51.116 119.13 53.06 119.491c1.95.366 3.236 2.241 2.871 4.19L44.827 183.116C44.503 184.844 42.995 186.049 41.299 186.049z" id="path-11" class="cls-5" fill-rule="evenodd"/></g></svg>