<svg xmlns="http://www.w3.org/2000/svg" xmlns:xlink="http://www.w3.org/1999/xlink" preserveAspectRatio="xMidYMid" width="218" height="216" viewBox="0 0 218 216"><defs><style>.cls-3{fill:#2476ff}.cls-4{fill:#142a3b}.cls-5{fill:#000;opacity:.35}</style></defs><g id="group-157svg"><path d="M152.1 96.428s-78.908 78.205-78.908 78.205C69.631 178.163 59.562 173.93 50.712 165.163 41.866 156.393 37.59 146.414 41.156 142.884L120.117 64.74s0 0 0 0" id="path-1" class="cls-3" fill-rule="evenodd"/><path d="M3.578 215.527C2.651 215.527 1.725 215.17 1.022 214.459-.373 213.048-.359 210.772 1.053 209.379l34.129-33.724C36.593 174.263 38.866 174.276 40.262 175.686 41.657 177.098 41.642 179.372 40.231 180.767L6.102 214.49C5.402 215.181 4.49 215.527 3.578 215.527z" id="path-2" class="cls-4" fill-rule="evenodd"/><path d="M142.958 87.371s-74.336 73.674-74.336 73.674C65.061 164.576 54.992 160.342 46.141 151.576 43.806 149.26 41.815 146.865 40.176 144.52c-1.427 4.404 2.809 12.983 10.536 20.643C59.562 173.93 69.631 178.163 73.192 174.634L152.1 96.428s-9.142-9.057-9.142-9.057z" id="path-3" class="cls-5" fill-rule="evenodd"/><path d="M44.798 158.089s-13.8 13.293-13.8 13.293 13.099 13.376 13.099 13.376 13.997-13.482 13.997-13.482.0.0.0.0" id="path-4" class="cls-3" fill-rule="evenodd"/><path d="M168.103 115.881C167.19 115.881 166.276 115.534 165.574 114.841l-63.981-63.41C100.184 50.034 100.174 47.76 101.571 46.35 102.968 44.938 105.24 44.932 106.652 46.328l63.982 63.409C172.042 111.134 172.052 113.407 170.656 114.817 169.953 115.527 169.028 115.881 168.103 115.881z" id="path-5" class="cls-4" fill-rule="evenodd"/><path d="M129.365 77.489C128.436 77.489 127.508 77.131 126.804 76.417 125.413 75.003 125.431 72.728 126.844 71.335l57.95-57.036C186.211 12.911 188.486 12.929 189.875 14.339 191.266 15.753 191.249 18.027 189.835 19.421L131.886 76.457C131.186 77.145 130.275 77.489 129.365 77.489z" id="path-6" class="cls-4" fill-rule="evenodd"/><path d="M213.806 43.412C212.892 43.412 211.978 43.065 211.276 42.371L174.715 6.138C173.306 4.741 173.296 2.467 174.692 1.057 176.088-.356 178.36-.361 179.773 1.034l36.562 36.234C217.744 38.667 217.754 40.939 216.358 42.349 215.655 43.058 214.73 43.412 213.806 43.412z" id="path-7" class="cls-4" fill-rule="evenodd"/><path d="M113.263 106.822C112.349 106.822 111.435 106.476 110.733 105.782L97.022 92.195C95.613 90.797 95.603 88.524 96.999 87.113 98.397 85.701 100.669 85.696 102.081 87.091l13.711 13.587C117.2 102.077 117.212 104.35 115.815 105.76 115.111 106.468 114.187 106.822 113.263 106.822z" id="path-8" class="cls-4" fill-rule="evenodd"/><path d="M94.982 124.941C94.068 124.941 93.154 124.593 92.453 123.9L78.741 110.312C77.333 108.913 77.322 106.64 78.718 105.229 80.117 103.818 82.388 103.813 83.8 105.207l13.711 13.589C98.92 120.194 98.93 122.467 97.534 123.877 96.83 124.586 95.906 124.941 94.982 124.941z" id="path-9" class="cls-4" fill-rule="evenodd"/><path d="M76.701 143.057C75.787 143.057 74.873 142.711 74.171 142.017L60.46 128.429C59.051 127.032 59.041 124.758 60.437 123.348 61.833 121.937 64.105 121.931 65.519 123.325L79.23 136.914C80.639 138.31 80.65 140.585 79.254 141.994 78.55 142.703 77.625 143.057 76.701 143.057z" id="path-10" class="cls-4" fill-rule="evenodd"/><path d="M142.664 90.668C141.737 90.668 140.807 90.31 140.105 89.597 138.712 88.184 138.73 85.908 140.144 84.518l57.944-57.042C199.501 26.086 201.778 26.101 203.168 27.516 204.56 28.93 204.542 31.204 203.129 32.596l-57.945 57.04C144.485 90.325 143.575 90.668 142.664 90.668z" id="path-11" class="cls-4" fill-rule="evenodd"/></g></svg>