<svg xmlns="http://www.w3.org/2000/svg" xmlns:xlink="http://www.w3.org/1999/xlink" preserveAspectRatio="xMidYMid" width="218" height="203" viewBox="0 0 218 203"><defs><style>.cls-3{fill:#ff3a2f}.cls-4{fill:#ddc100}.cls-5{fill:#000;opacity:.35}.cls-7{fill:#142a3b}.cls-10{fill:#fff}</style></defs><g id="group-13svg"><path d="M163.38 55.723S163.719 57.056 163.719 57.056C159.592 61.183 153.768 61.281 149.521 57.279L146.335 53.881C142.284 50.061 136.199 49.952 132.017 53.628L128.831 56.52C124.918 59.959 119.16 60.114 115.071 56.886l-6.788-5.381c-3.669-2.896-8.771-3.102-12.66-.509L89.829 54.863C85.878 57.497 80.675 57.24 77.004 54.23L72.539 50.569C68.54 47.291 62.778 47.31 58.801 50.615l-6.71 5.577C49.454 58.384 44.517 58.805 41.5 57.176 40.074 56.404 38.385 55.865 35.385 55.496V167.862c0 21.9 17.55 34.203 36.177 34.203H145.34c18.627.0 27.038-12.303 27.038-34.203V53.656C172.378 51.708 166.729 52.375 163.38 55.723z" id="path-1" class="cls-3" fill-rule="evenodd"/><path d="M179.067 24.119S178.217 24.119 178.217 24.119C178.502 24.119 178.784 24.142 179.067 24.165V24.119z" id="path-2" class="cls-4" fill-rule="evenodd"/><path d="M160.999 52.249S160.2 53.582 160.2 53.582C157.771 56.012 154.558 57.006 151.459 56.628v97.351c0 21.899-12.966 37.058-31.592 37.058H46.088C44.719 191.037 45.086 191.101 43.745 190.939c9.852 10.124 23.304 11.582 22.964 11.48h73.779C164.594 203.548 172.275 191.575 172.275 164.387V50.183C172.275 48.234 164.349 48.9 160.999 52.249z" id="path-3" class="cls-5" fill-rule="evenodd"/><path d="M172.275 72.793s0-15.614.0-15.614C168.473 55.814 166.366 55.689 163.306 58.749L161.974 60.082C157.846 64.208 151.187 64.306 146.94 60.303L143.335 56.905C139.283 53.086 132.99 52.976 128.808 56.653L125.518 59.544C121.605 62.984 115.794 63.137 111.705 59.909L104.891 54.529C101.223 51.632 96.107 51.425 92.218 54.019L86.416 57.883C82.467 60.516 77.26 60.254 73.589 57.245L69.123 53.573C65.123 50.294 59.361 50.293 55.383 53.599l-6.71 5.535C46.036 61.324 42.323 61.661 39.307 60.032 37.799 59.217 36.848 59.002 34.921 58.63V74.188C36.863 74.56 37.79 74.825 39.307 75.644 42.323 77.274 46.036 76.937 48.673 74.746l6.71-5.535C59.361 65.906 65.123 65.907 69.123 69.185L73.589 72.857C77.26 75.866 82.467 76.129 86.416 73.496L92.218 69.631C96.107 67.038 101.223 67.245 104.891 70.141L111.705 75.522C115.794 78.75 121.605 78.597 125.518 75.158L128.808 72.266C132.99 68.589 139.283 68.698 143.335 72.518L146.94 75.916C151.187 79.92 157.846 79.821 161.974 75.694L163.306 74.361C166.366 71.302 168.473 71.426 172.275 72.793z" id="path-4" class="cls-5" fill-rule="evenodd"/><path d="M33.215 30.357S.014 64.623.014 64.623 29.292 55.167 41.656 61.848C44.672 63.478 48.386 63.323 51.022 61.132l6.71-5.445C61.709 52.382 67.472 52.429 71.472 55.707L75.938 59.402C79.609 62.411 84.815 62.684 88.766 60.051L94.567 56.191C98.456 53.599 103.572 53.809 107.24 56.705L114.055 62.088C118.143 65.315 123.954 65.163 127.867 61.723L131.158 58.831C135.339 55.156 141.632 55.266 145.684 59.085L149.289 62.482C153.536 66.486 160.196 66.388 164.322 62.26l1.333-1.332C169.966 56.616 176.991 56.73 181.16 61.179L184.849 65.116C187.347 67.78 191.193 68.763 194.629 67.528 200.726 65.336 210.663 63.28 216.888 69.859l-31.55-38.898c-2.04999999999998-2.39-5.042-5.89-8.19-5.89H40.846C37.984 25.071 35.239 28.334 33.215 30.357z" id="path-5" class="cls-7" fill-rule="evenodd"/><path d="M193.377 17.458C193.377 26.08 186.387 33.071 177.764 33.071H31.999c-8.623.0-15.612-6.991-15.612-15.613V15.684C16.387 7.062 23.376.072 31.999.072H177.764C186.387.072 193.377 7.062 193.377 15.684v1.774z" id="path-6" class="cls-7" fill-rule="evenodd"/><path d="M178.35-.001S177.394-.001 177.394-.001C177.975 1.702 178.35 3.509 178.35 5.42 178.35 14.404 171.36 21.687 162.737 21.687H17.977c2.151 6.302 7.869 10.843 14.657 10.843H178.35C186.972 32.53 193.963 25.247 193.963 16.264 193.963 7.281 186.972-.001 178.35-.001z" id="path-7" class="cls-5" fill-rule="evenodd"/><path d="M52.83 176.624c-1.996.0-3.614-1.61699999999999-3.614-3.613V133.447C49.216 131.451 50.834 129.832 52.83 129.832c1.996.0 3.615 1.619 3.615 3.61500000000001v39.564c0 1.99600000000001-1.619 3.613-3.615 3.613z" id="path-8" class="cls-10" fill-rule="evenodd"/></g></svg>