<svg xmlns="http://www.w3.org/2000/svg" xmlns:xlink="http://www.w3.org/1999/xlink" preserveAspectRatio="xMidYMid" width="196" height="217" viewBox="0 0 196 217"><defs><style>.cls-3{fill:#142a3b}.cls-4{fill:#fbb713}.cls-5{fill:#2476ff}.cls-6{fill:#020403;opacity:.35}.cls-7{fill:#fff}</style></defs><g id="group-64svg"><path d="M192.74 44.943c0 22.937-18.594 41.533-41.532 41.533S109.675 67.88 109.675 44.943c0-22.938 18.595-41.534 41.533-41.534S192.74 22.005 192.74 44.943z" id="path-1" class="cls-3" fill-rule="evenodd"/><path d="M117.195 76.153C126.033 85.696 138.899 91.379 152.883 90.612c24.965-1.348 44.173-22.776 42.809-47.743-1.363-24.966-22.775-44.173-47.757-42.81-21.902 1.195-39.363 17.828-42.411 38.737h6.861C115.372 21.442 130 7.778 148.303 6.783c21.259-1.164 39.501 15.195 40.65 36.454 1.179 21.261-15.178 39.486-36.438 40.652-11.61.628-22.301-3.982-29.821-11.749L117.195 76.153z" id="path-2" class="cls-4" fill-rule="evenodd"/><path d="M138.776 61.954c16.128-9.589 15.455-19.36 15.316-20.448L153.755 38.796s-153.41.0-153.41.0-.321 2.695-.321 2.695C-.099 42.579-.788 52.365 15.34 61.939 24.729 67.53 53.294 84.5 53.049 96.586v13.831c0 11.259 7.919 20.754 18.472 23.374v72.602C68.06 208.155 55.714 211.938 42.497 213.224 31.759 215.384 34.532 216.87 34.532 216.87s34.554.0 34.554.0 5.743.0 5.743.0 45.184.0 45.184.0S122.786 215.384 112.049 213.224C98.815 211.938 86.486 208.155 83.024 206.393V133.699C93.347 130.941 101.067 121.522 101.067 110.417V96.525C100.959 91.064 106.805 84.575 114.091 78.605c0 0 21.779-14.932 24.685-16.651z" id="path-3" class="cls-5" fill-rule="evenodd"/><path d="M154.092 41.506S153.755 38.796 153.755 38.796s-10.254.0-10.254.0S143.838 41.506 143.838 41.506C143.976 42.594 144.65 52.365 128.52 61.954 125.615 63.673 103.836 78.604 103.836 78.604c-7.286 5.971-13.131 12.46-13.024 17.921v13.892c0 11.105-7.72 20.524-18.043 23.282v72.694C76.231 208.155 88.561 211.938 101.794 213.224 112.531 215.384 109.758 216.87 109.758 216.87s10.255.0 10.255.0S122.786 215.384 112.049 213.224C98.815 211.938 86.486 208.155 83.024 206.393V133.699C93.347 130.941 101.067 121.522 101.067 110.417V96.525C100.959 91.064 106.805 84.575 114.091 78.604c0 0 21.779-14.931 24.685-16.65 16.128-9.589 15.455-19.36 15.316-20.448z" id="path-4" class="cls-6" fill-rule="evenodd"/><path d="M81.087 130.602C80.798 130.602 80.505 130.567 80.214 130.493c-12.494-3.101-21.218-14.155-21.218-26.882V89.78C59.072 85.995 54.515 76.977 23.154 58.298l3.599-6.271s-1.85 3.106-1.85 3.106 1.95-3.046 1.95-3.046C45.318 63.084 66.48 77.316 66.225 89.853v13.758C66.225 113.008 72.694 121.178 81.954 123.478 83.892 123.958 85.073 125.919 84.593 127.856 84.183 129.502 82.709 130.602 81.087 130.602z" id="path-5" class="cls-7" fill-rule="evenodd"/><path d="M152.025 12.94s1.072 19.652 1.072 19.652S161.981 15.054 161.981 15.054C158.856 13.859 155.502 13.108 152.025 12.94z" id="path-6" class="cls-4" fill-rule="evenodd"/><path d="M175.551 24.903C173.391 22.253 170.849 19.971 167.985 18.118L159.101 35.64s16.45-10.737 16.45-10.737z" id="path-7" class="cls-4" fill-rule="evenodd"/><path d="M135.621 16.493s10.736 16.468 10.736 16.468-1.071-19.653-1.071-19.653C141.839 13.859 138.608 14.962 135.621 16.493z" id="path-8" class="cls-4" fill-rule="evenodd"/><path d="M123.199 27.767s17.522 8.884 17.522 8.884-10.737-16.466-10.737-16.466C127.335 22.345 125.053 24.903 123.199 27.767z" id="path-9" class="cls-4" fill-rule="evenodd"/><path d="M138.838 75.617C141.962 76.812 145.316 77.562 148.793 77.731l-1.072-19.652S138.838 75.617 138.838 75.617z" id="path-10" class="cls-4" fill-rule="evenodd"/><path d="M182.428 40.22C181.877 36.774 180.774 33.527 179.242 30.555L162.793 41.292s19.635-1.072 19.635-1.072z" id="path-11" class="cls-4" fill-rule="evenodd"/><path d="M170.834 70.471C173.484 68.311 175.765 65.768 177.619 62.904l-17.523-8.883s10.738 16.45 10.738 16.45z" id="path-12" class="cls-4" fill-rule="evenodd"/><path d="M180.682 56.9C181.877 53.775 182.627 50.42 182.796 46.944l-19.651 1.072S180.682 56.9 180.682 56.9z" id="path-13" class="cls-4" fill-rule="evenodd"/><path d="M155.533 77.349C158.978 76.797 162.226 75.694 165.197 74.163L154.46 57.697S155.533 77.349 155.533 77.349z" id="path-14" class="cls-4" fill-rule="evenodd"/></g></svg>