<svg xmlns="http://www.w3.org/2000/svg" xmlns:xlink="http://www.w3.org/1999/xlink" preserveAspectRatio="xMidYMid" width="217" height="181" viewBox="0 0 217 181"><defs><style>.cls-3{fill:#0cb04a}.cls-5{fill:#ff3a2f}.cls-6{fill:#020403;opacity:.25}.cls-7{fill:#142a3b}.cls-8{fill:#020403;opacity:.35}.cls-9{fill:#fff}</style></defs><g id="group-7svg"><path d="M146.77 16.732s0-16.728.0-16.728S26 .004 26 .004s0 16.728.0 16.728 120.77.0 120.77.0z" id="path-1" class="cls-3" fill-rule="evenodd"/><path d="M146.756 32.359c15.484 15.647 25.868 37.552 25.868 61.818.0 47.541-38.879 86.081-86.419 86.081-47.539.0-86.194-38.54-86.194-86.081.0-24.266 10.491-46.171 25.975-61.818h120.77z" id="path-2" class="cls-3" fill-rule="evenodd"/><path d="M172.624 94.177c0 47.541-38.879 86.081-86.419 86.081-47.539.0-86.194-38.54-86.194-86.081H172.624z" id="path-3" class="cls-5" fill-rule="evenodd"/><path d="M146.756 32.359s-14.24.0-14.24.0c11.237 14.642 18.421 33.053 18.421 53.143.0 47.541-38.879 86.08-86.419 86.08-7.237.0-14.23-.990999999999985-20.95-2.673 12.588 7.184 27.12 11.349 42.637 11.349 47.54.0 86.419-38.54 86.419-86.081.0-24.266-10.384-46.171-25.868-61.818z" id="path-4" class="cls-6" fill-rule="evenodd"/><path d="M165.35 14.364S7.419 13.939 7.419 13.939s0 20.129.0 20.129S162.177 34.409 162.177 34.409c19.098.0 34.579 15.824 34.579 34.921L196.646 128.169C196.646 133.585 201.036 137.976 206.452 137.976S216.258 133.585 216.258 128.169L216.885 67.783c0-28.812-22.934-52.54-51.535-53.419z" id="path-5" class="cls-7" fill-rule="evenodd"/><path d="M17.667 41.856S162.269 53.462 162.269 53.462C158.456 46.329 153.717 39.83 148.313 34.082H24.429c-3.515 3.736-3.876 3.426-6.762 7.774z" id="path-6" class="cls-8" fill-rule="evenodd"/><path d="M42.13 153.414C41.107 153.414 40.089 152.982 39.374 152.139c-13.73-16.167-21.29-36.752-21.29-57.961.0-14.59 3.736-29.262 10.803-42.432C29.833 49.987 32.018 49.327 33.782 50.271 35.54 51.215 36.2 53.407 35.258 55.166c-6.507 12.122-9.945 25.611-9.945 39.012.0 19.496 6.95 38.419 19.57 53.282C46.176 148.982 45.991 151.263 44.469 152.555 43.79 153.132 42.959 153.414 42.13 153.414z" id="path-7" class="cls-9" fill-rule="evenodd"/></g></svg>