<svg xmlns="http://www.w3.org/2000/svg" xmlns:xlink="http://www.w3.org/1999/xlink" preserveAspectRatio="xMidYMid" width="218" height="202" viewBox="0 0 218 202"><defs><style>.cls-3{fill:#ff3a2f}.cls-4{fill:#020403;opacity:.35}</style></defs><g id="group-106svg"><path d="M200.918 15.955C179.622-5.341 144.977-5.342 123.681 15.952c-19.202 19.204-20.922 49.162-5.502 70.494L64.163 140.462s-10.121-10.123-10.121-10.123-12.251 12.252-12.251 12.252 10.122 10.121 10.122 10.121-13.279 13.279-13.279 13.279-26.368-26.368-26.368-26.368-12.25 12.25-12.25 12.25 26.367 26.37 26.367 26.37-10.745 10.744-10.745 10.744S27.89 201.239 27.89 201.239 130.429 98.696 130.429 98.696c21.332 15.422 51.288 13.698 70.49-5.503C222.213 71.896 222.212 37.25 200.918 15.955zM141.629 75.244c-11.517-11.517-11.517-30.189.0-41.706 11.518-11.517 30.188-11.516 41.705.0 11.517 11.517 11.517 30.189.0 41.706-11.517 11.518-30.187 11.517-41.705.0z" id="path-1" class="cls-3" fill-rule="evenodd"/><path d="M138.92 71.926C130.315 60.379 131.145 44.023 141.629 33.536c10.484-10.483 26.841-11.312 38.388-2.706C179.17 29.692 178.34 28.545 177.308 27.511c-11.517-11.516-30.189-11.516-41.705.0-11.517 11.517-11.517 30.189.0 41.706C136.635 70.249 137.783 71.08 138.92 71.926z" id="path-2" class="cls-4" fill-rule="evenodd"/><path d="M52.964 151.575s-10.121-10.121-10.121-10.121S45.398 138.899 45.398 138.899 55.521 149.02 55.521 149.02 52.964 151.575 52.964 151.575z" id="path-3" class="cls-4" fill-rule="evenodd"/><path d="M35.723 169.882S8.816 143.08 8.816 143.08 11.284 140.444 11.284 140.444 12.184 141.236 12.184 141.236s26.095 26.09 26.095 26.09S35.723 169.882 35.723 169.882z" id="path-4" class="cls-4" fill-rule="evenodd"/><path d="M200.918 15.955C199.902 14.939 198.827 14.014 197.752 13.094 216.092 34.528 215.17 66.886 194.892 87.165 175.69 106.367 145.734 108.092 124.403 92.669L21.865 195.211S27.89 201.239 27.89 201.239 130.429 98.696 130.429 98.696c21.332 15.422 51.288 13.698 70.49-5.505C222.213 71.896 222.212 37.248 200.918 15.955z" id="path-5" class="cls-4" fill-rule="evenodd"/></g></svg>