<svg xmlns="http://www.w3.org/2000/svg" xmlns:xlink="http://www.w3.org/1999/xlink" preserveAspectRatio="xMidYMid" width="216" height="214" viewBox="0 0 216 214"><defs><style>.cls-3{fill:#0cb04a}.cls-4{fill:#000;opacity:.35}.cls-5{fill:#ff3a2f}.cls-7{fill:#142a3b}.cls-16{fill:#000}.cls-17{fill:#fbb713}.cls-18{fill:#000;opacity:.2}</style></defs><g id="group-104svg"><path d="M101.378-.003s-73.721.0-73.721.0.0 72.154.0 72.154 64.506.0 64.506.0.0 113.177.0 113.177-92.151.0-92.151.0.0 27.799.0 27.799 101.366.0 101.366.0 110.582.0 110.582.0.0-199.23.0-199.23c0-7.672-6.202-13.9-13.824-13.9H101.378z" id="path-1" class="cls-3" fill-rule="evenodd"/><path d="M92.163 65.315s-64.506.0-64.506.0.0 6.836.0 6.836 64.506.0 64.506.0.0-6.836.0-6.836z" id="path-2" class="cls-4" fill-rule="evenodd"/><path d="M211.96 111.195s-46.076.0-46.076.0.0 101.932.0 101.932 46.076.0 46.076.0.0-101.932.0-101.932z" id="path-3" class="cls-5" fill-rule="evenodd"/><path d="M198.137-.003S189.467-.003 189.467-.003C190.695 2.074 191.448 4.471 191.448 7.06V189.187C191.448 198.633 183.791 206.29 174.344 206.29H80.867s-80.855.0-80.855.0S.012 213.127.012 213.127s101.365.0 101.365.0 110.583.0 110.583.0.0-199.23.0-199.23C211.96 6.225 205.759-.003 198.137-.003z" id="path-4" class="cls-4" fill-rule="evenodd"/><path d="M211.96 49.923s-55.292.0-55.292.0C154.684 49.923 153.076 48.315 153.076 46.33c0-1.983 1.608-3.591 3.59200000000001-3.591H211.96C213.944 42.739 215.552 44.347 215.552 46.33c0 1.985-1.608 3.593-3.59199999999998 3.593z" id="path-5" class="cls-7" fill-rule="evenodd"/><path d="M211.96 68.455s-55.292.0-55.292.0C154.684 68.455 153.076 66.847 153.076 64.864c0-1.984 1.608-3.593 3.59200000000001-3.593H211.96C213.944 61.271 215.552 62.88 215.552 64.864 215.552 66.847 213.944 68.455 211.96 68.455z" id="path-6" class="cls-7" fill-rule="evenodd"/><path d="M211.96 86.989s-55.292.0-55.292.0C154.684 86.989 153.076 85.379 153.076 83.397c0-1.985 1.608-3.592 3.59200000000001-3.592H211.96C213.944 79.805 215.552 81.412 215.552 83.397c0 1.982-1.608 3.592-3.59199999999998 3.592z" id="path-7" class="cls-7" fill-rule="evenodd"/><path d="M36.872 103.769s-12.704.0-12.704.0c-1.984.0-3.593-1.608-3.593-3.592C20.575 98.193 22.184 96.585 24.168 96.585H36.872C38.856 96.585 40.464 98.193 40.464 100.177c0 1.98399999999999-1.608 3.592-3.592 3.592z" id="path-8" class="cls-7" fill-rule="evenodd"/><path d="M64.518 94.502C62.534 94.502 60.926 92.894 60.926 90.911V72.151C60.926 70.167 62.534 68.559 64.518 68.559 66.502 68.559 68.11 70.167 68.11 72.151v18.76C68.11 92.894 66.502 94.502 64.518 94.502z" id="path-9" class="cls-7" fill-rule="evenodd"/><path d="M46.086 94.502C44.103 94.502 42.494 92.894 42.494 90.911V72.151C42.494 70.167 44.103 68.559 46.086 68.559c1.985.0 3.592 1.608 3.592 3.592v18.76C49.678 92.894 48.071 94.502 46.086 94.502z" id="path-10" class="cls-7" fill-rule="evenodd"/><path d="M55.303 122.305C53.318 122.305 51.71 120.696 51.71 118.712V109.446c0-1.985 1.608-3.593 3.593-3.593C57.286 105.853 58.895 107.461 58.895 109.446V118.712C58.895 120.696 57.286 122.305 55.303 122.305z" id="path-11" class="cls-7" fill-rule="evenodd"/><path d="M73.733 109.445s-36.861.0-36.861.0.0-18.534.0-18.534 36.861.0 36.861.0.0 18.534.0 18.534z" id="path-12" class="cls-5" fill-rule="evenodd"/><path d="M73.733 32.43C73.733 40.104 67.532 46.33 59.91 46.33c-7.644.0-13.823-6.226-13.823-13.9.0-7.673 6.179-13.899 13.823-13.899 7.622.0 13.823 6.226 13.823 13.899z" id="path-13" class="cls-5" fill-rule="evenodd"/><path d="M71.18 24.43c1.595 2.266 2.553 5.016 2.553 8C73.733 40.104 67.532 46.329 59.91 46.329 56.988 46.329 54.29 45.41 52.06 43.859c2.501 3.553 6.601 5.889 11.269 5.889C70.951 49.748 77.151 43.523 77.151 35.848 77.151 31.113 74.78 26.94 71.18 24.43z" id="path-14" class="cls-16" fill-rule="evenodd"/><path d="M46.696 184.381c20.769.0 37.604-16.835 37.604-37.603H9.094c0 20.768 16.835 37.603 37.602 37.603z" id="path-15" class="cls-17" fill-rule="evenodd"/><path d="M67.208 146.778c0 17.823-12.414 32.715-29.058 36.59C40.9 184.007 43.752 184.382 46.697 184.382c20.768.0 37.603-16.836 37.603-37.604H67.208z" id="path-16" class="cls-18" fill-rule="evenodd"/></g></svg>