<svg xmlns="http://www.w3.org/2000/svg" xmlns:xlink="http://www.w3.org/1999/xlink" preserveAspectRatio="xMidYMid" width="205" height="216" viewBox="0 0 205 216"><defs><style>.cls-3{fill:#142a3b}.cls-4{fill:#000;opacity:.35}.cls-6{fill:#fbb713}.cls-7{fill:#000;opacity:.25}.cls-11{fill:#fff}.cls-19{fill:#ff3a2f}</style></defs><g id="group-87svg"><path d="M-.007.01s0 49.393.0 49.393 135.385.0 135.385.0 3.209 36.191 3.209 36.191-33.362 84.07-33.362 84.07-105.232.0-105.232.0.0 36.508.0 36.508 204.021.0 204.021.0.0-206.162.0-206.162S-.007.01-.007.01z" id="path-1" class="cls-3" fill-rule="evenodd"/><path d="M-.007.01s0 7.029.0 7.029 196.993.0 196.993.0.0 199.133.0 199.133S204.014 206.172 204.014 206.172s0-206.162.0-206.162S-.007.01-.007.01z" id="path-2" class="cls-4" fill-rule="evenodd"/><path d="M101.789 176.693S105.225 169.664 105.225 169.664s-105.232.0-105.232.0S-.007 176.693-.007 176.693s101.796.0 101.796.0z" id="path-3" class="cls-4" fill-rule="evenodd"/><path d="M57.489 169.029c29.329.0 53.104-23.773 53.104-53.101H4.387c0 29.328 23.775 53.101 53.102 53.101z" id="path-4" class="cls-6" fill-rule="evenodd"/><path d="M100.049 115.928c0 27.547-20.978 50.187-47.831 52.834C53.953 168.933 55.71 169.029 57.489 169.029c29.329.0 53.104-23.773 53.104-53.101H100.049z" id="path-5" class="cls-7" fill-rule="evenodd"/><path d="M89.118 71.463s-67.942.0-67.942.0.0-22.06.0-22.06 67.942.0 67.942.0.0 22.06.0 22.06z" id="path-6" class="cls-3" fill-rule="evenodd"/><path d="M21.176 49.403s0 3.515.0 3.515 67.941 3.514 67.941 3.514.0-7.029.0-7.029-67.941.0-67.941.0z" id="path-7" class="cls-4" fill-rule="evenodd"/><path d="M59.833 100.749s-9.372.0-9.372.0.0-29.286.0-29.286 9.372.0 9.372.0.0 29.286.0 29.286z" id="path-8" class="cls-3" fill-rule="evenodd"/><path d="M191.031 65.607s-36.412.0-36.412.0.0-26.941.0-26.941 36.412.0 36.412.0.0 26.941.0 26.941z" id="path-9" class="cls-11" fill-rule="evenodd"/><path d="M158.134 42.179s32.897.0 32.897.0S191.031 38.666 191.031 38.666s-36.412.0-36.412.0.0 26.942.0 26.942S158.134 65.608 158.134 65.608s0-23.429.0-23.429z" id="path-10" class="cls-4" fill-rule="evenodd"/><path d="M170.189 139.088c-6.15600000000001.0-11.178 4.63-11.908 10.59H152.374S152.374 152.605 152.374 152.605 158.281 152.605 158.281 152.605C159.011 158.565 164.033 163.197 170.189 163.197c6.65800000000002.0 12.056-5.398 12.056-12.055.0-6.65799999999999-5.398-12.054-12.056-12.054z" id="path-11" class="cls-4" fill-rule="evenodd"/><path d="M166.675 135.572C160.518 135.572 155.497 140.204 154.767 146.163H148.86s0 2.929.0 2.929S154.767 149.092 154.767 149.092C155.497 155.051 160.518 159.683 166.675 159.683 173.333 159.683 178.731 154.286 178.731 147.627c0-6.65700000000001-5.398-12.055-12.056-12.055z" id="path-12" class="cls-11" fill-rule="evenodd"/><path d="M161.648 81.421s-7.029.0-7.029.0.0-7.614.0-7.614 7.029.0 7.029.0.0 7.614.0 7.614z" id="path-13" class="cls-11" fill-rule="evenodd"/><path d="M191.031 81.421s-7.029.0-7.029.0.0-7.614.0-7.614 7.029.0 7.029.0.0 7.614.0 7.614z" id="path-14" class="cls-11" fill-rule="evenodd"/><path d="M191.031 106.019s-7.029.0-7.029.0.0-7.614.0-7.614 7.029.0 7.029.0.0 7.614.0 7.614z" id="path-15" class="cls-11" fill-rule="evenodd"/><path d="M161.648 106.019s-7.029.0-7.029.0.0-7.614.0-7.614 7.029.0 7.029.0.0 7.614.0 7.614z" id="path-16" class="cls-11" fill-rule="evenodd"/><path d="M57.49 215.543s-38.657.0-38.657.0S18.833 206.172 18.833 206.172s38.657.0 38.657.0S57.49 215.543 57.49 215.543z" id="path-17" class="cls-19" fill-rule="evenodd"/><path d="M198.059 215.543s-38.657.0-38.657.0S159.402 206.172 159.402 206.172s38.657.0 38.657.0S198.059 215.543 198.059 215.543z" id="path-18" class="cls-19" fill-rule="evenodd"/><path d="M57.489 206.172s-38.656.0-38.656.0.0 4.685.0 4.685 38.656.0 38.656.0.0-4.685.0-4.685z" id="path-19" class="cls-4" fill-rule="evenodd"/><path d="M159.402 206.172s0 4.685.0 4.685 38.657.0 38.657.0.0-4.685.0-4.685-38.657.0-38.657.0z" id="path-20" class="cls-4" fill-rule="evenodd"/></g></svg>