<svg xmlns="http://www.w3.org/2000/svg" xmlns:xlink="http://www.w3.org/1999/xlink" preserveAspectRatio="xMidYMid" width="132" height="218" viewBox="0 0 132 218"><defs><style>.cls-3{fill:#142a3b}.cls-4{fill:#020403;opacity:.35}.cls-6{fill:#ff3a2f}.cls-7{fill:#fff}.cls-8{fill:#fbb713}.cls-14{fill:#020403;opacity:.25}</style></defs><g id="group-80svg"><path d="M81.022 69.804s-31.114.0-31.114.0.0-15.881.0-15.881 31.114.0 31.114.0.0 15.881.0 15.881z" id="path-1" class="cls-3" fill-rule="evenodd"/><path d="M49.908 53.923s0 3.805.0 3.805 31.114 7.609 31.114 7.609.0-11.414.0-11.414-31.114.0-31.114.0z" id="path-2" class="cls-4" fill-rule="evenodd"/><path d="M81.022 206.78s-31.114.0-31.114.0.0-15.881.0-15.881 31.114.0 31.114.0.0 15.881.0 15.881z" id="path-3" class="cls-3" fill-rule="evenodd"/><path d="M130.943 130.567c0 36.163-29.315 65.479-65.478 65.479-36.162.0-65.478-29.316-65.478-65.479.0-36.163 29.316-65.479 65.478-65.479 36.163.0 65.478 29.316 65.478 65.479z" id="path-4" class="cls-6" fill-rule="evenodd"/><path d="M89.587 187.815C88.222 187.815 86.917 187.039 86.306 185.718 85.466 183.906 86.255 181.759 88.067 180.919 103.982 173.551 115.312 158.834 118.379 141.551 118.73 139.587 120.6 138.274 122.57 138.624 124.534 138.973 125.846 140.849 125.498 142.815 122.017 162.421 109.162 179.119 91.103 187.48 90.612 187.708 90.095 187.815 89.587 187.815z" id="path-5" class="cls-7" fill-rule="evenodd"/><path d="M114.798 130.567c0 27.246-22.088 49.333-49.333 49.333-27.246.0-49.333-22.087-49.333-49.333.0-27.246 22.087-49.334 49.333-49.334 27.245.0 49.333 22.088 49.333 49.334z" id="path-6" class="cls-8" fill-rule="evenodd"/><path d="M73.074 176.095c-27.245.0-49.331-22.088-49.331-49.333.0-17.83 9.489-33.402 23.661-42.07C29.103 91.905 16.132 109.703 16.132 130.567c0 27.246 22.087 49.333 49.333 49.333C74.882 179.9 83.651 177.214 91.136 172.636 85.537 174.843 79.457 176.095 73.074 176.095z" id="path-7" class="cls-4" fill-rule="evenodd"/><path d="M75.083 138.201c0 5.31200000000001-4.306 9.618-9.618 9.618C60.153 147.819 55.846 143.513 55.846 138.201 55.846 132.888 60.153 128.581 65.465 128.581 70.777 128.581 75.083 132.888 75.083 138.201z" id="path-8" class="cls-4" fill-rule="evenodd"/><path d="M102.947 141.839s-37.267.0-37.267.0.0-41.288.0-41.288C65.68 98.555 67.298 96.936 69.294 96.936 71.29 96.936 72.909 98.555 72.909 100.551v34.058s30.038.0 30.038.0c1.997.0 3.615 1.618 3.615 3.614C106.562 140.22 104.944 141.839 102.947 141.839z" id="path-9" class="cls-4" fill-rule="evenodd"/><path d="M75.083 134.371C75.083 139.684 70.777 143.991 65.465 143.991 60.153 143.991 55.846 139.684 55.846 134.371 55.846 129.059 60.153 124.753 65.465 124.753c5.312.0 9.618 4.306 9.618 9.61800000000001z" id="path-10" class="cls-6" fill-rule="evenodd"/><path d="M31.023 30.611S65.465.015 65.465.015 99.908 30.611 99.908 30.611s-68.885.0-68.885.0z" id="path-11" class="cls-8" fill-rule="evenodd"/><path d="M65.465.015s-5.468 4.856-5.468 4.856S84.688 26.806 84.688 26.806s-49.383.0-49.383.0-4.283 3.805-4.283 3.805 68.886.0 68.886.0S65.465.015 65.465.015z" id="path-12" class="cls-14" fill-rule="evenodd"/><path d="M20.53 30.337c8.232 16.482 25.258 27.806 44.935 27.806 19.677.0 36.703-11.324 44.935-27.806H20.53z" id="path-13" class="cls-6" fill-rule="evenodd"/><path d="M49.908 50.384C49.488 50.384 49.061 50.31 48.644 50.155c-5.949-2.22-11.306-5.94-15.489-10.758C31.847 37.889 32.009 35.607 33.516 34.297 35.024 32.989 37.307 33.15 38.616 34.657 42.008 38.566 46.35 41.583 51.172 43.38 53.042 44.079 53.992 46.161 53.295 48.032 52.753 49.486 51.373 50.384 49.908 50.384z" id="path-14" class="cls-7" fill-rule="evenodd"/><path d="M95.18 30.337C88.032 44.651 74.246 55.064 57.855 57.558 60.338 57.936 62.876 58.143 65.465 58.143c19.677.0 36.704-11.324 44.935-27.806H95.18z" id="path-15" class="cls-4" fill-rule="evenodd"/><path d="M98.204 209.718S98.204 199.851 98.204 199.851s-65.478.0-65.478.0S32.726 209.718 32.726 209.718s-20.181.0-20.181.0S12.545 216.894 12.545 216.894s105.84.0 105.84.0S118.385 209.718 118.385 209.718s-20.181.0-20.181.0z" id="path-16" class="cls-3" fill-rule="evenodd"/><path d="M98.204 209.718S98.204 199.851 98.204 199.851s-65.478.0-65.478.0S32.726 203.656 32.726 203.656s57.868.0 57.868.0S90.594 213.523 90.594 213.523s20.182.0 20.182.0S110.776 216.894 110.776 216.894 118.385 216.894 118.385 216.894 118.385 209.718 118.385 209.718s-20.181.0-20.181.0z" id="path-17" class="cls-4" fill-rule="evenodd"/><path d="M106.776 138.011s-44.925.0-44.925.0.0-41.288.0-41.288c0-1.996 1.619-3.615 3.615-3.615C67.462 93.108 69.081 94.727 69.081 96.723v34.059s37.695.0 37.695.0C108.772 130.782 110.39 132.4 110.39 134.396 110.39 136.392 108.772 138.011 106.776 138.011z" id="path-18" class="cls-6" fill-rule="evenodd"/></g></svg>