<svg xmlns="http://www.w3.org/2000/svg" xmlns:xlink="http://www.w3.org/1999/xlink" preserveAspectRatio="xMidYMid" width="180" height="217" viewBox="0 0 180 217"><defs><style>.cls-3{fill:#fbb713}.cls-4{fill:#000;opacity:.25}.cls-5{fill:#142a3b}.cls-11{fill:#ededed}</style></defs><g id="group-69svg"><path d="M135.654 217.332c24.419.0 44.214-19.795 44.214-44.213H91.441c0 24.418 19.795 44.213 44.213 44.213z" id="path-1" class="cls-3" fill-rule="evenodd"/><path d="M164.192 173.119c0 21.738-15.702 39.773-36.375 43.477C130.364 217.053 132.975 217.332 135.654 217.332c24.419.0 44.214-19.795 44.214-44.213H164.192z" id="path-2" class="cls-4" fill-rule="evenodd"/><path d="M102.494 175.33s-11.053.0-11.053.0.0-165.795.0-165.795 11.053.0 11.053.0.0 165.795.0 165.795z" id="path-3" class="cls-5" fill-rule="evenodd"/><path d="M84.634 27.648s-7.568-7.568-7.568-7.568C76.35 19.365 76.35 18.204 77.066 17.488L94.014.542C94.73-.174 95.89-.174 96.606.542L104.174 8.11C104.89 8.825 104.89 9.986 104.174 10.703L87.227 27.648C86.511 28.364 85.35 28.364 84.634 27.648z" id="path-4" class="cls-5" fill-rule="evenodd"/><path d="M35.09 128.477s-12.873.0-12.873.0.0-48.214.0-48.214 12.873.0 12.873.0.0 48.214.0 48.214z" id="path-5" class="cls-5" fill-rule="evenodd"/><path d="M19.267 124.885s0 79.743.0 79.743c0 5.185 4.203 9.387 9.387 9.387 5.185.0 9.387-4.202 9.387-9.387V124.885s-18.774.0-18.774.0z" id="path-6" class="cls-5" fill-rule="evenodd"/><path d="M.006 1.798s0 40.817.0 40.817c0 27.734 10.95 50.22 24.458 50.22h8.38c13.509.0 24.459-22.486 24.459-50.22V1.798s-57.297.0-57.297.0z" id="path-7" class="cls-3" fill-rule="evenodd"/><path d="M49.465 1.798s0 36.897.0 36.897c0 27.735-10.95 50.221-24.458 50.221h-8.38C16.003 88.916 15.39 88.819 14.778 88.724 17.749 91.36 21.022 92.835 24.464 92.835h8.38c13.508.0 24.459-22.486 24.459-50.221V1.798S49.465 1.798 49.465 1.798z" id="path-8" class="cls-4" fill-rule="evenodd"/><path d="M11.616 54.312c-1.984.0-3.593-1.607-3.593-3.592V14.095c0-1.984 1.609-3.592 3.593-3.592s3.592 1.608 3.592 3.592V50.72c0 1.985-1.608 3.592-3.592 3.592z" id="path-9" class="cls-11" fill-rule="evenodd"/></g></svg>