<svg xmlns="http://www.w3.org/2000/svg" xmlns:xlink="http://www.w3.org/1999/xlink" preserveAspectRatio="xMidYMid" width="216" height="159" viewBox="0 0 216 159"><defs><style>.cls-3{fill:#142a3b}.cls-4{fill:#ededed}.cls-5{fill:#000;opacity:.35}.cls-7{fill:#fbb713}</style></defs><g id="group-98svg"><path d="M9.384 141.046s0-125.924.0-125.924C9.384 6.775 15.681.01 23.442.01H192.125c7.761.0 14.057 6.765 14.057 15.112V141.046s0 0 0 0" id="path-1" class="cls-3" fill-rule="evenodd"/><path d="M187.439 112.463s-79.656.0-79.656.0-79.656.0-79.656.0.0-93.71.0-93.71 159.312.0 159.312.0.0 93.71.0 93.71z" id="path-2" class="cls-4" fill-rule="evenodd"/><path d="M34.863 25.488s152.576.0 152.576.0.0-6.735.0-6.735-159.312.0-159.312.0.0 93.71.0 93.71 6.736.0 6.736.0.0-86.975.0-86.975z" id="path-3" class="cls-5" fill-rule="evenodd"/><path d="M206.182 127.836s-78.338.0-78.338.0.0 9.372.0 9.372-46.857.0-46.857.0.0-9.372.0-9.372-71.603.0-71.603.0.0 13.21.0 13.21 196.798.0 196.798.0.0-13.21.0-13.21z" id="path-4" class="cls-5" fill-rule="evenodd"/><path d="M131.212 131.204S131.212 140.576 131.212 140.576s-46.857.0-46.857.0S84.355 131.204 84.355 131.204s-84.342.0-84.342.0.0 18.742.0 18.742C.013 155.121 4.214 159.317 9.384 159.317H206.182C211.362 159.317 215.553 155.121 215.553 149.946V131.204s-84.341.0-84.341.0z" id="path-5" class="cls-7" fill-rule="evenodd"/><path d="M208.818 131.204s0 12.008.0 12.008C208.818 148.386 204.626 152.583 199.446 152.583H2.649C1.846 152.583 1.08 152.45.336 152.26 1.371 156.308 5.016 159.317 9.384 159.317H206.182C211.362 159.317 215.553 155.121 215.553 149.947V131.204S208.818 131.204 208.818 131.204z" id="path-6" class="cls-5" fill-rule="evenodd"/></g></svg>