<svg xmlns="http://www.w3.org/2000/svg" xmlns:xlink="http://www.w3.org/1999/xlink" preserveAspectRatio="xMidYMid" width="216" height="145" viewBox="0 0 216 145"><defs><style>.cls-3{fill:#142a3b}.cls-5{fill:#010101;opacity:.35}.cls-6{fill:#fff}</style></defs><g id="group-72svg"><path d="M133.107 19.365s-111.315.0-111.315.0S.17 8.669.17 8.669s0-6.521.0-6.521 214.622.0 214.622.0.0 8.608.0 8.608-81.685 8.609-81.685 8.609z" id="path-1" class="cls-3" fill-rule="evenodd"/><path d="M133.107 18.964s-111.315.0-111.315.0S.17 29.659.17 29.659s0 6.522.0 6.522 214.622.0 214.622.0.0-8.609.0-8.609-81.685-8.608-81.685-8.608z" id="path-2" class="cls-3" fill-rule="evenodd"/><path d="M133.107 18.964s-111.315.0-111.315.0S.17 29.659.17 29.659s0 6.522.0 6.522 214.622.0 214.622.0.0-8.609.0-8.609-81.685-8.608-81.685-8.608z" id="path-3" class="cls-5" fill-rule="evenodd"/><path d="M58.43 20.666c0 3.814-3.092 6.906-6.908 6.906-3.814.0-6.907-3.092-6.907-6.906.0-3.815 3.093-6.908 6.907-6.908 3.816.0 6.908 3.093 6.908 6.908z" id="path-4" class="cls-6" fill-rule="evenodd"/><path d="M124.698 16.962C120.947 17.657 138.913 10.756 140.014 20.666 140.435 24.457 136.922 27.572 133.107 27.572c0 0-29.106-16.758-38.041-24.343C94.399 2.664 94.389 1.65 95.022 1.046L95.686.414C96.177-.055 96.925-.127 97.497.238l32.007 20.428s4.078 2.774 4.905 2.602C135.878 22.96 136.31 14.809 124.698 16.962z" id="path-5" class="cls-6" fill-rule="evenodd"/><path d="M79.252 20.666C79.252 22.711 77.593 24.368 75.547 24.368 73.502 24.368 71.843 22.711 71.843 20.666 71.843 18.62 73.502 16.962 75.547 16.962 77.593 16.962 79.252 18.62 79.252 20.666z" id="path-6" class="cls-6" fill-rule="evenodd"/><path d="M132.432 90.155S25.6 121.429 25.6 121.429 1.844 117.237 1.844 117.237.011 110.979.011 110.979 205.989 50.683 205.989 50.683 208.407 58.946 208.407 58.946s-75.975 31.209-75.975 31.209z" id="path-7" class="cls-3" fill-rule="evenodd"/><path d="M132.319 89.771S25.488 121.044 25.488 121.044 7.741 137.383 7.741 137.383 9.574 143.643 9.574 143.643 215.551 83.346 215.551 83.346 213.132 75.084 213.132 75.084s-80.813 14.687-80.813 14.687z" id="path-8" class="cls-3" fill-rule="evenodd"/><path d="M132.319 89.771S25.488 121.044 25.488 121.044 7.741 137.383 7.741 137.383 9.574 143.643 9.574 143.643 215.551 83.346 215.551 83.346 213.132 75.084 213.132 75.084s-80.813 14.687-80.813 14.687z" id="path-9" class="cls-5" fill-rule="evenodd"/><path d="M61.128 112.384C62.199 116.046 60.1 119.882 56.44 120.954 52.778 122.025 48.942 119.926 47.87 116.265 46.798 112.604 48.897 108.767 52.558 107.695 56.219 106.624 60.056 108.724 61.128 112.384z" id="path-10" class="cls-6" fill-rule="evenodd"/><path d="M123.687 90.211C120.282 91.933 135.585 80.262 139.426 89.463 140.896 92.984 138.399 96.961 134.738 98.032c0 0-32.643-7.90599999999999-43.348-12.674C90.591 85.001 90.296 84.032 90.734 83.274L91.194 82.481C91.534 81.893 92.23 81.614 92.883 81.804l36.456 10.613S134.034 93.934 134.777 93.536C136.102 92.829 134.227 84.884 123.687 90.211z" id="path-11" class="cls-6" fill-rule="evenodd"/><path d="M81.111 106.534C81.685 108.497 80.56 110.555 78.597 111.129 76.634 111.704 74.577 110.578 74.001 108.615 73.427 106.653 74.553 104.595 76.516 104.021 78.479 103.446 80.536 104.571 81.111 106.534z" id="path-12" class="cls-6" fill-rule="evenodd"/></g></svg>