<svg xmlns="http://www.w3.org/2000/svg" xmlns:xlink="http://www.w3.org/1999/xlink" preserveAspectRatio="xMidYMid" width="182" height="216" viewBox="0 0 182 216"><defs><style>.cls-3{fill:#ededed}.cls-4{fill:#020403;opacity:.15}.cls-5{fill:#142a3b}.cls-6{fill:#2476ff}.cls-7{fill:#f4faff}.cls-8{fill:#020403;opacity:.35}.cls-11{fill:#ff3a2f}</style></defs><g id="group-81svg"><path d="M-.004 202.966s0 10.053.0 10.053C-.004 214.94 3.44 212.979 5.362 212.979H179.244C181.166 212.979 180.985 214.94 180.985 213.019V4.359C180.985 2.435 181.166-.016 179.244-.016H5.362C3.44-.016-.004 2.435-.004 4.359V202.966z" id="path-1" class="cls-3" fill-rule="evenodd"/><path d="M177.556.099s-23.183.0-23.183.0.0 164.652.0 164.652c0 15.157-12.285 27.443-27.441 27.443H1.485s0 10.772.0 10.772.0 10.053.0 10.053c0 1.489 1.208 2.696 2.698 2.696H179.118c1.489.0 2.697-1.20699999999999 2.697-2.696V4.358C181.815 2.016 179.898.099 177.556.099z" id="path-2" class="cls-4" fill-rule="evenodd"/><path d="M169.987 53.983s-155.426.0-155.426.0c-1.996.0-3.615-1.503-3.615-3.499.0-1.997 1.619-3.5 3.615-3.5H169.987c1.99600000000001.0 3.614 1.503 3.614 3.5.0 1.996-1.618 3.499-3.614 3.499z" id="path-3" class="cls-5" fill-rule="evenodd"/><path d="M138.817 96.426C146.693 106.66 151.688 119.313 151.688 133.231c0 32.611-26.436 59.05-59.049 59.05-32.612.0-59.048-26.439-59.048-59.05.0-32.61 26.436-59.05 59.048-59.05C100.185 74.181 107.402 75.597 114.032 78.179c0 0 12.87 2.76599999999999 24.785 18.247z" id="path-4" class="cls-6" fill-rule="evenodd"/><path d="M107.095 179.13C105.757 179.13 104.471 178.382 103.845 177.1 102.969 175.304 103.716 173.141 105.51 172.266 116.264 167.024 124.333 157.907 128.23 146.595 132.127 135.285 131.386 123.133 126.144 112.378 125.269 110.584 126.015 108.42 127.81 107.546 129.601 106.668 131.767 107.417 132.643 109.21 138.732 121.7 139.591 135.814 135.066 148.95 130.539 162.089 121.167 172.676 108.677 178.765 108.167 179.012 107.628 179.13 107.095 179.13z" id="path-5" class="cls-7" fill-rule="evenodd"/><path d="M49.272 133.231c0-29.946 22.314-54.629 51.212-58.471C97.911 74.417 95.306 74.181 92.639 74.181c-32.612.0-59.048 26.439-59.048 59.05.0 32.611 26.436 59.05 59.048 59.05C95.305 192.281 97.908 192.044 100.479 191.701 71.583 187.857 49.272 163.177 49.272 133.231z" id="path-6" class="cls-8" fill-rule="evenodd"/><path d="M120.823 137.151c0 10.68 9.51200000000002 19.64 25.01 22.243C149.582 152.523 151.688 145.025 151.688 137.151 151.688 129.261 149.477 121.8 145.689 114.933 130.276 117.565 120.823 126.5 120.823 137.151z" id="path-7" class="cls-8" fill-rule="evenodd"/><path d="M132.583 133.231c0 10.681 7.096 19.639 18.657 22.241 2.797-6.868 4.368-14.367 4.368-22.241C155.608 125.341 153.958 117.88 151.133 111.013c-11.498 2.631-18.55 11.567-18.55 22.218z" id="path-8" class="cls-3" fill-rule="evenodd"/><path d="M28.994 32.984s-13.999.0-13.999.0.0-7.999.0-7.999 13.999.0 13.999.0.0 7.999.0 7.999z" id="path-9" class="cls-11" fill-rule="evenodd"/><path d="M50.993 32.984s-10.999.0-10.999.0.0-7.999.0-7.999 10.999.0 10.999.0.0 7.999.0 7.999z" id="path-10" class="cls-11" fill-rule="evenodd"/></g></svg>