<svg xmlns="http://www.w3.org/2000/svg" xmlns:xlink="http://www.w3.org/1999/xlink" preserveAspectRatio="xMidYMid" width="98" height="217" viewBox="0 0 98 217"><defs><style>.cls-3{fill:#ff3a2f}.cls-4{fill:#020403;opacity:.35}.cls-5{fill:#142a3b}.cls-7{fill:#fbb713}.cls-10{fill:#ededed}.cls-13{fill:#fff}</style></defs><g id="group-34svg"><path d="M79.187 187.518s-60.582.0-60.582.0S29.611 26.097 29.611 26.097s38.571.0 38.571.0S79.187 187.518 79.187 187.518z" id="path-1" class="cls-3" fill-rule="evenodd"/><path d="M52.408 33.983S62.877 187.517 62.877 187.517s16.31.0 16.31.0S68.182 26.097 68.182 26.097s-38.571.0-38.571.0-.538 7.886-.538 7.886 23.335.0 23.335.0z" id="path-2" class="cls-4" fill-rule="evenodd"/><path d="M97.802 216.867s-97.812.0-97.812.0.0-29.349.0-29.349 97.812.0 97.812.0.0 29.349.0 29.349z" id="path-3" class="cls-5" fill-rule="evenodd"/><path d="M64.284 187.517s0 29.35.0 29.35 33.518.0 33.518.0.0-29.35.0-29.35-33.518.0-33.518.0z" id="path-4" class="cls-4" fill-rule="evenodd"/><path d="M73.069 26.097C73.115 25.486 73.162 24.876 73.162 24.254c0-13.401-10.864-24.266-24.266-24.266S24.631 10.853 24.631 24.254c0 .622.0470000000000006 1.232.093 1.843H73.069z" id="path-5" class="cls-7" fill-rule="evenodd"/><path d="M48.896-.012c-2.765.0-5.41.485-7.886 1.336 9.524 3.277 16.379 12.294 16.379 22.929C57.389 24.876 57.342 25.486 57.296 26.097H73.069C73.115 25.486 73.162 24.876 73.162 24.253c0-13.4-10.864-24.265-24.266-24.265z" id="path-6" class="cls-4" fill-rule="evenodd"/><path d="M87.416 77.404s-77.039.0-77.039.0.0-7.229.0-7.229 77.039.0 77.039.0.0 7.229.0 7.229z" id="path-7" class="cls-5" fill-rule="evenodd"/><path d="M60.165 73.789s-22.537.0-22.537.0 2.418-14.515 2.418-14.515C40.767 54.948 44.511 51.777 48.896 51.777c4.386.0 8.128 3.171 8.85 7.497l2.419 14.515z" id="path-8" class="cls-10" fill-rule="evenodd"/><path d="M73.159 129.779C72.564 129.779 71.96 129.632 71.405 129.321L22.873 102.298C21.127 101.326 20.5 99.126 21.473 97.382 22.444 95.637 24.648 95.011 26.388 95.982L74.92 123.005C76.666 123.977 77.292 126.177 76.32 127.922 75.66 129.109 74.428 129.779 73.159 129.779z" id="path-9" class="cls-10" fill-rule="evenodd"/><path d="M73.159 169.211C72.564 169.211 71.96 169.064 71.405 168.754L22.873 141.73C21.127 140.759 20.5 138.558 21.473 136.813 22.444 135.07 24.648 134.442 26.388 135.414L74.92 162.438C76.666 163.409 77.292 165.61 76.32 167.355 75.66 168.542 74.428 169.211 73.159 169.211z" id="path-10" class="cls-10" fill-rule="evenodd"/><path d="M44.45 10.072C44.45 11.524 43.273 12.701 41.821 12.701c-1.451.0-2.628-1.177-2.628-2.629s1.177-2.629 2.628-2.629C43.273 7.443 44.45 8.62 44.45 10.072z" id="path-11" class="cls-13" fill-rule="evenodd"/><path d="M38.686 17.958c0 2.624-2.127 4.752-4.751 4.752-2.623.0-4.751-2.128-4.751-4.752.0-2.624 2.128-4.75 4.751-4.75 2.624.0 4.751 2.126 4.751 4.75z" id="path-12" class="cls-13" fill-rule="evenodd"/></g></svg>