<svg xmlns="http://www.w3.org/2000/svg" xmlns:xlink="http://www.w3.org/1999/xlink" preserveAspectRatio="xMidYMid" width="216" height="193" viewBox="0 0 216 193"><defs><style>.cls-3{fill:#ededed}.cls-4{fill:#000;opacity:.35}.cls-6{fill:#2476ff}</style></defs><g id="group-139svg"><path d="M178.611 183.171s-84.664.0-84.664.0c-8.45.0-20.552-10.733-20.552-18.231V90.194C73.395 88.538 74.29 87.007 75.742 86.192 92.63 76.748 101.176 59.988 110.091 34.282V9.655C110.091 8.821 110.315 8.008 110.745 7.289c2.786-4.641 7.499-7.3 12.928-7.3 6.684.0 13.457 3.887 18.59 10.67C151.492 22.861 153.776 42.041 148.758 63.91h38.65C196.002 63.91 215.541 72.761 215.541 87.328 215.541 92.139 214.976 99.459 211.921 103.733 214.331 110.46 214.788 121.354 207.406 129.033 208.015 141.988 204.745 151.403 197.874 156.553 197.757 163.407 194.594 171.794 189.855 177.223 186.459 181.111 182.571 183.171 178.611 183.171z" id="path-1" class="cls-3" fill-rule="evenodd"/><path d="M211.921 103.733C214.976 99.459 215.541 92.139 215.541 87.33 215.541 79.687 210.156 73.641 203.804 69.597 203.917 70.363 203.999 71.139 203.999 71.939 203.999 76.751 203.434 84.071 200.379 88.344 202.79 95.072 203.246 105.966 195.864 113.644 196.473 126.598 193.203 136.015 186.332 141.166 186.215 148.019 183.052 156.404 178.313 161.834 174.917 165.723 171.029 167.783 167.069 167.783H82.404C79.61 167.783 76.419 166.593 73.395 164.75V164.94C73.395 172.438 85.497 183.171 93.947 183.171h84.664C182.571 183.171 186.459 181.111 189.855 177.223 194.594 171.794 197.757 163.407 197.874 156.553 204.745 151.403 208.015 141.988 207.406 129.033 214.788 121.354 214.331 110.46 211.921 103.733z" id="path-2" class="cls-4" fill-rule="evenodd"/><path d="M134.56 63.91s13.893.0 13.893.0C150.989 51.593 156.147 35.242 142.263 10.659 140.642 7.788 138.034 5.849 135.653 4.148 140.529 15.925 138.496 46.755 134.56 63.91z" id="path-3" class="cls-4" fill-rule="evenodd"/><path d="M66.478 192.345s-50.387.0-50.387.0C7.221 192.345.0 185.133.0 176.265V79.991C0 71.121 7.221 63.91 16.091 63.91H66.478C75.348 63.91 82.569 71.121 82.569 79.991v96.274c0 8.86800000000002-7.221 16.08-16.091 16.08z" id="path-4" class="cls-6" fill-rule="evenodd"/><path d="M68.723 64.137c1.429 2.401 2.304 5.169 2.304 8.16v96.272C71.027 177.44 63.806 184.65 54.936 184.65H4.549C3.78 184.65 3.044 184.528 2.304 184.423c2.808 4.72 7.908 7.922 13.787 7.922H66.478C75.347 192.345 82.569 185.133 82.569 176.265V79.991C82.569 71.891 76.525 65.241 68.723 64.137z" id="path-5" class="cls-4" fill-rule="evenodd"/></g></svg>