<svg xmlns="http://www.w3.org/2000/svg" xmlns:xlink="http://www.w3.org/1999/xlink" preserveAspectRatio="xMidYMid" width="216" height="157" viewBox="0 0 216 157"><defs><style>.cls-3{fill:#ff3a2f}.cls-6{fill:#0cb04a}</style></defs><g id="group-153svg"><circle id="circle-1" class="cls-3" cx="17" cy="17" r="17"/><path d="M16.049 60.091c-8.866.0-16.054 7.186-16.054 16.053.0 8.865 7.188 16.053 16.054 16.053s16.054-7.188 16.054-16.053c0-8.867-7.188-16.053-16.054-16.053z" id="path-1" class="cls-3" fill-rule="evenodd"/><path d="M16.049 124.302c-8.866.0-16.054 7.187-16.054 16.054C-.005 149.221 7.183 156.409 16.049 156.409S32.103 149.221 32.103 140.356C32.103 131.489 24.915 124.302 16.049 124.302z" id="path-2" class="cls-3" fill-rule="evenodd"/><path d="M204.321 23.235s-135.092.0-135.092.0c-3.967.0-7.184-3.215-7.184-7.183s3.217-7.185 7.184-7.185H204.321c3.96799999999999.0 7.184 3.217 7.184 7.185S208.289 23.235 204.321 23.235z" id="path-3" class="cls-6" fill-rule="evenodd"/><path d="M204.321 83.327s-135.092.0-135.092.0C65.262 83.327 62.045 80.112 62.045 76.144c0-3.968 3.217-7.185 7.184-7.185H204.321c3.96799999999999.0 7.184 3.217 7.184 7.185C211.505 80.112 208.289 83.327 204.321 83.327z" id="path-4" class="cls-6" fill-rule="evenodd"/><path d="M208.35 147.538s-135.089.0-135.089.0C69.293 147.538 66.076 144.321 66.076 140.355 66.076 136.387 69.293 133.171 73.261 133.171H208.35C212.317 133.171 215.534 136.387 215.534 140.355 215.534 144.321 212.317 147.538 208.35 147.538z" id="path-5" class="cls-6" fill-rule="evenodd"/></g></svg>