<svg xmlns="http://www.w3.org/2000/svg" xmlns:xlink="http://www.w3.org/1999/xlink" preserveAspectRatio="xMidYMid" width="218" height="218" viewBox="0 0 218 218"><defs><style>.cls-3{fill:#2476ff}.cls-4{fill:#fff}.cls-5{fill:#020403;opacity:.25}.cls-6{fill:#142a3b}.cls-7{fill:#020403;opacity:.35}</style></defs><g id="group-162svg"><path d="M216.884 108.45c0 59.89-48.55 108.439-108.437 108.439C48.558 216.889.009 168.34.009 108.45S48.558.01 108.447.01c59.887.0 108.437 48.55 108.437 108.44z" id="path-1" class="cls-3" fill-rule="evenodd"/><path d="M24.985 100.944C21.99 100.944 19.564 98.517 19.564 95.522c0-44.097 35.875-79.974 79.972-79.974C102.53 15.548 104.957 17.975 104.957 20.97 104.957 23.964 102.53 26.392 99.536 26.392c-38.117.0-69.129 31.012-69.129 69.13C30.407 98.517 27.98 100.944 24.985 100.944z" id="path-2" class="cls-4" fill-rule="evenodd"/><path d="M148.221 7.573c22.4 19.865 36.533 48.845 36.533 81.139.0 59.89-48.549 108.441-108.437 108.441C62.27 197.153 48.862 194.453 36.542 189.59c19.14 16.973 44.31 27.3 71.905 27.3 59.888.0 108.437-48.551 108.437-108.44.0-45.843-28.46-85.012-68.663-100.877z" id="path-3" class="cls-5" fill-rule="evenodd"/><path d="M136.56 84.352c0-15.527-12.587-28.114-28.113-28.114-15.527.0-28.114 12.587-28.114 28.114.0 11.376 6.77 21.15 16.488 25.576l-8.456 50.734s40.163.0 40.163.0S120.072 109.928 120.072 109.928C129.79 105.502 136.56 95.728 136.56 84.352z" id="path-4" class="cls-6" fill-rule="evenodd"/><path d="M136.56 84.352c0-15.528-12.587-28.114-28.113-28.114C106.376 56.238 104.365 56.475 102.422 56.901c12.628 2.76 22.089 13.995 22.089 27.451.0 11.376-6.76899999999999 21.15-16.488 25.576l8.456 50.734s12.049.0 12.049.0S120.072 109.928 120.072 109.928C129.79 105.502 136.56 95.728 136.56 84.352z" id="path-5" class="cls-7" fill-rule="evenodd"/></g></svg>