<svg xmlns="http://www.w3.org/2000/svg" xmlns:xlink="http://www.w3.org/1999/xlink" preserveAspectRatio="xMidYMid" width="163" height="216" viewBox="0 0 163 216"><defs><style>.cls-3{fill:#142a3b}.cls-4{fill:#ff3a2f}.cls-5{fill:#060606;opacity:.35}.cls-6{fill:#062635}.cls-8{fill:#ededed}</style></defs><g id="group-12svg"><path d="M143.582 88.435c-3.96799999999999.0-7.185-3.217-7.185-7.184V69.467c0-30.383-24.757-55.101-55.186-55.101-30.432.0-55.188 24.718-55.188 55.101V81.251c0 3.967-3.218 7.184-7.186 7.184-3.967.0-7.184-3.217-7.184-7.184V69.467c0-38.306 31.203-69.469 69.558-69.469 38.352.0 69.555 31.163 69.555 69.469V81.251c0 3.967-3.21699999999998 7.184-7.184 7.184z" id="path-1" class="cls-3" fill-rule="evenodd"/><path d="M162.413 215.531s-162.406.0-162.406.0.0-142.614.0-142.614 162.406.0 162.406.0.0 142.614.0 142.614z" id="path-2" class="cls-4" fill-rule="evenodd"/><path d="M137.756 72.917s0 142.614.0 142.614 24.657.0 24.657.0.0-142.614.0-142.614-24.657.0-24.657.0z" id="path-3" class="cls-5" fill-rule="evenodd"/><path d="M99.508 124.135C99.508 114.043 91.316 105.862 81.21 105.862 71.104 105.862 62.911 114.043 62.911 124.135 62.911 129.517 65.256 134.34 68.963 137.684l-6.398 44.387s37.29.0 37.29.0S92.514 138.486 92.514 138.486C96.767 135.139 99.508 129.962 99.508 124.135z" id="path-4" class="cls-6" fill-rule="evenodd"/><path d="M92.514 138.487C96.768 135.139 99.508 129.962 99.508 124.135 99.508 114.043 91.316 105.862 81.21 105.862 79.21 105.862 77.321 106.262 75.52 106.855c7.301 2.399 12.608 9.185 12.608 17.28C88.128 129.962 85.387 135.139 81.133 138.487l7.342 43.583s11.38.0 11.38.0S92.514 138.487 92.514 138.487z" id="path-5" class="cls-5" fill-rule="evenodd"/><path d="M15.559 190.912C13.576 190.912 11.967 189.303 11.967 187.319V109.755C11.967 107.771 13.576 106.162 15.559 106.162 17.544 106.162 19.152 107.771 19.152 109.755v77.564C19.152 189.303 17.544 190.912 15.559 190.912z" id="path-6" class="cls-8" fill-rule="evenodd"/></g></svg>