<svg xmlns="http://www.w3.org/2000/svg" xmlns:xlink="http://www.w3.org/1999/xlink" preserveAspectRatio="xMidYMid" width="110" height="216" viewBox="0 0 110 216"><defs><style>.cls-3{fill:#142a3b}.cls-4{fill:#000;opacity:.25}.cls-5{fill:#fbb713}.cls-7{fill:#ededed}</style></defs><g id="group-52svg"><path d="M76.976 6.34C76.976 2.837 74.516.0 71.476.0H38.481c-3.04.0-5.499 2.837-5.499 6.34V38.037s43.994.0 43.994.0.0-31.697.0-31.697z" id="path-1" class="cls-3" fill-rule="evenodd"/><path d="M71.476.0S54.233.0 54.233.0C57.273.0 59.733 2.837 59.733 6.339V38.036s17.243.0 17.243.0.0-31.697.0-31.697C76.976 2.837 74.516.0 71.476.0z" id="path-2" class="cls-4" fill-rule="evenodd"/><path d="M104.471 38.033s-27.495.0-27.495.0-43.994.0-43.994.0-27.496.0-27.496.0c-3.04.0-5.499 2.841-5.499 6.338V209.194c0 3.51000000000002 2.459 6.34 5.499 6.34h98.985C107.511 215.534 109.97 212.704 109.97 209.194V44.371c0-3.497-2.459-6.338-5.499-6.338z" id="path-3" class="cls-5" fill-rule="evenodd"/><path d="M104.471 38.033s-25.864.0-25.864.0c3.039.0 5.499 2.841 5.499 6.338V209.194C84.106 212.704 81.646 215.534 78.607 215.534h25.864C107.511 215.534 109.97 212.704 109.97 209.194V44.371c0-3.497-2.459-6.338-5.499-6.338z" id="path-4" class="cls-4" fill-rule="evenodd"/><path d="M22.005 187.497c-1.984.0-3.592-1.608-3.592-3.59200000000001V79.516c0-1.985 1.608-3.593 3.592-3.593 1.984.0 3.593 1.608 3.593 3.593V183.905C25.598 185.889 23.989 187.497 22.005 187.497z" id="path-5" class="cls-7" fill-rule="evenodd"/></g></svg>