<svg xmlns="http://www.w3.org/2000/svg" xmlns:xlink="http://www.w3.org/1999/xlink" preserveAspectRatio="xMidYMid" width="217" height="218" viewBox="0 0 217 218"><defs><style>.cls-3{fill:#ededed}.cls-5{fill:#ff3a2f}.cls-6{fill:#020403;opacity:.25}.cls-8{fill:#020403;opacity:.35}</style></defs><g id="group-97svg"><path d="M101.19 54.707S74.099 27.614 74.099 27.614 101.703.009 101.703.009s27.092 27.092 27.092 27.092S101.19 54.707 101.19 54.707z" id="path-1" class="cls-3" fill-rule="evenodd"/><path d="M189.239 142.756s-27.092-27.091-27.092-27.091 27.605-27.606 27.605-27.606 27.091 27.093 27.091 27.093-27.604 27.604-27.604 27.604z" id="path-2" class="cls-3" fill-rule="evenodd"/><path d="M162.147 115.665s-43.511 43.514-43.511 43.514c-16.837 16.833-44.126 16.833-60.96.0-16.832-16.835-16.832-44.124.0-60.961L101.19 54.706S74.098 27.613 74.098 27.613 23.811 77.898 23.811 77.898c-31.789 31.799-31.789 83.353.0 115.145 31.801 31.797 83.352 31.798 115.142.0l50.287-50.285s-27.093-27.093-27.093-27.093z" id="path-3" class="cls-5" fill-rule="evenodd"/><path d="M116.822 15.128S96.401 35.549 96.401 35.549s-22.302-7.935-22.302-7.935S101.19 54.706 101.19 54.706s27.605-27.605 27.605-27.605-11.973-11.973-11.973-11.973z" id="path-4" class="cls-6" fill-rule="evenodd"/><path d="M204.87 103.179s-20.421 20.419-20.421 20.419S162.147 115.665 162.147 115.665s27.092 27.091 27.092 27.091 27.604-27.604 27.604-27.604-11.973-11.973-11.973-11.973z" id="path-5" class="cls-6" fill-rule="evenodd"/><path d="M52.887 79.061c-13.61 13.614-16.204 34.058-7.804 50.287C44.915 118.1 49.095 106.802 57.676 98.218L101.19 54.706S89.217 42.732 89.217 42.732s-36.33 36.329-36.33 36.329z" id="path-6" class="cls-8" fill-rule="evenodd"/><path d="M177.267 130.785s-43.104 43.1-43.104 43.1c-31.789 31.799-83.34 31.799-115.141.0C10.726 165.59 4.65 155.932.684 145.647c2.17 17.326 9.827 34.094 23.127 47.396 31.801 31.797 83.352 31.798 115.142.0l50.287-50.285s-11.973-11.973-11.973-11.973z" id="path-7" class="cls-8" fill-rule="evenodd"/></g></svg>