<svg xmlns="http://www.w3.org/2000/svg" xmlns:xlink="http://www.w3.org/1999/xlink" preserveAspectRatio="xMidYMid" width="177" height="217" viewBox="0 0 177 217"><defs><style>.cls-3{fill:#2476ff}.cls-4{fill:#1c5ac1}.cls-5{fill:#ededed}</style></defs><g id="group-165svg"><path d="M23.369 148.305S23.369 148.313 23.369 148.313 24.817 149.844 24.817 149.844C25.18 150.229 25.526 150.613 25.903 150.991H25.919s62.565 65.903 62.565 65.903 62.535-65.903 62.535-65.903.0.0.0.0C151.094 150.916 151.171 150.833 151.246 150.757L152.362 149.572S153.555 148.313 153.555 148.313 153.555 148.305 153.555 148.305 153.599 148.252 153.599 148.252c15.045-16.395 23.331-37.622 23.331-59.767C176.93 39.704 137.241.014 88.469.014 39.68.014-.007 39.704-.007 88.485c0 22.13 8.285 43.357 23.329 59.767L23.369 148.305z" id="path-1" class="cls-3" fill-rule="evenodd"/><circle id="circle-1" class="cls-4" cx="102" cy="97" r="47"/><path d="M88.469 134.58c25.473.0 46.132-20.652 46.132-46.133.0-25.474-20.659-46.132-46.132-46.132-25.489.0-46.148 20.658-46.148 46.132.0 25.481 20.659 46.133 46.148 46.133z" id="path-2" class="cls-5" fill-rule="evenodd"/></g></svg>