<svg xmlns="http://www.w3.org/2000/svg" xmlns:xlink="http://www.w3.org/1999/xlink" preserveAspectRatio="xMidYMid" width="216" height="216" viewBox="0 0 216 216"><defs><style>.cls-3{fill:#0cb04a}.cls-5{fill:#000;opacity:.35}</style></defs><g id="group-148svg"><path d="M74.965.015S-.006 18.758-.006 18.758s0 178.048.0 178.048 74.971-18.742 74.971-18.742 65.599 37.484 65.599 37.484 74.97-18.742 74.97-18.742.0-178.048.0-178.048-74.97 18.741-74.97 18.741S74.965.015 74.965.015s0 0 0 0z" id="path-1" class="cls-3" fill-rule="evenodd"/><path d="M140.564 215.548s0-178.049.0-178.049S74.965.015 74.965.015s0 178.049.0 178.049 65.599 37.484 65.599 37.484z" id="path-2" class="cls-3" fill-rule="evenodd"/><path d="M140.564 215.548s0-178.049.0-178.049S74.965.015 74.965.015s0 178.049.0 178.049 65.599 37.484 65.599 37.484z" id="path-3" class="cls-5" fill-rule="evenodd"/></g></svg>