<svg xmlns="http://www.w3.org/2000/svg" xmlns:xlink="http://www.w3.org/1999/xlink" preserveAspectRatio="xMidYMid" width="217" height="176" viewBox="0 0 217 176"><defs><style>.cls-3{fill:#ff3a2f}.cls-4{fill:#020403;opacity:.35}.cls-5{fill:#142a3b}.cls-6{fill:#ffe56d}</style></defs><g id="group-74svg"><path d="M216.883 175.469s-207.37.0-207.37.0.0-132.783.0-132.783 207.37.0 207.37.0.0 132.783.0 132.783z" id="path-1" class="cls-3" fill-rule="evenodd"/><path d="M216.884 163.25s-207.371.0-207.371.0.0 12.219.0 12.219 207.371.0 207.371.0.0-12.219.0-12.219z" id="path-2" class="cls-4" fill-rule="evenodd"/><path d="M177.491 150.245s-128.585.0-128.585.0.0-82.335.0-82.335 128.585.0 128.585.0.0 82.335.0 82.335z" id="path-3" class="cls-5" fill-rule="evenodd"/><path d="M98.844 127.406S83.632 120.744 98.844 95.916c0 0 1.438 9.688 4.38800000000001 12.111.0.0 4.47199999999999-12.111 10.07-12.111C113.302 95.916 117.215 97.127 113.818 86.227c0 0 4.508 2.422 6.309 11.506C120.127 97.733 121.355 100.76 120.127 106.817 120.127 106.817 128.176 103.182 128.08 92.888c0 0 14.026 18.167.0 34.518C118.948 133.391 109.212 133.479 98.844 127.406z" id="path-4" class="cls-6" fill-rule="evenodd"/><path d="M104.565 132.319s-9.149-4.005.0-18.939C104.565 113.38 105.43 119.207 107.205 120.664 107.205 120.664 109.894 113.38 113.26 113.38 113.26 113.38 115.613 114.108 113.57 107.552c0 0 2.712 1.458 3.795 6.92099999999999.0.0.739000000000004 1.821.0 5.462.0.0 4.84100000000001-2.184 4.783-8.377C122.148 111.558 130.584 122.486 122.149 132.319 116.656 135.918 110.8 135.972 104.565 132.319z" id="path-5" class="cls-3" fill-rule="evenodd"/><path d="M216.883 17.984s-167.977.0-167.977.0.0-8.422.0-8.422 167.977.0 167.977.0.0 8.422.0 8.422z" id="path-6" class="cls-5" fill-rule="evenodd"/><path d="M51.515 6.608C41.64 3.264 30.381.009 23.951.009 10.729.009.009 6.172.009 13.774c0 7.6 10.72 13.762 23.942 13.762 6.43.0 17.689-3.254 27.564-6.598V6.608z" id="path-7" class="cls-3" fill-rule="evenodd"/><path d="M1.077 9.701C.384 10.987.009 12.355.009 13.774c0 7.6 10.72 13.762 23.942 13.762 6.43.0 17.689-3.254 27.564-6.598V12.792c-9.875 3.344-21.134 6.599-27.564 6.599-10.755.0-19.854-4.078-22.874-9.69z" id="path-8" class="cls-4" fill-rule="evenodd"/></g></svg>