<svg xmlns="http://www.w3.org/2000/svg" xmlns:xlink="http://www.w3.org/1999/xlink" preserveAspectRatio="xMidYMid" width="216" height="102" viewBox="0 0 216 102"><defs><style>.cls-3{fill:#ff3a2f}.cls-5{fill:#000;opacity:.35}.cls-6{fill:#fbb713}</style></defs><g id="group-109svg"><path d="M1.291 29.215S-18.946 79.019 101.359 78.651C221.665 78.291 220.932 36.485 212.094 29.215 203.27 21.944 199.225 18.307 159.123 19.033c-33.503-1.277-49.5-13.696-73.428-17.377C57.326-2.713 13.055.053 1.291 29.215z" id="path-1" class="cls-3" fill-rule="evenodd"/><path d="M.015 39.723s0 20.624.0 20.624c.043 14.051 11.518 41.746 101.348 41.476C197.462 101.533 216.317 74.801 215.521 60.347V39.723s0 0 0 0" id="path-2" class="cls-3" fill-rule="evenodd"/><path d="M215.521 39.723s0 20.624.0 20.624C216.317 74.801 197.462 101.533 101.363 101.823 11.533 102.093.058 74.398.015 60.347V39.723s5.456 51.342 149.2 31.051c0 0 62.12-5.182 66.306-31.051z" id="path-3" class="cls-5" fill-rule="evenodd"/><path d="M68.368 34.14C68.368 40.362 59.801 45.414 49.24 45.414c-10.567.0-19.132-5.052-19.132-11.274S38.673 22.872 49.24 22.872c10.561.0 19.128 5.046 19.128 11.268z" id="path-4" class="cls-6" fill-rule="evenodd"/></g></svg>