<svg xmlns="http://www.w3.org/2000/svg" xmlns:xlink="http://www.w3.org/1999/xlink" preserveAspectRatio="xMidYMid" width="138" height="217" viewBox="0 0 138 217"><defs><style>.cls-3{fill:#ff3a2f}.cls-5{fill:#010101;opacity:.35}.cls-7{fill:#fbb713}.cls-8{fill:#010101;opacity:.25}.cls-9{fill:#ededed}</style></defs><g id="group-123svg"><path d="M58.592 108.243S-.007 197.754-.007 197.754 27.656 193.568 27.656 193.568s12.4 23.32 12.4 23.32S69.355 112.845 69.355 112.845s-10.763-4.602-10.763-4.602z" id="path-1" class="cls-3" fill-rule="evenodd"/><path d="M78.922 108.243s58.598 89.511 58.598 89.511S109.858 193.568 109.858 193.568s-12.4 23.32-12.4 23.32S68.159 112.845 68.159 112.845s10.763-4.602 10.763-4.602z" id="path-2" class="cls-3" fill-rule="evenodd"/><path d="M46.384 126.89S60.63 143.827 60.63 143.827s7.331-26.035 7.331-26.035-15.621.0-15.621.0-5.956 9.098-5.956 9.098z" id="path-3" class="cls-5" fill-rule="evenodd"/><path d="M73.819 132.945s28.398 10.882 28.398 10.882-17.044-26.035-17.044-26.035-15.621.0-15.621.0 4.267 15.153 4.267 15.153z" id="path-4" class="cls-5" fill-rule="evenodd"/><path d="M130.489 61.442c0 33.928-27.503 61.431-61.43 61.431-33.928.0-61.431-27.503-61.431-61.431C7.628 27.512 35.131.009 69.059.009c33.927.0 61.43 27.503 61.43 61.433z" id="path-5" class="cls-7" fill-rule="evenodd"/><path d="M85.596 2.326c18.248 10.651 30.543 30.389 30.543 53.042.0 33.928-27.504 61.43-61.431 61.43-5.739.0-11.27-.844999999999999-16.539-2.315C47.251 119.785 57.783 122.874 69.059 122.874c33.927.0 61.43-27.504 61.43-61.434.0-28.187-19.01-51.884-44.893-59.114z" id="path-6" class="cls-8" fill-rule="evenodd"/><path d="M82.513 93.499S72.963 88.607 72.963 88.607C70.728 87.462 68.074 87.49 65.863 88.683L56.42 93.777c-5.566 3.002-12.157-1.681-11.155-7.925l1.7-10.594C47.364 72.778 46.516 70.262 44.7 68.529L36.937 61.122C32.363 56.755 34.779 49.04 41.026 48.063L51.627 46.407C54.108 46.02 56.24 44.437 57.327 42.173l4.645-9.672C64.711 26.801 72.796 26.714 75.655 32.355L80.507 41.926c1.134 2.24 3.298 3.778 5.788 4.112L96.929 47.468C103.196 48.311 105.776 55.973 101.296 60.435l-7.605 7.572C91.913 69.778 91.119 72.312 91.57 74.782l1.926 10.556C94.632 91.558 88.141 96.381 82.513 93.499z" id="path-7" class="cls-9" fill-rule="evenodd"/></g></svg>