<svg xmlns="http://www.w3.org/2000/svg" xmlns:xlink="http://www.w3.org/1999/xlink" preserveAspectRatio="xMidYMid" width="218" height="212" viewBox="0 0 218 212"><defs><style>.cls-3{fill:#142a3b}.cls-4{fill:#020403;opacity:.35}.cls-5{fill:#ff3a2f}.cls-6{fill:#ededed}.cls-8{fill:#020403;opacity:.2}</style></defs><g id="group-167svg"><path d="M79.507 211.818c-15.097.0-27.383-12.284-27.383-27.39V133.899s54.765.0 54.765.0.0 50.529.0 50.529c0 15.106-12.285 27.39-27.382 27.39z" id="path-1" class="cls-3" fill-rule="evenodd"/><path d="M94.181 133.899s0 42.056.0 42.056c0 15.106-12.285 27.392-27.381 27.392C63.95 203.347 61.202 202.906 58.616 202.094 63.643 208.032 71.138 211.818 79.507 211.818c15.097.0 27.382-12.284 27.382-27.39V133.899s-12.708.0-12.708.0z" id="path-2" class="cls-4" fill-rule="evenodd"/><path d="M111.794 148.982s-57.945.0-57.945.0c-29.68.0-53.835-24.158-53.835-53.846.0-14.455 5.641-27.964 15.878-38.047C25.893 46.933 39.4 41.3 53.849 41.3h57.945s0 0 0 0" id="path-3" class="cls-5" fill-rule="evenodd"/><path d="M168.928 148.982s-67.989.0-67.989.0.0-107.682.0-107.682 67.989.0 67.989.0.0 107.682.0 107.682z" id="path-4" class="cls-6" fill-rule="evenodd"/><path d="M90.821 41.3s-10.268 66.478-10.268 66.478C79.151 116.861 71.331 123.565 62.14 123.565H26.076C18.638 123.565 11.613 121.629 5.312 118.271c7.79 18.128 24.376 30.71 43.589 30.71h52.038s0-107.681.0-107.681-10.118.0-10.118.0z" id="path-5" class="cls-4" fill-rule="evenodd"/><path d="M147.749 41.3S144.461 111.724 144.461 111.724C143.931 123.093 134.559 132.037 123.179 132.037h-22.24s0 16.944.0 16.944 67.989.0 67.989.0.0-107.681.0-107.681-21.179.0-21.179.0z" id="path-6" class="cls-8" fill-rule="evenodd"/><path d="M216.888 190.356s-63.042-45.036-63.042-45.036S153.847 41.3 153.847 41.3 216.888.005 216.888.005s0 190.351.0 190.351z" id="path-7" class="cls-6" fill-rule="evenodd"/><path d="M199.944 12.086s0 109.638.0 109.638c0 14.543-16.437 23.002-28.271 14.548l-17.826-12.735s0 21.783.0 21.783 63.041 45.036 63.041 45.036.0-190.351.0-190.351-16.944 12.081-16.944 12.081z" id="path-8" class="cls-8" fill-rule="evenodd"/></g></svg>