<svg xmlns="http://www.w3.org/2000/svg" xmlns:xlink="http://www.w3.org/1999/xlink" preserveAspectRatio="xMidYMid" width="151" height="216" viewBox="0 0 151 216"><defs><style>.cls-3{fill:#142a3b}.cls-6{fill:#2476ff}.cls-7{fill:#000;opacity:.35}</style></defs><g id="group-152svg"><path d="M75.628 177.231c-41.198.0-75.127-33-75.632-73.561l-.005-1.003c0-2.977 2.411-5.389 5.388-5.389C8.356 97.278 10.768 99.69 10.768 102.667L10.773 103.535C11.204 138.229 40.299 166.453 75.628 166.453c37.628.0 64.295-23.148 64.848-56.296C140.483 109.501 140.486 96.7 140.486 96.318 140.486 93.341 142.898 90.93 145.875 90.93 148.851 90.93 151.263 93.341 151.263 96.318 151.263 96.709 151.259 109.938 151.253 110.342 150.606 149.099 118.801 177.231 75.628 177.231z" id="path-1" class="cls-3" fill-rule="evenodd"/><path d="M75.628 210.405C72.651 210.405 70.239 207.992 70.239 205.016V176.008C70.239 173.031 72.651 170.62 75.628 170.62 78.604 170.62 81.016 173.031 81.016 176.008v29.008C81.016 207.992 78.604 210.405 75.628 210.405z" id="path-2" class="cls-3" fill-rule="evenodd"/><path d="M91.885 215.535s-32.516.0-32.516.0C56.393 215.535 53.98 213.123 53.98 210.147 53.98 207.17 56.393 204.758 59.369 204.758H91.885C94.861 204.758 97.273 207.17 97.273 210.147 97.273 213.123 94.861 215.535 91.885 215.535z" id="path-3" class="cls-3" fill-rule="evenodd"/><path d="M119.867 107.932c0 24.035-19.807 43.519-44.24 43.519-24.433.0-44.24-19.484-44.24-43.519V43.52C31.387 19.486 51.194.002 75.627.002c24.433.0 44.24 19.484 44.24 43.518v64.412z" id="path-4" class="cls-6" fill-rule="evenodd"/><path d="M116.657 58.374s-19.744.0-19.744.0C94.929 58.374 93.321 56.766 93.321 54.782c0-1.983 1.608-3.593 3.592-3.593h19.744c1.98400000000001.0 3.593 1.61 3.593 3.593C120.25 56.766 118.641 58.374 116.657 58.374z" id="path-5" class="cls-7" fill-rule="evenodd"/><path d="M116.657 79.319s-19.744.0-19.744.0C94.929 79.319 93.321 77.709 93.321 75.725 93.321 73.743 94.929 72.134 96.913 72.134h19.744C118.641 72.134 120.25 73.743 120.25 75.725 120.25 77.709 118.641 79.319 116.657 79.319z" id="path-6" class="cls-7" fill-rule="evenodd"/><path d="M116.657 99.91s-19.744.0-19.744.0C94.929 99.91 93.321 98.302 93.321 96.318 93.321 94.336 94.929 92.727 96.913 92.727h19.744C118.641 92.727 120.25 94.336 120.25 96.318 120.25 98.302 118.641 99.91 116.657 99.91z" id="path-7" class="cls-7" fill-rule="evenodd"/><path d="M57.054 58.55s-19.744.0-19.744.0c-1.984.0-3.592-1.61-3.592-3.593.0-1.984 1.608-3.593 3.592-3.593H57.054C59.038 51.364 60.646 52.973 60.646 54.957c0 1.983-1.608 3.593-3.592 3.593z" id="path-8" class="cls-7" fill-rule="evenodd"/><path d="M57.054 79.495s-19.744.0-19.744.0c-1.984.0-3.592-1.608-3.592-3.592.0-1.983 1.608-3.592 3.592-3.592H57.054C59.038 72.311 60.646 73.92 60.646 75.903 60.646 77.887 59.038 79.495 57.054 79.495z" id="path-9" class="cls-7" fill-rule="evenodd"/><path d="M57.054 100.087s-19.744.0-19.744.0C35.326 100.087 33.718 98.478 33.718 96.495c0-1.983 1.608-3.592 3.592-3.592H57.054C59.038 92.903 60.646 94.512 60.646 96.495c0 1.98299999999999-1.608 3.592-3.592 3.592z" id="path-10" class="cls-7" fill-rule="evenodd"/></g></svg>