<svg xmlns="http://www.w3.org/2000/svg" xmlns:xlink="http://www.w3.org/1999/xlink" preserveAspectRatio="xMidYMid" width="216" height="153" viewBox="0 0 216 153"><defs><style>.cls-3{fill:#142a3b}.cls-4{fill:#000;opacity:.35}.cls-5{fill:#ff3a2f}.cls-9{fill:#fbb713}.cls-10{fill:#000;opacity:.25}.cls-11{fill:#ededed}</style></defs><g id="group-137svg"><path d="M41.895 136.904s-14.027.0-14.027.0C23.581 136.904 19.87 133.926 18.94 129.742L.084 44.894c-.316-1.449.029-2.965.967-4.133C1.978 39.607 3.385 38.934 4.868 38.934H210.611C212.095 38.934 213.501 39.607 214.43 40.761 215.367 41.929 215.711 43.445 215.395 44.894l-18.856 84.849C195.61 133.927 191.899 136.904 187.613 136.904H179.058s0 0 0 0" id="path-1" class="cls-3" fill-rule="evenodd"/><path d="M214.43 40.761C213.501 39.609 212.095 38.934 210.611 38.934H190.559C188.29 38.934 186.325 40.51 185.833 42.724l-16.23 73.031C168.612 120.213 164.659 123.384 160.093 123.384H152.017s-128.455.0-128.455.0c-3.098.0-5.398 2.868-4.726 5.89200000000001C19.826 133.731 23.78 136.904 28.346 136.904H41.895s137.163.0 137.163.0S187.133 136.904 187.133 136.904C191.7 136.904 195.653 133.731 196.643 129.276l18.752-84.382C215.711 43.445 215.367 41.93 214.43 40.761z" id="path-2" class="cls-4" fill-rule="evenodd"/><circle id="circle-1" class="cls-5" cx="59" cy="132" r="20"/><circle id="circle-2" class="cls-5" cx="157" cy="132" r="20"/><path d="M62.553 112.796C66.673 116.39 69.334 121.614 69.334 127.498 69.334 138.299 60.541 147.091 49.74 147.091 48.44 147.091 47.173 146.952 45.942 146.708c3.445 3.006 7.893 4.892 12.811 4.892C69.555 151.6 78.347 142.807 78.347 132.006c0-9.505-6.806-17.435-15.794-19.21z" id="path-3" class="cls-4" fill-rule="evenodd"/><path d="M160.526 112.796C164.646 116.39 167.307 121.614 167.307 127.498c0 10.801-8.79299999999998 19.593-19.594 19.593C146.413 147.091 145.146 146.952 143.916 146.708 147.361 149.714 151.808 151.6 156.726 151.6 167.528 151.6 176.321 142.807 176.321 132.006c0-9.505-6.80600000000001-17.435-15.795-19.21z" id="path-4" class="cls-4" fill-rule="evenodd"/><path d="M28.774 32.72S105.106.509 105.106.509C106.743-.182 108.737-.182 110.373.509L186.705 32.72C191.553 34.764 189.627 40.333 184.072 40.333H31.408c-5.555.0-7.481-5.569-2.634-7.613z" id="path-5" class="cls-9" fill-rule="evenodd"/><path d="M186.705 32.72S110.373.509 110.373.509C108.737-.182 106.743-.182 105.107.509L98.726 3.201S168.678 32.72 168.678 32.72C173.525 34.764 171.599 40.333 166.045 40.333h18.027C189.627 40.333 191.552 34.764 186.705 32.72z" id="path-6" class="cls-10" fill-rule="evenodd"/><path d="M54.177 34.754C52.77 34.754 51.433 33.921 50.86 32.542 50.097 30.71 50.961 28.608 52.793 27.844L97.344 9.284C99.186 8.516 101.28 9.388 102.042 11.217 102.805 13.048 101.94 15.151 100.109 15.914L55.557 34.474C55.104 34.665 54.636 34.754 54.177 34.754z" id="path-7" class="cls-11" fill-rule="evenodd"/></g></svg>