<svg xmlns="http://www.w3.org/2000/svg" xmlns:xlink="http://www.w3.org/1999/xlink" preserveAspectRatio="xMidYMid" width="216" height="179" viewBox="0 0 216 179"><defs><style>.cls-3{fill:#2476ff}.cls-4{fill:#060606;opacity:.35}.cls-5{fill:#fbb713}.cls-6{fill:#ededed}.cls-7{fill:#060606;opacity:.25}</style></defs><g id="group-33svg"><path d="M137.619 88.651s-17.075-17.075-17.075-17.075S192.128-.005 192.128-.005 199.017 6.883 199.017 6.883s-61.398 81.768-61.398 81.768z" id="path-1" class="cls-3" fill-rule="evenodd"/><path d="M192.128-.005S187.215 4.907 187.215 4.907 189.19 6.883 189.19 6.883s-57.184 76.156-57.184 76.156 5.613 5.612 5.613 5.612S199.017 6.883 199.017 6.883 192.128-.005 192.128-.005z" id="path-2" class="cls-4" fill-rule="evenodd"/><path d="M107.774 168.493c59.519.0 107.77-48.25 107.77-107.766H.004c0 59.516 48.251 107.766 107.77 107.766z" id="path-3" class="cls-5" fill-rule="evenodd"/><path d="M61.675 142.562C61.112 142.562 60.54 142.43 60.007 142.149 38.9 131.052 23.084 112.534 15.471 90.009 14.837 88.13 15.844 86.092 17.724 85.456 19.613 84.815 21.644 85.83 22.277 87.708c7.02 20.771 21.607 37.846 41.073 48.081C65.106 136.714 65.782 138.885 64.859 140.641 64.215 141.863 62.968 142.562 61.675 142.562z" id="path-4" class="cls-6" fill-rule="evenodd"/><path d="M185.598 60.727C180.631 115.636 134.499 158.666 78.294 158.666 71.804 158.666 65.459 158.06 59.285 156.962 73.863 164.322 90.327 168.493 107.774 168.493c59.52.0 107.77-48.25 107.77-107.766H185.598z" id="path-5" class="cls-7" fill-rule="evenodd"/><path d="M156.739 178.553s-97.931.0-97.931.0c-1.556.0-2.817-1.261-2.817-2.81700000000001V161.124C55.991 159.568 57.252 158.306 58.808 158.306h97.931C158.296 158.306 159.558 159.568 159.558 161.124v14.612C159.558 177.292 158.296 178.553 156.739 178.553z" id="path-6" class="cls-5" fill-rule="evenodd"/><path d="M65.172 177.897s84.035.0 84.035.0C154.6 177.897 158.973 173.525 158.973 168.133H55.406C55.406 173.525 59.778 177.897 65.172 177.897z" id="path-7" class="cls-7" fill-rule="evenodd"/></g></svg>