<svg xmlns="http://www.w3.org/2000/svg" xmlns:xlink="http://www.w3.org/1999/xlink" preserveAspectRatio="xMidYMid" width="216" height="183" viewBox="0 0 216 183"><defs><style>.cls-3{fill:#142a3b}.cls-4{fill:#010101;opacity:.35}.cls-7{fill:#fff}.cls-8{fill:#010101;opacity:.25}</style></defs><g id="group-73svg"><path d="M129.782 179.386s-44.006.0-44.006.0.0-27.054.0-27.054 44.006.0 44.006.0.0 27.054.0 27.054z" id="path-1" class="cls-3" fill-rule="evenodd"/><path d="M85.776 152.332S85.776 155.924 85.776 155.924s36.821 7.185 36.821 7.185.0 7.743.0 7.743-36.821 4.941-36.821 4.941S129.782 175.792 129.782 175.792s0-23.46.0-23.46-44.006.0-44.006.0z" id="path-2" class="cls-4" fill-rule="evenodd"/><path d="M215.549 156.26s-215.54.0-215.54.0S.009-.001.009-.001s215.54.0 215.54.0.0 156.261.0 156.261z" id="path-3" class="cls-3" fill-rule="evenodd"/><path d="M208.364-.002s0 149.077.0 149.077-208.355.0-208.355.0.0 7.185.0 7.185 215.54.0 215.54.0.0-156.262.0-156.262-7.185.0-7.185.0z" id="path-4" class="cls-4" fill-rule="evenodd"/><path d="M195.791 137.445s-176.024.0-176.024.0.0-118.631.0-118.631 176.024.0 176.024.0.0 118.631.0 118.631z" id="path-5" class="cls-7" fill-rule="evenodd"/><path d="M26.952 25.997s168.839.0 168.839.0.0-7.183.0-7.183-176.024.0-176.024.0.0 118.631.0 118.631 7.185.0 7.185.0.0-111.448.0-111.448z" id="path-6" class="cls-8" fill-rule="evenodd"/><path d="M151.336 181.855s-87.114.0-87.114.0S64.222 176.466 64.222 176.466s87.114.0 87.114.0S151.336 181.855 151.336 181.855z" id="path-7" class="cls-3" fill-rule="evenodd"/></g></svg>