<svg xmlns="http://www.w3.org/2000/svg" xmlns:xlink="http://www.w3.org/1999/xlink" preserveAspectRatio="xMidYMid" width="138" height="216" viewBox="0 0 138 216"><defs><style>.cls-3{fill:#142a3b}.cls-4{fill:#000;opacity:.35}.cls-5{fill:#ededed}</style></defs><g id="group-50svg"><path d="M83.251 22.917s-9.988.0-9.988.0C72.744 14.345 64.996 10.88 59.756 8.604c-2.79-1.217-6.261-2.731-6.261-4.03.0-2.535-2.051-4.586-4.586-4.586-2.534.0-4.586 2.051-4.586 4.586.0 7.308 6.799 10.274 11.765 12.432 4.904 2.14 7.376 3.573 7.887 5.911H54.301C24.354 22.917-.014 47.279-.014 77.231V77.947s0 68.931.0 68.931c0 37.85 30.795 68.643 68.646 68.643H68.919c37.852.0 68.646-30.793 68.646-68.643V77.947S137.565 77.231 137.565 77.231c0-29.952-24.368-54.314-54.314-54.314z" id="path-1" class="cls-3" fill-rule="evenodd"/><path d="M115.269 33.457C121.863 42.447 125.808 53.494 125.808 65.474V66.19s0 68.931.0 68.931c0 37.85-30.793 68.644-68.645 68.644H56.875c-15.933.0-30.578-5.506-42.241-14.648 12.577 16.04 32.08 26.404 53.998 26.404H68.919c37.852.0 68.646-30.793 68.646-68.643V77.946S137.565 77.231 137.565 77.231c0-17.972-8.81-33.884-22.296-43.774z" id="path-2" class="cls-4" fill-rule="evenodd"/><path d="M86.884 100.874s-36.217.0-36.217.0c-.552.0-1-.447999999999993-1-1V59.837c0-.552000000000007.448-1 1-1H86.884C87.436 58.837 87.884 59.285 87.884 59.837V99.874c0 .552000000000007-.447999999999993 1-1 1z" id="path-3" class="cls-5" fill-rule="evenodd"/><path d="M64.189 93.612S73.361 93.612 73.361 93.612s0-27.514.0-27.514S64.189 66.098 64.189 66.098s0 27.514.0 27.514z" id="path-4" class="cls-3" fill-rule="evenodd"/></g></svg>