<svg xmlns="http://www.w3.org/2000/svg" xmlns:xlink="http://www.w3.org/1999/xlink" preserveAspectRatio="xMidYMid" width="212" height="216" viewBox="0 0 212 216"><defs><style>.cls-3{fill:#0cb04a}.cls-4{fill:#fbb713}.cls-5{fill:#000;opacity:.2}.cls-6{fill:#142a3b}</style></defs><g id="group-146svg"><path d="M15.929 62.455S211.461 31.104 211.461 31.104 207.542 4.089 207.542 4.089C207.542 1.831 205.766-.002 203.57-.002L3.982 35.267C1.788 35.267.009 37.099.009 39.359V101.55C.009 103.811 1.788 105.642 3.982 105.642H203.57C205.766 105.642 207.542 103.811 207.542 101.55V78.252S15.929 78.62 15.929 78.62s0 0 0 0" id="path-1" class="cls-3" fill-rule="evenodd"/><path d="M207.711 101.799s0 109.899.0 109.899C207.711 213.813 205.962 215.532 203.807 215.532H3.908C1.754 215.532.009 213.813.009 211.698V101.887S207.711 101.799 207.711 101.799z" id="path-2" class="cls-4" fill-rule="evenodd"/><path d="M181.846 101.81s0 96.957.0 96.957C181.846 200.882 180.096 202.599 177.942 202.599H.009S.009 211.698.009 211.698C.009 213.813 1.754 215.532 3.908 215.532H203.807C205.962 215.532 207.711 213.813 207.711 211.698V101.799S181.846 101.81 181.846 101.81z" id="path-3" class="cls-5" fill-rule="evenodd"/><path d="M30.706 105.442S24.451 101.909 24.451 101.909 38.157 77.638 38.157 77.638s6.255 3.532 6.255 3.532-13.706 24.272-13.706 24.272z" id="path-4" class="cls-6" fill-rule="evenodd"/><path d="M61.546 105.442S55.29 101.909 55.29 101.909 68.999 77.638 68.999 77.638 75.254 81.17 75.254 81.17s-13.708 24.272-13.708 24.272z" id="path-5" class="cls-6" fill-rule="evenodd"/><path d="M92.387 105.442S86.133 101.909 86.133 101.909 99.84 77.638 99.84 77.638s6.255 3.532 6.255 3.532-13.708 24.272-13.708 24.272z" id="path-6" class="cls-6" fill-rule="evenodd"/><path d="M119.802 105.442S113.547 101.909 113.547 101.909s13.708-24.271 13.708-24.271 6.255 3.532 6.255 3.532-13.708 24.272-13.708 24.272z" id="path-7" class="cls-6" fill-rule="evenodd"/><path d="M147.216 105.442S140.961 101.909 140.961 101.909s13.708-24.271 13.708-24.271 6.255 3.532 6.255 3.532-13.708 24.272-13.708 24.272z" id="path-8" class="cls-6" fill-rule="evenodd"/><path d="M178.058 105.442S171.803 101.909 171.803 101.909s13.708-24.271 13.708-24.271 6.255 3.532 6.255 3.532-13.708 24.272-13.708 24.272z" id="path-9" class="cls-6" fill-rule="evenodd"/><path d="M34.137 58.999s-6.761-2.432-6.761-2.432 9.437-26.229 9.437-26.229 6.761 2.432 6.761 2.432-9.437 26.229-9.437 26.229z" id="path-10" class="cls-6" fill-rule="evenodd"/><path d="M64.537 53.822s-6.761-2.433-6.761-2.433 9.441-26.231 9.441-26.231S73.977 27.593 73.977 27.593s-9.44 26.229-9.44 26.229z" id="path-11" class="cls-6" fill-rule="evenodd"/><path d="M94.943 48.645S88.183 46.214 88.183 46.214 97.62 19.986 97.62 19.986 104.38 22.416 104.38 22.416s-9.437 26.229-9.437 26.229z" id="path-12" class="cls-6" fill-rule="evenodd"/><path d="M121.97 44.046s-6.761-2.43-6.761-2.43 9.438-26.228 9.438-26.228S131.407 17.819 131.407 17.819 121.97 44.046 121.97 44.046z" id="path-13" class="cls-6" fill-rule="evenodd"/><path d="M148.991 39.443S142.231 37.009 142.231 37.009s9.44-26.23 9.44-26.23S158.431 13.214 158.431 13.214s-9.44 26.229-9.44 26.229z" id="path-14" class="cls-6" fill-rule="evenodd"/><path d="M179.398 34.268S172.638 31.838 172.638 31.838 182.075 5.606 182.075 5.606 188.835 8.037 188.835 8.037 179.398 34.268 179.398 34.268z" id="path-15" class="cls-6" fill-rule="evenodd"/><path d="M187.627 144.666s-167.533.0-167.533.0S20.094 137.483 20.094 137.483s167.533.0 167.533.0S187.627 144.666 187.627 144.666z" id="path-16" class="cls-6" fill-rule="evenodd"/><path d="M187.627 183.855s-167.533.0-167.533.0.0-7.185.0-7.185 167.533.0 167.533.0.0 7.185.0 7.185z" id="path-17" class="cls-6" fill-rule="evenodd"/></g></svg>