<svg xmlns="http://www.w3.org/2000/svg" xmlns:xlink="http://www.w3.org/1999/xlink" preserveAspectRatio="xMidYMid" width="216" height="189" viewBox="0 0 216 189"><defs><style>.cls-3{fill:#fbb713}.cls-4{fill:#ededed}.cls-5{fill:#060606;opacity:.25}.cls-7{fill:#060606;opacity:.35}</style></defs><g id="group-70svg"><path d="M150.384 42.614c0-23.53-19.075-42.605-42.605-42.605S65.174 19.084 65.174 42.614C65.174 43.775.357 75.449.357 93.021c0 23.528 48.076 31.422 107.596 31.422 25.505.0 107.596-3.578 107.596-29.003.0-17.571-65.165-51.665-65.165-52.826z" id="path-1" class="cls-3" fill-rule="evenodd"/><path d="M77.38 34.256C76.822 34.256 76.255 34.126 75.727 33.851 73.966 32.937 73.28 30.767 74.196 29.009 80.742 16.411 93.624 8.584 107.813 8.584c1.983.0 3.592 1.609 3.592 3.593S109.796 15.769 107.813 15.769c-11.498.0-21.937 6.343-27.243 16.551C79.931 33.551 78.678 34.256 77.38 34.256z" id="path-2" class="cls-4" fill-rule="evenodd"/><path d="M150.384 42.614c0-23.531-19.075-42.605-42.605-42.605-3.532.0-6.943.477-10.225 1.287 18.581 4.586 32.38 21.319 32.38 41.318.0 1.161 65.165 35.255 65.165 52.826.0 23.004-67.191 28.121-98.882 28.889C100.075 124.401 103.983 124.442 107.953 124.442c25.505.0 107.596-3.577 107.596-29.002.0-17.571-65.165-51.665-65.165-52.826z" id="path-3" class="cls-5" fill-rule="evenodd"/><path d="M215.549 95.44c0 17.412-48.077 33.733-107.596 33.733C48.433 129.173.009 112.852.009 95.44c0-17.411 48.251-31.525 107.77-31.525 59.52.0 107.77 14.114 107.77 31.525z" id="path-4" class="cls-3" fill-rule="evenodd"/><path d="M215.549 95.44c0 17.412-48.077 33.733-107.596 33.733C48.433 129.173.009 112.852.009 95.44c0-17.411 48.251-31.525 107.77-31.525 59.52.0 107.77 14.114 107.77 31.525z" id="path-5" class="cls-7" fill-rule="evenodd"/><path d="M144.611 181.886c-25.709 9.429-50.774 7.624-75.507.0 10.82-25.917 17.041-55.853 15.339-92.714C97.89 85.433 112.514 84.636 129.273 89.172c14.811 33.098 20.444 64.121 15.338 92.714z" id="path-6" class="cls-3" fill-rule="evenodd"/><path d="M129.273 89.172C112.514 84.636 97.89 85.433 84.443 89.172 84.569 91.903 84.564 94.518 84.604 97.174 95.157 95.596 106.504 96.002 119.048 99.397c13.561 30.307 19.319 58.848 16.293 85.402C138.422 183.979 141.511 183.023 144.612 181.886 149.717 153.294 144.084 122.27 129.273 89.172z" id="path-7" class="cls-5" fill-rule="evenodd"/></g></svg>