<svg xmlns="http://www.w3.org/2000/svg" xmlns:xlink="http://www.w3.org/1999/xlink" preserveAspectRatio="xMidYMid" width="216" height="184" viewBox="0 0 216 184"><defs><style>.cls-3{fill:#ff3a2f}.cls-4{fill:#142a3b}.cls-5{fill:#060606;opacity:.35}</style></defs><g id="group-28svg"><path d="M6.737.576c-1.386-.807-3.105-.807-4.491.0C.861 1.375.001 2.857.001 4.463V178.328C.001 179.933.861 181.415 2.246 182.222 2.948 182.616 3.72 182.819 4.491 182.819 5.272 182.819 6.052 182.616 6.737 182.222L157.324 95.276C158.718 94.469 159.569 92.987 159.569 91.382 159.569 89.778 158.718 88.299 157.324 87.489L6.737.576z" id="path-1" class="cls-3" fill-rule="evenodd"/><path d="M211.051 1.156s-44.905.0-44.905.0C163.673 1.156 161.656 3.164 161.656 5.647V176.276C161.656 178.762 163.673 180.767 166.146 180.767h44.905C213.542 180.767 215.541 178.762 215.541 176.276V5.647C215.541 3.164 213.542 1.156 211.051 1.156z" id="path-2" class="cls-4" fill-rule="evenodd"/><path d="M157.324 87.489S148.557 82.429 148.557 82.429.001 168.201.001 168.201s0 10.128.0 10.128C.001 179.934.861 181.416 2.246 182.222 2.947 182.615 3.72 182.818 4.491 182.818 5.272 182.818 6.052 182.615 6.737 182.222L157.324 95.277C158.718 94.469 159.569 92.987 159.569 91.383 159.569 89.777 158.718 88.299 157.324 87.489z" id="path-3" class="cls-5" fill-rule="evenodd"/><path d="M211.051 1.156s-4.131.0-4.131.0.0 162.189.0 162.189C206.92 165.831 204.92 167.834 202.429 167.834H161.656S161.656 176.276 161.656 176.276C161.656 178.763 163.673 180.766 166.146 180.766h44.905C213.542 180.766 215.541 178.763 215.541 176.276V5.646c0-2.482-1.999-4.49-4.49000000000001-4.49z" id="path-4" class="cls-5" fill-rule="evenodd"/></g></svg>