<svg xmlns="http://www.w3.org/2000/svg" xmlns:xlink="http://www.w3.org/1999/xlink" preserveAspectRatio="xMidYMid" width="216" height="136" viewBox="0 0 216 136"><defs><style>.cls-3{fill:#142a3b}.cls-4{fill:#060606;opacity:.35}.cls-7{fill:#ff3a2f}.cls-8{fill:#ededed}.cls-9{fill:#060606;opacity:.25}</style></defs><g id="group-18svg"><path d="M214.613 128.026c-32.12-40.162-26.72-89.094-26.662-89.579C188.091 37.253 187.712 36.047 186.922 35.146 186.115 34.248 184.971 33.726 183.761 33.726H177.603s-32.038.0-32.038.0C147.936 57.079 155.954 91.453 180.995 122.767 183.728 126.186 184.353 130.792 182.904 134.875h28.417C212.934 134.875 214.416 133.944 215.116 132.492 215.815 131.028 215.618 129.294 214.613 128.026z" id="path-1" class="cls-3" fill-rule="evenodd"/><path d="M197.08 128.026c-32.12-40.162-26.72-89.093-26.662-89.578C170.558 37.252 170.179 36.047 169.389 35.146 168.582 34.248 167.437 33.726 166.228 33.726H160.07s-15.759.0-15.759.0C145.521 33.726 146.666 34.248 147.472 35.146 148.262 36.047 148.642 37.252 148.502 38.448 148.443 38.933 143.044 87.864 175.164 128.026 176.168 129.294 176.366 131.027 175.666 132.491 174.967 133.945 173.485 134.874 171.871 134.874h21.916C195.401 134.874 196.883 133.945 197.582 132.491 198.282 131.027 198.085 129.294 197.08 128.026z" id="path-2" class="cls-4" fill-rule="evenodd"/><path d="M69.546 33.726s-15.204.0-15.204.0-22.588.0-22.588.0C30.552 33.726 29.408 34.248 28.609 35.146 27.803 36.047 27.432 37.253 27.572 38.447 27.63 38.932 33.03 87.864.917 128.026-.103 129.294-.292 131.028.407 132.492 1.116 133.944 2.58 134.875 4.21 134.875H32.19C30.75 130.776 31.375 126.175 34.108 122.763 59.166 91.416 67.183 57.066 69.546 33.726z" id="path-3" class="cls-3" fill-rule="evenodd"/><path d="M39.857 132.491C39.157 131.027 39.346 129.294 40.367 128.026 72.479 87.864 67.079 38.933 67.021 38.448 66.881 37.252 67.252 36.047 68.059 35.146 68.857 34.248 70.001 33.726 71.204 33.726H53.67C52.468 33.726 51.324 34.248 50.526 35.146 49.719 36.047 49.348 37.252 49.489 38.448 49.546 38.933 54.946 87.864 22.834 128.026 21.813 129.294 21.624 131.027 22.323 132.491 23.032 133.945 24.497 134.874 26.126 134.874H43.659C42.03 134.874 40.565 133.945 39.857 132.491z" id="path-4" class="cls-4" fill-rule="evenodd"/><path d="M152.974 4.751C153.123 3.553 152.744 2.343 151.954 1.437 151.148.532 149.994.009 148.794.009H70.377C69.159.009 68.006.532 67.215 1.437 66.409 2.346 66.039 3.557 66.195 4.754 66.277 5.409 74.015 71.08 28.494 128.026 27.473 129.294 27.283 131.028 27.983 132.492 28.691 133.944 30.156 134.875 31.786 134.875H187.384C188.997 134.875 190.479 133.944 191.179 132.492 191.878 131.028 191.68 129.294 190.676 128.026 145.237 71.191 152.893 5.409 152.974 4.751z" id="path-5" class="cls-7" fill-rule="evenodd"/><path d="M62.388 97.145C61.862 97.145 61.327 97.029 60.822 96.786 59.036 95.919 58.292 93.77 59.157 91.985 72.248 65.001 73.972 38.794 73.114 21.558 73.014 19.576 74.54 17.89 76.522 17.792 78.482 17.682 80.192 19.218 80.288 21.199 81.19 39.274 79.376 66.77 65.623 95.121 65.002 96.402 63.721 97.145 62.388 97.145z" id="path-6" class="cls-8" fill-rule="evenodd"/><path d="M190.676 128.026C145.237 71.191 152.893 5.409 152.974 4.751 153.123 3.554 152.744 2.342 151.955 1.436 151.148.532 149.994.009 148.794.009H131.26C132.462.009 133.615.532 134.422 1.436 135.211 2.342 135.59 3.554 135.441 4.751 135.359 5.409 127.704 71.191 173.143 128.026 174.147 129.294 174.345 131.027 173.646 132.491 172.946 133.945 171.464 134.874 169.851 134.874h17.533C188.997 134.874 190.479 133.945 191.179 132.491 191.879 131.027 191.68 129.294 190.676 128.026z" id="path-7" class="cls-9" fill-rule="evenodd"/></g></svg>