<svg xmlns="http://www.w3.org/2000/svg" xmlns:xlink="http://www.w3.org/1999/xlink" preserveAspectRatio="xMidYMid" width="216" height="208" viewBox="0 0 216 208"><defs><style>.cls-3{fill:#2476ff}.cls-4{fill:#060606;opacity:.35}.cls-5{fill:#142a3b}.cls-10{fill:#3e66a5}</style></defs><g id="group-14svg"><path d="M77.567 99.325c0 16.651 13.55 30.201 30.202 30.201 16.651.0 30.202-13.55 30.202-30.201S124.42 69.124 107.769 69.124c-16.652.0-30.202 13.55-30.202 30.201z" id="path-1" class="cls-3" fill-rule="evenodd"/><path d="M111.173 69.329C120.151 74.57 126.213 84.283 126.213 95.406c0 16.651-13.549 30.201-30.201 30.201C94.86 125.607 93.726 125.528 92.607 125.401 97.07 128.006 102.24 129.525 107.769 129.525c16.651.0 30.202-13.549 30.202-30.2.0-15.499-11.745-28.296-26.798-29.996z" id="path-2" class="cls-4" fill-rule="evenodd"/><path d="M150.384.347C148.251-.573 145.765.347 144.78 2.453L122.752 49.28C122.246 50.367 122.212 51.545 122.65 52.659 123.097 53.77 123.982 54.53 125.094 54.968c19.921 7.785 32.174 27.84 29.797 49.093C154.765 105.249 155.128 105.982 155.902 106.891 156.679 107.802 157.799 107.423 158.987 107.481L210.711 107.954C210.778 107.954 210.845 107.954 210.913 107.954 213.146 107.954 215.026 108.054 215.21 105.805 218.809 59.829 192.762 18.548 150.384.347z" id="path-3" class="cls-5" fill-rule="evenodd"/><path d="M60.131 110.279C60.865 109.336 61.168 108.13 60.975 106.951c-3.464-21.109 7.727-41.998 27.21-50.805C89.28 55.65 90.106 54.731 90.494 53.603 90.882 52.473 90.781 51.226 90.215 50.181L65.812 4.534c-1.096-2.055-3.633-2.865-5.705-1.845C18.714 23.056-5.067 67.455.917 113.178 1.203 115.352 3.049 116.937 5.189 116.937 5.332 116.937 5.467 116.927 5.602 116.92L57.124 111.948C58.32 111.83 59.407 111.223 60.131 110.279z" id="path-4" class="cls-5" fill-rule="evenodd"/><path d="M142.808 138.003C142.151 137.009 141.105 136.334 139.926 136.14 138.754 135.946 137.541 136.241 136.589 136.975c-16.408 12.589-41.225 12.596-57.64.0C78.005 136.241 76.774 135.946 75.62 136.14 74.44 136.334 73.396 137.009 72.73 138.003L44.011 181.071C42.731 183.008 43.203 185.612 45.09 186.969c18.354 13.154 40.027 20.106 62.679 20.106 22.651.0 44.324-6.952 62.679-20.106C172.335 185.612 172.807 183.008 171.526 181.071l-28.718-43.068z" id="path-5" class="cls-5" fill-rule="evenodd"/><path d="M152.371 1.289c36.496 20.037 58.312 58.306 55.002 100.597C207.187 104.135 205.308 104.035 203.075 104.035 203.008 104.035 202.94 104.035 202.874 104.035L154.924 103.598C154.907 103.752 154.908 103.905 154.891 104.06 154.765 105.249 155.128 105.983 155.902 106.891 156.678 107.802 157.799 107.423 158.988 107.482L210.711 107.954C210.778 107.954 210.845 107.954 210.913 107.954 213.146 107.954 215.025 108.054 215.21 105.805c3.542-45.239-21.659-85.882-62.839-104.516z" id="path-6" class="cls-4" fill-rule="evenodd"/><path d="M90.215 50.182S65.812 4.534 65.812 4.534c-1.096-2.055-3.633-2.865-5.705-1.845C59.835 2.823 59.584 2.984 59.312 3.12L82.377 46.263C82.943 47.308 83.044 48.555 82.656 49.684 82.268 50.813 81.442 51.732 80.347 52.229c-19.482 8.804-30.673 29.695-27.21 50.803C53.33 104.212 53.028 105.418 52.294 106.361 51.569 107.305 50.482 107.911 49.286 108.03L.874 112.701C.893 112.861.896 113.018.917 113.178 1.203 115.352 3.049 116.937 5.188 116.937 5.332 116.937 5.467 116.927 5.602 116.919l51.522-4.971C58.32 111.83 59.407 111.223 60.131 110.279 60.866 109.337 61.168 108.131 60.974 106.951 57.511 85.842 68.702 64.952 88.185 56.147 89.28 55.65 90.106 54.731 90.494 53.603 90.881 52.473 90.781 51.226 90.215 50.182z" id="path-7" class="cls-4" fill-rule="evenodd"/><path d="M82.095 139.171C81.017 138.487 79.966 137.755 78.949 136.974 78.058 136.282 76.911 136.016 75.813 136.148c2.017 1.167 4.113 2.179 6.282 3.023z" id="path-8" class="cls-10" fill-rule="evenodd"/><path d="M171.526 181.07s-28.718-43.068-28.718-43.068C142.151 137.009 141.106 136.334 139.926 136.14 138.84 135.961 137.739 136.243 136.823 136.862l26.866 40.29C164.969 179.089 164.497 181.695 162.61 183.05c-18.354 13.154-40.028 20.107-62.679 20.107C84.546 203.157 69.64 199.874 55.89 193.695c15.83 8.737 33.516 13.38 51.879 13.38C130.42 207.075 152.093 200.122 170.448 186.969 172.335 185.613 172.807 183.008 171.526 181.07z" id="path-9" class="cls-4" fill-rule="evenodd"/></g></svg>