<svg xmlns="http://www.w3.org/2000/svg" xmlns:xlink="http://www.w3.org/1999/xlink" preserveAspectRatio="xMidYMid" width="154" height="214" viewBox="0 0 154 214"><defs><style>.cls-3{fill:#fbb713}.cls-4{fill:#020403;opacity:.25}.cls-5{fill:#000;opacity:.35}.cls-6{fill:#142a3b}.cls-9{fill:#fff}</style></defs><g id="group-135svg"><path d="M131.969 161.149c10.028-24.002 12.402-50.285 12.852-64.856C145.029 89.557 139.627 83.081 132.888 83.081H21.584c-6.739.0-12.142 5.267-11.934 12.002C10.526 123.495 18.723 195.077 76.696 213.078h1.08c42.493-14.001 54.193-51.929 54.193-51.929z" id="path-1" class="cls-3" fill-rule="evenodd"/><path d="M135.833 82.552C135.034 97.671 132.219 121.239 123.183 142.865c0 0-11.699 38.049-54.193 53.423H67.91c-21.131-6.405-35.626-20.173-45.586-36.447 9.493 23.465 25.936 45.4 54.372 54.02h1.08c42.493-15.377 54.193-53.424 54.193-53.424 10.028-24.003 12.402-50.433 12.853-65.004C144.996 89.72 141.122 84.131 135.833 82.552z" id="path-2" class="cls-4" fill-rule="evenodd"/><path d="M9.65 97.644c.148 4.794.539-1.447 1.308 5.303l132.641 12.307C144.303 108.87 144.68 103.105 144.822 98.512 144.901 95.936 144.15 93.51 142.828 91.49H11.294C10.209 93.247 9.579 95.323 9.65 97.644z" id="path-3" class="cls-5" fill-rule="evenodd"/><path d="M9.644 95.637C.698 95.886.365 89.1.365 89.1-4.558 54.995 44.228 35.486 44.228 35.486c10.002-3.676 21.193-5.735 33.008-5.735 42.454.0 76.869 26.572 76.869 59.349C154.105 89.1 153.84 94.146 146.132 95.637" id="path-4" class="cls-6" fill-rule="evenodd"/><path d="M94.069 31.224c20.325 10.679 33.681 28.678 33.681 49.088C127.75 80.312 127.483 85.359 119.775 86.852H.146C.203 87.597.256 88.34.365 89.099.365 89.099.698 95.886 9.644 95.637H146.132C153.84 94.146 154.105 89.099 154.105 89.099c0-28.307-25.689-51.943-60.036-57.875z" id="path-5" class="cls-5" fill-rule="evenodd"/><path d="M76.778 36.153c-1.99600000000001.0-3.5-1.62-3.5-3.616V3.62C73.278 1.625 74.782.005 76.778.005c1.996.0 3.499 1.62 3.499 3.615V32.537c0 1.996-1.503 3.616-3.499 3.616z" id="path-6" class="cls-6" fill-rule="evenodd"/><path d="M18.867 77.458C18.467 77.458 18.058 77.391 17.658 77.249 15.782 76.58 14.797 74.525 15.461 72.646 15.569 72.342 26.575 42.267 60.538 41.681 62.54 41.628 64.18 43.236 64.215 45.232 64.249 47.228 62.658 48.873 60.662 48.909 31.813 49.405 22.65 74.014 22.273 75.061 21.744 76.536 20.351 77.458 18.867 77.458z" id="path-7" class="cls-9" fill-rule="evenodd"/></g></svg>