<svg xmlns="http://www.w3.org/2000/svg" xmlns:xlink="http://www.w3.org/1999/xlink" preserveAspectRatio="xMidYMid" width="138" height="216" viewBox="0 0 138 216"><defs><style>.cls-3{fill:#0cb04a}.cls-4{fill:#000;opacity:.25}.cls-5{fill:#000;opacity:.35}.cls-8{fill:#142a3b}.cls-10{fill:#ededed}</style></defs><g id="group-115svg"><path d="M.006 21.737s0 172.056.0 172.056c0 12.005 30.844 21.738 68.883 21.738 38.037.0 68.884-9.733 68.884-21.738V21.737s0 0 0 0" id="path-1" class="cls-3" fill-rule="evenodd"/><path d="M.006 21.737s0 172.056.0 172.056c0 12.005 30.844 21.738 68.883 21.738 38.037.0 68.884-9.733 68.884-21.738V21.737s0 0 0 0" id="path-2" class="cls-4" fill-rule="evenodd"/><path d="M137.773 21.737s-13.166 12.776-13.166 12.776c-12.275 4.087-40.389 12.179-75.623 6.85C29.8 38.462 12.878 33.331 1.108 27.43c4.7 10.796 31.117 22.398 64.172 27.398C86.789 58.082 106.419 57.823 119.645 54.796V182.917c0 12.005-30.846 21.74-68.883 21.74C31.36 204.657 13.861 202.115 1.341 198.04c6.261 9.971 34.116 17.491 67.548 17.491 38.037.0 68.884-9.733 68.884-21.738V36.151s0-14.414.0-14.414z" id="path-3" class="cls-5" fill-rule="evenodd"/><path d="M137.773 21.737c0 12.004-30.847 21.739-68.884 21.739C30.85 43.476.006 33.741.006 21.737.006 9.732 30.85-.001 68.889-.001c38.037.0 68.884 9.733 68.884 21.738z" id="path-4" class="cls-3" fill-rule="evenodd"/><path d="M68.889-.001C66.439-.001 64.022.043 61.638.123 96.267 1.264 123.27 10.505 123.27 21.737c0 11.231-27.003 20.472-61.632 21.616C64.022 43.433 66.439 43.476 68.889 43.476c38.037.0 68.884-9.735 68.884-21.739.0-12.005-30.847-21.738-68.884-21.738z" id="path-5" class="cls-4" fill-rule="evenodd"/><path d="M44.079 21.737c0 1.995-5.125 3.613-11.445 3.613-6.319.0-11.443-1.618-11.443-3.613.0-1.994 5.124-3.61 11.443-3.61 6.32.0 11.445 1.616 11.445 3.61z" id="path-6" class="cls-8" fill-rule="evenodd"/><path d="M43.681 22.635c-1.27 1.558-5.714 2.715-11.047 2.715C29.788 25.35 27.217 25.009 25.214 24.467 24.979 24.755 24.816 25.052 24.816 25.363c0 1.996 5.124 3.612 11.444 3.612 6.319.0 11.444-1.616 11.444-3.612.0-1.096-1.581-2.066-4.023-2.728z" id="path-7" class="cls-5" fill-rule="evenodd"/><path d="M118.743 137.241c0 27.533-22.32 49.852-49.854 49.852-27.533.0-49.854-22.319-49.854-49.852.0-27.532 22.321-49.851 49.854-49.851 27.534.0 49.854 22.319 49.854 49.851z" id="path-8" class="cls-10" fill-rule="evenodd"/><path d="M94.588 94.581c14.457 8.729 24.155 24.542 24.155 42.66.0 27.533-22.32 49.852-49.854 49.852C62.366 187.093 56.152 185.805 50.442 183.526 57.953 188.06 66.726 190.718 76.14 190.718c27.533.0 49.853-22.318 49.853-49.852.0-21.01-13.013-38.947-31.405-46.285z" id="path-9" class="cls-5" fill-rule="evenodd"/><path d="M89.07 142.871c0 11.143-9.035 20.18-20.181 20.18C57.743 163.051 48.708 154.014 48.708 142.871c0-11.147 20.181-33.701 20.181-33.701S89.07 131.724 89.07 142.871z" id="path-10" class="cls-8" fill-rule="evenodd"/><path d="M68.889 109.17S67.402 110.839 65.264 113.448C71.067 120.524 81.819 134.728 81.819 142.871c0 9.905-7.143 18.128-16.555 19.837C66.441 162.923 67.649 163.051 68.889 163.051 80.035 163.051 89.07 154.014 89.07 142.871c0-11.147-20.181-33.701-20.181-33.701z" id="path-11" class="cls-4" fill-rule="evenodd"/></g></svg>