<svg xmlns="http://www.w3.org/2000/svg" xmlns:xlink="http://www.w3.org/1999/xlink" preserveAspectRatio="xMidYMid" width="216" height="173" viewBox="0 0 216 173"><defs><style>.cls-3{fill:#142a3b}.cls-4{fill:#132737}.cls-5{fill:#fbb713}.cls-6{fill:#2476ff}.cls-7{fill:#000;opacity:.35}</style></defs><g id="group-46svg"><path d="M-.007 55.015s0 112.256.0 112.256C-.007 169.754 2.001 171.761 4.484 171.761H211.043C213.525 171.761 215.533 169.754 215.533 167.271V55.015s-215.54.0-215.54.0z" id="path-1" class="cls-3" fill-rule="evenodd"/><path d="M147.606 80.813s-71.847.0-71.847.0c-9.911.0-17.963 8.06-17.963 17.962.0 9.89999999999999 8.052 17.96 17.963 17.96h71.847c9.90200000000002.0 17.961-8.06 17.961-17.96.0-9.902-8.059-17.962-17.961-17.962zm0 26.942s-71.847.0-71.847.0C70.808 107.755 66.778 103.729 66.778 98.775c0-4.956 4.03-8.982 8.981-8.982h71.847C152.556 89.793 156.586 93.819 156.586 98.775 156.586 103.729 152.556 107.755 147.606 107.755z" id="path-2" class="cls-4" fill-rule="evenodd"/><path d="M143.686 72.976s-71.847.0-71.847.0c-9.91.0-17.961 8.059-17.961 17.961.0 9.90000000000001 8.051 17.96 17.961 17.96h71.847c9.90299999999999.0 17.961-8.06 17.961-17.96C161.647 81.035 153.589 72.976 143.686 72.976zm0 26.941s-71.847.0-71.847.0c-4.95.0-8.98-4.02500000000001-8.98-8.98C62.859 85.981 66.889 81.956 71.839 81.956h71.847c4.952.0 8.981 4.02499999999999 8.981 8.981.0 4.955-4.029 8.98-8.981 8.98z" id="path-3" class="cls-5" fill-rule="evenodd"/><path d="M214.176 55.015S188.698-.012 188.698-.012s-161.655.0-161.655.0S1.351 55.015 1.351 55.015s212.825.0 212.825.0z" id="path-4" class="cls-6" fill-rule="evenodd"/><path d="M188.698-.012s-18.36.0-18.36.0.0.0.0.0C177.993 16.523 165.918 35.421 147.696 35.421L5.378 46.388s-4.027 8.627-4.027 8.627 212.825.0 212.825.0S188.698-.012 188.698-.012z" id="path-5" class="cls-7" fill-rule="evenodd"/><path d="M179.61 55.015s0-49.749.0-49.749-143.694.0-143.694.0.0 49.749.0 49.749 143.694.0 143.694.0z" id="path-6" class="cls-5" fill-rule="evenodd"/><path d="M35.916 55.015s143.694.0 143.694.0.0-11.756.0-11.756-143.694.0-143.694.0.0 11.756.0 11.756z" id="path-7" class="cls-7" fill-rule="evenodd"/></g></svg>