<svg xmlns="http://www.w3.org/2000/svg" xmlns:xlink="http://www.w3.org/1999/xlink" preserveAspectRatio="xMidYMid" width="196" height="218" viewBox="0 0 196 218"><defs><style>.cls-3{fill:#ff3a2f}.cls-4{fill:#142a3b}.cls-6{fill:#2476ff}.cls-7{fill:#000;opacity:.35}</style></defs><g id="group-17svg"><path d="M82.178 97.486c-1.997.0-3.614-1.619-3.614-3.614V74.843c0-16.273 13.268-29.511 29.578-29.511h57.61c12.323.0 22.349-9.996 22.349-22.282V23.035s-22.019.0-22.019.0C164.086 23.035 162.468 21.416 162.468 19.42c0-1.996 1.61800000000002-3.615 3.614-3.615H195.33s0 7.245.0 7.245c0 16.272-13.268 29.512-29.578 29.512h-57.61c-12.323.0-22.349 9.994-22.349 22.281V93.872C85.793 95.867 84.174 97.486 82.178 97.486z" id="path-1" class="cls-3" fill-rule="evenodd"/><path d="M99.202 203.93s-37.817.0-37.817.0.0-110.059.0-110.059 37.817.0 37.817.0.0 110.059.0 110.059z" id="path-2" class="cls-4" fill-rule="evenodd"/><path d="M16.948 23.035s-13.343.0-13.343.0c-1.996.0-3.614-1.619-3.614-3.615.0-1.996 1.618-3.615 3.614-3.615H16.948c1.996.0 3.615 1.619 3.615 3.615.0 1.996-1.619 3.615-3.615 3.615z" id="path-3" class="cls-3" fill-rule="evenodd"/><path d="M167.186 38.842s-150.238.0-150.238.0.0-38.843.0-38.843 150.238.0 150.238.0.0 38.843.0 38.843z" id="path-4" class="cls-6" fill-rule="evenodd"/><path d="M167.186 38.842s-150.238.0-150.238.0.0-15.718.0-15.718 150.238.0 150.238.0.0 15.718.0 15.718z" id="path-5" class="cls-7" fill-rule="evenodd"/><path d="M91.106 216.877s-21.624.0-21.624.0.0-12.947.0-12.947 21.624.0 21.624.0.0 12.947.0 12.947z" id="path-6" class="cls-3" fill-rule="evenodd"/></g></svg>