<svg xmlns="http://www.w3.org/2000/svg" xmlns:xlink="http://www.w3.org/1999/xlink" preserveAspectRatio="xMidYMid" width="216" height="185" viewBox="0 0 216 185"><defs><style>.cls-3{fill:#ff3a2f}.cls-4{fill:#000;opacity:.35}.cls-5{fill:#142a3b}.cls-7{fill:#fff}.cls-8{fill:#fbb713}</style></defs><g id="group-164svg"><path d="M33.632 140.955C33.632 131.668 16.816 105.746 16.816 105.746S-.001 131.668-.001 140.955C-.001 150.242 7.528 157.771 16.816 157.771s16.816-7.529 16.816-16.816z" id="path-1" class="cls-3" fill-rule="evenodd"/><path d="M16.816 105.632s-1.107 1.711-2.745 4.389C19.022 118.436 25.795 131.025 25.795 136.922 25.795 146.21 18.266 153.739 8.978 153.739 7.873 153.739 6.796 153.618 5.751 153.414 8.713 156.023 12.558 157.658 16.816 157.658c9.288.0 16.816-7.529 16.816-16.817C33.632 131.554 16.816 105.632 16.816 105.632z" id="path-2" class="cls-4" fill-rule="evenodd"/><path d="M174.423 124.426s41.117 41.116 41.117 41.116-19.106 19.104-19.106 19.104-41.116-41.115-41.116-41.115 19.105-19.105 19.105-19.105z" id="path-3" class="cls-5" fill-rule="evenodd"/><path d="M174.423 124.426s10.418 10.419 10.418 10.419-19.105 19.104-19.105 19.104-10.418-10.418-10.418-10.418 19.105-19.105 19.105-19.105z" id="path-4" class="cls-4" fill-rule="evenodd"/><path d="M198.51 171.21C197.591 171.21 196.672 170.86 195.97 170.158L186.004 160.192C184.601 158.788 184.601 156.516 186.004 155.112 187.407 153.708 189.68 153.708 191.084 155.112L201.05 165.079C202.453 166.482 202.453 168.754 201.05 170.158 200.348 170.86 199.429 171.21 198.51 171.21z" id="path-5" class="cls-7" fill-rule="evenodd"/><path d="M186.051 79.339s-79.742 79.739-79.742 79.739S43.545 96.316 43.545 96.316s79.378-79.274 79.378-79.274 63.128 62.297 63.128 62.297z" id="path-6" class="cls-8" fill-rule="evenodd"/><path d="M90.423 49.427S43.596 96.253 43.596 96.253 47.515 100.171 47.515 100.171 94.342 53.346 94.342 53.346s-3.919-3.919-3.919-3.919z" id="path-7" class="cls-4" fill-rule="evenodd"/><path d="M110.709 36.532s16.132-15.683 16.132-15.683S109.813 3.82 109.813 3.82s-3.919 3.919-3.919 3.919 13.11 13.11 13.11 13.11-17.859 17.858-17.859 17.858 13.757 13.756 13.757 13.756C118.928 56.489 118.019 61.842 113.993 65.868 112.992 66.869 110.391 65.415 109.15 65.917 113.993 70.134 119.715 70.128 122.74 67.103 126.766 63.077 129.324 58.214 124.467 50.289L110.709 36.532z" id="path-8" class="cls-4" fill-rule="evenodd"/><path d="M105.894.015S26.568 79.339 26.568 79.339 43.596 96.367 43.596 96.367 90.423 49.541 90.423 49.541s13.758 13.757 13.758 13.757c4.026 4.026 10.614 4.026 14.64.0 4.026-4.026 4.026-10.613.0-14.64L105.064 34.901s17.859-17.859 17.859-17.859S105.894.015 105.894.015z" id="path-9" class="cls-3" fill-rule="evenodd"/><path d="M204.326 97.612s-79.742 79.74-79.742 79.74-19.105-19.104-19.105-19.104 79.741-79.74 79.741-79.74 19.106 19.104 19.106 19.104z" id="path-10" class="cls-5" fill-rule="evenodd"/><path d="M185.309 78.596s-79.741 79.741-79.741 79.741S103.445 156.215 103.445 156.215s77.129-82.353 77.129-82.353S185.309 78.596 185.309 78.596z" id="path-11" class="cls-4" fill-rule="evenodd"/></g></svg>