<svg xmlns="http://www.w3.org/2000/svg" xmlns:xlink="http://www.w3.org/1999/xlink" preserveAspectRatio="xMidYMid" width="152" height="218" viewBox="0 0 152 218"><defs><style>.cls-3{fill:#142a3b}.cls-4{fill:#020403;opacity:.35}.cls-5{fill:#ff3a2f}.cls-7{fill:#fff}</style></defs><g id="group-120svg"><path d="M76.625 147.06S150.605 9.597 150.605 9.597C150.671 9.47 150.665 9.33 150.731 9.202 150.923 8.771 151.025 8.345 151.127 7.894 151.214 7.498 151.315 7.122 151.327 6.718 151.338 6.301 151.272 5.909 151.207 5.495 151.141 5.07 151.087 4.659 150.932 4.257 150.802 3.889 150.593 3.568 150.397 3.229 150.165 2.825 149.93 2.434 149.608 2.085 149.508 1.986 149.474 1.85 149.374 1.751 149.161 1.546 148.881 1.461 148.643 1.288 148.391 1.108 148.219.853 147.941.704 147.801.63 147.66.638 147.521.576 147.128.394 146.72.305 146.3.203 145.88.108 145.472.001 145.049-.011 144.651-.028 144.277.044 143.878.104 143.439.169 143.015.227 142.601.377 142.238.507 141.925.71 141.586.905 141.181 1.146 140.791 1.377 140.436 1.708 140.33 1.801 140.201 1.837 140.095 1.942L34.449 112.056c-15.264 6.901-39.207 27.522-28.496 60.791 6.931 21.504 6.103 25.945 5.775 26.679C11.463 199.781 10.386 200.278 9.593 200.642 8.032 201.369 6.357 202.167 4.671 203.334L.014 207.008s1.348 4.578 1.348 4.578C1.806 213.118 3.478 216.697 9.271 216.859 23.535 217.255 67.476 200.768 76.625 147.06z" id="path-1" class="cls-3" fill-rule="evenodd"/><path d="M68.793 135.309S140.85 1.419 140.85 1.419C141.092 1.243 141.328 1.059 141.586.905 141.925.71 142.238.507 142.601.377 143.016.227 143.439.169 143.878.104 144.277.044 144.651-.028 145.048-.011 145.472.001 145.88.108 146.3.205 146.72.305 147.128.394 147.521.576 147.66.638 147.801.63 147.941.704 148.219.853 148.391 1.108 148.644 1.289 148.881 1.461 149.161 1.546 149.374 1.751 149.474 1.85 149.508 1.986 149.608 2.085 149.93 2.434 150.165 2.825 150.397 3.229 150.593 3.568 150.802 3.889 150.932 4.258 151.088 4.659 151.141 5.07 151.207 5.496 151.272 5.909 151.338 6.301 151.327 6.718 151.315 7.122 151.214 7.498 151.127 7.894 151.025 8.345 150.923 8.771 150.731 9.202 150.665 9.33 150.671 9.47 150.605 9.597L76.625 147.06c-9.149 53.708-53.09 70.194-67.354 69.8C3.478 216.697 1.806 213.118 1.362 211.586L.014 207.008S2.477 205.064 2.477 205.064C17.659 204.728 59.841 187.859 68.793 135.309z" id="path-2" class="cls-4" fill-rule="evenodd"/><path d="M78.19 144.155S76.626 147.06 76.626 147.06C67.476 200.768 23.535 217.254 9.271 216.859 3.478 216.697 1.807 213.118 1.363 211.585L.014 207.008S4.671 203.334 4.671 203.334C6.357 202.167 8.032 201.369 9.593 200.642 10.386 200.278 11.463 199.781 11.728 199.526 12.056 198.792 12.884 194.351 5.954 172.847c-9.981-31.003 10.125-51.008 25.263-59.176L78.19 144.155z" id="path-3" class="cls-5" fill-rule="evenodd"/><path d="M55.417 151.221C56.56 146.333 54.998 141.178 51.379 137.699L28.203 115.424C29.222 114.791 30.231 114.203 31.217 113.671L78.19 144.155S76.626 147.06 76.626 147.06C67.476 200.768 23.535 217.254 9.271 216.859 4.549 216.727 2.585 214.335 1.773 212.621c16.241-2.233 43.561-18.301 53.644-61.4z" id="path-4" class="cls-4" fill-rule="evenodd"/><path d="M8.66 153.981c0 4.506 3.653 8.16 8.16 8.16 4.507.0 8.16-3.654 8.16-8.16C24.98 149.473 21.327 145.822 16.82 145.822 12.313 145.822 8.66 149.473 8.66 153.981z" id="path-5" class="cls-7" fill-rule="evenodd"/></g></svg>