<svg xmlns="http://www.w3.org/2000/svg" xmlns:xlink="http://www.w3.org/1999/xlink" preserveAspectRatio="xMidYMid" width="216" height="64" viewBox="0 0 216 64"><defs><style>.cls-3{fill:#0cb04a}.cls-6{fill:#ededed}.cls-7{fill:#000;opacity:.35}</style></defs><g id="group-65svg"><path d="M211.106 38.97s-63.784.0-63.784.0C144.868 38.97 142.878 36.98 142.878 34.526V33.82C142.878 31.366 144.868 29.376 147.322 29.376h63.784C213.561 29.376 215.551 31.366 215.551 33.82V34.526C215.551 36.98 213.561 38.97 211.106 38.97z" id="path-1" class="cls-3" fill-rule="evenodd"/><path d="M129.363 63.573s-92.743.0-92.743.0S.011 30.016.011 30.016s165.961.0 165.961.0-36.609 33.557-36.609 33.557z" id="path-2" class="cls-3" fill-rule="evenodd"/><path d="M47.761 10.704s70.461.0 70.461.0C121.162 10.704 124.068 11.338 126.741 12.563l27.28 12.503s-142.058.0-142.058.0 27.28-12.503 27.28-12.503c2.672-1.225 5.578-1.859 8.518-1.859z" id="path-3" class="cls-3" fill-rule="evenodd"/><path d="M29.85 50.011C29.036 50.011 28.221 49.738 27.547 49.174l-6.905-5.773C19.121 42.128 18.917 39.862 20.191 38.34 21.464 36.821 23.729 36.617 25.251 37.889l6.906 5.775C33.678 44.935 33.882 47.2 32.608 48.724 31.897 49.573 30.878 50.011 29.85 50.011z" id="path-4" class="cls-6" fill-rule="evenodd"/><path d="M144.916 30.015S125.722 47.61 125.722 47.61c-5.499 5.04-12.687 7.837-20.146 7.837H27.755s8.866 8.126 8.866 8.126 92.742.0 92.742.0 36.609-33.558 36.609-33.558-21.056.0-21.056.0z" id="path-5" class="cls-7" fill-rule="evenodd"/><path d="M126.739 12.562C124.067 11.338 121.162 10.704 118.222 10.704H111.233S117.892 13.756 117.892 13.756C121.597 15.454 120.386 21.003 116.31 21.003H20.828s-8.865 4.062-8.865 4.062 142.058.0 142.058.0-27.282-12.503-27.282-12.503z" id="path-6" class="cls-7" fill-rule="evenodd"/><path d="M97.07 5.308s-28.157.0-28.157.0C68.553 5.308 68.262 5.016 68.262 4.657V.665C68.262.306 68.553.014 68.913.014H97.07C97.431.014 97.722.306 97.722.665V4.657C97.722 5.016 97.431 5.308 97.07 5.308z" id="path-7" class="cls-3" fill-rule="evenodd"/></g></svg>