<svg xmlns="http://www.w3.org/2000/svg" xmlns:xlink="http://www.w3.org/1999/xlink" preserveAspectRatio="xMidYMid" width="169" height="214" viewBox="0 0 169 214"><defs><style>.cls-3{fill:#142a3b}.cls-4{fill:#ff3a2f}.cls-5{fill:#000;opacity:.35}.cls-6{fill:#2476ff}</style></defs><g id="group-96svg"><path d="M94.75 195.721s-7 0-7 0 0-81.998.0-81.998 7 0 7 0 0 81.998.0 81.998z" id="path-1" class="cls-3" fill-rule="evenodd"/><path d="M107.565 100.836c0 8.377-6.792 15.17-15.17 15.17S77.225 109.213 77.225 100.836s6.792-15.17 15.17-15.17S107.565 92.459 107.565 100.836z" id="path-2" class="cls-4" fill-rule="evenodd"/><path d="M101.29 88.486C103.113 90.989 104.221 94.045 104.221 97.379c0 8.37899999999999-6.792 15.17-15.171 15.17C85.716 112.549 82.66 111.44 80.156 109.616 82.914 113.404 87.351 115.892 92.395 115.892c8.378.0 15.17-6.791 15.17-15.169C107.565 95.679 105.077 91.244 101.29 88.486z" id="path-3" class="cls-5" fill-rule="evenodd"/><path d="M77.817 105.841S-.012 140.727-.012 140.727s93.807 21.993 77.829-34.886z" id="path-4" class="cls-6" fill-rule="evenodd"/><path d="M77.817 105.727S71.759 108.444 71.759 108.444c6.482 28.42-16.122 35.722-38.751 36.299C58.26 145.427 87.276 139.399 77.817 105.727z" id="path-5" class="cls-5" fill-rule="evenodd"/><path d="M108.229 108.944s60.309 60.308 60.309 60.308-12.844-95.487-60.309-60.308z" id="path-6" class="cls-6" fill-rule="evenodd"/><path d="M112.221 106.136C110.918 106.934 109.589 107.823 108.229 108.83l60.31 60.307S168.112 165.986 167.137 161.049l-54.916-54.913z" id="path-7" class="cls-5" fill-rule="evenodd"/><path d="M90.749 85.284s0-85.287.0-85.287-60.999 76.601.0 85.287z" id="path-8" class="cls-6" fill-rule="evenodd"/><path d="M64.173 55.745c-1.246 14.147 4.697 26.27 26.558 29.426V78.484C72.415 75.84 65.283 66.893 64.173 55.745z" id="path-9" class="cls-5" fill-rule="evenodd"/><path d="M115.75 213.72s-50 0-50 0 0-20.999.0-20.999 50 0 50 0 0 20.999.0 20.999z" id="path-10" class="cls-4" fill-rule="evenodd"/><path d="M102.864 192.183s0 21.554.0 21.554 13.376.0 13.376.0.0-21.554.0-21.554-13.376.0-13.376.0z" id="path-11" class="cls-5" fill-rule="evenodd"/></g></svg>