<svg xmlns="http://www.w3.org/2000/svg" xmlns:xlink="http://www.w3.org/1999/xlink" preserveAspectRatio="xMidYMid" width="154" height="217" viewBox="0 0 154 217"><defs><style>.cls-3{fill:#142a3b}.cls-9{fill:#ff3a2f}.cls-10{fill:#fbb713}</style></defs><g id="group-119svg"><path d="M21.629 198.631c-1.985.0-3.593-1.608-3.593-3.59200000000001V133.521C18.036 131.539 19.644 129.93 21.629 129.93 23.612 129.93 25.221 131.539 25.221 133.521v61.518C25.221 197.023 23.612 198.631 21.629 198.631z" id="path-1" class="cls-3" fill-rule="evenodd"/><path d="M21.629 85.849C19.644 85.849 18.036 84.24 18.036 82.256V20.74c0-1.984 1.608-3.593 3.593-3.593 1.983.0 3.592 1.609 3.592 3.593V82.256C25.221 84.24 23.612 85.849 21.629 85.849z" id="path-2" class="cls-3" fill-rule="evenodd"/><circle id="circle-1" class="cls-3" cx="22" cy="16" r="16"/><circle id="circle-2" class="cls-3" cx="22" cy="200" r="16"/><path d="M24.233 89.676C23.931 89.676 23.623 89.636 23.316 89.555 21.397 89.05 20.252 87.085 20.758 85.166 31.027 46.207 66.371 18.999 106.71 18.999 108.693 18.999 110.302 20.609 110.302 22.592 110.302 24.575 108.693 26.184 106.71 26.184c-37.078.0-69.567 25.006-79.005 60.814C27.28 88.61 25.826 89.676 24.233 89.676z" id="path-3" class="cls-3" fill-rule="evenodd"/><path d="M106.71 196.779c-40.35.0-75.701-27.226-85.971-66.206C20.232 128.653 21.379 126.688 23.296 126.184 25.224 125.675 27.182 126.824 27.685 128.741c9.44 35.829 41.937 60.854 79.025 60.854C108.693 189.595 110.302 191.203 110.302 193.186 110.302 195.171 108.693 196.779 106.71 196.779z" id="path-4" class="cls-3" fill-rule="evenodd"/><path d="M46.131 133.521s-41.014.0-41.014.0C2.283 133.521-.01 131.23-.01 128.395V87.384C-.01 84.549 2.283 82.257 5.117 82.257H46.131c2.833.0 5.126 2.292 5.126 5.127v41.011C51.257 131.23 48.964 133.521 46.131 133.521z" id="path-5" class="cls-9" fill-rule="evenodd"/><path d="M148.663 51.498s-41.013.0-41.013.0C104.816 51.498 102.524 49.206 102.524 46.371V5.36C102.524 2.527 104.816.234 107.65.234h41.013C151.497.234 153.79 2.527 153.79 5.36V46.371C153.79 49.206 151.497 51.498 148.663 51.498z" id="path-6" class="cls-10" fill-rule="evenodd"/><path d="M148.663 215.546s-41.013.0-41.013.0C104.816 215.546 102.524 213.253 102.524 210.419V169.407C102.524 166.573 104.816 164.281 107.65 164.281h41.013C151.497 164.281 153.79 166.573 153.79 169.407v41.012C153.79 213.253 151.497 215.546 148.663 215.546z" id="path-7" class="cls-10" fill-rule="evenodd"/></g></svg>