<svg xmlns="http://www.w3.org/2000/svg" xmlns:xlink="http://www.w3.org/1999/xlink" preserveAspectRatio="xMidYMid" width="216" height="216" viewBox="0 0 216 216"><defs><style>.cls-3{fill:#0cb04a}.cls-5{fill:#060606;opacity:.35}</style></defs><g id="group-27svg"><path d="M73.468 215.539s-68.58.0-68.58.0C2.189 215.539-.011 213.353-.011 210.64V4.905c0-2.708 2.2-4.899 4.899-4.899h68.58c2.718.0 4.899 2.191 4.899 4.899V210.64c0 2.71300000000002-2.181 4.899-4.899 4.899z" id="path-1" class="cls-3" fill-rule="evenodd"/><path d="M210.63 215.539s-68.581.0-68.581.0C139.351 215.539 137.151 213.353 137.151 210.64V4.905C137.151 2.197 139.351.006 142.049.006H210.63C213.348.006 215.529 2.197 215.529 4.905V210.64C215.529 213.353 213.348 215.539 210.63 215.539z" id="path-2" class="cls-3" fill-rule="evenodd"/><path d="M73.469.006s-12.345.0-12.345.0.0 202.013.0 202.013c0 2.714-2.181 4.898-4.898 4.898H-.011S-.011 210.641-.011 210.641C-.011 213.354 2.189 215.538 4.888 215.538H73.469C76.186 215.538 78.367 213.354 78.367 210.641V4.905C78.367 2.197 76.186.006 73.469.006z" id="path-3" class="cls-5" fill-rule="evenodd"/><path d="M210.63.006s-12.344.0-12.344.0.0 202.013.0 202.013c0 2.714-2.18100000000001 4.898-4.899 4.898H137.151S137.151 210.641 137.151 210.641C137.151 213.354 139.351 215.538 142.049 215.538H210.63C213.348 215.538 215.529 213.354 215.529 210.641V4.905C215.529 2.197 213.348.006 210.63.006z" id="path-4" class="cls-5" fill-rule="evenodd"/></g></svg>