<svg xmlns="http://www.w3.org/2000/svg" xmlns:xlink="http://www.w3.org/1999/xlink" preserveAspectRatio="xMidYMid" width="217" height="213" viewBox="0 0 217 213"><defs><style>.cls-3{fill:#fbb713}.cls-4{fill:#142a3b}.cls-17{fill:#ff3a2f}.cls-18{fill:#fff}.cls-19{fill:#2476ff}.cls-22{fill:#020403;opacity:.35}</style></defs><g id="group-118svg"><path d="M216.861 41.501S46.226 212.14 46.226 212.14s-30.198-30.197-30.198-30.197S186.663 11.304 186.663 11.304s30.198 30.197 30.198 30.197z" id="path-1" class="cls-3" fill-rule="evenodd"/><path d="M79.524 155.109C78.599 155.109 77.674 154.755 76.968 154.048l-12.82-12.821C62.737 139.815 62.737 137.526 64.148 136.114 65.561 134.704 67.848 134.704 69.26 136.115l12.82 12.822C83.491 150.35 83.491 152.638 82.08 154.051 81.374 154.755 80.448 155.109 79.524 155.109z" id="path-2" class="cls-4" fill-rule="evenodd"/><path d="M57.476 176.917C56.551 176.917 55.626 176.563 54.921 175.858L41.979 162.916C40.567 161.505 40.567 159.216 41.979 157.805 43.391 156.393 45.678 156.393 47.09 157.805l12.943 12.941c1.411 1.411 1.411 3.69999999999999.0 5.112C59.326 176.563 58.401 176.917 57.476 176.917z" id="path-3" class="cls-4" fill-rule="evenodd"/><path d="M41.671 180.979C40.747 180.979 39.822 180.627 39.116 179.92L32.406 173.21c-1.412-1.41200000000001-1.412-3.702.0-5.113 1.411-1.411 3.699-1.411 5.111.0L44.228 174.808c1.411 1.411 1.411 3.70000000000002.0 5.112C43.521 180.627 42.596 180.979 41.671 180.979z" id="path-4" class="cls-4" fill-rule="evenodd"/><path d="M61.817 161.313C60.892 161.313 59.967 160.959 59.261 160.253L52.551 153.544c-1.412-1.411-1.412-3.702.0-5.11200000000002C53.963 147.02 56.251 147.02 57.662 148.432L64.372 155.143C65.784 156.553 65.784 158.842 64.372 160.253 63.666 160.959 62.741 161.313 61.817 161.313z" id="path-5" class="cls-4" fill-rule="evenodd"/><path d="M83.146 139.984C82.221 139.984 81.296 139.63 80.59 138.924L73.879 132.213C72.468 130.802 72.468 128.512 73.879 127.102 75.292 125.69 77.58 125.69 78.992 127.102L85.701 133.813C87.113 135.223 87.113 137.513 85.701 138.924 84.995 139.63 84.071 139.984 83.146 139.984z" id="path-6" class="cls-4" fill-rule="evenodd"/><path d="M100.375 133.778C99.449 133.778 98.525 133.424 97.819 132.719L84.997 119.897C83.585 118.486 83.585 116.196 84.997 114.786c1.41200000000001-1.413 3.699-1.413 5.111.0l12.823 12.821c1.411 1.411 1.411 3.69999999999999.0 5.112C102.225 133.424 101.3 133.778 100.375 133.778z" id="path-7" class="cls-4" fill-rule="evenodd"/><path d="M104.955 117.694C104.03 117.694 103.105 117.342 102.399 116.637l-6.712-6.711C94.276 108.514 94.276 106.225 95.687 104.813 97.099 103.401 99.387 103.401 100.798 104.812L107.511 111.523C108.922 112.935 108.922 115.224 107.511 116.635 106.804 117.342 105.879 117.694 104.955 117.694z" id="path-8" class="cls-4" fill-rule="evenodd"/><path d="M122.982 111.01C122.057 111.01 121.132 110.657 120.427 109.952L107.798 97.334C106.387 95.923 106.387 93.635 107.797 92.223 109.208 90.809 111.497 90.809 112.909 92.219l12.629 12.618C126.95 106.249 126.95 108.538 125.54 109.949 124.833 110.656 123.907 111.01 122.982 111.01z" id="path-9" class="cls-4" fill-rule="evenodd"/><path d="M127.202 95.368C126.277 95.368 125.352 95.015 124.646 94.308L117.935 87.598c-1.41-1.41199999999999-1.41-3.702.0-5.113 1.413-1.411 3.7-1.411 5.112.0L129.757 89.197C131.169 90.607 131.169 92.897 129.757 94.308 129.051 95.015 128.126 95.368 127.202 95.368z" id="path-10" class="cls-4" fill-rule="evenodd"/><path d="M145.249 89.021C144.326 89.021 143.4 88.669 142.694 87.962l-12.5-12.502C128.782 74.049 128.782 71.76 130.194 70.349 131.605 68.936 133.893 68.936 135.305 70.349l12.501 12.502C149.218 84.261 149.218 86.551 147.806 87.962 147.1 88.669 146.175 89.021 145.249 89.021z" id="path-11" class="cls-4" fill-rule="evenodd"/><path d="M149.409 73.476C148.485 73.476 147.56 73.123 146.854 72.417L140.144 65.708C138.732 64.296 138.732 62.007 140.144 60.597 141.557 59.184 143.843 59.184 145.255 60.597L151.965 67.308C153.378 68.717 153.378 71.006 151.965 72.417 151.259 73.123 150.335 73.476 149.409 73.476z" id="path-12" class="cls-4" fill-rule="evenodd"/><path d="M175.28 48.086C174.355 48.086 173.43 47.732 172.724 47.026L166.014 40.315C164.602 38.904 164.602 36.617 166.014 35.205 167.426 33.793 169.713 33.793 171.125 35.205L177.835 41.915C179.247 43.327 179.247 45.615 177.835 47.026 177.129 47.732 176.205 48.086 175.28 48.086z" id="path-13" class="cls-4" fill-rule="evenodd"/><path d="M167.777 66.493C166.853 66.493 165.928 66.14 165.222 65.434L152.721 52.933C151.309 51.52 151.309 49.232 152.721 47.82 154.133 46.409 156.421 46.409 157.832 47.82l12.501 12.502C171.745 61.734 171.745 64.023 170.333 65.434 169.627 66.14 168.702 66.493 167.777 66.493z" id="path-14" class="cls-4" fill-rule="evenodd"/><path d="M134.87 33.407s-10.544 10.546-10.544 10.546-26.64-26.641-26.64-26.641S108.231 6.767 108.231 6.767C116.551-1.554 129.231-2.295 136.562 5.038 140.246 8.721 141.903 13.755 141.573 18.871 141.289 24.03 139.011 29.266 134.87 33.407z" id="path-15" class="cls-17" fill-rule="evenodd"/><path d="M110.477 17.246C109.945 17.246 109.404 17.128 108.894 16.88 107.101 16.004 106.354 13.841 107.23 12.045c3.675-7.533 12.259-10.938 19.134-7.585C128.159 5.334 128.905 7.498 128.03 9.293 127.154 11.085 124.989 11.831 123.197 10.958 119.9 9.35 115.657 11.262 113.728 15.216 113.102 16.5 111.815 17.246 110.477 17.246z" id="path-16" class="cls-18" fill-rule="evenodd"/><path d="M12.609 102.13s87.69-87.334 87.69-87.334S127.01 41.507 127.01 41.507 38.18 129.86 38.18 129.86s0 0 0 0" id="path-17" class="cls-19" fill-rule="evenodd"/><path d="M15.44 135.621S-.014 141.654-.014 141.654s5.407-16.079 5.407-16.079S15.44 135.621 15.44 135.621z" id="path-18" class="cls-4" fill-rule="evenodd"/><path d="M28.024 102.225s-9.886.0-9.886.0S12.609 102.13 12.609 102.13s-7.216 23.445-7.216 23.445 10.046 10.046 10.046 10.046S38.18 129.86 38.18 129.86 38.954 122.713 38.954 122.713 38.958 113.168 38.958 113.168s-11.157 1.538-11.157 1.538S28.024 102.225 28.024 102.225z" id="path-19" class="cls-3" fill-rule="evenodd"/><path d="M126.163.134C127.325.831 128.42 1.662 129.411 2.653 133.096 6.338 134.752 11.371 134.422 16.487 134.138 21.647 131.859 26.882 127.719 31.024L121.941 36.802s4.768 4.765 4.768 4.765 8.161-8.16 8.161-8.16C139.01 29.266 141.289 24.032 141.573 18.871 141.903 13.755 140.246 8.721 136.562 5.038 133.714 2.189 130.055.574 126.163.134z" id="path-20" class="cls-22" fill-rule="evenodd"/><path d="M98.528 16.209s14.458 18.547 14.458 18.547C115.562 38.059 115.276 42.763 112.322 45.731l-73.35 73.692S38.18 129.86 38.18 129.86s88.83-88.353 88.83-88.353-26.711-26.711-26.711-26.711-1.771 1.413-1.771 1.413z" id="path-21" class="cls-22" fill-rule="evenodd"/><path d="M25.707 102.225s1.03 12.126 1.03 12.126S27.801 114.706 27.801 114.706 28.024 102.225 28.024 102.225s-2.317.0-2.317.0z" id="path-22" class="cls-22" fill-rule="evenodd"/><path d="M32.512 126.801S12.055 132.237 12.055 132.237 15.439 135.621 15.439 135.621 38.18 129.86 38.18 129.86 38.954 122.713 38.954 122.713 38.958 113.168 38.958 113.168 36.55 113.499 36.55 113.499s-4.038 13.302-4.038 13.302z" id="path-23" class="cls-22" fill-rule="evenodd"/><path d="M40.235 89.677C39.31 89.677 38.386 89.324 37.679 88.618 36.268 87.207 36.268 84.919 37.679 83.507L90.516 30.671C91.928 29.259 94.215 29.259 95.627 30.671 97.039 32.083 97.039 34.371 95.627 35.782L42.791 88.618C42.085 89.324 41.16 89.677 40.235 89.677z" id="path-24" class="cls-18" fill-rule="evenodd"/></g></svg>