<svg xmlns="http://www.w3.org/2000/svg" xmlns:xlink="http://www.w3.org/1999/xlink" preserveAspectRatio="xMidYMid" width="150" height="216" viewBox="0 0 150 216"><defs><style>.cls-3{fill:#142a3b}.cls-5{fill:#000;opacity:.35}.cls-6{fill:#fbb713}.cls-8{fill:#ff3a2f}.cls-10{fill:#2476ff}.cls-11{fill:#221e1f}</style></defs><g id="group-108svg"><path d="M149.926 178.807s-33.746.0-33.746.0.0-72.965.0-72.965 33.746.0 33.746.0.0 72.965.0 72.965zm-26.561-7.184s19.377.0 19.377.0.0-58.596.0-58.596-19.377.0-19.377.0.0 58.596.0 58.596z" id="path-1" class="cls-3" fill-rule="evenodd"/><path d="M123.139 196.749c0 10.376-8.48299999999999 18.794-18.945 18.794H18.943C8.481 215.543-.001 207.125-.001 196.749V93.381s123.14.0 123.14.0.0 103.368.0 103.368z" id="path-2" class="cls-3" fill-rule="evenodd"/><path d="M102.937 93.381s0 89.898.0 89.898c0 10.376-8.482 18.793-18.945 18.793H.783C3.098 209.855 10.347 215.543 18.943 215.543h85.251c10.462.0 18.945-8.41800000000001 18.945-18.794V93.381s-20.202.0-20.202.0z" id="path-3" class="cls-5" fill-rule="evenodd"/><path d="M103.07.01c9.777 14.79-4.708 22.902-8.08 30.84C91.417 39.255 94.894 47.312 103.372 50.852 130.845 62.344 139.021 8.641 103.07.01z" id="path-4" class="cls-6" fill-rule="evenodd"/><path d="M94.722 93.381s15.54-40.82 15.54-40.82-9.768-3.229-9.768-3.229S75.777 93.381 75.777 93.381s18.945.0 18.945.0z" id="path-5" class="cls-3" fill-rule="evenodd"/><path d="M47.361 93.381s-28.418.0-28.418.0S4.735 65.189 4.735 65.189-.001 36.998-.001 36.998 23.68 51.093 23.68 51.093 47.361 93.381 47.361 93.381z" id="path-6" class="cls-8" fill-rule="evenodd"/><path d="M8.35 66.095c-1.098.0-2.18-.5-2.885-1.447-1.184-1.593-.855-3.843.737-5.028l11.271-8.388C19.069 50.05 21.316 50.376 22.501 51.969 23.685 53.562 23.355 55.812 21.764 56.997L10.492 65.383C9.846 65.863 9.096 66.095 8.35 66.095z" id="path-7" class="cls-3" fill-rule="evenodd"/><path d="M73.844 93.38s0-40.138.0-40.138S61.311 28.828 61.311 28.828 50.247 55.216 50.247 55.216s0 38.165.0 38.165S73.844 93.38 73.844 93.38z" id="path-8" class="cls-10" fill-rule="evenodd"/><path d="M70.815 60.854s-16.578.0-16.578.0c-1.984.0-3.593-1.611-3.593-3.594C50.644 55.276 52.253 53.667 54.237 53.667H70.815c1.983.0 3.592 1.609 3.592 3.593C74.407 59.243 72.798 60.854 70.815 60.854z" id="path-9" class="cls-11" fill-rule="evenodd"/></g></svg>