<svg xmlns="http://www.w3.org/2000/svg" xmlns:xlink="http://www.w3.org/1999/xlink" preserveAspectRatio="xMidYMid" width="188" height="216" viewBox="0 0 188 216"><defs><style>.cls-3{fill:#fbb713}.cls-4{fill:#000;opacity:.25}.cls-6{fill:#0cb04a}.cls-8{fill:#ededed}</style></defs><g id="group-120svg"><path d="M83.097 66.991S81.174 46.464 88.996 27.966c-11.08 1.842-20.389 8.647-25.396 17.97-5.773-3.936-12.797-6.27-20.406-6.27-19.55.0-43.195 15.291-43.195 34.162.0.0.811 96.198 26.731 130.211.0.0 19.278 27.239 43.093-2.202C77.272 211.596 89.994 212.858 91.624 212.858L95.746 212.87C97.381 212.87 110.098 211.616 117.552 201.85c23.814 29.448 43.098 2.203 43.098 2.203 25.921-34.013 26.783-130.225 26.783-130.225.0-18.871-23.641-34.162-43.194-34.162C137.467 39.666 131.158 41.528 125.781 44.713c-2.935-4.969-7.125-9.139-12.149-12.146C112.034 34.211 110.669 36.007 109.504 37.891 101.347 51.078 102.976 68.585 102.976 68.585s0 0 0 0" id="path-1" class="cls-3" fill-rule="evenodd"/><path d="M163.813 44.215C167.82 49.172 170.316 54.887 170.316 60.99c0 0-.863 96.212-26.782 130.225.0.0-10.685 15.074-25.964 10.657C141.376 231.283 160.65 204.052 160.65 204.052c25.921-34.012 26.784-130.224 26.784-130.224.0-12.68-10.685-23.72-23.621-29.613z" id="path-2" class="cls-4" fill-rule="evenodd"/><path d="M65.963 42.195C65.534 49.292 65.979 54.152 65.979 54.152s17.075 1.371 17.075 1.371C83.474 47.953 84.883 37.693 88.996 27.966 79.465 29.55 71.263 34.823 65.963 42.195z" id="path-3" class="cls-4" fill-rule="evenodd"/><path d="M93.96 81.84C93.823 81.84 93.688 81.832 93.552 81.817 92.085 81.648 90.869 80.602 90.489 79.176 87.003 66.151 68.277 67.534 68.09 67.543 66.102 67.724 64.378 66.232 64.217 64.256 64.055 62.278 65.527 60.544 67.504 60.383 68.386 60.31 86.498 59.002 94.546 70.907c8.734-10.537 20.752-10.537 25.09-10.537C121.62 60.37 123.229 61.98 123.229 63.964 123.229 65.947 121.62 67.555 119.636 67.555c-4.764.0-15.923.0-22.506 12.38-.628 1.181-1.854 1.905-3.17 1.905z" id="path-4" class="cls-6" fill-rule="evenodd"/><path d="M121.339.306C103.84 4.098 94.236 15.577 88.996 27.966 82.905 42.372 82.723 58.008 82.941 64.221 83.008 66.138 83.879 67.922 85.402 69.086c2.801 2.14 7.878 4.794 13.68 2.098C101.398 70.107 102.861 67.759 102.844 65.205 102.802 58.351 103.86 42.621 113.632 32.567c2.425-2.498 5.383-4.648 9.005-6.225 22.677-9.87 10.368-28.978-1.298-26.036z" id="path-5" class="cls-6" fill-rule="evenodd"/><path d="M16.844 110.972C14.86 110.972 13.252 109.364 13.252 107.38V88.302c-2.645-15.806 9.469-25.048 16.29-27.738C31.387 59.834 33.475 60.743 34.201 62.588 34.927 64.427 34.027 66.51 32.189 67.242 31.603 67.477 17.844 73.201 20.38 87.36L20.437 87.993s0 19.387.0 19.387c0 1.98400000000001-1.609 3.592-3.593 3.592z" id="path-6" class="cls-8" fill-rule="evenodd"/><path d="M100.434 189.013C92.981 198.777 80.263 200.033 78.629 200.033L74.507 200.02c-1.631.0-14.352-1.262-21.802-11.02-10.366 12.814-19.871 14.887-27.302 13.144C25.843 202.78 26.274 203.441 26.73 204.039c0 0 19.278 27.239 43.093-2.202C77.272 211.596 89.994 212.858 91.624 212.858L95.746 212.872c1.63300000000001.0 14.34-1.256 21.793-11.009C112.295 200.339 106.514 196.531 100.434 189.013z" id="path-7" class="cls-4" fill-rule="evenodd"/></g></svg>