<svg xmlns="http://www.w3.org/2000/svg" xmlns:xlink="http://www.w3.org/1999/xlink" preserveAspectRatio="xMidYMid" width="216" height="216" viewBox="0 0 216 216"><defs><style>.cls-3{fill:#fbb713}.cls-4{fill:#ededed}.cls-5{fill:#ff3a2f}.cls-6{fill:#000;opacity:.35}</style></defs><g id="group-156svg"><path d="M111.525 17.815c23.794-23.791 62.359-23.791 86.144.0 23.794 23.785 23.794 62.349.0 86.142l-93.712 93.709c-23.785 23.784-62.359 23.784-86.144.0-23.785-23.793-23.785-62.357.0-86.141l93.712-93.71z" id="path-1" class="cls-3" fill-rule="evenodd"/><path d="M184.419 34.659C183.499 34.659 182.579 34.308 181.879 33.605 173.347 25.071 162.005 20.371 149.94 20.371s-23.409 4.702-31.945 13.234C116.592 35.009 114.319 35.009 112.916 33.605c-1.404-1.40199999999999-1.404-3.676.0-5.08C122.807 18.635 135.955 13.188 149.94 13.188c13.986.0 27.132 5.447 37.018 15.337 1.404 1.404 1.404 3.68.0 5.08C186.257 34.308 185.338 34.659 184.419 34.659z" id="path-2" class="cls-4" fill-rule="evenodd"/><path d="M146.145 155.479s-42.188 42.187-42.188 42.187c-23.785 23.784-62.359 23.784-86.144.0-23.785-23.793-23.785-62.357.0-86.141L52.084 77.256S65.575 65.568 65.575 65.568s84.341 84.338 84.341 84.338S146.145 155.479 146.145 155.479z" id="path-3" class="cls-5" fill-rule="evenodd"/><path d="M210.58 36.947C212.051 54.218 206.204 71.997 192.983 85.216L99.271 178.925c-23.785 23.783-62.359 23.783-86.143.0C7.463 173.257 3.19 166.738.223 159.794c1.177 13.812 7.022 27.301 17.59 37.872 23.785 23.784 62.359 23.784 86.144.0l93.712-93.709c18.126-18.124 22.401-44.805 12.911-67.01z" id="path-4" class="cls-6" fill-rule="evenodd"/></g></svg>