<svg xmlns="http://www.w3.org/2000/svg" xmlns:xlink="http://www.w3.org/1999/xlink" preserveAspectRatio="xMidYMid" width="218" height="212" viewBox="0 0 218 212"><defs><style>.cls-3{fill:#fbb713}.cls-4{fill:#010101;opacity:.25}.cls-5{fill:#ff3a2f}.cls-7{fill:#33485d}.cls-12{fill:#020200;opacity:.35}.cls-20{fill:#fff}</style></defs><g id="group-57svg"><path d="M108.45 89.051c-49.057.0-88.827 39.77-88.827 88.83H197.278c0-49.06-39.769-88.83-88.828-88.83z" id="path-1" class="cls-3" fill-rule="evenodd"/><path d="M113.223 89.183c18.425 10.792 32.621 28.023 39.48 48.61C157.32 151.645 146.497 165.867 131.896 165.867H20.454C19.922 169.799 19.623 173.804 19.623 177.881H197.278c0-47.458-37.216-86.219-84.055-88.698z" id="path-2" class="cls-4" fill-rule="evenodd"/><path d="M216.887 212.006s-216.874.0-216.874.0.0-34.125.0-34.125 216.874.0 216.874.0.0 34.125.0 34.125z" id="path-3" class="cls-5" fill-rule="evenodd"/><path d="M196.866 177.881s0 8.739.0 8.739c0 9.59700000000001-7.78 17.377-17.377 17.377H.013S.013 212.006.013 212.006s216.874.0 216.874.0.0-34.125.0-34.125-20.021.0-20.021.0z" id="path-4" class="cls-4" fill-rule="evenodd"/><path d="M197.171 34.783s-41.776 86.07-41.776 86.07 28.329-91.382 28.329-91.382 13.447 5.312 13.447 5.312z" id="path-5" class="cls-7" fill-rule="evenodd"/><path d="M131.503 18.721s-13.59 94.702-13.59 94.702S117.077 17.753 117.077 17.753s14.426.968 14.426.968z" id="path-6" class="cls-7" fill-rule="evenodd"/><path d="M32.335 31.747s28.33 91.384 28.33 91.384S18.889 37.06 18.889 37.06s13.446-5.313 13.446-5.313z" id="path-7" class="cls-7" fill-rule="evenodd"/><path d="M215.753 23.02c0 11.461-9.291 20.752-20.752 20.752-11.46.0-20.752-9.291-20.752-20.752.0-11.461 9.292-20.752 20.752-20.752 11.461.0 20.752 9.291 20.752 20.752z" id="path-8" class="cls-5" fill-rule="evenodd"/><path d="M145.169 20.743C145.169 32.203 135.878 41.495 124.418 41.495 112.957 41.495 103.666 32.203 103.666 20.743c0-11.461 9.291-20.752 20.752-20.752 11.46.0 20.751 9.291 20.751 20.752z" id="path-9" class="cls-5" fill-rule="evenodd"/><path d="M195.001 2.268C193.63 2.268 192.294 2.418 190.997 2.672c9.541 1.867 16.746 10.258 16.746 20.348S200.538 41.5 190.997 43.368C192.294 43.622 193.63 43.772 195.001 43.772c11.461.0 20.752-9.291 20.752-20.752.0-11.461-9.291-20.752-20.752-20.752z" id="path-10" class="cls-12" fill-rule="evenodd"/><path d="M124.418-.009C123.046-.009 121.711.141 120.413.395 129.955 2.263 137.161 10.653 137.161 20.742 137.161 30.832 129.955 39.223 120.413 41.091 121.711 41.346 123.046 41.495 124.418 41.495 135.878 41.495 145.169 32.203 145.169 20.742 145.169 9.282 135.878-.009 124.418-.009z" id="path-11" class="cls-12" fill-rule="evenodd"/><path d="M42.159 27.574c0 11.461-9.29 20.752-20.75 20.752C9.948 48.326.656 39.035.656 27.574.656 16.113 9.948 6.821 21.409 6.821c11.46.0 20.75 9.292 20.75 20.753z" id="path-12" class="cls-5" fill-rule="evenodd"/><path d="M21.409 6.821c-1.373.0-2.708.15-4.005.405 9.542 1.868 16.747 10.258 16.747 20.348.0 10.089-7.205 18.48-16.747 20.347C18.701 48.176 20.036 48.326 21.409 48.326c11.46.0 20.75-9.291 20.75-20.752.0-11.462-9.29-20.753-20.75-20.753z" id="path-13" class="cls-12" fill-rule="evenodd"/><path d="M110.452 107.664c0 3.53399999999999-2.867 6.401-6.402 6.401s-6.401-2.867-6.401-6.401c0-3.536 2.866-6.402 6.401-6.402s6.402 2.866 6.402 6.402z" id="path-14" class="cls-12" fill-rule="evenodd"/><path d="M106.447 155.716C106.447 159.251 103.581 162.117 100.047 162.117 96.511 162.117 93.644 159.251 93.644 155.716 93.644 152.18 96.511 149.315 100.047 149.315 103.581 149.315 106.447 152.18 106.447 155.716z" id="path-15" class="cls-12" fill-rule="evenodd"/><path d="M66.432 126.649c-2.501 2.5-6.553 2.5-9.053.0-2.5-2.499-2.5-6.553.0-9.05200000000001 2.5-2.5 6.552-2.5 9.053.0C68.931 120.096 68.931 124.15 66.432 126.649z" id="path-16" class="cls-12" fill-rule="evenodd"/><path d="M50.616 161.801c-2.5 2.5-6.554 2.5-9.054.0C39.063 159.3 39.063 155.248 41.562 152.747c2.5-2.5 6.554-2.5 9.054.0C53.116 155.248 53.116 159.3 50.616 161.801z" id="path-17" class="cls-12" fill-rule="evenodd"/><path d="M15.529 32.1c-2.499 2.499-6.553 2.499-9.052.0-2.5-2.499-2.5-6.553.0-9.052 2.499-2.5 6.553-2.5 9.052.0 2.5 2.499 2.5 6.553.0 9.052z" id="path-18" class="cls-20" fill-rule="evenodd"/><path d="M122.438 17.749C119.938 20.249 115.886 20.249 113.386 17.749c-2.5-2.499-2.5-6.552.0-9.052C115.886 6.197 119.938 6.197 122.438 8.697s2.5 6.553.0 9.052z" id="path-19" class="cls-20" fill-rule="evenodd"/><path d="M193.127 17.749c-2.5 2.5-6.554 2.5-9.053.0C181.575 15.25 181.575 11.197 184.074 8.697c2.499-2.5 6.553-2.5 9.053.0C195.625 11.197 195.625 15.25 193.127 17.749z" id="path-20" class="cls-20" fill-rule="evenodd"/><path d="M162.507 155.716C162.507 159.251 159.641 162.117 156.105 162.117 152.57 162.117 149.705 159.251 149.705 155.716 149.705 152.18 152.57 149.315 156.105 149.315 159.641 149.315 162.507 152.18 162.507 155.716z" id="path-21" class="cls-12" fill-rule="evenodd"/><path d="M142.485 127.685C142.485 131.221 139.62 134.087 136.084 134.087 132.549 134.087 129.683 131.221 129.683 127.685 129.683 124.15 132.549 121.283 136.084 121.283 139.62 121.283 142.485 124.15 142.485 127.685z" id="path-22" class="cls-12" fill-rule="evenodd"/></g></svg>