<svg xmlns="http://www.w3.org/2000/svg" xmlns:xlink="http://www.w3.org/1999/xlink" preserveAspectRatio="xMidYMid" width="218" height="218" viewBox="0 0 218 218"><defs><style>.cls-3{fill:#fbb713}.cls-4{fill:#020403;opacity:.35}.cls-5{fill:#ededed}.cls-6{fill:#020403;opacity:.2}.cls-7{fill:#4f4f6f}.cls-8{fill:#142a3b}</style></defs><g id="group-125svg"><path d="M92.059 171.087C129.603 193.863 161.054 177.401 192.503 139.96 224.067 102.385 226.869 54.298 195.231 22.659 169.457-3.115 132.811-6.533 99.761 10.56L53.762 49.857c-18.863 23.76-23.78 48.149-6.936 75.985l45.233 45.245z" id="path-1" class="cls-3" fill-rule="evenodd"/><path d="M108.434 62.138c-11.654 11.653-30.548 11.653-42.201.0-11.653-11.654-11.653-30.548.0-42.201 11.653-11.654 30.547-11.654 42.201.0 11.653 11.653 11.653 30.547.0 42.201z" id="path-2" class="cls-4" fill-rule="evenodd"/><path d="M97.244 50.949c-11.654 11.652-30.548 11.652-42.202.0-11.652-11.654-11.652-30.548.0-42.203 11.654-11.653 30.548-11.653 42.202.0 11.652 11.655 11.652 30.549.0 42.203z" id="path-3" class="cls-5" fill-rule="evenodd"/><path d="M97.244 8.745c-3.101-3.099-6.721-5.35-10.574-6.799C97.673 13.643 97.487 32.031 86.053 43.465 77.501 52.018 65.055 54.268 54.426 50.267 54.637 50.491 54.824 50.73 55.042 50.948c11.654 11.653 30.548 11.653 42.202.0 11.652-11.653 11.652-30.547.0-42.203z" id="path-4" class="cls-6" fill-rule="evenodd"/><path d="M60.954 34.545c-1.88.0-3.466-1.454-3.603-3.358C56.965 25.734 58.96 20.389 62.823 16.526c3.249-3.25 7.563-5.197 12.147-5.481C76.964 10.926 78.677 12.436 78.801 14.43 78.924 16.421 77.41 18.137 75.418 18.261 72.594 18.435 69.938 19.635 67.934 21.638 65.553 24.019 64.325 27.313 64.563 30.675 64.704 32.666 63.204 34.395 61.214 34.536 61.127 34.542 61.041 34.545 60.954 34.545z" id="path-5" class="cls-7" fill-rule="evenodd"/><path d="M35.907 83.62C33.469 97.157 36.154 111.255 45.303 126.374c5.707 9.429 3.286 21.671-5.449 28.389L4.166 182.216c-5.083 3.91-5.57 11.4-1.035 15.935l15.622 15.622C23.288 218.308 30.776 217.823 34.687 212.738L62.132 177.06C68.856 168.318 81.108 165.9 90.536 171.618 105.69 180.812 119.842 183.52 133.412 181.127L35.907 83.62z" id="path-6" class="cls-8" fill-rule="evenodd"/><path d="M192.503 117.558c-31.449 37.439-62.9 53.901-100.444 31.126C82.631 142.964 70.379 145.384 63.655 154.124L36.21 189.804C32.299 194.887 24.811 195.373 20.276 190.838L8.76 179.322S5.69 181.684 5.69 181.684c-5.084 3.911-5.571 11.4-1.036 15.935l15.622 15.623C24.811 217.776 32.299 217.289 36.21 212.205l27.445-35.677C70.379 167.788 82.631 165.367 92.059 171.087 129.603 193.863 161.054 177.401 192.503 139.96c19.306-22.983 27.789-49.89 24.274-74.568C214.293 83.295 206.077 101.396 192.503 117.558z" id="path-7" class="cls-4" fill-rule="evenodd"/><path d="M45.273 105.819C40.648 98.175 37.718 90.801 36.212 83.62 33.18 97.694 36.78 112.361 46.303 128.135 50.331 121.433 49.527 112.847 45.273 105.819z" id="path-8" class="cls-4" fill-rule="evenodd"/></g></svg>