<svg xmlns="http://www.w3.org/2000/svg" xmlns:xlink="http://www.w3.org/1999/xlink" preserveAspectRatio="xMidYMid" width="132" height="217" viewBox="0 0 132 217"><defs><style>.cls-3{fill:#142a3b}.cls-4{fill:#040404;opacity:.35}.cls-5{fill:#ff3a2f}.cls-6{fill:#fff;opacity:.4}.cls-8{fill:#ffe56d}.cls-9{fill:#fbb713;opacity:.5}.cls-10{fill:#0cb04a}.cls-12{fill:#fff}</style></defs><g id="group-68svg"><path d="M72.723 6.436S39.569 39.589 39.569 39.589 65.886 65.908 65.886 65.908s42.442-42.445 42.442-42.445S131.777.014 131.777.014 72.723 6.436 72.723 6.436z" id="path-1" class="cls-3" fill-rule="evenodd"/><path d="M72.723 6.436s-6.837 59.472-6.837 59.472S39.569 39.589 39.569 39.589 72.723 6.436 72.723 6.436z" id="path-2" class="cls-4" fill-rule="evenodd"/><path d="M125.357 72.741S92.205 39.588 92.205 39.588s-26.319 26.32-26.319 26.32 42.442 42.441 42.442 42.441 23.451 23.452 23.451 23.452-6.422-59.06-6.422-59.06z" id="path-3" class="cls-5" fill-rule="evenodd"/><path d="M125.357 72.741s-59.471-6.833-59.471-6.833 26.319-26.32 26.319-26.32 33.152 33.153 33.152 33.153z" id="path-4" class="cls-6" fill-rule="evenodd"/><path d="M65.886 216.891C63.661 216.891 61.856 215.085 61.856 212.86V63.605C61.856 61.381 63.661 59.575 65.886 59.575c2.226.0 4.03 1.806 4.03 4.02999999999999V212.86C69.916 215.085 68.112 216.891 65.886 216.891z" id="path-5" class="cls-3" fill-rule="evenodd"/><path d="M65.886 65.908s-42.444 42.441-42.444 42.441S-.007 131.801-.007 131.801 59.051 125.378 59.051 125.378 92.205 92.225 92.205 92.225 65.886 65.908 65.886 65.908z" id="path-6" class="cls-8" fill-rule="evenodd"/><path d="M59.051 125.378S65.886 65.908 65.886 65.908 92.205 92.225 92.205 92.225s-33.154 33.153-33.154 33.153z" id="path-7" class="cls-9" fill-rule="evenodd"/><path d="M23.442 23.463S-.007.011-.007.011s6.421 59.06 6.421 59.06S39.567 92.225 39.567 92.225 65.886 65.908 65.886 65.908 23.442 23.463 23.442 23.463z" id="path-8" class="cls-10" fill-rule="evenodd"/><path d="M6.414 59.071s59.472 6.837 59.472 6.837S39.567 92.225 39.567 92.225 6.414 59.071 6.414 59.071z" id="path-9" class="cls-6" fill-rule="evenodd"/><path d="M69.664 69.686c-2.087 2.089-5.47 2.089-7.558.0C60.017 67.598 60.017 64.216 62.106 62.127 64.194 60.038 67.577 60.038 69.664 62.127 71.753 64.216 71.753 67.598 69.664 69.686z" id="path-10" class="cls-12" fill-rule="evenodd"/></g></svg>