<svg xmlns="http://www.w3.org/2000/svg" xmlns:xlink="http://www.w3.org/1999/xlink" preserveAspectRatio="xMidYMid" width="216" height="216" viewBox="0 0 216 216"><defs><style>.cls-3{fill:#ff3a2f}.cls-4{fill:#fbb713}.cls-5{fill:#000;opacity:.35}.cls-15{fill:#142a3b}</style></defs><g id="group-144svg"><path d="M107.771-.013C48.255-.013.001 48.239.001 107.754c0 59.514 48.254 107.766 107.77 107.766 59.515.0 107.77-48.252 107.77-107.766.0-59.515-48.255-107.767-107.77-107.767z" id="path-1" class="cls-3" fill-rule="evenodd"/><path d="M107.771 17.949c-49.605.0-89.808 40.201-89.808 89.805.0 49.603 40.203 89.805 89.808 89.805 49.596.0 89.808-40.202 89.808-89.805.0-49.604-40.212-89.805-89.808-89.805z" id="path-2" class="cls-4" fill-rule="evenodd"/><path d="M143.211 25.238c27.289 15.409 45.747 44.628 45.747 78.205.0 49.603-40.212 89.805-89.809 89.805C86.557 193.248 74.581 190.636 63.705 185.958 76.73 193.313 91.744 197.559 107.771 197.559c49.596.0 89.808-40.202 89.808-89.805.0-37.011-22.399-68.768-54.368-82.516z" id="path-3" class="cls-5" fill-rule="evenodd"/><circle id="circle-1" class="cls-3" cx="108" cy="45" r="14"/><circle id="circle-2" class="cls-3" cx="108" cy="171" r="14"/><circle id="circle-3" class="cls-3" cx="45" cy="108" r="14"/><circle id="circle-4" class="cls-3" cx="171" cy="108" r="14"/><path d="M63.323 76.779C59.727 76.779 56.342 75.374 53.798 72.831c-2.548-2.553-3.951-5.938-3.951-9.533C49.852 59.702 51.255 56.316 53.802 53.781c5.078-5.085 13.959-5.085 19.045.0C78.101 59.035 78.101 67.578 72.847 72.831 70.304 75.374 66.919 76.779 63.323 76.779z" id="path-4" class="cls-3" fill-rule="evenodd"/><path d="M152.223 165.671C148.627 165.671 145.242 164.267 142.694 161.724 137.446 156.488 137.441 147.947 142.69 142.675 147.803 137.59 156.665 137.59 161.752 142.675 167.005 147.929 167.005 156.471 161.752 161.724 159.204 164.267 155.824 165.671 152.223 165.671z" id="path-5" class="cls-3" fill-rule="evenodd"/><path d="M63.319 165.671c-3.601.0-6.982-1.404-9.526-3.947C51.255 159.19 49.852 155.805 49.847 152.209 49.847 148.612 51.25 145.228 53.798 142.675 58.885 137.59 67.761 137.59 72.847 142.675 78.101 147.947 78.096 156.488 72.843 161.724 70.3 164.267 66.919 165.671 63.319 165.671z" id="path-6" class="cls-3" fill-rule="evenodd"/><path d="M152.223 76.779c-3.596.0-6.977-1.405-9.524-3.94799999999999C137.441 67.578 137.441 59.035 142.694 53.781 147.799 48.696 156.652 48.696 161.747 53.781 167.005 59.035 167.005 67.578 161.752 72.831 159.2 75.374 155.819 76.779 152.223 76.779z" id="path-7" class="cls-3" fill-rule="evenodd"/><circle id="circle-5" class="cls-3" cx="108" cy="108" r="14"/><path d="M95.616 78.598C94.696 78.598 93.777 78.247 93.076 77.545l-8.981-8.98C82.692 67.161 82.692 64.888 84.095 63.485 85.498 62.082 87.771 62.082 89.175 63.485L98.156 72.466C99.559 73.869 99.559 76.142 98.156 77.545 97.454 78.247 96.535 78.598 95.616 78.598z" id="path-8" class="cls-15" fill-rule="evenodd"/><path d="M113.577 72.249C112.658 72.249 111.739 71.898 111.037 71.196 109.634 69.792 109.634 67.519 111.037 66.116l8.981-8.981C121.421 55.732 123.695 55.732 125.098 57.135S126.501 60.812 125.098 62.216l-8.981 8.98C115.415 71.898 114.496 72.249 113.577 72.249z" id="path-9" class="cls-15" fill-rule="evenodd"/><path d="M68.673 105.539C67.754 105.539 66.835 105.189 66.133 104.486l-8.981-8.979C55.749 94.103 55.749 91.83 57.152 90.427 58.556 89.023 60.829 89.023 62.232 90.427L71.213 99.407C72.616 100.81 72.616 103.083 71.213 104.486 70.511 105.189 69.592 105.539 68.673 105.539z" id="path-10" class="cls-15" fill-rule="evenodd"/><path d="M74.351 129.306s-8.981.0-8.981.0C63.386 129.306 61.778 127.697 61.778 125.715 61.778 123.729 63.386 122.121 65.37 122.121h8.981c1.983.0 3.592 1.608 3.592 3.59400000000001C77.943 127.697 76.334 129.306 74.351 129.306z" id="path-11" class="cls-15" fill-rule="evenodd"/><path d="M101.294 147.267C99.31 147.267 97.701 145.658 97.701 143.674V134.694C97.701 132.712 99.31 131.102 101.294 131.102 103.277 131.102 104.886 132.712 104.886 134.694V143.674C104.886 145.658 103.277 147.267 101.294 147.267z" id="path-12" class="cls-15" fill-rule="evenodd"/><path d="M146.198 129.306s-8.981.0-8.981.0C135.233 129.306 133.625 127.697 133.625 125.715 133.625 123.729 135.233 122.121 137.217 122.121h8.981C148.181 122.121 149.79 123.729 149.79 125.715 149.79 127.697 148.181 129.306 146.198 129.306z" id="path-13" class="cls-15" fill-rule="evenodd"/><path d="M131.539 108.17C130.62 108.17 129.701 107.819 128.999 107.118 127.596 105.715 127.596 103.442 128.999 102.038l8.981-8.981C139.383 91.655 141.656 91.655 143.06 93.057 144.463 94.461 144.463 96.734 143.06 98.137l-8.981 8.981C133.377 107.819 132.458 108.17 131.539 108.17z" id="path-14" class="cls-15" fill-rule="evenodd"/></g></svg>