<svg xmlns="http://www.w3.org/2000/svg" xmlns:xlink="http://www.w3.org/1999/xlink" preserveAspectRatio="xMidYMid" width="216" height="218" viewBox="0 0 216 218"><defs><style>.cls-3{fill:#fbb713}.cls-4{fill:#fff}.cls-6{fill:#0cb04a}.cls-7{fill:#020403;opacity:.25}.cls-9{fill:#8e6602}.cls-10{fill:#142a3b}.cls-12{fill:#020403}</style></defs><g id="group-127svg"><path d="M102.524 165.608c0 28.315-22.953 51.268-51.267 51.268-28.314.0-51.266-22.953-51.266-51.268S22.943 114.34 51.257 114.34s51.267 22.953 51.267 51.268z" id="path-1" class="cls-3" fill-rule="evenodd"/><path d="M13.846 172.528c-1.995.0-3.614-1.618-3.614-3.614.0-24.386 19.838-44.225 44.222-44.225C56.45 124.689 58.069 126.307 58.069 128.304 58.069 130.3 56.45 131.918 54.454 131.918c-20.397.0-36.993 16.596-36.993 36.996.0 1.99600000000001-1.619 3.614-3.615 3.614z" id="path-2" class="cls-4" fill-rule="evenodd"/><path d="M53.423 165.608C51.854 165.608 50.58 164.328 50.58 162.753 50.58 161.176 51.854 159.903 53.423 159.903c1.566.0 2.839 1.273 2.839 2.84999999999999C56.262 164.328 54.989 165.608 53.423 165.608z" id="path-3" class="cls-3" fill-rule="evenodd"/><path d="M193.274 2.005c-15.845 9.834-59.853 45.272-79.934 73.938-4.476 6.392-24.725 25.065-24.725 25.065s27.811 23.721 27.718 23.239C115.735 121.077 114.744 111.651 124.722 101.703c11.506-11.473 40.557-53.759 74.114-64.677C232.389 26.108 210.465-8.661 193.274 2.005z" id="path-4" class="cls-6" fill-rule="evenodd"/><path d="M208.455 2.865C214.84 11.693 214.295 26.346 194.572 32.763c-33.556 10.918-62.607 53.205-74.114 64.677C110.481 107.387 110.612 108.496 111.21 111.667 111.28 112.025 100.472 104.003 92.574 97.287 92.362 97.482 91.693 98.077 91.693 98.077s24.733 26.652 24.64 26.17C115.735 121.077 114.744 111.651 124.722 101.703c11.506-11.473 40.557-53.759 74.114-64.677 23.436-7.627 19.796-26.874 9.619-34.161z" id="path-5" class="cls-7" fill-rule="evenodd"/><path d="M55.043 114.531c17.919 7.99 30.428 25.926 30.428 46.813.0 28.315-22.953 51.269-51.267 51.269C32.926 212.613 31.673 212.513 30.418 212.421 36.79 215.262 43.83 216.876 51.257 216.876c28.314.0 51.267-22.954 51.267-51.268.0-27.037-20.942-49.131-47.481-51.077z" id="path-6" class="cls-7" fill-rule="evenodd"/><path d="M60.434 179.174c-5.903.0-10.703-4.816-10.703-10.736C49.731 162.53 54.531 157.721 60.434 157.721c1.797.0 3.526.448999999999984 5.054 1.274l18.795-31.384S87.558 130.846 87.558 130.846C92.031 135.262 95.504 140.457 97.881 146.286L99.011 149.052S71.058 167.24 71.058 167.24C71.102 167.637 71.125 168.037 71.125 168.438 71.125 174.358 66.328 179.174 60.434 179.174zm0-14.223C58.518 164.951 56.96 166.516 56.96 168.438 56.96 170.372 58.518 171.945 60.434 171.945 62.343 171.945 63.896 170.372 63.896 168.438 63.896 167.963 63.799 167.495 63.607 167.052L63.328 166.543C62.682 165.546 61.598 164.951 60.434 164.951zm25.174-25.48s-9.497 15.856-9.497 15.856S89.966 146.313 89.966 146.313C88.752 143.877 87.296 141.59 85.608 139.471z" id="path-7" class="cls-9" fill-rule="evenodd"/><circle id="circle-1" class="cls-10" cx="53" cy="163" r="9"/><path d="M55.838 164.404s-4.994-4.245-4.994-4.245S89.009 96.435 89.009 96.435s28.732 27.683 28.732 27.683-61.903 40.286-61.903 40.286zm34.703-56.455s-24.775 41.37-24.775 41.37 40.414-26.303 40.414-26.303-15.639-15.067-15.639-15.067z" id="path-8" class="cls-10" fill-rule="evenodd"/><path d="M196.726 22.896c-2.49699999999999.0-4.529-2.033-4.529-4.532.0-2.498 2.03200000000001-4.53 4.529-4.53C199.225 13.834 201.257 15.866 201.257 18.364 201.257 20.863 199.225 22.896 196.726 22.896zm0-5.872C195.986 17.024 195.387 17.625 195.387 18.364 195.387 19.104 195.986 19.706 196.726 19.706 197.465 19.706 198.068 19.104 198.068 18.364 198.068 17.625 197.465 17.024 196.726 17.024z" id="path-9" class="cls-12" fill-rule="evenodd"/></g></svg>