<svg xmlns="http://www.w3.org/2000/svg" xmlns:xlink="http://www.w3.org/1999/xlink" preserveAspectRatio="xMidYMid" width="180" height="216" viewBox="0 0 180 216"><defs><style>.cls-3{fill:#0cb04a}.cls-4{fill:#060606;opacity:.25}</style></defs><g id="group-22svg"><path d="M4.501 215.528C3.746 215.528 2.984 215.334 2.3 214.95.888 214.151.01 212.651.01 211.038V4.484C.01 2.87.888 1.37 2.3.573 3.711-.217 5.448-.2 6.825.643L177.944 103.907C179.295 104.709 180.119 106.17 180.119 107.744 180.119 109.322 179.295 110.781 177.944 111.585L6.825 214.893C6.114 215.317 5.308 215.528 4.501 215.528z" id="path-1" class="cls-3" fill-rule="evenodd"/><path d="M177.944 103.907S6.825.643 6.825.643C6.068.179 5.202-.01 4.341.022L150.512 88.231C151.862 89.034 152.687 90.493 152.687 92.068 152.687 93.647 151.862 95.107 150.512 95.91L.01 186.77s0 24.269.0 24.269C.01 212.651.888 214.151 2.3 214.95 2.984 215.334 3.746 215.528 4.501 215.528 5.308 215.528 6.114 215.317 6.825 214.893L177.944 111.585C179.295 110.782 180.119 109.322 180.119 107.744 180.119 106.169 179.295 104.709 177.944 103.907z" id="path-2" class="cls-4" fill-rule="evenodd"/></g></svg>