<svg xmlns="http://www.w3.org/2000/svg" xmlns:xlink="http://www.w3.org/1999/xlink" preserveAspectRatio="xMidYMid" width="168" height="217" viewBox="0 0 168 217"><defs><style>.cls-3{fill:#fbb713}.cls-4{fill:#fff}.cls-5{fill:#020403;opacity:.25}.cls-6{fill:#142a3b}.cls-7{fill:#000;opacity:.35}.cls-8{fill:#ff3a2f}</style></defs><g id="group-12svg"><path d="M167.17 125.786C167.284 121.787 167.362 124.099 167.362 122.286c0-46.168-37.425-82.648-83.591-82.648C37.605 39.638.18 75.645.18 121.813.18 123.626.257 121.787.372 125.786H167.17z" id="path-1" class="cls-3" fill-rule="evenodd"/><path d="M17.685 110.668C15.689 110.668 14.07 109.05 14.07 107.054c0-28.867 23.415-52.35 52.196-52.35C68.262 54.704 69.88 56.323 69.88 58.319 69.88 60.315 68.262 61.933 66.266 61.933c-24.795.0-44.967 20.241-44.967 45.121.0 1.996-1.618 3.614-3.614 3.614z" id="path-2" class="cls-4" fill-rule="evenodd"/><path d="M108.395 43.095c17.17 15.357 28.045 37.63 28.045 62.444C136.44 107.352 136.363 106.89 136.248 111.281H.931C.375 115.182-.012 119.136-.012 123.187-.012 125.001.863 124.452.977 128.841H166.979C167.092 124.452 167.17 124.914 167.17 123.101c0-37.528-24.726-69.392-58.775-80.006z" id="path-3" class="cls-5" fill-rule="evenodd"/><path d="M144.695 215.784s-121.849.0-121.849.0S.18 125.786.18 125.786s167.182.0 167.182.0-22.667 89.998-22.667 89.998z" id="path-4" class="cls-6" fill-rule="evenodd"/><path d="M135.861 125.637s-19.428 79.021-19.428 79.021S19.935 203.55 19.935 203.55s3.238 13.171 3.238 13.171S144.695 216.787 144.695 216.787s22.475-91.15 22.475-91.15-31.309.0-31.309.0z" id="path-5" class="cls-7" fill-rule="evenodd"/><path d="M103.618 19.853c0 10.963-8.886 19.849-19.847 19.849S63.924 30.816 63.924 19.853C63.924 8.892 72.81.006 83.771.006s19.847 8.886 19.847 19.847z" id="path-6" class="cls-8" fill-rule="evenodd"/><path d="M89.846 15.463c0 5.78-4.685 10.466-10.466 10.466-5.779.0-10.464-4.686-10.464-10.466.0-5.779 4.685-10.465 10.464-10.465C85.161 4.998 89.846 9.684 89.846 15.463z" id="path-7" class="cls-4" fill-rule="evenodd"/></g></svg>