<svg xmlns="http://www.w3.org/2000/svg" xmlns:xlink="http://www.w3.org/1999/xlink" preserveAspectRatio="xMidYMid" width="198" height="216" viewBox="0 0 198 216"><defs><style>.cls-3{fill:#0cb04a}.cls-4{fill:#060606;opacity:.35}.cls-5{fill:#ff3a2f}</style></defs><g id="group-45svg"><path d="M98.786 116.759C88.884 116.759 80.824 108.698 80.824 98.798V17.972c0-9.91 8.06-17.961 17.962-17.961 9.91.0 17.962 8.051 17.962 17.961V98.798C116.748 108.698 108.696 116.759 98.786 116.759z" id="path-1" class="cls-3" fill-rule="evenodd"/><path d="M106.89 2.031c1.248 2.445 2.02 5.173 2.02 8.104V90.96C108.91 100.861 100.858 108.92 90.948 108.92 88.019 108.92 85.292 108.147 82.846 106.898 85.821 112.72 91.814 116.758 98.786 116.758c9.91.0 17.962-8.06 17.962-17.96V17.972C116.748 10.993 112.714 5.003 106.89 2.031z" id="path-2" class="cls-4" fill-rule="evenodd"/><path d="M98.786 215.544c-54.463.0-98.789-44.315-98.789-98.785.0-37.831 22.163-72.827 56.446-89.149C57.846 26.953 59.478 27.049 60.775 27.868 62.073 28.689 62.862 30.119 62.862 31.662V62.971C62.862 64.389 62.205 65.716 61.073 66.559c-15.979 12.032-25.153 30.33-25.153 50.2.0 34.659 28.205 62.863 62.866 62.863 34.67.0 62.866-28.204 62.866-62.863.0-19.87-9.16499999999999-38.168-25.154-50.2C135.376 65.716 134.709 64.389 134.709 62.971V31.662C134.709 30.119 135.499 28.689 136.806 27.868 138.103 27.049 139.744 26.953 141.129 27.61c34.292 16.322 56.446 51.318 56.446 89.149.0 54.47-44.308 98.785-98.789 98.785z" id="path-3" class="cls-5" fill-rule="evenodd"/><path d="M51.106 55.134C51.106 56.551 50.448 57.878 49.317 58.721 33.337 70.753 24.163 89.052 24.163 108.92c0 24.302 13.892 45.386 34.127 55.844-13.661-11.542-22.37-28.769-22.37-48.006.0-19.868 9.174-38.167 25.153-50.199C62.205 65.716 62.862 64.388 62.862 62.971V31.662C62.862 30.119 62.073 28.689 60.775 27.869c-1.297-.82-2.929-.916-4.332-.259-1.82.866-3.587 1.813-5.337 2.782V55.134z" id="path-4" class="cls-4" fill-rule="evenodd"/><path d="M147.364 30.86c23.848 18.499 38.455 47.345 38.455 78.06.0 54.471-44.309 98.787-98.79 98.787C69.358 207.707 52.767 203.018 38.399 194.853c16.712 12.953 37.658 20.691 60.387 20.691 54.481.0 98.789-44.315 98.789-98.786.0-35.484-19.493-68.475-50.211-85.898z" id="path-5" class="cls-4" fill-rule="evenodd"/></g></svg>