<svg xmlns="http://www.w3.org/2000/svg" xmlns:xlink="http://www.w3.org/1999/xlink" preserveAspectRatio="xMidYMid" width="218" height="183" viewBox="0 0 218 183"><defs><style>.cls-3{fill:#ff3a2f}.cls-4{fill:#020403;opacity:.35}.cls-5{fill:#142a3b}.cls-9{fill:#fff}</style></defs><g id="group-49svg"><path d="M195.062 38.937s0 114.899.0 114.899c0 17.295-13.755 28.778-30.946 28.778H60.231c-17.192.0-33.74-11.483-33.74-28.778V38.937s168.571.0 168.571.0z" id="path-1" class="cls-3" fill-rule="evenodd"/><path d="M26.491 48.358s0 9.422.0 9.422 149.84 14.132 149.84 14.132.0 100.768.0 100.768C176.331 175.588 175.912 178.316 175.183 180.87 186.841 177.058 195.062 167.195 195.062 153.836V48.358s-168.571.0-168.571.0z" id="path-2" class="cls-4" fill-rule="evenodd"/><path d="M211.45 51.426s-206.03.0-206.03.0c-2.995.0-5.422-2.428-5.422-5.422.0-2.996 2.427-5.423 5.422-5.423H211.45C214.445 40.581 216.872 43.008 216.872 46.004 216.872 48.998 214.445 51.426 211.45 51.426z" id="path-3" class="cls-5" fill-rule="evenodd"/><path d="M195.062 38.937S190.921 8.317 175.405 8.317H53.66c-15.517.0-27.169 11.041-27.169 26.65v3.97s168.571.0 168.571.0z" id="path-4" class="cls-3" fill-rule="evenodd"/><path d="M151.992 13.028c11.674.0 16.906 17.325 18.782 25.909h24.288S190.921 8.317 175.405 8.317H53.66c-6.077.0-11.545 1.714-15.969 4.711H151.992z" id="path-5" class="cls-4" fill-rule="evenodd"/><path d="M141.213 7.222s-60.872.0-60.872.0c-1.996.0-3.615-1.619-3.615-3.615.0-1.995 1.619-3.615 3.615-3.615h60.872C143.209-.008 144.828 1.612 144.828 3.607 144.828 5.603 143.209 7.222 141.213 7.222z" id="path-6" class="cls-5" fill-rule="evenodd"/><path d="M74.278 172.097c-18.362.0-37.355-12.117-37.355-32.393V109.598c0-1.996 1.62-3.615 3.615-3.615 1.996.0 3.614 1.619 3.614 3.615v30.106c0 15.543 15.638 25.164 30.126 25.164 1.997.0 3.615 1.618 3.615 3.614C77.893 170.479 76.275 172.097 74.278 172.097z" id="path-7" class="cls-9" fill-rule="evenodd"/></g></svg>