<svg xmlns="http://www.w3.org/2000/svg" xmlns:xlink="http://www.w3.org/1999/xlink" preserveAspectRatio="xMidYMid" width="216" height="216" viewBox="0 0 216 216"><defs><style>.cls-3{fill:#ff3a2f}.cls-4{fill:#060606;opacity:.35}.cls-5{fill:#ededed}</style></defs><g id="group-163svg"><path d="M43.261-.011S-.012 43.26-.012 43.26s0 42.36.0 42.36S129.203 214.83 129.203 214.83s86.325-86.322 86.325-86.322S87.005-.011 87.005-.011s-43.744.0-43.744.0z" id="path-1" class="cls-3" fill-rule="evenodd"/><path d="M87.005 11.707S209.668 134.368 209.668 134.368 215.528 128.508 215.528 128.508 87.005-.011 87.005-.011s-43.743.0-43.743.0S-.012 43.261-.012 43.261s0 11.719.0 11.719S43.262 11.707 43.262 11.707s43.743.0 43.743.0z" id="path-2" class="cls-4" fill-rule="evenodd"/><path d="M70.156 36.315c9.154 9.154 9.154 23.994.0 33.148C61.002 78.617 46.161 78.617 37.007 69.463c-9.154-9.154-9.154-23.994.0-33.148 9.154-9.153 23.995-9.153 33.149.0z" id="path-3" class="cls-5" fill-rule="evenodd"/><path d="M44.821 44.128c7.801-7.802 19.707-8.89 28.729-3.394C72.598 39.17 71.509 37.668 70.156 36.315c-9.154-9.153-23.995-9.153-33.149.0C27.853 45.468 27.853 60.309 37.007 69.463 38.359 70.816 39.862 71.904 41.426 72.857c-5.496-9.022-4.407-20.928 3.395-28.729z" id="path-4" class="cls-4" fill-rule="evenodd"/></g></svg>