<svg xmlns="http://www.w3.org/2000/svg" xmlns:xlink="http://www.w3.org/1999/xlink" preserveAspectRatio="xMidYMid" width="218" height="216" viewBox="0 0 218 216"><defs><style>.cls-3{fill:#2476ff}.cls-4{fill:#ededed}.cls-5{fill:#000;opacity:.35}.cls-6{fill:#142a3b}</style></defs><g id="group-145svg"><path d="M184.994 188.702s-153.237.0-153.237.0C29.11 188.702 26.969 186.573 26.969 183.939V31.582c0-2.632 2.141-4.761 4.788-4.761H184.994C187.641 26.821 189.783 28.95 189.783 31.582V183.939C189.783 186.573 187.641 188.702 184.994 188.702z" id="path-1" class="cls-3" fill-rule="evenodd"/><path d="M156.262 160.133s-95.773.0-95.773.0C57.843 160.133 55.701 158.004 55.701 155.373V60.15c0-2.632 2.142-4.761 4.788-4.761h95.773C158.909 55.389 161.05 57.518 161.05 60.15v95.223C161.05 158.004 158.909 160.133 156.262 160.133z" id="path-2" class="cls-4" fill-rule="evenodd"/><path d="M60.49 160.135s7.852.0 7.852.0.0-91.606.0-91.606c0-2.631 2.142-4.761 4.789-4.761H161.05s0-3.618.0-3.618C161.05 57.518 158.909 55.389 156.262 55.389H60.49c-2.647.0-4.789 2.129-4.789 4.761v95.223c0 2.631 2.142 4.762 4.789 4.762z" id="path-3" class="cls-5" fill-rule="evenodd"/><path d="M44.353 26.224s-7.185.0-7.185.0.0-26.23.0-26.23 7.185.0 7.185.0.0 26.23.0 26.23z" id="path-4" class="cls-6" fill-rule="evenodd"/><path d="M63.507 26.224s-7.184.0-7.184.0.0-26.23.0-26.23 7.184.0 7.184.0.0 26.23.0 26.23z" id="path-5" class="cls-6" fill-rule="evenodd"/><path d="M82.662 26.224s-7.185.0-7.185.0.0-26.23.0-26.23 7.185.0 7.185.0.0 26.23.0 26.23z" id="path-6" class="cls-6" fill-rule="evenodd"/><path d="M101.816 26.224s-7.184.0-7.184.0.0-26.23.0-26.23 7.184.0 7.184.0.0 26.23.0 26.23z" id="path-7" class="cls-6" fill-rule="evenodd"/><path d="M120.971 26.224s-7.185.0-7.185.0.0-26.23.0-26.23 7.185.0 7.185.0.0 26.23.0 26.23z" id="path-8" class="cls-6" fill-rule="evenodd"/><path d="M140.125 26.224s-7.185.0-7.185.0.0-26.23.0-26.23 7.185.0 7.185.0.0 26.23.0 26.23z" id="path-9" class="cls-6" fill-rule="evenodd"/><path d="M159.279 26.224s-7.184.0-7.184.0.0-26.23.0-26.23 7.184.0 7.184.0.0 26.23.0 26.23z" id="path-10" class="cls-6" fill-rule="evenodd"/><path d="M178.434 26.224s-7.185.0-7.185.0.0-26.23.0-26.23 7.185.0 7.185.0.0 26.23.0 26.23z" id="path-11" class="cls-6" fill-rule="evenodd"/><path d="M44.353 215.528s-7.185.0-7.185.0.0-26.23.0-26.23 7.185.0 7.185.0.0 26.23.0 26.23z" id="path-12" class="cls-6" fill-rule="evenodd"/><path d="M63.507 215.528s-7.184.0-7.184.0.0-26.23.0-26.23 7.184.0 7.184.0.0 26.23.0 26.23z" id="path-13" class="cls-6" fill-rule="evenodd"/><path d="M82.662 215.528s-7.185.0-7.185.0.0-26.23.0-26.23 7.185.0 7.185.0.0 26.23.0 26.23z" id="path-14" class="cls-6" fill-rule="evenodd"/><path d="M101.816 215.528s-7.184.0-7.184.0.0-26.23.0-26.23 7.184.0 7.184.0.0 26.23.0 26.23z" id="path-15" class="cls-6" fill-rule="evenodd"/><path d="M120.971 215.528s-7.185.0-7.185.0.0-26.23.0-26.23 7.185.0 7.185.0.0 26.23.0 26.23z" id="path-16" class="cls-6" fill-rule="evenodd"/><path d="M140.125 215.528s-7.185.0-7.185.0.0-26.23.0-26.23 7.185.0 7.185.0.0 26.23.0 26.23z" id="path-17" class="cls-6" fill-rule="evenodd"/><path d="M159.279 215.528s-7.184.0-7.184.0.0-26.23.0-26.23 7.184.0 7.184.0.0 26.23.0 26.23z" id="path-18" class="cls-6" fill-rule="evenodd"/><path d="M178.434 215.528s-7.185.0-7.185.0.0-26.23.0-26.23 7.185.0 7.185.0.0 26.23.0 26.23z" id="path-19" class="cls-6" fill-rule="evenodd"/><path d="M26.347 177.439s-26.339.0-26.339.0.0-7.184.0-7.184 26.339.0 26.339.0.0 7.184.0 7.184z" id="path-20" class="cls-6" fill-rule="evenodd"/><path d="M26.347 158.394s-26.339.0-26.339.0.0-7.185.0-7.185 26.339.0 26.339.0.0 7.185.0 7.185z" id="path-21" class="cls-6" fill-rule="evenodd"/><path d="M26.347 139.35s-26.339.0-26.339.0.0-7.185.0-7.185 26.339.0 26.339.0.0 7.185.0 7.185z" id="path-22" class="cls-6" fill-rule="evenodd"/><path d="M26.347 120.304s-26.339.0-26.339.0.0-7.184.0-7.184 26.339.0 26.339.0.0 7.184.0 7.184z" id="path-23" class="cls-6" fill-rule="evenodd"/><path d="M26.347 101.261s-26.339.0-26.339.0.0-7.184.0-7.184 26.339.0 26.339.0.0 7.184.0 7.184z" id="path-24" class="cls-6" fill-rule="evenodd"/><path d="M26.347 82.216s-26.339.0-26.339.0.0-7.184.0-7.184 26.339.0 26.339.0.0 7.184.0 7.184z" id="path-25" class="cls-6" fill-rule="evenodd"/><path d="M26.347 63.17s-26.339.0-26.339.0S.008 55.986.008 55.986s26.339.0 26.339.0S26.347 63.17 26.347 63.17z" id="path-26" class="cls-6" fill-rule="evenodd"/><path d="M26.347 44.125s-26.339.0-26.339.0.0-7.184.0-7.184 26.339.0 26.339.0.0 7.184.0 7.184z" id="path-27" class="cls-6" fill-rule="evenodd"/><path d="M216.742 177.439s-26.338.0-26.338.0.0-7.184.0-7.184 26.338.0 26.338.0.0 7.184.0 7.184z" id="path-28" class="cls-6" fill-rule="evenodd"/><path d="M216.742 158.394s-26.338.0-26.338.0.0-7.185.0-7.185 26.338.0 26.338.0.0 7.185.0 7.185z" id="path-29" class="cls-6" fill-rule="evenodd"/><path d="M216.742 139.35s-26.338.0-26.338.0.0-7.185.0-7.185 26.338.0 26.338.0.0 7.185.0 7.185z" id="path-30" class="cls-6" fill-rule="evenodd"/><path d="M216.742 120.304s-26.338.0-26.338.0.0-7.184.0-7.184 26.338.0 26.338.0.0 7.184.0 7.184z" id="path-31" class="cls-6" fill-rule="evenodd"/><path d="M216.742 101.261s-26.338.0-26.338.0.0-7.184.0-7.184 26.338.0 26.338.0.0 7.184.0 7.184z" id="path-32" class="cls-6" fill-rule="evenodd"/><path d="M216.742 82.216s-26.338.0-26.338.0.0-7.184.0-7.184 26.338.0 26.338.0.0 7.184.0 7.184z" id="path-33" class="cls-6" fill-rule="evenodd"/><path d="M216.742 63.17s-26.338.0-26.338.0S190.404 55.986 190.404 55.986s26.338.0 26.338.0S216.742 63.17 216.742 63.17z" id="path-34" class="cls-6" fill-rule="evenodd"/><path d="M216.742 44.125s-26.338.0-26.338.0.0-7.184.0-7.184 26.338.0 26.338.0.0 7.184.0 7.184z" id="path-35" class="cls-6" fill-rule="evenodd"/></g></svg>