<svg xmlns="http://www.w3.org/2000/svg" xmlns:xlink="http://www.w3.org/1999/xlink" preserveAspectRatio="xMidYMid" width="216" height="212" viewBox="0 0 216 212"><defs><style>.cls-3{fill:#142a3b}.cls-6{fill:#0cb04a}.cls-7{fill:#000;opacity:.35}.cls-10{fill:#fbb713}</style></defs><g id="group-55svg"><path d="M163.195 7.31S15.04 58.529 15.04 58.529C14.387 58.755 14.041 59.466 14.267 60.119L17.362 69.073C17.588 69.725 18.299 70.071 18.952 69.846L167.108 18.627C167.761 18.401 168.106 17.689 167.881 17.037l-3.096-8.955C164.559 7.43 163.847 7.084 163.195 7.31z" id="path-1" class="cls-3" fill-rule="evenodd"/><path d="M174.767 211.829S165.292 211.829 165.292 211.829C164.602 211.829 164.043 211.27 164.043 210.579V184.342C164.043 183.651 164.602 183.091 165.292 183.091H174.767C175.457 183.091 176.017 183.651 176.017 184.342v26.237C176.017 211.27 175.457 211.829 174.767 211.829z" id="path-2" class="cls-3" fill-rule="evenodd"/><path d="M50.233 211.829s-9.474.0-9.474.0C40.068 211.829 39.509 211.27 39.509 210.579V184.342C39.509 183.651 40.068 183.091 40.759 183.091h9.474C50.923 183.091 51.482 183.651 51.482 184.342v26.237C51.482 211.27 50.923 211.829 50.233 211.829z" id="path-3" class="cls-3" fill-rule="evenodd"/><path d="M206.283 191.473s-197.04.0-197.04.0C4.134 191.473-.007 187.333-.007 182.223V59.43c0-5.109 4.141-9.251 9.25-9.251h197.04c5.108.0 9.25 4.142 9.25 9.251V182.223c0 5.10999999999999-4.142 9.25-9.25 9.25z" id="path-4" class="cls-6" fill-rule="evenodd"/><path d="M192.182 51.45C198.802 58.427 201.163 69.14 201.163 79.516v63.462c0 21.493-17.424 38.916-38.916 38.916L24.54 185.872C19.658 185.872 13.694 183.573 9.388 181.932 16.48 189.406 22.88 191.473 38.91 191.473H180.594c21.493.0 34.939-13.445 34.939-34.937V85.117C215.533 68.506 206.832 57.035 192.182 51.45z" id="path-5" class="cls-7" fill-rule="evenodd"/><path d="M177.565 12.236C177.565 19 172.081 24.484 165.315 24.484 158.55 24.484 153.066 19 153.066 12.236 153.066 5.47 158.55-.014 165.315-.014 172.081-.014 177.565 5.47 177.565 12.236z" id="path-6" class="cls-3" fill-rule="evenodd"/><path d="M192.182 120.826c0 23.807-19.3 43.107-43.108 43.107-23.807.0-43.107-19.3-43.107-43.107.0-23.806 19.3-43.106 43.107-43.106 23.808.0 43.108 19.3 43.108 43.106z" id="path-7" class="cls-3" fill-rule="evenodd"/><path d="M170.629 120.826C170.629 132.729 160.978 142.38 149.074 142.38 137.171 142.38 127.52 132.729 127.52 120.826c0-11.903 9.651-21.553 21.554-21.553C160.978 99.273 170.629 108.923 170.629 120.826z" id="path-8" class="cls-10" fill-rule="evenodd"/><path d="M166.481 108.21C169.061 111.764 170.629 116.099 170.629 120.826c0 11.903-9.64999999999998 21.553-21.555 21.553C144.346 142.379 140.012 140.813 136.458 138.231 140.376 143.625 146.687 147.169 153.864 147.169c11.904.0 21.554-9.649 21.554-21.553C175.418 118.439 171.874 112.128 166.481 108.21z" id="path-9" class="cls-7" fill-rule="evenodd"/><path d="M95.262 110.05s-70.794.0-70.794.0c-.622.0-1.125-.503999999999991-1.125-1.125v-8.527c0-.61999999999999.503-1.125 1.125-1.125H95.262C95.883 99.273 96.387 99.778 96.387 100.398v8.527C96.387 109.546 95.883 110.05 95.262 110.05z" id="path-10" class="cls-3" fill-rule="evenodd"/><path d="M95.262 157.946s-70.794.0-70.794.0c-.622.0-1.125-.503999999999991-1.125-1.125V148.293c0-.620000000000005.503-1.124 1.125-1.124H95.262C95.883 147.169 96.387 147.673 96.387 148.293V156.821C96.387 157.442 95.883 157.946 95.262 157.946z" id="path-11" class="cls-3" fill-rule="evenodd"/><path d="M95.262 133.998s-70.794.0-70.794.0C23.846 133.998 23.343 133.495 23.343 132.872V124.347c0-.622.503-1.125 1.125-1.125H95.262c.620999999999995.0 1.125.503 1.125 1.125V132.872C96.387 133.495 95.883 133.998 95.262 133.998z" id="path-12" class="cls-3" fill-rule="evenodd"/></g></svg>