<svg xmlns="http://www.w3.org/2000/svg" xmlns:xlink="http://www.w3.org/1999/xlink" preserveAspectRatio="xMidYMid" width="216" height="216" viewBox="0 0 216 216"><defs><style>.cls-3{fill:#fbb713}.cls-4{fill:#060606;opacity:.25}.cls-5{fill:#be8b10}.cls-6{fill:#142a3b}.cls-7{fill:#ededed}</style></defs><g id="group-40svg"><path d="M151.881-.012s-10.538 10.538-10.538 10.538S132.435 1.618 132.435 1.618 1.634 132.415 1.634 132.415 10.542 141.324 10.542 141.324.004 151.861.004 151.861s63.663 63.661 63.663 63.661 10.538-10.538 10.538-10.538S83.113 213.891 83.113 213.891 213.914 83.095 213.914 83.095 205.006 74.186 205.006 74.186s10.538-10.537 10.538-10.537S151.881-.012 151.881-.012z" id="path-1" class="cls-3" fill-rule="evenodd"/><path d="M146.667 5.203s55.84 55.838 55.84 55.838-10.538 10.537-10.538 10.537S200.877 80.487 200.877 80.487 75.29 206.069 75.29 206.069 83.112 213.891 83.112 213.891 213.914 83.095 213.914 83.095 205.005 74.186 205.005 74.186s10.539-10.537 10.539-10.537S151.882-.011 151.882-.011s-5.215 5.214-5.215 5.214z" id="path-2" class="cls-4" fill-rule="evenodd"/><path d="M148.213 48.785C146.484 50.514 146.484 53.318 148.213 55.047L156.171 63.005S148.708 70.467 148.708 70.467C144.573 68.918 139.739 69.782 136.413 73.108 133.087 76.434 132.223 81.267 133.772 85.402L127.558 91.616S119.6 83.659 119.6 83.659c-1.729-1.729-4.532-1.729-6.262.0-1.729 1.72999999999999-1.729 4.532.0 6.261L121.296 97.879S116.95 102.225 116.95 102.225C111.369 99.481 104.456 100.367 99.814 105.01c-4.642 4.642-5.529 11.554-2.785 17.135L92.682 126.491S84.725 118.534 84.725 118.534c-1.72999999999999-1.73-4.533-1.729-6.262.0C76.734 120.262 76.733 123.066 78.463 124.795L86.421 132.753S79.828 139.346 79.828 139.346C75.692 137.797 70.859 138.661 67.533 141.987 64.206 145.313 63.343 150.146 64.891 154.281L57.808 161.365S49.85 153.408 49.85 153.408C48.12 151.678 45.317 151.678 43.588 153.408 41.858 155.137 41.858 157.94 43.588 159.669l22.699 22.699C68.016 184.096 70.82 184.096 72.549 182.368 74.278 180.64 74.278 177.835 72.549 176.106L64.591 168.148s7.084-7.083 7.084-7.083C75.81 162.612 80.644 161.749 83.97 158.424 87.296 155.098 88.159 150.264 86.611 146.129L93.204 139.536S101.162 147.494 101.162 147.494C102.891 149.223 105.695 149.223 107.424 147.494 109.153 145.764 109.153 142.961 107.424 141.232L99.466 133.275s4.346-4.346 4.346-4.346C109.393 131.671 116.306 130.785 120.948 126.144 125.591 121.501 126.477 114.588 123.733 109.008L128.08 104.662s7.958 7.958 7.958 7.958C137.767 114.349 140.57 114.349 142.299 112.62 144.028 110.89 144.028 108.087 142.299 106.357L134.342 98.4s6.214-6.214 6.214-6.214C144.691 93.733 149.525 92.871 152.85 89.545 156.177 86.22 157.04 81.386 155.492 77.25L162.955 69.788s7.958 7.958 7.958 7.958C172.642 79.474 175.446 79.474 177.175 77.746 178.903 76.017 178.903 73.213 177.175 71.483l-22.7-22.698C152.746 47.055 149.942 47.056 148.213 48.785zM79.776 154.23C77.553 156.452 73.949 156.452 71.727 154.23 69.503 152.006 69.503 148.403 71.726 146.18 73.949 143.957 77.553 143.957 79.776 146.18 81.999 148.403 81.999 152.007 79.776 154.23zm35.152-34.107c-2.512 2.511-6.583 2.511-9.09399999999999.0C103.323 117.612 103.323 113.541 105.834 111.029 108.345 108.518 112.416 108.519 114.928 111.03 117.438 113.541 117.439 117.612 114.928 120.123zm33.729-34.771C146.434 87.574 142.83 87.574 140.608 85.352 138.384 83.128 138.384 79.524 140.606 77.302 142.829 75.079 146.433 75.079 148.657 77.302 150.88 79.525 150.88 83.129 148.657 85.352z" id="path-3" class="cls-5" fill-rule="evenodd"/><path d="M145.606 40.963C143.877 42.692 143.877 45.496 145.606 47.225l7.958 7.957S146.101 62.646 146.101 62.646C141.966 61.097 137.132 61.961 133.806 65.287 130.48 68.612 129.616 73.446 131.165 77.581l-6.214 6.214s-7.958-7.958-7.958-7.958C115.263 74.108 112.46 74.108 110.731 75.837 109.002 77.567 109.002 80.37 110.731 82.099L118.688 90.057s-4.346 4.346-4.346 4.346C108.761 91.66 101.849 92.545 97.207 97.188 92.564 101.83 91.678 108.742 94.421 114.323L90.075 118.67s-7.958-7.958-7.958-7.958c-1.729-1.729-4.53200000000001-1.729-6.262.0-1.729 1.729-1.729 4.532.0 6.262L83.813 124.931s-6.593 6.593-6.593 6.593C73.085 129.975 68.251 130.839 64.925 134.165 61.599 137.491 60.735 142.324 62.284 146.46L55.2 153.544S47.242 145.585 47.242 145.585C45.512 143.857 42.71 143.857 40.981 145.585 39.251 147.315 39.251 150.118 40.981 151.848L63.68 174.546C65.409 176.274 68.212 176.274 69.941 174.546 71.671 172.818 71.671 170.014 69.941 168.284L61.984 160.327S69.067 153.243 69.067 153.243C73.203 154.791 78.037 153.928 81.362 150.602 84.689 147.276 85.552 142.442 84.004 138.307L90.597 131.714S98.554 139.672 98.554 139.672C100.283 141.402 103.088 141.402 104.817 139.672 106.546 137.942 106.546 135.139 104.817 133.411l-7.958-7.958S101.205 121.106 101.205 121.106C106.786 123.85 113.698 122.964 118.341 118.322 122.983 113.679 123.869 106.767 121.126 101.186L125.472 96.84S133.431 104.798 133.431 104.798C135.16 106.527 137.963 106.527 139.693 104.798 141.421 103.068 141.421 100.266 139.693 98.536l-7.958-7.958S137.948 84.364 137.948 84.364C142.083 85.912 146.918 85.05 150.243 81.723 153.569 78.398 154.433 73.564 152.885 69.428L160.347 61.967S168.306 69.924 168.306 69.924C170.035 71.652 172.838 71.652 174.567 69.924 176.296 68.195 176.296 65.391 174.567 63.662l-22.7-22.699C150.138 39.234 147.335 39.235 145.606 40.963zM77.168 146.408C74.946 148.63 71.342 148.63 69.119 146.408 66.896 144.185 66.896 140.581 69.118 138.358 71.341 136.135 74.945 136.135 77.169 138.359 79.392 140.581 79.392 144.185 77.168 146.408zm35.152-34.107C109.809 114.813 105.738 114.812 103.227 112.301 100.716 109.79 100.715 105.719 103.227 103.208 105.738 100.697 109.809 100.697 112.32 103.208 114.831 105.719 114.831 109.79 112.32 112.301zM146.049 77.53C143.827 79.753 140.223 79.753 138 77.53 135.776 75.307 135.776 71.702 137.999 69.48 140.222 67.257 143.826 67.257 146.049 69.48 148.272 71.702 148.272 75.307 146.049 77.53z" id="path-4" class="cls-6" fill-rule="evenodd"/><path d="M30.526 124.933C29.607 124.933 28.688 124.581 27.986 123.88 26.583 122.477 26.583 120.204 27.986 118.8l93.866-93.861C123.255 23.536 125.528 23.536 126.931 24.939 128.335 26.343 128.335 28.616 126.931 30.019L33.066 123.88C32.364 124.581 31.445 124.933 30.526 124.933z" id="path-5" class="cls-7" fill-rule="evenodd"/></g></svg>