<svg xmlns="http://www.w3.org/2000/svg" xmlns:xlink="http://www.w3.org/1999/xlink" preserveAspectRatio="xMidYMid" width="199" height="216" viewBox="0 0 199 216"><defs><style>.cls-3{fill:#ff3a2f}.cls-5{fill:#060606;opacity:.35}</style></defs><g id="group-16svg"><path d="M70.039 22.206s26.589.0 26.589.0c55.053.0 101.579 44.406 101.579 96.97.0 53.135-43.67 96.359-97.341 96.359-56.562.0-100.86-46.559-100.86-105.992C.006 107.003 2.07 104.947 4.602 104.947H31.824c2.55.0 4.597 2.056 4.597 4.596.0 52.628 33.29 71.383 64.445 71.383 32.456.0 60.926-29.637 60.926-63.411.0-31.728-29.843-58.535-65.164-58.535L70.996 58.203S70.039 22.206 70.039 22.206z" id="path-1" class="cls-3" fill-rule="evenodd"/><path d="M74.06 58.98s0 18.589.0 18.589C74.06 79.238 73.163 80.76 71.709 81.577 70.262 82.394 68.485 82.349 67.067 81.488L6.805 44.507C5.431 43.664 4.605 42.181 4.605 40.567 4.624 38.959 5.467 37.469 6.85 36.643L67.112.66C68.529-.193 70.307-.221 71.735.606c1.446.808 2.325 2.334 2.325 3.996V22.206s0 36.774.0 36.774z" id="path-2" class="cls-3" fill-rule="evenodd"/><path d="M81.718 58.529S91.514 22.206 91.514 22.206s-17.454.0-17.454.0.0 36.091.0 36.091S81.718 58.529 81.718 58.529z" id="path-3" class="cls-5" fill-rule="evenodd"/></g></svg>