<svg xmlns="http://www.w3.org/2000/svg" xmlns:xlink="http://www.w3.org/1999/xlink" preserveAspectRatio="xMidYMid" width="126" height="217" viewBox="0 0 126 217"><defs><style>.cls-3{fill:#0cb04a}.cls-4{fill:#020403;opacity:.35}.cls-7{fill:#ff3a2f}.cls-8{fill:#142a3b}.cls-10{fill:#912822}.cls-11{fill:#ededed}</style></defs><g id="group-93svg"><path d="M98.528 151.001C97.097 162.287 94.898 173.162 91.987 183.491L89.897 196.292s36.009 10.083 36.009 10.083.0-34.236.0-34.236-27.378-21.138-27.378-21.138z" id="path-1" class="cls-3" fill-rule="evenodd"/><path d="M105.007 191.255s2.089-12.801 2.089-12.801C108.707 172.74 110.076 166.844 111.242 160.818L98.528 151.001C97.097 162.287 94.898 173.162 91.987 183.491L89.897 196.292s36.009 10.083 36.009 10.083.0-9.267.0-9.267S105.007 191.255 105.007 191.255z" id="path-2" class="cls-4" fill-rule="evenodd"/><path d="M32.429 150.692S-.009 172.139-.009 172.139s0 34.236.0 34.236 39.41-10.083 39.41-10.083-3.172-23.776-3.172-23.776C34.631 165.448 33.365 158.157 32.429 150.692z" id="path-3" class="cls-3" fill-rule="evenodd"/><path d="M36.229 172.516C34.631 165.448 33.365 158.157 32.429 150.692L23.945 156.301c.651 3.78 1.382 7.512 2.21 11.179l3.172 23.775S-.009 198.761-.009 198.761s0 7.614.0 7.614 39.41-10.083 39.41-10.083-3.172-23.776-3.172-23.776z" id="path-4" class="cls-4" fill-rule="evenodd"/><path d="M25.502 125.681c0 24.826 3.742 48.349 10.429 69.389 9.21 28.976 49.927 28.976 59.137.0 6.688-21.04 10.429-44.563 10.429-69.389.0-50.672-15.585-95.913-39.998-125.69-24.412 29.777-39.997 75.018-39.997 125.69z" id="path-5" class="cls-7" fill-rule="evenodd"/><path d="M88.966 69.902s-50.604.0-50.604.0c-1.996.0-3.614-1.505-3.614-3.5s1.618-3.5 3.614-3.5H88.966C90.962 62.902 92.581 64.407 92.581 66.402S90.962 69.902 88.966 69.902z" id="path-6" class="cls-8" fill-rule="evenodd"/><path d="M65.499.058s0 216.811.0 216.811c12.482.0 24.964-7.243 29.569-21.731 6.688-21.04 10.429-44.563 10.429-69.389.0-50.672-15.586-95.911-39.998-125.691z" id="path-7" class="cls-4" fill-rule="evenodd"/><path d="M90.481 112.462c0-8.661-7.02-15.681-15.68-15.681s-15.68 7.02-15.68 15.681c0 8.66 7.02 15.68 15.68 15.68s15.68-7.02 15.68-15.68z" id="path-8" class="cls-10" fill-rule="evenodd"/><path d="M80.408 107.425c0-8.66-7.021-15.681-15.681-15.681-8.66.0-15.679 7.021-15.679 15.681.0 8.661 7.019 15.681 15.679 15.681s15.681-7.02 15.681-15.681z" id="path-9" class="cls-11" fill-rule="evenodd"/></g></svg>