<svg xmlns="http://www.w3.org/2000/svg" xmlns:xlink="http://www.w3.org/1999/xlink" preserveAspectRatio="xMidYMid" width="217" height="160" viewBox="0 0 217 160"><defs><style>.cls-3{fill:#fbb713}.cls-4{fill:#000;opacity:.25}.cls-5{fill:#142a3b}.cls-6{fill:#ff3a2f}</style></defs><g id="group-8svg"><path d="M170.358 56.423c16.171 6.689 39.357-11.597 39.357-11.597 16.139-16.139.0-20.523.0-20.523-15.123 5.235-26.877 5.409-35.036 4.199C170.756 12.158 156.084-.004 138.537-.004c-20.55.0-37.209 16.659-37.209 37.209C101.328 52.151 110.16 65.004 122.873 70.921 120.254 77.274 114.006 81.751 106.708 81.751 105.489 81.751.015 54.688.015 54.688s.896 81.592 53.346 95.041c0 0 43.485 20.622 117.004.0.0.0 42.14-40.347.0-69.039.0.0-7.81-9-8.39500000000001-14.597C165.298 63.389 168.125 60.106 170.358 56.423z" id="path-1" class="cls-3" fill-rule="evenodd"/><path d="M170.983 81.144c16.828 26.381-13.63 55.572-13.63 55.572-73.52 20.622-117.005.0-117.005.0C33.368 134.926 27.328 131.903 22.054 128.053c7.555 10.068 17.679 18.182 31.307 21.676.0.0 43.485 20.622 117.004.0.0.0 41.668-39.923.617999999999995-68.585z" id="path-2" class="cls-4" fill-rule="evenodd"/><path d="M148.848 29.135C148.848 32.354 146.238 34.964 143.019 34.964 139.802 34.964 137.193 32.354 137.193 29.135 137.193 25.917 139.802 23.307 143.019 23.307 146.238 23.307 148.848 25.917 148.848 29.135z" id="path-3" class="cls-5" fill-rule="evenodd"/><path d="M97.867 128.239C97.522 128.239 97.175 128.227 96.828 128.202 92.621 127.901 88.735 125.804 85.885 122.298 84.291 120.337 82.191 119.18 79.973 119.042 77.821 118.911 75.724 119.734 74.018 121.369L71.789 123.501C68.557 126.594 64.442 128.121 60.214 127.808 55.876 127.485 51.91 125.272 49.049 121.576L41.852 112.28C40.629 110.703 40.918 108.432 42.496 107.21 44.073 105.988 46.344 106.275 47.567 107.855l7.198 9.295c1.591 2.056 3.718 3.28 5.986 3.449C62.929 120.762 65.06 119.935 66.79 118.277L69.02 116.145C72.204 113.099 76.235 111.568 80.422 111.826 84.68 112.093 88.612 114.192 91.494 117.738 93.072 119.679 95.15 120.833 97.345 120.991 99.437 121.142 101.533 120.359 103.234 118.787l3.691-3.402c3.09-2.852 7.021-4.31100000000001 10.984-4.119C121.966 111.465 125.784 113.355 128.661 116.586L129.706 117.759C131.36 119.615 133.485 120.651 135.691 120.674 137.742 120.702 140.007 119.719 141.681 117.917L151.262 107.608C152.622 106.144 154.912 106.063 156.369 107.42 157.832 108.778 157.916 111.066 156.556 112.528L146.976 122.838C143.902 126.148 139.832 127.967 135.615 127.903 131.348 127.859 127.33 125.963 124.307 122.566l-1.044-1.172C121.686 119.623 119.658 118.59 117.555 118.487 115.449 118.378 113.504 119.151 111.826 120.699L108.135 124.102C105.221 126.791 101.608 128.239 97.867 128.239z" id="path-4" class="cls-6" fill-rule="evenodd"/></g></svg>