<svg xmlns="http://www.w3.org/2000/svg" xmlns:xlink="http://www.w3.org/1999/xlink" preserveAspectRatio="xMidYMid" width="161" height="218" viewBox="0 0 161 218"><defs><style>.cls-3{fill:#ff3a2f}.cls-4{fill:#020403;opacity:.35}.cls-5{fill:#142a3b}.cls-8{fill:#fff}</style></defs><g id="group-107svg"><path d="M150.871 188.604s0 28.289.0 28.289-141.44.0-141.44.0.0-28.289.0-28.289 141.44.0 141.44.0z" id="path-1" class="cls-3" fill-rule="evenodd"/><path d="M9.431 188.604S9.431 193.319 9.431 193.319 123.587 197.711 123.587 197.711c4.705.180999999999983 8.425 4.047 8.425 8.756v10.426s18.859.0 18.859.0.0-28.289.0-28.289-141.44.0-141.44.0z" id="path-2" class="cls-4" fill-rule="evenodd"/><path d="M160.3 188.604s-160.298.0-160.298.0.0-14.144.0-14.144c0-5.202 4.222-9.429 9.429-9.429 20.829.0 56.576-16.884 56.576-37.718.0.0.0-23.657.0-28.289C66.007 89.614 65.4 87.472 52.917 74.99 43.627 67.205 37.72 55.514 37.72 42.447 37.72 19.012 56.717.015 80.152.015c23.434.0 42.431 18.997 42.431 42.432.0 13.063-5.902 24.749-15.185 32.535C94.981 87.399 94.342 89.485 94.342 97.689 94.342 102.008 94.296 127.318 94.296 127.318c0 20.829 35.742 37.719 56.575 37.713C156.078 165.031 160.3 169.258 160.3 174.46v14.144z" id="path-3" class="cls-5" fill-rule="evenodd"/><path d="M51.937 149.648c-12.292 9.315-30.046 15.383-42.506 15.383-5.207.0-9.429 4.227-9.429 9.429 16.29.0 41.631-10.345 51.935-24.812z" id="path-4" class="cls-4" fill-rule="evenodd"/><path d="M150.871 165.031C130.038 165.037 94.296 148.147 94.296 127.318 94.296 127.318 94.342 102.008 94.342 97.689 94.342 89.484 94.981 87.399 107.398 74.982c9.283-7.786 15.185-19.473 15.185-32.535.0-23.435-18.997-42.432-42.431-42.432-14.126.0-26.604 6.929-34.316 17.546 6.995-5.085 15.577-8.117 24.887-8.117 23.434.0 42.431 18.998 42.431 42.432.0 13.063-5.902 24.749-15.185 32.535-12.417 12.417-13.057 14.503-13.057 22.708C84.912 111.437 84.867 136.747 84.867 136.747c0 20.83 35.741 37.718 56.575 37.713C146.649 174.46 150.871 178.688 150.871 183.891V188.604s9.429.0 9.429.0.0-14.144.0-14.144c0-5.202-4.22200000000001-9.429-9.429-9.429z" id="path-5" class="cls-4" fill-rule="evenodd"/><path d="M61.256 60.151C60.152 60.151 59.065 59.65 58.355 58.698c-3.528-4.724-5.391-10.343-5.391-16.251.0-12.853 9.133-24.054 21.719-26.635C76.636 15.413 78.546 16.672 78.949 18.627 79.349 20.582 78.09 22.492 76.134 22.893c-9.236 1.895-15.941 10.12-15.941 19.554.0 4.336 1.368 8.461 3.955 11.927C65.342 55.973 65.014 58.239 63.414 59.432 62.766 59.917 62.007 60.151 61.256 60.151z" id="path-6" class="cls-8" fill-rule="evenodd"/></g></svg>