<svg xmlns="http://www.w3.org/2000/svg" xmlns:xlink="http://www.w3.org/1999/xlink" preserveAspectRatio="xMidYMid" width="216" height="92" viewBox="0 0 216 92"><defs><style>.cls-3{fill:#fbb713}.cls-4{fill:#000;opacity:.25}.cls-5{fill:#142a3b}</style></defs><g id="group-89svg"><path d="M33.148 61.348s0-61.344.0-61.344-33.16.0-33.16.0.0 91.187.0 91.187 215.54.0 215.54.0.0-29.843.0-29.843-182.38.0-182.38.0z" id="path-1" class="cls-3" fill-rule="evenodd"/><path d="M6.62 84.559S6.62.004 6.62.004s-6.632.0-6.632.0.0 91.187.0 91.187 215.54.0 215.54.0S215.528 84.559 215.528 84.559s-208.908.0-208.908.0z" id="path-2" class="cls-4" fill-rule="evenodd"/><path d="M51.938 91.191s-5.803.0-5.803.0.0-14.369.0-14.369 5.803.0 5.803.0.0 14.369.0 14.369z" id="path-3" class="cls-5" fill-rule="evenodd"/><path d="M85.099 91.191s-5.803.0-5.803.0.0-14.369.0-14.369 5.803.0 5.803.0.0 14.369.0 14.369z" id="path-4" class="cls-5" fill-rule="evenodd"/><path d="M118.258 91.191s-5.803.0-5.803.0.0-14.369.0-14.369 5.803.0 5.803.0.0 14.369.0 14.369z" id="path-5" class="cls-5" fill-rule="evenodd"/><path d="M-.012 12.024s0-5.802.0-5.802 14.369.0 14.369.0.0 5.802.0 5.802-14.369.0-14.369.0z" id="path-6" class="cls-5" fill-rule="evenodd"/><path d="M-.012 45.183s0-5.802.0-5.802 14.369.0 14.369.0.0 5.802.0 5.802-14.369.0-14.369.0z" id="path-7" class="cls-5" fill-rule="evenodd"/><path d="M-.012 78.343s0-5.804.0-5.804 14.369.0 14.369.0.0 5.804.0 5.804-14.369.0-14.369.0z" id="path-8" class="cls-5" fill-rule="evenodd"/><path d="M151.418 91.191s-5.803.0-5.803.0.0-14.369.0-14.369 5.803.0 5.803.0.0 14.369.0 14.369z" id="path-9" class="cls-5" fill-rule="evenodd"/><path d="M184.579 91.191s-5.804.0-5.804.0.0-14.369.0-14.369 5.804.0 5.804.0.0 14.369.0 14.369z" id="path-10" class="cls-5" fill-rule="evenodd"/></g></svg>