<svg xmlns="http://www.w3.org/2000/svg" xmlns:xlink="http://www.w3.org/1999/xlink" preserveAspectRatio="xMidYMid" width="200" height="217" viewBox="0 0 200 217"><defs><style>.cls-3{fill:#142a3b}.cls-5{fill:#ff3a2f}.cls-6{fill:#020403;opacity:.35}.cls-8{fill:#0cb04a}</style></defs><g id="group-104svg"><path d="M5.507 157.727S62.356 11.68 62.356 11.68 15.743 161.312 15.743 161.312C14.851 164.172 11.809 165.767 8.95 164.876 6.089 163.985 4.492 160.943 5.383 158.081 5.419 157.966 5.464 157.84 5.507 157.727z" id="path-1" class="cls-3" fill-rule="evenodd"/><path d="M68.068 201.285C67.152 201.285 66.238 200.94 65.534 200.247 64.11 198.847 64.091 196.559 65.492 195.135l84.178-85.562C151.073 108.153 153.36 108.133 154.78 109.533 156.205 110.933 156.223 113.222 154.823 114.645l-84.178 85.56C69.937 200.924 69.004 201.285 68.068 201.285z" id="path-2" class="cls-3" fill-rule="evenodd"/><path d="M41.806 133.299c-16.25.0-30.334 9.274-37.247 22.818C1.653 161.811.014 168.26.014 175.09c0 23.082 18.711 41.793 41.792 41.793 23.08.0 41.79-18.711 41.79-41.793.0-23.08-18.71-41.791-41.79-41.791zm0 58.728c-9.354.0-16.937-7.583-16.937-16.937C24.869 172.322 25.534 169.709 26.711 167.402 29.512 161.913 35.221 158.154 41.806 158.154c9.353.0 16.935 7.583 16.935 16.936C58.741 184.444 51.159 192.027 41.806 192.027z" id="path-3" class="cls-5" fill-rule="evenodd"/><path d="M27.578 184.219C25.882 181.582 24.869 178.46 24.869 175.09 24.869 172.322 25.534 169.709 26.711 167.402 29.512 161.913 35.221 158.154 41.806 158.154c3.368.0 6.491 1.012 9.12900000000001 2.708C47.923 156.177 42.691 153.056 36.706 153.056 30.122 153.056 24.414 156.814 21.613 162.303 20.435 164.611 19.772 167.223 19.772 169.991 19.772 175.975 22.893 181.207 27.578 184.219z" id="path-4" class="cls-6" fill-rule="evenodd"/><path d="M68.685 143.113c6.116 7.267 9.812 16.637 9.812 26.878.0 23.082-18.71 41.794-41.791 41.794C26.464 211.785 17.093 208.086 9.826 201.969c7.666 9.112 19.14 14.914 31.98 14.914 23.08.0 41.79-18.711 41.79-41.793.0-12.838-5.801-24.311-14.911-31.977z" id="path-5" class="cls-6" fill-rule="evenodd"/><path d="M146.413.073C118.521 1.524 82.629 31.336 84.079 59.227 84.825 73.579 109.562 68.58 123.104 79.354c12.777 10.168 13.992 36.551 27.534 35.846C178.53 113.752 200.99 75.846 199.54 47.952 198.089 20.06 174.304-1.376 146.413.073zM150.076 70.567C139.035 71.142 129.621 62.657 129.047 51.615 128.473 40.575 136.958 31.16 147.999 30.586 159.039 30.012 168.455 38.497 169.028 49.538 169.601 60.58 161.117 69.994 150.076 70.567z" id="path-6" class="cls-8" fill-rule="evenodd"/><path d="M143.79 31.276C141.872 30.784 139.883 30.478 137.802 30.586 126.761 31.16 118.276 40.575 118.851 51.615 119.424 62.657 128.838 71.142 139.879 70.567 141.335 70.492 142.737 70.245 144.088 69.878 135.835 67.759 129.512 60.575 129.047 51.615 128.548 42.031 134.888 33.689 143.79 31.276z" id="path-7" class="cls-6" fill-rule="evenodd"/><path d="M146.413.073C145.649.113 144.86.252 144.086.334c24.357 2.519 43.946 22.398 45.257 47.618C190.691 73.884 171.364 108.427 146.23 114.327 147.549 114.958 149 115.286 150.638 115.2 178.53 113.752 200.99 75.846 199.54 47.952 198.089 20.06 174.304-1.376 146.413.073z" id="path-8" class="cls-6" fill-rule="evenodd"/></g></svg>