<svg xmlns="http://www.w3.org/2000/svg" xmlns:xlink="http://www.w3.org/1999/xlink" preserveAspectRatio="xMidYMid" width="218" height="210" viewBox="0 0 218 210"><defs><style>.cls-3{fill:#ededed}.cls-4{fill:#010101;opacity:.35}.cls-5{fill:#ff3a2f}.cls-6{fill:#fff}.cls-10{fill:#010101}.cls-12{fill:#fbb713}</style></defs><g id="group-157svg"><path d="M90.694 195.679c0 7.267-5.8 13.153-12.952 13.153H12.964c-7.159.0-12.956-5.886-12.956-13.153V102.517c0-7.268 5.797-13.153 12.956-13.153H77.742C84.894 89.364 90.694 95.249 90.694 102.517v93.162z" id="path-1" class="cls-3" fill-rule="evenodd"/><path d="M77.742 89.364s-64.778.0-64.778.0C6.177 89.364.678 94.672.117 101.413h61.56C68.829 101.413 74.63 107.298 74.63 114.565v93.164C74.63 208.106 74.551 208.461 74.52 208.832H77.742c7.152.0 12.952-5.886 12.952-13.153V102.517c0-7.267-5.8-13.153-12.952-13.153z" id="path-2" class="cls-4" fill-rule="evenodd"/><path d="M45.348 51.692c-22.674.0-41.06 18.661-41.06 41.689H86.41c0-23.028-18.382-41.689-41.062-41.689z" id="path-3" class="cls-5" fill-rule="evenodd"/><path d="M14.614 81.128C13.998 81.128 13.374 80.971 12.804 80.638 11.078 79.635 10.49 77.424 11.492 75.698 14.192 71.046 18.056 67.156 22.664 64.445 24.388 63.438 26.602 64.009 27.613 65.73 28.624 67.451 28.049 69.665 26.328 70.679 22.79 72.758 19.821 75.749 17.744 79.327 17.073 80.483 15.861 81.128 14.614 81.128z" id="path-4" class="cls-6" fill-rule="evenodd"/><path d="M45.42 51.696c4.511 3.346 8.331 7.597 11.19 12.49 5.476 9.372-1.527 21.162-12.381 21.162H5.067c-.5 2.601-.779 5.283-.779 8.033H86.411c0-23.003-18.345-41.645-40.991-41.685z" id="path-5" class="cls-4" fill-rule="evenodd"/><path d="M30.068 186.164C28.446 186.164 27.133 184.851 27.133 183.229V111.023c0-1.622 1.313-2.935 2.935-2.935s2.935 1.313 2.935 2.935v72.206C33.003 184.851 31.69 186.164 30.068 186.164z" id="path-6" class="cls-4" fill-rule="evenodd"/><path d="M62.722 186.164C61.101 186.164 59.788 184.851 59.788 183.229V111.023c0-1.622 1.313-2.935 2.934-2.935 1.62199999999999.0 2.936 1.313 2.936 2.935v72.206C65.658 184.851 64.344 186.164 62.722 186.164z" id="path-7" class="cls-4" fill-rule="evenodd"/><path d="M35.843 70.363C33.019 70.363 30.723 68.05 30.723 65.209 30.723 62.368 33.019 60.056 35.843 60.056 38.663 60.056 40.957 62.368 40.957 65.209 40.957 68.05 38.663 70.363 35.843 70.363zm0-5.871C35.426 64.492 35.087 64.814 35.087 65.209 35.087 66.001 36.593 66.005 36.593 65.209 36.593 64.807 36.265 64.492 35.843 64.492z" id="path-8" class="cls-10" fill-rule="evenodd"/><path d="M54.757 70.363c-2.82.0-5.114-2.313-5.114-5.154C49.643 62.368 51.937 60.056 54.757 60.056 57.582 60.056 59.878 62.368 59.878 65.209 59.878 68.05 57.582 70.363 54.757 70.363zm0-5.871C54.343 64.492 54.008 64.814 54.008 65.209 54.008 66.005 55.513 66.001 55.513 65.209 55.513 64.814 55.174 64.492 54.757 64.492z" id="path-9" class="cls-10" fill-rule="evenodd"/><path d="M126.19 13.144C126.19 5.877 131.992-.014 139.144-.014h64.777C211.08-.014 216.881 5.877 216.881 13.144v93.162c0 7.268-5.80099999999999 13.153-12.96 13.153H139.144C131.992 119.459 126.19 113.574 126.19 106.306V13.144z" id="path-10" class="cls-12" fill-rule="evenodd"/><path d="M171.537 161.148c22.674.0 41.059-18.661 41.059-41.689H130.475c0 23.028 18.382 41.689 41.062 41.689z" id="path-11" class="cls-5" fill-rule="evenodd"/><path d="M203.921-.014S196.69-.014 196.69-.014C196.722.356 196.801.715 196.801 1.096V94.258c0 7.268-5.80199999999999 13.151-12.961 13.151H126.3C126.86 114.152 132.364 119.459 139.144 119.459h64.777C211.08 119.459 216.881 113.573 216.881 106.306V13.144C216.881 5.877 211.08-.014 203.921-.014z" id="path-12" class="cls-4" fill-rule="evenodd"/><path d="M195.753 119.459C192.064 138.639 175.438 153.114 155.473 153.114 152.123 153.114 148.884 152.663 145.767 151.895 152.815 157.673 161.772 161.148 171.537 161.148c22.674.0 41.059-18.661 41.059-41.689H195.753z" id="path-13" class="cls-4" fill-rule="evenodd"/><path d="M149.814 144.84C149.199 144.84 148.574 144.683 148.002 144.352 143.349 141.649 139.458 137.783 136.752 133.178 135.742 131.458 136.317 129.243 138.039 128.231 139.756 127.221 141.975 127.795 142.986 129.518 145.063 133.053 148.054 136.02 151.634 138.1 153.361 139.103 153.947 141.314 152.944 143.042 152.273 144.196 151.061 144.84 149.814 144.84z" id="path-14" class="cls-6" fill-rule="evenodd"/><path d="M186.816 100.737C185.194 100.737 183.881 99.423 183.881 97.801V25.596C183.881 23.974 185.194 22.66 186.816 22.66c1.62299999999999.0 2.935 1.314 2.935 2.936V97.801C189.751 99.423 188.439 100.737 186.816 100.737z" id="path-15" class="cls-4" fill-rule="evenodd"/><path d="M154.162 100.737C152.54 100.737 151.227 99.423 151.227 97.801V25.596C151.227 23.974 152.54 22.66 154.162 22.66c1.62099999999998.0 2.935 1.314 2.935 2.936V97.801C157.097 99.423 155.783 100.737 154.162 100.737z" id="path-16" class="cls-4" fill-rule="evenodd"/></g></svg>