<svg xmlns="http://www.w3.org/2000/svg" xmlns:xlink="http://www.w3.org/1999/xlink" preserveAspectRatio="xMidYMid" width="174" height="216" viewBox="0 0 174 216"><defs><style>.cls-3{fill:#fbb713}.cls-4{fill:#000;opacity:.35}.cls-6{fill:#142a3b}</style></defs><g id="group-66svg"><path d="M98.866 157.259s15.855-15.855 15.855-15.855S33 59.686 33 59.686s-2.415-2.416-2.415-2.416c-8.448-8.448-22.146-8.448-30.595.0l98.876 99.989z" id="path-1" class="cls-3" fill-rule="evenodd"/><path d="M98.866 157.259s15.855-15.855 15.855-15.855S33 59.686 33 59.686s-2.415-2.416-2.415-2.416c-8.448-8.448-22.146-8.448-30.595.0l98.876 99.989z" id="path-2" class="cls-4" fill-rule="evenodd"/><path d="M98.794 63.401S114.65 79.256 114.65 79.256s-81.091 81.09-81.091 81.09S31.144 162.761 31.144 162.761C22.695 171.209 8.997 171.209.548 162.761l98.246-99.36z" id="path-3" class="cls-3" fill-rule="evenodd"/><path d="M71.529 110.942C71.529 114.722 68.464 117.787 64.683 117.787 60.903 117.787 57.838 114.722 57.838 110.942c0-3.782 3.065-6.845 6.84500000000001-6.845C68.464 104.097 71.529 107.16 71.529 110.942z" id="path-4" class="cls-6" fill-rule="evenodd"/><path d="M131.567.014c-23.175.0-41.961 18.785-41.961 41.959.0 23.172 18.786 41.958 41.961 41.958 23.174.0 41.96-18.786 41.96-41.958.0-23.174-18.786-41.959-41.96-41.959zm0 65.386c-12.94.0-23.43-10.488-23.43-23.427.0-12.937 10.49-23.429 23.43-23.429 12.939.0 23.428 10.492 23.428 23.429.0 12.939-10.489 23.427-23.428 23.427z" id="path-5" class="cls-3" fill-rule="evenodd"/><path d="M130.908 131.629c-23.175.0-41.961 18.786-41.961 41.958.0 23.174 18.786 41.959 41.961 41.959 23.173.0 41.96-18.785 41.96-41.959.0-23.172-18.787-41.958-41.96-41.958zm0 65.387c-12.94.0-23.43-10.49-23.43-23.429.0-12.939 10.49-23.428 23.43-23.428 12.939.0 23.428 10.489 23.428 23.428.0 12.939-10.489 23.429-23.428 23.429z" id="path-6" class="cls-3" fill-rule="evenodd"/><path d="M112.615 55.649C109.827 51.794 108.137 47.094 108.137 41.973c0-12.937 10.49-23.429 23.429-23.429 5.12100000000001.0 9.821 1.689 13.676 4.478C140.985 17.137 134.11 13.272 126.294 13.272c-12.94.0-23.429 10.49-23.429 23.429.0 7.817 3.866 14.693 9.75 18.948z" id="path-7" class="cls-4" fill-rule="evenodd"/><path d="M158.473 9.791C164.572 17.077 168.255 26.456 168.255 36.701c0 23.172-18.787 41.957-41.961 41.957C116.049 78.658 106.67 74.977 99.384 68.877c7.697 9.197 19.252 15.054 32.182 15.054 23.174.0 41.961-18.786 41.961-41.958C173.527 29.043 167.669 17.488 158.473 9.791z" id="path-8" class="cls-4" fill-rule="evenodd"/><path d="M111.959 187.266C109.169 183.409 107.478 178.71 107.478 173.587c0-12.939 10.49-23.428 23.43-23.428C136.03 150.159 140.73 151.849 144.586 154.638 140.33 148.753 133.453 144.887 125.635 144.887c-12.94.0-23.429 10.489-23.429 23.427C102.206 176.132 106.073 183.011 111.959 187.266z" id="path-9" class="cls-4" fill-rule="evenodd"/><path d="M157.817 141.41C163.915 148.694 167.595 158.072 167.595 168.314c0 23.175-18.786 41.959-41.96 41.959-10.244.0-19.622-3.678-26.907-9.77699999999999C106.425 209.69 117.978 215.546 130.908 215.546c23.173.0 41.96-18.785 41.96-41.959.0-12.929-5.857-24.481-15.051-32.177z" id="path-10" class="cls-4" fill-rule="evenodd"/></g></svg>