<svg xmlns="http://www.w3.org/2000/svg" xmlns:xlink="http://www.w3.org/1999/xlink" preserveAspectRatio="xMidYMid" width="216" height="167" viewBox="0 0 216 167"><defs><style>.cls-3{fill:#142a3b}.cls-4{fill:#000;opacity:.35}.cls-5{fill:#ededed;opacity:.35}.cls-14{fill:#ff3a2f}</style></defs><g id="group-160svg"><path d="M193.092 22.441s-170.636.0-170.636.0C10.077 22.441.004 32.513.004 44.892v98.786c0 12.378 10.073 22.452 22.452 22.452H193.092c12.381.0 22.452-10.074 22.452-22.452V44.892c0-12.379-10.071-22.451-22.452-22.451z" id="path-1" class="cls-3" fill-rule="evenodd"/><path d="M197.269 22.845C198.839 25.909 199.743 29.37 199.743 33.042v98.787c0 12.377-10.071 22.451-22.452 22.451H6.656C5.228 154.28 3.834 154.131 2.48 153.875c3.722 7.262 11.27 12.255 19.976 12.255H193.092c12.381.0 22.452-10.074 22.452-22.452V44.892C215.544 33.942 207.658 24.81 197.269 22.845z" id="path-2" class="cls-4" fill-rule="evenodd"/><path d="M62.87 130.207s-26.943.0-26.943.0c-2.476.0-4.49-2.00799999999998-4.49-4.49.0-2.483 2.014-4.491 4.49-4.491H62.87c2.478.0 4.49 2.008 4.49 4.491.0 2.48200000000001-2.012 4.49-4.49 4.49z" id="path-3" class="cls-5" fill-rule="evenodd"/><path d="M62.87 103.265s-26.943.0-26.943.0c-2.476.0-4.49-2.00700000000001-4.49-4.491C31.437 96.293 33.451 94.285 35.927 94.285H62.87C65.348 94.285 67.36 96.293 67.36 98.774c0 2.48399999999999-2.012 4.491-4.49 4.491z" id="path-4" class="cls-5" fill-rule="evenodd"/><path d="M125.736 130.207s-35.924.0-35.924.0c-2.477.0-4.49-2.00799999999998-4.49-4.49.0-2.483 2.01299999999999-4.491 4.49-4.491h35.924c2.47799999999999.0 4.491 2.008 4.491 4.491C130.227 128.199 128.214 130.207 125.736 130.207z" id="path-5" class="cls-5" fill-rule="evenodd"/><path d="M125.736 103.265s-35.924.0-35.924.0c-2.477.0-4.49-2.00700000000001-4.49-4.491C85.322 96.293 87.335 94.285 89.812 94.285h35.924C128.214 94.285 130.227 96.293 130.227 98.774 130.227 101.258 128.214 103.265 125.736 103.265z" id="path-6" class="cls-5" fill-rule="evenodd"/><path d="M179.621 130.207s-26.942.0-26.942.0C150.201 130.207 148.188 128.199 148.188 125.717 148.188 123.234 150.201 121.226 152.679 121.226h26.942C182.099 121.226 184.111 123.234 184.111 125.717 184.111 128.199 182.099 130.207 179.621 130.207z" id="path-7" class="cls-5" fill-rule="evenodd"/><path d="M179.621 103.265s-26.942.0-26.942.0C150.201 103.265 148.188 101.258 148.188 98.774 148.188 96.293 150.201 94.285 152.679 94.285h26.942C182.099 94.285 184.111 96.293 184.111 98.774 184.111 101.258 182.099 103.265 179.621 103.265z" id="path-8" class="cls-5" fill-rule="evenodd"/><path d="M179.621 76.324s-143.694.0-143.694.0c-2.476.0-4.49-2.008-4.49-4.491.0-2.482 2.014-4.49 4.49-4.49H179.621C182.099 67.343 184.111 69.351 184.111 71.833c0 2.483-2.012 4.491-4.48999999999998 4.491z" id="path-9" class="cls-5" fill-rule="evenodd"/><path d="M169.559 22.441s0 20.122.0 20.122c0 2.483-2.012 4.49-4.49000000000001 4.49C162.592 47.053 160.579 45.046 160.579 42.563V22.441S169.559 22.441 169.559 22.441z" id="path-10" class="cls-4" fill-rule="evenodd"/><path d="M70.807 22.441s0 20.122.0 20.122c0 2.483-2.01300000000001 4.49-4.491 4.49-2.477.0-4.49-2.007-4.49-4.49V22.441s8.981.0 8.981.0z" id="path-11" class="cls-4" fill-rule="evenodd"/><path d="M58.379 44.892c2.479.0 4.491-2.008 4.491-4.49V4.48c0-2.483-2.012-4.491-4.491-4.491-2.476.0-4.49 2.008-4.49 4.491V40.402c0 2.482 2.014 4.49 4.49 4.49z" id="path-12" class="cls-14" fill-rule="evenodd"/><path d="M157.169 44.892C159.647 44.892 161.659 42.884 161.659 40.402V4.48C161.659 1.997 159.647-.011 157.169-.011 154.692-.011 152.679 1.997 152.679 4.48V40.402C152.679 42.884 154.692 44.892 157.169 44.892z" id="path-13" class="cls-14" fill-rule="evenodd"/></g></svg>