<svg xmlns="http://www.w3.org/2000/svg" xmlns:xlink="http://www.w3.org/1999/xlink" preserveAspectRatio="xMidYMid" width="216" height="216" viewBox="0 0 216 216"><defs><style>.cls-3{fill:#142a3b}.cls-4{fill:#060606;opacity:.35}.cls-5{fill:#f90}.cls-6{fill:#ededed}</style></defs><g id="group-10svg"><path d="M76.907 138.647C74.819 136.559 72.947 134.342 71.178 132.07L.012 203.235S12.317 215.54 12.317 215.54s71.167-71.165 71.167-71.165C81.212 142.607 78.995 140.735 76.907 138.647z" id="path-1" class="cls-3" fill-rule="evenodd"/><path d="M77.138 138.416C75.049 136.328 73.084 134.206 71.178 132.07L50.01 153.238s4.043 20.567 4.043 20.567 29.431-29.43 29.431-29.43C81.349 142.47 79.227 140.504 77.138 138.416z" id="path-2" class="cls-4" fill-rule="evenodd"/><path d="M189.389 152.487c-34.883 34.881-91.439 34.881-126.322.0-34.883-34.881-34.883-91.437.0-126.319 34.883-34.881 91.439-34.881 126.322.0 34.883 34.882 34.883 91.438.0 126.319z" id="path-3" class="cls-5" fill-rule="evenodd"/><path d="M175.723 138.821c-27.336 27.334-71.655 27.334-98.99.0-27.335-27.335-27.335-71.652.0-98.987 27.335-27.334 71.654-27.334 98.99.0 27.334 27.335 27.334 71.652.0 98.987z" id="path-4" class="cls-6" fill-rule="evenodd"/><path d="M80.296 50.524c27.335-27.334 71.654-27.334 98.989.0 6.489 6.487 11.386 13.951 14.794 21.898C191.117 60.487 185.052 49.164 175.723 39.835c-27.336-27.334-71.655-27.334-98.989.0C55.887 60.68 50.99 91.386 61.94 116.922 56.225 93.887 62.29 68.528 80.296 50.524z" id="path-5" class="cls-4" fill-rule="evenodd"/></g></svg>