<svg xmlns="http://www.w3.org/2000/svg" xmlns:xlink="http://www.w3.org/1999/xlink" preserveAspectRatio="xMidYMid" width="217" height="206" viewBox="0 0 217 206"><defs><style>.cls-3{fill:#2476ff}.cls-4{fill:#fff}.cls-7{fill:#020403;opacity:.35}.cls-13{fill:#020403;opacity:.45}.cls-14{fill:#ff3a2f}</style></defs><g id="group-53svg"><circle id="circle-1" class="cls-3" cx="42" cy="47" r="16"/><circle id="circle-2" class="cls-4" cx="39" cy="43" r="9"/><path d="M9.189.001c5.073.0 9.185 4.113 9.185 9.186.0 5.074-4.112 9.186-9.185 9.186S.003 14.261.003 9.187C.003 4.114 4.116.001 9.189.001z" id="path-1" class="cls-3" fill-rule="evenodd"/><path d="M215.758 177.566C213.52 174.246 207.774 162.714 205.102 163.236 202.431 163.751 194.514 185.213 195.702 188.741 196.898 192.268 208.946 188.46 212.875 188.372 216.797 188.284 217.996 180.893 215.758 177.566z" id="path-2" class="cls-3" fill-rule="evenodd"/><path d="M200.313 184.13C199.478 181.649 203.14 170.329 206.318 163.63 205.87 163.322 205.458 163.167 205.102 163.236 202.43 163.751 194.514 185.213 195.702 188.741 196.898 192.268 208.946 188.46 212.875 188.372 214.93 188.327 216.215 186.267 216.672 183.844 212.161 184.288 201.441 187.459 200.313 184.13z" id="path-3" class="cls-7" fill-rule="evenodd"/><path d="M195.306 139.566C192.747 134.127 182.095 114.307 174.525 114.012 166.962 113.722 145.693 183.5 147.352 191.718 153.233 195.116 175.258 193.757 179.094 192.692 181.932 187.06 197.858 145.006 195.306 139.566z" id="path-4" class="cls-3" fill-rule="evenodd"/><path d="M179.094 192.692C179.705 191.478 180.944 188.512 182.455 184.644 175.726 184.694 168.741 184.197 165.796 182.495 164.641 176.774 174.597 141.253 183.308 120.277 181.336 117.934 176.451 115.082 174.525 114.012 165.89 122.125 150.418 184.065 151.963 191.718 154.449 193.154 159.825 193.735 165.487 193.852 171.647 193.734 177.32 193.184 179.094 192.692z" id="path-5" class="cls-7" fill-rule="evenodd"/><path d="M204.656 158.793C203.558 155.021 197.445 141.13 193.273 139.307 189.093 137.476 166.491 188.644 172.4 190.788 178.309 192.931 192.176 192.105 194.227 191.208 196.292 190.294 205.763 162.573 204.656 158.793z" id="path-6" class="cls-3" fill-rule="evenodd"/><path d="M178.02 185.84C173.415 184.17 186.127 152.726 193.94 139.797 193.719 139.645 193.485 139.399 193.273 139.307 189.093 137.476 166.491 188.644 172.4 190.788 178.309 192.93 192.176 192.105 194.227 191.207 194.707 190.996 195.709 189.249 196.936 186.705 192.533 186.971 182.53 187.475 178.02 185.84z" id="path-7" class="cls-7" fill-rule="evenodd"/><path d="M122.467 140.987c0 26.492-21.476 47.968-47.968 47.968-26.492.0-47.968-21.476-47.968-47.968.0-26.493 21.476-47.97 47.968-47.97 26.492.0 47.968 21.477 47.968 47.97z" id="path-8" class="cls-3" fill-rule="evenodd"/><path d="M32.813 117.274C47.102 114.259 44.131 117.726 55.949 128.101c19.91 17.477 21.881 33.953 4.404 53.863C59.096 183.395 57.758 184.707 56.378 185.952 66.159 183.887 74.75 192.035 82.493 184.554c22.083-21.334 15.505-50.217-4.404-67.695C59.611 100.637 50.635 101.197 32.813 117.274z" id="path-9" class="cls-13" fill-rule="evenodd"/><path d="M96.879 162.047C87.439 160.695 77.885 178.856 52.977 176.73 38.485 175.495 32.32 169.611 32.916 152.61 33.684 130.698 48.372 118.268 48.952 109.772 49.203 106.094 41.172 100.359 37.645 102.138 28.557 106.724 19.022 139.846 20.135 153.647c1.627 20.24 15.421 28.92 28.68 33.68 13.252 4.755 47.269 9.352 60.571 2.749C114.76 187.401 103.038 162.932 96.879 162.047z" id="path-10" class="cls-14" fill-rule="evenodd"/><path d="M94.534 162.092C89.188 162.66 73.035 176.727 65.402 175.525 69.439 185.416 67.651 185.059 72.655 192.551 97.303 194.736 106.358 191.58 109.386 190.076 114.76 187.401 99.921 158.977 94.534 162.092z" id="path-11" class="cls-13" fill-rule="evenodd"/><path d="M45.64 118.155c1.813-3.196 3.146-5.958 3.312-8.383C49.203 106.094 41.172 100.359 37.645 102.138 35.392 103.275 33.113 106.171 30.974 110.085 35.284 112.226 40.337 114.845 45.64 118.155z" id="path-12" class="cls-13" fill-rule="evenodd"/><path d="M171.959 107.079C169.304 102.795 159.757 82.987 128.963 77.212c-20.52-3.846-80.499 5.471-100.765 18.895C20.644 101.111 58.893 106.763 81.659 137.638c19.345 26.241 16.045 50.897 38.823 63.342C130.771 206.598 137.368 206.281 143.902 204.427 150.787 202.471 155.885 185.262 162.502 163.518 169.657 140.035 176.019 113.637 171.959 107.079z" id="path-13" class="cls-14" fill-rule="evenodd"/><path d="M171.958 107.079C171.214 105.877 169.894 103.433 167.748 100.44 166.066 111.665 162.128 126.56 157.891 140.463 151.274 162.207 146.176 179.416 139.291 181.372 132.757 183.225 126.159 183.544 115.871 177.925c-22.778-12.444-19.478-37.102-38.822-63.342-9.108-12.353-20.69-20.66-30.83-26.512C38.907 90.502 32.588 93.2 28.198 96.107c-7.554 5.003 30.695 10.656 53.461 41.531 19.345 26.241 16.045 50.897 38.823 63.342C130.771 206.598 137.368 206.281 143.902 204.427 150.787 202.471 155.885 185.262 162.502 163.518 169.657 140.035 176.019 113.637 171.958 107.079z" id="path-14" class="cls-7" fill-rule="evenodd"/><path d="M151.598 110.369C150.653 110.369 149.711 110.002 149.003 109.27L148.066 108.269C143.802 103.639 130.89 89.563 103.324 90.372 101.282 90.429 99.663 88.861 99.603 86.866 99.543 84.871 101.112 83.205 103.108 83.145 133.917 82.246 148.569 98.141 153.383 103.371L154.192 104.238C155.583 105.67 155.548 107.96 154.115 109.349 153.412 110.03 152.505 110.369 151.598 110.369z" id="path-15" class="cls-4" fill-rule="evenodd"/></g></svg>