<svg xmlns="http://www.w3.org/2000/svg" xmlns:xlink="http://www.w3.org/1999/xlink" preserveAspectRatio="xMidYMid" width="217" height="217" viewBox="0 0 217 217"><defs><style>.cls-3{fill:#142a3b}.cls-11{fill:#ff3a2f}.cls-13{fill:#000;opacity:.35}</style></defs><g id="group-19svg"><path d="M112.054 216.874s-7.23.0-7.23.0.0-90.343.0-90.343 7.23.0 7.23.0.0 90.343.0 90.343z" id="path-1" class="cls-3" fill-rule="evenodd"/><path d="M112.054 88.191s-7.23.0-7.23.0.0-88.195.0-88.195 7.23.0 7.23.0.0 88.195.0 88.195z" id="path-2" class="cls-3" fill-rule="evenodd"/><path d="M90.349 112.049s-90.347.0-90.347.0S.002 104.821.002 104.821s90.347.0 90.347.0S90.349 112.049 90.349 112.049z" id="path-3" class="cls-3" fill-rule="evenodd"/><path d="M216.876 112.049s-92.418.0-92.418.0S124.458 104.821 124.458 104.821s92.418.0 92.418.0S216.876 112.049 216.876 112.049z" id="path-4" class="cls-3" fill-rule="evenodd"/><path d="M89.868 94.976s-60.66-60.664-60.66-60.664S34.319 29.2 34.319 29.2s60.66 60.663 60.66 60.663-5.111 5.113-5.111 5.113z" id="path-5" class="cls-3" fill-rule="evenodd"/><path d="M182.56 187.669s-60.664-60.665-60.664-60.665S127.008 121.892 127.008 121.892s60.664 60.665 60.664 60.665S182.56 187.669 182.56 187.669z" id="path-6" class="cls-3" fill-rule="evenodd"/><path d="M34.319 187.669S29.208 182.557 29.208 182.557s58.581-58.584 58.581-58.584S92.9 129.086 92.9 129.086s-58.581 58.583-58.581 58.583z" id="path-7" class="cls-3" fill-rule="evenodd"/><path d="M127.017 94.971s-5.112-5.113-5.112-5.113S182.56 29.2 182.56 29.2s5.112 5.112 5.112 5.112-60.655 60.659-60.655 60.659z" id="path-8" class="cls-3" fill-rule="evenodd"/><path d="M107.595 23.129c-47.911.0-86.75 38.84-86.75 86.753.0 47.91 38.839 86.751 86.75 86.751 47.91.0 86.75-38.841 86.75-86.751.0-47.913-38.84-86.753-86.75-86.753zm0 156.246c-38.38.0-69.494-31.113-69.494-69.493.0-38.382 31.114-69.496 69.494-69.496s69.493 31.114 69.493 69.496c0 38.38-31.113 69.493-69.493 69.493z" id="path-9" class="cls-11" fill-rule="evenodd"/><path d="M107.595 81.389c-15.736.0-28.491 12.756-28.491 28.493.0 15.734 12.755 28.491 28.491 28.491 15.735.0 28.49-12.757 28.49-28.491.0-15.737-12.755-28.493-28.49-28.493zm0 39.764C101.369 121.153 96.323 116.106 96.323 109.882 96.323 103.656 101.369 98.609 107.595 98.609 113.82 98.609 118.866 103.656 118.866 109.882 118.866 116.106 113.82 121.153 107.595 121.153z" id="path-10" class="cls-11" fill-rule="evenodd"/><path d="M118.043 102.905C119.106 104.76 119.761 106.878 119.761 109.168c0 6.997-5.673 12.671-12.671 12.671C104.801 121.839 102.682 121.183 100.829 120.12 103.013 123.932 107.073 126.53 111.782 126.53 118.78 126.53 124.452 120.856 124.452 113.859 124.452 109.151 121.855 105.09 118.043 102.905z" id="path-11" class="cls-13" fill-rule="evenodd"/></g></svg>