<svg xmlns="http://www.w3.org/2000/svg" xmlns:xlink="http://www.w3.org/1999/xlink" preserveAspectRatio="xMidYMid" width="218" height="217" viewBox="0 0 218 217"><defs><style>.cls-3{fill:#142a3b}.cls-4{fill:#ededed}.cls-5{fill:#fbb713}.cls-13{fill:#2476ff}.cls-14{fill:#020403;opacity:.25}</style></defs><g id="group-30svg"><path d="M216.869 108.428c0 59.89-48.549 108.44-108.437 108.44-59.888.0-108.437-48.55-108.437-108.44C-.005 48.539 48.544-.011 108.432-.011s108.437 48.55 108.437 108.439z" id="path-1" class="cls-3" fill-rule="evenodd"/><path d="M182.588 108.428c0 40.957-33.201 74.158-74.156 74.158s-74.156-33.201-74.156-74.158c0-40.956 33.201-74.158 74.156-74.158s74.156 33.202 74.156 74.158z" id="path-2" class="cls-4" fill-rule="evenodd"/><path d="M109.848 17.582c0 3.344-2.712 6.056-6.056 6.056-3.345.0-6.056-2.712-6.056-6.056.0-3.346 2.711-6.057 6.056-6.057 3.34399999999999.0 6.056 2.711 6.056 6.057z" id="path-3" class="cls-5" fill-rule="evenodd"/><path d="M109.848 201.871C109.848 205.216 107.136 207.928 103.792 207.928 100.447 207.928 97.736 205.216 97.736 201.871S100.447 195.815 103.792 195.815C107.136 195.815 109.848 198.526 109.848 201.871z" id="path-4" class="cls-5" fill-rule="evenodd"/><circle id="circle-1" class="cls-5" cx="208" cy="110" r="8"/><circle id="circle-2" class="cls-5" cx="12" cy="110" r="7"/><path d="M172.535 186.832C169.914 184.21 169.914 179.96 172.535 177.338 175.157 174.717 179.407 174.717 182.028 177.338 184.65 179.96 184.65 184.21 182.028 186.832 179.407 189.453 175.157 189.453 172.535 186.832z" id="path-5" class="cls-5" fill-rule="evenodd"/><path d="M34.355 48.853C31.99 46.487 31.99 42.653 34.355 40.288 36.72 37.922 40.554 37.922 42.92 40.288 45.285 42.653 45.285 46.487 42.92 48.853 40.554 51.218 36.72 51.218 34.355 48.853z" id="path-6" class="cls-5" fill-rule="evenodd"/><path d="M182.028 42.395C179.407 45.017 175.157 45.017 172.535 42.395 169.914 39.774 169.914 35.524 172.535 32.902 175.157 30.28 179.407 30.28 182.028 32.902 184.65 35.524 184.65 39.774 182.028 42.395z" id="path-7" class="cls-5" fill-rule="evenodd"/><path d="M42.92 179.166C40.554 181.53 36.72 181.53 34.355 179.166 31.99 176.8 31.99 172.965 34.355 170.599 36.72 168.235 40.554 168.235 42.92 170.599 45.285 172.965 45.285 176.8 42.92 179.166z" id="path-8" class="cls-5" fill-rule="evenodd"/><path d="M39.364 102.21S54.902 87.342 54.902 87.342C57.808 84.561 62.371 84.504 65.345 87.213l12.771 11.63C81.009 101.478 85.422 101.506 88.348 98.909l13.355-11.852C104.672 84.423 109.16 84.495 112.042 87.223l12.38 11.712C127.18 101.543 131.431 101.738 134.413 99.39l16.596-13.058C153.904 84.054 158.012 84.161 160.783 86.588l17.842 15.622S182.588 108.428 182.588 108.428c0 40.957-33.201 74.158-74.156 74.158s-74.156-33.201-74.156-74.158L39.364 102.21z" id="path-9" class="cls-13" fill-rule="evenodd"/><path d="M73.882 173.057c-12.804-13.328-20.715-31.391-20.715-51.332.0-40.957 33.201-74.158 74.156-74.158 12.35.0 23.969 3.062 34.212 8.403-13.495-14.046-32.427-22.827-53.443-22.827-40.954.0-74.155 33.203-74.155 74.159.0 28.606 16.221 53.385 39.945 65.755z" id="path-10" class="cls-14" fill-rule="evenodd"/></g></svg>