<svg xmlns="http://www.w3.org/2000/svg" xmlns:xlink="http://www.w3.org/1999/xlink" preserveAspectRatio="xMidYMid" width="185" height="217" viewBox="0 0 185 217"><defs><style>.cls-3{fill:#0cb04a}.cls-4{fill:#020403;opacity:.35}.cls-5{fill:#ff3a2f}.cls-6{fill:#142a3b}.cls-13{fill:#fff}</style></defs><g id="group-84svg"><path d="M30.216 81.829S30.493 44.909 30.493 44.909c0-4.036 3.457-7.308 7.728-7.308H147.844C152.115 37.601 155.572 40.873 155.572 44.909L155.094 79.572s0 0 0 0" id="path-1" class="cls-3" fill-rule="evenodd"/><path d="M147.844 37.601s-12.168.0-12.168.0S135.261 67.672 135.261 67.672 92.302 56.548 92.302 56.548 30.308 69.569 30.308 69.569 30.216 81.829 30.216 81.829 155.094 79.572 155.094 79.572 155.572 44.909 155.572 44.909C155.572 40.873 152.115 37.601 147.844 37.601z" id="path-2" class="cls-4" fill-rule="evenodd"/><path d="M93.02 64.107S45.739 75.969 5.489 87.208C.128 88.71-1.61 94.595 1.654 99.932c13.895 22.667 54.145 84.844 71.387 107.78C80.358 217.408 93.221 216.884 93.221 216.884S105.362 217.16 113.014 207.075c20.172-26.591 56.36-84.101 70.65-109.417C186.399 92.808 182.808 87.505 177.068 85.945 137.473 75.187 93.02 64.107 93.02 64.107z" id="path-3" class="cls-5" fill-rule="evenodd"/><path d="M92.819 132.625C90.822 132.625 89.204 131.007 89.204 129.011V65.39C89.204 63.394 90.822 61.776 92.819 61.776c1.996.0 3.614 1.618 3.614 3.614v63.621C96.433 131.007 94.815 132.625 92.819 132.625z" id="path-4" class="cls-6" fill-rule="evenodd"/><path d="M58.853 118.693c0 8.077-4.094 14.618-9.146 14.618C44.631 133.311 40.512 126.77 40.512 118.693c0-8.075 4.119-14.616 9.195-14.616 5.052.0 9.146 6.541 9.146 14.616z" id="path-5" class="cls-6" fill-rule="evenodd"/><path d="M143.674 117.557C143.674 125.612 139.579 132.173 134.511 132.173c-5.059.0-9.163-6.56100000000001-9.163-14.616.0-8.08500000000001 4.104-14.621 9.163-14.621C139.579 102.936 143.674 109.472 143.674 117.557z" id="path-6" class="cls-6" fill-rule="evenodd"/><path d="M76.172 39.456s0-33.547.0-33.547C76.172 2.657 77.077.01 78.169.01h28.452C107.737.01 108.635 2.657 108.635 5.909V37.333s0 0 0 0" id="path-7" class="cls-5" fill-rule="evenodd"/><path d="M106.621.01s-9.886.0-9.886.0S96.121 33.515 96.121 33.515 76.172 34.174 76.172 34.174s0 5.282.0 5.282 32.462-2.123 32.462-2.123.0-31.424.0-31.424C108.634 2.657 107.737.01 106.621.01z" id="path-8" class="cls-4" fill-rule="evenodd"/><path d="M105.936 12.305s-26.511.0-26.511.0c-1.997.0-3.615-1.618-3.615-3.614.0-1.997 1.618-3.616 3.615-3.616h26.511C107.932 5.075 109.55 6.694 109.55 8.691c0 1.996-1.618 3.614-3.61399999999999 3.614z" id="path-9" class="cls-6" fill-rule="evenodd"/><path d="M177.068 85.945C137.473 75.187 93.02 64.107 93.02 64.107S92.757 64.173 92.302 64.288V216.877C92.871 216.894 93.221 216.884 93.221 216.884S105.362 217.16 113.014 207.075c20.172-26.591 56.36-84.101 70.65-109.417C186.399 92.808 182.808 87.506 177.068 85.945z" id="path-10" class="cls-4" fill-rule="evenodd"/><path d="M65.815 185.874C64.628 185.874 63.466 185.29 62.774 184.218l-29.85-46.271C31.842 136.27 32.324 134.032 34.003 132.95 35.683 131.868 37.917 132.352 38.999 134.028l29.85 46.271C69.931 181.976 69.449 184.215 67.771 185.296 67.165 185.687 66.486 185.874 65.815 185.874z" id="path-11" class="cls-13" fill-rule="evenodd"/></g></svg>