<svg xmlns="http://www.w3.org/2000/svg" xmlns:xlink="http://www.w3.org/1999/xlink" preserveAspectRatio="xMidYMid" width="159" height="216" viewBox="0 0 159 216"><defs><style>.cls-3{fill:#142a3b}.cls-4{fill:#fbb713}.cls-6{fill:#000;opacity:.35}.cls-7{fill:#0cb04a}</style></defs><g id="group-116svg"><path d="M158.118 46.031S30.952 43.477 30.952 43.477.055 54.186.055 54.186s125.732.0 125.732.0 32.331-8.155 32.331-8.155z" id="path-1" class="cls-3" fill-rule="evenodd"/><path d="M126 216.18s-126 0-126 0S0 54.186.0 54.186s96.599.0 96.599.0 29.401.0 29.401.0.0 161.994.0 161.994z" id="path-2" class="cls-4" fill-rule="evenodd"/><path d="M158 197.842s-32 16.343-32 16.343.0-159.724.0-159.724 32-8.291 32-8.291.0 151.672.0 151.672z" id="path-3" class="cls-4" fill-rule="evenodd"/><path d="M158 197.842s-32 16.343-32 16.343.0-159.724.0-159.724 32-8.291 32-8.291.0 151.672.0 151.672z" id="path-4" class="cls-6" fill-rule="evenodd"/><path d="M108.541 87.587C108.541 93.16 104.048 97.678 98.507 97.678c-5.542.0-10.035-4.518-10.035-10.091C88.472 82.015 92.965 77.496 98.507 77.496 104.048 77.496 108.541 82.015 108.541 87.587z" id="path-5" class="cls-7" fill-rule="evenodd"/><path d="M40.136 87.587C40.136 93.16 35.644 97.678 30.101 97.678c-5.541.0-10.034-4.518-10.034-10.091.0-5.572 4.493-10.091 10.034-10.091C35.644 77.496 40.136 82.015 40.136 87.587z" id="path-6" class="cls-7" fill-rule="evenodd"/><path d="M103.657 78.856C104.582 80.383 105.144 82.158 105.144 84.077 105.144 89.65 100.652 94.167 95.11 94.167 93.218 94.167 91.469 93.61 89.959 92.696c1.761 2.907 4.914 4.868 8.548 4.868C104.048 97.564 108.541 93.046 108.541 87.473c0-3.67-1.96899999999999-6.852-4.884-8.617z" id="path-7" class="cls-6" fill-rule="evenodd"/><path d="M35.252 78.856C36.176 80.383 36.739 82.158 36.739 84.077 36.739 89.65 32.246 94.167 26.704 94.167 24.813 94.167 23.064 93.61 21.554 92.696c1.761 2.907 4.914 4.868 8.547 4.868C35.644 97.564 40.136 93.046 40.136 87.473 40.136 83.803 38.166 80.621 35.252 78.856z" id="path-8" class="cls-6" fill-rule="evenodd"/><path d="M97 90.382C95.016 90.382 93 88.774 93 86.791V37.44C93 20.466 80.614 7.169 64.5 7.169 48.385 7.169 36 20.466 36 37.44V83.198C36 85.182 34.483 86.791 32.5 86.791 30.516 86.791 29 85.182 29 83.198V37.44C29 16.437 44.856-.015 64.999-.015 85.143-.015 101 16.437 101 37.44V86.791C101 88.774 98.983 90.382 97 90.382z" id="path-9" class="cls-3" fill-rule="evenodd"/><path d="M115 47.277c-1.98399999999999.0-4-1.609-4-3.594V37.44C111 20.749 97.337 7.169 80.5 7.169 63.662 7.169 50 20.749 50 37.44v6.243c0 1.985-1.517 3.594-3.5 3.594-1.984.0-3.5-1.609-3.5-3.594V37.44C43 16.787 60.202-.015 81-.015s37.999 16.802 37.999 37.455v6.243c0 1.985-2.015 3.594-3.999 3.594z" id="path-10" class="cls-3" fill-rule="evenodd"/></g></svg>