<svg xmlns="http://www.w3.org/2000/svg" xmlns:xlink="http://www.w3.org/1999/xlink" preserveAspectRatio="xMidYMid" width="198" height="217" viewBox="0 0 198 217"><defs><style>.cls-3{fill:#fbb713}.cls-5{fill:#020403;opacity:.35}.cls-6{fill:#9fa869}.cls-7{fill:#2476ff}.cls-9{fill:#142a3b}.cls-10{fill:#fff}</style></defs><g id="group-56svg"><path d="M173.649 201.08s-76.368-42.918-76.368-42.918C92.579 155.521 85.855 155.52 81.154 158.162L4.78 201.08C-4.598 206.35.774 216.872 12.844 216.872h93.122s59.619.0 59.619.0c12.07.0 17.441-10.521 8.06399999999999-15.792z" id="path-1" class="cls-3" fill-rule="evenodd"/><path d="M194.483 31.218C193.966 32.358 192.62 32.861 191.481 32.344l-46.97-21.316C143.372 10.511 142.866 9.168 143.382 8.029L146.425 1.323C146.942.183 148.288-.32 149.427.196l46.97 21.315C197.536 22.028 198.043 23.372 197.525 24.513l-3.042 6.705z" id="path-2" class="cls-3" fill-rule="evenodd"/><path d="M143.382 8.029C142.866 9.168 143.372 10.511 144.511 11.028l46.97 21.316C192.62 32.861 193.966 32.358 194.483 31.218L195.214 29.606S144.113 6.417 144.113 6.417 143.382 8.029 143.382 8.029z" id="path-3" class="cls-5" fill-rule="evenodd"/><path d="M172.912 20.573s-7.315-3.32-7.315-3.32C164.415 16.717 163.024 17.241 162.487 18.424L162.201 19.055s11.591 5.262 11.591 5.262S174.079 23.684 174.079 23.684C174.616 22.501 174.093 21.109 172.912 20.573z" id="path-4" class="cls-6" fill-rule="evenodd"/><path d="M79.898 189.072S80.22 189.217 80.22 189.217s35.76.0 35.76.0 10.045-32.344 10.045-32.344C127.696 151.495 125.102 145.716 119.974 143.389l-11.948-5.423C102.899 135.64 96.84 137.494 93.894 142.291L74.997 173.054c-3.518 5.727-1.218 13.24 4.901 16.018z" id="path-5" class="cls-7" fill-rule="evenodd"/><path d="M119.922 143.365c-5.087 11.207-11.859 19.088-15.133 17.603C101.52 159.484 102.991 149.197 108.077 137.99" id="path-6" class="cls-5" fill-rule="evenodd"/><path d="M155.544 61.241C156.061 60.101 155.554 58.756 154.415 58.24l-4.987-2.264C148.286 55.458 146.945 55.965 146.427 57.104l-40.105 88.383C106.318 145.494 106.32 145.5 106.316 145.507 106.307 145.53 106.293 145.551 106.282 145.574c-2.241 4.93899999999999-2.018 9.869.497 11.01C109.301 157.729 113.156 154.65 115.397 149.71 115.408 149.687 115.415 149.664 115.426 149.64 115.429 149.634 115.434 149.63 115.437 149.624l40.107-88.383z" id="path-7" class="cls-9" fill-rule="evenodd"/><path d="M111.874 145.365s38.488-84.817 38.488-84.817-2.696-1.224-2.696-1.224-38.488 84.817-38.488 84.817S109.173 144.139 109.173 144.139C107.791 147.184 107.274 149.925 108.024 150.264 108.772 150.605 110.496 148.412 111.879 145.366L111.874 145.365z" id="path-8" class="cls-10" fill-rule="evenodd"/><path d="M156.886 61.02C156.368 62.159 155.026 62.665 153.887 62.148L146.836 58.948C145.697 58.431 145.193 57.087 145.71 55.949l16.815-37.057C163.043 17.753 164.386 17.248 165.524 17.765L172.574 20.965C173.713 21.481 174.218 22.824 173.702 23.964L156.886 61.02z" id="path-9" class="cls-3" fill-rule="evenodd"/><path d="M150.361 60.548S147.666 59.325 147.666 59.325s18.688-41.184 18.688-41.184S169.049 19.365 169.049 19.365s-18.688 41.183-18.688 41.183z" id="path-10" class="cls-10" fill-rule="evenodd"/><path d="M115.98 189.217s10.045-32.344 10.045-32.344C127.596 151.818 125.366 146.445 120.838 143.88 121.501 145.986 121.584 148.288 120.887 150.533l-10.709 34.478C109.674 186.635 108.835 188.049 107.77 189.217H115.98z" id="path-11" class="cls-5" fill-rule="evenodd"/><path d="M79.898 189.072S80.22 189.217 80.22 189.217 89.052 189.217 89.052 189.217 74.76 182.731 74.76 182.731C74.428 182.581 74.152 182.366 73.842 182.189 74.745 185.121 76.846 187.686 79.898 189.072z" id="path-12" class="cls-5" fill-rule="evenodd"/></g></svg>