<svg xmlns="http://www.w3.org/2000/svg" xmlns:xlink="http://www.w3.org/1999/xlink" preserveAspectRatio="xMidYMid" width="216" height="210" viewBox="0 0 216 210"><defs><style>.cls-3{fill:#ff3a2f}.cls-8{fill:#000;opacity:.35}</style></defs><g id="group-151svg"><path d="M155.366 172.422C154.459 172.422 153.538 172.25 152.647 171.886L66.055 136.458C62.382 134.954 60.623 130.761 62.126 127.087c1.503-3.672 5.701-5.429 9.37-3.929l86.592 35.428C161.761 160.089 163.52 164.283 162.017 167.956 160.878 170.739 158.194 172.422 155.366 172.422z" id="path-1" class="cls-3" fill-rule="evenodd"/><path d="M68.778 87.16C65.922 87.16 63.222 85.447 62.101 82.632 60.633 78.945 62.431 74.766 66.118 73.299l76.108-30.304C145.916 41.524 150.091 43.326 151.557 47.012 153.025 50.698 151.227 54.877 147.541 56.344L71.433 86.648C70.561 86.995 69.662 87.16 68.778 87.16z" id="path-2" class="cls-3" fill-rule="evenodd"/><path d="M155.366 199.345c13.763 13.762 36.075 13.761 49.837.0 13.761-13.761 13.762-36.073.0-49.835s-36.075-13.762-49.837.0c-13.761 13.762-13.762 36.074.0 49.835z" id="path-3" class="cls-3" fill-rule="evenodd"/><path d="M144.883 60.152c13.762 13.762 36.074 13.762 49.836.0 13.762-13.761 13.762-36.072.0-49.835-13.762-13.76-36.075-13.76-49.836.0-13.762 13.763-13.763 36.074.0 49.835z" id="path-4" class="cls-3" fill-rule="evenodd"/><path d="M14.37 139.619c19.181 19.179 50.277 19.179 69.458.0 19.18-19.181 19.181-50.277.0-69.458-19.181-19.178-50.278-19.178-69.458.0-19.181 19.18-19.181 50.277.0 69.458z" id="path-5" class="cls-3" fill-rule="evenodd"/><path d="M205.203 149.51C204.317 148.624 203.394 147.8 202.442 147.029c11.22 13.839 10.395 34.198-2.482 47.074C187.085 206.979 166.725 207.803 152.885 196.584 153.657 197.537 154.481 198.459 155.366 199.345c13.762 13.762 36.075 13.761 49.837.0 13.761-13.761 13.761-36.073.0-49.835z" id="path-6" class="cls-8" fill-rule="evenodd"/><path d="M194.719 10.317C193.834 9.433 192.91 8.608 191.958 7.837 203.177 21.677 202.353 42.035 189.477 54.912c-12.876 12.875-33.236 13.699-47.076 2.48C143.173 58.343 143.997 59.267 144.883 60.152c13.761 13.762 36.074 13.762 49.836.0 13.762-13.761 13.762-36.072.0-49.835z" id="path-7" class="cls-8" fill-rule="evenodd"/><path d="M83.828 70.161C82.943 69.276 82.008 68.477 81.074 67.673c16.608 19.297 15.808 48.41-2.488 66.703-18.295 18.296-47.409 19.096-66.704 2.488.802.935000000000002 1.603 1.869 2.487 2.755 19.181 19.179 50.278 19.179 69.459.0 19.18-19.181 19.181-50.277.0-69.458z" id="path-8" class="cls-8" fill-rule="evenodd"/></g></svg>