<svg xmlns="http://www.w3.org/2000/svg" xmlns:xlink="http://www.w3.org/1999/xlink" preserveAspectRatio="xMidYMid" width="120" height="217" viewBox="0 0 120 217"><defs><style>.cls-3{fill:#fbb713}.cls-4{fill:#020403;opacity:.25}.cls-5{fill:#2476ff}</style></defs><g id="group-126svg"><path d="M44.702 153.394s-44.697.0-44.697.0.0-95.922.0-95.922 44.697.0 44.697.0.0 95.922.0 95.922z" id="path-1" class="cls-3" fill-rule="evenodd"/><path d="M5.086 57.472s-5.081.0-5.081.0.0 95.922.0 95.922 44.697.0 44.697.0.0-95.922.0-95.922-7.784 71.466-7.784 71.466C35.622 138.185 24.07 141.788 17.834 134.838 14.169 130.754 5.086 57.472 5.086 57.472z" id="path-2" class="cls-4" fill-rule="evenodd"/><path d="M46.517 57.472s-1.815.0-1.815.0.0 96.216.0 96.216 74.581 63.193 74.581 63.193.0-216.879.0-216.879-72.766 57.47-72.766 57.47z" id="path-3" class="cls-5" fill-rule="evenodd"/><path d="M103.371 12.57s0 134.728.0 134.728c0 11.447-13.398 17.656-22.133 10.255L44.702 126.597s0 27.091.0 27.091 74.581 63.193 74.581 63.193.0-216.879.0-216.879S103.371 12.57 103.371 12.57z" id="path-4" class="cls-4" fill-rule="evenodd"/></g></svg>