<svg xmlns="http://www.w3.org/2000/svg" xmlns:xlink="http://www.w3.org/1999/xlink" preserveAspectRatio="xMidYMid" width="216" height="163" viewBox="0 0 216 163"><defs><style>.cls-3{fill:#142a3b}.cls-4{fill:#2476ff}.cls-5{fill:#ededed}.cls-7{fill:#ff3a2f}.cls-8{fill:#000;opacity:.35}</style></defs><g id="group-97svg"><path d="M109.593 50.956c-1.98400000000001.0-3.5-1.608-3.5-3.591V32.996c0-1.984 1.51599999999999-3.593 3.5-3.593 1.98399999999999.0 3.5 1.609 3.5 3.593V47.365c0 1.983-1.51600000000001 3.591-3.5 3.591z" id="path-1" class="cls-3" fill-rule="evenodd"/><path d="M184.317 118.849C181.878 79.849 149.081 47.267 108.961 47.267c-40.121.0-72.918 32.582-75.356 71.582H184.317z" id="path-2" class="cls-4" fill-rule="evenodd"/><path d="M56.464 95.895C56.056 95.895 55.643 95.824 55.238 95.676 53.373 95 52.41 92.939 53.087 91.075 57.872 77.892 67.16 66.816 79.244 59.886 80.959 58.894 83.16 59.492 84.146 61.212 85.134 62.933 84.539 65.127 82.818 66.115 72.206 72.205 64.046 81.939 59.84 93.526 59.311 94.985 57.932 95.895 56.464 95.895z" id="path-3" class="cls-5" fill-rule="evenodd"/><path d="M215.551 161.847s-215.54.0-215.54.0 23.993-42.998 23.993-42.998 167.554.0 167.554.0 23.993 42.998 23.993 42.998z" id="path-4" class="cls-3" fill-rule="evenodd"/><path d="M123.12 15.325c0 8.471-6.867 15.339-15.339 15.339C99.309 30.664 92.441 23.796 92.441 15.325c0-8.472 6.868-15.339 15.34-15.339C116.253-.014 123.12 6.853 123.12 15.325z" id="path-5" class="cls-7" fill-rule="evenodd"/><path d="M128.372 49.68c14.477 7.968 26.078 20.576 32.812 35.97C166.613 98.06 157.163 111.935 143.618 111.935H34.333C34.007 114.152 33.742 116.391 33.605 118.67H184.317c-2.03-33.642-25.127-60.808-55.945-68.99z" id="path-6" class="cls-8" fill-rule="evenodd"/><path d="M191.558 118.67s-20.207.0-20.207.0 23.993 43.781 23.993 43.781 20.207.0 20.207.0-23.993-43.781-23.993-43.781z" id="path-7" class="cls-8" fill-rule="evenodd"/><path d="M116.782 2.842C118.629 5.375 119.753 8.467 119.753 11.844c0 8.471-6.868 15.338-15.34 15.338C101.038 27.182 97.946 26.059 95.412 24.213 98.201 28.038 102.685 30.55 107.781 30.55 116.253 30.55 123.12 23.682 123.12 15.211 123.12 10.114 120.607 5.632 116.782 2.842z" id="path-8" class="cls-8" fill-rule="evenodd"/></g></svg>