<svg xmlns="http://www.w3.org/2000/svg" xmlns:xlink="http://www.w3.org/1999/xlink" preserveAspectRatio="xMidYMid" width="216" height="215" viewBox="0 0 216 215"><defs><style>.cls-3{fill:#fbb713}.cls-4{fill:#ff3a2f}.cls-5{fill:#010101;opacity:.25}.cls-6{fill:#010101;opacity:.35}.cls-7{fill:#fff}.cls-8{fill:#090909;opacity:.35}.cls-10{fill:#142a3b}.cls-13{fill:#000;opacity:.35}</style></defs><g id="group-94svg"><path d="M215.554 170.379c0 6.102-4.87200000000001 11.05-10.877 11.05H150.278c-6.012.0-10.883-4.94800000000001-10.883-11.05V92.149C139.395 86.046 144.266 81.105 150.278 81.105h54.399c6.005.0 10.877 4.941 10.877 11.044v78.23z" id="path-1" class="cls-3" fill-rule="evenodd"/><path d="M177.473 46.099c-19.04.0-34.48 15.669-34.48 35.006h68.963c0-19.337-15.437-35.006-34.483-35.006z" id="path-2" class="cls-4" fill-rule="evenodd"/><path d="M150.278 181.429S156.351 181.429 156.351 181.429C156.325 181.117 156.258 180.816 156.258 180.497V102.266C156.258 96.165 161.13 91.223 167.141 91.223h48.321C214.991 85.562 210.371 81.106 204.677 81.106H150.278c-6.012.0-10.883 4.941-10.883 11.043v78.23c0 6.102 4.87099999999998 11.05 10.883 11.05z" id="path-3" class="cls-5" fill-rule="evenodd"/><path d="M157.137 81.106C160.235 64.999 174.196 52.844 190.964 52.844 193.777 52.844 196.497 53.224 199.114 53.868 193.196 49.016 185.674 46.099 177.473 46.099c-19.04.0-34.48 15.669-34.48 35.007h14.144z" id="path-4" class="cls-6" fill-rule="evenodd"/><path d="M204.07 74.716C202.837 74.716 201.637 74.082 200.968 72.941 199.273 70.053 196.833 67.63 193.908 65.935 192.193 64.939 191.609 62.742 192.605 61.025 193.6 59.309 195.797 58.727 197.515 59.722 201.505 62.037 204.843 65.351 207.164 69.304 208.169 71.016 207.595 73.215 205.885 74.22 205.313 74.555 204.687 74.716 204.07 74.716z" id="path-5" class="cls-7" fill-rule="evenodd"/><path d="M164.643 162.841c-1.61099999999999.0-2.917-1.304-2.917-2.916V99.292C161.726 97.68 163.032 96.375 164.643 96.375 166.255 96.375 167.56 97.68 167.56 99.292v60.633C167.56 161.537 166.255 162.841 164.643 162.841z" id="path-6" class="cls-8" fill-rule="evenodd"/><path d="M192.064 162.841c-1.61099999999999.0-2.916-1.304-2.916-2.916V99.292C189.148 97.68 190.453 96.375 192.064 96.375 193.677 96.375 194.982 97.68 194.982 99.292v60.633C194.982 161.537 193.677 162.841 192.064 162.841z" id="path-7" class="cls-8" fill-rule="evenodd"/><path d="M213.614 214.607s-213.6.0-213.6.0.0-19.124.0-19.124 213.6.0 213.6.0.0 19.124.0 19.124z" id="path-8" class="cls-10" fill-rule="evenodd"/><path d="M112.998 213.312s-12.367.0-12.367.0.0-199.095.0-199.095 12.367.0 12.367.0.0 199.095.0 199.095z" id="path-9" class="cls-10" fill-rule="evenodd"/><path d="M127.899 21.078c0 11.644-9.44 21.084-21.085 21.084-11.644.0-21.084-9.44-21.084-21.084.0-11.645 9.44-21.084 21.084-21.084 11.645.0 21.085 9.439 21.085 21.084z" id="path-10" class="cls-10" fill-rule="evenodd"/><path d="M106.814-.006C105.472-.006 104.168.149 102.896.389c9.767 1.84 17.165 10.386 17.165 20.69C120.061 31.38 112.663 39.926 102.896 41.766 104.168 42.006 105.472 42.162 106.814 42.162c11.645.0 21.085-9.44 21.085-21.083.0-11.646-9.44-21.085-21.085-21.085z" id="path-11" class="cls-13" fill-rule="evenodd"/><path d="M59.525 47.974s0-31.118.0-31.118-20.235.0-20.235.0.0 31.118.0 31.118C39.29 50.71 38.528 53.39 37.09 55.716L15.776 90.194c-1.438 2.327-2.2 5.008-2.2 7.743v68.766C13.576 174.836 20.169 181.429 28.302 181.429H70.513C78.646 181.429 85.238 174.836 85.238 166.703V97.937C85.238 95.202 84.477 92.521 83.039 90.194L61.726 55.716c-1.439-2.326-2.201-5.006-2.201-7.742z" id="path-12" class="cls-4" fill-rule="evenodd"/><path d="M83.039 90.194S61.726 55.716 61.726 55.716c-1.439-2.326-2.201-5.006-2.201-7.742V16.856s-7.837.0-7.837.0.0 27.199.0 27.199c0 2.735.760999999999996 5.416 2.2 7.742L75.202 86.275C76.64 88.601 77.401 91.283 77.401 94.018v68.768C77.401 170.918 70.808 177.511 62.675 177.511H20.464C19.646 177.511 18.857 177.398 18.075 177.269c2.651 2.566 6.247 4.16 10.227 4.16H70.513C78.646 181.429 85.238 174.836 85.238 166.704V97.937C85.238 95.203 84.477 92.52 83.039 90.194z" id="path-13" class="cls-13" fill-rule="evenodd"/><path d="M65.849 18.542s-32.883.0-32.883.0.0-17.418.0-17.418 32.883.0 32.883.0.0 17.418.0 17.418z" id="path-14" class="cls-10" fill-rule="evenodd"/><path d="M53.49 1.124s0 17.418.0 17.418 12.14.0 12.14.0.0-17.418.0-17.418-12.14.0-12.14.0z" id="path-15" class="cls-13" fill-rule="evenodd"/><path d="M85.238 151.201s-51.357.0-51.357.0.0-37.437.0-37.437 51.357.0 51.357.0.0 37.437.0 37.437z" id="path-16" class="cls-7" fill-rule="evenodd"/></g></svg>