<svg xmlns="http://www.w3.org/2000/svg" xmlns:xlink="http://www.w3.org/1999/xlink" preserveAspectRatio="xMidYMid" width="136" height="218" viewBox="0 0 136 218"><defs><style>.cls-3{fill:#142a3b}.cls-4{fill:#020403;opacity:.35}.cls-5{fill:#fbb713}.cls-6{fill:#fff}</style></defs><g id="group-10svg"><path d="M63.74 44.445C63.74 19.983 49.923.152 32.329.152 14.733.152-.001 19.983-.001 44.445c0 21.017 9.189 38.604 24.188 43.143V208.565s13.999.0 13.999.0.0-120.977.0-120.977C49.185 83.049 63.74 65.462 63.74 44.445z" id="path-1" class="cls-3" fill-rule="evenodd"/><path d="M32.772.007c-2.018.0-3.315-.104-5.241.395 14.79 3.849 25.466 19.576 25.466 41.232.0 21.018-12.656 38.604-24.477 43.143V208.162s11.441.0 11.441.0.0-120.719.0-120.719C51.783 82.903 65.01 62.652 64.817 41.634 64.628 20.935 50.368.007 32.772.007z" id="path-2" class="cls-4" fill-rule="evenodd"/><path d="M111.182 129.442s0-126.87.0-126.87-15 0-15 0 0 126.87.0 126.87C82.183 133.981 72.224 151.566 72.224 172.585c0 24.461 14.614 44.292 32.209 44.292 17.594.0 31.633-19.831 31.633-44.292.0-21.019-14.885-38.604-24.884-43.143z" id="path-3" class="cls-5" fill-rule="evenodd"/><path d="M109.959 208.125C107.963 208.125 106.344 206.506 106.344 204.51 106.344 202.514 107.963 200.895 109.959 200.895c5.709.0 10.353-7.25400000000002 10.353-16.171C120.312 182.728 121.931 181.11 123.927 181.11c1.996.0 3.615 1.618 3.615 3.61399999999998.0 13.121-7.724 23.401-17.583 23.401z" id="path-4" class="cls-6" fill-rule="evenodd"/><path d="M11.45 38.685c-1.996.0-3.614-1.618-3.614-3.615.0-13.121 7.722-23.401 17.582-23.401 1.996.0 3.614 1.619 3.614 3.615s-1.618 3.615-3.614 3.615c-5.709.0-10.354 7.255-10.354 16.171.0 1.997-1.618 3.615-3.614 3.615z" id="path-5" class="cls-6" fill-rule="evenodd"/><path d="M80.891 172.585C80.891 151.566 90.719 133.981 106.481 129.442V2.128S97.753 2.273 97.753 2.273s0 127.024.0 127.024C82.176 135.694 73.009 151.566 73.009 172.585c0 24.461 13.798 44.292 31.394 44.292C105.742 216.877 107.051 216.725 108.342 216.502 92.675 213.792 80.891 195.184 80.891 172.585z" id="path-6" class="cls-4" fill-rule="evenodd"/></g></svg>