<svg xmlns="http://www.w3.org/2000/svg" xmlns:xlink="http://www.w3.org/1999/xlink" preserveAspectRatio="xMidYMid" width="217" height="209" viewBox="0 0 217 209"><defs><style>.cls-3{fill:#fbb713}.cls-4{fill:#bd8b0f}.cls-14{fill:#020403;opacity:.35}</style></defs><g id="group-47svg"><path d="M150.836 62.415s56.882 7.427 56.882 7.427C216.337 70.967 219.923 81.487 213.788 87.644l-40.495 40.633C170.856 130.721 169.779 134.209 170.411 137.602l10.514 56.395C182.518 202.541 173.622 209.204 165.871 205.271l-51.157-25.958C111.636 177.75 107.987 177.804 104.955 179.454L54.571 206.88C46.937 211.036 37.851 204.633 39.197 196.047l8.878-56.676C48.61 135.961 47.431 132.506 44.925 130.133L3.272 90.689C-3.039 84.712.242 74.093 8.825 72.719L65.468 63.649C68.877 63.104 71.798 60.916 73.281 57.799L97.922 5.995C101.656-1.855 112.769-2.015 116.728 5.723l26.129 51.069C144.43 59.865 147.413 61.968 150.836 62.415z" id="path-1" class="cls-3" fill-rule="evenodd"/><path d="M110.741 44.468S111.556 45.599 112.197 47.292C112.879 48.987 113.424 51.247 113.577 53.506 113.681 54.635 113.66 55.765 113.419 56.823 113.18 57.883 112.814 58.871 112.497 59.718 111.851 61.413 111.644 62.542 111.644 62.542 111.517 63.241 110.848 63.703 110.15 63.576 109.608 63.478 109.209 63.053 109.115 62.542 109.115 62.542 108.91 61.413 108.262 59.718 107.945 58.871 107.579 57.883 107.341 56.823 107.099 55.765 107.078 54.635 107.184 53.506 107.335 51.247 107.88 48.987 108.562 47.292 109.203 45.599 110.018 44.468 110.018 44.468 110.162 44.27 110.441 44.223 110.64 44.369 110.68 44.396 110.714 44.432 110.741 44.468z" id="path-2" class="cls-4" fill-rule="evenodd"/><path d="M114.266 80.616S114.285 84.046 113.382 87.478C113 89.195 112.391 90.911 111.822 92.197S110.741 94.341 110.741 94.341C110.622 94.541 110.363 94.607 110.163 94.486 110.102 94.451 110.052 94.398 110.018 94.341 110.018 94.341 109.506 93.483 108.938 92.197 108.369 90.911 107.76 89.195 107.378 87.478 106.474 84.046 106.494 80.616 106.494 80.616 106.505 78.469 108.254 76.738 110.401 76.75 112.532 76.763 114.254 78.488 114.266 80.616z" id="path-3" class="cls-4" fill-rule="evenodd"/><path d="M69.069 168.764S69.292 167.388 70.037 165.739C70.752 164.057 71.964 162.074 73.454 160.369 74.179 159.495 74.992 158.712 75.912 158.135 76.829 157.554 77.787 157.114 78.61 156.738 80.266 155.999 81.21 155.346 81.21 155.346 81.793 154.942 82.595 155.087 82.998 155.671 83.311 156.123 83.293 156.706 82.998 157.135 82.998 157.135 82.345 158.078 81.605 159.734 81.23 160.557 80.789 161.515 80.21 162.432 79.632 163.352 78.847 164.166 77.975 164.889 76.269 166.379 74.287 167.591 72.606 168.308 70.955 169.054 69.58 169.275 69.58 169.275 69.338 169.314 69.108 169.15 69.069 168.906 69.061 168.858 69.062 168.809 69.069 168.764z" id="path-4" class="cls-4" fill-rule="evenodd"/><path d="M92.135 140.71S94.548 138.272 97.614 136.484C99.097 135.541 100.741 134.76 102.053 134.251 103.365 133.743 104.334 133.499 104.334 133.499 104.559 133.441 104.788 133.579 104.845 133.805 104.862 133.874 104.861 133.945 104.845 134.009 104.845 134.009 104.6 134.979 104.092 136.29 103.585 137.603 102.802 139.246 101.859 140.73 100.071 143.795 97.631 146.209 97.631 146.209 96.106 147.718 93.645 147.703 92.135 146.177 90.637 144.662 90.641 142.224 92.135 140.71z" id="path-5" class="cls-4" fill-rule="evenodd"/><path d="M119.738 133.771S121.107 134 122.757 134.745C124.437 135.462 126.414 136.68 128.128 138.16 128.993 138.893 129.801 139.682 130.385 140.595 130.977 141.502 131.422 142.453 131.801 143.272 132.537 144.933 133.178 145.889 133.178 145.889 133.584 146.496 133.422 147.317 132.816 147.723 132.358 148.03 131.776 148.011 131.345 147.723 131.345 147.723 130.388 147.083 128.728 146.346 127.909 145.967 126.956 145.521 126.051 144.928 125.137 144.346 124.348 143.537 123.616 142.674 122.135 140.958 120.917 138.981 120.202 137.301 119.454 135.651 119.227 134.283 119.227 134.283 119.186 134.039 119.35 133.812 119.592 133.771 119.641 133.762 119.692 133.765 119.738 133.771z" id="path-6" class="cls-4" fill-rule="evenodd"/><path d="M147.782 156.845S148.445 157.44 149.314 158.456C150.185 159.472 151.277 160.895 152.226 162.462 153.213 163.991 154.031 165.689 154.569 167.037 155.1 168.393 155.358 169.391 155.358 169.391 155.416 169.616 155.282 169.845 155.057 169.903 154.986 169.921 154.913 169.919 154.847 169.903 154.847 169.903 153.848 169.643 152.492 169.114 151.144 168.576 149.446 167.758 147.917 166.77 146.35 165.823 144.927 164.731 143.911 163.86 142.894 162.99 142.299 162.327 142.299 162.327 140.865 160.732 140.996 158.278 142.59 156.845 144.077 155.508 146.325 155.544 147.782 156.845z" id="path-7" class="cls-4" fill-rule="evenodd"/><path d="M135.522 112.921S136.085 111.648 137.224 110.238C138.342 108.793 140.016 107.182 141.889 105.91 142.811 105.248 143.796 104.695 144.832 104.368 145.866 104.04 146.904 103.856 147.795 103.702 149.585 103.404 150.664 103.011 150.664 103.011 151.33 102.77 152.068 103.112 152.311 103.779 152.499 104.296 152.334 104.856 151.941 105.194 151.941 105.194 151.07 105.943 149.934 107.356 149.364 108.059 148.695 108.874 147.902 109.614 147.11 110.358 146.146 110.946 145.118 111.426 143.091 112.436 140.867 113.107 139.06 113.374 137.274 113.677 135.888 113.545 135.888 113.545 135.642 113.522 135.462 113.304 135.486 113.059 135.491 113.01 135.504 112.965 135.522 112.921z" id="path-8" class="cls-4" fill-rule="evenodd"/><path d="M164.937 91.618S167.888 89.869 171.306 88.916C172.979 88.377 174.768 88.038 176.166 87.878 177.563 87.719 178.563 87.729 178.563 87.729 178.796 87.73 178.982 87.921 178.981 88.152 178.98 88.224 178.96 88.294 178.928 88.352 178.928 88.352 178.446 89.227 177.623 90.367 176.8 91.509 175.627 92.902 174.339 94.098 171.833 96.611 168.863 98.327 168.863 98.327 167.004 99.403 164.627 98.766 163.553 96.908 162.487 95.061 163.108 92.703 164.937 91.618z" id="path-9" class="cls-4" fill-rule="evenodd"/><path d="M36.874 87.539S38.257 87.413 40.041 87.718C41.848 87.985 44.069 88.664 46.102 89.661 47.124 90.151 48.106 90.711 48.902 91.447 49.704 92.173 50.376 92.981 50.95 93.677 52.082 95.098 52.944 95.861 52.944 95.861 53.49 96.345 53.54 97.182 53.057 97.726 52.691 98.14 52.125 98.269 51.634 98.1 51.634 98.1 50.546 97.721 48.754 97.43 47.866 97.272 46.831 97.081 45.806 96.737 44.774 96.403 43.806 95.821 42.879 95.169c-1.867-1.283-3.546-2.886-4.663-4.333C37.076 89.43 36.509 88.163 36.509 88.163 36.409 87.938 36.509 87.675 36.733 87.576 36.779 87.555 36.827 87.543 36.874 87.539z" id="path-10" class="cls-4" fill-rule="evenodd"/><path d="M69.845 102.764S70.636 103.174 71.735 103.936C72.834 104.7 74.251 105.8 75.566 107.075 76.907 108.304 78.128 109.739 78.99 110.908 79.846 112.085 80.349 112.987 80.349 112.987 80.462 113.188 80.39 113.444 80.187 113.557 80.123 113.592 80.052 113.61 79.984 113.61 79.984 113.61 78.952 113.613 77.506 113.443 76.065 113.264 74.216 112.903 72.487 112.334 70.731 111.813 69.079 111.116 67.875 110.53 66.672 109.945 65.928 109.457 65.928 109.457 64.137 108.276 63.642 105.869 64.822 104.078 65.922 102.409 68.106 101.874 69.845 102.764z" id="path-11" class="cls-4" fill-rule="evenodd"/><path d="M178.746 202.534s-68.366-75.682-68.366-75.682.0 51.352.0 51.352S110.44 178.246 110.44 178.246C111.907 178.311 113.367 178.629 114.714 179.313l51.157 25.958C170.632 207.687 175.817 206.096 178.746 202.534z" id="path-12" class="cls-14" fill-rule="evenodd"/><path d="M41.349 204.481s69.031-77.629 69.031-77.629.0 51.352.0 51.352S109.654 178.246 109.654 178.246C108.187 178.311 106.727 178.629 105.38 179.313L54.224 207.217C49.462 209.633 44.278 208.042 41.349 204.481z" id="path-13" class="cls-14" fill-rule="evenodd"/><path d="M108.422 88.039s0-87.888.0-87.888c-4.121-.397-8.435 1.502-10.5 5.844L73.281 57.799C72.658 59.109 71.738 60.205 70.678 61.133l37.744 26.906z" id="path-14" class="cls-14" fill-rule="evenodd"/><path d="M93.232 116.133S.847 78.973.847 78.973C-.748 82.751-.186 87.413 3.272 90.689l41.653 39.444C47.308 132.389 48.44 135.624 48.092 138.867l45.14-22.734z" id="path-15" class="cls-14" fill-rule="evenodd"/><path d="M124.897 114.472s91.111-38.148 91.111-38.148C217.604 80.102 217.041 84.765 213.583 88.039l-40.38 40.433C170.821 130.728 169.688 133.963 170.036 137.206l-45.139-22.734z" id="path-16" class="cls-14" fill-rule="evenodd"/></g></svg>