<svg xmlns="http://www.w3.org/2000/svg" xmlns:xlink="http://www.w3.org/1999/xlink" preserveAspectRatio="xMidYMid" width="210" height="216" viewBox="0 0 210 216"><defs><style>.cls-3{fill:#ff3a2f}.cls-4{fill:#0cb04a}.cls-5{fill:#fbb713}.cls-6{fill:#000;opacity:.35}</style></defs><g id="group-165svg"><path d="M210.002 132.622s0 38.685.0 38.685c0 24.414-47.022 44.211-105.006 44.211-57.987.0-105.007-19.797-105.007-44.211V132.622s98.228 79.211 210.013.0z" id="path-1" class="cls-3" fill-rule="evenodd"/><path d="M210.002 88.409s0 38.686.0 38.686c0 24.413-47.022 44.212-105.006 44.212-57.987.0-105.007-19.799-105.007-44.212V88.409s98.228 79.214 210.013.0z" id="path-2" class="cls-4" fill-rule="evenodd"/><path d="M210.002 49.723s0 38.686.0 38.686c0 24.415-47.022 44.213-105.006 44.213-57.987.0-105.007-19.798-105.007-44.213V49.723s98.228 79.213 210.013.0z" id="path-3" class="cls-5" fill-rule="evenodd"/><path d="M182.369 158.526s0 18.307.0 18.307c0 15.322-18.532 28.82-46.66 36.752C178.709 208.052 210.003 191.221 210.003 171.307V132.621c-10.608 15.545-18.546 21.364-27.634 25.905z" id="path-4" class="cls-6" fill-rule="evenodd"/><path d="M182.369 118.295s0 14.326.0 14.326c0 15.322-18.532 28.819-46.66 36.752C178.709 163.84 210.003 147.008 210.003 127.095V93.936C203.54 108.097 191.457 113.754 182.369 118.295z" id="path-5" class="cls-6" fill-rule="evenodd"/><path d="M124.181 83.842C52.393 91.898-.011 49.723-.011 49.723s0 22.167.0 22.167C27.167 85.074 72.074 98.91 124.181 83.842z" id="path-6" class="cls-6" fill-rule="evenodd"/><path d="M182.369 66.289s0 27.647.0 27.647c0 15.323-18.532 28.818-46.66 36.752C178.709 125.154 210.003 108.322 210.003 88.41V49.723c-9.327 6.61-18.546 12.025-27.634 16.566z" id="path-7" class="cls-6" fill-rule="evenodd"/><path d="M210.005 44.197c0 24.415-47.023 44.212-105.007 44.212C47.012 88.409-.008 68.612-.008 44.197-.008 19.781 47.012-.014 104.998-.014c57.984.0 105.007 19.795 105.007 44.211z" id="path-8" class="cls-3" fill-rule="evenodd"/></g></svg>