<svg xmlns="http://www.w3.org/2000/svg" xmlns:xlink="http://www.w3.org/1999/xlink" preserveAspectRatio="xMidYMid" width="138" height="218" viewBox="0 0 138 218"><defs><style>.cls-3{fill:#142a3b}.cls-4{fill:#020403;opacity:.35}.cls-5{fill:#ff3a2f}.cls-6{fill:#fff}.cls-8{fill:#fbb713}</style></defs><g id="group-40svg"><path d="M87.508.011s-37.445.02-37.445.02C42.922.034 37.117 5.845 37.12 12.987L37.14 51.405S43.067 51.401 43.067 51.401 48.994 51.398 48.994 51.398 88.631 51.378 88.631 51.378 94.558 51.375 94.558 51.375 100.485 51.372 100.485 51.372 100.464 12.954 100.464 12.954C100.461 5.819 94.644.008 87.508.011z" id="path-1" class="cls-3" fill-rule="evenodd"/><path d="M100.465 12.954C100.46 5.819 94.644.008 87.509.01L73.737.018c7.101.035 12.88 5.825 12.884 12.936L86.641 51.372S80.715 51.375 80.715 51.375 74.788 51.378 74.788 51.378 37.14 51.398 37.14 51.398 37.14 51.405 37.14 51.405 43.067 51.401 43.067 51.401 48.993 51.398 48.993 51.398 88.631 51.378 88.631 51.378 94.558 51.375 94.558 51.375 100.483 51.372 100.483 51.372 100.465 12.954 100.465 12.954z" id="path-2" class="cls-4" fill-rule="evenodd"/><path d="M114.566 47.71S23.07 47.757 23.07 47.757C10.333 47.764-.014 58.134-.009 70.859L.055 193.817c.007 12.725 10.377 23.08 23.103 23.073L114.646 216.843C127.383 216.836 137.732 206.465 137.726 193.746L137.662 70.788C137.65 58.063 127.297 47.715 114.566 47.71z" id="path-3" class="cls-5" fill-rule="evenodd"/><path d="M13.899 123.6C11.906 123.6 10.288 121.986 10.284 119.993L10.22 84.709C10.217 77.584 12.993 70.88 18.037 65.828 23.084 60.774 29.786 57.989 36.911 57.985H36.913C38.909 57.985 40.526 59.603 40.528 61.598 40.53 63.595 38.911 65.214 36.915 65.214 31.723 65.217 26.834 67.249 23.152 70.937c-3.679 3.685-5.707 8.574-5.703 13.764L17.513 119.979C17.517 121.976 15.902 123.596 13.906 123.6 13.903 123.6 13.901 123.6 13.899 123.6z" id="path-4" class="cls-6" fill-rule="evenodd"/><path d="M137.662 70.788C137.65 58.063 127.296 47.715 114.566 47.71L87.02 47.724C99.684 47.807 109.962 58.112 109.975 70.788L110.04 193.746C110.047 206.465 99.696 216.836 86.961 216.843L23.015 216.875C23.064 216.875 23.109 216.89 23.157 216.89L114.646 216.843C127.383 216.836 137.732 206.465 137.726 193.746L137.662 70.788z" id="path-5" class="cls-4" fill-rule="evenodd"/><path d="M89.319 107.909C90.314 105.699 92.061 103.16 94.194 101.002 96.344 98.88 98.892 97.135 101.102 96.132 103.277 95.088 105.155 94.815 105.155 94.815S104.883 96.687 103.847 98.869C102.841 101.08 101.105 103.63 98.98 105.788 96.828 107.917 94.288 109.667 92.071 110.675c-2.181 1.039-4.053 1.306-4.053 1.306S88.283 110.086 89.319 107.909z" id="path-6" class="cls-8" fill-rule="evenodd"/><path d="M66.898 83.585C67.703 81.309 68.834 79.791 68.834 79.791S69.967 81.307 70.775 83.584C71.635 85.859 72.205 88.893 72.218 91.922 72.208 94.945 71.647 97.979 70.789 100.256 69.984 102.532 68.847 104.044 68.847 104.044S67.708 102.532 66.902 100.258C66.04 97.977 65.476 94.948 65.456 91.925 65.473 88.896 66.04 85.857 66.898 83.585z" id="path-7" class="cls-8" fill-rule="evenodd"/><path d="M36.572 96.16C38.795 97.155 41.333 98.902 43.491 101.028 45.614 103.19 47.363 105.732 48.36 107.942 49.404 110.129 49.678 111.996 49.678 111.996S47.805 111.724 45.63 110.676C43.413 109.681 40.869 107.934 38.711 105.819c-2.129-2.155-3.879-4.691-4.888-6.908C32.785 96.731 32.518 94.853 32.518 94.853S34.397 95.118 36.572 96.16z" id="path-8" class="cls-8" fill-rule="evenodd"/><path d="M21.289 133.122C19.012 132.305 17.5 131.18 17.5 131.18S19.011 130.047 21.287 129.234C23.562 128.372 26.596 127.814 29.624 127.795 32.654 127.811 35.688 128.372 37.958 129.237 40.241 130.042 41.753 131.167 41.753 131.167S40.235 132.3 37.96 133.101C35.691 133.956 32.658 134.52 29.628 134.551 26.599 134.529 23.565 133.985 21.289 133.122z" id="path-9" class="cls-8" fill-rule="evenodd"/><path d="M48.402 154.385C47.401 156.596 45.661 159.158 43.534 161.309 41.372 163.439 38.836 165.188 36.62 166.185 34.445 167.23 32.567 167.503 32.567 167.503S32.833 165.612 33.869 163.431C34.863 161.219 36.611 158.676 38.743 156.518 40.893 154.388 43.441 152.639 45.663 151.642 47.837 150.609 49.71 150.331 49.71 150.331S49.439 152.215 48.402 154.385z" id="path-10" class="cls-8" fill-rule="evenodd"/><path d="M70.829 178.727C70.024 180.997 68.888 182.515 68.888 182.515S67.749 180.999 66.941 178.728C66.081 176.447 65.517 173.425 65.497 170.396 65.513 167.373 66.081 164.339 66.938 162.069 67.743 159.78 68.875 158.262 68.875 158.262s1.133 1.506 1.94 3.798C71.675 164.33 72.245 167.352 72.259 170.392 72.249 173.415 71.687 176.444 70.829 178.727z" id="path-11" class="cls-8" fill-rule="evenodd"/><path d="M101.138 166.152C98.927 165.146 96.378 163.41 94.212 161.283 92.084 159.139 90.335 156.585 89.338 154.381 88.293 152.189 88.025 150.31 88.025 150.31S89.904 150.576 92.086 151.618C94.309 152.612 96.853 154.359 99.005 156.487 101.134 158.642 102.884 161.196 103.868 163.406 104.913 165.593 105.186 167.466 105.186 167.466S103.32 167.182 101.138 166.152z" id="path-12" class="cls-8" fill-rule="evenodd"/><path d="M116.435 133.06C114.153 133.916 111.126 134.48 108.097 134.511 105.068 134.489 102.04 133.94 99.763 133.08 97.481 132.264 95.969 131.138 95.969 131.138S97.486 130.006 99.761 129.194C102.036 128.333 105.071 127.773 108.093 127.754 111.122 127.77 114.15 128.333 116.433 129.196 118.709 130.001 120.221 131.126 120.221 131.126S118.71 132.247 116.435 133.06z" id="path-13" class="cls-8" fill-rule="evenodd"/><path d="M86.131 127.795C86.131 137.365 78.373 145.124 68.802 145.124 59.232 145.124 51.475 137.365 51.475 127.795c0-9.571 7.757-17.328 17.327-17.328C78.373 110.467 86.131 118.224 86.131 127.795z" id="path-14" class="cls-8" fill-rule="evenodd"/></g></svg>