<svg xmlns="http://www.w3.org/2000/svg" xmlns:xlink="http://www.w3.org/1999/xlink" preserveAspectRatio="xMidYMid" width="217" height="218" viewBox="0 0 217 218"><defs><style>.cls-3{fill:#ededed}.cls-4{fill:#020403;opacity:.35}.cls-7{fill:#ff3a2f}</style></defs><g id="group-29svg"><path d="M106.384 7.469C50.51 7.469 5.215 52.765 5.215 108.641S50.51 209.813 106.384 209.813c55.875.0 101.17-45.296 101.17-101.172.0-55.876-45.295-101.172-101.17-101.172zm0 156.479c-30.545.0-55.306-24.762-55.306-55.307s24.761-55.307 55.306-55.307c30.546.0 55.307 24.762 55.307 55.307s-24.761 55.307-55.307 55.307z" id="path-1" class="cls-3" fill-rule="evenodd"/><path d="M200.423 71.497S150.385 75.231 150.385 75.231C155.098 81.428 158.543 88.628 160.307 96.482L206.232 93.055C205.071 85.567 203.132 78.348 200.423 71.497z" id="path-2" class="cls-4" fill-rule="evenodd"/><path d="M121.966 55.598C130.733 58.17 138.59 62.842 144.961 69.051L140.825 13.611C133.69 11.023 126.213 9.177 118.434 8.251l3.532 47.347z" id="path-3" class="cls-4" fill-rule="evenodd"/><path d="M139.691 152.72C133.706 157.25 126.785 160.584 119.252 162.382L128.186 207.394C135.505 205.786 142.493 203.344 149.125 200.243l-9.434-47.523z" id="path-4" class="cls-4" fill-rule="evenodd"/><path d="M116.127 63.101s-15.38.0-15.38.0c-6.25.0-11.528-4.643-12.324-10.843L83.517 14.01C82.565 6.582 88.351.004 95.841.004h25.191c7.491.0 13.277 6.578 12.324 14.006L128.45 52.258C127.656 58.458 122.377 63.101 116.127 63.101z" id="path-5" class="cls-7" fill-rule="evenodd"/><path d="M100.747 153.786s15.38.0 15.38.0C122.377 153.786 127.656 158.43 128.45 164.63L133.356 202.877C134.309 210.306 128.523 216.884 121.032 216.884H95.841C88.351 216.884 82.565 210.306 83.517 202.877L88.423 164.63C89.219 158.43 94.497 153.786 100.747 153.786z" id="path-6" class="cls-7" fill-rule="evenodd"/><path d="M153.778 116.135s0-15.381.0-15.381C153.778 94.503 158.421 89.225 164.622 88.43L202.869 83.524C210.297 82.571 216.874 88.358 216.874 95.847V121.04c0 7.49-6.577 13.277-14.005 12.324L164.622 128.458C158.421 127.663 153.778 122.384 153.778 116.135z" id="path-7" class="cls-7" fill-rule="evenodd"/><path d="M63.096 100.754s0 15.381.0 15.381c0 6.249-4.644 11.528-10.844 12.323L14.006 133.364C6.577 134.317.0 128.53.0 121.04V95.847C0 88.358 6.577 82.571 14.006 83.524L52.252 88.43C58.452 89.225 63.096 94.503 63.096 100.754z" id="path-8" class="cls-7" fill-rule="evenodd"/></g></svg>