<svg xmlns="http://www.w3.org/2000/svg" xmlns:xlink="http://www.w3.org/1999/xlink" preserveAspectRatio="xMidYMid" width="218" height="183" viewBox="0 0 218 183"><defs><style>.cls-3{fill:#2476ff}.cls-4{fill:#020403;opacity:.35}.cls-5{fill:#fbb713}.cls-6{fill:#ff3a2f}.cls-11{fill:#020403;opacity:.25}.cls-12{fill:#fff}.cls-13{fill:#142a3b}</style></defs><g id="group-108svg"><path d="M141.682 181.689s-137.375.0-137.375.0C1.921 181.689-.012 179.756-.012 177.371V57.74c0-2.386 1.933-4.32 4.319-4.32H141.682C144.067 53.42 146.001 55.354 146.001 57.74V177.371C146.001 179.756 144.067 181.689 141.682 181.689z" id="path-1" class="cls-3" fill-rule="evenodd"/><path d="M118.789 167.389s-87.708.0-87.708.0C29.46 167.389 28.146 166.076 28.146 164.455V125.147C28.146 123.526 29.46 122.213 31.081 122.213h87.708c1.622.0 2.935 1.313 2.935 2.93400000000001v39.308c0 1.62099999999998-1.313 2.934-2.935 2.934z" id="path-2" class="cls-4" fill-rule="evenodd"/><path d="M116.848 162.732s-87.708.0-87.708.0c-1.621.0-2.934-1.31399999999999-2.934-2.934V120.489c0-1.619 1.313-2.934 2.934-2.934h87.708c1.621.0 2.935 1.315 2.935 2.934v39.309c0 1.62-1.31400000000001 2.934-2.935 2.934z" id="path-3" class="cls-5" fill-rule="evenodd"/><path d="M123.414 53.934s-100.839.0-100.839.0.0-30.657.0-30.657 100.839.0 100.839.0.0 30.657.0 30.657z" id="path-4" class="cls-6" fill-rule="evenodd"/><path d="M102.596 67.393c11.11.0 20.117 13.665 20.117 24.775v88.035C122.713 180.712 122.601 181.189 122.563 181.689h3.321c11.11.0 20.117-5.09099999999998 20.117-16.201V73.537C146.001 62.428 140.909 53.421 129.799 53.421H20.105s0 0 0 0" id="path-5" class="cls-4" fill-rule="evenodd"/><path d="M109.44 23.277s0 4.25.0 4.25c0 9.438-7.652 17.092-17.091 17.092H22.575s0 9.315.0 9.315 100.839.0 100.839.0.0-30.657.0-30.657-13.974.0-13.974.0z" id="path-6" class="cls-4" fill-rule="evenodd"/><path d="M216.489 37.91c0-20.94-12.793-37.916-28.387-37.916-15.593.0-26.938 16.976-26.938 37.916.0 17.175 3.465 31.662 21.464 36.325V180.387s13.999.0 13.999.0.0-106.152.0-106.152c10.999-4.664 19.862-19.152 19.862-36.325z" id="path-7" class="cls-5" fill-rule="evenodd"/><path d="M192.201 76.668s0 103.29.0 103.29S196.858 179.958 196.858 179.958s0-105.371.0-105.371C195.398 75.404 193.857 76.117 192.201 76.668z" id="path-8" class="cls-4" fill-rule="evenodd"/><path d="M189.038-.006c-7.274.0-13.781 3.726-18.678 9.791C174.453 6.541 179.222 4.652 184.38 4.652c15.594.0 27.824 16.976 27.824 37.916C212.204 53.189 209.505 62.766 204.152 69.644 212.579 62.888 216.862 51.24 216.862 37.911c0-20.941-12.23-37.917-27.824-37.917z" id="path-9" class="cls-11" fill-rule="evenodd"/><path d="M14.474 129.499C12.478 129.499 10.859 127.88 10.859 125.885V78.725c0-1.996 1.619-3.615 3.615-3.615 1.997.0 3.615 1.619 3.615 3.615v47.16C18.089 127.88 16.471 129.499 14.474 129.499z" id="path-10" class="cls-12" fill-rule="evenodd"/><path d="M95.013 134.933s-45.411.0-45.411.0c-1.997.0-3.615-1.618-3.615-3.614.0-1.99599999999998 1.618-3.615 3.615-3.615H95.013c1.996.0 3.615 1.61900000000001 3.615 3.615.0 1.99600000000001-1.619 3.614-3.615 3.614z" id="path-11" class="cls-13" fill-rule="evenodd"/><path d="M95.013 153.565s-45.411.0-45.411.0c-1.997.0-3.615-1.619-3.615-3.614C45.987 147.954 47.605 146.335 49.602 146.335H95.013c1.996.0 3.615 1.619 3.615 3.61599999999999.0 1.995-1.619 3.614-3.615 3.614z" id="path-12" class="cls-13" fill-rule="evenodd"/><path d="M180.061 23.277C180.061 26.371 177.554 28.878 174.461 28.878 171.368 28.878 168.861 26.371 168.861 23.277 168.861 20.185 171.368 17.676 174.461 17.676 177.554 17.676 180.061 20.185 180.061 23.277z" id="path-13" class="cls-12" fill-rule="evenodd"/></g></svg>