<svg xmlns="http://www.w3.org/2000/svg" xmlns:xlink="http://www.w3.org/1999/xlink" preserveAspectRatio="xMidYMid" width="216" height="139" viewBox="0 0 216 139"><defs><style>.cls-3{fill:#ff3a2f}.cls-6{fill:#000;opacity:.35}</style></defs><g id="group-64svg"><path d="M204.708 136.148S198.058 138.489 198.058 138.489 155.605 17.912 155.605 17.912s6.648-2.342 6.648-2.342 42.455 120.578 42.455 120.578z" id="path-1" class="cls-3" fill-rule="evenodd"/><path d="M14.61 136.148S21.259 138.489 21.259 138.489 63.713 17.912 63.713 17.912s-6.649-2.342-6.649-2.342S14.61 136.148 14.61 136.148z" id="path-2" class="cls-3" fill-rule="evenodd"/><path d="M215.543 19.843s-215.54.0-215.54.0.0-19.856.0-19.856 215.54.0 215.54.0.0 19.856.0 19.856z" id="path-3" class="cls-3" fill-rule="evenodd"/><path d="M215.543 19.843s-215.54.0-215.54.0.0-10.225.0-10.225 215.54.0 215.54.0.0 10.225.0 10.225z" id="path-4" class="cls-6" fill-rule="evenodd"/></g></svg>