<svg xmlns="http://www.w3.org/2000/svg" xmlns:xlink="http://www.w3.org/1999/xlink" preserveAspectRatio="xMidYMid" width="217" height="164" viewBox="0 0 217 164"><defs><style>.cls-3{fill:#142a3b}.cls-4{fill:#020403;opacity:.45}.cls-5{fill:#fbb713}.cls-8{fill:#ff3a2f}.cls-9{fill:#020403;opacity:.35}</style></defs><g id="group-58svg"><path d="M163.156 42.953C163.452 33.778 164.158 29.105 163.305 19.165 162.066 4.672 160.595 1.378 143.826.379 124.342-.781 97.072.937 91.955 5.364c-8.075 7-18.18 18.39-37.073 37.908" id="path-1" class="cls-3" fill-rule="evenodd"/><path d="M55.045 43.103s57.174.0 57.174.0S163.156 42.953 163.156 42.953C163.377 36.118 163.823 31.776 163.684 25.898H71.501C66.844 30.802 61.479 36.454 55.045 43.103z" id="path-2" class="cls-4" fill-rule="evenodd"/><path d="M144.001 31.849c0 6.488-5.095 11.74-11.382 11.74C126.359 43.589 121.276 38.337 121.276 31.849c0-6.481 5.083-11.744 11.343-11.744C138.906 20.105 144.001 25.368 144.001 31.849z" id="path-3" class="cls-5" fill-rule="evenodd"/><path d="M36.635 150.716C39.997 154.851 39.694 154.271 42.296 157.306 50.997 167.486 54.614 166.689 70.078 151.368" id="path-4" class="cls-3" fill-rule="evenodd"/><path d="M11.7 88.491C8.56 91.644 15.519 84.199 9.818 89.95c-8.734 8.812-13.843 12.862-5.789 23.728C6.61 117.147 9.232 119.965 12.944 124.775" id="path-5" class="cls-3" fill-rule="evenodd"/><path d="M27.652 39.118C15.604 39.166 9.224 38.244 8.948 54.535 8.612 74.181 8.888 114.322 9.715 135.128c.645 16.274 3.382 18.651 14.744 18.92C43.601 154.484 151.62 156.966 173.188 153.654 183.589 152.057 196.343 131.83 210.818 111.507 219.27 99.637 218.893 94.385 209.574 83.064c-13.11-15.908-36.641-43.021-45.013-43.152C143.167 39.598 76.68 38.937 27.652 39.118z" id="path-6" class="cls-8" fill-rule="evenodd"/><path d="M209.574 83.063c-13.11-15.907-36.641-43.02-45.013-43.151C163.566 39.897 162.441 39.881 161.257 39.865c10.385 9.278 23.587 24.65 32.253 35.166C202.829 86.354 203.205 91.605 194.754 103.475c-14.476 20.322-27.23 40.549-37.631 42.147C136.371 148.808 35.636 146.632 10.983 146.074 12.696 152.579 16.406 153.856 24.459 154.047 43.601 154.484 151.62 156.966 173.188 153.654 183.589 152.057 196.343 131.829 210.818 111.507 219.27 99.637 218.893 94.385 209.574 83.063z" id="path-7" class="cls-9" fill-rule="evenodd"/><path d="M195.792 99.079C195.792 105.745 190.581 111.13 184.134 111.13 177.706 111.13 172.495 105.745 172.495 99.079 172.495 92.429 177.706 87.051 184.134 87.051c6.447.0 11.658 5.378 11.658 12.028z" id="path-8" class="cls-5" fill-rule="evenodd"/></g></svg>