<svg xmlns="http://www.w3.org/2000/svg" xmlns:xlink="http://www.w3.org/1999/xlink" preserveAspectRatio="xMidYMid" width="207" height="217" viewBox="0 0 207 217"><defs><style>.cls-3{fill:#142a3b}.cls-5{fill:#ff3a2f}.cls-6{fill:#ededed}.cls-9{fill:#020403;opacity:.25}</style></defs><g id="group-131svg"><path d="M164.685 216.873C163.313 216.873 162.002 216.088 161.395 214.759l-10.659-23.353C149.907 189.591 150.708 187.446 152.525 186.618 154.332 185.789 156.483 186.588 157.312 188.405l10.659 23.351C168.8 213.572 167.999 215.717 166.183 216.546 165.698 216.769 165.188 216.873 164.685 216.873z" id="path-1" class="cls-3" fill-rule="evenodd"/><path d="M35.582 216.873C35.079 216.873 34.569 216.769 34.084 216.546 32.267 215.717 31.466 213.572 32.296 211.756l10.658-23.351C43.784 186.588 45.934 185.788 47.742 186.618 49.558 187.446 50.36 189.591 49.53 191.406L38.872 214.759C38.264 216.088 36.953 216.873 35.582 216.873z" id="path-2" class="cls-3" fill-rule="evenodd"/><path d="M207.002 103.498C207.002 160.661 160.663 207 103.501 207S0 160.661.0 103.498C0 46.334 46.339-.008 103.501-.008S207.002 46.334 207.002 103.498z" id="path-3" class="cls-5" fill-rule="evenodd"/><path d="M181.34 103.498c0 42.99-34.849 77.84-77.839 77.84-42.99.0-77.84-34.85-77.84-77.84.0-42.993 34.85-77.843 77.84-77.843s77.839 34.85 77.839 77.843z" id="path-4" class="cls-6" fill-rule="evenodd"/><path d="M152.268 103.498c0 26.932-21.834 48.768-48.767 48.768-26.934.0-48.768-21.836-48.768-48.768.0-26.935 21.834-48.77 48.768-48.77 26.933.0 48.767 21.835 48.767 48.77z" id="path-5" class="cls-5" fill-rule="evenodd"/><path d="M125.037 103.498c0 11.893-9.643 21.535-21.536 21.535-11.894.0-21.535-9.642-21.535-21.535C81.966 91.603 91.607 81.96 103.501 81.96c11.893.0 21.536 9.643 21.536 21.538z" id="path-6" class="cls-6" fill-rule="evenodd"/><path d="M134.939 4.869c22.34 18.986 36.531 47.272 36.531 78.886.0 57.166-46.339 103.505-103.501 103.505C57.006 187.26 46.448 185.541 36.531 182.384 54.584 197.726 77.953 207 103.501 207c57.162.0 103.501-46.339 103.501-103.502.0-46.202-30.274-85.318-72.063-98.629z" id="path-7" class="cls-9" fill-rule="evenodd"/></g></svg>