<svg xmlns="http://www.w3.org/2000/svg" xmlns:xlink="http://www.w3.org/1999/xlink" preserveAspectRatio="xMidYMid" width="200" height="216" viewBox="0 0 200 216"><defs><style>.cls-3{fill:#0cb04a}.cls-4{fill:#000;opacity:.35}.cls-5{fill:#fbb713}.cls-6{fill:#000;opacity:.25}.cls-7{fill:#142a3b}</style></defs><g id="group-102svg"><path d="M199.417 170.803s-53.305.0-53.305.0.0-58.333.0-58.333 53.305.0 53.305.0.0 58.333.0 58.333z" id="path-1" class="cls-3" fill-rule="evenodd"/><path d="M191.628 112.47s0 50.554.0 50.554-45.516.0-45.516.0.0 7.779.0 7.779 53.305.0 53.305.0.0-58.333.0-58.333S191.628 112.47 191.628 112.47z" id="path-2" class="cls-4" fill-rule="evenodd"/><path d="M77.541 66.865s-48.755.0-48.755.0S.007 95.605.007 95.605s0 119.919.0 119.919 107.724.0 107.724.0.0-118.513.0-118.513-30.19-30.146-30.19-30.146z" id="path-3" class="cls-5" fill-rule="evenodd"/><path d="M77.541 66.865s-48.755.0-48.755.0S20.997 74.643 20.997 74.643s40.967.0 40.967.0 30.189 30.146 30.189 30.146.0 110.735.0 110.735 15.578.0 15.578.0.0-118.513.0-118.513-30.19-30.146-30.19-30.146z" id="path-4" class="cls-6" fill-rule="evenodd"/><path d="M170.331 119.952C168.347 119.952 166.739 118.344 166.739 116.359V49.763c0-23.482-19.135-42.587-42.655-42.587H79.785c-13.319.0-24.156 10.817-24.156 24.114V66.865c0 1.983-1.608 3.592-3.592 3.592S48.445 68.848 48.445 66.865V31.29c0-17.257 14.059-31.298 31.34-31.298h44.299c27.482.0 49.839 22.326 49.839 49.771v66.596c0 1.985-1.608 3.593-3.59200000000001 3.593z" id="path-5" class="cls-7" fill-rule="evenodd"/></g></svg>