<svg xmlns="http://www.w3.org/2000/svg" xmlns:xlink="http://www.w3.org/1999/xlink" preserveAspectRatio="xMidYMid" width="172" height="216" viewBox="0 0 172 216"><defs><style>.cls-3{fill:#fbb713}.cls-5{fill:#000;opacity:.25}.cls-10{fill:#000;opacity:.35}.cls-12{fill:#ff3a2f}.cls-25{fill:#0cb04a}.cls-26{fill:#142a3b}</style></defs><g id="group-142svg"><path d="M125.961-.011c-10.986.0-21.218 5.403-27.441 14.447 23.007 4.78 40.075 21.567 40.075 41.547C138.595 58.889 138.225 61.728 137.537 64.476c13.007-4.815 21.725-17.253 21.725-31.185.0-18.367-14.939-33.302-33.301-33.302z" id="path-1" class="cls-3" fill-rule="evenodd"/><path d="M31.796 55.983c0-20.38 17.751-37.455 41.46-41.834C67.005 5.286 56.895-.011 46.041-.011c-18.363.0-33.303 14.935-33.303 33.302.0 13.286 7.96 25.156 19.969 30.412C32.137 61.195 31.796 58.621 31.796 55.983z" id="path-2" class="cls-3" fill-rule="evenodd"/><path d="M125.961-.011C125.304-.011 124.661.071 124.009.11c17.262 1.217 30.943 15.61 30.943 33.181.0 12.167-6.654 23.194-17.004 28.999C137.813 63.019 137.717 63.759 137.537 64.476c13.007-4.815 21.725-17.253 21.725-31.185.0-18.367-14.939-33.302-33.301-33.302z" id="path-3" class="cls-5" fill-rule="evenodd"/><path d="M17.048 33.291C17.048 15.717 30.735 1.323 48 .109 47.347.071 46.7-.011 46.041-.011c-18.363.0-33.303 14.935-33.303 33.302.0 13.286 7.96 25.156 19.969 30.412C32.512 62.845 32.385 61.97 32.249 61.095c-9.288-6.024-15.201-16.377-15.201-27.804z" id="path-4" class="cls-5" fill-rule="evenodd"/><path d="M170.131 109.15C168.198 102.083 163.859 96.332 157.924 92.947c-6.506-3.7-14.471-4.437-22.996-2.089C132.698 91.455 130.495 92.329 128.314 93.326 136.995 108.128 142.193 126.471 142.193 144.024 142.193 144.053 142.189 144.079 142.189 144.107 144.573 143.851 146.925 143.48 149.182 142.865 157.579 140.556 163.993 135.982 167.724 129.634 171.253 123.625 172.109 116.346 170.131 109.15z" id="path-5" class="cls-3" fill-rule="evenodd"/><path d="M170.131 109.15C168.567 103.43 165.367 98.647 161.08 95.209 163.21 97.988 164.835 101.235 165.82 104.839 167.798 112.035 166.942 119.314 163.413 125.322 159.682 131.671 153.268 136.245 144.871 138.555 143.937 138.809 142.979 138.999 142.017 139.18 142.103 140.797 142.193 142.416 142.193 144.024 142.193 144.053 142.189 144.079 142.189 144.107 144.573 143.851 146.925 143.48 149.182 142.865 157.579 140.556 163.993 135.982 167.724 129.634 171.253 123.625 172.109 116.346 170.131 109.15z" id="path-6" class="cls-5" fill-rule="evenodd"/><path d="M42.146 92.984C40.196 92.133 38.231 91.391 36.254 90.858c-8.53-2.348-16.494-1.62-23.014 2.089C7.305 96.332 2.966 102.083 1.037 109.141-.945 116.346-.09 123.625 3.44 129.634 7.171 135.982 13.585 140.556 21.987 142.865 23.55 143.292 25.935 143.652 28.073 143.922 28.093 126.261 33.356 107.814 42.146 92.984z" id="path-7" class="cls-3" fill-rule="evenodd"/><path d="M36.584 90.962c-8.012 14.423-12.803 31.871-12.821 48.65C21.624 139.341 19.239 138.982 17.676 138.555 12.896 137.24 8.787 135.17 5.422 132.48c3.841 4.869 9.486 8.44 16.565 10.385C23.55 143.292 25.935 143.652 28.073 143.922 28.093 126.261 33.356 107.814 42.146 92.984 40.305 92.181 38.449 91.488 36.584 90.962z" id="path-8" class="cls-10" fill-rule="evenodd"/><path d="M123.474 85.867C113.764 93.912 100.205 98.936 85.196 98.936c-15.049.0-28.636-5.051-38.351-13.133-11.629 15.77-18.776 37.559-18.776 58.221C28.069 148.804 28.53 153.421 29.282 157.872 32.762 153.498 37.09 150.692 41.973 149.831 57.511 147.043 72.027 165.033 74.971 181.706 76.526 190.528 74.833 198.466 70.658 204.447 75.297 205.563 80.143 206.155 85.132 206.155 90.279 206.155 95.272 205.525 100.049 204.33 99.996 204.256 99.925 204.198 99.872 204.121 95.732 198.029 94.342 190.273 95.861 181.706 98.797 165.033 113.325 147.052 128.859 149.831 133.76 150.697 137.862 153.37 141.092 157.165 141.77 152.957 142.193 148.58 142.193 144.024 142.193 123.397 135.065 101.632 123.474 85.867z" id="path-9" class="cls-3" fill-rule="evenodd"/><path d="M123.853 149.674C120.299 126.841 104.922 104.273 85.132 104.273c-20.369.0-35.252 22.662-38.739 45.364C60.179 150.53 72.309 166.628 74.971 181.706 76.526 190.528 74.833 198.466 70.658 204.447 75.297 205.563 80.143 206.155 85.132 206.155 90.279 206.155 95.272 205.525 100.049 204.33 99.996 204.256 99.925 204.198 99.872 204.121 95.732 198.029 94.342 190.273 95.861 181.706 98.478 166.842 110.311 150.984 123.853 149.674z" id="path-10" class="cls-12" fill-rule="evenodd"/><path d="M85.132 108.583c18.579.0 33.266 19.893 37.935 41.219C123.33 149.766 123.589 149.7 123.853 149.674 120.299 126.841 104.922 104.273 85.132 104.273c-20.369.0-35.252 22.662-38.739 45.364C46.655 149.655 46.91 149.713 47.171 149.742c4.573-21.212 18.851-41.159 37.961-41.159z" id="path-11" class="cls-5" fill-rule="evenodd"/><path d="M95.356 190.538C95.055 195.728 95.893 200.53 97.832 204.742 98.566 204.588 99.326 204.512 100.049 204.33 99.996 204.256 99.925 204.198 99.872 204.121 97.212 200.207 95.704 195.601 95.356 190.538z" id="path-12" class="cls-10" fill-rule="evenodd"/><path d="M75.441 190.158C75.094 195.576 73.445 200.453 70.658 204.447 71.38 204.62 72.137 204.695 72.868 204.842 74.86 200.557 75.783 195.575 75.441 190.158z" id="path-13" class="cls-10" fill-rule="evenodd"/><path d="M37.663 141.21C34.169 141.826 30.975 143.476 28.157 145.946 28.263 150.035 28.632 154.028 29.282 157.872 32.762 153.498 37.09 150.692 41.973 149.831 52.289 147.98 62.132 155.305 68.459 165.304 63.15 151.327 50.785 138.856 37.663 141.21z" id="path-14" class="cls-10" fill-rule="evenodd"/><path d="M129.071 94.695C134.642 107.365 137.882 121.619 137.882 135.403 137.882 139.959 137.459 144.336 136.781 148.544 133.552 144.75 129.45 142.075 124.549 141.21c-15.534-2.78-30.064 15.202-33 31.875C90.032 181.653 91.422 189.408 95.562 195.5 95.614 195.576 95.686 195.634 95.738 195.709 90.961 196.904 85.967 197.533 80.821 197.533 78.579 197.533 76.376 197.375 74.198 197.142 73.372 199.802 72.186 202.258 70.658 204.447 75.297 205.563 80.143 206.155 85.132 206.155 90.279 206.155 95.272 205.525 100.049 204.33 99.996 204.256 99.925 204.198 99.872 204.121 95.732 198.029 94.342 190.273 95.861 181.706 98.797 165.033 113.325 147.052 128.859 149.831 133.76 150.697 137.862 153.37 141.092 157.165 141.77 152.957 142.193 148.58 142.193 144.024c0-17.023-4.911-34.767-13.122-49.329z" id="path-15" class="cls-10" fill-rule="evenodd"/><path d="M21.565 55.716c3.083 3.343 6.838 6.104 11.142 7.987C32.137 61.195 31.796 58.621 31.796 55.983c0-20.38 17.751-37.455 41.46-41.834-1.929-2.735-4.259-5.082-6.83-7.087-25.861 6.433-44.714 25.795-44.861 48.654z" id="path-16" class="cls-5" fill-rule="evenodd"/><path d="M48.383 215.523s0 0 0 0C34.892 215.523 24.48 205.925 21.866 191.072 20.366 182.589 21.425 173.268 24.756 165.511 28.548 156.687 34.662 151.121 41.973 149.831 57.511 147.043 72.027 165.032 74.971 181.706 77.948 198.6 69.106 212.321 53.476 215.072 51.76 215.375 50.057 215.523 48.383 215.523z" id="path-17" class="cls-3" fill-rule="evenodd"/><path d="M122.45 215.523s0 0 0 0C120.776 215.523 119.073 215.375 117.357 215.072 109.999 213.775 103.792 209.891 99.872 204.121 95.732 198.029 94.342 190.273 95.86 181.706c2.937-16.674 17.465-34.654 32.999-31.875C144.507 152.592 152.016 173.783 148.966 191.072c-2.614 14.853-13.026 24.451-26.516 24.451z" id="path-18" class="cls-3" fill-rule="evenodd"/><path d="M74.971 181.706c-2.944-16.673-17.46-34.663-32.998-31.875C41.615 149.895 41.273 150.015 40.92 150.099c12.447 2.904 22.972 17.69 25.43 31.607C69.327 198.6 60.484 212.321 44.854 215.072 44.603 215.117 44.36 215.1 44.11 215.138 45.5 215.36 46.914 215.523 48.383 215.523 50.057 215.523 51.76 215.375 53.476 215.072c15.63-2.751 24.472-16.472 21.495-33.366z" id="path-19" class="cls-5" fill-rule="evenodd"/><path d="M128.859 149.831C126.291 149.372 123.757 149.526 121.291 150.102 136.206 153.621 143.324 174.185 140.345 191.072 138.015 204.308 129.475 213.322 118.101 215.138 119.563 215.358 121.02 215.523 122.45 215.523c13.49.0 23.902-9.59799999999999 26.516-24.451C152.016 173.783 144.507 152.592 128.859 149.831z" id="path-20" class="cls-5" fill-rule="evenodd"/><path d="M85.196 98.936c-29.447.0-53.4-19.268-53.4-42.953.0-23.685 23.953-42.955 53.4-42.955 29.446.0 53.399 19.27 53.399 42.955.0 23.685-23.953 42.953-53.399 42.953z" id="path-21" class="cls-3" fill-rule="evenodd"/><path d="M108.841 17.526c12.812 7.854 21.132 20.217 21.132 34.146.0 23.685-23.953 42.954-53.399 42.954-8.497.0-16.507-1.646-23.645-4.497C61.904 95.63 73.066 98.936 85.196 98.936c29.446.0 53.399-19.269 53.399-42.953.0-16.851-12.153-31.425-29.754-38.457z" id="path-22" class="cls-5" fill-rule="evenodd"/><path d="M66.939 61.577c-7.795.0-14.135-6.339-14.135-14.135.0-7.793 6.34-14.133 14.135-14.133C74.732 33.309 81.073 39.649 81.073 47.442 81.073 55.238 74.732 61.577 66.939 61.577z" id="path-23" class="cls-25" fill-rule="evenodd"/><path d="M85.196 75.71C81.708 75.71 78.871 72.874 78.871 69.388 78.871 65.9 81.708 63.064 85.196 63.064 88.682 63.064 91.519 65.9 91.519 69.388 91.519 72.874 88.682 75.71 85.196 75.71z" id="path-24" class="cls-26" fill-rule="evenodd"/><path d="M89.506 63.064C88.746 63.064 88.026 63.22 87.351 63.467 89.775 64.354 91.519 66.661 91.519 69.388 91.519 72.113 89.775 74.421 87.351 75.307 88.026 75.554 88.746 75.71 89.506 75.71 92.993 75.71 95.83 72.874 95.83 69.388 95.83 65.9 92.993 63.064 89.506 63.064z" id="path-25" class="cls-10" fill-rule="evenodd"/><circle id="circle-1" class="cls-25" cx="105" cy="48" r="15"/><path d="M66.939 33.309C66.2 33.309 65.491 33.417 64.783 33.526 71.55 34.574 76.762 40.387 76.762 47.442c0 7.057-5.212 12.869-11.979 13.916C65.491 61.469 66.2 61.577 66.939 61.577 74.732 61.577 81.073 55.238 81.073 47.442 81.073 39.649 74.732 33.309 66.939 33.309z" id="path-26" class="cls-10" fill-rule="evenodd"/><path d="M104.63 33.309C103.892 33.309 103.183 33.417 102.475 33.526 109.242 34.574 114.453 40.387 114.453 47.442c0 7.057-5.211 12.869-11.978 13.916C103.183 61.469 103.892 61.577 104.63 61.577 112.424 61.577 118.764 55.238 118.764 47.442 118.764 39.649 112.424 33.309 104.63 33.309z" id="path-27" class="cls-10" fill-rule="evenodd"/></g></svg>