<svg xmlns="http://www.w3.org/2000/svg" xmlns:xlink="http://www.w3.org/1999/xlink" preserveAspectRatio="xMidYMid" width="216" height="125" viewBox="0 0 216 125"><defs><style>.cls-3{fill:#0cb04a}.cls-4{fill:#000;opacity:.35}.cls-8{fill:#087330}.cls-9{fill:#ededed}</style></defs><g id="group-130svg"><path d="M107.773-.006C55.943-.006.003 15.934.003 41.675V52.482c0 8.593 6.714 9.263 8.77 9.263H35.089S53.6 34.998 53.6 34.998c3.843-5.978 9.976-9.316 17.215-9.316h70.044c7.87799999999999.0 15.6 3.781 19.22 9.401l19.692 26.662s22.988.0 22.988.0C208.673 61.745 215.543 57.697 215.543 52.482V41.675c0-25.741-55.941-41.681-107.77-41.681z" id="path-1" class="cls-3" fill-rule="evenodd"/><path d="M143.823 25.682s-2.964.0-2.964.0c7.87799999999999.0 15.6 3.781 19.22 9.401l19.692 26.662S182.735 61.745 182.735 61.745s-19.692-26.662-19.692-26.662c-3.62-5.62-11.342-9.401-19.22-9.401z" id="path-2" class="cls-4" fill-rule="evenodd"/><path d="M160.492 5.451c25.114 7.172 43.194 18.631 43.194 33.26V49.517c0 5.217-6.869 9.263-12.783 9.263H177.582S179.771 61.745 179.771 61.745s22.988.0 22.988.0C208.673 61.745 215.543 57.697 215.543 52.482V41.675c0-16.846-23.964-29.493-55.051-36.224z" id="path-3" class="cls-4" fill-rule="evenodd"/><path d="M148.367 26.822c-3.518-1.861-15.157-4.104-19.364-4.104H58.958c-7.239.0-13.371 3.338-17.214 9.318L23.233 58.78s-21.331.0-21.331.0c2.147 2.658 5.517 2.965 6.871 2.965H35.089S53.6 34.998 53.6 34.998c3.843-5.978 9.976-9.316 17.215-9.316" id="path-4" class="cls-4" fill-rule="evenodd"/><path d="M175.372 124.483s-139.083.0-139.083.0c-7.158.0-11.966-4.962-11.966-12.35V78.17C24.323 77.599 24.5 77.039 24.839 76.554L53.6 34.998c3.843-5.978 9.976-9.316 17.215-9.316h70.044c7.87799999999999.0 15.6 3.781 19.22 9.401l30.573 41.393C191.026 76.979 191.222 77.567 191.222 78.17v33.963c0 7.068-8.36600000000001 12.35-15.85 12.35z" id="path-5" class="cls-3" fill-rule="evenodd"/><path d="M191.222 78.17s0 33.963.0 33.963c0 7.068-8.36600000000001 12.35-15.85 12.35H36.289c-7.158.0-11.966-4.962-11.966-12.35V78.17s166.899.0 166.899.0z" id="path-6" class="cls-8" fill-rule="evenodd"/><path d="M107.773 70.697c-19.449.0-34.688-8.704-34.688-19.82s15.239-19.821 34.688-19.821 34.687 8.705 34.687 19.821-15.238 19.82-34.687 19.82z" id="path-7" class="cls-9" fill-rule="evenodd"/><path d="M107.773 65.88C93.05 65.88 81.514 59.292 81.514 50.877c0-8.416 11.536-15.006 26.259-15.006 14.722.0 26.258 6.59 26.258 15.006.0 8.415-11.536 15.003-26.258 15.003z" id="path-8" class="cls-8" fill-rule="evenodd"/></g></svg>