<svg xmlns="http://www.w3.org/2000/svg" xmlns:xlink="http://www.w3.org/1999/xlink" preserveAspectRatio="xMidYMid" width="93" height="217" viewBox="0 0 93 217"><defs><style>.cls-3{fill:#fbb713}.cls-4{fill:#020403;opacity:.35}.cls-5{fill:#ff3a2f}.cls-7{fill:#fff}</style></defs><g id="group-114svg"><path d="M21.336 47.988s0 83.442.0 83.442C8.142 139.592-.003 154.081-.003 170.649c0 25.527 20.727 46.22 46.441 46.22 25.707.0 45.997-20.693 45.997-46.22C92.435 154.297 83.859 139.96 70.951 131.744V25.215C70.951 11.284 59.84-.01 46.139-.01c-13.7.0-24.803 11.294-24.803 25.225v3.811s0 18.962.0 18.962z" id="path-1" class="cls-3" fill-rule="evenodd"/><path d="M70.95 131.744s0-106.529.0-106.529C70.95 11.285 59.84-.01 46.139-.01 44.306-.01 42.526.208 40.807.591 51.942 3.074 60.284 13.149 60.284 25.215V131.744C73.193 139.96 81.769 154.297 81.769 170.649c0 23.732-17.545 43.262-40.668 45.894C42.854 216.743 44.63 216.869 46.438 216.869c25.707.0 45.997-20.693 45.997-46.22C92.435 154.297 83.859 139.96 70.95 131.744z" id="path-2" class="cls-4" fill-rule="evenodd"/><path d="M56.344 141.463s0-39.549.0-39.549c0-5.794-4.462-7.112-9.944-7.112-5.486.0-10.313 1.687-10.313 7.479v39.182c-10.622 4.078-18.175 14.347-18.175 26.406.0 15.633 12.672 28.304 28.304 28.304S74.52 183.502 74.52 167.869c0-12.059-7.553-22.328-18.176-26.406z" id="path-3" class="cls-5" fill-rule="evenodd"/><path d="M56.344 141.463s0-39.549.0-39.549c0-5.794-4.461-7.112-9.944-7.112C45.22 94.802 44.085 94.9 43.008 95.08 46.651 95.7 49.234 97.512 49.234 101.914v39.549c10.622 4.078 18.175 14.347 18.175 26.406.0 14.425-10.798 26.305-24.749 28.058C43.828 196.073 45.009 196.173 46.216 196.173c15.632.0 28.304-12.671 28.304-28.304.0-12.059-7.553-22.328-18.176-26.406z" id="path-4" class="cls-4" fill-rule="evenodd"/><path d="M41.621 175.434C41.621 178.87 38.835 181.656 35.399 181.656S29.178 178.87 29.178 175.434 31.963 169.211 35.399 169.211 41.621 171.998 41.621 175.434z" id="path-5" class="cls-7" fill-rule="evenodd"/><path d="M46.114 136.828c-1.995.0-3.614-1.62-3.614-3.614V27.884c0-1.995 1.619-3.615 3.614-3.615 1.997.0 3.615 1.62 3.615 3.615v105.33c0 1.994-1.618 3.614-3.615 3.614z" id="path-6" class="cls-7" fill-rule="evenodd"/></g></svg>