<svg xmlns="http://www.w3.org/2000/svg" xmlns:xlink="http://www.w3.org/1999/xlink" preserveAspectRatio="xMidYMid" width="217" height="110" viewBox="0 0 217 110"><defs><style>.cls-3{fill:#ff3a2f}.cls-4{fill:#142a3b}.cls-6{fill:#fbb713}.cls-7{fill:#020403;opacity:.35}.cls-8{fill:#020403;opacity:.25}</style></defs><g id="group-26svg"><path d="M195.315 87.493s-173.745.0-173.745.0C9.66 87.493.006 97.147.006 109.056H216.879c0-11.909-9.654-21.563-21.564-21.563z" id="path-1" class="cls-3" fill-rule="evenodd"/><path d="M112.057 90.188s-7.23.0-7.23.0.0-78.049.0-78.049 7.23.0 7.23.0.0 78.049.0 78.049z" id="path-2" class="cls-4" fill-rule="evenodd"/><path d="M145.282 16.182s-73.678.0-73.678.0C70.69 16.182 69.949 15.441 69.949 14.527V1.664c0-.914.741-1.655 1.655-1.655h73.678C146.196.009 146.937.75 146.937 1.664V14.527C146.937 15.441 146.196 16.182 145.282 16.182z" id="path-3" class="cls-4" fill-rule="evenodd"/><path d="M195.953 76.963s0-20.757.0-20.757c0-17.125-14.011-31.137-31.137-31.137H52.069c-17.125.0-31.137 14.012-31.137 31.137V76.963s175.021.0 175.021.0z" id="path-4" class="cls-6" fill-rule="evenodd"/><path d="M4.22 100.505s173.746.0 173.746.0c6.99799999999999.0 13.153 3.387 17.093 8.551h21.82c0-11.909-9.654-21.563-21.564-21.563H21.57c-8.969.0-16.65 5.479-19.901 13.268C2.516 100.661 3.347 100.505 4.22 100.505z" id="path-5" class="cls-7" fill-rule="evenodd"/><path d="M164.816 25.069S164.601 25.069 164.601 25.069C170.538 30.747 174.265 38.718 174.265 47.53 174.265 58.996 164.972 68.289 153.509 68.289H20.932S20.932 76.963 20.932 76.963s175.021.0 175.021.0.0-20.757.0-20.757c0-17.125-14.011-31.137-31.137-31.137z" id="path-6" class="cls-8" fill-rule="evenodd"/></g></svg>