<svg xmlns="http://www.w3.org/2000/svg" xmlns:xlink="http://www.w3.org/1999/xlink" preserveAspectRatio="xMidYMid" width="184" height="218" viewBox="0 0 184 218"><defs><style>.cls-3{fill:#ff3a2f}.cls-6{fill:#0cb04a}.cls-7{fill:#010101;opacity:.35}.cls-10{fill:#010101;opacity:.25}.cls-11{fill:#fbb713}.cls-14{fill:#090909;opacity:.35}</style></defs><g id="group-63svg"><path d="M179.536 102.371s-13.954.0-13.954.0C163.587 102.371 161.968 100.754 161.968 98.757 161.968 96.761 163.587 95.142 165.582 95.142h13.954C181.532 95.142 183.15 96.761 183.15 98.757 183.15 100.754 181.532 102.371 179.536 102.371z" id="path-1" class="cls-3" fill-rule="evenodd"/><path d="M32.567 216.879c-1.996.0-3.614-1.618-3.614-3.61499999999998V194.718C28.953 192.722 30.571 191.104 32.567 191.104S36.182 192.722 36.182 194.718v18.546C36.182 215.261 34.563 216.879 32.567 216.879z" id="path-2" class="cls-3" fill-rule="evenodd"/><path d="M125.591 216.879c-1.996.0-3.615-1.618-3.615-3.61499999999998V194.718C121.976 192.722 123.595 191.104 125.591 191.104 127.587 191.104 129.205 192.722 129.205 194.718v18.546C129.205 215.261 127.587 216.879 125.591 216.879z" id="path-3" class="cls-3" fill-rule="evenodd"/><path d="M167.452 200.763s0-113.24.0-113.24c0-17.023-17.358-30.497-34.435-30.497H29.827C12.75 57.026.008 70.5.008 87.523v113.24s167.444.0 167.444.0z" id="path-4" class="cls-6" fill-rule="evenodd"/><path d="M134.069 57.079C136.581 61.191 138.089 65.835 138.089 70.796v73.106c0 22.166-18.026 40.134-40.261 40.134H.008s0 16.727.0 16.727 167.444.0 167.444.0.0-113.24.0-113.24c0-16.674-16.653-29.907-33.383-30.444z" id="path-5" class="cls-7" fill-rule="evenodd"/><path d="M138.164 114.876c0 11.843-9.631 21.444-21.512 21.444-11.881.0-21.512-9.601-21.512-21.444.0-11.844 9.631-21.445 21.512-21.445 11.881.0 21.512 9.601 21.512 21.445z" id="path-6" class="cls-7" fill-rule="evenodd"/><path d="M133.969 106.512c0 11.844-9.631 21.444-21.512 21.444C100.577 127.956 90.945 118.356 90.945 106.512 90.945 94.669 100.577 85.068 112.457 85.068c11.881.0 21.512 9.601 21.512 21.444z" id="path-7" class="cls-3" fill-rule="evenodd"/><path d="M117.536 85.734C122.403 89.665 125.579 95.598 125.579 102.331c0 11.843-9.631 21.444-21.511 21.444C102.309 123.775 100.625 123.507 98.989 123.109 102.685 126.094 107.329 127.956 112.457 127.956c11.881.0 21.512-9.60000000000001 21.512-21.444C133.969 96.421 126.953 88.017 117.536 85.734z" id="path-8" class="cls-10" fill-rule="evenodd"/><path d="M139.545 58.436s0-41.036.0-41.036C139.545 7.703 132.256.0 122.529.0c-9.726.0-17.015.478-17.015 9.75H60.858C60.858.478 54.113.0 44.387.0S27.916 7.703 27.916 17.4V58.436s111.629.0 111.629.0z" id="path-9" class="cls-11" fill-rule="evenodd"/><path d="M35.997 8.363c9.727.0 16.471.477 16.471 9.751H97.125C97.125 13.46 98.963 11.025 102.02 9.75H60.858C60.858.478 54.113.0 44.387.0c-6.902.0-12.245 3.917-14.8 9.633 1.936-.805 4.081-1.27 6.41-1.27z" id="path-10" class="cls-10" fill-rule="evenodd"/><path d="M122.529.0c-9.366.0-16.404.524-16.916 8.84 2.485-.391 5.354-.477 8.527-.477 9.727.0 17.015 7.703 17.015 17.4V58.435S139.545 58.435 139.545 58.435s0-41.035.0-41.035C139.545 7.703 132.256.0 122.529.0z" id="path-11" class="cls-10" fill-rule="evenodd"/><path d="M87.193 35.544C87.193 36.813 86.173 37.853 84.916 37.853 83.659 37.853 82.635 36.813 82.635 35.544 82.635 34.267 83.659 33.235 84.916 33.235 86.173 33.235 87.193 34.267 87.193 35.544z" id="path-12" class="cls-14" fill-rule="evenodd"/><path d="M45.245 31.363C45.245 32.633 44.224 33.672 42.968 33.672 41.711 33.672 40.687 32.633 40.687 31.363c0-1.277 1.024-2.31 2.28100000000001-2.31C44.224 29.053 45.245 30.086 45.245 31.363z" id="path-13" class="cls-14" fill-rule="evenodd"/><path d="M49.44 52.271c0 1.271-1.021 2.309-2.278 2.309-1.256.0-2.281-1.038-2.281-2.309.0-1.277 1.025-2.309 2.281-2.309 1.257.0 2.278 1.032 2.278 2.309z" id="path-14" class="cls-14" fill-rule="evenodd"/><path d="M116.557 52.271C116.557 53.542 115.536 54.58 114.279 54.58 113.023 54.58 111.998 53.542 111.998 52.271 111.998 50.994 113.023 49.962 114.279 49.962 115.536 49.962 116.557 50.994 116.557 52.271z" id="path-15" class="cls-14" fill-rule="evenodd"/><path d="M78.804 56.453C78.804 57.723 77.783 58.761 76.526 58.761 75.27 58.761 74.245 57.723 74.245 56.453 74.245 55.175 75.27 54.144 76.526 54.144 77.783 54.144 78.804 55.175 78.804 56.453z" id="path-16" class="cls-14" fill-rule="evenodd"/><path d="M115.343 27.181c0 1.27-1.021 2.309-2.28100000000001 2.309C111.805 29.49 110.784 28.451 110.784 27.181c0-1.278 1.021-2.309 2.27799999999999-2.309C114.322 24.872 115.343 25.903 115.343 27.181z" id="path-17" class="cls-14" fill-rule="evenodd"/></g></svg>