<svg xmlns="http://www.w3.org/2000/svg" xmlns:xlink="http://www.w3.org/1999/xlink" preserveAspectRatio="xMidYMid" width="196" height="217" viewBox="0 0 196 217"><defs><style>.cls-3{fill:#d99a02}.cls-4{fill:#020403;opacity:.35}.cls-5{fill:#fbb713}.cls-6{fill:#020403;opacity:.25}.cls-7{fill:#b17d0a}</style></defs><g id="group-116svg"><path d="M47.868 117.404c0-11.434-15.967-23.644-15.967-33.154.0-23.633 36.467-42.791 81.449-42.791C131.079 41.459 147.47 44.444 160.842 49.495 162.082 47.165 162.908 44.92 162.908 42.789c0-23.635-36.466-42.793-81.451-42.793C36.475-.004.008 19.154.008 42.789c0 9.508 15.967 21.719 15.967 33.153L9.573 156.726c0 10.835 8.373 18.687 19.848 18.687h2.725s11.125.0 11.125.0 4.597-58.009 4.597-58.009z" id="path-1" class="cls-3" fill-rule="evenodd"/><path d="M113.35 41.459C131.079 41.459 147.47 44.444 160.842 49.495 161.738 47.81 162.405 46.173 162.713 44.589c-14.895-8.586-36.352-13.974-60.206-13.974-44.983.0-81.45 19.158-81.45 42.792C21.057 82.915 37.024 95.125 37.024 106.56l-5.456 68.852S32.146 175.412 32.146 175.412s11.125.0 11.125.0 4.597-58.01 4.597-58.01c0-11.432-15.967-23.642-15.967-33.152.0-23.633 36.467-42.791 81.449-42.791z" id="path-2" class="cls-4" fill-rule="evenodd"/><path d="M166.003 216.877C177.477 216.877 185.631 208.09 185.631 197.253L179.415 116.992c0-11.991 15.386-23.416 15.386-32.741.0-23.634-36.466-42.792-81.451-42.792-44.982.0-81.449 19.158-81.449 42.792.0 9.509 15.967 21.719 15.967 33.153l-6.402 80.783c0 10.836 8.373 18.69 19.848 18.69h2.725s101.964.0 101.964.0z" id="path-3" class="cls-5" fill-rule="evenodd"/><path d="M194.801 84.251c0-23.634-36.466-42.792-81.451-42.792C110.295 41.459 107.282 41.555 104.314 41.728c40.73 2.362 72.414 20.494 72.414 42.523.0 9.32499999999999-15.386 20.75-15.386 32.741L167.558 197.253c0 10.836-8.15299999999999 19.624-19.627 19.624h18.072c11.474.0 19.628-8.78800000000001 19.628-19.624L179.415 116.992c0-11.991 15.386-23.416 15.386-32.741z" id="path-4" class="cls-6" fill-rule="evenodd"/><path d="M154.228 115.29C154.228 118.395 151.711 120.912 148.606 120.912 145.501 120.912 142.984 118.395 142.984 115.29c0-3.107 2.517-5.622 5.62199999999999-5.622C151.711 109.668 154.228 112.183 154.228 115.29z" id="path-5" class="cls-7" fill-rule="evenodd"/><path d="M118.082 100.831c0 3.10599999999999-2.517 5.622-5.622 5.622C109.355 106.453 106.838 103.937 106.838 100.831 106.838 97.725 109.355 95.209 112.46 95.209c3.105.0 5.622 2.51599999999999 5.622 5.622z" id="path-6" class="cls-7" fill-rule="evenodd"/><path d="M81.937 115.29c0 3.10499999999999-2.517 5.622-5.622 5.622S70.693 118.395 70.693 115.29c0-3.107 2.517-5.622 5.622-5.622s5.622 2.515 5.622 5.622z" id="path-7" class="cls-7" fill-rule="evenodd"/><path d="M81.937 147.822C81.937 150.927 79.42 153.444 76.315 153.444S70.693 150.927 70.693 147.822C70.693 144.716 73.21 142.199 76.315 142.199S81.937 144.716 81.937 147.822z" id="path-8" class="cls-7" fill-rule="evenodd"/><path d="M118.082 158.666C118.082 161.77 115.565 164.288 112.46 164.288 109.355 164.288 106.838 161.77 106.838 158.666 106.838 155.56 109.355 153.044 112.46 153.044 115.565 153.044 118.082 155.56 118.082 158.666z" id="path-9" class="cls-7" fill-rule="evenodd"/><path d="M118.082 129.748C118.082 132.854 115.565 135.371 112.46 135.371 109.355 135.371 106.838 132.854 106.838 129.748 106.838 126.643 109.355 124.126 112.46 124.126c3.105.0 5.622 2.517 5.622 5.62199999999999z" id="path-10" class="cls-7" fill-rule="evenodd"/><path d="M154.228 144.206C154.228 147.312 151.711 149.829 148.606 149.829 145.501 149.829 142.984 147.312 142.984 144.206 142.984 141.101 145.501 138.585 148.606 138.585 151.711 138.585 154.228 141.101 154.228 144.206z" id="path-11" class="cls-7" fill-rule="evenodd"/><path d="M81.937 183.968C81.937 187.073 79.42 189.591 76.315 189.591S70.693 187.073 70.693 183.968C70.693 180.862 73.21 178.346 76.315 178.346S81.937 180.862 81.937 183.968z" id="path-12" class="cls-7" fill-rule="evenodd"/><path d="M118.082 194.813C118.082 197.916 115.565 200.434 112.46 200.434 109.355 200.434 106.838 197.916 106.838 194.813 106.838 191.707 109.355 189.191 112.46 189.191 115.565 189.191 118.082 191.707 118.082 194.813z" id="path-13" class="cls-7" fill-rule="evenodd"/><path d="M154.228 176.739C154.228 179.844 151.711 182.362 148.606 182.362 145.501 182.362 142.984 179.844 142.984 176.739 142.984 173.633 145.501 171.117 148.606 171.117 151.711 171.117 154.228 173.633 154.228 176.739z" id="path-14" class="cls-7" fill-rule="evenodd"/></g></svg>