<svg xmlns="http://www.w3.org/2000/svg" xmlns:xlink="http://www.w3.org/1999/xlink" preserveAspectRatio="xMidYMid" width="208" height="217" viewBox="0 0 208 217"><defs><style>.cls-3{fill:#ff3a2f}.cls-4{fill:#0cb04a}.cls-5{fill:#010101;opacity:.35}.cls-8{fill:#010101;opacity:.25}.cls-10{fill:#020403;opacity:.35}.cls-11{fill:#fff}</style></defs><g id="group-87svg"><path d="M153.974 40.39c-12.372-5.793-30.941-10.574-50.33-1.307-19.39-9.267-37.96-4.486-50.332 1.307C21.529 56.476.015 87.304.015 122.713c0 52.005 46.398 94.169 103.629 94.169s103.627-42.164 103.627-94.169c0-35.409-21.514-66.237-53.297-82.323z" id="path-1" class="cls-3" fill-rule="evenodd"/><path d="M153.974 40.39c-12.372-5.792-30.941-10.574-50.33-1.307-19.39-9.267-37.96-4.485-50.332 1.307-15.5 7.846-28.53 19.215-37.841 32.895C16.126 72.973 41.42 60.997 58.925 62.327 58.925 62.327 78.439 61.536 72.93 82.118 72.859 82.365 73.128 82.472 73.334 82.277c10.803-10.489 22.54-17.516 30.31-17.516C111.413 64.761 123.149 71.788 133.956 82.277 134.158 82.472 134.427 82.365 134.357 82.118 128.848 61.536 148.361 62.327 148.361 62.327c17.505-1.33 42.8 10.646 43.454 10.958C182.504 59.605 169.475 48.236 153.974 40.39z" id="path-2" class="cls-4" fill-rule="evenodd"/><path d="M58.925 62.326C50.405 61.68 40.051 64.188 31.579 66.968c-2.949 3.262-5.678 6.697-8.133 10.305C24.1 76.962 49.395 64.984 66.9 66.313 66.9 66.313 68.567 66.263 70.768 66.671 66.376 62.038 58.925 62.326 58.925 62.326z" id="path-3" class="cls-5" fill-rule="evenodd"/><path d="M191.815 73.285C191.161 72.973 165.866 60.996 148.361 62.326c0 0-17.494-.677999999999997-14.63 16.781C136.472 81.238 139.23 83.642 141.93 86.263 142.133 86.459 142.401 86.352 142.332 86.106 136.822 65.523 156.335 66.313 156.335 66.313 168.113 65.419 184.62 71.768 193.358 75.563L191.815 73.285s0 0 0 0z" id="path-4" class="cls-5" fill-rule="evenodd"/><path d="M103.644 64.761C97.76 64.761 89.604 68.799 81.301 75.308 82.072 78.02 82.135 81.505 80.904 86.106 80.833 86.352 81.103 86.459 81.308 86.263c10.803-10.486 22.54-17.514 30.31-17.514C113.726 68.749 116.144 69.305 118.739 70.269 113.078 66.81 107.79 64.761 103.644 64.761z" id="path-5" class="cls-5" fill-rule="evenodd"/><path d="M153.974 40.39C147.312 37.272 138.845 34.467 129.428 33.969c23.162 17.268 37.973 43.443 37.973 72.796.0 52.005-46.397 94.168-103.629 94.168-7.124.0-14.079-.655000000000001-20.8-1.899 17.058 11.217 38.007 17.848 60.672 17.848 57.231.0 103.627-42.164 103.627-94.169.0-35.409-21.514-66.238-53.297-82.323z" id="path-6" class="cls-8" fill-rule="evenodd"/><path d="M103.67 48.009C102.355 18.366 126.85.003 126.85.003S126.807.003 126.807.003s-46.37.0-46.37.0 24.504 18.363 23.185 48.006" id="path-7" class="cls-4" fill-rule="evenodd"/><path d="M126.807.003s-46.37.0-46.37.0S84.165 2.822 88.628 7.977h26.218S114.888 7.977 114.888 7.977 106.369 14.416 99.647 25.756C102.268 32.176 103.995 39.623 103.622 48.009H103.67C102.355 18.366 126.85.003 126.85.003S126.807.003 126.807.003z" id="path-8" class="cls-10" fill-rule="evenodd"/><path d="M34.201 167.726C32.772 167.726 31.345 167.163 30.281 166.043 29.118 164.821 1.979 135.609 18.657 94.481 19.78 91.706 22.948 90.371 25.718 91.494 28.494 92.62 29.831 95.781 28.707 98.556c-13.995 34.508 8.48 59.001 9.442 60.026C40.197 160.76 40.099 164.188 37.928 166.241 36.878 167.234 35.539 167.726 34.201 167.726z" id="path-9" class="cls-11" fill-rule="evenodd"/></g></svg>