<svg xmlns="http://www.w3.org/2000/svg" xmlns:xlink="http://www.w3.org/1999/xlink" preserveAspectRatio="xMidYMid" width="188" height="217" viewBox="0 0 188 217"><defs><style>.cls-3{fill:#fbb713}.cls-4{fill:#142a3b}.cls-7{fill:#ff3a2f}.cls-8{fill:#2476ff}.cls-9{fill:#fff}</style></defs><g id="group-32svg"><path d="M55.78 80.011S10.999 35.229 10.999 35.229 37.473 8.753 37.473 8.753 82.255 53.536 82.255 53.536 55.78 80.011 55.78 80.011z" id="path-1" class="cls-3" fill-rule="evenodd"/><path d="M37.494 59.472s-5.111-5.112-5.111-5.112S56.886 29.857 56.886 29.857s5.111 5.111 5.111 5.111S37.494 59.472 37.494 59.472z" id="path-2" class="cls-4" fill-rule="evenodd"/><path d="M50.168 72.147s-5.111-5.114-5.111-5.114S69.559 42.531 69.559 42.531 74.671 47.643 74.671 47.643 50.168 72.147 50.168 72.147z" id="path-3" class="cls-4" fill-rule="evenodd"/><path d="M24.82 46.798s-5.11-5.112-5.11-5.112S44.211 17.182 44.211 17.182s5.112 5.112 5.112 5.112S24.82 46.798 24.82 46.798z" id="path-4" class="cls-4" fill-rule="evenodd"/><path d="M87.678 43.714S46.803 2.838 46.803 2.838C45.723 1.758 46.615-.079 48.132.103l15.87 1.905C64.36 2.05 64.694 2.213 64.949 2.467l39.605 39.607C105.592 43.111 104.812 44.883 103.347 44.818l-14.601-.634C88.344 44.166 87.963 43.999 87.678 43.714z" id="path-5" class="cls-7" fill-rule="evenodd"/><path d="M142.473 86.199C142.473 92.117 137.676 96.912 131.759 96.912 125.842 96.912 121.045 92.117 121.045 86.199c0-5.917 4.797-10.714 10.714-10.714s10.714 4.797 10.714 10.714z" id="path-6" class="cls-8" fill-rule="evenodd"/><path d="M136.601 82.586C136.601 85.26 134.433 87.427 131.759 87.427 129.085 87.427 126.917 85.26 126.917 82.586 126.917 79.91 129.085 77.744 131.759 77.744 134.433 77.744 136.601 79.91 136.601 82.586z" id="path-7" class="cls-9" fill-rule="evenodd"/><path d="M187.495 6.946C187.495 10.775 184.392 13.878 180.564 13.878S173.633 10.775 173.633 6.946C173.633 3.119 176.736.015 180.564.015S187.495 3.119 187.495 6.946z" id="path-8" class="cls-8" fill-rule="evenodd"/><path d="M8.376 145.49C8.376 139.266 19.645 125.193 19.645 125.193s11.27 14.073 11.27 20.297C30.915 151.715 25.87 156.761 19.645 156.761 13.422 156.761 8.376 151.715 8.376 145.49z" id="path-9" class="cls-8" fill-rule="evenodd"/><path d="M88.734 36.347C88.271 36.347 87.809 36.17 87.456 35.818L61.399 9.759C60.692 9.053 60.692 7.908 61.399 7.202 62.105 6.498 63.248 6.498 63.954 7.202L90.012 33.263C90.717 33.967 90.717 35.113 90.012 35.818 89.658 36.17 89.196 36.347 88.734 36.347z" id="path-10" class="cls-9" fill-rule="evenodd"/><path d="M60.85 133.526s83.367 83.368 83.367 83.368 13.519-13.519 13.519-13.519-79.987-79.989-79.987-79.989S59.16 83.391 59.16 83.391 9.591 33.821 9.591 33.821.015 43.397.015 43.397s44.5 44.501 44.5 44.501S60.85 133.526 60.85 133.526z" id="path-11" class="cls-7" fill-rule="evenodd"/></g></svg>