<svg xmlns="http://www.w3.org/2000/svg" xmlns:xlink="http://www.w3.org/1999/xlink" preserveAspectRatio="xMidYMid" width="212" height="218" viewBox="0 0 212 218"><defs><style>.cls-3{fill:#098136}.cls-5{fill:#142a3b}.cls-6{fill:#0cb04a}.cls-7{fill:#ffe56d}</style></defs><g id="group-15svg"><path d="M182.811 56.949s0 134.174.0 134.174c0 14.226-11.618 25.757-25.949 25.757h14.25c14.332.0 25.95-11.531 25.95-25.757V56.949s-14.251.0-14.251.0z" id="path-1" class="cls-3" fill-rule="evenodd"/><path d="M197.062 51.45s0-5.578.0-5.578c0-14.224-11.618-25.756-25.95-25.756h-14.25c14.331.0 25.949 11.532 25.949 25.756v6.164s0 0 0 0" id="path-2" class="cls-3" fill-rule="evenodd"/><path d="M208.606 56.8s-204.979.0-204.979.0C1.631 56.8.013 55.181.013 53.185V.001s7.229.0 7.229.0.0 49.569.0 49.569 197.749.0 197.749.0.0-49.569.0-49.569S212.22.001 212.22.001s0 53.184.0 53.184c0 1.996-1.618 3.615-3.614 3.615z" id="path-3" class="cls-5" fill-rule="evenodd"/><path d="M177.349 216.88s-142.465.0-142.465.0C31.868 216.88 29.422 214.434 29.422 211.418V25.579c0-3.017 2.446-5.463 5.462-5.463H177.349C180.366 20.116 182.812 22.562 182.812 25.579V211.417C182.812 214.434 180.366 216.88 177.349 216.88z" id="path-4" class="cls-6" fill-rule="evenodd"/><path d="M176.126 155.431s-140.017.0-140.017.0c-1.996.0-3.615-1.61800000000002-3.615-3.614C32.494 149.821 34.113 148.201 36.109 148.201H176.126c1.995.0 3.614 1.62 3.614 3.61600000000001.0 1.99599999999998-1.619 3.614-3.614 3.614z" id="path-5" class="cls-7" fill-rule="evenodd"/><path d="M176.126 188.435s-140.017.0-140.017.0C34.113 188.435 32.494 186.816 32.494 184.82c0-1.99599999999998 1.619-3.614 3.615-3.614H176.126c1.995.0 3.614 1.61800000000002 3.614 3.614C179.74 186.816 178.121 188.435 176.126 188.435z" id="path-6" class="cls-7" fill-rule="evenodd"/></g></svg>