<svg xmlns="http://www.w3.org/2000/svg" xmlns:xlink="http://www.w3.org/1999/xlink" preserveAspectRatio="xMidYMid" width="216" height="142" viewBox="0 0 216 142"><defs><style>.cls-3{fill:#142a3b}.cls-5{fill:#060606;opacity:.35}.cls-7{fill:#fbb713}.cls-8{fill:#060606;opacity:.25}</style></defs><g id="group-23svg"><path d="M183.042 141.203s-10.947.0-10.947.0.0-83.192.0-83.192 10.947.0 10.947.0.0 83.192.0 83.192z" id="path-1" class="cls-3" fill-rule="evenodd"/><path d="M50.86 141.203s-10.946.0-10.946.0.0-83.192.0-83.192 10.946.0 10.946.0.0 83.192.0 83.192z" id="path-2" class="cls-3" fill-rule="evenodd"/><path d="M172.095 78.053s10.947.0 10.947.0.0-13.032.0-13.032-10.947.0-10.947.0.0 13.032.0 13.032z" id="path-3" class="cls-5" fill-rule="evenodd"/><path d="M39.913 78.053s10.947.0 10.947.0.0-13.032.0-13.032-10.947.0-10.947.0.0 13.032.0 13.032z" id="path-4" class="cls-5" fill-rule="evenodd"/><path d="M215.554 65.021s-215.541.0-215.541.0S.013.003.013.003s215.541.0 215.541.0.0 65.018.0 65.018z" id="path-5" class="cls-7" fill-rule="evenodd"/><path d="M192.04.003s0 23.774.0 23.774c0 14.121-11.448 25.568-25.57 25.568H.013s0 15.675.0 15.675 215.541.0 215.541.0.0-65.017.0-65.017-23.514.0-23.514.0z" id="path-6" class="cls-8" fill-rule="evenodd"/><path d="M200.01 141.203s-44.882.0-44.882.0S155.128 134.636 155.128 134.636s44.882.0 44.882.0S200.01 141.203 200.01 141.203z" id="path-7" class="cls-3" fill-rule="evenodd"/><path d="M68.649 141.203s-44.882.0-44.882.0S23.767 134.636 23.767 134.636s44.882.0 44.882.0S68.649 141.203 68.649 141.203z" id="path-8" class="cls-3" fill-rule="evenodd"/><path d="M.013 58.659s0 6.362.0 6.362 15.872.0 15.872.0S77.016.003 77.016.003s-21.853.0-21.853.0S.013 58.659.013 58.659z" id="path-9" class="cls-3" fill-rule="evenodd"/><path d="M57.721 65.021s23.244.0 23.244.0S140.819.003 140.819.003s-18.078.0-18.078.0-65.02 65.018-65.02 65.018z" id="path-10" class="cls-3" fill-rule="evenodd"/><path d="M128.51 65.021s23.244.0 23.244.0S211.607.003 211.607.003s-18.077.0-18.077.0-65.02 65.018-65.02 65.018z" id="path-11" class="cls-3" fill-rule="evenodd"/></g></svg>