<svg xmlns="http://www.w3.org/2000/svg" xmlns:xlink="http://www.w3.org/1999/xlink" preserveAspectRatio="xMidYMid" width="174" height="218" viewBox="0 0 174 218"><defs><style>.cls-3{fill:#ff3a2f}.cls-4{fill:#020403;opacity:.25}.cls-5{fill:#142a3b}.cls-7{fill:#020403;opacity:.35}</style></defs><g id="group-134svg"><path d="M137.998 217.234s-137.991.0-137.991.0.0-169.995.0-169.995 137.991.0 137.991.0.0 169.995.0 169.995z" id="path-1" class="cls-3" fill-rule="evenodd"/><path d="M113.693 47.828s0 118.027.0 118.027c0 13.937-11.35 25.234-25.354 25.234H.284s0 26.048.0 26.048 137.664.0 137.664.0.0-169.309.0-169.309-24.255.0-24.255.0z" id="path-2" class="cls-4" fill-rule="evenodd"/><path d="M40.504 195.739c-1.996.0-3.5-1.619-3.5-3.614V90.914c0-1.997 1.504-3.615 3.5-3.615 1.996.0 3.5 1.618 3.5 3.615V192.125c0 1.995-1.504 3.614-3.5 3.614z" id="path-3" class="cls-5" fill-rule="evenodd"/><path d="M94.501 195.739c-1.99600000000001.0-3.5-1.619-3.5-3.614V90.914c0-1.997 1.50399999999999-3.615 3.5-3.615 1.996.0 3.5 1.618 3.5 3.615V192.125c0 1.995-1.504 3.614-3.5 3.614z" id="path-4" class="cls-5" fill-rule="evenodd"/><path d="M137.193 68.385s0-20.557.0-20.557-135.219.0-135.219.0S137.193 68.385 137.193 68.385z" id="path-5" class="cls-7" fill-rule="evenodd"/><path d="M115.92 41.535S60.533 24.103 60.533 24.103 68.195-.015 68.195-.015s55.388 17.432 55.388 17.432-7.663 24.118-7.663 24.118z" id="path-6" class="cls-3" fill-rule="evenodd"/><path d="M167.848 63.301C167.307 63.301 166.761 63.22 166.219 63.049L6.979 12.932C4.121 12.033 2.534 8.989 3.434 6.133c.9-2.858 3.944-4.442 6.798-3.545l159.24 50.116C172.331 53.604 173.917 56.649 173.016 59.505 172.29 61.819 170.152 63.301 167.848 63.301z" id="path-7" class="cls-3" fill-rule="evenodd"/></g></svg>