<svg xmlns="http://www.w3.org/2000/svg" xmlns:xlink="http://www.w3.org/1999/xlink" preserveAspectRatio="xMidYMid" width="96" height="218" viewBox="0 0 96 218"><defs><style>.cls-3{fill:#ff3a2f}.cls-4{fill:#020403;opacity:.35}.cls-5{fill:#142a3b}.cls-7{fill:#fff}</style></defs><g id="group-37svg"><path d="M-.001 196.933s0-122.584.0-122.584C-.001 70.8 2.877 67.923 6.425 67.923H88.566C92.115 67.923 94.992 70.8 94.992 74.349V196.933C94.992 200.482 92.115 203.359 88.566 203.359H6.425C2.877 203.359-.001 200.482-.001 196.933z" id="path-1" class="cls-3" fill-rule="evenodd"/><path d="M74.253 68.058C78.144 72.209 80.543 77.775 80.543 83.913V172.92c0 12.822-10.393 23.215-23.213 23.215H8.763C7.926 196.135 7.102 196.085 6.288 196 10.523 200.519 16.53 203.359 23.212 203.359H71.779c12.82.0 23.213-10.393 23.213-23.213V91.137c0-11.984-9.083-21.842-20.739-23.079z" id="path-2" class="cls-4" fill-rule="evenodd"/><path d="M72.626 71.866s-50.262.0-50.262.0.0-68.274.0-68.274 50.262.0 50.262.0.0 68.274.0 68.274zM29.594 64.637s35.803.0 35.803.0.0-53.815.0-53.815-35.803.0-35.803.0.0 53.815.0 53.815z" id="path-3" class="cls-5" fill-rule="evenodd"/><path d="M64.481 11.941s-33.97.0-33.97.0.0-11.928.0-11.928 33.97.0 33.97.0.0 11.928.0 11.928z" id="path-4" class="cls-3" fill-rule="evenodd"/><path d="M70.233 107.311s-45.475.0-45.475.0c-1.996.0-3.615-1.61800000000001-3.615-3.614.0-1.997 1.619-3.616 3.615-3.616H70.233C72.229 100.081 73.847 101.7 73.847 103.697c0 1.996-1.618 3.614-3.61399999999999 3.614z" id="path-5" class="cls-7" fill-rule="evenodd"/><path d="M72.799 138.17s-50.605.0-50.605.0C20.197 138.17 18.579 136.552 18.579 134.556c0-1.99700000000001 1.618-3.614 3.615-3.614H72.799C74.795 130.942 76.413 132.559 76.413 134.556 76.413 136.552 74.795 138.17 72.799 138.17z" id="path-6" class="cls-7" fill-rule="evenodd"/><path d="M72.799 173.398s-50.605.0-50.605.0c-1.997.0-3.615-1.618-3.615-3.614C18.579 167.788 20.197 166.169 22.194 166.169H72.799C74.795 166.169 76.413 167.788 76.413 169.784 76.413 171.78 74.795 173.398 72.799 173.398z" id="path-7" class="cls-7" fill-rule="evenodd"/><path d="M33.447 216.892s-10.81.0-10.81.0.0-13.533.0-13.533 10.81.0 10.81.0.0 13.533.0 13.533z" id="path-8" class="cls-5" fill-rule="evenodd"/><path d="M72.197 216.892s-10.81.0-10.81.0.0-13.533.0-13.533 10.81.0 10.81.0.0 13.533.0 13.533z" id="path-9" class="cls-5" fill-rule="evenodd"/></g></svg>