<svg xmlns="http://www.w3.org/2000/svg" xmlns:xlink="http://www.w3.org/1999/xlink" preserveAspectRatio="xMidYMid" width="214" height="218" viewBox="0 0 214 218"><defs><style>.cls-3{fill:#142a3b}.cls-4{fill:#fbb713}.cls-5{fill:#020403;opacity:.25}.cls-6{fill:#020403;opacity:.35}.cls-7{fill:#ff3a2f}</style></defs><g id="group-83svg"><path d="M144.967 90.157C146.639 91.829 149.105 92.077 150.472 90.709l21.454-22.666s40.261-42.549 40.261-42.549C213.555 24.123 213.306 21.662 211.633 19.988L193.088 1.445C191.417-.226 188.952-.476 187.585.889L125.872 66.106C124.502 67.477 124.751 69.941 126.423 71.614l18.544 18.543z" id="path-1" class="cls-3" fill-rule="evenodd"/><path d="M120.998 108.381s5.938 6.19 5.938 6.19c12.346 16.483 15.279 34.219-8.39 57.888-29.988 29.988-91.054 57.874-111.52 37.409C-13.44 189.4 14.445 128.333 44.433 98.344 67.925 74.85 85.566 77.567 101.947 89.676l6.333 5.102s12.718 13.603 12.718 13.603z" id="path-2" class="cls-4" fill-rule="evenodd"/><path d="M126.936 114.571s-5.938-6.19-5.938-6.19S108.28 94.777 108.28 94.777s-6.333-5.101-6.333-5.101C99.434 87.819 96.885 86.217 94.296 84.862l10.929 11.689s5.938 6.19 5.938 6.19c12.347 16.483 15.28 34.219-8.389 57.887-25.475 25.475-73.363 49.414-99.75 43.505C4.069 206.275 5.375 208.216 7.026 209.868 27.492 230.333 88.558 202.447 118.546 172.458c23.669-23.668 20.736-41.404 8.39-57.887z" id="path-3" class="cls-5" fill-rule="evenodd"/><path d="M122.993 110.628S117.055 104.438 117.055 104.438s-3.92-4.193-3.92-4.193S90.271 123.11 90.271 123.11C89.063 122.814 87.814 122.613 86.514 122.613 77.736 122.613 70.623 129.727 70.623 138.505s7.113 15.892 15.891 15.892c8.77900000000001.0 15.892-7.114 15.892-15.892C102.406 136.792 102.066 135.174 101.566 133.632l22.08-22.083C123.423 111.243 123.222 110.934 122.993 110.628z" id="path-4" class="cls-6" fill-rule="evenodd"/><path d="M143.187 84.119s-10.906-10.906-10.906-10.906-42.01 42.011-42.01 42.011C89.063 114.928 87.814 114.727 86.514 114.727 77.736 114.727 70.623 121.84 70.623 130.619 70.623 139.397 77.736 146.511 86.514 146.511c8.77900000000001.0 15.892-7.114 15.892-15.892C102.406 128.906 102.066 127.288 101.566 125.746l41.621-41.627z" id="path-5" class="cls-7" fill-rule="evenodd"/><path d="M211.633 19.988S202.983 11.339 202.983 11.339s-35 36.988-35 36.988-21.454 22.666-21.454 22.666C145.161 72.36 142.696 72.114 141.024 70.441l-9.893-9.893S125.872 66.106 125.872 66.106C124.502 67.477 124.751 69.94 126.423 71.614l18.544 18.543C146.639 91.829 149.105 92.077 150.472 90.709l21.454-22.666s40.262-42.549 40.262-42.549C213.555 24.123 213.306 21.662 211.633 19.988z" id="path-6" class="cls-6" fill-rule="evenodd"/><path d="M143.187 84.119S132.28 73.213 132.28 73.213s-1.971 1.971-1.971 1.971S135.301 80.176 135.301 80.176s-41.622 41.626-41.622 41.626C94.18 123.345 94.519 124.963 94.519 126.676c0 8.777-7.113 15.891-15.891 15.891C77.656 142.567 76.715 142.448 75.791 142.282 78.621 144.884 82.365 146.511 86.514 146.511c8.77900000000001.0 15.892-7.114 15.892-15.892C102.406 128.906 102.066 127.288 101.566 125.746l41.621-41.627z" id="path-7" class="cls-6" fill-rule="evenodd"/></g></svg>