<svg xmlns="http://www.w3.org/2000/svg" xmlns:xlink="http://www.w3.org/1999/xlink" preserveAspectRatio="xMidYMid" width="216" height="196" viewBox="0 0 216 196"><defs><style>.cls-3{fill:#142a3b}.cls-4{fill:#060606;opacity:.35}.cls-5{fill:#fbb713}.cls-6{fill:#060606;opacity:.25}</style></defs><g id="group-43svg"><path d="M107.78 32.724c20.987.0 42.62-11.979 46.921-32.247L154.773.511s0-.508.0-.508-93.897.0-93.897.0c4.376 20.532 26.373 32.721 46.904 32.721z" id="path-1" class="cls-3" fill-rule="evenodd"/><path d="M138.09.003c-5.892 18.17-26.219 28.803-45.986 28.803C90.355 28.806 88.595 28.685 86.836 28.51c6.64 2.736 13.872 4.215 20.944 4.215 20.987.0 42.62-11.98 46.921-32.248L154.773.511s0-.508.0-.508-16.683.0-16.683.0z" id="path-2" class="cls-4" fill-rule="evenodd"/><path d="M201.245 78.522s-28.363.0-28.363.0C170.146 78.522 170.479 79.017 170.479 81.749V195.268s-116.751.0-116.751.0.0-113.519.0-113.519C53.728 79.017 47.059 78.522 44.327 78.522H14.323S.005 30.041.005 30.041 60.876.003 60.876.003c4.376 20.531 26.373 32.722 46.904 32.722 20.987.0 42.62-11.98 46.921-32.248l60.845 29.66s-14.301 48.385-14.301 48.385z" id="path-3" class="cls-5" fill-rule="evenodd"/><path d="M154.701.477C154.333 2.212 153.796 3.86 153.186 5.47l50.603 24.668s-14.301 48.384-14.301 48.384 11.757.0 11.757.0 14.3-48.384 14.3-48.384S154.701.477 154.701.477z" id="path-4" class="cls-6" fill-rule="evenodd"/><path d="M96.024 32.725C98.01 32.725 1e2 32.583 101.983 32.371 83.279 30.331 64.842 18.609 60.876.003L50.655 5.047c6.624 17.454 26.588 27.678 45.369 27.678z" id="path-5" class="cls-6" fill-rule="evenodd"/><path d="M158.722 81.749s0 113.519.0 113.519 11.757.0 11.757.0.0-113.519.0-113.519C170.479 79.017 170.145 78.522 172.882 78.522H161.126C158.389 78.522 158.722 79.017 158.722 81.749z" id="path-6" class="cls-6" fill-rule="evenodd"/></g></svg>