<svg xmlns="http://www.w3.org/2000/svg" xmlns:xlink="http://www.w3.org/1999/xlink" preserveAspectRatio="xMidYMid" width="216" height="177" viewBox="0 0 216 177"><defs><style>.cls-3{fill:#2476ff}.cls-4{fill:#000;opacity:.35}</style></defs><g id="group-143svg"><path d="M71.763 176.896C48.81 176.896 25.464 170.326 2.366 157.349.426 156.26-.48 153.945.206 151.822.892 149.707 2.897 148.408 5.203 148.609 22.564 150.631 40.904 146.503 54.64 138.433 38.753 134.698 25.913 124.386 19.14 109.405 18.382 107.729 18.674 105.763 19.891 104.38 21.09 102.998 23.021 102.448 24.778 102.99 26.783 103.613 28.823 104.042 30.8 104.28 18.747 97.087 5.834 83.305 5.834 62.669c0-1.811 1.043-3.458 2.673-4.227C10.145 57.655 12.075 57.892 13.475 59.036c1.502 1.228 3.113 2.251 4.769 3.057C14.794 57.416 11.801 51.613 10.099 45.061 6.979 33.037 8.781 20.865 15.315 9.857 16.093 8.53 17.485 7.679 19.013 7.569c1.5-.165 3.019.54 3.99 1.748 13.791 17.232 38.299 38.05 77.715 41.858C99.996 38.702 103.739 18.258 120.963 8.201 142.002-4.1 162.638-2.488 180.045 12.766 187.806 11.039 200.06 5.721 202.595 3.945 204.223 2.81 206.356 2.819 207.967 3.936 209.577 5.062 210.319 7.075 209.816 8.977 208.644 13.398 205.999 18.303 202.695 22.696 205.313 21.918 207.509 21.131 208.68 20.528 210.566 19.566 212.844 19.97 214.29 21.525 215.719 23.089 215.92 25.404 214.795 27.199 209.276 35.911 200.371 44.028 194.412 48.419 196.802 77.668 184.968 109.862 162.419 135.129c-24.051 26.933-56.237 41.767-90.638 41.767H71.763z" id="path-1" class="cls-3" fill-rule="evenodd"/><path d="M170.704 15.662C173.466 15.048 176.797 13.969 180.057 12.766 167.895 2.404 154.188-1.217 142.032.526 150.869 1.861 162.907 8.831 170.704 15.662z" id="path-2" class="cls-4" fill-rule="evenodd"/><path d="M101.024 53.157C100.988 52.521 100.971 51.851 100.958 51.175 68.957 50.599 36.776 27.699 23.003 9.317c-.93-1.24-2.49-1.913-3.99-1.748C17.485 7.679 16.093 8.53 15.316 9.857 14.635 11.004 14.036 12.17 13.458 13.34c20.773 35.611 51.173 36.302 87.566 39.817z" id="path-3" class="cls-4" fill-rule="evenodd"/><path d="M214.291 21.525C212.844 19.97 210.566 19.566 208.68 20.528 207.509 21.131 205.313 21.918 202.695 22.696 205.999 18.303 208.644 13.398 209.816 8.977 210.319 7.074 209.577 5.062 207.967 3.936 206.356 2.819 204.223 2.81 202.595 3.945 201.703 4.569 199.57 5.643 196.888 6.834 197.034 7.534 197.074 8.257 196.883 8.977 195.712 13.398 193.067 18.303 189.763 22.696 192.38 21.918 194.577 21.131 195.748 20.528 197.634 19.566 199.912 19.97 201.358 21.525 202.786 23.089 202.988 25.404 201.862 27.2 196.343 35.911 187.438 44.028 181.481 48.419 183.869 77.668 172.036 109.862 149.487 135.129c-22.43 25.117-51.937 39.7-83.716 41.554C67.77 176.781 69.77 176.896 71.763 176.896H71.781c34.401.0 66.587-14.834 90.638-41.767 22.549-25.267 34.383-57.461 31.994-86.71 5.958-4.391 14.863-12.508 20.382-21.219C215.92 25.404 215.719 23.089 214.291 21.525z" id="path-4" class="cls-4" fill-rule="evenodd"/></g></svg>