<svg xmlns="http://www.w3.org/2000/svg" xmlns:xlink="http://www.w3.org/1999/xlink" preserveAspectRatio="xMidYMid" width="212" height="217" viewBox="0 0 212 217"><defs><style>.cls-3{fill:#142a3b}.cls-5{fill:#0cb04a}.cls-6{fill:#ff3a2f}.cls-7{fill:#fbb713}.cls-9{fill:#020403;opacity:.35}.cls-15{fill:#fff}</style></defs><g id="group-163svg"><path d="M67.095 22.236C65.688 22.236 64.351 21.408 63.766 20.032L57.394 5.018C56.615 3.181 57.472 1.06 59.309.279 61.147-.501 63.268.355 64.049 2.195L70.42 17.207C71.2 19.045 70.342 21.166 68.505 21.947 68.044 22.143 67.566 22.236 67.095 22.236z" id="path-1" class="cls-3" fill-rule="evenodd"/><path d="M133.982 179.87C132.575 179.87 131.237 179.042 130.653 177.665L98.802 102.602C98.022 100.763 98.879 98.642 100.717 97.863 102.55 97.084 104.675 97.941 105.455 99.778l31.852 75.063C138.087 176.679 137.229 178.801 135.392 179.58 134.932 179.776 134.453 179.87 133.982 179.87z" id="path-2" class="cls-3" fill-rule="evenodd"/><path d="M169.684 72.523C188.339 64.605 207.027 66.591 211.426 76.955 187.678 20.99 123.058-5.13 67.093 18.62 11.127 42.367-14.99 106.99 8.758 162.956c-4.398-10.365 7.16-25.182 25.815-33.1C53.228 121.939 71.916 123.924 76.314 134.289 71.916 123.924 83.474 109.106 102.129 101.189 120.784 93.273 139.472 95.257 143.87 105.623c-4.398-10.366 7.16-25.184 25.814-33.1z" id="path-3" class="cls-5" fill-rule="evenodd"/><path d="M169.684 72.523C188.339 64.605 207.027 66.591 211.426 76.955 187.678 20.99 123.058-5.13 67.093 18.62 65.365 19.352 67.514 18.424 66.123 19.201c-3.934 2.197 52.785 39.562 77.747 86.422C138.576 95.685 151.03 80.439 169.684 72.523z" id="path-4" class="cls-6" fill-rule="evenodd"/><path d="M143.87 105.623C120.122 49.655 85.748 10.703 67.093 18.62 48.437 26.535 52.566 78.323 76.314 134.289L76.112 133.815c-4.398-10.365 8.753-21.431 27.408-29.347C122.175 96.551 139.27 94.782 143.668 105.148L143.87 105.623z" id="path-5" class="cls-7" fill-rule="evenodd"/><path d="M136.03 201.958C141.307 214.395 155.667 220.198 168.103 214.921 180.54 209.643 186.344 195.284 181.067 182.846 179.308 178.7 174.521 176.765 170.375 178.524 166.23 180.284 164.295 185.07 166.055 189.218 167.814 193.362 165.879 198.149 161.733 199.908 157.588 201.669 152.801 199.734 151.042 195.587L141.487 173.068S126.474 179.438 126.474 179.438s9.556 22.52 9.556 22.52z" id="path-6" class="cls-3" fill-rule="evenodd"/><path d="M137.733 174.66S145.696 193.427 145.696 193.427C146.989 196.472 149.917 198.309 153.023 198.379 152.198 197.619 151.509 196.688 151.042 195.587L141.487 173.068S137.733 174.66 137.733 174.66z" id="path-7" class="cls-9" fill-rule="evenodd"/><path d="M173.74 177.893C174.565 178.654 175.254 179.585 175.721 180.686 180.999 193.122 175.195 207.482 162.758 212.76 157.497 214.993 151.896 215.223 146.78 213.826 153.122 217.305 160.928 217.966 168.103 214.921 180.54 209.643 186.344 195.284 181.067 182.846 179.775 179.8 176.846 177.964 173.74 177.893z" id="path-8" class="cls-9" fill-rule="evenodd"/><path d="M6.911 137.727C5.162 138.468 3.5 139.288 1.884 140.142c1.439 7.679 3.697 15.325 6.874 22.814C4.875 153.804 13.174 136.202 42.701 127.022 36.155 127.123 14.357 134.566 6.911 137.727z" id="path-9" class="cls-9" fill-rule="evenodd"/><path d="M74.466 109.06C64.271 111.259 57.168 119.038 52.535 125.221 63.998 124.186 73.368 127.346 76.314 134.289 72.431 125.137 80.853 116.399 95.752 108.121 89.205 108.222 82 107.434 74.466 109.06z" id="path-10" class="cls-9" fill-rule="evenodd"/><path d="M67.093 18.62C66.896 18.703 66.709 18.798 66.513 18.882c43.066-6.322 86.575 13.578 109.693 51.279C192.513 65.198 207.542 67.803 211.426 76.955 187.678 20.989 123.057-5.13 67.093 18.62z" id="path-11" class="cls-9" fill-rule="evenodd"/><path d="M142.022 80.393C132.421 84.466 112.484 96.808 107.852 102.991 132.867 92.978 140.924 98.679 143.87 105.623 139.987 96.471 148.553 83.853 163.452 75.573 156.905 75.676 149.469 77.231 142.022 80.393z" id="path-12" class="cls-9" fill-rule="evenodd"/><path d="M12.37 121.543C10.698 121.543 9.2 120.38 8.842 118.679 8.57 117.39 2.567 86.687 34.579 49.591 35.884 48.082 38.164 47.913 39.677 49.217 41.187 50.52 41.355 52.804 40.051 54.314c-29.513 34.2-24.19 62.606-24.132 62.889C16.313 119.154 15.058 121.064 13.108 121.467 12.86 121.519 12.613 121.543 12.37 121.543z" id="path-13" class="cls-15" fill-rule="evenodd"/></g></svg>