<svg xmlns="http://www.w3.org/2000/svg" xmlns:xlink="http://www.w3.org/1999/xlink" preserveAspectRatio="xMidYMid" width="217" height="186" viewBox="0 0 217 186"><defs><style>.cls-3{fill:#fbb713}.cls-4{fill:#020403;opacity:.35}.cls-5{fill:#142a3b}.cls-6{fill:#ff3a2f}.cls-7{fill:#2476ff}.cls-8{fill:#efefef}.cls-12{fill:#fff}</style></defs><g id="group-143svg"><path d="M144.014 185.942s-82.135.0-82.135.0S32.544 45.623 32.544 45.623s140.805.0 140.805.0-29.335 140.319-29.335 140.319z" id="path-1" class="cls-3" fill-rule="evenodd"/><path d="M161.66 109.742C154.059 118.892 144.369 126.228 133.328 131.045V127.846s-52.557.0-52.557.0S80.771 134.081 80.771 134.081c-14.448-4.393-27.083-12.942-36.522-24.266l.863 4.13c8.863 12.215 21.249 21.695 35.659 26.978V145.937s52.557.0 52.557.0S133.328 140.851 133.328 140.851C142.625 137.42 151.099 132.286 158.313 125.756L161.66 109.742z" id="path-2" class="cls-4" fill-rule="evenodd"/><path d="M102.947 128.687c-44.183.0-80.129-35.947-80.129-80.131C22.818 47.183 22.853 45.818 22.923 44.463L23.095 41.03s19.344.0 19.344.0.0 7.23.0 7.23-12.392.0-12.392.0C30.047 48.359 30.047 48.458 30.047 48.556c0 40.199 32.702 72.902 72.9 72.902 40.197.0 72.899-32.703 72.899-72.902C175.846 48.458 175.846 48.359 175.846 48.26h-6.529s0-7.23.0-7.23 13.481.0 13.481.0S182.971 44.463 182.971 44.463C183.04 45.818 183.075 47.183 183.075 48.556c0 44.184-35.945 80.131-80.128 80.131z" id="path-3" class="cls-5" fill-rule="evenodd"/><path d="M129.225 129.526s-52.557.0-52.557.0.0-18.09.0-18.09 52.557.0 52.557.0.0 18.09.0 18.09z" id="path-4" class="cls-6" fill-rule="evenodd"/><path d="M154.118 28.201C149.406 28.201 145.095 30.003 141.75 32.98c-4.22-8.863-12.872-14.956-22.889-14.956-12.961.0-23.647 10.189-25.37 23.405-2.456-5.039-7.365-8.521-13.091-8.521C77.514 32.908 74.841 33.818 72.566 35.332c-3.527-4.358-8.755-7.131-14.602-7.131-10.622.0-19.232 9.113-19.232 20.355H173.349C173.349 37.314 164.74 28.201 154.118 28.201z" id="path-5" class="cls-7" fill-rule="evenodd"/><path d="M102.949 42.689C102.871 42.689 102.794 42.686 102.714 42.675 101.725 42.547 101.025 41.639 101.156 40.648 102.567 29.828 111.449 21.666 121.819 21.666 129.758 21.666 136.908 26.324 140.48 33.82 140.909 34.723 140.526 35.799 139.624 36.229 138.717 36.659 137.644 36.274 137.215 35.375c-2.965-6.226-8.863-10.095-15.396-10.095-8.559.0-15.903 6.809-17.08 15.836C104.62 42.026 103.844 42.689 102.949 42.689z" id="path-6" class="cls-8" fill-rule="evenodd"/><path d="M44.124 48.431C43.212 48.431 42.43 47.746 42.329 46.82c-.674-6.252 3.211-12.027 9.037-13.436C52.333 33.15 53.312 33.746 53.547 34.717 53.782 35.687 53.185 36.662 52.217 36.898 48.148 37.88 45.443 41.98 45.923 46.431 46.03 47.423 45.312 48.313 44.32 48.422 44.255 48.429 44.188 48.431 44.124 48.431z" id="path-7" class="cls-8" fill-rule="evenodd"/><path d="M216.862 44.645C216.862 51.531 211.28 57.112 204.394 57.112 197.509 57.112 191.928 51.531 191.928 44.645 191.928 37.759 197.509 32.178 204.394 32.178c6.886.0 12.468 5.581 12.468 12.467z" id="path-8" class="cls-7" fill-rule="evenodd"/><path d="M18.247 28.352c0 5.042-4.087 9.129-9.129 9.129-5.043.0-9.13-4.087-9.13-9.129.0-5.043 4.087-9.13 9.13-9.13 5.042.0 9.129 4.087 9.129 9.13z" id="path-9" class="cls-7" fill-rule="evenodd"/><path d="M11.393 26.034c0 2.396-1.942 4.339-4.339 4.339S2.715 28.43 2.715 26.034c0-2.396 1.942-4.34 4.339-4.34s4.339 1.944 4.339 4.34z" id="path-10" class="cls-12" fill-rule="evenodd"/><path d="M213.073 40.882C213.073 43.279 211.13 45.222 208.734 45.222c-2.39600000000002.0-4.34-1.943-4.34-4.34.0-2.395 1.94399999999999-4.339 4.34-4.339 2.39599999999999.0 4.339 1.944 4.339 4.339z" id="path-11" class="cls-12" fill-rule="evenodd"/><path d="M62.735 7.778c0 4.296-3.481 7.776-7.776 7.776-4.295.0-7.776-3.48-7.776-7.776.0-4.293 3.481-7.775 7.776-7.775 4.295.0 7.776 3.482 7.776 7.775z" id="path-12" class="cls-7" fill-rule="evenodd"/><path d="M177.383 11.888C177.383 14.115 175.577 15.922 173.349 15.922 171.122 15.922 169.316 14.115 169.316 11.888 169.316 9.66 171.122 7.854 173.349 7.854 175.577 7.854 177.383 9.66 177.383 11.888z" id="path-13" class="cls-7" fill-rule="evenodd"/></g></svg>