<svg xmlns="http://www.w3.org/2000/svg" xmlns:xlink="http://www.w3.org/1999/xlink" preserveAspectRatio="xMidYMid" width="185" height="216" viewBox="0 0 185 216"><defs><style>.cls-3{fill:#fbb713}.cls-4{fill:#000;opacity:.35}.cls-6{fill:#000;opacity:.25}.cls-7{fill:#142a3b}.cls-11{fill:#ededed}.cls-13{fill:#ff3a2f}</style></defs><g id="group-60svg"><path d="M45.966 28.367s104.768.0 104.768.0.0-28.374.0-28.374-104.768.0-104.768.0.0 28.374.0 28.374z" id="path-1" class="cls-3" fill-rule="evenodd"/><path d="M133.628-.007s0 28.374.0 28.374 17.106.0 17.106.0.0-28.374.0-28.374-17.106.0-17.106.0z" id="path-2" class="cls-4" fill-rule="evenodd"/><path d="M150.734 194.246s-104.768.0-104.768.0.0-165.879.0-165.879 104.768.0 104.768.0.0 165.879.0 165.879z" id="path-3" class="cls-3" fill-rule="evenodd"/><path d="M49.103 28.367s72.754 5.079 72.754 5.079C130.414 34.043 137.049 41.157 137.049 49.735V153.661c0 7.297-5.916 13.215-13.215 13.215H45.966s0 13.685.0 13.685 104.768.0 104.768.0.0-152.194.0-152.194-101.631.0-101.631.0z" id="path-4" class="cls-6" fill-rule="evenodd"/><path d="M159.464 215.526s-122.229.0-122.229.0.0-36.014.0-36.014 122.229.0 122.229.0.0 36.014.0 36.014z" id="path-5" class="cls-7" fill-rule="evenodd"/><path d="M176.2 44.617s-26.694.0-26.694.0.0 14.797.0 14.797S159.139 59.414 159.139 59.414c4.822.0 8.731 2.944 8.731 6.577v59.185C167.87 128.809 163.961 131.753 159.139 131.753H149.506s0 14.796.0 14.796 26.694.0 26.694.0C181.023 146.549 184.931 143.605 184.931 139.973V51.194C184.931 47.561 181.023 44.617 176.2 44.617z" id="path-6" class="cls-7" fill-rule="evenodd"/><path d="M49.103 28.367s-49.11.0-49.11.0S10.906 64.38 48.012 91.663l1.091-63.296z" id="path-7" class="cls-3" fill-rule="evenodd"/><path d="M38.544 28.367S37.748 74.557 37.748 74.557C23.437 64.034 13.035 52.219 5.64 41.666 12.174 54.635 25.091 74.81 48.012 91.663l1.091-63.296s-10.559.0-10.559.0z" id="path-8" class="cls-4" fill-rule="evenodd"/><path d="M105.372 157.141s-14.045.0-14.045.0C90.083 157.141 89.073 156.131 89.073 154.887V67.726C89.073 66.481 90.083 65.471 91.327 65.471h14.045C106.617 65.471 107.626 66.481 107.626 67.726v87.161C107.626 156.131 106.617 157.141 105.372 157.141z" id="path-9" class="cls-11" fill-rule="evenodd"/><path d="M98.497 65.471S98.202 65.471 98.202 65.471C97.667 65.471 97.149 65.541 96.639 65.63 100.932 66.374 104.205 70.095 104.205 74.601v73.411c0 4.506-3.273 8.227-7.566 8.971C97.149 157.072 97.667 157.141 98.202 157.141H98.497C103.539 157.141 107.626 153.054 107.626 148.012V74.601c0-5.041-4.087-9.13-9.12900000000001-9.13z" id="path-10" class="cls-4" fill-rule="evenodd"/><path d="M98.287 151.339C97.294 151.339 96.491 150.536 96.491 149.543V77.27C96.491 76.278 97.294 75.475 98.287 75.475 99.28 75.475 100.084 76.278 100.084 77.27v72.273C100.084 150.536 99.28 151.339 98.287 151.339z" id="path-11" class="cls-13" fill-rule="evenodd"/><path d="M57.818 153.852C55.834 153.852 54.225 152.244 54.225 150.26V113.407c0-1.98299999999999 1.609-3.592 3.593-3.592C59.801 109.815 61.41 111.424 61.41 113.407V150.26C61.41 152.244 59.801 153.852 57.818 153.852z" id="path-12" class="cls-11" fill-rule="evenodd"/></g></svg>