<svg xmlns="http://www.w3.org/2000/svg" xmlns:xlink="http://www.w3.org/1999/xlink" preserveAspectRatio="xMidYMid" width="219" height="218" viewBox="0 0 219 218"><defs><style>.cls-3{fill:#ff3a2f}.cls-4{fill:#142a3b}.cls-5{fill:#020403;opacity:.35}.cls-7{fill:#ededed}.cls-11{fill:#fff}</style></defs><g id="group-115svg"><path d="M79.57 199.691C79.898 198.879 80.012 198.018 79.979 197.153 82.021 196.092 83.939 194.707 85.67 192.975l87.808-87.81C179.199 99.444 181.23 91.922 179.357 85.738L191.806 73.29C192.055 73.04 192.189 72.725 192.371 72.441 192.921 72.158 193.482 71.862 193.952 71.393l13.065-13.066c2.32500000000002-2.325 2.322-6.1.0-8.42L199.694 42.584s16.51-16.509 16.51-16.509c2.321-2.323 2.321-6.101.0-8.423L200.294 1.743C197.972-.579 194.194-.579 191.873 1.743L175.364 18.252s-7.864-7.863-7.864-7.863C165.178 8.067 161.404 8.062 159.079 10.389L146.015 23.453C145.753 23.715 145.64 24.044 145.441 24.326 144.883 24.6 144.337 24.896 143.876 25.358L131.561 37.674C125.304 35.643 117.448 37.657 111.711 43.396L23.902 131.207C22.108 133 20.66 135.014 19.583 137.139 15.115 136.93 10.051 138.966 5.949 143.068-.707 149.725-1.948 158.905 3.12 163.972l49.794 49.795C57.981 218.834 67.16 217.595 73.816 210.937 77.207 207.545 79.108 203.515 79.57 199.691z" id="path-1" class="cls-3" fill-rule="evenodd"/><path d="M179.357 85.738S191.806 73.29 191.806 73.29C192.055 73.04 192.189 72.725 192.371 72.441 192.921 72.158 193.482 71.862 193.952 71.393l13.065-13.066c2.32500000000002-2.325 2.322-6.1.0-8.42L199.694 42.584s16.51-16.509 16.51-16.509c2.321-2.323 2.321-6.101.0-8.423L200.294 1.743C197.972-.579 194.194-.579 191.873 1.743L175.364 18.252s-7.864-7.863-7.864-7.863C165.178 8.067 161.404 8.062 159.079 10.389L146.015 23.453C145.753 23.715 145.64 24.044 145.441 24.326 144.883 24.6 144.337 24.896 143.876 25.358L131.561 37.674s47.796 48.064 47.796 48.064z" id="path-2" class="cls-4" fill-rule="evenodd"/><path d="M162.073 10.389s10.578 10.576 10.578 10.576S175.364 18.252 175.364 18.252s-7.864-7.863-7.864-7.863C165.626 8.514 162.817 8.178 160.576 9.33 161.112 9.606 161.625 9.94 162.073 10.389z" id="path-3" class="cls-5" fill-rule="evenodd"/><path d="M207.017 58.327C209.342 56.002 209.339 52.227 207.018 49.907L199.695 42.584s16.509-16.509 16.509-16.509c2.321-2.323 2.321-6.101.0-8.423L200.294 1.743C198.42-.131 195.609-.466 193.37.685 193.906.959 194.419 1.294 194.867 1.743L205.35 12.225c2.321 2.323 2.321 6.1.0 8.422L188.841 37.156S196.164 44.48 196.164 44.48C198.485 46.8 198.489 50.575 196.163 52.901L171.225 77.59S179.358 85.738 179.358 85.738 191.806 73.29 191.806 73.29C192.055 73.04 192.189 72.724 192.371 72.441 192.921 72.159 193.482 71.862 193.952 71.393l13.065-13.066z" id="path-4" class="cls-5" fill-rule="evenodd"/><path d="M110.277 168.377s-61.768-61.77-61.768-61.77S87.412 67.703 87.412 67.703s61.768 61.77 61.768 61.77-38.903 38.904-38.903 38.904z" id="path-5" class="cls-7" fill-rule="evenodd"/><path d="M111.562 140.718s-35.396-35.397-35.396-35.397S84.307 97.18 84.307 97.18s35.396 35.398 35.396 35.398S111.562 140.718 111.562 140.718z" id="path-6" class="cls-4" fill-rule="evenodd"/><path d="M21.935 133.173S23.902 131.206 23.902 131.206C22.513 132.595 21.399 134.142 20.436 135.744l60.693 60.695C82.734 195.48 84.276 194.37 85.67 192.975L86.417 192.23s-64.482-59.057-64.482-59.057z" id="path-7" class="cls-5" fill-rule="evenodd"/><path d="M79.57 199.691C79.898 198.879 80.011 198.018 79.979 197.153 82.021 196.092 83.939 194.707 85.67 192.975l87.809-87.81C179.199 99.444 181.23 91.922 179.358 85.738L132.077 37.657C128.798 36.678 129.878 37.084 126.085 36.947L163.077 80.31C164.949 86.495 162.918 94.017 157.198 99.737L69.389 187.549C67.658 189.28 65.74 190.665 63.698 191.726 63.731 192.592 63.618 193.454 63.29 194.265 62.828 198.087 60.926 202.119 57.536 205.509 55.139 207.907 52.413 209.574 49.672 210.525L52.914 213.767C57.981 218.834 67.16 217.595 73.817 210.937 77.207 207.545 79.108 203.515 79.57 199.691z" id="path-8" class="cls-5" fill-rule="evenodd"/><path d="M53.748 123.061C52.361 123.061 50.974 122.531 49.915 121.472 47.797 119.355 47.797 115.922 49.915 113.805l57.962-57.963c7.003-7.004 16.945-9.77 25.357-7.045C136.083 49.721 137.642 52.78 136.718 55.628 135.795 58.479 132.731 60.036 129.888 59.112 125.401 57.652 119.632 59.423 115.544 63.509L57.582 121.472C56.523 122.531 55.136 123.061 53.748 123.061z" id="path-9" class="cls-11" fill-rule="evenodd"/></g></svg>