<svg xmlns="http://www.w3.org/2000/svg" xmlns:xlink="http://www.w3.org/1999/xlink" preserveAspectRatio="xMidYMid" width="217" height="194" viewBox="0 0 217 194"><defs><style>.cls-3{fill:#2476ff}.cls-5{fill:#020403;opacity:.25}.cls-7{fill:#ff3a2f}.cls-9{fill:#0cb04a}</style></defs><g id="group-50svg"><path d="M151.934 81.518c18.65-18.65 18.65-48.888.0-67.537-18.65-18.65-48.887-18.65-67.536.0-18.65 18.649-18.65 48.887.0 67.537L92.78 73.135c-14.02-14.02-14.02-36.751.0-50.771 14.02-14.02 36.751-14.02 50.771.0 14.02 14.02 14.02 36.751.0 50.771L151.934 81.518z" id="path-1" class="cls-3" fill-rule="evenodd"/><path d="M60.206 102.687s26.847 26.848 26.847 26.848-36.248 2.59-36.248 2.59.0 14.967.0 14.967S108.749 151.232 108.749 151.232s38.613 38.614 38.613 38.614 69.532-69.532 69.532-69.532-87.157-87.16-87.157-87.16-69.531 69.533-69.531 69.533z" id="path-2" class="cls-3" fill-rule="evenodd"/><path d="M98.683 141.165S50.805 137.746 50.805 137.746s0 9.346.0 9.346S108.749 151.232 108.749 151.232s-10.066-10.067-10.066-10.067z" id="path-3" class="cls-5" fill-rule="evenodd"/><path d="M117.155 45.737s59.444 59.447 59.444 59.447C184.955 113.54 184.955 127.087 176.599 135.443L134.78 177.264s12.582 12.582 12.582 12.582 69.531-69.532 69.531-69.532-87.156-87.16-87.156-87.16-12.582 12.583-12.582 12.583z" id="path-4" class="cls-5" fill-rule="evenodd"/><path d="M53.789 138.48c-4.34-13.359-18.686-20.671-32.045-16.331l15.713 48.376c13.359-4.34 20.671-18.687 16.332-32.045z" id="path-5" class="cls-7" fill-rule="evenodd"/><path d="M53.788 138.48C53.187 136.63 52.378 134.91 51.423 133.306c-.491 10.258-7.18 19.623-17.525 22.983L22.723 121.884C22.397 121.976 22.07 122.042 21.744 122.149l15.713 48.376c13.359-4.34 20.671-18.687 16.331-32.045z" id="path-6" class="cls-5" fill-rule="evenodd"/><path d="M29.425 179.151C30.722 176.598 37.696 172.88 37.696 172.88S38.805 180.705 37.509 183.257C36.212 185.81 33.351 186.96 31.119 185.825 28.886 184.691 28.127 181.703 29.425 179.151z" id="path-7" class="cls-9" fill-rule="evenodd"/><path d="M15.038 171.84C16.336 169.288 23.31 165.571 23.31 165.571S24.419 173.396 23.123 175.948C21.826 178.501 18.965 179.65 16.733 178.516 14.5 177.382 13.742 174.393 15.038 171.84z" id="path-8" class="cls-9" fill-rule="evenodd"/><path d="M.653 164.531C1.95 161.978 8.924 158.261 8.924 158.261S10.033 166.086 8.737 168.639C7.44 171.191 4.579 172.341 2.346 171.207.115 170.073-.644 167.084.653 164.531z" id="path-9" class="cls-9" fill-rule="evenodd"/><path d="M12.734 143.509C13.744 141.577 19.526 139.035 19.526 139.035S20.741 145.233 19.731 147.166C18.722 149.097 16.337 149.845 14.405 148.836 12.473 147.826 11.725 145.441 12.734 143.509z" id="path-10" class="cls-9" fill-rule="evenodd"/><path d="M5.418 189.995C5.418 187.816 9.366 182.886 9.366 182.886S13.314 187.816 13.314 189.995C13.314 192.176 11.546 193.943 9.366 193.943S5.418 192.176 5.418 189.995z" id="path-11" class="cls-9" fill-rule="evenodd"/></g></svg>