<svg xmlns="http://www.w3.org/2000/svg" xmlns:xlink="http://www.w3.org/1999/xlink" preserveAspectRatio="xMidYMid" width="114" height="217" viewBox="0 0 114 217"><defs><style>.cls-3{fill:#fbb713}.cls-4{fill:#142a3b}.cls-5{fill:#2476ff}.cls-9{fill:#fff}.cls-10{fill:#ff3a2f}.cls-11{fill:#010101;opacity:.35}</style></defs><g id="group-6svg"><path d="M73.081 78.547s0 21.262.0 21.262C73.081 103.038 74.323 106.142 76.55 108.481l15.924 16.72C94.7 127.54 95.942 130.645 95.942 133.874v70.415C95.942 211.234 90.313 216.864 83.369 216.864H17.07c-6.944.0-12.574-5.63-12.574-12.575V78.547c0-6.944 5.63-12.574 12.574-12.574H60.507c6.945.0 12.574 5.63 12.574 12.574z" id="path-1" class="cls-3" fill-rule="evenodd"/><path d="M112.148 21.418s-12.879.0-12.879.0c-.552000000000007.0-1-.448-1-1V9.557C98.269 9.006 98.717 8.558 99.269 8.558h12.879C112.701 8.558 113.148 9.006 113.148 9.557V20.418c0 .552-.447000000000003 1-1 1z" id="path-2" class="cls-4" fill-rule="evenodd"/><path d="M95.942 146.848S87.85 137.719 87.85 137.719C84.548 133.995 78.677 134.179 75.616 138.103L74.54 139.482C71.526 143.346 65.77 143.595 62.433 140.007l-3.559-3.828C55.958 133.042 51.082 132.775 47.841 135.574L40.651 141.784C37.387 144.603 32.472 144.31 29.566 141.124l-3.867-4.239C22.582 133.468 17.22 133.417 14.039 136.775L4.496 146.848s0 12.208.0 12.208.0 45.233.0 45.233C4.496 211.234 10.126 216.864 17.07 216.864H83.369c6.944.0 12.573-5.63 12.573-12.575V146.848z" id="path-3" class="cls-5" fill-rule="evenodd"/><path d="M26.164 90.357s-16.289.0-16.289.0C8.876 90.357 8.068 89.547 8.068 88.549 8.068 87.551 8.876 86.741 9.875 86.741H26.164C27.162 86.741 27.971 87.551 27.971 88.549 27.971 89.547 27.162 90.357 26.164 90.357z" id="path-4" class="cls-4" fill-rule="evenodd"/><path d="M26.164 104.502s-16.289.0-16.289.0C8.876 104.502 8.068 103.693 8.068 102.695 8.068 101.698 8.876 100.888 9.875 100.888H26.164C27.162 100.888 27.971 101.698 27.971 102.695 27.971 103.693 27.162 104.502 26.164 104.502z" id="path-5" class="cls-4" fill-rule="evenodd"/><path d="M26.164 118.648s-16.289.0-16.289.0C8.876 118.648 8.068 117.84 8.068 116.841 8.068 115.843 8.876 115.034 9.875 115.034H26.164C27.162 115.034 27.971 115.843 27.971 116.841 27.971 117.84 27.162 118.648 26.164 118.648z" id="path-6" class="cls-4" fill-rule="evenodd"/><path d="M73.122 199.629c-1.997.0-3.615-1.62-3.615-3.61599999999999V125.425c0-1.996 1.618-3.615 3.615-3.615 1.995.0 3.614 1.619 3.614 3.615v70.588C76.736 198.009 75.117 199.629 73.122 199.629z" id="path-7" class="cls-9" fill-rule="evenodd"/><path d="M88.36 28.041s0 14.575.0 14.575 12.253 16.882 12.253 16.882C101.007 60.041 101.219 60.695 101.219 61.367V65.858C101.219 68.894 97.372 70.206 95.517 67.802L79.233 46.692C78.48 45.716 78.073 44.52 78.073 43.287V28.041s10.287.0 10.287.0z" id="path-8" class="cls-10" fill-rule="evenodd"/><path d="M78.073 40.257s10.287.0 10.287.0.0-8.551.0-8.551-10.287.0-10.287.0.0 8.551.0 8.551z" id="path-9" class="cls-11" fill-rule="evenodd"/><path d="M2.321 20.256S24.681 1.502 24.681 1.502C25.85.521 27.327-.015 28.853-.015H96.299C99.884-.015 102.792 2.891 102.792 6.477V25.213c0 3.586-2.908 6.493-6.493 6.493H76.992C75.387 31.706 73.841 32.299 72.648 33.372L59.503 45.203C58.135 46.434 57.354 48.188 57.354 50.029V51.79c0 3.587-2.907 6.493-6.493 6.493H28.125c-3.586.0-6.493-2.906-6.493-6.493.0-3.178-2.3-5.889-5.436-6.406L5.78 43.667C2.713 43.162.434 40.553.346 37.445L.004 25.415c-.057-1.983.796-3.884 2.317-5.159z" id="path-10" class="cls-10" fill-rule="evenodd"/><path d="M57.354 51.79s0-1.452.0-1.452-35.982.0-35.982.0C21.483 50.816 21.633 51.282 21.633 51.79c0 3.586 2.906 6.492 6.492 6.492H50.862c3.585.0 6.492-2.906 6.492-6.492z" id="path-11" class="cls-11" fill-rule="evenodd"/><path d="M53.077 54.363s-29.72.0-29.72.0c-4.103.0-7.43 5.197-7.43 11.61h44.58c0-6.413-3.326-11.61-7.43-11.61z" id="path-12" class="cls-4" fill-rule="evenodd"/></g></svg>