<svg xmlns="http://www.w3.org/2000/svg" xmlns:xlink="http://www.w3.org/1999/xlink" preserveAspectRatio="xMidYMid" width="179" height="216" viewBox="0 0 179 216"><defs><style>.cls-3{fill:#2476ff}.cls-4{fill:#000;opacity:.35}.cls-5{fill:#fbb713}.cls-6{fill:#ededed}.cls-7{fill:#000;opacity:.25}</style></defs><g id="group-149svg"><path d="M110.098 173.004s31.459 31.459 31.459 31.459S141.44 205.057 141.44 205.057c0 5.786-23.447 10.486-52.378 10.486C60.143 215.543 36.691 210.843 36.691 205.057V204.463s31.46-31.459 31.46-31.459.0.0.0.0" id="path-1" class="cls-3" fill-rule="evenodd"/><path d="M110.097 173.004s-41.946.0-41.946.0-31.46 31.459-31.46 31.459S36.691 205.057 36.691 205.057C36.691 205.865 37.193 206.649 38.059 207.405l21.47-21.469s41.947.0 41.947.0 26.19 26.189 26.19 26.189C136.193 210.259 141.44 207.782 141.44 205.057L141.557 204.463s-31.46-31.459-31.46-31.459z" id="path-2" class="cls-4" fill-rule="evenodd"/><path d="M178.262 89.144c0 49.227-39.91 89.135-89.138 89.135-49.228.0-89.136-39.908-89.136-89.135S39.896.011 89.124.011c49.228.0 89.138 39.906 89.138 89.133z" id="path-3" class="cls-5" fill-rule="evenodd"/><path d="M125.827 89.144c0 20.267-16.431 36.702-36.703 36.702-20.267.0-36.703-16.435-36.703-36.702.0-20.266 16.436-36.702 36.703-36.702 20.272.0 36.703 16.436 36.703 36.702z" id="path-4" class="cls-6" fill-rule="evenodd"/><path d="M124.24 7.218c27.083 15.294 45.399 44.297 45.399 77.615.0 49.228-39.909 89.135-89.136 89.135C68.029 173.968 56.164 171.386 45.384 166.76 58.314 174.062 73.216 178.279 89.124 178.279c49.228.0 89.138-39.908 89.138-89.135.0-36.754-22.258-68.293-54.022-81.926z" id="path-5" class="cls-7" fill-rule="evenodd"/><path d="M101.162 54.503C110.845 61.112 117.206 72.23 117.206 84.833c0 20.267-16.431 36.703-36.703 36.703-4.22199999999999.0-8.261-.75-12.036-2.062C74.353 123.491 81.463 125.847 89.124 125.847c20.272.0 36.703-16.436 36.703-36.703.0-16.044-10.315-29.653-24.665-34.641z" id="path-6" class="cls-7" fill-rule="evenodd"/></g></svg>