<svg xmlns="http://www.w3.org/2000/svg" xmlns:xlink="http://www.w3.org/1999/xlink" preserveAspectRatio="xMidYMid" width="165" height="216" viewBox="0 0 165 216"><defs><style>.cls-3{fill:#fbb713}.cls-6{fill:#000;opacity:.35}</style></defs><g id="group-83svg"><path d="M21.188 60.581C32.066 71.459 83.704 83.704 83.704 83.704S71.46 32.067 60.582 21.189C49.704 10.312.0.001.0.001s10.31 49.703 21.188 60.58z" id="path-1" class="cls-3" fill-rule="evenodd"/><path d="M143.1 60.581C132.221 71.459 80.584 83.704 80.584 83.704s12.244-51.637 23.122-62.515C114.585 10.312 164.289.001 164.289.001S153.978 49.704 143.1 60.581z" id="path-2" class="cls-3" fill-rule="evenodd"/><path d="M21.188 141.163c10.878 10.877 62.516 23.121 62.516 23.121S71.46 112.649 60.582 101.77C49.704 90.892.0 80.583.0 80.583s10.31 49.702 21.188 60.58z" id="path-3" class="cls-3" fill-rule="evenodd"/><path d="M29.026 56.662C20.48 48.116 12.288 15.62 9.166 2.074 3.65.76.0.001.0.001s10.31 49.703 21.188 60.58C32.066 71.459 83.704 83.704 83.704 83.704S83.13 81.282 82.123 77.388C66.705 73.294 36.98 64.616 29.026 56.662z" id="path-4" class="cls-6" fill-rule="evenodd"/><path d="M29.026 137.244c-8.546-8.547-16.738-41.043-19.86-54.589C3.65 81.341.0 80.583.0 80.583s10.31 49.702 21.188 60.58c10.878 10.877 62.516 23.122 62.516 23.122S83.13 161.863 82.123 157.969C66.705 153.875 36.98 145.197 29.026 137.244z" id="path-5" class="cls-6" fill-rule="evenodd"/><path d="M143.1 141.163c-10.879 10.877-62.516 23.121-62.516 23.121s12.244-51.635 23.122-62.514c10.879-10.878 60.583-21.187 60.583-21.187s-10.311 49.702-21.189 60.58z" id="path-6" class="cls-3" fill-rule="evenodd"/><path d="M150.969 3.086C147.687 17.167 139.685 48.32 131.343 56.662 124.065 63.94 98.559 71.824 82.462 76.249 81.274 80.796 80.584 83.704 80.584 83.704S132.222 71.459 143.1 60.581C153.978 49.704 164.289.001 164.289.001S158.744 1.153 150.969 3.086z" id="path-7" class="cls-6" fill-rule="evenodd"/><path d="M150.969 83.667C147.687 97.748 139.685 128.902 131.343 137.244 124.065 144.522 98.559 152.405 82.462 156.83 81.274 161.378 80.584 164.285 80.584 164.285s51.638-12.245 62.516-23.122c10.878-10.878 21.189-60.58 21.189-60.58S158.744 81.734 150.969 83.667z" id="path-8" class="cls-6" fill-rule="evenodd"/><path d="M86.839 215.534s-7.242.0-7.242.0.0-197.765.0-197.765 7.242.0 7.242.0.0 197.765.0 197.765z" id="path-9" class="cls-3" fill-rule="evenodd"/></g></svg>