<svg xmlns="http://www.w3.org/2000/svg" xmlns:xlink="http://www.w3.org/1999/xlink" preserveAspectRatio="xMidYMid" width="193" height="216" viewBox="0 0 193 216"><defs><style>.cls-3{fill:#142a3b}.cls-4{fill:#fbb713}.cls-5{fill:#060606;opacity:.35}.cls-8{fill:#ededed}</style></defs><g id="group-2svg"><path d="M161.822 210.141s-130.955.0-130.955.0S73.057 34.593 73.057 34.593c4.901-7.84 13.602-12.891 23.281-12.891H96.351c9.736.0 18.478 5.113 23.361 13.031l42.11 175.408z" id="path-1" class="cls-3" fill-rule="evenodd"/><path d="M161.822 210.141s-130.955.0-130.955.0 7.688-31.99 7.688-31.99 115.454.0 115.454.0S161.822 210.141 161.822 210.141z" id="path-2" class="cls-4" fill-rule="evenodd"/><path d="M119.712 34.733c-4.884-7.918-13.625-13.031-23.361-13.031H96.34s31.165 129.817 31.165 129.817C132.021 170.328 117.708 188.398 98.295 188.398H36.092s-5.225 21.743-5.225 21.743 130.955.0 130.955.0-42.11-175.408-42.11-175.408z" id="path-3" class="cls-5" fill-rule="evenodd"/><path d="M119.707 93.304C114.92 89.401 107.943 89.748 103.569 94.105L103.546 94.128C99.172 98.486 98.823 105.435 102.741 110.205l30.974 37.715C138.226 153.411 146.511 153.823 151.548 148.804L158.454 141.925C163.492 136.907 163.078 128.654 157.565 124.16L119.707 93.304z" id="path-4" class="cls-5" fill-rule="evenodd"/><path d="M89.316 94.105C84.942 89.748 77.965 89.401 73.177 93.304L35.32 124.16C29.807 128.654 29.394 136.907 34.431 141.925L41.336 148.804C46.374 153.823 54.659 153.411 59.169 147.92l30.975-37.715C94.062 105.435 93.713 98.486 89.339 94.128L89.316 94.105z" id="path-5" class="cls-5" fill-rule="evenodd"/><path d="M88.631 71.967C87.714 71.967 86.796 71.618 86.097 70.921L75.88 60.743C74.472 59.344 74.469 57.068 75.869 55.664 77.269 54.256 79.545 54.253 80.948 55.653L91.166 65.83C92.573 67.23 92.576 69.505 91.177 70.909 90.475 71.614 89.552 71.967 88.631 71.967z" id="path-6" class="cls-8" fill-rule="evenodd"/><path d="M114.471 97.709C113.554 97.709 112.636 97.36 111.936 96.662L101.522 86.289C100.116 84.889 100.112 82.614 101.512 81.209 102.909 79.801 105.186 79.799 106.591 81.198l10.414 10.374C118.412 92.971 118.415 95.247 117.016 96.652 116.314 97.357 115.391 97.709 114.471 97.709z" id="path-7" class="cls-8" fill-rule="evenodd"/><path d="M104.055 71.971C103.132 71.971 102.211 71.618 101.51 70.913 100.11 69.508 100.113 67.233 101.52 65.834l10.326-10.286c1.405-1.4 3.682-1.395 5.08.0109999999999957C118.326 56.963 118.322 59.239 116.916 60.638L106.589 70.924C105.89 71.622 104.972 71.971 104.055 71.971z" id="path-8" class="cls-8" fill-rule="evenodd"/><path d="M78.294 97.632C77.374 97.632 76.451 97.28 75.75 96.574 74.35 95.17 74.353 92.895 75.76 91.495L86.098 81.197C87.502 79.797 89.778 79.801 91.178 81.207 92.578 82.612 92.574 84.887 91.168 86.287L80.829 96.585C80.129 97.282 79.212 97.632 78.294 97.632z" id="path-9" class="cls-8" fill-rule="evenodd"/><path d="M107.257 76.06C107.257 82.064 102.372 86.931 96.344 86.931c-6.027.0-10.912-4.867-10.912-10.871C85.432 70.056 90.317 65.188 96.344 65.188 102.372 65.188 107.257 70.056 107.257 76.06z" id="path-10" class="cls-4" fill-rule="evenodd"/><path d="M48.256 4.396c-4.51-5.493-12.795-5.905-17.832-.886l-6.906 6.88C18.481 15.408 18.894 23.661 24.407 28.155L62.265 59.011C67.052 62.913 74.029 62.567 78.404 58.209L78.427 58.187C82.801 53.829 83.148 46.879 79.231 42.11L48.256 4.396z" id="path-11" class="cls-4" fill-rule="evenodd"/><path d="M23.518 17.637s6.906-6.88 6.906-6.88C35.461 5.739 43.746 6.151 48.257 11.643L79.231 49.357C80.207 50.545 80.916 51.868 81.367 53.252 82.528 49.517 81.872 45.323 79.231 42.11L48.257 4.396C43.746-1.097 35.461-1.509 30.424 3.51l-6.906 6.88c-3.314 3.301-4.222 7.991-2.916 12.099C21.164 20.723 22.102 19.048 23.518 17.637z" id="path-12" class="cls-5" fill-rule="evenodd"/><path d="M114.481 58.209C118.856 62.567 125.832 62.913 130.62 59.011l37.858-30.856C173.991 23.661 174.404 15.408 169.367 10.39L162.461 3.51C157.424-1.509 149.139-1.097 144.628 4.396L113.654 42.11C109.737 46.879 110.084 53.829 114.458 58.187L114.481 58.209z" id="path-13" class="cls-4" fill-rule="evenodd"/><path d="M169.368 10.39S162.461 3.51 162.461 3.51C159.668.727 155.884-.325 152.291.171 154.674.565 156.97 1.663 158.824 3.51L165.73 10.39C170.767 15.408 170.353 23.661 164.84 28.155L126.982 59.012C125.279 60.4 123.296 61.225 121.254 61.548 124.5 62.021 127.909 61.222 130.62 59.012l37.858-30.857C173.991 23.661 174.404 15.408 169.368 10.39z" id="path-14" class="cls-5" fill-rule="evenodd"/><path d="M78.404 94.105C74.029 89.748 67.052 89.401 62.265 93.304L24.407 124.16C18.894 128.654 18.481 136.907 23.518 141.925L30.424 148.804C35.461 153.823 43.746 153.411 48.256 147.92l30.975-37.715C83.148 105.435 82.801 98.486 78.427 94.128L78.404 94.105z" id="path-15" class="cls-4" fill-rule="evenodd"/><path d="M78.427 94.128S78.404 94.105 78.404 94.105C75.118 90.832 70.366 89.824 66.174 91.176 67.988 91.736 69.702 92.684 71.128 94.105L71.151 94.128C75.525 98.486 75.873 105.436 71.956 110.206L40.982 147.92C39.438 149.798 37.44 151.034 35.295 151.711 39.83 153.143 45.014 151.867 48.257 147.92l30.974-37.714C83.148 105.436 82.801 98.486 78.427 94.128z" id="path-16" class="cls-5" fill-rule="evenodd"/><path d="M130.62 93.304C125.832 89.401 118.856 89.748 114.481 94.105L114.458 94.128C110.084 98.486 109.737 105.435 113.654 110.205l30.974 37.715C149.139 153.411 157.424 153.823 162.461 148.804L169.367 141.925C174.404 136.907 173.991 128.654 168.478 124.16L130.62 93.304z" id="path-17" class="cls-4" fill-rule="evenodd"/><path d="M168.478 124.159S130.62 93.304 130.62 93.304C125.833 89.401 118.856 89.748 114.481 94.105L114.458 94.128c-.620999999999995.619-1.139 1.3-1.596 2.011C117.166 93.381 122.875 93.579 126.982 96.928l37.858 30.854C170.353 132.278 170.767 140.53 165.73 145.549L169.368 141.925C174.404 136.906 173.991 128.654 168.478 124.159z" id="path-18" class="cls-5" fill-rule="evenodd"/><path d="M187.285 215.529s-181.883.0-181.883.0C2.426 215.529.014 213.118.014 210.141.014 207.165 2.426 204.753 5.402 204.753H187.285C190.262 204.753 192.674 207.165 192.674 210.141 192.674 213.118 190.262 215.529 187.285 215.529z" id="path-19" class="cls-3" fill-rule="evenodd"/></g></svg>