<svg xmlns="http://www.w3.org/2000/svg" xmlns:xlink="http://www.w3.org/1999/xlink" preserveAspectRatio="xMidYMid" width="138" height="216" viewBox="0 0 138 216"><defs><style>.cls-3{fill:#ff3a2f}.cls-10{fill:#2476ff}.cls-11{fill:#060606;opacity:.35}</style></defs><g id="group-161svg"><path d="M68.935 63.851c7.611.0 13.787-6.185 13.787-13.786C82.722 42.46 76.546 36.277 68.935 36.277c-7.595.0-13.788 6.183-13.788 13.788C55.147 57.666 61.34 63.851 68.935 63.851zm0-18.382C71.475 45.469 73.531 47.533 73.531 50.065 73.531 52.596 71.475 54.66 68.935 54.66c-2.532.0-4.596-2.064-4.596-4.595C64.339 47.533 66.403 45.469 68.935 45.469z" id="path-1" class="cls-3" fill-rule="evenodd"/><path d="M46.189 72.809C47.087 73.707 48.272 74.157 49.438 74.157 50.623 74.157 51.79 73.707 52.688 72.809c1.794-1.795 1.794-4.703.0-6.497-4.345-4.346-6.732-10.109-6.732-16.247.0-6.141 2.387-11.902 6.732-16.248 1.794-1.795 1.794-4.702.0-6.498-1.796-1.795-4.704-1.795-6.499.0-6.077 6.076-9.426 14.155-9.426 22.746.0 8.59 3.358 16.668 9.426 22.744z" id="path-2" class="cls-3" fill-rule="evenodd"/><path d="M85.182 72.809C86.079 73.707 87.265 74.157 88.431 74.157 89.616 74.157 90.783 73.707 91.68 72.809 97.767 66.733 101.115 58.655 101.115 50.065 101.106 41.474 97.767 33.395 91.68 27.319 89.885 25.524 86.977 25.524 85.182 27.319c-1.795 1.796-1.795 4.703.0 6.498C89.526 38.163 91.923 43.924 91.923 50.065 91.923 56.203 89.526 61.966 85.182 66.312c-1.795 1.794-1.795 4.702.0 6.497z" id="path-3" class="cls-3" fill-rule="evenodd"/><path d="M33.191 85.807C34.089 86.704 35.273 87.154 36.441 87.154 37.626 87.154 38.792 86.704 39.69 85.807 41.485 84.012 41.485 81.103 39.69 79.308 31.881 71.499 27.572 61.113 27.572 50.065c0-11.042 4.3-21.427 12.118-29.245 1.795-1.795 1.795-4.703.0-6.499C37.895 12.526 34.987 12.526 33.191 14.321 23.641 23.872 18.38 36.563 18.38 50.065c0 13.499 5.261 26.19 14.811 35.742z" id="path-4" class="cls-3" fill-rule="evenodd"/><path d="M110.307 50.065c0 11.048-4.3 21.434-12.127 29.243C96.384 81.103 96.384 84.012 98.18 85.807 99.077 86.704 100.262 87.154 101.429 87.154 102.614 87.154 103.781 86.704 104.678 85.807 114.238 76.255 119.498 63.564 119.498 50.065 119.489 36.563 114.229 23.872 104.678 14.321 102.883 12.526 99.975 12.526 98.18 14.321 96.384 16.117 96.384 19.025 98.18 20.82c7.818 7.818 12.127 18.194 12.127 29.245z" id="path-5" class="cls-3" fill-rule="evenodd"/><path d="M23.443 100.15C24.609 100.15 25.795 99.702 26.693 98.803 28.487 97.009 28.487 94.1 26.693 92.305 15.4 81.023 9.188 66.023 9.188 50.073c0-15.951 6.212-30.959 17.505-42.249 1.794-1.796 1.794-4.704.0-6.499-1.796-1.797-4.704-1.797-6.5.0C7.16 14.349-.013 31.663-.003 50.073c0 18.41 7.172 35.716 20.196 48.73C21.091 99.702 22.258 100.15 23.443 100.15z" id="path-6" class="cls-3" fill-rule="evenodd"/><path d="M128.699 50.055C128.699 66.015 122.479 81.014 111.196 92.305 109.401 94.1 109.401 97.009 111.196 98.803 112.093 99.702 113.26 100.15 114.445 100.15 115.611 100.15 116.797 99.702 117.694 98.803c13.016-13.023 20.197-30.339 20.197-48.748C137.883 31.645 130.71 14.34 117.694 1.325 115.899-.472 112.991-.472 111.196 1.325c-1.795 1.795-1.795 4.703.0 6.499 11.273 11.282 17.503 26.281 17.503 42.231z" id="path-7" class="cls-3" fill-rule="evenodd"/><path d="M72.956 70.494C71.242 67.927 66.816 67.944 65.111 70.494 64.608 71.265 64.348 72.145 64.339 73.024 7.142 210.395 7.303 210.626 9.188 213.463 10.051 214.738 11.487 215.51 13.03 215.51H125.611C127.146 215.51 128.591 214.738 129.444 213.455 131.338 210.61 131.501 210.376 73.827 72.809 73.728 72.001 73.424 71.193 72.956 70.494z" id="path-8" class="cls-10" fill-rule="evenodd"/><path d="M73.827 72.81C73.728 72.001 73.424 71.193 72.956 70.493 71.242 67.927 66.816 67.943 65.111 70.493 64.608 71.266 64.348 72.145 64.339 73.024 61.91 78.859 59.622 84.356 57.395 89.706c50.537 120.606 50.349 121.026 48.535 123.75C105.078 214.739 103.633 215.51 102.097 215.51h23.514C127.146 215.51 128.591 214.739 129.444 213.456 131.338 210.61 131.501 210.376 73.827 72.81z" id="path-9" class="cls-11" fill-rule="evenodd"/></g></svg>